%TF.GenerationSoftware,KiCad,Pcbnew,8.0.8*%
%TF.CreationDate,2026-02-06T20:56:35-05:00*%
%TF.ProjectId,greenecu48,67726565-6e65-4637-9534-382e6b696361,rev?*%
%TF.SameCoordinates,Original*%
%TF.FileFunction,Paste,Top*%
%TF.FilePolarity,Positive*%
%FSLAX46Y46*%
G04 Gerber Fmt 4.6, Leading zero omitted, Abs format (unit mm)*
G04 Created by KiCad (PCBNEW 8.0.8) date 2026-02-06 20:56:35*
%MOMM*%
%LPD*%
G01*
G04 APERTURE LIST*
G04 Aperture macros list*
%AMRoundRect*
0 Rectangle with rounded corners*
0 $1 Rounding radius*
0 $2 $3 $4 $5 $6 $7 $8 $9 X,Y pos of 4 corners*
0 Add a 4 corners polygon primitive as box body*
4,1,4,$2,$3,$4,$5,$6,$7,$8,$9,$2,$3,0*
0 Add four circle primitives for the rounded corners*
1,1,$1+$1,$2,$3*
1,1,$1+$1,$4,$5*
1,1,$1+$1,$6,$7*
1,1,$1+$1,$8,$9*
0 Add four rect primitives between the rounded corners*
20,1,$1+$1,$2,$3,$4,$5,0*
20,1,$1+$1,$4,$5,$6,$7,0*
20,1,$1+$1,$6,$7,$8,$9,0*
20,1,$1+$1,$8,$9,$2,$3,0*%
G04 Aperture macros list end*
%ADD10RoundRect,0.250000X0.350000X-0.850000X0.350000X0.850000X-0.350000X0.850000X-0.350000X-0.850000X0*%
%ADD11RoundRect,0.250000X1.125000X-1.275000X1.125000X1.275000X-1.125000X1.275000X-1.125000X-1.275000X0*%
%ADD12RoundRect,0.070000X0.280000X0.390000X-0.280000X0.390000X-0.280000X-0.390000X0.280000X-0.390000X0*%
%ADD13RoundRect,0.130000X0.520000X0.620000X-0.520000X0.620000X-0.520000X-0.620000X0.520000X-0.620000X0*%
%ADD14RoundRect,0.070000X-0.280000X-0.390000X0.280000X-0.390000X0.280000X0.390000X-0.280000X0.390000X0*%
%ADD15RoundRect,0.090000X0.360000X0.510000X-0.360000X0.510000X-0.360000X-0.510000X0.360000X-0.510000X0*%
%ADD16RoundRect,0.085000X0.340000X0.340000X-0.340000X0.340000X-0.340000X-0.340000X0.340000X-0.340000X0*%
%ADD17RoundRect,0.250000X-0.850000X-0.350000X0.850000X-0.350000X0.850000X0.350000X-0.850000X0.350000X0*%
%ADD18RoundRect,0.250000X-1.275000X-1.125000X1.275000X-1.125000X1.275000X1.125000X-1.275000X1.125000X0*%
%ADD19RoundRect,0.070000X-0.390000X0.280000X-0.390000X-0.280000X0.390000X-0.280000X0.390000X0.280000X0*%
%ADD20RoundRect,0.150000X-0.825000X-0.150000X0.825000X-0.150000X0.825000X0.150000X-0.825000X0.150000X0*%
%ADD21RoundRect,0.060000X-0.240000X0.240000X-0.240000X-0.240000X0.240000X-0.240000X0.240000X0.240000X0*%
%ADD22RoundRect,0.085000X-0.340000X0.340000X-0.340000X-0.340000X0.340000X-0.340000X0.340000X0.340000X0*%
%ADD23RoundRect,0.085000X-0.340000X-0.340000X0.340000X-0.340000X0.340000X0.340000X-0.340000X0.340000X0*%
%ADD24RoundRect,0.218750X-0.256250X0.218750X-0.256250X-0.218750X0.256250X-0.218750X0.256250X0.218750X0*%
%ADD25RoundRect,0.090000X0.510000X-0.360000X0.510000X0.360000X-0.510000X0.360000X-0.510000X-0.360000X0*%
%ADD26RoundRect,0.230000X-0.670000X-0.345000X0.670000X-0.345000X0.670000X0.345000X-0.670000X0.345000X0*%
%ADD27RoundRect,0.150000X-0.150000X0.587500X-0.150000X-0.587500X0.150000X-0.587500X0.150000X0.587500X0*%
%ADD28O,0.000001X0.000001*%
G04 APERTURE END LIST*
D10*
%TO.C,Q906*%
X86748279Y-71657000D03*
D11*
X87503279Y-67032000D03*
X90553279Y-67032000D03*
X87503279Y-63682000D03*
X90553279Y-63682000D03*
D10*
X91308279Y-71657000D03*
%TD*%
%TO.C,Q903*%
X97620000Y-56710000D03*
D11*
X98375000Y-52085000D03*
X101425000Y-52085000D03*
X98375000Y-48735000D03*
X101425000Y-48735000D03*
D10*
X102180000Y-56710000D03*
%TD*%
%TO.C,Q901*%
X86870000Y-102520000D03*
D11*
X87625000Y-97895000D03*
X90675000Y-97895000D03*
X87625000Y-94545000D03*
X90675000Y-94545000D03*
D10*
X91430000Y-102520000D03*
%TD*%
%TO.C,Q902*%
X86960000Y-56610000D03*
D11*
X87715000Y-51985000D03*
X90765000Y-51985000D03*
X87715000Y-48635000D03*
X90765000Y-48635000D03*
D10*
X91520000Y-56610000D03*
%TD*%
D12*
%TO.C,R13*%
X149113000Y-72304452D03*
X147513000Y-72304452D03*
%TD*%
D13*
%TO.C,D11*%
X147850095Y-74371453D03*
X145950074Y-74371453D03*
%TD*%
D14*
%TO.C,R14*%
X150936000Y-80959524D03*
X152536000Y-80959524D03*
%TD*%
D15*
%TO.C,D4*%
X134918000Y-51701000D03*
X131618000Y-51701000D03*
%TD*%
D16*
%TO.C,C2*%
X195275001Y-64810007D03*
X193694999Y-64810007D03*
%TD*%
D17*
%TO.C,Q9*%
X119876000Y-48941000D03*
D18*
X124501000Y-49696000D03*
X124501000Y-52746000D03*
X127851000Y-49696000D03*
X127851000Y-52746000D03*
D17*
X119876000Y-53501000D03*
%TD*%
D13*
%TO.C,D14*%
X189765884Y-97861000D03*
X191665905Y-97861000D03*
%TD*%
D19*
%TO.C,R12*%
X119613928Y-50427000D03*
X119613928Y-52027000D03*
%TD*%
%TO.C,R19*%
X120489928Y-67509000D03*
X120489928Y-69109000D03*
%TD*%
%TO.C,R11*%
X119670928Y-58608000D03*
X119670928Y-60208000D03*
%TD*%
D17*
%TO.C,Q14*%
X119876000Y-57136000D03*
D18*
X124501000Y-57891000D03*
X124501000Y-60941000D03*
X127851000Y-57891000D03*
X127851000Y-60941000D03*
D17*
X119876000Y-61696000D03*
%TD*%
D15*
%TO.C,D5*%
X135337000Y-57809000D03*
X132037000Y-57809000D03*
%TD*%
D20*
%TO.C,U2*%
X198588000Y-68391000D03*
X198588000Y-69661000D03*
X198588000Y-70931000D03*
X198588000Y-72201000D03*
X203538000Y-72201000D03*
X203538000Y-70931000D03*
X203538000Y-69661000D03*
X203538000Y-68391000D03*
%TD*%
D14*
%TO.C,R15*%
X194152000Y-96004072D03*
X195752000Y-96004072D03*
%TD*%
D15*
%TO.C,D3*%
X136081000Y-68041000D03*
X132781000Y-68041000D03*
%TD*%
D17*
%TO.C,Q11*%
X120543000Y-66062000D03*
D18*
X125168000Y-66817000D03*
X125168000Y-69867000D03*
X128518000Y-66817000D03*
X128518000Y-69867000D03*
D17*
X120543000Y-70622000D03*
%TD*%
D21*
%TO.C,D9*%
X147377000Y-76671452D03*
X145177000Y-76671452D03*
%TD*%
D13*
%TO.C,D13*%
X188554979Y-94376000D03*
X190455000Y-94376000D03*
%TD*%
D10*
%TO.C,Q916*%
X118620000Y-102500000D03*
D11*
X119375000Y-97875000D03*
X122425000Y-97875000D03*
X119375000Y-94525000D03*
X122425000Y-94525000D03*
D10*
X123180000Y-102500000D03*
%TD*%
%TO.C,Q904*%
X87081721Y-87473000D03*
D11*
X87836721Y-82848000D03*
X90886721Y-82848000D03*
X87836721Y-79498000D03*
X90886721Y-79498000D03*
D10*
X91641721Y-87473000D03*
%TD*%
D13*
%TO.C,D12*%
X150600884Y-78754452D03*
X152500905Y-78754452D03*
%TD*%
D22*
%TO.C,C3*%
X197535000Y-63673999D03*
X197535000Y-65254001D03*
%TD*%
D23*
%TO.C,C4*%
X194775999Y-74383000D03*
X196356001Y-74383000D03*
%TD*%
D19*
%TO.C,R9*%
X186905000Y-29216000D03*
X186905000Y-30816000D03*
%TD*%
D17*
%TO.C,Q12*%
X187570000Y-27733000D03*
D18*
X192195000Y-28488000D03*
X192195000Y-31538000D03*
X195545000Y-28488000D03*
X195545000Y-31538000D03*
D17*
X187570000Y-32293000D03*
%TD*%
D10*
%TO.C,Q915*%
X107768279Y-71657000D03*
D11*
X108523279Y-67032000D03*
X111573279Y-67032000D03*
X108523279Y-63682000D03*
X111573279Y-63682000D03*
D10*
X112328279Y-71657000D03*
%TD*%
%TO.C,Q913*%
X107980000Y-56610000D03*
D11*
X108735000Y-51985000D03*
X111785000Y-51985000D03*
X108735000Y-48635000D03*
X111785000Y-48635000D03*
D10*
X112540000Y-56610000D03*
%TD*%
%TO.C,Q912*%
X97530000Y-102620000D03*
D11*
X98285000Y-97995000D03*
X101335000Y-97995000D03*
X98285000Y-94645000D03*
X101335000Y-94645000D03*
D10*
X102090000Y-102620000D03*
%TD*%
D24*
%TO.C,L2*%
X202929000Y-64057500D03*
X202929000Y-65632500D03*
%TD*%
D10*
%TO.C,Q905*%
X108101721Y-87473000D03*
D11*
X108856721Y-82848000D03*
X111906721Y-82848000D03*
X108856721Y-79498000D03*
X111906721Y-79498000D03*
D10*
X112661721Y-87473000D03*
%TD*%
%TO.C,Q914*%
X107890000Y-102520000D03*
D11*
X108645000Y-97895000D03*
X111695000Y-97895000D03*
X108645000Y-94545000D03*
X111695000Y-94545000D03*
D10*
X112450000Y-102520000D03*
%TD*%
D25*
%TO.C,D2*%
X171305000Y-48617000D03*
X171305000Y-45317000D03*
%TD*%
D21*
%TO.C,D10*%
X145315000Y-78754452D03*
X147515000Y-78754452D03*
%TD*%
D22*
%TO.C,C1*%
X205223000Y-64242000D03*
X205223000Y-65822002D03*
%TD*%
D24*
%TO.C,L1*%
X199950000Y-63755500D03*
X199950000Y-65330500D03*
%TD*%
D14*
%TO.C,R16*%
X194202000Y-98161000D03*
X195802000Y-98161000D03*
%TD*%
D23*
%TO.C,C5*%
X194842999Y-72297994D03*
X196423001Y-72297994D03*
%TD*%
D10*
%TO.C,Q911*%
X97408279Y-71757000D03*
D11*
X98163279Y-67132000D03*
X101213279Y-67132000D03*
X98163279Y-63782000D03*
X101213279Y-63782000D03*
D10*
X101968279Y-71757000D03*
%TD*%
D26*
%TO.C,F10*%
X137361000Y-52059020D03*
X137361000Y-49159000D03*
%TD*%
D27*
%TO.C,D1*%
X195415000Y-67234000D03*
X193515000Y-67234000D03*
X194465000Y-69109000D03*
%TD*%
D28*
%TO.C,M6*%
X199565666Y-102073501D03*
%TD*%
D12*
%TO.C,R17*%
X119540000Y-123835000D03*
X117940000Y-123835000D03*
%TD*%
M02*
