%TF.GenerationSoftware,KiCad,Pcbnew,8.0.8*%
%TF.CreationDate,2026-02-06T20:56:35-05:00*%
%TF.ProjectId,greenecu48,67726565-6e65-4637-9534-382e6b696361,rev?*%
%TF.SameCoordinates,Original*%
%TF.FileFunction,Soldermask,Top*%
%TF.FilePolarity,Negative*%
%FSLAX46Y46*%
G04 Gerber Fmt 4.6, Leading zero omitted, Abs format (unit mm)*
G04 Created by KiCad (PCBNEW 8.0.8) date 2026-02-06 20:56:35*
%MOMM*%
%LPD*%
G01*
G04 APERTURE LIST*
G04 Aperture macros list*
%AMRoundRect*
0 Rectangle with rounded corners*
0 $1 Rounding radius*
0 $2 $3 $4 $5 $6 $7 $8 $9 X,Y pos of 4 corners*
0 Add a 4 corners polygon primitive as box body*
4,1,4,$2,$3,$4,$5,$6,$7,$8,$9,$2,$3,0*
0 Add four circle primitives for the rounded corners*
1,1,$1+$1,$2,$3*
1,1,$1+$1,$4,$5*
1,1,$1+$1,$6,$7*
1,1,$1+$1,$8,$9*
0 Add four rect primitives between the rounded corners*
20,1,$1+$1,$2,$3,$4,$5,0*
20,1,$1+$1,$4,$5,$6,$7,0*
20,1,$1+$1,$6,$7,$8,$9,0*
20,1,$1+$1,$8,$9,$2,$3,0*%
G04 Aperture macros list end*
%ADD10C,4.000000*%
%ADD11C,2.200000*%
%ADD12C,1.600000*%
%ADD13RoundRect,0.250000X0.350000X-0.850000X0.350000X0.850000X-0.350000X0.850000X-0.350000X-0.850000X0*%
%ADD14RoundRect,0.249997X2.650003X-2.950003X2.650003X2.950003X-2.650003X2.950003X-2.650003X-2.950003X0*%
%ADD15RoundRect,0.070000X0.280000X0.390000X-0.280000X0.390000X-0.280000X-0.390000X0.280000X-0.390000X0*%
%ADD16RoundRect,0.130000X0.520000X0.620000X-0.520000X0.620000X-0.520000X-0.620000X0.520000X-0.620000X0*%
%ADD17RoundRect,0.070000X-0.280000X-0.390000X0.280000X-0.390000X0.280000X0.390000X-0.280000X0.390000X0*%
%ADD18O,0.399999X0.200000*%
%ADD19C,0.600000*%
%ADD20RoundRect,0.090000X0.360000X0.510000X-0.360000X0.510000X-0.360000X-0.510000X0.360000X-0.510000X0*%
%ADD21RoundRect,0.085000X0.340000X0.340000X-0.340000X0.340000X-0.340000X-0.340000X0.340000X-0.340000X0*%
%ADD22RoundRect,0.250000X-0.850000X-0.350000X0.850000X-0.350000X0.850000X0.350000X-0.850000X0.350000X0*%
%ADD23RoundRect,0.249997X-2.950003X-2.650003X2.950003X-2.650003X2.950003X2.650003X-2.950003X2.650003X0*%
%ADD24RoundRect,0.070000X-0.390000X0.280000X-0.390000X-0.280000X0.390000X-0.280000X0.390000X0.280000X0*%
%ADD25R,1.100000X1.100000*%
%ADD26C,1.100000*%
%ADD27O,1.100000X2.400000*%
%ADD28RoundRect,0.150000X-0.825000X-0.150000X0.825000X-0.150000X0.825000X0.150000X-0.825000X0.150000X0*%
%ADD29O,0.200000X0.399999*%
%ADD30C,0.599999*%
%ADD31RoundRect,0.060000X-0.240000X0.240000X-0.240000X-0.240000X0.240000X-0.240000X0.240000X0.240000X0*%
%ADD32RoundRect,0.085000X-0.340000X0.340000X-0.340000X-0.340000X0.340000X-0.340000X0.340000X0.340000X0*%
%ADD33RoundRect,0.085000X-0.340000X-0.340000X0.340000X-0.340000X0.340000X0.340000X-0.340000X0.340000X0*%
%ADD34RoundRect,0.218750X-0.256250X0.218750X-0.256250X-0.218750X0.256250X-0.218750X0.256250X0.218750X0*%
%ADD35RoundRect,0.090000X0.510000X-0.360000X0.510000X0.360000X-0.510000X0.360000X-0.510000X-0.360000X0*%
%ADD36C,1.500000*%
%ADD37C,1.524000*%
%ADD38RoundRect,0.230000X-0.670000X-0.345000X0.670000X-0.345000X0.670000X0.345000X-0.670000X0.345000X0*%
%ADD39RoundRect,0.150000X-0.150000X0.587500X-0.150000X-0.587500X0.150000X-0.587500X0.150000X0.587500X0*%
%ADD40O,0.250000X0.499999*%
%ADD41O,0.499999X0.250000*%
G04 APERTURE END LIST*
D10*
%TO.C,U1*%
X119677601Y-34974599D03*
D11*
X123777601Y-38824599D03*
X166377601Y-38824599D03*
D10*
X170477601Y-34974599D03*
D12*
X130227601Y-30224599D03*
X130227601Y-32724599D03*
X130227601Y-35224599D03*
X130227601Y-37724599D03*
X133927601Y-30224599D03*
X133927601Y-32724599D03*
X133927601Y-35224599D03*
X133927601Y-37724599D03*
X137427601Y-30224599D03*
X137427601Y-32724599D03*
X137427601Y-35224599D03*
X137427601Y-37724599D03*
X139927601Y-30224599D03*
X139927601Y-32724599D03*
X139927601Y-35224599D03*
X139927601Y-37724599D03*
X142427601Y-30224599D03*
X142427601Y-32724599D03*
X142427601Y-35224599D03*
X142427601Y-37724599D03*
X144927601Y-30224599D03*
X144927601Y-32724599D03*
X144927601Y-35224599D03*
X144927601Y-37724599D03*
X147427601Y-30224599D03*
X147427601Y-32724599D03*
X147427601Y-35224599D03*
X147427601Y-37724599D03*
X149927601Y-30224599D03*
X149927601Y-32724599D03*
X149927601Y-35224599D03*
X149927601Y-37724599D03*
X152427601Y-30224599D03*
X152427601Y-32724599D03*
X152427601Y-35224599D03*
X152427601Y-37724599D03*
X154927601Y-30224599D03*
X154927601Y-32724599D03*
X154927601Y-35224599D03*
X154927601Y-37724599D03*
X157427601Y-30224599D03*
X157427601Y-32724599D03*
X157427601Y-35224599D03*
X157427601Y-37724599D03*
X159927601Y-30224599D03*
X159927601Y-32724599D03*
X159927601Y-35224599D03*
X159927601Y-37724599D03*
%TD*%
D13*
%TO.C,Q906*%
X86748279Y-71657000D03*
D14*
X89028279Y-65357000D03*
D13*
X91308279Y-71657000D03*
%TD*%
%TO.C,Q903*%
X97620000Y-56710000D03*
D14*
X99900000Y-50410000D03*
D13*
X102180000Y-56710000D03*
%TD*%
%TO.C,Q901*%
X86870000Y-102520000D03*
D14*
X89150000Y-96220000D03*
D13*
X91430000Y-102520000D03*
%TD*%
%TO.C,Q902*%
X86960000Y-56610000D03*
D14*
X89240000Y-50310000D03*
D13*
X91520000Y-56610000D03*
%TD*%
D15*
%TO.C,R13*%
X149113000Y-72304452D03*
X147513000Y-72304452D03*
%TD*%
D16*
%TO.C,D11*%
X147850095Y-74371453D03*
X145950074Y-74371453D03*
%TD*%
D17*
%TO.C,R14*%
X150936000Y-80959524D03*
X152536000Y-80959524D03*
%TD*%
D18*
%TO.C,M4*%
X117714398Y-118113946D03*
X117714398Y-117353967D03*
X117714398Y-116178974D03*
X117714398Y-115003987D03*
X117714398Y-114164075D03*
X117714398Y-113414003D03*
X117714398Y-112238992D03*
X117714398Y-111063995D03*
D19*
X127814005Y-116103998D03*
X127388997Y-117939008D03*
X126839000Y-115889000D03*
X125964041Y-116103995D03*
X125114018Y-116179002D03*
X124789002Y-117939008D03*
X123489035Y-116629008D03*
X122839018Y-117939008D03*
X130014021Y-112013993D03*
X129714019Y-116088999D03*
%TD*%
D20*
%TO.C,D4*%
X134918000Y-51701000D03*
X131618000Y-51701000D03*
%TD*%
D21*
%TO.C,C2*%
X195275001Y-64810007D03*
X193694999Y-64810007D03*
%TD*%
D19*
%TO.C,M2*%
X184780784Y-61130242D03*
X183580784Y-61130242D03*
X185980784Y-61130242D03*
X187180784Y-61130242D03*
X180720784Y-46705242D03*
X179720784Y-46705242D03*
%TD*%
D22*
%TO.C,Q9*%
X119876000Y-48941000D03*
D23*
X126176000Y-51221000D03*
D22*
X119876000Y-53501000D03*
%TD*%
D16*
%TO.C,D14*%
X189765884Y-97861000D03*
X191665905Y-97861000D03*
%TD*%
D24*
%TO.C,R12*%
X119613928Y-50427000D03*
X119613928Y-52027000D03*
%TD*%
%TO.C,R19*%
X120489928Y-67509000D03*
X120489928Y-69109000D03*
%TD*%
%TO.C,R11*%
X119670928Y-58608000D03*
X119670928Y-60208000D03*
%TD*%
D22*
%TO.C,Q14*%
X119876000Y-57136000D03*
D23*
X126176000Y-59416000D03*
D22*
X119876000Y-61696000D03*
%TD*%
D25*
%TO.C,J4*%
X123848000Y-124952000D03*
D26*
X124648000Y-123202000D03*
X125448000Y-124952000D03*
X126248000Y-123202000D03*
X127048000Y-124952000D03*
D27*
X121798000Y-124077000D03*
X129098000Y-124077000D03*
%TD*%
D19*
%TO.C,M3*%
X175770000Y-55621000D03*
X174820000Y-55621000D03*
X173870002Y-55621000D03*
X174870000Y-46921000D03*
X175770000Y-46921000D03*
%TD*%
D20*
%TO.C,D5*%
X135337000Y-57809000D03*
X132037000Y-57809000D03*
%TD*%
D28*
%TO.C,U2*%
X198588000Y-68391000D03*
X198588000Y-69661000D03*
X198588000Y-70931000D03*
X198588000Y-72201000D03*
X203538000Y-72201000D03*
X203538000Y-70931000D03*
X203538000Y-69661000D03*
X203538000Y-68391000D03*
%TD*%
D17*
%TO.C,R15*%
X194152000Y-96004072D03*
X195752000Y-96004072D03*
%TD*%
D20*
%TO.C,D3*%
X136081000Y-68041000D03*
X132781000Y-68041000D03*
%TD*%
D22*
%TO.C,Q11*%
X120543000Y-66062000D03*
D23*
X126843000Y-68342000D03*
D22*
X120543000Y-70622000D03*
%TD*%
D29*
%TO.C,M7*%
X126540052Y-83248378D03*
X127300031Y-83248378D03*
X128475024Y-83248378D03*
X129650011Y-83248378D03*
X130489923Y-83248378D03*
X131239995Y-83248378D03*
X132415006Y-83248378D03*
X133590003Y-83248378D03*
D30*
X128550000Y-93347985D03*
X126714990Y-92922977D03*
X128764998Y-92372980D03*
X128550003Y-91498021D03*
X128474996Y-90647998D03*
X126714990Y-90322982D03*
X128024990Y-89023015D03*
X126714990Y-88372998D03*
X132640005Y-95548001D03*
X128564999Y-95247999D03*
%TD*%
D31*
%TO.C,D9*%
X147377000Y-76671452D03*
X145177000Y-76671452D03*
%TD*%
D16*
%TO.C,D13*%
X188554979Y-94376000D03*
X190455000Y-94376000D03*
%TD*%
D13*
%TO.C,Q916*%
X118620000Y-102500000D03*
D14*
X120900000Y-96200000D03*
D13*
X123180000Y-102500000D03*
%TD*%
%TO.C,Q904*%
X87081721Y-87473000D03*
D14*
X89361721Y-81173000D03*
D13*
X91641721Y-87473000D03*
%TD*%
D16*
%TO.C,D12*%
X150600884Y-78754452D03*
X152500905Y-78754452D03*
%TD*%
D32*
%TO.C,C3*%
X197535000Y-63673999D03*
X197535000Y-65254001D03*
%TD*%
D33*
%TO.C,C4*%
X194775999Y-74383000D03*
X196356001Y-74383000D03*
%TD*%
D24*
%TO.C,R9*%
X186905000Y-29216000D03*
X186905000Y-30816000D03*
%TD*%
D22*
%TO.C,Q12*%
X187570000Y-27733000D03*
D23*
X193870000Y-30013000D03*
D22*
X187570000Y-32293000D03*
%TD*%
D13*
%TO.C,Q915*%
X107768279Y-71657000D03*
D14*
X110048279Y-65357000D03*
D13*
X112328279Y-71657000D03*
%TD*%
%TO.C,Q913*%
X107980000Y-56610000D03*
D14*
X110260000Y-50310000D03*
D13*
X112540000Y-56610000D03*
%TD*%
%TO.C,Q912*%
X97530000Y-102620000D03*
D14*
X99810000Y-96320000D03*
D13*
X102090000Y-102620000D03*
%TD*%
D34*
%TO.C,L2*%
X202929000Y-64057500D03*
X202929000Y-65632500D03*
%TD*%
D13*
%TO.C,Q905*%
X108101721Y-87473000D03*
D14*
X110381721Y-81173000D03*
D13*
X112661721Y-87473000D03*
%TD*%
%TO.C,Q914*%
X107890000Y-102520000D03*
D14*
X110170000Y-96220000D03*
D13*
X112450000Y-102520000D03*
%TD*%
D35*
%TO.C,D2*%
X171305000Y-48617000D03*
X171305000Y-45317000D03*
%TD*%
D31*
%TO.C,D10*%
X145315000Y-78754452D03*
X147515000Y-78754452D03*
%TD*%
D32*
%TO.C,C1*%
X205223000Y-64242000D03*
X205223000Y-65822002D03*
%TD*%
D34*
%TO.C,L1*%
X199950000Y-63755500D03*
X199950000Y-65330500D03*
%TD*%
D17*
%TO.C,R16*%
X194202000Y-98161000D03*
X195802000Y-98161000D03*
%TD*%
D33*
%TO.C,C5*%
X194842999Y-72297994D03*
X196423001Y-72297994D03*
%TD*%
D36*
%TO.C,M1*%
X142120253Y-67457400D03*
X142120253Y-55407402D03*
X142120253Y-50457399D03*
X142120253Y-48607400D03*
X157620250Y-67907402D03*
D19*
X158070249Y-65057400D03*
X158070249Y-64057399D03*
D36*
X157620250Y-61657402D03*
X157620250Y-57357402D03*
X157620250Y-55457399D03*
X157620250Y-49057402D03*
%TD*%
D13*
%TO.C,Q911*%
X97408279Y-71757000D03*
D14*
X99688279Y-65457000D03*
D13*
X101968279Y-71757000D03*
%TD*%
D37*
%TO.C,F10*%
X137361000Y-53059010D03*
D38*
X137361000Y-52059020D03*
X137361000Y-49159000D03*
D37*
X137361000Y-48159010D03*
%TD*%
D39*
%TO.C,D1*%
X195415000Y-67234000D03*
X193515000Y-67234000D03*
X194465000Y-69109000D03*
%TD*%
D40*
%TO.C,M6*%
X199565666Y-106698495D03*
D41*
X199615664Y-96348501D03*
X199615664Y-96848502D03*
D30*
X200665662Y-103398499D03*
X201190662Y-102523497D03*
X201940660Y-103698501D03*
X205490661Y-103623498D03*
%TD*%
D15*
%TO.C,R17*%
X119540000Y-123835000D03*
X117940000Y-123835000D03*
%TD*%
M02*
