M48
; DRILL file {KiCad 8.0.9-8.0.9-0~ubuntu24.04.1} date 2026-02-09T21:19:24+0000
; FORMAT={2:4/ absolute / inch / suppress leading zeros}
; #@! TF.CreationDate,2026-02-09T21:19:24+00:00
; #@! TF.GenerationSoftware,Kicad,Pcbnew,8.0.9-8.0.9-0~ubuntu24.04.1
; #@! TF.FileFunction,MixedPlating,1,4
FMAT,2
INCH,TZ
; #@! TA.AperFunction,Plated,PTH,ComponentDrill
T1C0.0118
; #@! TA.AperFunction,Plated,PTH,ViaDrill
T2C0.0118
; #@! TA.AperFunction,Plated,PTH,ComponentDrill
T3C0.0118
; #@! TA.AperFunction,Plated,PTH,ViaDrill
T4C0.0197
; #@! TA.AperFunction,Plated,PTH,ViaDrill
T5C0.0276
; #@! TA.AperFunction,Plated,PTH,ComponentDrill
T6C0.0276
; #@! TA.AperFunction,Plated,PTH,ComponentDrill
T7C0.0320
; #@! TA.AperFunction,Plated,PTH,ViaDrill
T8C0.0394
; #@! TA.AperFunction,Plated,PTH,ComponentDrill
T9C0.0394
; #@! TA.AperFunction,Plated,PTH,ComponentDrill
T10C0.0453
; #@! TA.AperFunction,Plated,PTH,ViaDrill
T11C0.1969
; #@! TA.AperFunction,NonPlated,NPTH,ComponentDrill
T12C0.0866
; #@! TA.AperFunction,NonPlated,NPTH,ComponentDrill
T13C0.1575
%
G90
G05
T1
X17963Y17837
X17963Y17070
X17963Y16046
X18478Y17581
X18656Y16942
X18685Y15879
X18685Y16607
X18691Y15131
X18770Y16263
X20295Y15013
X47077Y11922
X47284Y12266
X47579Y11804
X48977Y11833
T2
X2705Y24236
X2788Y30160
X2836Y18009
X2853Y12186
X6949Y12046
X6982Y23994
X6985Y30121
X7161Y8963
X7443Y11728
X7793Y8451
X7859Y1988
X8381Y7913
X8644Y2046
X8924Y6297
X8998Y8904
X9050Y12781
X9474Y2019
X9802Y5780
X10243Y2006
X10297Y7149
X10754Y7683
X10963Y3208
X10971Y8477
X10980Y24236
X11028Y12085
X11064Y30160
X11083Y2015
X11112Y18009
X11345Y10845
X11536Y11635
X11544Y4538
X11731Y3048
X12451Y6890
X12667Y5137
X12697Y2826
X13023Y7979
X13494Y12346
X13617Y7353
X13944Y6527
X14809Y11451
X15253Y12093
X18864Y20816
X19155Y11049
X19745Y9527
X20067Y4985
X21001Y5846
X21039Y5317
X22479Y14773
X22568Y6301
X22697Y7939
X22979Y4528
X23440Y31763
X24935Y2902
X24994Y3501
X26151Y24164
X29674Y21543
X30822Y32206
X31096Y27483
X31294Y3700
X31852Y33476
X35518Y33489
X36528Y24226
X38569Y3593
X39616Y34574
X40086Y24833
X40109Y5920
X41589Y13670
X41659Y40498
X42309Y15474
X43347Y23948
X43666Y9708
X44402Y40814
X44636Y25422
X44938Y12272
X45844Y27561
X46179Y12363
X46191Y11104
X46259Y25704
X46259Y25204
X46795Y27529
X46977Y28161
X47968Y27410
X47968Y26790
X48208Y25204
X48208Y24704
X48208Y24204
X48643Y32944
X48871Y27338
X49096Y42393
X49595Y42448
T3
X16437Y6197
X16693Y6713
X17204Y6197
X17332Y6890
X17667Y6920
X18011Y7004
X18228Y6197
X18395Y6920
X19143Y6926
X19261Y8530
X23309Y18703
X23309Y15750
X23309Y15435
X23309Y15120
X23309Y14805
X23309Y14490
X23309Y13860
X23309Y13545
X23309Y13230
X23309Y12915
X23309Y12600
X23309Y12285
X23309Y11970
X23309Y11656
X23309Y11341
X23309Y11026
X23309Y10081
X23309Y9766
X23309Y9451
X23309Y8191
X23309Y7876
X23309Y7561
X23309Y7246
X23309Y6301
X23309Y5986
X23309Y5671
X23309Y5356
X23309Y5041
X23309Y4018
X23309Y18388
X23309Y14175
X23309Y10711
X23309Y10396
X23309Y9136
X23309Y8821
X23309Y8506
X23309Y6931
X23309Y6616
X23545Y19569
X23624Y4018
X23939Y4018
X24018Y19569
X24254Y4018
X24490Y19569
X24569Y4018
X24884Y4018
X24963Y19569
X25199Y4018
X25435Y19569
X25514Y4018
X25829Y4018
X25868Y19569
X26144Y4018
X26341Y19569
X26459Y4018
X26774Y4018
X26813Y19569
X27089Y4018
X27285Y19569
X27404Y4018
X27719Y4018
X27758Y19569
X28033Y4018
X28230Y19569
X28348Y4018
X28663Y4018
X28703Y19569
X28978Y4018
X29175Y19569
X29293Y4018
X29608Y4018
X29648Y19569
X29923Y4018
X30120Y19569
X30238Y4018
X30307Y27410
X30307Y27017
X30593Y19569
X31065Y19569
X31537Y19569
X32010Y19569
X32404Y4018
X32482Y19569
X32719Y4018
X32955Y19569
X33033Y4018
X33348Y4018
X33427Y19569
X33663Y4018
X33900Y19569
X34372Y19569
X34844Y19569
X35317Y19569
X35789Y19569
X36262Y19569
X36528Y30732
X36734Y19569
X36734Y4018
X36902Y30732
X36921Y34157
X37049Y4018
X37207Y19569
X37276Y34157
X37276Y30732
X37364Y4018
X37679Y19569
X38152Y19569
X38624Y19569
X38831Y34242
X39225Y34242
X39569Y19569
X39726Y15671
X39726Y12915
X39726Y12522
X39726Y12128
X39726Y11734
X39726Y11341
X39726Y10947
X39726Y10553
X39726Y10159
X39726Y4018
X39726Y13309
X39726Y9766
X39726Y9372
X39726Y8978
X39726Y8585
X39726Y8191
X39726Y7797
X39726Y18585
X39726Y18191
X40351Y28563
X40823Y28563
X41296Y28563
X41768Y28563
X43638Y28670
X44032Y28670
X44426Y28670
X45323Y28670
X45723Y28670
X46650Y39139
X47044Y39139
X47437Y39139
X47831Y39139
T4
X15270Y31567
X15270Y28340
X15533Y24826
X27349Y41786
T5
X2362Y27604
X2401Y26891
X2401Y26041
X2409Y15453
X2449Y14740
X2449Y13890
X2484Y32815
X2484Y31965
X2493Y21377
X2532Y20664
X2532Y19814
X2586Y33528
X3098Y27604
X3129Y26044
X3133Y26915
X3146Y15453
X3177Y13894
X3181Y33528
X3181Y14764
X3213Y31969
X3217Y32839
X3229Y21377
X3261Y19818
X3264Y20688
X3877Y27615
X3877Y26033
X3893Y26883
X3925Y15465
X3925Y13882
X3941Y14732
X3961Y33539
X3961Y31957
X3976Y32807
X3989Y20656
X4009Y21389
X4009Y19806
X6558Y27564
X6598Y26852
X6598Y26001
X6606Y15413
X6642Y33488
X6646Y14701
X6646Y13850
X6681Y32776
X6681Y31925
X7295Y27564
X7326Y26005
X7330Y26875
X7343Y15413
X7374Y13854
X7378Y33488
X7378Y14724
X7409Y31929
X7413Y32799
X8074Y27576
X8074Y25993
X8090Y26844
X8122Y15425
X8122Y13843
X8138Y14693
X8157Y33500
X8157Y31917
X8173Y32768
X10637Y27604
X10676Y26891
X10676Y26041
X10685Y15453
X10720Y33528
X10724Y14740
X10724Y13890
X10760Y32815
X10760Y31965
X10768Y21377
X10808Y20664
X10808Y19814
X11373Y27604
X11405Y26044
X11409Y26915
X11421Y15453
X11453Y13894
X11457Y33528
X11457Y14764
X11488Y31969
X11492Y32839
X11505Y21377
X11536Y19818
X11540Y20688
X12153Y27615
X12153Y26033
X12169Y26883
X12201Y15465
X12201Y13882
X12217Y14732
X12236Y33539
X12236Y31957
X12252Y32807
X12284Y21389
X12284Y19806
X12300Y20656
X14949Y15453
X14949Y14748
X14949Y13898
X15646Y15461
X15677Y13902
X15681Y14772
X16425Y15472
X16425Y13890
X16441Y14740
T6
X16834Y3436
X17149Y4125
X17464Y3436
X17779Y4125
X18094Y3436
T7
X22154Y33670
X22154Y31741
T8
X1144Y10824
X1340Y4387
X1912Y35608
X2461Y22985
X2589Y29054
X7040Y28820
X7190Y17500
X7202Y22260
X8306Y35327
X11071Y38953
X11649Y22866
X11662Y28921
X11709Y39988
X12575Y39980
X13441Y40077
X13443Y11168
X14126Y41024
X15073Y35719
X16467Y40981
X16641Y10231
X17750Y32464
X17750Y29238
X18013Y25724
X18201Y40969
X21000Y41598
X22051Y41850
X22981Y41892
X23887Y41866
X24771Y41968
X31302Y24725
X38914Y21970
X39350Y39830
X41644Y36848
X46150Y41092
X47233Y20666
X48096Y8704
T9
X24028Y33493
X24028Y32765
X24028Y30816
X24028Y26072
X30130Y33316
X30130Y30796
X30130Y30048
X30130Y28355
X30130Y25895
T10
X19346Y40730
X19346Y39746
X19346Y38762
X19346Y37778
X20802Y40730
X20802Y39746
X20802Y38762
X20802Y37778
X22180Y40730
X22180Y39746
X22180Y38762
X22180Y37778
X23164Y40730
X23164Y39746
X23164Y38762
X23164Y37778
X24149Y40730
X24149Y39746
X24149Y38762
X24149Y37778
X25133Y40730
X25133Y39746
X25133Y38762
X25133Y37778
X26117Y40730
X26117Y39746
X26117Y38762
X26117Y37778
X27101Y40730
X27101Y39746
X27101Y38762
X27101Y37778
X28086Y40730
X28086Y39746
X28086Y38762
X28086Y37778
X29070Y40730
X29070Y39746
X29070Y38762
X29070Y37778
X30054Y40730
X30054Y39746
X30054Y38762
X30054Y37778
X31038Y40730
X31038Y39746
X31038Y38762
X31038Y37778
T11
X4592Y3551
X46017Y4083
T12
X16806Y37345
X33578Y37345
T13
X15192Y38860
X35192Y38860
T6
X16027Y4037G85X16027Y3525
G05
X18901Y4037G85X18901Y3525
G05
M30
