%TF.GenerationSoftware,KiCad,Pcbnew,8.0.8*%
%TF.CreationDate,2026-02-09T15:56:51-05:00*%
%TF.ProjectId,greenecu48,67726565-6e65-4637-9534-382e6b696361,rev?*%
%TF.SameCoordinates,Original*%
%TF.FileFunction,Legend,Top*%
%TF.FilePolarity,Positive*%
%FSLAX46Y46*%
G04 Gerber Fmt 4.6, Leading zero omitted, Abs format (unit mm)*
G04 Created by KiCad (PCBNEW 8.0.8) date 2026-02-09 15:56:51*
%MOMM*%
%LPD*%
G01*
G04 APERTURE LIST*
%ADD10C,0.150000*%
%ADD11C,0.170000*%
%ADD12C,0.127000*%
%ADD13C,0.000000*%
%ADD14C,0.120000*%
%ADD15C,0.203200*%
%ADD16C,0.200000*%
G04 APERTURE END LIST*
D10*
X85078336Y-67664619D02*
X85030717Y-67759857D01*
X85030717Y-67759857D02*
X84935479Y-67855095D01*
X84935479Y-67855095D02*
X84792621Y-67997952D01*
X84792621Y-67997952D02*
X84745002Y-68093190D01*
X84745002Y-68093190D02*
X84745002Y-68188428D01*
X84983098Y-68140809D02*
X84935479Y-68236047D01*
X84935479Y-68236047D02*
X84840240Y-68331285D01*
X84840240Y-68331285D02*
X84649764Y-68378904D01*
X84649764Y-68378904D02*
X84316431Y-68378904D01*
X84316431Y-68378904D02*
X84125955Y-68331285D01*
X84125955Y-68331285D02*
X84030717Y-68236047D01*
X84030717Y-68236047D02*
X83983098Y-68140809D01*
X83983098Y-68140809D02*
X83983098Y-67950333D01*
X83983098Y-67950333D02*
X84030717Y-67855095D01*
X84030717Y-67855095D02*
X84125955Y-67759857D01*
X84125955Y-67759857D02*
X84316431Y-67712238D01*
X84316431Y-67712238D02*
X84649764Y-67712238D01*
X84649764Y-67712238D02*
X84840240Y-67759857D01*
X84840240Y-67759857D02*
X84935479Y-67855095D01*
X84935479Y-67855095D02*
X84983098Y-67950333D01*
X84983098Y-67950333D02*
X84983098Y-68140809D01*
X84983098Y-67236047D02*
X84983098Y-67045571D01*
X84983098Y-67045571D02*
X84935479Y-66950333D01*
X84935479Y-66950333D02*
X84887859Y-66902714D01*
X84887859Y-66902714D02*
X84745002Y-66807476D01*
X84745002Y-66807476D02*
X84554526Y-66759857D01*
X84554526Y-66759857D02*
X84173574Y-66759857D01*
X84173574Y-66759857D02*
X84078336Y-66807476D01*
X84078336Y-66807476D02*
X84030717Y-66855095D01*
X84030717Y-66855095D02*
X83983098Y-66950333D01*
X83983098Y-66950333D02*
X83983098Y-67140809D01*
X83983098Y-67140809D02*
X84030717Y-67236047D01*
X84030717Y-67236047D02*
X84078336Y-67283666D01*
X84078336Y-67283666D02*
X84173574Y-67331285D01*
X84173574Y-67331285D02*
X84411669Y-67331285D01*
X84411669Y-67331285D02*
X84506907Y-67283666D01*
X84506907Y-67283666D02*
X84554526Y-67236047D01*
X84554526Y-67236047D02*
X84602145Y-67140809D01*
X84602145Y-67140809D02*
X84602145Y-66950333D01*
X84602145Y-66950333D02*
X84554526Y-66855095D01*
X84554526Y-66855095D02*
X84506907Y-66807476D01*
X84506907Y-66807476D02*
X84411669Y-66759857D01*
X83983098Y-66140809D02*
X83983098Y-66045571D01*
X83983098Y-66045571D02*
X84030717Y-65950333D01*
X84030717Y-65950333D02*
X84078336Y-65902714D01*
X84078336Y-65902714D02*
X84173574Y-65855095D01*
X84173574Y-65855095D02*
X84364050Y-65807476D01*
X84364050Y-65807476D02*
X84602145Y-65807476D01*
X84602145Y-65807476D02*
X84792621Y-65855095D01*
X84792621Y-65855095D02*
X84887859Y-65902714D01*
X84887859Y-65902714D02*
X84935479Y-65950333D01*
X84935479Y-65950333D02*
X84983098Y-66045571D01*
X84983098Y-66045571D02*
X84983098Y-66140809D01*
X84983098Y-66140809D02*
X84935479Y-66236047D01*
X84935479Y-66236047D02*
X84887859Y-66283666D01*
X84887859Y-66283666D02*
X84792621Y-66331285D01*
X84792621Y-66331285D02*
X84602145Y-66378904D01*
X84602145Y-66378904D02*
X84364050Y-66378904D01*
X84364050Y-66378904D02*
X84173574Y-66331285D01*
X84173574Y-66331285D02*
X84078336Y-66283666D01*
X84078336Y-66283666D02*
X84030717Y-66236047D01*
X84030717Y-66236047D02*
X83983098Y-66140809D01*
X83983098Y-64950333D02*
X83983098Y-65140809D01*
X83983098Y-65140809D02*
X84030717Y-65236047D01*
X84030717Y-65236047D02*
X84078336Y-65283666D01*
X84078336Y-65283666D02*
X84221193Y-65378904D01*
X84221193Y-65378904D02*
X84411669Y-65426523D01*
X84411669Y-65426523D02*
X84792621Y-65426523D01*
X84792621Y-65426523D02*
X84887859Y-65378904D01*
X84887859Y-65378904D02*
X84935479Y-65331285D01*
X84935479Y-65331285D02*
X84983098Y-65236047D01*
X84983098Y-65236047D02*
X84983098Y-65045571D01*
X84983098Y-65045571D02*
X84935479Y-64950333D01*
X84935479Y-64950333D02*
X84887859Y-64902714D01*
X84887859Y-64902714D02*
X84792621Y-64855095D01*
X84792621Y-64855095D02*
X84554526Y-64855095D01*
X84554526Y-64855095D02*
X84459288Y-64902714D01*
X84459288Y-64902714D02*
X84411669Y-64950333D01*
X84411669Y-64950333D02*
X84364050Y-65045571D01*
X84364050Y-65045571D02*
X84364050Y-65236047D01*
X84364050Y-65236047D02*
X84411669Y-65331285D01*
X84411669Y-65331285D02*
X84459288Y-65378904D01*
X84459288Y-65378904D02*
X84554526Y-65426523D01*
X95950057Y-52717619D02*
X95902438Y-52812857D01*
X95902438Y-52812857D02*
X95807200Y-52908095D01*
X95807200Y-52908095D02*
X95664342Y-53050952D01*
X95664342Y-53050952D02*
X95616723Y-53146190D01*
X95616723Y-53146190D02*
X95616723Y-53241428D01*
X95854819Y-53193809D02*
X95807200Y-53289047D01*
X95807200Y-53289047D02*
X95711961Y-53384285D01*
X95711961Y-53384285D02*
X95521485Y-53431904D01*
X95521485Y-53431904D02*
X95188152Y-53431904D01*
X95188152Y-53431904D02*
X94997676Y-53384285D01*
X94997676Y-53384285D02*
X94902438Y-53289047D01*
X94902438Y-53289047D02*
X94854819Y-53193809D01*
X94854819Y-53193809D02*
X94854819Y-53003333D01*
X94854819Y-53003333D02*
X94902438Y-52908095D01*
X94902438Y-52908095D02*
X94997676Y-52812857D01*
X94997676Y-52812857D02*
X95188152Y-52765238D01*
X95188152Y-52765238D02*
X95521485Y-52765238D01*
X95521485Y-52765238D02*
X95711961Y-52812857D01*
X95711961Y-52812857D02*
X95807200Y-52908095D01*
X95807200Y-52908095D02*
X95854819Y-53003333D01*
X95854819Y-53003333D02*
X95854819Y-53193809D01*
X95854819Y-52289047D02*
X95854819Y-52098571D01*
X95854819Y-52098571D02*
X95807200Y-52003333D01*
X95807200Y-52003333D02*
X95759580Y-51955714D01*
X95759580Y-51955714D02*
X95616723Y-51860476D01*
X95616723Y-51860476D02*
X95426247Y-51812857D01*
X95426247Y-51812857D02*
X95045295Y-51812857D01*
X95045295Y-51812857D02*
X94950057Y-51860476D01*
X94950057Y-51860476D02*
X94902438Y-51908095D01*
X94902438Y-51908095D02*
X94854819Y-52003333D01*
X94854819Y-52003333D02*
X94854819Y-52193809D01*
X94854819Y-52193809D02*
X94902438Y-52289047D01*
X94902438Y-52289047D02*
X94950057Y-52336666D01*
X94950057Y-52336666D02*
X95045295Y-52384285D01*
X95045295Y-52384285D02*
X95283390Y-52384285D01*
X95283390Y-52384285D02*
X95378628Y-52336666D01*
X95378628Y-52336666D02*
X95426247Y-52289047D01*
X95426247Y-52289047D02*
X95473866Y-52193809D01*
X95473866Y-52193809D02*
X95473866Y-52003333D01*
X95473866Y-52003333D02*
X95426247Y-51908095D01*
X95426247Y-51908095D02*
X95378628Y-51860476D01*
X95378628Y-51860476D02*
X95283390Y-51812857D01*
X94854819Y-51193809D02*
X94854819Y-51098571D01*
X94854819Y-51098571D02*
X94902438Y-51003333D01*
X94902438Y-51003333D02*
X94950057Y-50955714D01*
X94950057Y-50955714D02*
X95045295Y-50908095D01*
X95045295Y-50908095D02*
X95235771Y-50860476D01*
X95235771Y-50860476D02*
X95473866Y-50860476D01*
X95473866Y-50860476D02*
X95664342Y-50908095D01*
X95664342Y-50908095D02*
X95759580Y-50955714D01*
X95759580Y-50955714D02*
X95807200Y-51003333D01*
X95807200Y-51003333D02*
X95854819Y-51098571D01*
X95854819Y-51098571D02*
X95854819Y-51193809D01*
X95854819Y-51193809D02*
X95807200Y-51289047D01*
X95807200Y-51289047D02*
X95759580Y-51336666D01*
X95759580Y-51336666D02*
X95664342Y-51384285D01*
X95664342Y-51384285D02*
X95473866Y-51431904D01*
X95473866Y-51431904D02*
X95235771Y-51431904D01*
X95235771Y-51431904D02*
X95045295Y-51384285D01*
X95045295Y-51384285D02*
X94950057Y-51336666D01*
X94950057Y-51336666D02*
X94902438Y-51289047D01*
X94902438Y-51289047D02*
X94854819Y-51193809D01*
X94854819Y-50527142D02*
X94854819Y-49908095D01*
X94854819Y-49908095D02*
X95235771Y-50241428D01*
X95235771Y-50241428D02*
X95235771Y-50098571D01*
X95235771Y-50098571D02*
X95283390Y-50003333D01*
X95283390Y-50003333D02*
X95331009Y-49955714D01*
X95331009Y-49955714D02*
X95426247Y-49908095D01*
X95426247Y-49908095D02*
X95664342Y-49908095D01*
X95664342Y-49908095D02*
X95759580Y-49955714D01*
X95759580Y-49955714D02*
X95807200Y-50003333D01*
X95807200Y-50003333D02*
X95854819Y-50098571D01*
X95854819Y-50098571D02*
X95854819Y-50384285D01*
X95854819Y-50384285D02*
X95807200Y-50479523D01*
X95807200Y-50479523D02*
X95759580Y-50527142D01*
X85200057Y-98527619D02*
X85152438Y-98622857D01*
X85152438Y-98622857D02*
X85057200Y-98718095D01*
X85057200Y-98718095D02*
X84914342Y-98860952D01*
X84914342Y-98860952D02*
X84866723Y-98956190D01*
X84866723Y-98956190D02*
X84866723Y-99051428D01*
X85104819Y-99003809D02*
X85057200Y-99099047D01*
X85057200Y-99099047D02*
X84961961Y-99194285D01*
X84961961Y-99194285D02*
X84771485Y-99241904D01*
X84771485Y-99241904D02*
X84438152Y-99241904D01*
X84438152Y-99241904D02*
X84247676Y-99194285D01*
X84247676Y-99194285D02*
X84152438Y-99099047D01*
X84152438Y-99099047D02*
X84104819Y-99003809D01*
X84104819Y-99003809D02*
X84104819Y-98813333D01*
X84104819Y-98813333D02*
X84152438Y-98718095D01*
X84152438Y-98718095D02*
X84247676Y-98622857D01*
X84247676Y-98622857D02*
X84438152Y-98575238D01*
X84438152Y-98575238D02*
X84771485Y-98575238D01*
X84771485Y-98575238D02*
X84961961Y-98622857D01*
X84961961Y-98622857D02*
X85057200Y-98718095D01*
X85057200Y-98718095D02*
X85104819Y-98813333D01*
X85104819Y-98813333D02*
X85104819Y-99003809D01*
X85104819Y-98099047D02*
X85104819Y-97908571D01*
X85104819Y-97908571D02*
X85057200Y-97813333D01*
X85057200Y-97813333D02*
X85009580Y-97765714D01*
X85009580Y-97765714D02*
X84866723Y-97670476D01*
X84866723Y-97670476D02*
X84676247Y-97622857D01*
X84676247Y-97622857D02*
X84295295Y-97622857D01*
X84295295Y-97622857D02*
X84200057Y-97670476D01*
X84200057Y-97670476D02*
X84152438Y-97718095D01*
X84152438Y-97718095D02*
X84104819Y-97813333D01*
X84104819Y-97813333D02*
X84104819Y-98003809D01*
X84104819Y-98003809D02*
X84152438Y-98099047D01*
X84152438Y-98099047D02*
X84200057Y-98146666D01*
X84200057Y-98146666D02*
X84295295Y-98194285D01*
X84295295Y-98194285D02*
X84533390Y-98194285D01*
X84533390Y-98194285D02*
X84628628Y-98146666D01*
X84628628Y-98146666D02*
X84676247Y-98099047D01*
X84676247Y-98099047D02*
X84723866Y-98003809D01*
X84723866Y-98003809D02*
X84723866Y-97813333D01*
X84723866Y-97813333D02*
X84676247Y-97718095D01*
X84676247Y-97718095D02*
X84628628Y-97670476D01*
X84628628Y-97670476D02*
X84533390Y-97622857D01*
X84104819Y-97003809D02*
X84104819Y-96908571D01*
X84104819Y-96908571D02*
X84152438Y-96813333D01*
X84152438Y-96813333D02*
X84200057Y-96765714D01*
X84200057Y-96765714D02*
X84295295Y-96718095D01*
X84295295Y-96718095D02*
X84485771Y-96670476D01*
X84485771Y-96670476D02*
X84723866Y-96670476D01*
X84723866Y-96670476D02*
X84914342Y-96718095D01*
X84914342Y-96718095D02*
X85009580Y-96765714D01*
X85009580Y-96765714D02*
X85057200Y-96813333D01*
X85057200Y-96813333D02*
X85104819Y-96908571D01*
X85104819Y-96908571D02*
X85104819Y-97003809D01*
X85104819Y-97003809D02*
X85057200Y-97099047D01*
X85057200Y-97099047D02*
X85009580Y-97146666D01*
X85009580Y-97146666D02*
X84914342Y-97194285D01*
X84914342Y-97194285D02*
X84723866Y-97241904D01*
X84723866Y-97241904D02*
X84485771Y-97241904D01*
X84485771Y-97241904D02*
X84295295Y-97194285D01*
X84295295Y-97194285D02*
X84200057Y-97146666D01*
X84200057Y-97146666D02*
X84152438Y-97099047D01*
X84152438Y-97099047D02*
X84104819Y-97003809D01*
X85104819Y-95718095D02*
X85104819Y-96289523D01*
X85104819Y-96003809D02*
X84104819Y-96003809D01*
X84104819Y-96003809D02*
X84247676Y-96099047D01*
X84247676Y-96099047D02*
X84342914Y-96194285D01*
X84342914Y-96194285D02*
X84390533Y-96289523D01*
X85290057Y-52617619D02*
X85242438Y-52712857D01*
X85242438Y-52712857D02*
X85147200Y-52808095D01*
X85147200Y-52808095D02*
X85004342Y-52950952D01*
X85004342Y-52950952D02*
X84956723Y-53046190D01*
X84956723Y-53046190D02*
X84956723Y-53141428D01*
X85194819Y-53093809D02*
X85147200Y-53189047D01*
X85147200Y-53189047D02*
X85051961Y-53284285D01*
X85051961Y-53284285D02*
X84861485Y-53331904D01*
X84861485Y-53331904D02*
X84528152Y-53331904D01*
X84528152Y-53331904D02*
X84337676Y-53284285D01*
X84337676Y-53284285D02*
X84242438Y-53189047D01*
X84242438Y-53189047D02*
X84194819Y-53093809D01*
X84194819Y-53093809D02*
X84194819Y-52903333D01*
X84194819Y-52903333D02*
X84242438Y-52808095D01*
X84242438Y-52808095D02*
X84337676Y-52712857D01*
X84337676Y-52712857D02*
X84528152Y-52665238D01*
X84528152Y-52665238D02*
X84861485Y-52665238D01*
X84861485Y-52665238D02*
X85051961Y-52712857D01*
X85051961Y-52712857D02*
X85147200Y-52808095D01*
X85147200Y-52808095D02*
X85194819Y-52903333D01*
X85194819Y-52903333D02*
X85194819Y-53093809D01*
X85194819Y-52189047D02*
X85194819Y-51998571D01*
X85194819Y-51998571D02*
X85147200Y-51903333D01*
X85147200Y-51903333D02*
X85099580Y-51855714D01*
X85099580Y-51855714D02*
X84956723Y-51760476D01*
X84956723Y-51760476D02*
X84766247Y-51712857D01*
X84766247Y-51712857D02*
X84385295Y-51712857D01*
X84385295Y-51712857D02*
X84290057Y-51760476D01*
X84290057Y-51760476D02*
X84242438Y-51808095D01*
X84242438Y-51808095D02*
X84194819Y-51903333D01*
X84194819Y-51903333D02*
X84194819Y-52093809D01*
X84194819Y-52093809D02*
X84242438Y-52189047D01*
X84242438Y-52189047D02*
X84290057Y-52236666D01*
X84290057Y-52236666D02*
X84385295Y-52284285D01*
X84385295Y-52284285D02*
X84623390Y-52284285D01*
X84623390Y-52284285D02*
X84718628Y-52236666D01*
X84718628Y-52236666D02*
X84766247Y-52189047D01*
X84766247Y-52189047D02*
X84813866Y-52093809D01*
X84813866Y-52093809D02*
X84813866Y-51903333D01*
X84813866Y-51903333D02*
X84766247Y-51808095D01*
X84766247Y-51808095D02*
X84718628Y-51760476D01*
X84718628Y-51760476D02*
X84623390Y-51712857D01*
X84194819Y-51093809D02*
X84194819Y-50998571D01*
X84194819Y-50998571D02*
X84242438Y-50903333D01*
X84242438Y-50903333D02*
X84290057Y-50855714D01*
X84290057Y-50855714D02*
X84385295Y-50808095D01*
X84385295Y-50808095D02*
X84575771Y-50760476D01*
X84575771Y-50760476D02*
X84813866Y-50760476D01*
X84813866Y-50760476D02*
X85004342Y-50808095D01*
X85004342Y-50808095D02*
X85099580Y-50855714D01*
X85099580Y-50855714D02*
X85147200Y-50903333D01*
X85147200Y-50903333D02*
X85194819Y-50998571D01*
X85194819Y-50998571D02*
X85194819Y-51093809D01*
X85194819Y-51093809D02*
X85147200Y-51189047D01*
X85147200Y-51189047D02*
X85099580Y-51236666D01*
X85099580Y-51236666D02*
X85004342Y-51284285D01*
X85004342Y-51284285D02*
X84813866Y-51331904D01*
X84813866Y-51331904D02*
X84575771Y-51331904D01*
X84575771Y-51331904D02*
X84385295Y-51284285D01*
X84385295Y-51284285D02*
X84290057Y-51236666D01*
X84290057Y-51236666D02*
X84242438Y-51189047D01*
X84242438Y-51189047D02*
X84194819Y-51093809D01*
X84290057Y-50379523D02*
X84242438Y-50331904D01*
X84242438Y-50331904D02*
X84194819Y-50236666D01*
X84194819Y-50236666D02*
X84194819Y-49998571D01*
X84194819Y-49998571D02*
X84242438Y-49903333D01*
X84242438Y-49903333D02*
X84290057Y-49855714D01*
X84290057Y-49855714D02*
X84385295Y-49808095D01*
X84385295Y-49808095D02*
X84480533Y-49808095D01*
X84480533Y-49808095D02*
X84623390Y-49855714D01*
X84623390Y-49855714D02*
X85194819Y-50427142D01*
X85194819Y-50427142D02*
X85194819Y-49808095D01*
D11*
X148618348Y-70650643D02*
X148891681Y-71041119D01*
X149086919Y-70650643D02*
X149086919Y-71470643D01*
X149086919Y-71470643D02*
X148774538Y-71470643D01*
X148774538Y-71470643D02*
X148696443Y-71431595D01*
X148696443Y-71431595D02*
X148657396Y-71392548D01*
X148657396Y-71392548D02*
X148618348Y-71314452D01*
X148618348Y-71314452D02*
X148618348Y-71197310D01*
X148618348Y-71197310D02*
X148657396Y-71119214D01*
X148657396Y-71119214D02*
X148696443Y-71080167D01*
X148696443Y-71080167D02*
X148774538Y-71041119D01*
X148774538Y-71041119D02*
X149086919Y-71041119D01*
X147837396Y-70650643D02*
X148305967Y-70650643D01*
X148071681Y-70650643D02*
X148071681Y-71470643D01*
X148071681Y-71470643D02*
X148149777Y-71353500D01*
X148149777Y-71353500D02*
X148227872Y-71275405D01*
X148227872Y-71275405D02*
X148305967Y-71236357D01*
X147564063Y-71470643D02*
X147056444Y-71470643D01*
X147056444Y-71470643D02*
X147329777Y-71158262D01*
X147329777Y-71158262D02*
X147212634Y-71158262D01*
X147212634Y-71158262D02*
X147134539Y-71119214D01*
X147134539Y-71119214D02*
X147095491Y-71080167D01*
X147095491Y-71080167D02*
X147056444Y-71002071D01*
X147056444Y-71002071D02*
X147056444Y-70806833D01*
X147056444Y-70806833D02*
X147095491Y-70728738D01*
X147095491Y-70728738D02*
X147134539Y-70689691D01*
X147134539Y-70689691D02*
X147212634Y-70650643D01*
X147212634Y-70650643D02*
X147446920Y-70650643D01*
X147446920Y-70650643D02*
X147525015Y-70689691D01*
X147525015Y-70689691D02*
X147564063Y-70728738D01*
X149671804Y-74319503D02*
X150471805Y-74319503D01*
X150471805Y-74319503D02*
X150471805Y-74509979D01*
X150471805Y-74509979D02*
X150433710Y-74624265D01*
X150433710Y-74624265D02*
X150357519Y-74700456D01*
X150357519Y-74700456D02*
X150281329Y-74738551D01*
X150281329Y-74738551D02*
X150128948Y-74776646D01*
X150128948Y-74776646D02*
X150014662Y-74776646D01*
X150014662Y-74776646D02*
X149862281Y-74738551D01*
X149862281Y-74738551D02*
X149786090Y-74700456D01*
X149786090Y-74700456D02*
X149709900Y-74624265D01*
X149709900Y-74624265D02*
X149671804Y-74509979D01*
X149671804Y-74509979D02*
X149671804Y-74319503D01*
X149671804Y-75538552D02*
X149671804Y-75081409D01*
X149671804Y-75309980D02*
X150471805Y-75309980D01*
X150471805Y-75309980D02*
X150357519Y-75233790D01*
X150357519Y-75233790D02*
X150281329Y-75157599D01*
X150281329Y-75157599D02*
X150243234Y-75081409D01*
X149671804Y-76300458D02*
X149671804Y-75843315D01*
X149671804Y-76071886D02*
X150471805Y-76071886D01*
X150471805Y-76071886D02*
X150357519Y-75995696D01*
X150357519Y-75995696D02*
X150281329Y-75919505D01*
X150281329Y-75919505D02*
X150243234Y-75843315D01*
X151414651Y-82456808D02*
X151141318Y-82066332D01*
X150946080Y-82456808D02*
X150946080Y-81636808D01*
X150946080Y-81636808D02*
X151258461Y-81636808D01*
X151258461Y-81636808D02*
X151336556Y-81675856D01*
X151336556Y-81675856D02*
X151375603Y-81714903D01*
X151375603Y-81714903D02*
X151414651Y-81792999D01*
X151414651Y-81792999D02*
X151414651Y-81910141D01*
X151414651Y-81910141D02*
X151375603Y-81988237D01*
X151375603Y-81988237D02*
X151336556Y-82027284D01*
X151336556Y-82027284D02*
X151258461Y-82066332D01*
X151258461Y-82066332D02*
X150946080Y-82066332D01*
X152195603Y-82456808D02*
X151727032Y-82456808D01*
X151961318Y-82456808D02*
X151961318Y-81636808D01*
X151961318Y-81636808D02*
X151883222Y-81753951D01*
X151883222Y-81753951D02*
X151805127Y-81832046D01*
X151805127Y-81832046D02*
X151727032Y-81871094D01*
X152898460Y-81910141D02*
X152898460Y-82456808D01*
X152703222Y-81597761D02*
X152507984Y-82183475D01*
X152507984Y-82183475D02*
X153015603Y-82183475D01*
X132662762Y-54071508D02*
X132662762Y-53251508D01*
X132662762Y-53251508D02*
X132858000Y-53251508D01*
X132858000Y-53251508D02*
X132975143Y-53290556D01*
X132975143Y-53290556D02*
X133053238Y-53368651D01*
X133053238Y-53368651D02*
X133092285Y-53446746D01*
X133092285Y-53446746D02*
X133131333Y-53602937D01*
X133131333Y-53602937D02*
X133131333Y-53720080D01*
X133131333Y-53720080D02*
X133092285Y-53876270D01*
X133092285Y-53876270D02*
X133053238Y-53954365D01*
X133053238Y-53954365D02*
X132975143Y-54032461D01*
X132975143Y-54032461D02*
X132858000Y-54071508D01*
X132858000Y-54071508D02*
X132662762Y-54071508D01*
X133834190Y-53524841D02*
X133834190Y-54071508D01*
X133638952Y-53212461D02*
X133443714Y-53798175D01*
X133443714Y-53798175D02*
X133951333Y-53798175D01*
X194589347Y-65477287D02*
X194628395Y-65438240D01*
X194628395Y-65438240D02*
X194745538Y-65399192D01*
X194745538Y-65399192D02*
X194823633Y-65399192D01*
X194823633Y-65399192D02*
X194940776Y-65438240D01*
X194940776Y-65438240D02*
X195018872Y-65516335D01*
X195018872Y-65516335D02*
X195057919Y-65594430D01*
X195057919Y-65594430D02*
X195096967Y-65750621D01*
X195096967Y-65750621D02*
X195096967Y-65867764D01*
X195096967Y-65867764D02*
X195057919Y-66023955D01*
X195057919Y-66023955D02*
X195018872Y-66102050D01*
X195018872Y-66102050D02*
X194940776Y-66180145D01*
X194940776Y-66180145D02*
X194823633Y-66219193D01*
X194823633Y-66219193D02*
X194745538Y-66219193D01*
X194745538Y-66219193D02*
X194628395Y-66180145D01*
X194628395Y-66180145D02*
X194589347Y-66141098D01*
X194276966Y-66141098D02*
X194237918Y-66180145D01*
X194237918Y-66180145D02*
X194159823Y-66219193D01*
X194159823Y-66219193D02*
X193964585Y-66219193D01*
X193964585Y-66219193D02*
X193886489Y-66180145D01*
X193886489Y-66180145D02*
X193847442Y-66141098D01*
X193847442Y-66141098D02*
X193808394Y-66063002D01*
X193808394Y-66063002D02*
X193808394Y-65984907D01*
X193808394Y-65984907D02*
X193847442Y-65867764D01*
X193847442Y-65867764D02*
X194316014Y-65399192D01*
X194316014Y-65399192D02*
X193808394Y-65399192D01*
D10*
X124820761Y-47271057D02*
X124725523Y-47223438D01*
X124725523Y-47223438D02*
X124630285Y-47128200D01*
X124630285Y-47128200D02*
X124487428Y-46985342D01*
X124487428Y-46985342D02*
X124392190Y-46937723D01*
X124392190Y-46937723D02*
X124296952Y-46937723D01*
X124344571Y-47175819D02*
X124249333Y-47128200D01*
X124249333Y-47128200D02*
X124154095Y-47032961D01*
X124154095Y-47032961D02*
X124106476Y-46842485D01*
X124106476Y-46842485D02*
X124106476Y-46509152D01*
X124106476Y-46509152D02*
X124154095Y-46318676D01*
X124154095Y-46318676D02*
X124249333Y-46223438D01*
X124249333Y-46223438D02*
X124344571Y-46175819D01*
X124344571Y-46175819D02*
X124535047Y-46175819D01*
X124535047Y-46175819D02*
X124630285Y-46223438D01*
X124630285Y-46223438D02*
X124725523Y-46318676D01*
X124725523Y-46318676D02*
X124773142Y-46509152D01*
X124773142Y-46509152D02*
X124773142Y-46842485D01*
X124773142Y-46842485D02*
X124725523Y-47032961D01*
X124725523Y-47032961D02*
X124630285Y-47128200D01*
X124630285Y-47128200D02*
X124535047Y-47175819D01*
X124535047Y-47175819D02*
X124344571Y-47175819D01*
X125249333Y-47175819D02*
X125439809Y-47175819D01*
X125439809Y-47175819D02*
X125535047Y-47128200D01*
X125535047Y-47128200D02*
X125582666Y-47080580D01*
X125582666Y-47080580D02*
X125677904Y-46937723D01*
X125677904Y-46937723D02*
X125725523Y-46747247D01*
X125725523Y-46747247D02*
X125725523Y-46366295D01*
X125725523Y-46366295D02*
X125677904Y-46271057D01*
X125677904Y-46271057D02*
X125630285Y-46223438D01*
X125630285Y-46223438D02*
X125535047Y-46175819D01*
X125535047Y-46175819D02*
X125344571Y-46175819D01*
X125344571Y-46175819D02*
X125249333Y-46223438D01*
X125249333Y-46223438D02*
X125201714Y-46271057D01*
X125201714Y-46271057D02*
X125154095Y-46366295D01*
X125154095Y-46366295D02*
X125154095Y-46604390D01*
X125154095Y-46604390D02*
X125201714Y-46699628D01*
X125201714Y-46699628D02*
X125249333Y-46747247D01*
X125249333Y-46747247D02*
X125344571Y-46794866D01*
X125344571Y-46794866D02*
X125535047Y-46794866D01*
X125535047Y-46794866D02*
X125630285Y-46747247D01*
X125630285Y-46747247D02*
X125677904Y-46699628D01*
X125677904Y-46699628D02*
X125725523Y-46604390D01*
D11*
X193487614Y-97809050D02*
X194287615Y-97809050D01*
X194287615Y-97809050D02*
X194287615Y-97999526D01*
X194287615Y-97999526D02*
X194249520Y-98113812D01*
X194249520Y-98113812D02*
X194173329Y-98190003D01*
X194173329Y-98190003D02*
X194097139Y-98228098D01*
X194097139Y-98228098D02*
X193944758Y-98266193D01*
X193944758Y-98266193D02*
X193830472Y-98266193D01*
X193830472Y-98266193D02*
X193678091Y-98228098D01*
X193678091Y-98228098D02*
X193601900Y-98190003D01*
X193601900Y-98190003D02*
X193525710Y-98113812D01*
X193525710Y-98113812D02*
X193487614Y-97999526D01*
X193487614Y-97999526D02*
X193487614Y-97809050D01*
X193487614Y-99028099D02*
X193487614Y-98570956D01*
X193487614Y-98799527D02*
X194287615Y-98799527D01*
X194287615Y-98799527D02*
X194173329Y-98723337D01*
X194173329Y-98723337D02*
X194097139Y-98647146D01*
X194097139Y-98647146D02*
X194059044Y-98570956D01*
X194020948Y-99713815D02*
X193487614Y-99713815D01*
X194325711Y-99523338D02*
X193754281Y-99332862D01*
X193754281Y-99332862D02*
X193754281Y-99828100D01*
X120376942Y-50767092D02*
X120767418Y-50493759D01*
X120376942Y-50298521D02*
X121196942Y-50298521D01*
X121196942Y-50298521D02*
X121196942Y-50610902D01*
X121196942Y-50610902D02*
X121157894Y-50688997D01*
X121157894Y-50688997D02*
X121118847Y-50728044D01*
X121118847Y-50728044D02*
X121040751Y-50767092D01*
X121040751Y-50767092D02*
X120923609Y-50767092D01*
X120923609Y-50767092D02*
X120845513Y-50728044D01*
X120845513Y-50728044D02*
X120806466Y-50688997D01*
X120806466Y-50688997D02*
X120767418Y-50610902D01*
X120767418Y-50610902D02*
X120767418Y-50298521D01*
X120376942Y-51548044D02*
X120376942Y-51079473D01*
X120376942Y-51313759D02*
X121196942Y-51313759D01*
X121196942Y-51313759D02*
X121079799Y-51235663D01*
X121079799Y-51235663D02*
X121001704Y-51157568D01*
X121001704Y-51157568D02*
X120962656Y-51079473D01*
X121118847Y-51860425D02*
X121157894Y-51899473D01*
X121157894Y-51899473D02*
X121196942Y-51977568D01*
X121196942Y-51977568D02*
X121196942Y-52172806D01*
X121196942Y-52172806D02*
X121157894Y-52250901D01*
X121157894Y-52250901D02*
X121118847Y-52289949D01*
X121118847Y-52289949D02*
X121040751Y-52328996D01*
X121040751Y-52328996D02*
X120962656Y-52328996D01*
X120962656Y-52328996D02*
X120845513Y-52289949D01*
X120845513Y-52289949D02*
X120376942Y-51821377D01*
X120376942Y-51821377D02*
X120376942Y-52328996D01*
X121252942Y-67849092D02*
X121643418Y-67575759D01*
X121252942Y-67380521D02*
X122072942Y-67380521D01*
X122072942Y-67380521D02*
X122072942Y-67692902D01*
X122072942Y-67692902D02*
X122033894Y-67770997D01*
X122033894Y-67770997D02*
X121994847Y-67810044D01*
X121994847Y-67810044D02*
X121916751Y-67849092D01*
X121916751Y-67849092D02*
X121799609Y-67849092D01*
X121799609Y-67849092D02*
X121721513Y-67810044D01*
X121721513Y-67810044D02*
X121682466Y-67770997D01*
X121682466Y-67770997D02*
X121643418Y-67692902D01*
X121643418Y-67692902D02*
X121643418Y-67380521D01*
X121252942Y-68630044D02*
X121252942Y-68161473D01*
X121252942Y-68395759D02*
X122072942Y-68395759D01*
X122072942Y-68395759D02*
X121955799Y-68317663D01*
X121955799Y-68317663D02*
X121877704Y-68239568D01*
X121877704Y-68239568D02*
X121838656Y-68161473D01*
X121252942Y-69020520D02*
X121252942Y-69176711D01*
X121252942Y-69176711D02*
X121291990Y-69254806D01*
X121291990Y-69254806D02*
X121331037Y-69293854D01*
X121331037Y-69293854D02*
X121448180Y-69371949D01*
X121448180Y-69371949D02*
X121604370Y-69410996D01*
X121604370Y-69410996D02*
X121916751Y-69410996D01*
X121916751Y-69410996D02*
X121994847Y-69371949D01*
X121994847Y-69371949D02*
X122033894Y-69332901D01*
X122033894Y-69332901D02*
X122072942Y-69254806D01*
X122072942Y-69254806D02*
X122072942Y-69098615D01*
X122072942Y-69098615D02*
X122033894Y-69020520D01*
X122033894Y-69020520D02*
X121994847Y-68981473D01*
X121994847Y-68981473D02*
X121916751Y-68942425D01*
X121916751Y-68942425D02*
X121721513Y-68942425D01*
X121721513Y-68942425D02*
X121643418Y-68981473D01*
X121643418Y-68981473D02*
X121604370Y-69020520D01*
X121604370Y-69020520D02*
X121565323Y-69098615D01*
X121565323Y-69098615D02*
X121565323Y-69254806D01*
X121565323Y-69254806D02*
X121604370Y-69332901D01*
X121604370Y-69332901D02*
X121643418Y-69371949D01*
X121643418Y-69371949D02*
X121721513Y-69410996D01*
X120433942Y-58948092D02*
X120824418Y-58674759D01*
X120433942Y-58479521D02*
X121253942Y-58479521D01*
X121253942Y-58479521D02*
X121253942Y-58791902D01*
X121253942Y-58791902D02*
X121214894Y-58869997D01*
X121214894Y-58869997D02*
X121175847Y-58909044D01*
X121175847Y-58909044D02*
X121097751Y-58948092D01*
X121097751Y-58948092D02*
X120980609Y-58948092D01*
X120980609Y-58948092D02*
X120902513Y-58909044D01*
X120902513Y-58909044D02*
X120863466Y-58869997D01*
X120863466Y-58869997D02*
X120824418Y-58791902D01*
X120824418Y-58791902D02*
X120824418Y-58479521D01*
X120433942Y-59729044D02*
X120433942Y-59260473D01*
X120433942Y-59494759D02*
X121253942Y-59494759D01*
X121253942Y-59494759D02*
X121136799Y-59416663D01*
X121136799Y-59416663D02*
X121058704Y-59338568D01*
X121058704Y-59338568D02*
X121019656Y-59260473D01*
X120433942Y-60509996D02*
X120433942Y-60041425D01*
X120433942Y-60275711D02*
X121253942Y-60275711D01*
X121253942Y-60275711D02*
X121136799Y-60197615D01*
X121136799Y-60197615D02*
X121058704Y-60119520D01*
X121058704Y-60119520D02*
X121019656Y-60041425D01*
D10*
X124344571Y-55466057D02*
X124249333Y-55418438D01*
X124249333Y-55418438D02*
X124154095Y-55323200D01*
X124154095Y-55323200D02*
X124011238Y-55180342D01*
X124011238Y-55180342D02*
X123916000Y-55132723D01*
X123916000Y-55132723D02*
X123820762Y-55132723D01*
X123868381Y-55370819D02*
X123773143Y-55323200D01*
X123773143Y-55323200D02*
X123677905Y-55227961D01*
X123677905Y-55227961D02*
X123630286Y-55037485D01*
X123630286Y-55037485D02*
X123630286Y-54704152D01*
X123630286Y-54704152D02*
X123677905Y-54513676D01*
X123677905Y-54513676D02*
X123773143Y-54418438D01*
X123773143Y-54418438D02*
X123868381Y-54370819D01*
X123868381Y-54370819D02*
X124058857Y-54370819D01*
X124058857Y-54370819D02*
X124154095Y-54418438D01*
X124154095Y-54418438D02*
X124249333Y-54513676D01*
X124249333Y-54513676D02*
X124296952Y-54704152D01*
X124296952Y-54704152D02*
X124296952Y-55037485D01*
X124296952Y-55037485D02*
X124249333Y-55227961D01*
X124249333Y-55227961D02*
X124154095Y-55323200D01*
X124154095Y-55323200D02*
X124058857Y-55370819D01*
X124058857Y-55370819D02*
X123868381Y-55370819D01*
X125249333Y-55370819D02*
X124677905Y-55370819D01*
X124963619Y-55370819D02*
X124963619Y-54370819D01*
X124963619Y-54370819D02*
X124868381Y-54513676D01*
X124868381Y-54513676D02*
X124773143Y-54608914D01*
X124773143Y-54608914D02*
X124677905Y-54656533D01*
X126106476Y-54704152D02*
X126106476Y-55370819D01*
X125868381Y-54323200D02*
X125630286Y-55037485D01*
X125630286Y-55037485D02*
X126249333Y-55037485D01*
X125114666Y-120706819D02*
X125114666Y-121421104D01*
X125114666Y-121421104D02*
X125067047Y-121563961D01*
X125067047Y-121563961D02*
X124971809Y-121659200D01*
X124971809Y-121659200D02*
X124828952Y-121706819D01*
X124828952Y-121706819D02*
X124733714Y-121706819D01*
X126019428Y-121040152D02*
X126019428Y-121706819D01*
X125781333Y-120659200D02*
X125543238Y-121373485D01*
X125543238Y-121373485D02*
X126162285Y-121373485D01*
X177289428Y-46762741D02*
X177889428Y-46762741D01*
X177889428Y-46762741D02*
X177460857Y-46962741D01*
X177460857Y-46962741D02*
X177889428Y-47162741D01*
X177889428Y-47162741D02*
X177289428Y-47162741D01*
X177889428Y-47391312D02*
X177889428Y-47762740D01*
X177889428Y-47762740D02*
X177660857Y-47562740D01*
X177660857Y-47562740D02*
X177660857Y-47648455D01*
X177660857Y-47648455D02*
X177632285Y-47705598D01*
X177632285Y-47705598D02*
X177603714Y-47734169D01*
X177603714Y-47734169D02*
X177546571Y-47762740D01*
X177546571Y-47762740D02*
X177403714Y-47762740D01*
X177403714Y-47762740D02*
X177346571Y-47734169D01*
X177346571Y-47734169D02*
X177318000Y-47705598D01*
X177318000Y-47705598D02*
X177289428Y-47648455D01*
X177289428Y-47648455D02*
X177289428Y-47477026D01*
X177289428Y-47477026D02*
X177318000Y-47419883D01*
X177318000Y-47419883D02*
X177346571Y-47391312D01*
D11*
X133081762Y-60179508D02*
X133081762Y-59359508D01*
X133081762Y-59359508D02*
X133277000Y-59359508D01*
X133277000Y-59359508D02*
X133394143Y-59398556D01*
X133394143Y-59398556D02*
X133472238Y-59476651D01*
X133472238Y-59476651D02*
X133511285Y-59554746D01*
X133511285Y-59554746D02*
X133550333Y-59710937D01*
X133550333Y-59710937D02*
X133550333Y-59828080D01*
X133550333Y-59828080D02*
X133511285Y-59984270D01*
X133511285Y-59984270D02*
X133472238Y-60062365D01*
X133472238Y-60062365D02*
X133394143Y-60140461D01*
X133394143Y-60140461D02*
X133277000Y-60179508D01*
X133277000Y-60179508D02*
X133081762Y-60179508D01*
X134292238Y-59359508D02*
X133901762Y-59359508D01*
X133901762Y-59359508D02*
X133862714Y-59749984D01*
X133862714Y-59749984D02*
X133901762Y-59710937D01*
X133901762Y-59710937D02*
X133979857Y-59671889D01*
X133979857Y-59671889D02*
X134175095Y-59671889D01*
X134175095Y-59671889D02*
X134253190Y-59710937D01*
X134253190Y-59710937D02*
X134292238Y-59749984D01*
X134292238Y-59749984D02*
X134331285Y-59828080D01*
X134331285Y-59828080D02*
X134331285Y-60023318D01*
X134331285Y-60023318D02*
X134292238Y-60101413D01*
X134292238Y-60101413D02*
X134253190Y-60140461D01*
X134253190Y-60140461D02*
X134175095Y-60179508D01*
X134175095Y-60179508D02*
X133979857Y-60179508D01*
X133979857Y-60179508D02*
X133901762Y-60140461D01*
X133901762Y-60140461D02*
X133862714Y-60101413D01*
D10*
X200301095Y-66350819D02*
X200301095Y-67160342D01*
X200301095Y-67160342D02*
X200348714Y-67255580D01*
X200348714Y-67255580D02*
X200396333Y-67303200D01*
X200396333Y-67303200D02*
X200491571Y-67350819D01*
X200491571Y-67350819D02*
X200682047Y-67350819D01*
X200682047Y-67350819D02*
X200777285Y-67303200D01*
X200777285Y-67303200D02*
X200824904Y-67255580D01*
X200824904Y-67255580D02*
X200872523Y-67160342D01*
X200872523Y-67160342D02*
X200872523Y-66350819D01*
X201301095Y-66446057D02*
X201348714Y-66398438D01*
X201348714Y-66398438D02*
X201443952Y-66350819D01*
X201443952Y-66350819D02*
X201682047Y-66350819D01*
X201682047Y-66350819D02*
X201777285Y-66398438D01*
X201777285Y-66398438D02*
X201824904Y-66446057D01*
X201824904Y-66446057D02*
X201872523Y-66541295D01*
X201872523Y-66541295D02*
X201872523Y-66636533D01*
X201872523Y-66636533D02*
X201824904Y-66779390D01*
X201824904Y-66779390D02*
X201253476Y-67350819D01*
X201253476Y-67350819D02*
X201872523Y-67350819D01*
D11*
X194492092Y-95241057D02*
X194218759Y-94850581D01*
X194023521Y-95241057D02*
X194023521Y-94421057D01*
X194023521Y-94421057D02*
X194335902Y-94421057D01*
X194335902Y-94421057D02*
X194413997Y-94460105D01*
X194413997Y-94460105D02*
X194453044Y-94499152D01*
X194453044Y-94499152D02*
X194492092Y-94577248D01*
X194492092Y-94577248D02*
X194492092Y-94694390D01*
X194492092Y-94694390D02*
X194453044Y-94772486D01*
X194453044Y-94772486D02*
X194413997Y-94811533D01*
X194413997Y-94811533D02*
X194335902Y-94850581D01*
X194335902Y-94850581D02*
X194023521Y-94850581D01*
X195273044Y-95241057D02*
X194804473Y-95241057D01*
X195038759Y-95241057D02*
X195038759Y-94421057D01*
X195038759Y-94421057D02*
X194960663Y-94538200D01*
X194960663Y-94538200D02*
X194882568Y-94616295D01*
X194882568Y-94616295D02*
X194804473Y-94655343D01*
X196014949Y-94421057D02*
X195624473Y-94421057D01*
X195624473Y-94421057D02*
X195585425Y-94811533D01*
X195585425Y-94811533D02*
X195624473Y-94772486D01*
X195624473Y-94772486D02*
X195702568Y-94733438D01*
X195702568Y-94733438D02*
X195897806Y-94733438D01*
X195897806Y-94733438D02*
X195975901Y-94772486D01*
X195975901Y-94772486D02*
X196014949Y-94811533D01*
X196014949Y-94811533D02*
X196053996Y-94889629D01*
X196053996Y-94889629D02*
X196053996Y-95084867D01*
X196053996Y-95084867D02*
X196014949Y-95162962D01*
X196014949Y-95162962D02*
X195975901Y-95202010D01*
X195975901Y-95202010D02*
X195897806Y-95241057D01*
X195897806Y-95241057D02*
X195702568Y-95241057D01*
X195702568Y-95241057D02*
X195624473Y-95202010D01*
X195624473Y-95202010D02*
X195585425Y-95162962D01*
X133825762Y-70411508D02*
X133825762Y-69591508D01*
X133825762Y-69591508D02*
X134021000Y-69591508D01*
X134021000Y-69591508D02*
X134138143Y-69630556D01*
X134138143Y-69630556D02*
X134216238Y-69708651D01*
X134216238Y-69708651D02*
X134255285Y-69786746D01*
X134255285Y-69786746D02*
X134294333Y-69942937D01*
X134294333Y-69942937D02*
X134294333Y-70060080D01*
X134294333Y-70060080D02*
X134255285Y-70216270D01*
X134255285Y-70216270D02*
X134216238Y-70294365D01*
X134216238Y-70294365D02*
X134138143Y-70372461D01*
X134138143Y-70372461D02*
X134021000Y-70411508D01*
X134021000Y-70411508D02*
X133825762Y-70411508D01*
X134567666Y-69591508D02*
X135075285Y-69591508D01*
X135075285Y-69591508D02*
X134801952Y-69903889D01*
X134801952Y-69903889D02*
X134919095Y-69903889D01*
X134919095Y-69903889D02*
X134997190Y-69942937D01*
X134997190Y-69942937D02*
X135036238Y-69981984D01*
X135036238Y-69981984D02*
X135075285Y-70060080D01*
X135075285Y-70060080D02*
X135075285Y-70255318D01*
X135075285Y-70255318D02*
X135036238Y-70333413D01*
X135036238Y-70333413D02*
X134997190Y-70372461D01*
X134997190Y-70372461D02*
X134919095Y-70411508D01*
X134919095Y-70411508D02*
X134684809Y-70411508D01*
X134684809Y-70411508D02*
X134606714Y-70372461D01*
X134606714Y-70372461D02*
X134567666Y-70333413D01*
D10*
X125011571Y-64392057D02*
X124916333Y-64344438D01*
X124916333Y-64344438D02*
X124821095Y-64249200D01*
X124821095Y-64249200D02*
X124678238Y-64106342D01*
X124678238Y-64106342D02*
X124583000Y-64058723D01*
X124583000Y-64058723D02*
X124487762Y-64058723D01*
X124535381Y-64296819D02*
X124440143Y-64249200D01*
X124440143Y-64249200D02*
X124344905Y-64153961D01*
X124344905Y-64153961D02*
X124297286Y-63963485D01*
X124297286Y-63963485D02*
X124297286Y-63630152D01*
X124297286Y-63630152D02*
X124344905Y-63439676D01*
X124344905Y-63439676D02*
X124440143Y-63344438D01*
X124440143Y-63344438D02*
X124535381Y-63296819D01*
X124535381Y-63296819D02*
X124725857Y-63296819D01*
X124725857Y-63296819D02*
X124821095Y-63344438D01*
X124821095Y-63344438D02*
X124916333Y-63439676D01*
X124916333Y-63439676D02*
X124963952Y-63630152D01*
X124963952Y-63630152D02*
X124963952Y-63963485D01*
X124963952Y-63963485D02*
X124916333Y-64153961D01*
X124916333Y-64153961D02*
X124821095Y-64249200D01*
X124821095Y-64249200D02*
X124725857Y-64296819D01*
X124725857Y-64296819D02*
X124535381Y-64296819D01*
X125916333Y-64296819D02*
X125344905Y-64296819D01*
X125630619Y-64296819D02*
X125630619Y-63296819D01*
X125630619Y-63296819D02*
X125535381Y-63439676D01*
X125535381Y-63439676D02*
X125440143Y-63534914D01*
X125440143Y-63534914D02*
X125344905Y-63582533D01*
X126868714Y-64296819D02*
X126297286Y-64296819D01*
X126583000Y-64296819D02*
X126583000Y-63296819D01*
X126583000Y-63296819D02*
X126487762Y-63439676D01*
X126487762Y-63439676D02*
X126392524Y-63534914D01*
X126392524Y-63534914D02*
X126297286Y-63582533D01*
D11*
X142895126Y-76910585D02*
X142095126Y-76910585D01*
X142095126Y-76910585D02*
X142095126Y-76720109D01*
X142095126Y-76720109D02*
X142133221Y-76605823D01*
X142133221Y-76605823D02*
X142209411Y-76529633D01*
X142209411Y-76529633D02*
X142285602Y-76491538D01*
X142285602Y-76491538D02*
X142437983Y-76453442D01*
X142437983Y-76453442D02*
X142552269Y-76453442D01*
X142552269Y-76453442D02*
X142704650Y-76491538D01*
X142704650Y-76491538D02*
X142780840Y-76529633D01*
X142780840Y-76529633D02*
X142857031Y-76605823D01*
X142857031Y-76605823D02*
X142895126Y-76720109D01*
X142895126Y-76720109D02*
X142895126Y-76910585D01*
X142895126Y-76072490D02*
X142895126Y-75920109D01*
X142895126Y-75920109D02*
X142857031Y-75843919D01*
X142857031Y-75843919D02*
X142818935Y-75805823D01*
X142818935Y-75805823D02*
X142704650Y-75729633D01*
X142704650Y-75729633D02*
X142552269Y-75691538D01*
X142552269Y-75691538D02*
X142247507Y-75691538D01*
X142247507Y-75691538D02*
X142171316Y-75729633D01*
X142171316Y-75729633D02*
X142133221Y-75767728D01*
X142133221Y-75767728D02*
X142095126Y-75843919D01*
X142095126Y-75843919D02*
X142095126Y-75996300D01*
X142095126Y-75996300D02*
X142133221Y-76072490D01*
X142133221Y-76072490D02*
X142171316Y-76110585D01*
X142171316Y-76110585D02*
X142247507Y-76148681D01*
X142247507Y-76148681D02*
X142437983Y-76148681D01*
X142437983Y-76148681D02*
X142514173Y-76110585D01*
X142514173Y-76110585D02*
X142552269Y-76072490D01*
X142552269Y-76072490D02*
X142590364Y-75996300D01*
X142590364Y-75996300D02*
X142590364Y-75843919D01*
X142590364Y-75843919D02*
X142552269Y-75767728D01*
X142552269Y-75767728D02*
X142514173Y-75729633D01*
X142514173Y-75729633D02*
X142437983Y-75691538D01*
X192276709Y-94324050D02*
X193076710Y-94324050D01*
X193076710Y-94324050D02*
X193076710Y-94514526D01*
X193076710Y-94514526D02*
X193038615Y-94628812D01*
X193038615Y-94628812D02*
X192962424Y-94705003D01*
X192962424Y-94705003D02*
X192886234Y-94743098D01*
X192886234Y-94743098D02*
X192733853Y-94781193D01*
X192733853Y-94781193D02*
X192619567Y-94781193D01*
X192619567Y-94781193D02*
X192467186Y-94743098D01*
X192467186Y-94743098D02*
X192390995Y-94705003D01*
X192390995Y-94705003D02*
X192314805Y-94628812D01*
X192314805Y-94628812D02*
X192276709Y-94514526D01*
X192276709Y-94514526D02*
X192276709Y-94324050D01*
X192276709Y-95543099D02*
X192276709Y-95085956D01*
X192276709Y-95314527D02*
X193076710Y-95314527D01*
X193076710Y-95314527D02*
X192962424Y-95238337D01*
X192962424Y-95238337D02*
X192886234Y-95162146D01*
X192886234Y-95162146D02*
X192848139Y-95085956D01*
X193076710Y-95809766D02*
X193076710Y-96305005D01*
X193076710Y-96305005D02*
X192771948Y-96038338D01*
X192771948Y-96038338D02*
X192771948Y-96152624D01*
X192771948Y-96152624D02*
X192733853Y-96228815D01*
X192733853Y-96228815D02*
X192695757Y-96266910D01*
X192695757Y-96266910D02*
X192619567Y-96305005D01*
X192619567Y-96305005D02*
X192429090Y-96305005D01*
X192429090Y-96305005D02*
X192352900Y-96266910D01*
X192352900Y-96266910D02*
X192314805Y-96228815D01*
X192314805Y-96228815D02*
X192276709Y-96152624D01*
X192276709Y-96152624D02*
X192276709Y-95924052D01*
X192276709Y-95924052D02*
X192314805Y-95847862D01*
X192314805Y-95847862D02*
X192352900Y-95809766D01*
D10*
X116950057Y-98507619D02*
X116902438Y-98602857D01*
X116902438Y-98602857D02*
X116807200Y-98698095D01*
X116807200Y-98698095D02*
X116664342Y-98840952D01*
X116664342Y-98840952D02*
X116616723Y-98936190D01*
X116616723Y-98936190D02*
X116616723Y-99031428D01*
X116854819Y-98983809D02*
X116807200Y-99079047D01*
X116807200Y-99079047D02*
X116711961Y-99174285D01*
X116711961Y-99174285D02*
X116521485Y-99221904D01*
X116521485Y-99221904D02*
X116188152Y-99221904D01*
X116188152Y-99221904D02*
X115997676Y-99174285D01*
X115997676Y-99174285D02*
X115902438Y-99079047D01*
X115902438Y-99079047D02*
X115854819Y-98983809D01*
X115854819Y-98983809D02*
X115854819Y-98793333D01*
X115854819Y-98793333D02*
X115902438Y-98698095D01*
X115902438Y-98698095D02*
X115997676Y-98602857D01*
X115997676Y-98602857D02*
X116188152Y-98555238D01*
X116188152Y-98555238D02*
X116521485Y-98555238D01*
X116521485Y-98555238D02*
X116711961Y-98602857D01*
X116711961Y-98602857D02*
X116807200Y-98698095D01*
X116807200Y-98698095D02*
X116854819Y-98793333D01*
X116854819Y-98793333D02*
X116854819Y-98983809D01*
X116854819Y-98079047D02*
X116854819Y-97888571D01*
X116854819Y-97888571D02*
X116807200Y-97793333D01*
X116807200Y-97793333D02*
X116759580Y-97745714D01*
X116759580Y-97745714D02*
X116616723Y-97650476D01*
X116616723Y-97650476D02*
X116426247Y-97602857D01*
X116426247Y-97602857D02*
X116045295Y-97602857D01*
X116045295Y-97602857D02*
X115950057Y-97650476D01*
X115950057Y-97650476D02*
X115902438Y-97698095D01*
X115902438Y-97698095D02*
X115854819Y-97793333D01*
X115854819Y-97793333D02*
X115854819Y-97983809D01*
X115854819Y-97983809D02*
X115902438Y-98079047D01*
X115902438Y-98079047D02*
X115950057Y-98126666D01*
X115950057Y-98126666D02*
X116045295Y-98174285D01*
X116045295Y-98174285D02*
X116283390Y-98174285D01*
X116283390Y-98174285D02*
X116378628Y-98126666D01*
X116378628Y-98126666D02*
X116426247Y-98079047D01*
X116426247Y-98079047D02*
X116473866Y-97983809D01*
X116473866Y-97983809D02*
X116473866Y-97793333D01*
X116473866Y-97793333D02*
X116426247Y-97698095D01*
X116426247Y-97698095D02*
X116378628Y-97650476D01*
X116378628Y-97650476D02*
X116283390Y-97602857D01*
X116854819Y-96650476D02*
X116854819Y-97221904D01*
X116854819Y-96936190D02*
X115854819Y-96936190D01*
X115854819Y-96936190D02*
X115997676Y-97031428D01*
X115997676Y-97031428D02*
X116092914Y-97126666D01*
X116092914Y-97126666D02*
X116140533Y-97221904D01*
X115854819Y-95793333D02*
X115854819Y-95983809D01*
X115854819Y-95983809D02*
X115902438Y-96079047D01*
X115902438Y-96079047D02*
X115950057Y-96126666D01*
X115950057Y-96126666D02*
X116092914Y-96221904D01*
X116092914Y-96221904D02*
X116283390Y-96269523D01*
X116283390Y-96269523D02*
X116664342Y-96269523D01*
X116664342Y-96269523D02*
X116759580Y-96221904D01*
X116759580Y-96221904D02*
X116807200Y-96174285D01*
X116807200Y-96174285D02*
X116854819Y-96079047D01*
X116854819Y-96079047D02*
X116854819Y-95888571D01*
X116854819Y-95888571D02*
X116807200Y-95793333D01*
X116807200Y-95793333D02*
X116759580Y-95745714D01*
X116759580Y-95745714D02*
X116664342Y-95698095D01*
X116664342Y-95698095D02*
X116426247Y-95698095D01*
X116426247Y-95698095D02*
X116331009Y-95745714D01*
X116331009Y-95745714D02*
X116283390Y-95793333D01*
X116283390Y-95793333D02*
X116235771Y-95888571D01*
X116235771Y-95888571D02*
X116235771Y-96079047D01*
X116235771Y-96079047D02*
X116283390Y-96174285D01*
X116283390Y-96174285D02*
X116331009Y-96221904D01*
X116331009Y-96221904D02*
X116426247Y-96269523D01*
X85411778Y-83480619D02*
X85364159Y-83575857D01*
X85364159Y-83575857D02*
X85268921Y-83671095D01*
X85268921Y-83671095D02*
X85126063Y-83813952D01*
X85126063Y-83813952D02*
X85078444Y-83909190D01*
X85078444Y-83909190D02*
X85078444Y-84004428D01*
X85316540Y-83956809D02*
X85268921Y-84052047D01*
X85268921Y-84052047D02*
X85173682Y-84147285D01*
X85173682Y-84147285D02*
X84983206Y-84194904D01*
X84983206Y-84194904D02*
X84649873Y-84194904D01*
X84649873Y-84194904D02*
X84459397Y-84147285D01*
X84459397Y-84147285D02*
X84364159Y-84052047D01*
X84364159Y-84052047D02*
X84316540Y-83956809D01*
X84316540Y-83956809D02*
X84316540Y-83766333D01*
X84316540Y-83766333D02*
X84364159Y-83671095D01*
X84364159Y-83671095D02*
X84459397Y-83575857D01*
X84459397Y-83575857D02*
X84649873Y-83528238D01*
X84649873Y-83528238D02*
X84983206Y-83528238D01*
X84983206Y-83528238D02*
X85173682Y-83575857D01*
X85173682Y-83575857D02*
X85268921Y-83671095D01*
X85268921Y-83671095D02*
X85316540Y-83766333D01*
X85316540Y-83766333D02*
X85316540Y-83956809D01*
X85316540Y-83052047D02*
X85316540Y-82861571D01*
X85316540Y-82861571D02*
X85268921Y-82766333D01*
X85268921Y-82766333D02*
X85221301Y-82718714D01*
X85221301Y-82718714D02*
X85078444Y-82623476D01*
X85078444Y-82623476D02*
X84887968Y-82575857D01*
X84887968Y-82575857D02*
X84507016Y-82575857D01*
X84507016Y-82575857D02*
X84411778Y-82623476D01*
X84411778Y-82623476D02*
X84364159Y-82671095D01*
X84364159Y-82671095D02*
X84316540Y-82766333D01*
X84316540Y-82766333D02*
X84316540Y-82956809D01*
X84316540Y-82956809D02*
X84364159Y-83052047D01*
X84364159Y-83052047D02*
X84411778Y-83099666D01*
X84411778Y-83099666D02*
X84507016Y-83147285D01*
X84507016Y-83147285D02*
X84745111Y-83147285D01*
X84745111Y-83147285D02*
X84840349Y-83099666D01*
X84840349Y-83099666D02*
X84887968Y-83052047D01*
X84887968Y-83052047D02*
X84935587Y-82956809D01*
X84935587Y-82956809D02*
X84935587Y-82766333D01*
X84935587Y-82766333D02*
X84887968Y-82671095D01*
X84887968Y-82671095D02*
X84840349Y-82623476D01*
X84840349Y-82623476D02*
X84745111Y-82575857D01*
X84316540Y-81956809D02*
X84316540Y-81861571D01*
X84316540Y-81861571D02*
X84364159Y-81766333D01*
X84364159Y-81766333D02*
X84411778Y-81718714D01*
X84411778Y-81718714D02*
X84507016Y-81671095D01*
X84507016Y-81671095D02*
X84697492Y-81623476D01*
X84697492Y-81623476D02*
X84935587Y-81623476D01*
X84935587Y-81623476D02*
X85126063Y-81671095D01*
X85126063Y-81671095D02*
X85221301Y-81718714D01*
X85221301Y-81718714D02*
X85268921Y-81766333D01*
X85268921Y-81766333D02*
X85316540Y-81861571D01*
X85316540Y-81861571D02*
X85316540Y-81956809D01*
X85316540Y-81956809D02*
X85268921Y-82052047D01*
X85268921Y-82052047D02*
X85221301Y-82099666D01*
X85221301Y-82099666D02*
X85126063Y-82147285D01*
X85126063Y-82147285D02*
X84935587Y-82194904D01*
X84935587Y-82194904D02*
X84697492Y-82194904D01*
X84697492Y-82194904D02*
X84507016Y-82147285D01*
X84507016Y-82147285D02*
X84411778Y-82099666D01*
X84411778Y-82099666D02*
X84364159Y-82052047D01*
X84364159Y-82052047D02*
X84316540Y-81956809D01*
X84649873Y-80766333D02*
X85316540Y-80766333D01*
X84268921Y-81004428D02*
X84983206Y-81242523D01*
X84983206Y-81242523D02*
X84983206Y-80623476D01*
D11*
X154322614Y-78702502D02*
X155122615Y-78702502D01*
X155122615Y-78702502D02*
X155122615Y-78892978D01*
X155122615Y-78892978D02*
X155084520Y-79007264D01*
X155084520Y-79007264D02*
X155008329Y-79083455D01*
X155008329Y-79083455D02*
X154932139Y-79121550D01*
X154932139Y-79121550D02*
X154779758Y-79159645D01*
X154779758Y-79159645D02*
X154665472Y-79159645D01*
X154665472Y-79159645D02*
X154513091Y-79121550D01*
X154513091Y-79121550D02*
X154436900Y-79083455D01*
X154436900Y-79083455D02*
X154360710Y-79007264D01*
X154360710Y-79007264D02*
X154322614Y-78892978D01*
X154322614Y-78892978D02*
X154322614Y-78702502D01*
X154322614Y-79921551D02*
X154322614Y-79464408D01*
X154322614Y-79692979D02*
X155122615Y-79692979D01*
X155122615Y-79692979D02*
X155008329Y-79616789D01*
X155008329Y-79616789D02*
X154932139Y-79540598D01*
X154932139Y-79540598D02*
X154894044Y-79464408D01*
X155046425Y-80226314D02*
X155084520Y-80264409D01*
X155084520Y-80264409D02*
X155122615Y-80340600D01*
X155122615Y-80340600D02*
X155122615Y-80531076D01*
X155122615Y-80531076D02*
X155084520Y-80607267D01*
X155084520Y-80607267D02*
X155046425Y-80645362D01*
X155046425Y-80645362D02*
X154970234Y-80683457D01*
X154970234Y-80683457D02*
X154894044Y-80683457D01*
X154894044Y-80683457D02*
X154779758Y-80645362D01*
X154779758Y-80645362D02*
X154322614Y-80188218D01*
X154322614Y-80188218D02*
X154322614Y-80683457D01*
X198462417Y-64531533D02*
X198423370Y-64492485D01*
X198423370Y-64492485D02*
X198384322Y-64375342D01*
X198384322Y-64375342D02*
X198384322Y-64297247D01*
X198384322Y-64297247D02*
X198423370Y-64180104D01*
X198423370Y-64180104D02*
X198501465Y-64102009D01*
X198501465Y-64102009D02*
X198579560Y-64062961D01*
X198579560Y-64062961D02*
X198735751Y-64023913D01*
X198735751Y-64023913D02*
X198852894Y-64023913D01*
X198852894Y-64023913D02*
X199009085Y-64062961D01*
X199009085Y-64062961D02*
X199087180Y-64102009D01*
X199087180Y-64102009D02*
X199165275Y-64180104D01*
X199165275Y-64180104D02*
X199204323Y-64297247D01*
X199204323Y-64297247D02*
X199204323Y-64375342D01*
X199204323Y-64375342D02*
X199165275Y-64492485D01*
X199165275Y-64492485D02*
X199126228Y-64531533D01*
X199204323Y-64804867D02*
X199204323Y-65312486D01*
X199204323Y-65312486D02*
X198891942Y-65039153D01*
X198891942Y-65039153D02*
X198891942Y-65156296D01*
X198891942Y-65156296D02*
X198852894Y-65234391D01*
X198852894Y-65234391D02*
X198813846Y-65273439D01*
X198813846Y-65273439D02*
X198735751Y-65312486D01*
X198735751Y-65312486D02*
X198540513Y-65312486D01*
X198540513Y-65312486D02*
X198462417Y-65273439D01*
X198462417Y-65273439D02*
X198423370Y-65234391D01*
X198423370Y-65234391D02*
X198384322Y-65156296D01*
X198384322Y-65156296D02*
X198384322Y-64922010D01*
X198384322Y-64922010D02*
X198423370Y-64843914D01*
X198423370Y-64843914D02*
X198462417Y-64804867D01*
X195504652Y-73697712D02*
X195465604Y-73736760D01*
X195465604Y-73736760D02*
X195348461Y-73775807D01*
X195348461Y-73775807D02*
X195270366Y-73775807D01*
X195270366Y-73775807D02*
X195153223Y-73736760D01*
X195153223Y-73736760D02*
X195075128Y-73658664D01*
X195075128Y-73658664D02*
X195036080Y-73580569D01*
X195036080Y-73580569D02*
X194997032Y-73424378D01*
X194997032Y-73424378D02*
X194997032Y-73307235D01*
X194997032Y-73307235D02*
X195036080Y-73151045D01*
X195036080Y-73151045D02*
X195075128Y-73072949D01*
X195075128Y-73072949D02*
X195153223Y-72994854D01*
X195153223Y-72994854D02*
X195270366Y-72955806D01*
X195270366Y-72955806D02*
X195348461Y-72955806D01*
X195348461Y-72955806D02*
X195465604Y-72994854D01*
X195465604Y-72994854D02*
X195504652Y-73033902D01*
X196207510Y-73229140D02*
X196207510Y-73775807D01*
X196012272Y-72916759D02*
X195817033Y-73502474D01*
X195817033Y-73502474D02*
X196324653Y-73502474D01*
X187668014Y-29556092D02*
X188058490Y-29282759D01*
X187668014Y-29087521D02*
X188488014Y-29087521D01*
X188488014Y-29087521D02*
X188488014Y-29399902D01*
X188488014Y-29399902D02*
X188448966Y-29477997D01*
X188448966Y-29477997D02*
X188409919Y-29517044D01*
X188409919Y-29517044D02*
X188331823Y-29556092D01*
X188331823Y-29556092D02*
X188214681Y-29556092D01*
X188214681Y-29556092D02*
X188136585Y-29517044D01*
X188136585Y-29517044D02*
X188097538Y-29477997D01*
X188097538Y-29477997D02*
X188058490Y-29399902D01*
X188058490Y-29399902D02*
X188058490Y-29087521D01*
X187668014Y-29946568D02*
X187668014Y-30102759D01*
X187668014Y-30102759D02*
X187707062Y-30180854D01*
X187707062Y-30180854D02*
X187746109Y-30219902D01*
X187746109Y-30219902D02*
X187863252Y-30297997D01*
X187863252Y-30297997D02*
X188019442Y-30337044D01*
X188019442Y-30337044D02*
X188331823Y-30337044D01*
X188331823Y-30337044D02*
X188409919Y-30297997D01*
X188409919Y-30297997D02*
X188448966Y-30258949D01*
X188448966Y-30258949D02*
X188488014Y-30180854D01*
X188488014Y-30180854D02*
X188488014Y-30024663D01*
X188488014Y-30024663D02*
X188448966Y-29946568D01*
X188448966Y-29946568D02*
X188409919Y-29907521D01*
X188409919Y-29907521D02*
X188331823Y-29868473D01*
X188331823Y-29868473D02*
X188136585Y-29868473D01*
X188136585Y-29868473D02*
X188058490Y-29907521D01*
X188058490Y-29907521D02*
X188019442Y-29946568D01*
X188019442Y-29946568D02*
X187980395Y-30024663D01*
X187980395Y-30024663D02*
X187980395Y-30180854D01*
X187980395Y-30180854D02*
X188019442Y-30258949D01*
X188019442Y-30258949D02*
X188058490Y-30297997D01*
X188058490Y-30297997D02*
X188136585Y-30337044D01*
D10*
X192038571Y-26063057D02*
X191943333Y-26015438D01*
X191943333Y-26015438D02*
X191848095Y-25920200D01*
X191848095Y-25920200D02*
X191705238Y-25777342D01*
X191705238Y-25777342D02*
X191610000Y-25729723D01*
X191610000Y-25729723D02*
X191514762Y-25729723D01*
X191562381Y-25967819D02*
X191467143Y-25920200D01*
X191467143Y-25920200D02*
X191371905Y-25824961D01*
X191371905Y-25824961D02*
X191324286Y-25634485D01*
X191324286Y-25634485D02*
X191324286Y-25301152D01*
X191324286Y-25301152D02*
X191371905Y-25110676D01*
X191371905Y-25110676D02*
X191467143Y-25015438D01*
X191467143Y-25015438D02*
X191562381Y-24967819D01*
X191562381Y-24967819D02*
X191752857Y-24967819D01*
X191752857Y-24967819D02*
X191848095Y-25015438D01*
X191848095Y-25015438D02*
X191943333Y-25110676D01*
X191943333Y-25110676D02*
X191990952Y-25301152D01*
X191990952Y-25301152D02*
X191990952Y-25634485D01*
X191990952Y-25634485D02*
X191943333Y-25824961D01*
X191943333Y-25824961D02*
X191848095Y-25920200D01*
X191848095Y-25920200D02*
X191752857Y-25967819D01*
X191752857Y-25967819D02*
X191562381Y-25967819D01*
X192943333Y-25967819D02*
X192371905Y-25967819D01*
X192657619Y-25967819D02*
X192657619Y-24967819D01*
X192657619Y-24967819D02*
X192562381Y-25110676D01*
X192562381Y-25110676D02*
X192467143Y-25205914D01*
X192467143Y-25205914D02*
X192371905Y-25253533D01*
X193324286Y-25063057D02*
X193371905Y-25015438D01*
X193371905Y-25015438D02*
X193467143Y-24967819D01*
X193467143Y-24967819D02*
X193705238Y-24967819D01*
X193705238Y-24967819D02*
X193800476Y-25015438D01*
X193800476Y-25015438D02*
X193848095Y-25063057D01*
X193848095Y-25063057D02*
X193895714Y-25158295D01*
X193895714Y-25158295D02*
X193895714Y-25253533D01*
X193895714Y-25253533D02*
X193848095Y-25396390D01*
X193848095Y-25396390D02*
X193276667Y-25967819D01*
X193276667Y-25967819D02*
X193895714Y-25967819D01*
X106098336Y-67664619D02*
X106050717Y-67759857D01*
X106050717Y-67759857D02*
X105955479Y-67855095D01*
X105955479Y-67855095D02*
X105812621Y-67997952D01*
X105812621Y-67997952D02*
X105765002Y-68093190D01*
X105765002Y-68093190D02*
X105765002Y-68188428D01*
X106003098Y-68140809D02*
X105955479Y-68236047D01*
X105955479Y-68236047D02*
X105860240Y-68331285D01*
X105860240Y-68331285D02*
X105669764Y-68378904D01*
X105669764Y-68378904D02*
X105336431Y-68378904D01*
X105336431Y-68378904D02*
X105145955Y-68331285D01*
X105145955Y-68331285D02*
X105050717Y-68236047D01*
X105050717Y-68236047D02*
X105003098Y-68140809D01*
X105003098Y-68140809D02*
X105003098Y-67950333D01*
X105003098Y-67950333D02*
X105050717Y-67855095D01*
X105050717Y-67855095D02*
X105145955Y-67759857D01*
X105145955Y-67759857D02*
X105336431Y-67712238D01*
X105336431Y-67712238D02*
X105669764Y-67712238D01*
X105669764Y-67712238D02*
X105860240Y-67759857D01*
X105860240Y-67759857D02*
X105955479Y-67855095D01*
X105955479Y-67855095D02*
X106003098Y-67950333D01*
X106003098Y-67950333D02*
X106003098Y-68140809D01*
X106003098Y-67236047D02*
X106003098Y-67045571D01*
X106003098Y-67045571D02*
X105955479Y-66950333D01*
X105955479Y-66950333D02*
X105907859Y-66902714D01*
X105907859Y-66902714D02*
X105765002Y-66807476D01*
X105765002Y-66807476D02*
X105574526Y-66759857D01*
X105574526Y-66759857D02*
X105193574Y-66759857D01*
X105193574Y-66759857D02*
X105098336Y-66807476D01*
X105098336Y-66807476D02*
X105050717Y-66855095D01*
X105050717Y-66855095D02*
X105003098Y-66950333D01*
X105003098Y-66950333D02*
X105003098Y-67140809D01*
X105003098Y-67140809D02*
X105050717Y-67236047D01*
X105050717Y-67236047D02*
X105098336Y-67283666D01*
X105098336Y-67283666D02*
X105193574Y-67331285D01*
X105193574Y-67331285D02*
X105431669Y-67331285D01*
X105431669Y-67331285D02*
X105526907Y-67283666D01*
X105526907Y-67283666D02*
X105574526Y-67236047D01*
X105574526Y-67236047D02*
X105622145Y-67140809D01*
X105622145Y-67140809D02*
X105622145Y-66950333D01*
X105622145Y-66950333D02*
X105574526Y-66855095D01*
X105574526Y-66855095D02*
X105526907Y-66807476D01*
X105526907Y-66807476D02*
X105431669Y-66759857D01*
X106003098Y-65807476D02*
X106003098Y-66378904D01*
X106003098Y-66093190D02*
X105003098Y-66093190D01*
X105003098Y-66093190D02*
X105145955Y-66188428D01*
X105145955Y-66188428D02*
X105241193Y-66283666D01*
X105241193Y-66283666D02*
X105288812Y-66378904D01*
X105003098Y-64902714D02*
X105003098Y-65378904D01*
X105003098Y-65378904D02*
X105479288Y-65426523D01*
X105479288Y-65426523D02*
X105431669Y-65378904D01*
X105431669Y-65378904D02*
X105384050Y-65283666D01*
X105384050Y-65283666D02*
X105384050Y-65045571D01*
X105384050Y-65045571D02*
X105431669Y-64950333D01*
X105431669Y-64950333D02*
X105479288Y-64902714D01*
X105479288Y-64902714D02*
X105574526Y-64855095D01*
X105574526Y-64855095D02*
X105812621Y-64855095D01*
X105812621Y-64855095D02*
X105907859Y-64902714D01*
X105907859Y-64902714D02*
X105955479Y-64950333D01*
X105955479Y-64950333D02*
X106003098Y-65045571D01*
X106003098Y-65045571D02*
X106003098Y-65283666D01*
X106003098Y-65283666D02*
X105955479Y-65378904D01*
X105955479Y-65378904D02*
X105907859Y-65426523D01*
X106310057Y-52617619D02*
X106262438Y-52712857D01*
X106262438Y-52712857D02*
X106167200Y-52808095D01*
X106167200Y-52808095D02*
X106024342Y-52950952D01*
X106024342Y-52950952D02*
X105976723Y-53046190D01*
X105976723Y-53046190D02*
X105976723Y-53141428D01*
X106214819Y-53093809D02*
X106167200Y-53189047D01*
X106167200Y-53189047D02*
X106071961Y-53284285D01*
X106071961Y-53284285D02*
X105881485Y-53331904D01*
X105881485Y-53331904D02*
X105548152Y-53331904D01*
X105548152Y-53331904D02*
X105357676Y-53284285D01*
X105357676Y-53284285D02*
X105262438Y-53189047D01*
X105262438Y-53189047D02*
X105214819Y-53093809D01*
X105214819Y-53093809D02*
X105214819Y-52903333D01*
X105214819Y-52903333D02*
X105262438Y-52808095D01*
X105262438Y-52808095D02*
X105357676Y-52712857D01*
X105357676Y-52712857D02*
X105548152Y-52665238D01*
X105548152Y-52665238D02*
X105881485Y-52665238D01*
X105881485Y-52665238D02*
X106071961Y-52712857D01*
X106071961Y-52712857D02*
X106167200Y-52808095D01*
X106167200Y-52808095D02*
X106214819Y-52903333D01*
X106214819Y-52903333D02*
X106214819Y-53093809D01*
X106214819Y-52189047D02*
X106214819Y-51998571D01*
X106214819Y-51998571D02*
X106167200Y-51903333D01*
X106167200Y-51903333D02*
X106119580Y-51855714D01*
X106119580Y-51855714D02*
X105976723Y-51760476D01*
X105976723Y-51760476D02*
X105786247Y-51712857D01*
X105786247Y-51712857D02*
X105405295Y-51712857D01*
X105405295Y-51712857D02*
X105310057Y-51760476D01*
X105310057Y-51760476D02*
X105262438Y-51808095D01*
X105262438Y-51808095D02*
X105214819Y-51903333D01*
X105214819Y-51903333D02*
X105214819Y-52093809D01*
X105214819Y-52093809D02*
X105262438Y-52189047D01*
X105262438Y-52189047D02*
X105310057Y-52236666D01*
X105310057Y-52236666D02*
X105405295Y-52284285D01*
X105405295Y-52284285D02*
X105643390Y-52284285D01*
X105643390Y-52284285D02*
X105738628Y-52236666D01*
X105738628Y-52236666D02*
X105786247Y-52189047D01*
X105786247Y-52189047D02*
X105833866Y-52093809D01*
X105833866Y-52093809D02*
X105833866Y-51903333D01*
X105833866Y-51903333D02*
X105786247Y-51808095D01*
X105786247Y-51808095D02*
X105738628Y-51760476D01*
X105738628Y-51760476D02*
X105643390Y-51712857D01*
X106214819Y-50760476D02*
X106214819Y-51331904D01*
X106214819Y-51046190D02*
X105214819Y-51046190D01*
X105214819Y-51046190D02*
X105357676Y-51141428D01*
X105357676Y-51141428D02*
X105452914Y-51236666D01*
X105452914Y-51236666D02*
X105500533Y-51331904D01*
X105214819Y-50427142D02*
X105214819Y-49808095D01*
X105214819Y-49808095D02*
X105595771Y-50141428D01*
X105595771Y-50141428D02*
X105595771Y-49998571D01*
X105595771Y-49998571D02*
X105643390Y-49903333D01*
X105643390Y-49903333D02*
X105691009Y-49855714D01*
X105691009Y-49855714D02*
X105786247Y-49808095D01*
X105786247Y-49808095D02*
X106024342Y-49808095D01*
X106024342Y-49808095D02*
X106119580Y-49855714D01*
X106119580Y-49855714D02*
X106167200Y-49903333D01*
X106167200Y-49903333D02*
X106214819Y-49998571D01*
X106214819Y-49998571D02*
X106214819Y-50284285D01*
X106214819Y-50284285D02*
X106167200Y-50379523D01*
X106167200Y-50379523D02*
X106119580Y-50427142D01*
X95860057Y-98627619D02*
X95812438Y-98722857D01*
X95812438Y-98722857D02*
X95717200Y-98818095D01*
X95717200Y-98818095D02*
X95574342Y-98960952D01*
X95574342Y-98960952D02*
X95526723Y-99056190D01*
X95526723Y-99056190D02*
X95526723Y-99151428D01*
X95764819Y-99103809D02*
X95717200Y-99199047D01*
X95717200Y-99199047D02*
X95621961Y-99294285D01*
X95621961Y-99294285D02*
X95431485Y-99341904D01*
X95431485Y-99341904D02*
X95098152Y-99341904D01*
X95098152Y-99341904D02*
X94907676Y-99294285D01*
X94907676Y-99294285D02*
X94812438Y-99199047D01*
X94812438Y-99199047D02*
X94764819Y-99103809D01*
X94764819Y-99103809D02*
X94764819Y-98913333D01*
X94764819Y-98913333D02*
X94812438Y-98818095D01*
X94812438Y-98818095D02*
X94907676Y-98722857D01*
X94907676Y-98722857D02*
X95098152Y-98675238D01*
X95098152Y-98675238D02*
X95431485Y-98675238D01*
X95431485Y-98675238D02*
X95621961Y-98722857D01*
X95621961Y-98722857D02*
X95717200Y-98818095D01*
X95717200Y-98818095D02*
X95764819Y-98913333D01*
X95764819Y-98913333D02*
X95764819Y-99103809D01*
X95764819Y-98199047D02*
X95764819Y-98008571D01*
X95764819Y-98008571D02*
X95717200Y-97913333D01*
X95717200Y-97913333D02*
X95669580Y-97865714D01*
X95669580Y-97865714D02*
X95526723Y-97770476D01*
X95526723Y-97770476D02*
X95336247Y-97722857D01*
X95336247Y-97722857D02*
X94955295Y-97722857D01*
X94955295Y-97722857D02*
X94860057Y-97770476D01*
X94860057Y-97770476D02*
X94812438Y-97818095D01*
X94812438Y-97818095D02*
X94764819Y-97913333D01*
X94764819Y-97913333D02*
X94764819Y-98103809D01*
X94764819Y-98103809D02*
X94812438Y-98199047D01*
X94812438Y-98199047D02*
X94860057Y-98246666D01*
X94860057Y-98246666D02*
X94955295Y-98294285D01*
X94955295Y-98294285D02*
X95193390Y-98294285D01*
X95193390Y-98294285D02*
X95288628Y-98246666D01*
X95288628Y-98246666D02*
X95336247Y-98199047D01*
X95336247Y-98199047D02*
X95383866Y-98103809D01*
X95383866Y-98103809D02*
X95383866Y-97913333D01*
X95383866Y-97913333D02*
X95336247Y-97818095D01*
X95336247Y-97818095D02*
X95288628Y-97770476D01*
X95288628Y-97770476D02*
X95193390Y-97722857D01*
X95764819Y-96770476D02*
X95764819Y-97341904D01*
X95764819Y-97056190D02*
X94764819Y-97056190D01*
X94764819Y-97056190D02*
X94907676Y-97151428D01*
X94907676Y-97151428D02*
X95002914Y-97246666D01*
X95002914Y-97246666D02*
X95050533Y-97341904D01*
X94860057Y-96389523D02*
X94812438Y-96341904D01*
X94812438Y-96341904D02*
X94764819Y-96246666D01*
X94764819Y-96246666D02*
X94764819Y-96008571D01*
X94764819Y-96008571D02*
X94812438Y-95913333D01*
X94812438Y-95913333D02*
X94860057Y-95865714D01*
X94860057Y-95865714D02*
X94955295Y-95818095D01*
X94955295Y-95818095D02*
X95050533Y-95818095D01*
X95050533Y-95818095D02*
X95193390Y-95865714D01*
X95193390Y-95865714D02*
X95764819Y-96437142D01*
X95764819Y-96437142D02*
X95764819Y-95818095D01*
X204614819Y-65104666D02*
X204614819Y-65580856D01*
X204614819Y-65580856D02*
X203614819Y-65580856D01*
X203710057Y-64818951D02*
X203662438Y-64771332D01*
X203662438Y-64771332D02*
X203614819Y-64676094D01*
X203614819Y-64676094D02*
X203614819Y-64437999D01*
X203614819Y-64437999D02*
X203662438Y-64342761D01*
X203662438Y-64342761D02*
X203710057Y-64295142D01*
X203710057Y-64295142D02*
X203805295Y-64247523D01*
X203805295Y-64247523D02*
X203900533Y-64247523D01*
X203900533Y-64247523D02*
X204043390Y-64295142D01*
X204043390Y-64295142D02*
X204614819Y-64866570D01*
X204614819Y-64866570D02*
X204614819Y-64247523D01*
X106431778Y-83480619D02*
X106384159Y-83575857D01*
X106384159Y-83575857D02*
X106288921Y-83671095D01*
X106288921Y-83671095D02*
X106146063Y-83813952D01*
X106146063Y-83813952D02*
X106098444Y-83909190D01*
X106098444Y-83909190D02*
X106098444Y-84004428D01*
X106336540Y-83956809D02*
X106288921Y-84052047D01*
X106288921Y-84052047D02*
X106193682Y-84147285D01*
X106193682Y-84147285D02*
X106003206Y-84194904D01*
X106003206Y-84194904D02*
X105669873Y-84194904D01*
X105669873Y-84194904D02*
X105479397Y-84147285D01*
X105479397Y-84147285D02*
X105384159Y-84052047D01*
X105384159Y-84052047D02*
X105336540Y-83956809D01*
X105336540Y-83956809D02*
X105336540Y-83766333D01*
X105336540Y-83766333D02*
X105384159Y-83671095D01*
X105384159Y-83671095D02*
X105479397Y-83575857D01*
X105479397Y-83575857D02*
X105669873Y-83528238D01*
X105669873Y-83528238D02*
X106003206Y-83528238D01*
X106003206Y-83528238D02*
X106193682Y-83575857D01*
X106193682Y-83575857D02*
X106288921Y-83671095D01*
X106288921Y-83671095D02*
X106336540Y-83766333D01*
X106336540Y-83766333D02*
X106336540Y-83956809D01*
X106336540Y-83052047D02*
X106336540Y-82861571D01*
X106336540Y-82861571D02*
X106288921Y-82766333D01*
X106288921Y-82766333D02*
X106241301Y-82718714D01*
X106241301Y-82718714D02*
X106098444Y-82623476D01*
X106098444Y-82623476D02*
X105907968Y-82575857D01*
X105907968Y-82575857D02*
X105527016Y-82575857D01*
X105527016Y-82575857D02*
X105431778Y-82623476D01*
X105431778Y-82623476D02*
X105384159Y-82671095D01*
X105384159Y-82671095D02*
X105336540Y-82766333D01*
X105336540Y-82766333D02*
X105336540Y-82956809D01*
X105336540Y-82956809D02*
X105384159Y-83052047D01*
X105384159Y-83052047D02*
X105431778Y-83099666D01*
X105431778Y-83099666D02*
X105527016Y-83147285D01*
X105527016Y-83147285D02*
X105765111Y-83147285D01*
X105765111Y-83147285D02*
X105860349Y-83099666D01*
X105860349Y-83099666D02*
X105907968Y-83052047D01*
X105907968Y-83052047D02*
X105955587Y-82956809D01*
X105955587Y-82956809D02*
X105955587Y-82766333D01*
X105955587Y-82766333D02*
X105907968Y-82671095D01*
X105907968Y-82671095D02*
X105860349Y-82623476D01*
X105860349Y-82623476D02*
X105765111Y-82575857D01*
X105336540Y-81956809D02*
X105336540Y-81861571D01*
X105336540Y-81861571D02*
X105384159Y-81766333D01*
X105384159Y-81766333D02*
X105431778Y-81718714D01*
X105431778Y-81718714D02*
X105527016Y-81671095D01*
X105527016Y-81671095D02*
X105717492Y-81623476D01*
X105717492Y-81623476D02*
X105955587Y-81623476D01*
X105955587Y-81623476D02*
X106146063Y-81671095D01*
X106146063Y-81671095D02*
X106241301Y-81718714D01*
X106241301Y-81718714D02*
X106288921Y-81766333D01*
X106288921Y-81766333D02*
X106336540Y-81861571D01*
X106336540Y-81861571D02*
X106336540Y-81956809D01*
X106336540Y-81956809D02*
X106288921Y-82052047D01*
X106288921Y-82052047D02*
X106241301Y-82099666D01*
X106241301Y-82099666D02*
X106146063Y-82147285D01*
X106146063Y-82147285D02*
X105955587Y-82194904D01*
X105955587Y-82194904D02*
X105717492Y-82194904D01*
X105717492Y-82194904D02*
X105527016Y-82147285D01*
X105527016Y-82147285D02*
X105431778Y-82099666D01*
X105431778Y-82099666D02*
X105384159Y-82052047D01*
X105384159Y-82052047D02*
X105336540Y-81956809D01*
X105336540Y-80718714D02*
X105336540Y-81194904D01*
X105336540Y-81194904D02*
X105812730Y-81242523D01*
X105812730Y-81242523D02*
X105765111Y-81194904D01*
X105765111Y-81194904D02*
X105717492Y-81099666D01*
X105717492Y-81099666D02*
X105717492Y-80861571D01*
X105717492Y-80861571D02*
X105765111Y-80766333D01*
X105765111Y-80766333D02*
X105812730Y-80718714D01*
X105812730Y-80718714D02*
X105907968Y-80671095D01*
X105907968Y-80671095D02*
X106146063Y-80671095D01*
X106146063Y-80671095D02*
X106241301Y-80718714D01*
X106241301Y-80718714D02*
X106288921Y-80766333D01*
X106288921Y-80766333D02*
X106336540Y-80861571D01*
X106336540Y-80861571D02*
X106336540Y-81099666D01*
X106336540Y-81099666D02*
X106288921Y-81194904D01*
X106288921Y-81194904D02*
X106241301Y-81242523D01*
X106220057Y-98527619D02*
X106172438Y-98622857D01*
X106172438Y-98622857D02*
X106077200Y-98718095D01*
X106077200Y-98718095D02*
X105934342Y-98860952D01*
X105934342Y-98860952D02*
X105886723Y-98956190D01*
X105886723Y-98956190D02*
X105886723Y-99051428D01*
X106124819Y-99003809D02*
X106077200Y-99099047D01*
X106077200Y-99099047D02*
X105981961Y-99194285D01*
X105981961Y-99194285D02*
X105791485Y-99241904D01*
X105791485Y-99241904D02*
X105458152Y-99241904D01*
X105458152Y-99241904D02*
X105267676Y-99194285D01*
X105267676Y-99194285D02*
X105172438Y-99099047D01*
X105172438Y-99099047D02*
X105124819Y-99003809D01*
X105124819Y-99003809D02*
X105124819Y-98813333D01*
X105124819Y-98813333D02*
X105172438Y-98718095D01*
X105172438Y-98718095D02*
X105267676Y-98622857D01*
X105267676Y-98622857D02*
X105458152Y-98575238D01*
X105458152Y-98575238D02*
X105791485Y-98575238D01*
X105791485Y-98575238D02*
X105981961Y-98622857D01*
X105981961Y-98622857D02*
X106077200Y-98718095D01*
X106077200Y-98718095D02*
X106124819Y-98813333D01*
X106124819Y-98813333D02*
X106124819Y-99003809D01*
X106124819Y-98099047D02*
X106124819Y-97908571D01*
X106124819Y-97908571D02*
X106077200Y-97813333D01*
X106077200Y-97813333D02*
X106029580Y-97765714D01*
X106029580Y-97765714D02*
X105886723Y-97670476D01*
X105886723Y-97670476D02*
X105696247Y-97622857D01*
X105696247Y-97622857D02*
X105315295Y-97622857D01*
X105315295Y-97622857D02*
X105220057Y-97670476D01*
X105220057Y-97670476D02*
X105172438Y-97718095D01*
X105172438Y-97718095D02*
X105124819Y-97813333D01*
X105124819Y-97813333D02*
X105124819Y-98003809D01*
X105124819Y-98003809D02*
X105172438Y-98099047D01*
X105172438Y-98099047D02*
X105220057Y-98146666D01*
X105220057Y-98146666D02*
X105315295Y-98194285D01*
X105315295Y-98194285D02*
X105553390Y-98194285D01*
X105553390Y-98194285D02*
X105648628Y-98146666D01*
X105648628Y-98146666D02*
X105696247Y-98099047D01*
X105696247Y-98099047D02*
X105743866Y-98003809D01*
X105743866Y-98003809D02*
X105743866Y-97813333D01*
X105743866Y-97813333D02*
X105696247Y-97718095D01*
X105696247Y-97718095D02*
X105648628Y-97670476D01*
X105648628Y-97670476D02*
X105553390Y-97622857D01*
X106124819Y-96670476D02*
X106124819Y-97241904D01*
X106124819Y-96956190D02*
X105124819Y-96956190D01*
X105124819Y-96956190D02*
X105267676Y-97051428D01*
X105267676Y-97051428D02*
X105362914Y-97146666D01*
X105362914Y-97146666D02*
X105410533Y-97241904D01*
X105458152Y-95813333D02*
X106124819Y-95813333D01*
X105077200Y-96051428D02*
X105791485Y-96289523D01*
X105791485Y-96289523D02*
X105791485Y-95670476D01*
D11*
X169675508Y-47572237D02*
X168855508Y-47572237D01*
X168855508Y-47572237D02*
X168855508Y-47376999D01*
X168855508Y-47376999D02*
X168894556Y-47259856D01*
X168894556Y-47259856D02*
X168972651Y-47181761D01*
X168972651Y-47181761D02*
X169050746Y-47142714D01*
X169050746Y-47142714D02*
X169206937Y-47103666D01*
X169206937Y-47103666D02*
X169324080Y-47103666D01*
X169324080Y-47103666D02*
X169480270Y-47142714D01*
X169480270Y-47142714D02*
X169558365Y-47181761D01*
X169558365Y-47181761D02*
X169636461Y-47259856D01*
X169636461Y-47259856D02*
X169675508Y-47376999D01*
X169675508Y-47376999D02*
X169675508Y-47572237D01*
X168933603Y-46791285D02*
X168894556Y-46752237D01*
X168894556Y-46752237D02*
X168855508Y-46674142D01*
X168855508Y-46674142D02*
X168855508Y-46478904D01*
X168855508Y-46478904D02*
X168894556Y-46400809D01*
X168894556Y-46400809D02*
X168933603Y-46361761D01*
X168933603Y-46361761D02*
X169011699Y-46322714D01*
X169011699Y-46322714D02*
X169089794Y-46322714D01*
X169089794Y-46322714D02*
X169206937Y-46361761D01*
X169206937Y-46361761D02*
X169675508Y-46830333D01*
X169675508Y-46830333D02*
X169675508Y-46322714D01*
X143033126Y-78993585D02*
X142233126Y-78993585D01*
X142233126Y-78993585D02*
X142233126Y-78803109D01*
X142233126Y-78803109D02*
X142271221Y-78688823D01*
X142271221Y-78688823D02*
X142347411Y-78612633D01*
X142347411Y-78612633D02*
X142423602Y-78574538D01*
X142423602Y-78574538D02*
X142575983Y-78536442D01*
X142575983Y-78536442D02*
X142690269Y-78536442D01*
X142690269Y-78536442D02*
X142842650Y-78574538D01*
X142842650Y-78574538D02*
X142918840Y-78612633D01*
X142918840Y-78612633D02*
X142995031Y-78688823D01*
X142995031Y-78688823D02*
X143033126Y-78803109D01*
X143033126Y-78803109D02*
X143033126Y-78993585D01*
X143033126Y-77774538D02*
X143033126Y-78231681D01*
X143033126Y-78003109D02*
X142233126Y-78003109D01*
X142233126Y-78003109D02*
X142347411Y-78079300D01*
X142347411Y-78079300D02*
X142423602Y-78155490D01*
X142423602Y-78155490D02*
X142461697Y-78231681D01*
X142233126Y-77279299D02*
X142233126Y-77203109D01*
X142233126Y-77203109D02*
X142271221Y-77126918D01*
X142271221Y-77126918D02*
X142309316Y-77088823D01*
X142309316Y-77088823D02*
X142385507Y-77050728D01*
X142385507Y-77050728D02*
X142537888Y-77012633D01*
X142537888Y-77012633D02*
X142728364Y-77012633D01*
X142728364Y-77012633D02*
X142880745Y-77050728D01*
X142880745Y-77050728D02*
X142956935Y-77088823D01*
X142956935Y-77088823D02*
X142995031Y-77126918D01*
X142995031Y-77126918D02*
X143033126Y-77203109D01*
X143033126Y-77203109D02*
X143033126Y-77279299D01*
X143033126Y-77279299D02*
X142995031Y-77355490D01*
X142995031Y-77355490D02*
X142956935Y-77393585D01*
X142956935Y-77393585D02*
X142880745Y-77431680D01*
X142880745Y-77431680D02*
X142728364Y-77469776D01*
X142728364Y-77469776D02*
X142537888Y-77469776D01*
X142537888Y-77469776D02*
X142385507Y-77431680D01*
X142385507Y-77431680D02*
X142309316Y-77393585D01*
X142309316Y-77393585D02*
X142271221Y-77355490D01*
X142271221Y-77355490D02*
X142233126Y-77279299D01*
X206150417Y-65099534D02*
X206111370Y-65060486D01*
X206111370Y-65060486D02*
X206072322Y-64943343D01*
X206072322Y-64943343D02*
X206072322Y-64865248D01*
X206072322Y-64865248D02*
X206111370Y-64748105D01*
X206111370Y-64748105D02*
X206189465Y-64670010D01*
X206189465Y-64670010D02*
X206267560Y-64630962D01*
X206267560Y-64630962D02*
X206423751Y-64591914D01*
X206423751Y-64591914D02*
X206540894Y-64591914D01*
X206540894Y-64591914D02*
X206697085Y-64630962D01*
X206697085Y-64630962D02*
X206775180Y-64670010D01*
X206775180Y-64670010D02*
X206853275Y-64748105D01*
X206853275Y-64748105D02*
X206892323Y-64865248D01*
X206892323Y-64865248D02*
X206892323Y-64943343D01*
X206892323Y-64943343D02*
X206853275Y-65060486D01*
X206853275Y-65060486D02*
X206814228Y-65099534D01*
X206072322Y-65880487D02*
X206072322Y-65411915D01*
X206072322Y-65646201D02*
X206892323Y-65646201D01*
X206892323Y-65646201D02*
X206775180Y-65568106D01*
X206775180Y-65568106D02*
X206697085Y-65490011D01*
X206697085Y-65490011D02*
X206658037Y-65411915D01*
D10*
X201834819Y-64709666D02*
X201834819Y-65185856D01*
X201834819Y-65185856D02*
X200834819Y-65185856D01*
X201834819Y-63852523D02*
X201834819Y-64423951D01*
X201834819Y-64138237D02*
X200834819Y-64138237D01*
X200834819Y-64138237D02*
X200977676Y-64233475D01*
X200977676Y-64233475D02*
X201072914Y-64328713D01*
X201072914Y-64328713D02*
X201120533Y-64423951D01*
D11*
X194542092Y-97397985D02*
X194268759Y-97007509D01*
X194073521Y-97397985D02*
X194073521Y-96577985D01*
X194073521Y-96577985D02*
X194385902Y-96577985D01*
X194385902Y-96577985D02*
X194463997Y-96617033D01*
X194463997Y-96617033D02*
X194503044Y-96656080D01*
X194503044Y-96656080D02*
X194542092Y-96734176D01*
X194542092Y-96734176D02*
X194542092Y-96851318D01*
X194542092Y-96851318D02*
X194503044Y-96929414D01*
X194503044Y-96929414D02*
X194463997Y-96968461D01*
X194463997Y-96968461D02*
X194385902Y-97007509D01*
X194385902Y-97007509D02*
X194073521Y-97007509D01*
X195323044Y-97397985D02*
X194854473Y-97397985D01*
X195088759Y-97397985D02*
X195088759Y-96577985D01*
X195088759Y-96577985D02*
X195010663Y-96695128D01*
X195010663Y-96695128D02*
X194932568Y-96773223D01*
X194932568Y-96773223D02*
X194854473Y-96812271D01*
X196025901Y-96577985D02*
X195869711Y-96577985D01*
X195869711Y-96577985D02*
X195791615Y-96617033D01*
X195791615Y-96617033D02*
X195752568Y-96656080D01*
X195752568Y-96656080D02*
X195674473Y-96773223D01*
X195674473Y-96773223D02*
X195635425Y-96929414D01*
X195635425Y-96929414D02*
X195635425Y-97241795D01*
X195635425Y-97241795D02*
X195674473Y-97319890D01*
X195674473Y-97319890D02*
X195713520Y-97358938D01*
X195713520Y-97358938D02*
X195791615Y-97397985D01*
X195791615Y-97397985D02*
X195947806Y-97397985D01*
X195947806Y-97397985D02*
X196025901Y-97358938D01*
X196025901Y-97358938D02*
X196064949Y-97319890D01*
X196064949Y-97319890D02*
X196103996Y-97241795D01*
X196103996Y-97241795D02*
X196103996Y-97046557D01*
X196103996Y-97046557D02*
X196064949Y-96968461D01*
X196064949Y-96968461D02*
X196025901Y-96929414D01*
X196025901Y-96929414D02*
X195947806Y-96890366D01*
X195947806Y-96890366D02*
X195791615Y-96890366D01*
X195791615Y-96890366D02*
X195713520Y-96929414D01*
X195713520Y-96929414D02*
X195674473Y-96968461D01*
X195674473Y-96968461D02*
X195635425Y-97046557D01*
X195700533Y-71370576D02*
X195661485Y-71409624D01*
X195661485Y-71409624D02*
X195544342Y-71448671D01*
X195544342Y-71448671D02*
X195466247Y-71448671D01*
X195466247Y-71448671D02*
X195349104Y-71409624D01*
X195349104Y-71409624D02*
X195271009Y-71331528D01*
X195271009Y-71331528D02*
X195231961Y-71253433D01*
X195231961Y-71253433D02*
X195192913Y-71097242D01*
X195192913Y-71097242D02*
X195192913Y-70980099D01*
X195192913Y-70980099D02*
X195231961Y-70823909D01*
X195231961Y-70823909D02*
X195271009Y-70745813D01*
X195271009Y-70745813D02*
X195349104Y-70667718D01*
X195349104Y-70667718D02*
X195466247Y-70628670D01*
X195466247Y-70628670D02*
X195544342Y-70628670D01*
X195544342Y-70628670D02*
X195661485Y-70667718D01*
X195661485Y-70667718D02*
X195700533Y-70706766D01*
X196442439Y-70628670D02*
X196051962Y-70628670D01*
X196051962Y-70628670D02*
X196012914Y-71019147D01*
X196012914Y-71019147D02*
X196051962Y-70980099D01*
X196051962Y-70980099D02*
X196130057Y-70941052D01*
X196130057Y-70941052D02*
X196325296Y-70941052D01*
X196325296Y-70941052D02*
X196403391Y-70980099D01*
X196403391Y-70980099D02*
X196442439Y-71019147D01*
X196442439Y-71019147D02*
X196481486Y-71097242D01*
X196481486Y-71097242D02*
X196481486Y-71292481D01*
X196481486Y-71292481D02*
X196442439Y-71370576D01*
X196442439Y-71370576D02*
X196403391Y-71409624D01*
X196403391Y-71409624D02*
X196325296Y-71448671D01*
X196325296Y-71448671D02*
X196130057Y-71448671D01*
X196130057Y-71448671D02*
X196051962Y-71409624D01*
X196051962Y-71409624D02*
X196012914Y-71370576D01*
D10*
X95738336Y-67764619D02*
X95690717Y-67859857D01*
X95690717Y-67859857D02*
X95595479Y-67955095D01*
X95595479Y-67955095D02*
X95452621Y-68097952D01*
X95452621Y-68097952D02*
X95405002Y-68193190D01*
X95405002Y-68193190D02*
X95405002Y-68288428D01*
X95643098Y-68240809D02*
X95595479Y-68336047D01*
X95595479Y-68336047D02*
X95500240Y-68431285D01*
X95500240Y-68431285D02*
X95309764Y-68478904D01*
X95309764Y-68478904D02*
X94976431Y-68478904D01*
X94976431Y-68478904D02*
X94785955Y-68431285D01*
X94785955Y-68431285D02*
X94690717Y-68336047D01*
X94690717Y-68336047D02*
X94643098Y-68240809D01*
X94643098Y-68240809D02*
X94643098Y-68050333D01*
X94643098Y-68050333D02*
X94690717Y-67955095D01*
X94690717Y-67955095D02*
X94785955Y-67859857D01*
X94785955Y-67859857D02*
X94976431Y-67812238D01*
X94976431Y-67812238D02*
X95309764Y-67812238D01*
X95309764Y-67812238D02*
X95500240Y-67859857D01*
X95500240Y-67859857D02*
X95595479Y-67955095D01*
X95595479Y-67955095D02*
X95643098Y-68050333D01*
X95643098Y-68050333D02*
X95643098Y-68240809D01*
X95643098Y-67336047D02*
X95643098Y-67145571D01*
X95643098Y-67145571D02*
X95595479Y-67050333D01*
X95595479Y-67050333D02*
X95547859Y-67002714D01*
X95547859Y-67002714D02*
X95405002Y-66907476D01*
X95405002Y-66907476D02*
X95214526Y-66859857D01*
X95214526Y-66859857D02*
X94833574Y-66859857D01*
X94833574Y-66859857D02*
X94738336Y-66907476D01*
X94738336Y-66907476D02*
X94690717Y-66955095D01*
X94690717Y-66955095D02*
X94643098Y-67050333D01*
X94643098Y-67050333D02*
X94643098Y-67240809D01*
X94643098Y-67240809D02*
X94690717Y-67336047D01*
X94690717Y-67336047D02*
X94738336Y-67383666D01*
X94738336Y-67383666D02*
X94833574Y-67431285D01*
X94833574Y-67431285D02*
X95071669Y-67431285D01*
X95071669Y-67431285D02*
X95166907Y-67383666D01*
X95166907Y-67383666D02*
X95214526Y-67336047D01*
X95214526Y-67336047D02*
X95262145Y-67240809D01*
X95262145Y-67240809D02*
X95262145Y-67050333D01*
X95262145Y-67050333D02*
X95214526Y-66955095D01*
X95214526Y-66955095D02*
X95166907Y-66907476D01*
X95166907Y-66907476D02*
X95071669Y-66859857D01*
X95643098Y-65907476D02*
X95643098Y-66478904D01*
X95643098Y-66193190D02*
X94643098Y-66193190D01*
X94643098Y-66193190D02*
X94785955Y-66288428D01*
X94785955Y-66288428D02*
X94881193Y-66383666D01*
X94881193Y-66383666D02*
X94928812Y-66478904D01*
X95643098Y-64955095D02*
X95643098Y-65526523D01*
X95643098Y-65240809D02*
X94643098Y-65240809D01*
X94643098Y-65240809D02*
X94785955Y-65336047D01*
X94785955Y-65336047D02*
X94881193Y-65431285D01*
X94881193Y-65431285D02*
X94928812Y-65526523D01*
D12*
X136744143Y-46555778D02*
X136490143Y-46555778D01*
X136490143Y-46954921D02*
X136490143Y-46192921D01*
X136490143Y-46192921D02*
X136853000Y-46192921D01*
X137542429Y-46954921D02*
X137107000Y-46954921D01*
X137324715Y-46954921D02*
X137324715Y-46192921D01*
X137324715Y-46192921D02*
X137252143Y-46301778D01*
X137252143Y-46301778D02*
X137179572Y-46374350D01*
X137179572Y-46374350D02*
X137107000Y-46410636D01*
X138014143Y-46192921D02*
X138086714Y-46192921D01*
X138086714Y-46192921D02*
X138159286Y-46229207D01*
X138159286Y-46229207D02*
X138195572Y-46265493D01*
X138195572Y-46265493D02*
X138231857Y-46338064D01*
X138231857Y-46338064D02*
X138268143Y-46483207D01*
X138268143Y-46483207D02*
X138268143Y-46664636D01*
X138268143Y-46664636D02*
X138231857Y-46809778D01*
X138231857Y-46809778D02*
X138195572Y-46882350D01*
X138195572Y-46882350D02*
X138159286Y-46918636D01*
X138159286Y-46918636D02*
X138086714Y-46954921D01*
X138086714Y-46954921D02*
X138014143Y-46954921D01*
X138014143Y-46954921D02*
X137941572Y-46918636D01*
X137941572Y-46918636D02*
X137905286Y-46882350D01*
X137905286Y-46882350D02*
X137869000Y-46809778D01*
X137869000Y-46809778D02*
X137832714Y-46664636D01*
X137832714Y-46664636D02*
X137832714Y-46483207D01*
X137832714Y-46483207D02*
X137869000Y-46338064D01*
X137869000Y-46338064D02*
X137905286Y-46265493D01*
X137905286Y-46265493D02*
X137941572Y-46229207D01*
X137941572Y-46229207D02*
X138014143Y-46192921D01*
D10*
X197319819Y-68909594D02*
X196319819Y-68909594D01*
X196319819Y-68909594D02*
X196319819Y-68671499D01*
X196319819Y-68671499D02*
X196367438Y-68528642D01*
X196367438Y-68528642D02*
X196462676Y-68433404D01*
X196462676Y-68433404D02*
X196557914Y-68385785D01*
X196557914Y-68385785D02*
X196748390Y-68338166D01*
X196748390Y-68338166D02*
X196891247Y-68338166D01*
X196891247Y-68338166D02*
X197081723Y-68385785D01*
X197081723Y-68385785D02*
X197176961Y-68433404D01*
X197176961Y-68433404D02*
X197272200Y-68528642D01*
X197272200Y-68528642D02*
X197319819Y-68671499D01*
X197319819Y-68671499D02*
X197319819Y-68909594D01*
X197319819Y-67385785D02*
X197319819Y-67957213D01*
X197319819Y-67671499D02*
X196319819Y-67671499D01*
X196319819Y-67671499D02*
X196462676Y-67766737D01*
X196462676Y-67766737D02*
X196557914Y-67861975D01*
X196557914Y-67861975D02*
X196605533Y-67957213D01*
D11*
X119199907Y-124598014D02*
X119473240Y-124988490D01*
X119668478Y-124598014D02*
X119668478Y-125418014D01*
X119668478Y-125418014D02*
X119356097Y-125418014D01*
X119356097Y-125418014D02*
X119278002Y-125378966D01*
X119278002Y-125378966D02*
X119238955Y-125339919D01*
X119238955Y-125339919D02*
X119199907Y-125261823D01*
X119199907Y-125261823D02*
X119199907Y-125144681D01*
X119199907Y-125144681D02*
X119238955Y-125066585D01*
X119238955Y-125066585D02*
X119278002Y-125027538D01*
X119278002Y-125027538D02*
X119356097Y-124988490D01*
X119356097Y-124988490D02*
X119668478Y-124988490D01*
X118418955Y-124598014D02*
X118887526Y-124598014D01*
X118653240Y-124598014D02*
X118653240Y-125418014D01*
X118653240Y-125418014D02*
X118731336Y-125300871D01*
X118731336Y-125300871D02*
X118809431Y-125222776D01*
X118809431Y-125222776D02*
X118887526Y-125183728D01*
X118145622Y-125418014D02*
X117598955Y-125418014D01*
X117598955Y-125418014D02*
X117950384Y-124598014D01*
D13*
%TO.C,G\u002A\u002A\u002A*%
G36*
X154114119Y-129762219D02*
G01*
X154099054Y-129777285D01*
X154083989Y-129762219D01*
X154099054Y-129747154D01*
X154114119Y-129762219D01*
G37*
G36*
X155831557Y-127924260D02*
G01*
X155816492Y-127939325D01*
X155801427Y-127924260D01*
X155816492Y-127909195D01*
X155831557Y-127924260D01*
G37*
G36*
X155982210Y-128617261D02*
G01*
X155967144Y-128632326D01*
X155952079Y-128617261D01*
X155967144Y-128602196D01*
X155982210Y-128617261D01*
G37*
G36*
X156012340Y-126267083D02*
G01*
X155997275Y-126282148D01*
X155982210Y-126267083D01*
X155997275Y-126252018D01*
X156012340Y-126267083D01*
G37*
G36*
X154164337Y-129727067D02*
G01*
X154167943Y-129762825D01*
X154164337Y-129767241D01*
X154146424Y-129763105D01*
X154144250Y-129747154D01*
X154155274Y-129722353D01*
X154164337Y-129727067D01*
G37*
G36*
X154617139Y-126418681D02*
G01*
X154599946Y-126440835D01*
X154574612Y-126459876D01*
X154580934Y-126429685D01*
X154583079Y-126423969D01*
X154606948Y-126387073D01*
X154620519Y-126386808D01*
X154617139Y-126418681D01*
G37*
G36*
X155726100Y-127898299D02*
G01*
X155765745Y-127919685D01*
X155771296Y-127927483D01*
X155746692Y-127938016D01*
X155726100Y-127939325D01*
X155685996Y-127923557D01*
X155680905Y-127910140D01*
X155702991Y-127893562D01*
X155726100Y-127898299D01*
G37*
G36*
X160976005Y-129803122D02*
G01*
X160983870Y-129835336D01*
X160964019Y-129886849D01*
X160921400Y-129897807D01*
X160873380Y-129881572D01*
X160869018Y-129845424D01*
X160897027Y-129796657D01*
X160940456Y-129781875D01*
X160976005Y-129803122D01*
G37*
G36*
X162030572Y-129803122D02*
G01*
X162038437Y-129835336D01*
X162018586Y-129886849D01*
X161975967Y-129897807D01*
X161927947Y-129881572D01*
X161923585Y-129845424D01*
X161951594Y-129796657D01*
X161995023Y-129781875D01*
X162030572Y-129803122D01*
G37*
G36*
X163508663Y-129798081D02*
G01*
X163511828Y-129860144D01*
X163508784Y-129936338D01*
X163494151Y-129957502D01*
X163476160Y-129935470D01*
X163474776Y-129892304D01*
X163486444Y-129837546D01*
X163501717Y-129791734D01*
X163508663Y-129798081D01*
G37*
G36*
X160886320Y-128428945D02*
G01*
X160920482Y-128461989D01*
X160933259Y-128507324D01*
X160942643Y-128621459D01*
X160914115Y-128691236D01*
X160845303Y-128720961D01*
X160814638Y-128722718D01*
X160712696Y-128722718D01*
X160712696Y-128572065D01*
X160712696Y-128421413D01*
X160814386Y-128421413D01*
X160886320Y-128428945D01*
G37*
G36*
X165631238Y-127252124D02*
G01*
X165724893Y-127270636D01*
X165769462Y-127315429D01*
X165771780Y-127396588D01*
X165761647Y-127444555D01*
X165740036Y-127492646D01*
X165694878Y-127513494D01*
X165623391Y-127517498D01*
X165503443Y-127517498D01*
X165503443Y-127380179D01*
X165503443Y-127242859D01*
X165631238Y-127252124D01*
G37*
G36*
X160528544Y-129790268D02*
G01*
X160552655Y-129834557D01*
X160561645Y-129911692D01*
X160553879Y-129995786D01*
X160543755Y-130030930D01*
X160510063Y-130078658D01*
X160474687Y-130074590D01*
X160448686Y-130025825D01*
X160441983Y-129965600D01*
X160452165Y-129862818D01*
X160478771Y-129799660D01*
X160517356Y-129785130D01*
X160528544Y-129790268D01*
G37*
G36*
X162958196Y-129791214D02*
G01*
X162968684Y-129841404D01*
X162966601Y-129918049D01*
X162951483Y-130008918D01*
X162924613Y-130063995D01*
X162892951Y-130075324D01*
X162863731Y-130035673D01*
X162854142Y-129966531D01*
X162864502Y-129885851D01*
X162889083Y-129815866D01*
X162922156Y-129778811D01*
X162930303Y-129777285D01*
X162958196Y-129791214D01*
G37*
G36*
X164675788Y-129803199D02*
G01*
X164689132Y-129867229D01*
X164687168Y-129948802D01*
X164669085Y-130027346D01*
X164658730Y-130050440D01*
X164618706Y-130102067D01*
X164588246Y-130096413D01*
X164571429Y-130036208D01*
X164569398Y-129990662D01*
X164578296Y-129866763D01*
X164605884Y-129796927D01*
X164647948Y-129777285D01*
X164675788Y-129803199D01*
G37*
G36*
X165732102Y-129803097D02*
G01*
X165744324Y-129869037D01*
X165736123Y-129957862D01*
X165715102Y-130031432D01*
X165678214Y-130095069D01*
X165640840Y-130102637D01*
X165611831Y-130060298D01*
X165605720Y-129996353D01*
X165619689Y-129914957D01*
X165646947Y-129837800D01*
X165680702Y-129786571D01*
X165700453Y-129777285D01*
X165732102Y-129803097D01*
G37*
G36*
X162394203Y-128549467D02*
G01*
X162384913Y-128630191D01*
X162362463Y-128668765D01*
X162311578Y-128683261D01*
X162278404Y-128686489D01*
X162201624Y-128686932D01*
X162153361Y-128676246D01*
X162150350Y-128673934D01*
X162136395Y-128632230D01*
X162129126Y-128556328D01*
X162128829Y-128536913D01*
X162128829Y-128421413D01*
X162266148Y-128421413D01*
X162403468Y-128421413D01*
X162394203Y-128549467D01*
G37*
G36*
X160027227Y-127252124D02*
G01*
X160107429Y-127260628D01*
X160144331Y-127281953D01*
X160154749Y-127333140D01*
X160155282Y-127381911D01*
X160151683Y-127459485D01*
X160130623Y-127495546D01*
X160076704Y-127508809D01*
X160048748Y-127511400D01*
X159971968Y-127511843D01*
X159923705Y-127501157D01*
X159920694Y-127498845D01*
X159906826Y-127457218D01*
X159899511Y-127381114D01*
X159899173Y-127360092D01*
X159899173Y-127242859D01*
X160027227Y-127252124D01*
G37*
G36*
X156062995Y-128708175D02*
G01*
X156140622Y-128744562D01*
X156222991Y-128804810D01*
X156258852Y-128854042D01*
X156252362Y-128912434D01*
X156200681Y-128990112D01*
X156157246Y-129039088D01*
X156089041Y-129128422D01*
X156066591Y-129207562D01*
X156069033Y-129242469D01*
X156060453Y-129264329D01*
X156032822Y-129242840D01*
X156026547Y-129233547D01*
X156018964Y-129187097D01*
X156021723Y-129104739D01*
X156027149Y-129056014D01*
X156034028Y-128952140D01*
X156020718Y-128895506D01*
X156014721Y-128889907D01*
X155988919Y-128845277D01*
X155983704Y-128777801D01*
X155999621Y-128720512D01*
X156011717Y-128708037D01*
X156062995Y-128708175D01*
G37*
G36*
X155921568Y-127930495D02*
G01*
X155962759Y-127953570D01*
X155965027Y-127972881D01*
X155966219Y-127998949D01*
X155972899Y-128000533D01*
X156016995Y-128027186D01*
X156056204Y-128085871D01*
X156076025Y-128149536D01*
X156070533Y-128182683D01*
X156045767Y-128208336D01*
X156039166Y-128202967D01*
X156031851Y-128153489D01*
X156031172Y-128147810D01*
X156006023Y-128105201D01*
X155974677Y-128076694D01*
X155931856Y-128029477D01*
X155921949Y-128000108D01*
X155912960Y-127977212D01*
X155877109Y-127999291D01*
X155876753Y-127999586D01*
X155839314Y-128019754D01*
X155831557Y-128003275D01*
X155853583Y-127971126D01*
X155863466Y-127969455D01*
X155882317Y-127951410D01*
X155878489Y-127942135D01*
X155888085Y-127926692D01*
X155921568Y-127930495D01*
G37*
G36*
X155732657Y-127988631D02*
G01*
X155781886Y-128021437D01*
X155785195Y-128065904D01*
X155784191Y-128104985D01*
X155812521Y-128115948D01*
X155877878Y-128106820D01*
X155954918Y-128096586D01*
X155977242Y-128108852D01*
X155947836Y-128148754D01*
X155918680Y-128176947D01*
X155855151Y-128236133D01*
X155918680Y-128304324D01*
X155982210Y-128372515D01*
X155982210Y-128306572D01*
X155992904Y-128252080D01*
X156029427Y-128247138D01*
X156086819Y-128281480D01*
X156116624Y-128308340D01*
X156119278Y-128337854D01*
X156090617Y-128385538D01*
X156042340Y-128447198D01*
X155978679Y-128517644D01*
X155924226Y-128562925D01*
X155901841Y-128572065D01*
X155866301Y-128596291D01*
X155861688Y-128617261D01*
X155850580Y-128656464D01*
X155813865Y-128650432D01*
X155746451Y-128597922D01*
X155733325Y-128585911D01*
X155678404Y-128519659D01*
X155651362Y-128456974D01*
X155650774Y-128449264D01*
X155633798Y-128376522D01*
X155592733Y-128303332D01*
X155542371Y-128251890D01*
X155511722Y-128240630D01*
X155473901Y-128258063D01*
X155469991Y-128270760D01*
X155445748Y-128297857D01*
X155427005Y-128300891D01*
X155385392Y-128274682D01*
X155368448Y-128204158D01*
X155374739Y-128125952D01*
X155386362Y-128086447D01*
X155413141Y-128068626D01*
X155470991Y-128067993D01*
X155549153Y-128076695D01*
X155653029Y-128084247D01*
X155705447Y-128075100D01*
X155711035Y-128065830D01*
X155687230Y-128028429D01*
X155673372Y-128021287D01*
X155645734Y-128001254D01*
X155663137Y-127986136D01*
X155710458Y-127984263D01*
X155732657Y-127988631D01*
G37*
G36*
X167823491Y-128557000D02*
G01*
X167823491Y-131374200D01*
X160321000Y-131374200D01*
X152818509Y-131374200D01*
X152818509Y-130268762D01*
X153974165Y-130268762D01*
X153978913Y-130300132D01*
X154002316Y-130369300D01*
X154037475Y-130459489D01*
X154077492Y-130553923D01*
X154115468Y-130635823D01*
X154144505Y-130688414D01*
X154149331Y-130694758D01*
X154171214Y-130747688D01*
X154174380Y-130777617D01*
X154189047Y-130823193D01*
X154206289Y-130831852D01*
X154224284Y-130850311D01*
X154219576Y-130861982D01*
X154221965Y-130889747D01*
X154232863Y-130892113D01*
X154263629Y-130879666D01*
X154264772Y-130875182D01*
X154256128Y-130847927D01*
X154228855Y-130783044D01*
X154180941Y-130676009D01*
X154110373Y-130522301D01*
X154047044Y-130385854D01*
X154009630Y-130312879D01*
X153981882Y-130272103D01*
X153974165Y-130268762D01*
X152818509Y-130268762D01*
X152818509Y-130244307D01*
X153632032Y-130244307D01*
X153647097Y-130259372D01*
X153662162Y-130244307D01*
X153647097Y-130229242D01*
X153632032Y-130244307D01*
X152818509Y-130244307D01*
X152818509Y-130123785D01*
X153571771Y-130123785D01*
X153586836Y-130138851D01*
X153601901Y-130123785D01*
X153586836Y-130108720D01*
X153571771Y-130123785D01*
X152818509Y-130123785D01*
X152818509Y-129941995D01*
X153844588Y-129941995D01*
X153852905Y-129985727D01*
X153875474Y-130054875D01*
X153904575Y-130129873D01*
X153932489Y-130191154D01*
X153951495Y-130219153D01*
X153953807Y-130218815D01*
X153950088Y-130186803D01*
X153927886Y-130117279D01*
X153905904Y-130059959D01*
X153872847Y-129983970D01*
X153850472Y-129942975D01*
X153844588Y-129941995D01*
X152818509Y-129941995D01*
X152818509Y-129882741D01*
X153451249Y-129882741D01*
X153466314Y-129897807D01*
X153481379Y-129882741D01*
X153466314Y-129867676D01*
X153451249Y-129882741D01*
X152818509Y-129882741D01*
X152818509Y-129819970D01*
X153785063Y-129819970D01*
X153790602Y-129859049D01*
X153800888Y-129859516D01*
X153808081Y-129819189D01*
X153803267Y-129801766D01*
X153789888Y-129790353D01*
X153785063Y-129819970D01*
X152818509Y-129819970D01*
X152818509Y-129747154D01*
X153390988Y-129747154D01*
X153402012Y-129771955D01*
X153411075Y-129767241D01*
X153414681Y-129731483D01*
X153411075Y-129727067D01*
X153393162Y-129731203D01*
X153390988Y-129747154D01*
X152818509Y-129747154D01*
X152818509Y-129701958D01*
X153752554Y-129701958D01*
X153768322Y-129742063D01*
X153781738Y-129747154D01*
X153798317Y-129725068D01*
X153795057Y-129709164D01*
X154038059Y-129709164D01*
X154038070Y-129738655D01*
X154053634Y-129791453D01*
X154086599Y-129889602D01*
X154133012Y-130022103D01*
X154188921Y-130177956D01*
X154250372Y-130346162D01*
X154313413Y-130515722D01*
X154374089Y-130675636D01*
X154384937Y-130703797D01*
X154480960Y-130952374D01*
X154777849Y-130952374D01*
X154920270Y-130955572D01*
X155026312Y-130964493D01*
X155086019Y-130978127D01*
X155094595Y-130984502D01*
X155108073Y-131034610D01*
X155114386Y-131113821D01*
X155114452Y-131122512D01*
X155114452Y-131228393D01*
X155418044Y-130930128D01*
X156162950Y-130930128D01*
X156191686Y-130931532D01*
X156272418Y-130931632D01*
X156396901Y-130930519D01*
X156556886Y-130928282D01*
X156744125Y-130925014D01*
X156882999Y-130922243D01*
X157111360Y-130917141D01*
X157287291Y-130912097D01*
X157418617Y-130906367D01*
X157513164Y-130899205D01*
X157578756Y-130889866D01*
X157623220Y-130877604D01*
X157654380Y-130861673D01*
X157673672Y-130846917D01*
X157793243Y-130722860D01*
X157869257Y-130588088D01*
X157897897Y-130455221D01*
X157940691Y-130455221D01*
X157955756Y-130470286D01*
X157970822Y-130455221D01*
X157955756Y-130440155D01*
X157940691Y-130455221D01*
X157897897Y-130455221D01*
X157901941Y-130436460D01*
X157897667Y-130364829D01*
X158000952Y-130364829D01*
X158016017Y-130379894D01*
X158031083Y-130364829D01*
X158016017Y-130349764D01*
X158000952Y-130364829D01*
X157897667Y-130364829D01*
X157896003Y-130336935D01*
X160354337Y-130336935D01*
X160371217Y-130359807D01*
X160429018Y-130379229D01*
X160508344Y-130360276D01*
X160551322Y-130335804D01*
X160591481Y-130290774D01*
X160617992Y-130214097D01*
X160634956Y-130102292D01*
X160644828Y-130016919D01*
X160772556Y-130016919D01*
X160789982Y-130102025D01*
X160809113Y-130132824D01*
X160863736Y-130161624D01*
X160931943Y-130168913D01*
X160989954Y-130155739D01*
X161014001Y-130123785D01*
X160993547Y-130095399D01*
X161168464Y-130095399D01*
X161177355Y-130148613D01*
X161199949Y-130168301D01*
X161207451Y-130168981D01*
X161235134Y-130147407D01*
X161256306Y-130078232D01*
X161271383Y-129971631D01*
X161285749Y-129863601D01*
X161302429Y-129804693D01*
X161325586Y-129783798D01*
X161341575Y-129784267D01*
X161368661Y-129800418D01*
X161381642Y-129843529D01*
X161383179Y-129926984D01*
X161380828Y-129981618D01*
X161378095Y-130087372D01*
X161385386Y-130145335D01*
X161404951Y-130167473D01*
X161416093Y-130168981D01*
X161444247Y-130150799D01*
X161456999Y-130113773D01*
X161590729Y-130113773D01*
X161597858Y-130156833D01*
X161623628Y-130168934D01*
X161626408Y-130168981D01*
X161660505Y-130146836D01*
X161683705Y-130075454D01*
X161691416Y-130025861D01*
X161692602Y-130016919D01*
X161827123Y-130016919D01*
X161844549Y-130102025D01*
X161863681Y-130132824D01*
X161918303Y-130161624D01*
X161986510Y-130168913D01*
X162044521Y-130155739D01*
X162068568Y-130123785D01*
X162048700Y-130096212D01*
X162223142Y-130096212D01*
X162232135Y-130149502D01*
X162254789Y-130168552D01*
X162260524Y-130168981D01*
X162289836Y-130142019D01*
X162310061Y-130067730D01*
X162550656Y-130067730D01*
X162560792Y-130139618D01*
X162585718Y-130170785D01*
X162617208Y-130152004D01*
X162620785Y-130146383D01*
X162630133Y-130107168D01*
X162642233Y-130024940D01*
X162646824Y-129984812D01*
X162762241Y-129984812D01*
X162770590Y-130089448D01*
X162779120Y-130119398D01*
X162816145Y-130145238D01*
X162887080Y-130161364D01*
X162966185Y-130165507D01*
X163027717Y-130155397D01*
X163044811Y-130142825D01*
X163050639Y-130116578D01*
X163340195Y-130116578D01*
X163345504Y-130154473D01*
X163366115Y-130168297D01*
X163375478Y-130168981D01*
X163416455Y-130144059D01*
X163424440Y-130111944D01*
X163443814Y-130060124D01*
X163486157Y-130031099D01*
X163526951Y-130040492D01*
X163542384Y-130082778D01*
X163544962Y-130113742D01*
X163567163Y-130160179D01*
X163594450Y-130168981D01*
X163621073Y-130161088D01*
X163632725Y-130128675D01*
X163631536Y-130058638D01*
X163628024Y-130020839D01*
X163756207Y-130020839D01*
X163760691Y-130105877D01*
X163784916Y-130148513D01*
X163844014Y-130162791D01*
X163909937Y-130163493D01*
X163990506Y-130155762D01*
X164029367Y-130129562D01*
X164040849Y-130097631D01*
X164051379Y-130032375D01*
X164057467Y-129985991D01*
X164196336Y-129985991D01*
X164199343Y-130082839D01*
X164204066Y-130138851D01*
X164232210Y-130164091D01*
X164289868Y-130170123D01*
X164350220Y-130159136D01*
X164386447Y-130133318D01*
X164388615Y-130123785D01*
X164363172Y-130087064D01*
X164324840Y-130078590D01*
X164279110Y-130067562D01*
X164276095Y-130023502D01*
X164277931Y-130016069D01*
X164479007Y-130016069D01*
X164501534Y-130104968D01*
X164557927Y-130158052D01*
X164631398Y-130169651D01*
X164688710Y-130142023D01*
X164879859Y-130142023D01*
X164902284Y-130168149D01*
X164911310Y-130168981D01*
X164958487Y-130144553D01*
X164972936Y-130121321D01*
X164985811Y-130058469D01*
X164991225Y-129973829D01*
X164991225Y-129973133D01*
X165002042Y-129854773D01*
X165035045Y-129790790D01*
X165073285Y-129777285D01*
X165097705Y-129787897D01*
X165109183Y-129827765D01*
X165109748Y-129908931D01*
X165106296Y-129973133D01*
X165102922Y-130089491D01*
X165111734Y-130152655D01*
X165129693Y-130168981D01*
X165172165Y-130141206D01*
X165197354Y-130064353D01*
X165202550Y-129993266D01*
X165213609Y-129878220D01*
X165242911Y-129802916D01*
X165284489Y-129777285D01*
X165308211Y-129786730D01*
X165318149Y-129823264D01*
X165315823Y-129899183D01*
X165308707Y-129973133D01*
X165299397Y-130080252D01*
X165301363Y-130140237D01*
X165316147Y-130165425D01*
X165333159Y-130168981D01*
X165361480Y-130141713D01*
X165386411Y-130071360D01*
X165404675Y-129975097D01*
X165404964Y-129971449D01*
X165533574Y-129971449D01*
X165537139Y-130064235D01*
X165546266Y-130130389D01*
X165553661Y-130148894D01*
X165608436Y-130168568D01*
X165686001Y-130163638D01*
X165756065Y-130138029D01*
X165777887Y-130119846D01*
X165802083Y-130060376D01*
X165816764Y-129963223D01*
X165818099Y-129930464D01*
X165955705Y-129930464D01*
X165959291Y-130035185D01*
X165966882Y-130114801D01*
X165975268Y-130146383D01*
X166015515Y-130168315D01*
X166074483Y-130167184D01*
X166123375Y-130147034D01*
X166136183Y-130123785D01*
X166116579Y-130088081D01*
X166098520Y-130086122D01*
X166072862Y-130065010D01*
X166234676Y-130065010D01*
X166235503Y-130131669D01*
X166247558Y-130162348D01*
X166268450Y-130168981D01*
X166740935Y-130168981D01*
X166875451Y-130168981D01*
X166964430Y-130162974D01*
X167004721Y-130142582D01*
X167009968Y-130123785D01*
X166984848Y-130086978D01*
X166949707Y-130078590D01*
X166909977Y-130075787D01*
X166894622Y-130059578D01*
X166904587Y-130018260D01*
X166940818Y-129940130D01*
X166964772Y-129892174D01*
X167006404Y-129804648D01*
X167033760Y-129738240D01*
X167040098Y-129714548D01*
X167013362Y-129697229D01*
X166946573Y-129687597D01*
X166919576Y-129686893D01*
X166835774Y-129694356D01*
X166801242Y-129719096D01*
X166799054Y-129732089D01*
X166824174Y-129768896D01*
X166859315Y-129777285D01*
X166912180Y-129791582D01*
X166910577Y-129830328D01*
X166891361Y-129854117D01*
X166863872Y-129896921D01*
X166825014Y-129974395D01*
X166802041Y-130025861D01*
X166740935Y-130168981D01*
X166268450Y-130168981D01*
X166297955Y-130150035D01*
X166319470Y-130087373D01*
X166322071Y-130070112D01*
X166560328Y-130070112D01*
X166560955Y-130135789D01*
X166572198Y-130162808D01*
X166590968Y-130163214D01*
X166620275Y-130123586D01*
X166645736Y-130027456D01*
X166660199Y-129932399D01*
X166670785Y-129823790D01*
X166673637Y-129739793D01*
X166668261Y-129697062D01*
X166667230Y-129695678D01*
X166633778Y-129689881D01*
X166604984Y-129742168D01*
X166581622Y-129850484D01*
X166569219Y-129955272D01*
X166560328Y-130070112D01*
X166322071Y-130070112D01*
X166334474Y-129987784D01*
X166349117Y-129884757D01*
X166368207Y-129826636D01*
X166398804Y-129798120D01*
X166426362Y-129788669D01*
X166487388Y-129760341D01*
X166494767Y-129728347D01*
X166452983Y-129704899D01*
X166393879Y-129700201D01*
X166320654Y-129706331D01*
X166279023Y-129716547D01*
X166277279Y-129717948D01*
X166268411Y-129752771D01*
X166256865Y-129831428D01*
X166244980Y-129937702D01*
X166243738Y-129950535D01*
X166234676Y-130065010D01*
X166072862Y-130065010D01*
X166072116Y-130064396D01*
X166055732Y-129985476D01*
X166051750Y-129935470D01*
X166048846Y-129842995D01*
X166057223Y-129795713D01*
X166081791Y-129778891D01*
X166104478Y-129777285D01*
X166154789Y-129758812D01*
X166166314Y-129732089D01*
X166142195Y-129692143D01*
X166121118Y-129686893D01*
X166081172Y-129662775D01*
X166075922Y-129641697D01*
X166058872Y-129601838D01*
X166021132Y-129601994D01*
X165982823Y-129637839D01*
X165970811Y-129664295D01*
X165961282Y-129725156D01*
X165956307Y-129820500D01*
X165955705Y-129930464D01*
X165818099Y-129930464D01*
X165819239Y-129902510D01*
X165817218Y-129805381D01*
X165805265Y-129750866D01*
X165775817Y-129721368D01*
X165733801Y-129703676D01*
X165648125Y-129697488D01*
X165584482Y-129744865D01*
X165545473Y-129842331D01*
X165533574Y-129971449D01*
X165404964Y-129971449D01*
X165412993Y-129870100D01*
X165408319Y-129775160D01*
X165399677Y-129738309D01*
X165377939Y-129716444D01*
X165330029Y-129705584D01*
X165242871Y-129701745D01*
X165165318Y-129701153D01*
X164932649Y-129700282D01*
X164915416Y-129836708D01*
X164900936Y-129946328D01*
X164886343Y-130049419D01*
X164883078Y-130071057D01*
X164879859Y-130142023D01*
X164688710Y-130142023D01*
X164705162Y-130134092D01*
X164733407Y-130102016D01*
X164764322Y-130023445D01*
X164779545Y-129909743D01*
X164780312Y-129876611D01*
X164777362Y-129782631D01*
X164763901Y-129731949D01*
X164733007Y-129707711D01*
X164707792Y-129699970D01*
X164610439Y-129699610D01*
X164538968Y-129752438D01*
X164494717Y-129856608D01*
X164479022Y-130010271D01*
X164479007Y-130016069D01*
X164277931Y-130016069D01*
X164279233Y-130010796D01*
X164293859Y-129925364D01*
X164297812Y-129863658D01*
X164317949Y-129793032D01*
X164358485Y-129768554D01*
X164406740Y-129741151D01*
X164416322Y-129707279D01*
X164383453Y-129687407D01*
X164373550Y-129686893D01*
X164333604Y-129662775D01*
X164328354Y-129641697D01*
X164304236Y-129601751D01*
X164283159Y-129596502D01*
X164243212Y-129620620D01*
X164237963Y-129641697D01*
X164225709Y-129681848D01*
X164215365Y-129686893D01*
X164206806Y-129714154D01*
X164200495Y-129784514D01*
X164196863Y-129880838D01*
X164196336Y-129985991D01*
X164057467Y-129985991D01*
X164064397Y-129933196D01*
X164072829Y-129860144D01*
X164080849Y-129759912D01*
X164075971Y-129706544D01*
X164056428Y-129687677D01*
X164048049Y-129686893D01*
X164011550Y-129715044D01*
X163984139Y-129792181D01*
X163968891Y-129907330D01*
X163966788Y-129976899D01*
X163959850Y-130047502D01*
X163932069Y-130075405D01*
X163903017Y-130078590D01*
X163869226Y-130074673D01*
X163852331Y-130053973D01*
X163849396Y-130003062D01*
X163857488Y-129908516D01*
X163860220Y-129882741D01*
X163869445Y-129775028D01*
X163867191Y-129714726D01*
X163852067Y-129689836D01*
X163837542Y-129686893D01*
X163803616Y-129715205D01*
X163777126Y-129793267D01*
X163760584Y-129910770D01*
X163756207Y-130020839D01*
X163628024Y-130020839D01*
X163624580Y-129983778D01*
X163613831Y-129861252D01*
X163606802Y-129743388D01*
X163605223Y-129682473D01*
X163599449Y-129604916D01*
X163588440Y-129588518D01*
X166599164Y-129588518D01*
X166609047Y-129607364D01*
X166656948Y-129626949D01*
X166698817Y-129608941D01*
X166708663Y-129581437D01*
X166685456Y-129541470D01*
X166665245Y-129536241D01*
X166615927Y-129552921D01*
X166599164Y-129588518D01*
X163588440Y-129588518D01*
X163577077Y-129571594D01*
X163547896Y-129566371D01*
X163512633Y-129579650D01*
X163480499Y-129626434D01*
X163445480Y-129717147D01*
X163426841Y-129776186D01*
X163379788Y-129935662D01*
X163351264Y-130046384D01*
X163340195Y-130116578D01*
X163050639Y-130116578D01*
X163053125Y-130105380D01*
X163064405Y-130024851D01*
X163076297Y-129918181D01*
X163077013Y-129910971D01*
X163097989Y-129698157D01*
X162968324Y-129700058D01*
X162879741Y-129707968D01*
X162828843Y-129735053D01*
X162800558Y-129777285D01*
X162772923Y-129869705D01*
X162762241Y-129984812D01*
X162646824Y-129984812D01*
X162654614Y-129916721D01*
X162655752Y-129905339D01*
X162665152Y-129790490D01*
X162664406Y-129723598D01*
X162652307Y-129693025D01*
X162633135Y-129686893D01*
X162602183Y-129715086D01*
X162576489Y-129792042D01*
X162558531Y-129906328D01*
X162550784Y-130046511D01*
X162550656Y-130067730D01*
X162310061Y-130067730D01*
X162312355Y-130059303D01*
X162322258Y-129988402D01*
X162336734Y-129885918D01*
X162355630Y-129828151D01*
X162386274Y-129799625D01*
X162416541Y-129789288D01*
X162480414Y-129760462D01*
X162490883Y-129727946D01*
X162452856Y-129703256D01*
X162377405Y-129697464D01*
X162310076Y-129704713D01*
X162274150Y-129726176D01*
X162255859Y-129778057D01*
X162244458Y-129853939D01*
X162227390Y-130000439D01*
X162223142Y-130096212D01*
X162048700Y-130096212D01*
X162042375Y-130087435D01*
X161993242Y-130078590D01*
X161934174Y-130064466D01*
X161917915Y-130018329D01*
X161929712Y-129976795D01*
X161975764Y-129960037D01*
X162023372Y-129958068D01*
X162094597Y-129952537D01*
X162123771Y-129927227D01*
X162128829Y-129880761D01*
X162110404Y-129773048D01*
X162061677Y-129707575D01*
X161992470Y-129689787D01*
X161912605Y-129725127D01*
X161887785Y-129747154D01*
X161850244Y-129815442D01*
X161829522Y-129913378D01*
X161827123Y-130016919D01*
X161692602Y-130016919D01*
X161706086Y-129915253D01*
X161720742Y-129811536D01*
X161724758Y-129784817D01*
X161727955Y-129713795D01*
X161705480Y-129687696D01*
X161696655Y-129686893D01*
X161673911Y-129694160D01*
X161655558Y-129722487D01*
X161638794Y-129781659D01*
X161620819Y-129881463D01*
X161599645Y-130025861D01*
X161590729Y-130113773D01*
X161456999Y-130113773D01*
X161465061Y-130090363D01*
X161481519Y-129978837D01*
X161482073Y-129973717D01*
X161493327Y-129842303D01*
X161489300Y-129759761D01*
X161464514Y-129715503D01*
X161413490Y-129698942D01*
X161339906Y-129699002D01*
X161209849Y-129705602D01*
X161189891Y-129854433D01*
X161172800Y-130000169D01*
X161168464Y-130095399D01*
X160993547Y-130095399D01*
X160987808Y-130087435D01*
X160938675Y-130078590D01*
X160879775Y-130064006D01*
X160863348Y-130036617D01*
X160890559Y-129989664D01*
X160963193Y-129962280D01*
X161016465Y-129958068D01*
X161061735Y-129939584D01*
X161074262Y-129880761D01*
X161055837Y-129773048D01*
X161007110Y-129707575D01*
X160937903Y-129689787D01*
X160858038Y-129725127D01*
X160833218Y-129747154D01*
X160795677Y-129815442D01*
X160774955Y-129913378D01*
X160772556Y-130016919D01*
X160644828Y-130016919D01*
X160649011Y-129980750D01*
X160663579Y-129865834D01*
X160672297Y-129803991D01*
X160688953Y-129695111D01*
X160563240Y-129695111D01*
X160458801Y-129710664D01*
X160392656Y-129761676D01*
X160360288Y-129854670D01*
X160356993Y-129992990D01*
X160364336Y-130086021D01*
X160378359Y-130133693D01*
X160407757Y-130150875D01*
X160450331Y-130152629D01*
X160510676Y-130160277D01*
X160527281Y-130193823D01*
X160525658Y-130212890D01*
X160492747Y-130265936D01*
X160433989Y-130283972D01*
X160365515Y-130302984D01*
X160354337Y-130336935D01*
X157896003Y-130336935D01*
X157891522Y-130261832D01*
X157863297Y-130153916D01*
X158121474Y-130153916D01*
X158136539Y-130168981D01*
X158151605Y-130153916D01*
X158136539Y-130138851D01*
X158121474Y-130153916D01*
X157863297Y-130153916D01*
X157839655Y-130063524D01*
X158181735Y-130063524D01*
X158196800Y-130078590D01*
X158200048Y-130075342D01*
X159692630Y-130075342D01*
X159694478Y-130137643D01*
X159708497Y-130164623D01*
X159726524Y-130168981D01*
X159763075Y-130140805D01*
X159766748Y-130127679D01*
X159904646Y-130127679D01*
X159917188Y-130162924D01*
X159940355Y-130168981D01*
X159980032Y-130140910D01*
X160002841Y-130071057D01*
X160017281Y-129969109D01*
X160026804Y-129882999D01*
X160050944Y-129806754D01*
X160091858Y-129782024D01*
X160121958Y-129781195D01*
X160137220Y-129801599D01*
X160140367Y-129855680D01*
X160134121Y-129955886D01*
X160132991Y-129970082D01*
X160126894Y-130081334D01*
X160131819Y-130143678D01*
X160149062Y-130167675D01*
X160157386Y-130168981D01*
X160178326Y-130161211D01*
X160195442Y-130131033D01*
X160211707Y-130068145D01*
X160230094Y-129962244D01*
X160244223Y-129867997D01*
X160241224Y-129772156D01*
X160195200Y-129716188D01*
X160101836Y-129695465D01*
X160083049Y-129695111D01*
X160005526Y-129698944D01*
X159968201Y-129721815D01*
X159951041Y-129780777D01*
X159946323Y-129811524D01*
X159929741Y-129924764D01*
X159912604Y-130041559D01*
X159911590Y-130048459D01*
X159904646Y-130127679D01*
X159766748Y-130127679D01*
X159787014Y-130055252D01*
X159789092Y-130040926D01*
X159812640Y-129861440D01*
X159827299Y-129733205D01*
X159833271Y-129647901D01*
X159830756Y-129597208D01*
X159823776Y-129581437D01*
X161646741Y-129581437D01*
X161667660Y-129615283D01*
X161710044Y-129618593D01*
X161716405Y-129613366D01*
X162619438Y-129613366D01*
X162642852Y-129625117D01*
X162677706Y-129595825D01*
X162702054Y-129549345D01*
X162723691Y-129488173D01*
X162731439Y-129458953D01*
X162709202Y-129445978D01*
X162666849Y-129449721D01*
X162640917Y-129466361D01*
X162640636Y-129468447D01*
X162633200Y-129512878D01*
X162622056Y-129558839D01*
X162619438Y-129613366D01*
X161716405Y-129613366D01*
X161743334Y-129591237D01*
X161746257Y-129581849D01*
X161726815Y-129552089D01*
X161699469Y-129541977D01*
X161654660Y-129553728D01*
X161646741Y-129581437D01*
X159823776Y-129581437D01*
X159819956Y-129572806D01*
X159801070Y-129566374D01*
X159800541Y-129566371D01*
X159774977Y-129575840D01*
X159754617Y-129610017D01*
X159737313Y-129677557D01*
X159720919Y-129787115D01*
X159703285Y-129947346D01*
X159701459Y-129965600D01*
X159692630Y-130075342D01*
X158200048Y-130075342D01*
X158211866Y-130063524D01*
X158196800Y-130048459D01*
X158181735Y-130063524D01*
X157839655Y-130063524D01*
X157838226Y-130058062D01*
X157821492Y-130016367D01*
X158219253Y-130016367D01*
X158223374Y-130018329D01*
X158250871Y-129997117D01*
X158257061Y-129988198D01*
X158264739Y-129960029D01*
X158260618Y-129958068D01*
X158233121Y-129979279D01*
X158226931Y-129988198D01*
X158219253Y-130016367D01*
X157821492Y-130016367D01*
X157779954Y-129912872D01*
X157820169Y-129912872D01*
X157835234Y-129927937D01*
X157850300Y-129912872D01*
X158272127Y-129912872D01*
X158287192Y-129927937D01*
X158302257Y-129912872D01*
X158287192Y-129897807D01*
X158272127Y-129912872D01*
X157850300Y-129912872D01*
X157835234Y-129897807D01*
X157820169Y-129912872D01*
X157779954Y-129912872D01*
X157743675Y-129822480D01*
X157940691Y-129822480D01*
X157955756Y-129837546D01*
X157970822Y-129822480D01*
X157955756Y-129807415D01*
X157940691Y-129822480D01*
X157743675Y-129822480D01*
X157742282Y-129819009D01*
X157715974Y-129762219D01*
X158362518Y-129762219D01*
X158377583Y-129777285D01*
X158392648Y-129762219D01*
X158377583Y-129747154D01*
X158362518Y-129762219D01*
X157715974Y-129762219D01*
X157713945Y-129757839D01*
X157701763Y-129732089D01*
X158000952Y-129732089D01*
X158016017Y-129747154D01*
X158031083Y-129732089D01*
X158016017Y-129717024D01*
X158000952Y-129732089D01*
X157701763Y-129732089D01*
X157637621Y-129596502D01*
X156900307Y-129596502D01*
X156696701Y-129597490D01*
X156514640Y-129600267D01*
X156362278Y-129604554D01*
X156247770Y-129610070D01*
X156179270Y-129616535D01*
X156162992Y-129621822D01*
X156176614Y-129656583D01*
X156213795Y-129733155D01*
X156269014Y-129840570D01*
X156336749Y-129967859D01*
X156343701Y-129980710D01*
X156524409Y-130314279D01*
X156343701Y-130618613D01*
X156273117Y-130738054D01*
X156215434Y-130836742D01*
X156176700Y-130904260D01*
X156162950Y-130930128D01*
X155418044Y-130930128D01*
X155450406Y-130898334D01*
X155576889Y-130774352D01*
X155698048Y-130656088D01*
X155802883Y-130554246D01*
X155880395Y-130479529D01*
X155902058Y-130458903D01*
X156017755Y-130349529D01*
X155896646Y-130206527D01*
X155832067Y-130134422D01*
X155735418Y-130031721D01*
X155617745Y-129909929D01*
X155490094Y-129780550D01*
X155431794Y-129722379D01*
X155088051Y-129381234D01*
X155097703Y-129534064D01*
X155107354Y-129686893D01*
X154603204Y-129690463D01*
X154433187Y-129691392D01*
X154283216Y-129691693D01*
X154164114Y-129691385D01*
X154086708Y-129690488D01*
X154062935Y-129689497D01*
X154038059Y-129709164D01*
X153795057Y-129709164D01*
X153793580Y-129701958D01*
X153772194Y-129662314D01*
X153764395Y-129656763D01*
X153753862Y-129681367D01*
X153752554Y-129701958D01*
X152818509Y-129701958D01*
X152818509Y-129599557D01*
X153309132Y-129599557D01*
X153315454Y-129629748D01*
X153317599Y-129635464D01*
X153341468Y-129672360D01*
X153355038Y-129672625D01*
X153351658Y-129640751D01*
X153334466Y-129618597D01*
X153309132Y-129599557D01*
X152818509Y-129599557D01*
X152818509Y-129047899D01*
X153060998Y-129047899D01*
X153064973Y-129106923D01*
X153080980Y-129163168D01*
X153106781Y-129222824D01*
X153119630Y-129249622D01*
X153177237Y-129345815D01*
X153244784Y-129427704D01*
X153272789Y-129452331D01*
X153326388Y-129498831D01*
X153347613Y-129531434D01*
X153346821Y-129534576D01*
X153360765Y-129552467D01*
X153385667Y-129557432D01*
X153438634Y-129565025D01*
X153531770Y-129581396D01*
X153646215Y-129603207D01*
X153662162Y-129606365D01*
X153794859Y-129629401D01*
X153925301Y-129646535D01*
X154025005Y-129654043D01*
X154161869Y-129656763D01*
X154525559Y-129016490D01*
X154820312Y-128497579D01*
X155151720Y-128497579D01*
X155153857Y-128681826D01*
X155201171Y-128860495D01*
X155294759Y-129023521D01*
X155435717Y-129160839D01*
X155436253Y-129161232D01*
X155624014Y-129264388D01*
X155822908Y-129309016D01*
X156028057Y-129294681D01*
X156215018Y-129230527D01*
X156374032Y-129123897D01*
X156494339Y-128980157D01*
X156514234Y-128937515D01*
X156919397Y-128937515D01*
X157059361Y-128855492D01*
X157138028Y-128814864D01*
X157192903Y-128796807D01*
X157208742Y-128800821D01*
X157242285Y-128875631D01*
X157291391Y-128960442D01*
X157345769Y-129040430D01*
X157395132Y-129100771D01*
X157429193Y-129126643D01*
X157434329Y-129125860D01*
X157453734Y-129123588D01*
X157446962Y-129139004D01*
X157442424Y-129174450D01*
X157461442Y-129235830D01*
X157507089Y-129329938D01*
X157582438Y-129463566D01*
X157630162Y-129543912D01*
X157734309Y-129717301D01*
X157784223Y-129656763D01*
X158100945Y-129656763D01*
X158122841Y-129634176D01*
X158173421Y-129572588D01*
X158245280Y-129481258D01*
X158331013Y-129369445D01*
X158335904Y-129362990D01*
X158423306Y-129249106D01*
X158498439Y-129154073D01*
X158504310Y-129146982D01*
X161285175Y-129146982D01*
X161533752Y-129138230D01*
X161656227Y-129132731D01*
X161730974Y-129124356D01*
X161770520Y-129109391D01*
X161787393Y-129084122D01*
X161791956Y-129061686D01*
X161792756Y-129023063D01*
X161771896Y-129002804D01*
X161715694Y-128995043D01*
X161633771Y-128993892D01*
X161465958Y-128993892D01*
X161465958Y-128888435D01*
X161465958Y-128782979D01*
X161616611Y-128782979D01*
X161706021Y-128780536D01*
X161750626Y-128768073D01*
X161765836Y-128737883D01*
X161767263Y-128707652D01*
X161765637Y-128692587D01*
X161963051Y-128692587D01*
X161963764Y-128843916D01*
X161965761Y-128973454D01*
X161968755Y-129069331D01*
X161972460Y-129119675D01*
X161973427Y-129123670D01*
X162007514Y-129139363D01*
X162048813Y-129138735D01*
X162089453Y-129122999D01*
X162112984Y-129080189D01*
X162127196Y-128994765D01*
X162128829Y-128979088D01*
X162148758Y-128871199D01*
X162181446Y-128821739D01*
X162227451Y-128830706D01*
X162287329Y-128898094D01*
X162336281Y-128977334D01*
X162397829Y-129075823D01*
X162448094Y-129128141D01*
X162497104Y-129144484D01*
X162500696Y-129144544D01*
X162565596Y-129137200D01*
X162587499Y-129109424D01*
X162567364Y-129052602D01*
X162519336Y-128977098D01*
X162468858Y-128900133D01*
X162436523Y-128843917D01*
X162430134Y-128827082D01*
X162451416Y-128796190D01*
X162502885Y-128749502D01*
X162505460Y-128747465D01*
X162556261Y-128692835D01*
X162577806Y-128620266D01*
X162578561Y-128603692D01*
X162821830Y-128603692D01*
X162825330Y-128795236D01*
X162839102Y-128934939D01*
X162868050Y-129030982D01*
X162917081Y-129091547D01*
X162991099Y-129124813D01*
X163095012Y-129138964D01*
X163144053Y-129141049D01*
X163257000Y-129128902D01*
X163347158Y-129078399D01*
X163354660Y-129072090D01*
X163391033Y-129038153D01*
X163415527Y-129002410D01*
X163430999Y-128952323D01*
X163440308Y-128875352D01*
X163446312Y-128758958D01*
X163449659Y-128660113D01*
X163937263Y-128660113D01*
X163941449Y-128796343D01*
X163958309Y-128918915D01*
X163983431Y-128996943D01*
X164035533Y-129068259D01*
X164095738Y-129113780D01*
X164096421Y-129114059D01*
X164196875Y-129136347D01*
X164323034Y-129141216D01*
X164442901Y-129128618D01*
X164493492Y-129114634D01*
X164535092Y-129095175D01*
X164557785Y-129066509D01*
X164566177Y-129013223D01*
X164564871Y-128919904D01*
X164563247Y-128881123D01*
X164560832Y-128825974D01*
X164754752Y-128825974D01*
X164755322Y-128956011D01*
X164758260Y-129053199D01*
X164763346Y-129104696D01*
X164764167Y-129107401D01*
X164802576Y-129136188D01*
X164847970Y-129139125D01*
X164878972Y-129131259D01*
X164899280Y-129110694D01*
X164911709Y-129066098D01*
X164919072Y-128986140D01*
X164924180Y-128859488D01*
X164925160Y-128828174D01*
X164934422Y-128526869D01*
X165063486Y-128828174D01*
X165120854Y-128960493D01*
X165162416Y-129047358D01*
X165195893Y-129098792D01*
X165229007Y-129124820D01*
X165269479Y-129135463D01*
X165302801Y-129138831D01*
X165413052Y-129148182D01*
X165413052Y-128729558D01*
X165411904Y-128576792D01*
X165408756Y-128446504D01*
X165404047Y-128350103D01*
X165399473Y-128310003D01*
X165563704Y-128310003D01*
X165571742Y-128354101D01*
X165593248Y-128441892D01*
X165624311Y-128559457D01*
X165661019Y-128692880D01*
X165699461Y-128828243D01*
X165735725Y-128951628D01*
X165765900Y-129049117D01*
X165786073Y-129106792D01*
X165789862Y-129114704D01*
X165832994Y-129137513D01*
X165903421Y-129143600D01*
X165970598Y-129133141D01*
X166001183Y-129113465D01*
X166020236Y-129067688D01*
X166049031Y-128980908D01*
X166084055Y-128865786D01*
X166121795Y-128734986D01*
X166158740Y-128601170D01*
X166191377Y-128477000D01*
X166216194Y-128375138D01*
X166229679Y-128308248D01*
X166230015Y-128288459D01*
X166188617Y-128281544D01*
X166137294Y-128281678D01*
X166103822Y-128287583D01*
X166078132Y-128307831D01*
X166055564Y-128352748D01*
X166031461Y-128432660D01*
X166001164Y-128557891D01*
X165989284Y-128609728D01*
X165958007Y-128739917D01*
X165929656Y-128845119D01*
X165907640Y-128913440D01*
X165896433Y-128933631D01*
X165882296Y-128906256D01*
X165860542Y-128832999D01*
X165834903Y-128727162D01*
X165822813Y-128671109D01*
X165788007Y-128509520D01*
X165759664Y-128398093D01*
X165733600Y-128327674D01*
X165705630Y-128289113D01*
X165671570Y-128273257D01*
X165639776Y-128270760D01*
X165582361Y-128284098D01*
X165563704Y-128310003D01*
X165399473Y-128310003D01*
X165398218Y-128298997D01*
X165396242Y-128294124D01*
X165356976Y-128287105D01*
X165318943Y-128293133D01*
X165290771Y-128305039D01*
X165273692Y-128330726D01*
X165265664Y-128382132D01*
X165264645Y-128471196D01*
X165267959Y-128591228D01*
X165270546Y-128713234D01*
X165269674Y-128808695D01*
X165265617Y-128864455D01*
X165262069Y-128873438D01*
X165244650Y-128847522D01*
X165209259Y-128777336D01*
X165161342Y-128674137D01*
X165115515Y-128570451D01*
X164984355Y-128267532D01*
X164874801Y-128276679D01*
X164765246Y-128285826D01*
X164756769Y-128675928D01*
X164754752Y-128825974D01*
X164560832Y-128825974D01*
X164554333Y-128677522D01*
X164411213Y-128668338D01*
X164324067Y-128665890D01*
X164281534Y-128676701D01*
X164268510Y-128705964D01*
X164268093Y-128717553D01*
X164293882Y-128772663D01*
X164328354Y-128791709D01*
X164374434Y-128824147D01*
X164388600Y-128897172D01*
X164388615Y-128900680D01*
X164382915Y-128963483D01*
X164353547Y-128989076D01*
X164284219Y-128993892D01*
X164205708Y-128982261D01*
X164155242Y-128941226D01*
X164127648Y-128861570D01*
X164117756Y-128734080D01*
X164117441Y-128696720D01*
X164125721Y-128562236D01*
X164156056Y-128477927D01*
X164216686Y-128435313D01*
X164315855Y-128425914D01*
X164376285Y-128430368D01*
X164468391Y-128437665D01*
X164517151Y-128431470D01*
X164538911Y-128406573D01*
X164546677Y-128376033D01*
X164543994Y-128324690D01*
X164506542Y-128292524D01*
X164425858Y-128275893D01*
X164302873Y-128271172D01*
X164162174Y-128291792D01*
X164047038Y-128349454D01*
X163972415Y-128436460D01*
X163969356Y-128442875D01*
X163946362Y-128534274D01*
X163937263Y-128660113D01*
X163449659Y-128660113D01*
X163449853Y-128654373D01*
X163460813Y-128309109D01*
X163383074Y-128294248D01*
X163319530Y-128288467D01*
X163289561Y-128295161D01*
X163282968Y-128330089D01*
X163277727Y-128411775D01*
X163274498Y-128526718D01*
X163273787Y-128618593D01*
X163270840Y-128778648D01*
X163259324Y-128887274D01*
X163235226Y-128953129D01*
X163194534Y-128984875D01*
X163133235Y-128991169D01*
X163102359Y-128988537D01*
X163017678Y-128978827D01*
X163009061Y-128648499D01*
X163003075Y-128491269D01*
X162992519Y-128384661D01*
X162973962Y-128319050D01*
X162943971Y-128284808D01*
X162899114Y-128272308D01*
X162874558Y-128271222D01*
X162851389Y-128276838D01*
X162836147Y-128300954D01*
X162827216Y-128353746D01*
X162822984Y-128445389D01*
X162821837Y-128586058D01*
X162821830Y-128603692D01*
X162578561Y-128603692D01*
X162580786Y-128554813D01*
X162564994Y-128434110D01*
X162514019Y-128349653D01*
X162422463Y-128298016D01*
X162284931Y-128275772D01*
X162142639Y-128276602D01*
X161963111Y-128285826D01*
X161963051Y-128692587D01*
X161765637Y-128692587D01*
X161762460Y-128663156D01*
X161737835Y-128640828D01*
X161678066Y-128633101D01*
X161614701Y-128632326D01*
X161462140Y-128632326D01*
X161471582Y-128534402D01*
X161480332Y-128476415D01*
X161502979Y-128447515D01*
X161556077Y-128437578D01*
X161631676Y-128436478D01*
X161721086Y-128434036D01*
X161765691Y-128421572D01*
X161780901Y-128391382D01*
X161782328Y-128361152D01*
X161779820Y-128324226D01*
X161764225Y-128301814D01*
X161723434Y-128290173D01*
X161645339Y-128285562D01*
X161533752Y-128284333D01*
X161285175Y-128282840D01*
X161285175Y-128714911D01*
X161285175Y-129146982D01*
X158504310Y-129146982D01*
X158513766Y-129135560D01*
X160531913Y-129135560D01*
X160614772Y-129132520D01*
X160668125Y-129124202D01*
X160694194Y-129092950D01*
X160705453Y-129021483D01*
X160706713Y-129005169D01*
X160715136Y-128928963D01*
X160737199Y-128890500D01*
X160790132Y-128873337D01*
X160853208Y-128865369D01*
X160984060Y-128834195D01*
X161066828Y-128771090D01*
X161089472Y-128714911D01*
X161108154Y-128668561D01*
X161115981Y-128568863D01*
X161110760Y-128468402D01*
X161089218Y-128403565D01*
X161042533Y-128350183D01*
X161033180Y-128341983D01*
X160977503Y-128302565D01*
X160913259Y-128280810D01*
X160820772Y-128271918D01*
X160741146Y-128270760D01*
X160531913Y-128270760D01*
X160531913Y-128703160D01*
X160531913Y-129135560D01*
X158513766Y-129135560D01*
X158553478Y-129087591D01*
X158580600Y-129059358D01*
X158580964Y-129059175D01*
X158601962Y-129024477D01*
X158603562Y-129008957D01*
X158625382Y-128964381D01*
X158638212Y-128957233D01*
X158662120Y-128924006D01*
X158659880Y-128906737D01*
X158638592Y-128911950D01*
X158592538Y-128958697D01*
X158529905Y-129038060D01*
X158497175Y-129083939D01*
X158425601Y-129186128D01*
X158364438Y-129271388D01*
X158323691Y-129325848D01*
X158315890Y-129335305D01*
X158278312Y-129382796D01*
X158228069Y-129452954D01*
X158175394Y-129530470D01*
X158130523Y-129600041D01*
X158103690Y-129646359D01*
X158100945Y-129656763D01*
X157784223Y-129656763D01*
X157840006Y-129589108D01*
X157924113Y-129487963D01*
X158018300Y-129375921D01*
X158061213Y-129325327D01*
X158150053Y-129219223D01*
X158244279Y-129103993D01*
X158284199Y-129054153D01*
X158355904Y-128965452D01*
X158422449Y-128886008D01*
X158452423Y-128851849D01*
X158496017Y-128795209D01*
X158513170Y-128756436D01*
X158536832Y-128721414D01*
X158548209Y-128716060D01*
X158551124Y-128703160D01*
X158555294Y-128684703D01*
X158534698Y-128612144D01*
X158490594Y-128508337D01*
X158427152Y-128383237D01*
X158358351Y-128262961D01*
X158290107Y-128149705D01*
X158390164Y-128066174D01*
X158490221Y-127982643D01*
X157921684Y-127820807D01*
X157744534Y-127770255D01*
X157586428Y-127724897D01*
X157456835Y-127687469D01*
X157365222Y-127660708D01*
X157321057Y-127647348D01*
X157319484Y-127646808D01*
X157298386Y-127669963D01*
X157265750Y-127746409D01*
X157223553Y-127870708D01*
X157173773Y-128037424D01*
X157161581Y-128080756D01*
X157112602Y-128256193D01*
X157063862Y-128430001D01*
X157020151Y-128585159D01*
X156986256Y-128704641D01*
X156978370Y-128732192D01*
X156919397Y-128937515D01*
X156514234Y-128937515D01*
X156573619Y-128810233D01*
X156609554Y-128625048D01*
X156599824Y-128435527D01*
X156542110Y-128252595D01*
X156452956Y-128109649D01*
X156419548Y-128074649D01*
X156385916Y-128071867D01*
X156328441Y-128101125D01*
X156315716Y-128108612D01*
X156253723Y-128157113D01*
X156223385Y-128204134D01*
X156222792Y-128209463D01*
X156215573Y-128239099D01*
X156198572Y-128222134D01*
X156177067Y-128170312D01*
X156156339Y-128095380D01*
X156145385Y-128037249D01*
X156124354Y-127954145D01*
X156095639Y-127911727D01*
X156086756Y-127909195D01*
X156040603Y-127885391D01*
X156032210Y-127871531D01*
X156011080Y-127852191D01*
X155982210Y-127879064D01*
X155950126Y-127906421D01*
X155932209Y-127886597D01*
X155891244Y-127858528D01*
X155811184Y-127850979D01*
X155709248Y-127863016D01*
X155602654Y-127893703D01*
X155573013Y-127906101D01*
X155405407Y-128012015D01*
X155278592Y-128152609D01*
X155193664Y-128317819D01*
X155151720Y-128497579D01*
X154820312Y-128497579D01*
X154889248Y-128376217D01*
X154539347Y-128357705D01*
X154396299Y-128350010D01*
X154272557Y-128343120D01*
X154182212Y-128337833D01*
X154141085Y-128335107D01*
X154106058Y-128308117D01*
X154050925Y-128237765D01*
X153983145Y-128134274D01*
X153934838Y-128052314D01*
X153867828Y-127935378D01*
X153810579Y-127837974D01*
X153770246Y-127772131D01*
X153755420Y-127750716D01*
X153733217Y-127766184D01*
X153688661Y-127825214D01*
X153628211Y-127918438D01*
X153558323Y-128036489D01*
X153558058Y-128036956D01*
X153415146Y-128288754D01*
X153299932Y-128494443D01*
X153210178Y-128660213D01*
X153143645Y-128792253D01*
X153098096Y-128896755D01*
X153071293Y-128979907D01*
X153060998Y-129047899D01*
X152818509Y-129047899D01*
X152818509Y-128557000D01*
X152818509Y-126732029D01*
X154022059Y-126732029D01*
X154042197Y-126815926D01*
X154057558Y-126875267D01*
X154085566Y-126979199D01*
X154122566Y-127114302D01*
X154164899Y-127267154D01*
X154175892Y-127306585D01*
X154220406Y-127466469D01*
X154261957Y-127616498D01*
X154296391Y-127741618D01*
X154319554Y-127826777D01*
X154322470Y-127837695D01*
X154355490Y-127962043D01*
X154965353Y-127785005D01*
X155148511Y-127731769D01*
X155312557Y-127683961D01*
X155448487Y-127644215D01*
X155547291Y-127615168D01*
X155599963Y-127599454D01*
X155605463Y-127597720D01*
X155603004Y-127578926D01*
X155558140Y-127545749D01*
X155545318Y-127538523D01*
X155472984Y-127499014D01*
X155427258Y-127465847D01*
X155408220Y-127427976D01*
X155415953Y-127374356D01*
X155450538Y-127293943D01*
X155512057Y-127175692D01*
X155548509Y-127107269D01*
X155617246Y-126980737D01*
X155677364Y-126875165D01*
X155722601Y-126801202D01*
X155746694Y-126769500D01*
X155747278Y-126769195D01*
X155758593Y-126740174D01*
X155754640Y-126731532D01*
X155759591Y-126705663D01*
X155769518Y-126703975D01*
X155797512Y-126679476D01*
X155801427Y-126657001D01*
X155786973Y-126625706D01*
X155771641Y-126628436D01*
X155754673Y-126623516D01*
X155760361Y-126598620D01*
X155767865Y-126580937D01*
X155777022Y-126572267D01*
X155791418Y-126577623D01*
X155814639Y-126602020D01*
X155850272Y-126650474D01*
X155901903Y-126727998D01*
X155973119Y-126839608D01*
X156067505Y-126990317D01*
X156188649Y-127185141D01*
X156246753Y-127278723D01*
X156631655Y-127898667D01*
X156816106Y-127577394D01*
X158888297Y-127577394D01*
X158910834Y-127709921D01*
X158954681Y-127826842D01*
X159014025Y-127906662D01*
X159016826Y-127908926D01*
X159107373Y-127950402D01*
X159230328Y-127969413D01*
X159361532Y-127964263D01*
X159460319Y-127940071D01*
X159500849Y-127920481D01*
X159524008Y-127890322D01*
X159534623Y-127834539D01*
X159537521Y-127738077D01*
X159537607Y-127699027D01*
X159537607Y-127487368D01*
X159386955Y-127487368D01*
X159296329Y-127490680D01*
X159251150Y-127504386D01*
X159236792Y-127534139D01*
X159236302Y-127545598D01*
X159261558Y-127600940D01*
X159296563Y-127622955D01*
X159344639Y-127662545D01*
X159356824Y-127730442D01*
X159350639Y-127790050D01*
X159319887Y-127814338D01*
X159252427Y-127818803D01*
X159173124Y-127806816D01*
X159122461Y-127764759D01*
X159095228Y-127683485D01*
X159086209Y-127553848D01*
X159086111Y-127527012D01*
X159090917Y-127399553D01*
X159111236Y-127321015D01*
X159157150Y-127280304D01*
X159238740Y-127266325D01*
X159322822Y-127266514D01*
X159424735Y-127266823D01*
X159481747Y-127257505D01*
X159508976Y-127234320D01*
X159517318Y-127211943D01*
X159517184Y-127208661D01*
X159735607Y-127208661D01*
X159736928Y-127265280D01*
X159738864Y-127366953D01*
X159741138Y-127498479D01*
X159743140Y-127622955D01*
X159748520Y-127969455D01*
X159823847Y-127969455D01*
X159868552Y-127964571D01*
X159890854Y-127939644D01*
X159898459Y-127879263D01*
X159899173Y-127818803D01*
X159901821Y-127729200D01*
X159914516Y-127684492D01*
X159944381Y-127669385D01*
X159969349Y-127668151D01*
X160018620Y-127681545D01*
X160062695Y-127729657D01*
X160110086Y-127818803D01*
X160154733Y-127906255D01*
X160192986Y-127951309D01*
X160240406Y-127967686D01*
X160280954Y-127969455D01*
X160592174Y-127969455D01*
X160833218Y-127969455D01*
X161255045Y-127969455D01*
X161511154Y-127969455D01*
X161635174Y-127968764D01*
X161710864Y-127964350D01*
X161750155Y-127952704D01*
X161764978Y-127930317D01*
X161767263Y-127894129D01*
X161762961Y-127850988D01*
X161740225Y-127828525D01*
X161684308Y-127820037D01*
X161601545Y-127818803D01*
X161435828Y-127818803D01*
X161435828Y-127713346D01*
X161435828Y-127607890D01*
X161586480Y-127607890D01*
X161675891Y-127605447D01*
X161720496Y-127592984D01*
X161735705Y-127562794D01*
X161737132Y-127532563D01*
X161735870Y-127521008D01*
X161922741Y-127521008D01*
X161923071Y-127670800D01*
X161925468Y-127798814D01*
X161929552Y-127893009D01*
X161934943Y-127941341D01*
X161936116Y-127944397D01*
X161974801Y-127963345D01*
X162029256Y-127969455D01*
X162106909Y-127969455D01*
X162091937Y-127683216D01*
X162087365Y-127560337D01*
X162087307Y-127463862D01*
X162091577Y-127406837D01*
X162096009Y-127396976D01*
X162115235Y-127422797D01*
X162151894Y-127492431D01*
X162200072Y-127594139D01*
X162236418Y-127675683D01*
X162292229Y-127801951D01*
X162332704Y-127883260D01*
X162366268Y-127930031D01*
X162401345Y-127952684D01*
X162446359Y-127961639D01*
X162469285Y-127963742D01*
X162580786Y-127973093D01*
X162580786Y-127969455D01*
X163093004Y-127969455D01*
X163349113Y-127969455D01*
X163786006Y-127969455D01*
X163861332Y-127969455D01*
X163936658Y-127969455D01*
X163936804Y-127660618D01*
X163936950Y-127351781D01*
X164072391Y-127652126D01*
X164127099Y-127774171D01*
X164171219Y-127873980D01*
X164199697Y-127940030D01*
X164207832Y-127960963D01*
X164234598Y-127966284D01*
X164301452Y-127969241D01*
X164328354Y-127969455D01*
X164448876Y-127969455D01*
X164659790Y-127969455D01*
X164900834Y-127969455D01*
X165020398Y-127968613D01*
X165091992Y-127963578D01*
X165127909Y-127950592D01*
X165140436Y-127925892D01*
X165141877Y-127895704D01*
X165136439Y-127852303D01*
X165110139Y-127828811D01*
X165047998Y-127817383D01*
X164983692Y-127812845D01*
X164891694Y-127805583D01*
X164844762Y-127791214D01*
X164827752Y-127760213D01*
X164825507Y-127713346D01*
X164829592Y-127658540D01*
X164852442Y-127630527D01*
X164909956Y-127618247D01*
X164968627Y-127613771D01*
X165055508Y-127604984D01*
X165097767Y-127587269D01*
X165111046Y-127551570D01*
X165111106Y-127549797D01*
X165322660Y-127549797D01*
X165322660Y-127969455D01*
X165413052Y-127969455D01*
X165466561Y-127966164D01*
X165493245Y-127945927D01*
X165502428Y-127893199D01*
X165503443Y-127818803D01*
X165506615Y-127728442D01*
X165520081Y-127683376D01*
X165549764Y-127668796D01*
X165563713Y-127668151D01*
X165618834Y-127694379D01*
X165681696Y-127775235D01*
X165706833Y-127818369D01*
X165758813Y-127905203D01*
X165801881Y-127950398D01*
X165852123Y-127967146D01*
X165890566Y-127969021D01*
X165991449Y-127969455D01*
X165926603Y-127871531D01*
X165859548Y-127766467D01*
X165825259Y-127696088D01*
X165821406Y-127646092D01*
X165845656Y-127602180D01*
X165877180Y-127568327D01*
X165889522Y-127550910D01*
X166139313Y-127550910D01*
X166157875Y-127697658D01*
X166201979Y-127826466D01*
X166269090Y-127919116D01*
X166279623Y-127927746D01*
X166342521Y-127951232D01*
X166442567Y-127964966D01*
X166557257Y-127967734D01*
X166664086Y-127958323D01*
X166701130Y-127950465D01*
X166736054Y-127936193D01*
X166756379Y-127907484D01*
X166766003Y-127850505D01*
X166768822Y-127751425D01*
X166768924Y-127709832D01*
X166768924Y-127487368D01*
X166632391Y-127487368D01*
X166534665Y-127495512D01*
X166485005Y-127522070D01*
X166477348Y-127535604D01*
X166481910Y-127584460D01*
X166517154Y-127620678D01*
X166560715Y-127621283D01*
X166560730Y-127621274D01*
X166577556Y-127637059D01*
X166592216Y-127688070D01*
X166600294Y-127749315D01*
X166597375Y-127795802D01*
X166592991Y-127803909D01*
X166555566Y-127814056D01*
X166484437Y-127818762D01*
X166476917Y-127818803D01*
X166400637Y-127808589D01*
X166358138Y-127767789D01*
X166343723Y-127735944D01*
X166329132Y-127664872D01*
X166323345Y-127564817D01*
X166325670Y-127456256D01*
X166335412Y-127359667D01*
X166351881Y-127295527D01*
X166358988Y-127284651D01*
X166399384Y-127272405D01*
X166480971Y-127263986D01*
X166568024Y-127261419D01*
X166671021Y-127259315D01*
X166728346Y-127249782D01*
X166754533Y-127227928D01*
X166763209Y-127195714D01*
X166761257Y-127154724D01*
X166745047Y-127141536D01*
X166889446Y-127141536D01*
X166902110Y-127173723D01*
X166935982Y-127246490D01*
X166984882Y-127346739D01*
X167009968Y-127396976D01*
X167073819Y-127532521D01*
X167111069Y-127637833D01*
X167127774Y-127733321D01*
X167130490Y-127803069D01*
X167131990Y-127898048D01*
X167141854Y-127947571D01*
X167168122Y-127966438D01*
X167218837Y-127969455D01*
X167220881Y-127969455D01*
X167273254Y-127966485D01*
X167300081Y-127947506D01*
X167309905Y-127897414D01*
X167311272Y-127809677D01*
X167318577Y-127708855D01*
X167344254Y-127605837D01*
X167393954Y-127481457D01*
X167431794Y-127400674D01*
X167484601Y-127290173D01*
X167525647Y-127201796D01*
X167549059Y-127148319D01*
X167552316Y-127138626D01*
X167526162Y-127129469D01*
X167465599Y-127125802D01*
X167416046Y-127131376D01*
X167380432Y-127156738D01*
X167347694Y-127214847D01*
X167311272Y-127306585D01*
X167273765Y-127399566D01*
X167242221Y-127464812D01*
X167224587Y-127487368D01*
X167204785Y-127461557D01*
X167171755Y-127394125D01*
X167135409Y-127306585D01*
X167094431Y-127207798D01*
X167061116Y-127153334D01*
X167024198Y-127130305D01*
X166977377Y-127125802D01*
X166914931Y-127130486D01*
X166889446Y-127141536D01*
X166745047Y-127141536D01*
X166731184Y-127130257D01*
X166658990Y-127113230D01*
X166628719Y-127108469D01*
X166462133Y-127104573D01*
X166324023Y-127144279D01*
X166222387Y-127224533D01*
X166188959Y-127276454D01*
X166148829Y-127404436D01*
X166139313Y-127550910D01*
X165889522Y-127550910D01*
X165936562Y-127484525D01*
X165955299Y-127380216D01*
X165955401Y-127369389D01*
X165931538Y-127246833D01*
X165860376Y-127161144D01*
X165742550Y-127112676D01*
X165578696Y-127101778D01*
X165485250Y-127109824D01*
X165322660Y-127130138D01*
X165322660Y-127549797D01*
X165111106Y-127549797D01*
X165111747Y-127530913D01*
X165106712Y-127487377D01*
X165081414Y-127465523D01*
X165020566Y-127457972D01*
X164959093Y-127457237D01*
X164869411Y-127455405D01*
X164825547Y-127444335D01*
X164813061Y-127415670D01*
X164815973Y-127374378D01*
X164826423Y-127325687D01*
X164854002Y-127299622D01*
X164914780Y-127287372D01*
X164983692Y-127282412D01*
X165076109Y-127274556D01*
X165123247Y-127259580D01*
X165140085Y-127229638D01*
X165141877Y-127199553D01*
X165139124Y-127162971D01*
X165122669Y-127141065D01*
X165080463Y-127130138D01*
X165080224Y-127130076D01*
X164999497Y-127126243D01*
X164900834Y-127125802D01*
X164659790Y-127125802D01*
X164659790Y-127547629D01*
X164659790Y-127969455D01*
X164448876Y-127969455D01*
X164448876Y-127547629D01*
X164448876Y-127125802D01*
X164354891Y-127125802D01*
X164260905Y-127125802D01*
X164273425Y-127412041D01*
X164276922Y-127534950D01*
X164276092Y-127631437D01*
X164271244Y-127688447D01*
X164266674Y-127698281D01*
X164248100Y-127672164D01*
X164213222Y-127601664D01*
X164167591Y-127498553D01*
X164131723Y-127412041D01*
X164016042Y-127125802D01*
X163901024Y-127125802D01*
X163786006Y-127125802D01*
X163786006Y-127547629D01*
X163786006Y-127969455D01*
X163349113Y-127969455D01*
X163473133Y-127968764D01*
X163548824Y-127964350D01*
X163588115Y-127952704D01*
X163602937Y-127930317D01*
X163605223Y-127894129D01*
X163600921Y-127850988D01*
X163578185Y-127828525D01*
X163522268Y-127820037D01*
X163439505Y-127818803D01*
X163273787Y-127818803D01*
X163273787Y-127713346D01*
X163273787Y-127607890D01*
X163424440Y-127607890D01*
X163513850Y-127605447D01*
X163558455Y-127592984D01*
X163573665Y-127562794D01*
X163574381Y-127547629D01*
X163575092Y-127532563D01*
X163570208Y-127487858D01*
X163545281Y-127465556D01*
X163484900Y-127457951D01*
X163424440Y-127457237D01*
X163335257Y-127455262D01*
X163290785Y-127443120D01*
X163275479Y-127411483D01*
X163273787Y-127366846D01*
X163276570Y-127315170D01*
X163294806Y-127288274D01*
X163343329Y-127278065D01*
X163436971Y-127276454D01*
X163439505Y-127276454D01*
X163534415Y-127274499D01*
X163583834Y-127264164D01*
X163602508Y-127238747D01*
X163605223Y-127201128D01*
X163602871Y-127164652D01*
X163587863Y-127142390D01*
X163548267Y-127130834D01*
X163472153Y-127126474D01*
X163349113Y-127125802D01*
X163093004Y-127125802D01*
X163093004Y-127547629D01*
X163093004Y-127969455D01*
X162580786Y-127969455D01*
X162580786Y-127549448D01*
X162580786Y-127547629D01*
X162580786Y-127125802D01*
X162506551Y-127125802D01*
X162472410Y-127128088D01*
X162450357Y-127142378D01*
X162437239Y-127179824D01*
X162429902Y-127251575D01*
X162425190Y-127368781D01*
X162423692Y-127418697D01*
X162415068Y-127711591D01*
X162293449Y-127426229D01*
X162171829Y-127140867D01*
X162048341Y-127131772D01*
X161924853Y-127122676D01*
X161922741Y-127521008D01*
X161735870Y-127521008D01*
X161732248Y-127487858D01*
X161707321Y-127465556D01*
X161646940Y-127457951D01*
X161586480Y-127457237D01*
X161497297Y-127455262D01*
X161452825Y-127443120D01*
X161437519Y-127411483D01*
X161435828Y-127366846D01*
X161438610Y-127315170D01*
X161456847Y-127288274D01*
X161505370Y-127278065D01*
X161599011Y-127276454D01*
X161601545Y-127276454D01*
X161696455Y-127274499D01*
X161745874Y-127264164D01*
X161764548Y-127238747D01*
X161767263Y-127201128D01*
X161764911Y-127164652D01*
X161749903Y-127142390D01*
X161710307Y-127130834D01*
X161634193Y-127126474D01*
X161511154Y-127125802D01*
X161255045Y-127125802D01*
X161255045Y-127547629D01*
X161255045Y-127969455D01*
X160833218Y-127969455D01*
X160952782Y-127968613D01*
X161024377Y-127963578D01*
X161060293Y-127950592D01*
X161072820Y-127925892D01*
X161074262Y-127895704D01*
X161068823Y-127852303D01*
X161042523Y-127828811D01*
X160980382Y-127817383D01*
X160916077Y-127812845D01*
X160824078Y-127805583D01*
X160777147Y-127791214D01*
X160760137Y-127760213D01*
X160757892Y-127713346D01*
X160761976Y-127658540D01*
X160784826Y-127630527D01*
X160842340Y-127618247D01*
X160901011Y-127613771D01*
X160987989Y-127604897D01*
X161030290Y-127587074D01*
X161043497Y-127551460D01*
X161043626Y-127547629D01*
X161044131Y-127532563D01*
X161037587Y-127488372D01*
X161007564Y-127465158D01*
X160938479Y-127454079D01*
X160901011Y-127451355D01*
X160814216Y-127442651D01*
X160771993Y-127425031D01*
X160758654Y-127389232D01*
X160757892Y-127366846D01*
X160763080Y-127322572D01*
X160788651Y-127298670D01*
X160849615Y-127287126D01*
X160916077Y-127282412D01*
X161008493Y-127274556D01*
X161055631Y-127259580D01*
X161072469Y-127229638D01*
X161074262Y-127199553D01*
X161071508Y-127162971D01*
X161055054Y-127141065D01*
X161012608Y-127130076D01*
X160931881Y-127126243D01*
X160833218Y-127125802D01*
X160592174Y-127125802D01*
X160592174Y-127547629D01*
X160592174Y-127969455D01*
X160280954Y-127969455D01*
X160348631Y-127965761D01*
X160380830Y-127956736D01*
X160381261Y-127955437D01*
X160366427Y-127924375D01*
X160328155Y-127858934D01*
X160290869Y-127798885D01*
X160231713Y-127701042D01*
X160205669Y-127642710D01*
X160210324Y-127614721D01*
X160240582Y-127607890D01*
X160291696Y-127581039D01*
X160310262Y-127547629D01*
X160329922Y-127512250D01*
X160351390Y-127419168D01*
X160352228Y-127319437D01*
X160328564Y-127230701D01*
X160324915Y-127223510D01*
X160258574Y-127158800D01*
X160149586Y-127117572D01*
X160012199Y-127103440D01*
X159892781Y-127113842D01*
X159799396Y-127133018D01*
X159751892Y-127155166D01*
X159736142Y-127188809D01*
X159735607Y-127208661D01*
X159517184Y-127208661D01*
X159515265Y-127161724D01*
X159472887Y-127130115D01*
X159383313Y-127114205D01*
X159278527Y-127110822D01*
X159129233Y-127124009D01*
X159023357Y-127169096D01*
X158951825Y-127254077D01*
X158905568Y-127386950D01*
X158892886Y-127450755D01*
X158888297Y-127577394D01*
X156816106Y-127577394D01*
X156826681Y-127558975D01*
X156919333Y-127404722D01*
X156996731Y-127290393D01*
X157054986Y-127221408D01*
X157081970Y-127203084D01*
X157137369Y-127196017D01*
X157236330Y-127190418D01*
X157362155Y-127187071D01*
X157436006Y-127186474D01*
X157560760Y-127184942D01*
X157659206Y-127181150D01*
X157718425Y-127175743D01*
X157729778Y-127171809D01*
X157714842Y-127141547D01*
X157674986Y-127073057D01*
X157617637Y-126978952D01*
X157592300Y-126938298D01*
X157433027Y-126684229D01*
X157301794Y-126476291D01*
X157194238Y-126309806D01*
X157105998Y-126180098D01*
X157032711Y-126082487D01*
X156970017Y-126012296D01*
X156913554Y-125964847D01*
X156858959Y-125935462D01*
X156801872Y-125919463D01*
X156737930Y-125912173D01*
X156662772Y-125908913D01*
X156631457Y-125907800D01*
X156535042Y-125907535D01*
X156470651Y-125914000D01*
X156452303Y-125925552D01*
X156442689Y-125947279D01*
X156421516Y-125950713D01*
X156379372Y-125971059D01*
X156310016Y-126024891D01*
X156227092Y-126101400D01*
X156211175Y-126117357D01*
X156128561Y-126195226D01*
X156064995Y-126243384D01*
X156030098Y-126254747D01*
X156027674Y-126252453D01*
X155991302Y-126234308D01*
X155979636Y-126238543D01*
X155964708Y-126275122D01*
X155968735Y-126284722D01*
X156004989Y-126299856D01*
X156014422Y-126295927D01*
X156039942Y-126289280D01*
X156029779Y-126324164D01*
X155983041Y-126402974D01*
X155963140Y-126433447D01*
X155911282Y-126510188D01*
X155881423Y-126544518D01*
X155862440Y-126544367D01*
X155843745Y-126518537D01*
X155840270Y-126498017D01*
X155864565Y-126508302D01*
X155889330Y-126517239D01*
X155883509Y-126507159D01*
X155837106Y-126482828D01*
X155793118Y-126472704D01*
X155727321Y-126463084D01*
X155627248Y-126447369D01*
X155545318Y-126434027D01*
X155337180Y-126401417D01*
X155131905Y-126372544D01*
X154946832Y-126349667D01*
X154799296Y-126335049D01*
X154770166Y-126332941D01*
X154681755Y-126323450D01*
X154620451Y-126309917D01*
X154607119Y-126303103D01*
X154577552Y-126312361D01*
X154526065Y-126374395D01*
X154454482Y-126486593D01*
X154364624Y-126646344D01*
X154354891Y-126664483D01*
X154255202Y-126850970D01*
X154138630Y-126791500D01*
X154022059Y-126732029D01*
X152818509Y-126732029D01*
X152818509Y-126201800D01*
X155721079Y-126201800D01*
X155725215Y-126219713D01*
X155741166Y-126221887D01*
X155765966Y-126210863D01*
X155761253Y-126201800D01*
X155725495Y-126198194D01*
X155721079Y-126201800D01*
X152818509Y-126201800D01*
X152818509Y-126122073D01*
X154709378Y-126122073D01*
X154718060Y-126135280D01*
X154776649Y-126148666D01*
X154874804Y-126161154D01*
X155002184Y-126171670D01*
X155148448Y-126179138D01*
X155289208Y-126182378D01*
X155454926Y-126183856D01*
X155363930Y-126171670D01*
X155480035Y-126171670D01*
X155484171Y-126189582D01*
X155500122Y-126191757D01*
X155524923Y-126180733D01*
X155520209Y-126171670D01*
X155484451Y-126168064D01*
X155480035Y-126171670D01*
X155363930Y-126171670D01*
X155274143Y-126159646D01*
X155069237Y-126133455D01*
X154916960Y-126117114D01*
X154810566Y-126110175D01*
X154743307Y-126112187D01*
X154709378Y-126122073D01*
X152818509Y-126122073D01*
X152818509Y-125913379D01*
X155633712Y-125913379D01*
X155663329Y-125918204D01*
X155702408Y-125912664D01*
X155702595Y-125908546D01*
X155799582Y-125908546D01*
X155841245Y-125913301D01*
X155861688Y-125913592D01*
X155916505Y-125910451D01*
X155920580Y-125905517D01*
X156193123Y-125905517D01*
X156208188Y-125920582D01*
X156215391Y-125913379D01*
X156296583Y-125913379D01*
X156326199Y-125918204D01*
X156365279Y-125912664D01*
X156365746Y-125902379D01*
X156325419Y-125895186D01*
X156307995Y-125900000D01*
X156296583Y-125913379D01*
X156215391Y-125913379D01*
X156223253Y-125905517D01*
X156208188Y-125890452D01*
X156193123Y-125905517D01*
X155920580Y-125905517D01*
X155922965Y-125902630D01*
X155914416Y-125899813D01*
X155837998Y-125895127D01*
X155808959Y-125899813D01*
X155799582Y-125908546D01*
X155702595Y-125908546D01*
X155702875Y-125902379D01*
X155662548Y-125895186D01*
X155645125Y-125900000D01*
X155633712Y-125913379D01*
X152818509Y-125913379D01*
X152818509Y-125739800D01*
X160321000Y-125739800D01*
X167823491Y-125739800D01*
X167823491Y-128557000D01*
G37*
D14*
%TO.C,Q906*%
X85578279Y-63507000D02*
X85578279Y-69927000D01*
X85578279Y-69927000D02*
X85848279Y-69927000D01*
X92478279Y-63507000D02*
X92478279Y-69927000D01*
X92478279Y-69927000D02*
X92208279Y-69927000D01*
X85888279Y-71657000D02*
X85418279Y-71997000D01*
X85418279Y-71317000D01*
X85888279Y-71657000D01*
G36*
X85888279Y-71657000D02*
G01*
X85418279Y-71997000D01*
X85418279Y-71317000D01*
X85888279Y-71657000D01*
G37*
%TO.C,Q903*%
X96450000Y-48560000D02*
X96450000Y-54980000D01*
X96450000Y-54980000D02*
X96720000Y-54980000D01*
X103350000Y-48560000D02*
X103350000Y-54980000D01*
X103350000Y-54980000D02*
X103080000Y-54980000D01*
X96760000Y-56710000D02*
X96290000Y-57050000D01*
X96290000Y-56370000D01*
X96760000Y-56710000D01*
G36*
X96760000Y-56710000D02*
G01*
X96290000Y-57050000D01*
X96290000Y-56370000D01*
X96760000Y-56710000D01*
G37*
%TO.C,Q901*%
X85700000Y-94370000D02*
X85700000Y-100790000D01*
X85700000Y-100790000D02*
X85970000Y-100790000D01*
X92600000Y-94370000D02*
X92600000Y-100790000D01*
X92600000Y-100790000D02*
X92330000Y-100790000D01*
X86010000Y-102520000D02*
X85540000Y-102860000D01*
X85540000Y-102180000D01*
X86010000Y-102520000D01*
G36*
X86010000Y-102520000D02*
G01*
X85540000Y-102860000D01*
X85540000Y-102180000D01*
X86010000Y-102520000D01*
G37*
%TO.C,Q902*%
X85790000Y-48460000D02*
X85790000Y-54880000D01*
X85790000Y-54880000D02*
X86060000Y-54880000D01*
X92690000Y-48460000D02*
X92690000Y-54880000D01*
X92690000Y-54880000D02*
X92420000Y-54880000D01*
X86100000Y-56610000D02*
X85630000Y-56950000D01*
X85630000Y-56270000D01*
X86100000Y-56610000D01*
G36*
X86100000Y-56610000D02*
G01*
X85630000Y-56950000D01*
X85630000Y-56270000D01*
X86100000Y-56610000D01*
G37*
D15*
%TO.C,R13*%
X148513000Y-72679447D02*
X148113000Y-72679437D01*
X148514056Y-71933612D02*
X148114057Y-71933601D01*
D16*
%TO.C,D11*%
X144872908Y-74146454D02*
X144872908Y-74621455D01*
X145072903Y-74396449D02*
X144647902Y-74396449D01*
X145160093Y-73361452D02*
X144860094Y-73601452D01*
X145160093Y-75381453D02*
X144860094Y-75141454D01*
X146240094Y-73361452D02*
X145160093Y-73361452D01*
X146240094Y-75381453D02*
X145160096Y-75381453D01*
X148780094Y-73361452D02*
X147810095Y-73361452D01*
X148780094Y-73361452D02*
X148780094Y-75381453D01*
X148780094Y-75381453D02*
X147810095Y-75381453D01*
X149050098Y-73846450D02*
X149050098Y-74821447D01*
D15*
%TO.C,R14*%
X151534944Y-81330364D02*
X151934943Y-81330375D01*
X151536000Y-80584529D02*
X151936000Y-80584539D01*
D16*
%TO.C,M4*%
X117539400Y-110613999D02*
X117539400Y-117964378D01*
X117539400Y-117964378D02*
X117789021Y-118213999D01*
X117789021Y-118213999D02*
X127989021Y-118213999D01*
X117789399Y-110363999D02*
X117539400Y-110613999D01*
X117789399Y-110363999D02*
X130851080Y-110363999D01*
X127989021Y-118213999D02*
X129864018Y-118213999D01*
X129864018Y-117213998D02*
X129864018Y-118213999D01*
X130614019Y-116463997D02*
X129864018Y-117213998D01*
X130614019Y-116463997D02*
X131210371Y-116463997D01*
X130851080Y-110363999D02*
X131210371Y-110723290D01*
X131210371Y-110723290D02*
X131210371Y-116463997D01*
D11*
%TO.C,D4*%
X132918000Y-51351000D02*
X132918000Y-52051000D01*
X132918000Y-51701000D02*
X132618000Y-51701000D01*
X133618000Y-51351000D02*
X133618000Y-52051000D01*
X133618000Y-51701000D02*
X132918000Y-51351000D01*
X133618000Y-51701000D02*
X132918000Y-52051000D01*
X133818000Y-51701000D02*
X133618000Y-51701000D01*
D14*
X135518000Y-50701000D02*
X131618000Y-50701000D01*
X135518000Y-52701000D02*
X131618000Y-52701000D01*
X135518000Y-52701000D02*
X135518000Y-50701000D01*
D16*
%TO.C,C2*%
X194485000Y-65159993D02*
X194485000Y-64410008D01*
%TO.C,M2*%
X177980784Y-46430242D02*
X177980784Y-61430242D01*
X177980784Y-46430242D02*
X179280784Y-46430242D01*
X177980784Y-61430242D02*
X183080784Y-61430242D01*
X187580784Y-46430242D02*
X181180784Y-46430242D01*
X187580784Y-60830242D02*
X187580784Y-46430242D01*
D14*
%TO.C,Q9*%
X121606000Y-47771000D02*
X121606000Y-48041000D01*
X121606000Y-54671000D02*
X121606000Y-54401000D01*
X128026000Y-47771000D02*
X121606000Y-47771000D01*
X128026000Y-54671000D02*
X121606000Y-54671000D01*
X119876000Y-48081000D02*
X119536000Y-47611000D01*
X120216000Y-47611000D01*
X119876000Y-48081000D01*
G36*
X119876000Y-48081000D02*
G01*
X119536000Y-47611000D01*
X120216000Y-47611000D01*
X119876000Y-48081000D01*
G37*
D16*
%TO.C,D14*%
X188688718Y-97636001D02*
X188688718Y-98111002D01*
X188888713Y-97885996D02*
X188463712Y-97885996D01*
X188975903Y-96850999D02*
X188675904Y-97090999D01*
X188975903Y-98871000D02*
X188675904Y-98631001D01*
X190055904Y-96850999D02*
X188975903Y-96850999D01*
X190055904Y-98871000D02*
X188975906Y-98871000D01*
X192595904Y-96850999D02*
X191625905Y-96850999D01*
X192595904Y-96850999D02*
X192595904Y-98871000D01*
X192595904Y-98871000D02*
X191625905Y-98871000D01*
X192865908Y-97335997D02*
X192865908Y-98310994D01*
D15*
%TO.C,R12*%
X119243088Y-51025944D02*
X119243077Y-51425943D01*
X119988923Y-51027000D02*
X119988913Y-51427000D01*
%TO.C,R19*%
X120119088Y-68107944D02*
X120119077Y-68507943D01*
X120864923Y-68109000D02*
X120864913Y-68509000D01*
%TO.C,R11*%
X119300088Y-59206944D02*
X119300077Y-59606943D01*
X120045923Y-59208000D02*
X120045913Y-59608000D01*
D14*
%TO.C,Q14*%
X121606000Y-55966000D02*
X121606000Y-56236000D01*
X121606000Y-62866000D02*
X121606000Y-62596000D01*
X128026000Y-55966000D02*
X121606000Y-55966000D01*
X128026000Y-62866000D02*
X121606000Y-62866000D01*
X119876000Y-56276000D02*
X119536000Y-55806000D01*
X120216000Y-55806000D01*
X119876000Y-56276000D01*
G36*
X119876000Y-56276000D02*
G01*
X119536000Y-55806000D01*
X120216000Y-55806000D01*
X119876000Y-56276000D01*
G37*
D10*
%TO.C,J4*%
X121548000Y-122052000D02*
X129348000Y-122052000D01*
X121548000Y-122652000D02*
X121548000Y-122052000D01*
X121548000Y-125552000D02*
X121548000Y-126152000D01*
X121548000Y-126152000D02*
X129348000Y-126152000D01*
X123348000Y-126452000D02*
X124348000Y-126452000D01*
X129348000Y-122052000D02*
X129348000Y-122652000D01*
X129348000Y-126152000D02*
X129348000Y-125552000D01*
D16*
%TO.C,M3*%
X173270000Y-46721000D02*
X173270000Y-55821000D01*
X173270000Y-46721000D02*
X174270002Y-46721000D01*
X176370003Y-46721000D02*
X176370003Y-55821000D01*
D11*
%TO.C,D5*%
X133337000Y-57459000D02*
X133337000Y-58159000D01*
X133337000Y-57809000D02*
X133037000Y-57809000D01*
X134037000Y-57459000D02*
X134037000Y-58159000D01*
X134037000Y-57809000D02*
X133337000Y-57459000D01*
X134037000Y-57809000D02*
X133337000Y-58159000D01*
X134237000Y-57809000D02*
X134037000Y-57809000D01*
D14*
X135937000Y-56809000D02*
X132037000Y-56809000D01*
X135937000Y-58809000D02*
X132037000Y-58809000D01*
X135937000Y-58809000D02*
X135937000Y-56809000D01*
%TO.C,U2*%
X201063000Y-67736000D02*
X199113000Y-67736000D01*
X201063000Y-67736000D02*
X203013000Y-67736000D01*
X201063000Y-72856000D02*
X199113000Y-72856000D01*
X201063000Y-72856000D02*
X203013000Y-72856000D01*
X198363000Y-67831000D02*
X198123000Y-67501000D01*
X198603000Y-67501000D01*
X198363000Y-67831000D01*
G36*
X198363000Y-67831000D02*
G01*
X198123000Y-67501000D01*
X198603000Y-67501000D01*
X198363000Y-67831000D01*
G37*
D15*
%TO.C,R15*%
X194750944Y-96374912D02*
X195150943Y-96374923D01*
X194752000Y-95629077D02*
X195152000Y-95629087D01*
D11*
%TO.C,D3*%
X134081000Y-67691000D02*
X134081000Y-68391000D01*
X134081000Y-68041000D02*
X133781000Y-68041000D01*
X134781000Y-67691000D02*
X134781000Y-68391000D01*
X134781000Y-68041000D02*
X134081000Y-67691000D01*
X134781000Y-68041000D02*
X134081000Y-68391000D01*
X134981000Y-68041000D02*
X134781000Y-68041000D01*
D14*
X136681000Y-67041000D02*
X132781000Y-67041000D01*
X136681000Y-69041000D02*
X132781000Y-69041000D01*
X136681000Y-69041000D02*
X136681000Y-67041000D01*
%TO.C,Q11*%
X122273000Y-64892000D02*
X122273000Y-65162000D01*
X122273000Y-71792000D02*
X122273000Y-71522000D01*
X128693000Y-64892000D02*
X122273000Y-64892000D01*
X128693000Y-71792000D02*
X122273000Y-71792000D01*
X120543000Y-65202000D02*
X120203000Y-64732000D01*
X120883000Y-64732000D01*
X120543000Y-65202000D01*
G36*
X120543000Y-65202000D02*
G01*
X120203000Y-64732000D01*
X120883000Y-64732000D01*
X120543000Y-65202000D01*
G37*
D16*
%TO.C,M7*%
X126439999Y-83323001D02*
X126439999Y-93523001D01*
X126439999Y-93523001D02*
X126439999Y-95397998D01*
X126689620Y-83073380D02*
X126439999Y-83323001D01*
X127440000Y-95397998D02*
X126439999Y-95397998D01*
X128190001Y-96147999D02*
X127440000Y-95397998D01*
X128190001Y-96147999D02*
X128190001Y-96744351D01*
X133930708Y-96744351D02*
X128190001Y-96744351D01*
X134039999Y-83073380D02*
X126689620Y-83073380D01*
X134289999Y-83323379D02*
X134039999Y-83073380D01*
X134289999Y-83323379D02*
X134289999Y-96385060D01*
X134289999Y-96385060D02*
X133930708Y-96744351D01*
D10*
%TO.C,D9*%
X144549003Y-76071452D02*
X147477001Y-76071452D01*
X144549003Y-76417452D02*
X144676003Y-76417452D01*
X144549003Y-76517457D02*
X144549003Y-76071452D01*
X144549003Y-76925452D02*
X144677000Y-76925452D01*
X144549003Y-77246447D02*
X144549003Y-76825447D01*
X144549003Y-77246447D02*
X147477000Y-77246447D01*
X144677000Y-76517457D02*
X144677000Y-76071452D01*
X144677000Y-77221452D02*
X144676003Y-76825447D01*
D11*
X145677000Y-76671452D02*
X145877000Y-76671452D01*
X145877000Y-76671452D02*
X146577000Y-76321452D01*
X145877000Y-76671452D02*
X146577000Y-77021452D01*
X145877000Y-77021452D02*
X145877000Y-76321452D01*
X146577000Y-76671452D02*
X146877000Y-76671452D01*
X146577000Y-77021452D02*
X146577000Y-76321452D01*
D16*
%TO.C,D13*%
X187477813Y-94151001D02*
X187477813Y-94626002D01*
X187677808Y-94400996D02*
X187252807Y-94400996D01*
X187764998Y-93365999D02*
X187464999Y-93605999D01*
X187764998Y-95386000D02*
X187464999Y-95146001D01*
X188844999Y-93365999D02*
X187764998Y-93365999D01*
X188844999Y-95386000D02*
X187765001Y-95386000D01*
X191384999Y-93365999D02*
X190415000Y-93365999D01*
X191384999Y-93365999D02*
X191384999Y-95386000D01*
X191384999Y-95386000D02*
X190415000Y-95386000D01*
X191655003Y-93850997D02*
X191655003Y-94825994D01*
D14*
%TO.C,Q916*%
X117450000Y-94350000D02*
X117450000Y-100770000D01*
X117450000Y-100770000D02*
X117720000Y-100770000D01*
X124350000Y-94350000D02*
X124350000Y-100770000D01*
X124350000Y-100770000D02*
X124080000Y-100770000D01*
X117760000Y-102500000D02*
X117290000Y-102840000D01*
X117290000Y-102160000D01*
X117760000Y-102500000D01*
G36*
X117760000Y-102500000D02*
G01*
X117290000Y-102840000D01*
X117290000Y-102160000D01*
X117760000Y-102500000D01*
G37*
%TO.C,Q904*%
X85911721Y-79323000D02*
X85911721Y-85743000D01*
X85911721Y-85743000D02*
X86181721Y-85743000D01*
X92811721Y-79323000D02*
X92811721Y-85743000D01*
X92811721Y-85743000D02*
X92541721Y-85743000D01*
X86221721Y-87473000D02*
X85751721Y-87813000D01*
X85751721Y-87133000D01*
X86221721Y-87473000D01*
G36*
X86221721Y-87473000D02*
G01*
X85751721Y-87813000D01*
X85751721Y-87133000D01*
X86221721Y-87473000D01*
G37*
D16*
%TO.C,D12*%
X149523718Y-78529453D02*
X149523718Y-79004454D01*
X149723713Y-78779448D02*
X149298712Y-78779448D01*
X149810903Y-77744451D02*
X149510904Y-77984451D01*
X149810903Y-79764452D02*
X149510904Y-79524453D01*
X150890904Y-77744451D02*
X149810903Y-77744451D01*
X150890904Y-79764452D02*
X149810906Y-79764452D01*
X153430904Y-77744451D02*
X152460905Y-77744451D01*
X153430904Y-77744451D02*
X153430904Y-79764452D01*
X153430904Y-79764452D02*
X152460905Y-79764452D01*
X153700908Y-78229449D02*
X153700908Y-79204446D01*
%TO.C,M9*%
X140095002Y-83774997D02*
X140094999Y-123674996D01*
X141394999Y-123674996D02*
X140094999Y-123674996D01*
X182195002Y-83774997D02*
X140095002Y-83774997D01*
X182195002Y-83774997D02*
X182195002Y-123674996D01*
X182195002Y-123674996D02*
X141394999Y-123674996D01*
%TO.C,C3*%
X197884986Y-64464000D02*
X197135001Y-64464000D01*
%TO.C,C4*%
X195566000Y-74033014D02*
X195566000Y-74782999D01*
D15*
%TO.C,R9*%
X186534160Y-29814944D02*
X186534149Y-30214943D01*
X187279995Y-29816000D02*
X187279985Y-30216000D01*
%TO.C,M5*%
D16*
X190231000Y-33817000D02*
X204131000Y-33817000D01*
X204131000Y-61317000D01*
X190231000Y-61317000D01*
X190231000Y-33817000D01*
D14*
%TO.C,Q12*%
X189300000Y-26563000D02*
X189300000Y-26833000D01*
X189300000Y-33463000D02*
X189300000Y-33193000D01*
X195720000Y-26563000D02*
X189300000Y-26563000D01*
X195720000Y-33463000D02*
X189300000Y-33463000D01*
X187570000Y-26873000D02*
X187230000Y-26403000D01*
X187910000Y-26403000D01*
X187570000Y-26873000D01*
G36*
X187570000Y-26873000D02*
G01*
X187230000Y-26403000D01*
X187910000Y-26403000D01*
X187570000Y-26873000D01*
G37*
%TO.C,Q915*%
X106598279Y-63507000D02*
X106598279Y-69927000D01*
X106598279Y-69927000D02*
X106868279Y-69927000D01*
X113498279Y-63507000D02*
X113498279Y-69927000D01*
X113498279Y-69927000D02*
X113228279Y-69927000D01*
X106908279Y-71657000D02*
X106438279Y-71997000D01*
X106438279Y-71317000D01*
X106908279Y-71657000D01*
G36*
X106908279Y-71657000D02*
G01*
X106438279Y-71997000D01*
X106438279Y-71317000D01*
X106908279Y-71657000D01*
G37*
%TO.C,Q913*%
X106810000Y-48460000D02*
X106810000Y-54880000D01*
X106810000Y-54880000D02*
X107080000Y-54880000D01*
X113710000Y-48460000D02*
X113710000Y-54880000D01*
X113710000Y-54880000D02*
X113440000Y-54880000D01*
X107120000Y-56610000D02*
X106650000Y-56950000D01*
X106650000Y-56270000D01*
X107120000Y-56610000D01*
G36*
X107120000Y-56610000D02*
G01*
X106650000Y-56950000D01*
X106650000Y-56270000D01*
X107120000Y-56610000D01*
G37*
%TO.C,Q912*%
X96360000Y-94470000D02*
X96360000Y-100890000D01*
X96360000Y-100890000D02*
X96630000Y-100890000D01*
X103260000Y-94470000D02*
X103260000Y-100890000D01*
X103260000Y-100890000D02*
X102990000Y-100890000D01*
X96670000Y-102620000D02*
X96200000Y-102960000D01*
X96200000Y-102280000D01*
X96670000Y-102620000D01*
G36*
X96670000Y-102620000D02*
G01*
X96200000Y-102960000D01*
X96200000Y-102280000D01*
X96670000Y-102620000D01*
G37*
%TO.C,L2*%
X202419000Y-64682221D02*
X202419000Y-65007779D01*
X203439000Y-64682221D02*
X203439000Y-65007779D01*
%TO.C,Q905*%
X106931721Y-79323000D02*
X106931721Y-85743000D01*
X106931721Y-85743000D02*
X107201721Y-85743000D01*
X113831721Y-79323000D02*
X113831721Y-85743000D01*
X113831721Y-85743000D02*
X113561721Y-85743000D01*
X107241721Y-87473000D02*
X106771721Y-87813000D01*
X106771721Y-87133000D01*
X107241721Y-87473000D01*
G36*
X107241721Y-87473000D02*
G01*
X106771721Y-87813000D01*
X106771721Y-87133000D01*
X107241721Y-87473000D01*
G37*
%TO.C,Q914*%
X106720000Y-94370000D02*
X106720000Y-100790000D01*
X106720000Y-100790000D02*
X106990000Y-100790000D01*
X113620000Y-94370000D02*
X113620000Y-100790000D01*
X113620000Y-100790000D02*
X113350000Y-100790000D01*
X107030000Y-102520000D02*
X106560000Y-102860000D01*
X106560000Y-102180000D01*
X107030000Y-102520000D01*
G36*
X107030000Y-102520000D02*
G01*
X106560000Y-102860000D01*
X106560000Y-102180000D01*
X107030000Y-102520000D01*
G37*
%TO.C,D2*%
X170305000Y-49217000D02*
X170305000Y-45317000D01*
X170305000Y-49217000D02*
X172305000Y-49217000D01*
D11*
X171305000Y-46617000D02*
X171305000Y-46317000D01*
X171305000Y-47317000D02*
X170955000Y-46617000D01*
X171305000Y-47317000D02*
X171655000Y-46617000D01*
X171305000Y-47517000D02*
X171305000Y-47317000D01*
X171655000Y-46617000D02*
X170955000Y-46617000D01*
X171655000Y-47317000D02*
X170955000Y-47317000D01*
D14*
X172305000Y-49217000D02*
X172305000Y-45317000D01*
D10*
%TO.C,D10*%
X144687003Y-78154452D02*
X147615001Y-78154452D01*
X144687003Y-78500452D02*
X144814003Y-78500452D01*
X144687003Y-78600457D02*
X144687003Y-78154452D01*
X144687003Y-79008452D02*
X144815000Y-79008452D01*
X144687003Y-79329447D02*
X144687003Y-78908447D01*
X144687003Y-79329447D02*
X147615000Y-79329447D01*
X144815000Y-78600457D02*
X144815000Y-78154452D01*
X144815000Y-79304452D02*
X144814003Y-78908447D01*
D11*
X145815000Y-78754452D02*
X146015000Y-78754452D01*
X146015000Y-78754452D02*
X146715000Y-78404452D01*
X146015000Y-78754452D02*
X146715000Y-79104452D01*
X146015000Y-79104452D02*
X146015000Y-78404452D01*
X146715000Y-78754452D02*
X147015000Y-78754452D01*
X146715000Y-79104452D02*
X146715000Y-78404452D01*
D16*
%TO.C,C1*%
X205572986Y-65032001D02*
X204823001Y-65032001D01*
D14*
%TO.C,L1*%
X199440000Y-64380221D02*
X199440000Y-64705779D01*
X200460000Y-64380221D02*
X200460000Y-64705779D01*
D15*
%TO.C,R16*%
X194800944Y-98531840D02*
X195200943Y-98531851D01*
X194802000Y-97786005D02*
X195202000Y-97786015D01*
D16*
%TO.C,C5*%
X195633000Y-71948008D02*
X195633000Y-72697993D01*
%TO.C,M1*%
X141470254Y-54557402D02*
X141470254Y-51357399D01*
X141470254Y-66657402D02*
X141470254Y-56257400D01*
X141470254Y-68557402D02*
X141470254Y-68257402D01*
X141470254Y-68557402D02*
X156870254Y-68557402D01*
X142970254Y-47957404D02*
X158270253Y-47957402D01*
X158270251Y-54657400D02*
X158270251Y-49857400D01*
X158270251Y-60857402D02*
X158270251Y-58157402D01*
X158270251Y-63557400D02*
X158270251Y-62457397D01*
X158270251Y-67107402D02*
X158270256Y-65557402D01*
X158270253Y-48257400D02*
X158270253Y-47957402D01*
D14*
%TO.C,Q911*%
X96238279Y-63607000D02*
X96238279Y-70027000D01*
X96238279Y-70027000D02*
X96508279Y-70027000D01*
X103138279Y-63607000D02*
X103138279Y-70027000D01*
X103138279Y-70027000D02*
X102868279Y-70027000D01*
X96548279Y-71757000D02*
X96078279Y-72097000D01*
X96078279Y-71417000D01*
X96548279Y-71757000D01*
G36*
X96548279Y-71757000D02*
G01*
X96078279Y-72097000D01*
X96078279Y-71417000D01*
X96548279Y-71757000D01*
G37*
%TO.C,F10*%
X136361000Y-48209010D02*
X136361000Y-53059010D01*
X138361000Y-48209010D02*
X138361000Y-53059010D01*
X136361000Y-48159010D02*
G75*
G02*
X138361000Y-48159010I1000000J0D01*
G01*
X138361000Y-53059010D02*
G75*
G02*
X136361000Y-53059010I-1000000J0D01*
G01*
%TO.C,D1*%
X192905000Y-68171500D02*
X192905000Y-67521500D01*
X192905000Y-68171500D02*
X192905000Y-68821500D01*
X196025000Y-68171500D02*
X196025000Y-67521500D01*
X196025000Y-68171500D02*
X196025000Y-68821500D01*
X196305000Y-67249000D02*
X195975000Y-67009000D01*
X196305000Y-66769000D01*
X196305000Y-67249000D01*
G36*
X196305000Y-67249000D02*
G01*
X195975000Y-67009000D01*
X196305000Y-66769000D01*
X196305000Y-67249000D01*
G37*
D16*
%TO.C,M6*%
X199390660Y-96073505D02*
X199390660Y-106973499D01*
X199390660Y-106973499D02*
X206276989Y-106973499D01*
X199390663Y-96073503D02*
X199390660Y-96073505D01*
X199390663Y-96073503D02*
X200265657Y-96073503D01*
X200540661Y-95798499D02*
X200265657Y-96073503D01*
X200540661Y-95798499D02*
X206238142Y-95798499D01*
X206238142Y-95798499D02*
X206276989Y-106973499D01*
D15*
%TO.C,R17*%
X118940000Y-124209995D02*
X118540000Y-124209985D01*
X118941056Y-123464160D02*
X118541057Y-123464149D01*
%TD*%
M02*
