%TF.GenerationSoftware,KiCad,Pcbnew,8.0.8*%
%TF.CreationDate,2026-01-27T15:31:09-05:00*%
%TF.ProjectId,greenecu48,67726565-6e65-4637-9534-382e6b696361,rev?*%
%TF.SameCoordinates,Original*%
%TF.FileFunction,Copper,L1,Top*%
%TF.FilePolarity,Positive*%
%FSLAX46Y46*%
G04 Gerber Fmt 4.6, Leading zero omitted, Abs format (unit mm)*
G04 Created by KiCad (PCBNEW 8.0.8) date 2026-01-27 15:31:09*
%MOMM*%
%LPD*%
G01*
G04 APERTURE LIST*
%TA.AperFunction,ComponentPad*%
%ADD10C,4.000000*%
%TD*%
%TA.AperFunction,ComponentPad*%
%ADD11C,2.200000*%
%TD*%
%TA.AperFunction,ComponentPad*%
%ADD12C,1.600000*%
%TD*%
%TA.AperFunction,ComponentPad*%
%ADD13C,0.600000*%
%TD*%
%TA.AperFunction,SMDPad,CuDef*%
%ADD14R,0.200000X2.300000*%
%TD*%
%TA.AperFunction,SMDPad,CuDef*%
%ADD15R,0.200000X5.400000*%
%TD*%
%TA.AperFunction,SMDPad,CuDef*%
%ADD16R,0.200000X8.600000*%
%TD*%
%TA.AperFunction,SMDPad,CuDef*%
%ADD17R,0.200000X5.000000*%
%TD*%
%TA.AperFunction,SMDPad,CuDef*%
%ADD18R,1.400000X0.200000*%
%TD*%
%TA.AperFunction,SMDPad,CuDef*%
%ADD19R,5.000000X0.200000*%
%TD*%
%TA.AperFunction,SMDPad,CuDef*%
%ADD20R,6.800000X0.200000*%
%TD*%
%TA.AperFunction,SMDPad,CuDef*%
%ADD21R,4.500000X0.200000*%
%TD*%
%TA.AperFunction,SMDPad,CuDef*%
%ADD22R,0.200000X1.600000*%
%TD*%
%TA.AperFunction,SMDPad,CuDef*%
%ADD23R,0.200000X5.700000*%
%TD*%
%TA.AperFunction,SMDPad,CuDef*%
%ADD24R,0.200000X2.000000*%
%TD*%
%TA.AperFunction,ViaPad*%
%ADD25C,10.000000*%
%TD*%
G04 APERTURE END LIST*
D10*
%TO.P,U1,*%
%TO.N,*%
X119677601Y-34974599D03*
D11*
X123777601Y-38824599D03*
X166377601Y-38824599D03*
D10*
X170477601Y-34974599D03*
D12*
%TO.P,U1,1,1*%
%TO.N,/12V_MREL*%
X130227601Y-30224599D03*
%TO.P,U1,2,2*%
%TO.N,/GND*%
X130227601Y-32724599D03*
%TO.P,U1,3,3*%
%TO.N,/LS2*%
X130227601Y-35224599D03*
%TO.P,U1,4,4*%
%TO.N,/E-THROTTLE+*%
X130227601Y-37724599D03*
%TO.P,U1,5,5*%
%TO.N,/12V_KEY*%
X133927601Y-30224599D03*
%TO.P,U1,6,6*%
%TO.N,/GND*%
X133927601Y-32724599D03*
%TO.P,U1,7,7*%
%TO.N,/LS1*%
X133927601Y-35224599D03*
%TO.P,U1,8,8*%
%TO.N,/E-THROTTLE-*%
X133927601Y-37724599D03*
%TO.P,U1,9,9*%
%TO.N,/Ign1*%
X137427601Y-30224599D03*
%TO.P,U1,10,10*%
%TO.N,/Ign2*%
X137427601Y-32724599D03*
%TO.P,U1,11,11*%
%TO.N,/Ign3*%
X137427601Y-35224599D03*
%TO.P,U1,12,12*%
%TO.N,/Ign4*%
X137427601Y-37724599D03*
%TO.P,U1,13,13*%
%TO.N,/GP6*%
X139927601Y-30224599D03*
%TO.P,U1,14,14*%
%TO.N,/GP5*%
X139927601Y-32724599D03*
%TO.P,U1,15,15*%
%TO.N,/USB_D-*%
X139927601Y-35224599D03*
%TO.P,U1,16,16*%
%TO.N,/USB_D+*%
X139927601Y-37724599D03*
%TO.P,U1,17,17*%
%TO.N,/GND*%
X142427601Y-30224599D03*
%TO.P,U1,18,18*%
%TO.N,/AT1*%
X142427601Y-32724599D03*
%TO.P,U1,19,19*%
%TO.N,/AV4*%
X142427601Y-35224599D03*
%TO.P,U1,20,20*%
%TO.N,/AV5*%
X142427601Y-37724599D03*
%TO.P,U1,21,21*%
%TO.N,/GND*%
X144927601Y-30224599D03*
%TO.P,U1,22,22*%
%TO.N,/AT4*%
X144927601Y-32724599D03*
%TO.P,U1,23,23*%
%TO.N,/AT2*%
X144927601Y-35224599D03*
%TO.P,U1,24,24*%
%TO.N,/AT3*%
X144927601Y-37724599D03*
%TO.P,U1,25,25*%
%TO.N,/CAM_SENSOR*%
X147427601Y-30224599D03*
%TO.P,U1,26,26*%
%TO.N,/AV2*%
X147427601Y-32724599D03*
%TO.P,U1,27,27*%
%TO.N,/AV1*%
X147427601Y-35224599D03*
%TO.P,U1,28,28*%
%TO.N,/AV10*%
X147427601Y-37724599D03*
%TO.P,U1,29,29*%
%TO.N,/MAIN_RELAY*%
X149927601Y-30224599D03*
%TO.P,U1,30,30*%
%TO.N,/AV7*%
X149927601Y-32724599D03*
%TO.P,U1,31,31*%
%TO.N,/AV3*%
X149927601Y-35224599D03*
%TO.P,U1,32,32*%
%TO.N,/AV6*%
X149927601Y-37724599D03*
%TO.P,U1,33,33*%
%TO.N,/GP3*%
X152427601Y-30224599D03*
%TO.P,U1,34,34*%
%TO.N,/GP2*%
X152427601Y-32724599D03*
%TO.P,U1,35,35*%
%TO.N,/GP1*%
X152427601Y-35224599D03*
%TO.P,U1,36,36*%
%TO.N,/AV8*%
X152427601Y-37724599D03*
%TO.P,U1,37,37*%
%TO.N,/INJECTOR-1*%
X154927601Y-30224599D03*
%TO.P,U1,38,38*%
%TO.N,/INJECTOR-2*%
X154927601Y-32724599D03*
%TO.P,U1,39,39*%
%TO.N,/5V2*%
X154927601Y-35224599D03*
%TO.P,U1,40,40*%
%TO.N,/AV9*%
X154927601Y-37724599D03*
%TO.P,U1,41,41*%
%TO.N,/INJECTOR-3*%
X157427601Y-30224599D03*
%TO.P,U1,42,42*%
%TO.N,/INJECTOR-4*%
X157427601Y-32724599D03*
%TO.P,U1,43,43*%
%TO.N,/GP4*%
X157427601Y-35224599D03*
%TO.P,U1,44,44*%
%TO.N,/5V1*%
X157427601Y-37724599D03*
%TO.P,U1,45,45*%
%TO.N,/CRNK+*%
X159927601Y-30224599D03*
%TO.P,U1,46,46*%
%TO.N,/CRNK-*%
X159927601Y-32724599D03*
%TO.P,U1,47,47*%
%TO.N,/CANL*%
X159927601Y-35224599D03*
%TO.P,U1,48,48*%
%TO.N,/CANH*%
X159927601Y-37724599D03*
%TD*%
D13*
%TO.P,M1,E1,SPI2_SCK/CAN2_TX*%
%TO.N,unconnected-(M1-SPI2_SCK{slash}CAN2_TX-PadE1)*%
X162250000Y-74450007D03*
%TO.P,M1,E2,SPI2_MISO*%
%TO.N,unconnected-(M1-SPI2_MISO-PadE2)*%
X162250000Y-75250008D03*
%TO.P,M1,E3,SPI2_MOSI*%
%TO.N,unconnected-(M1-SPI2_MOSI-PadE3)*%
X162250000Y-76050006D03*
%TO.P,M1,E4,SPI2_CS/CAN2_RX*%
%TO.N,unconnected-(M1-SPI2_CS{slash}CAN2_RX-PadE4)*%
X162250000Y-76850007D03*
%TO.P,M1,E6,OUT_IO3*%
%TO.N,unconnected-(M1-OUT_IO3-PadE6)*%
X162250000Y-77650008D03*
%TO.P,M1,E7,OUT_IO5*%
%TO.N,unconnected-(M1-OUT_IO5-PadE7)*%
X162249997Y-78450006D03*
%TO.P,M1,E8,OUT_IO1*%
%TO.N,unconnected-(M1-OUT_IO1-PadE8)*%
X162249997Y-79250007D03*
%TO.P,M1,E9,OUT_IO6*%
%TO.N,unconnected-(M1-OUT_IO6-PadE9)*%
X162250000Y-80050011D03*
%TO.P,M1,E10,OUT_IO10*%
%TO.N,unconnected-(M1-OUT_IO10-PadE10)*%
X162250000Y-80850007D03*
%TO.P,M1,E11,OUT_IO9*%
%TO.N,unconnected-(M1-OUT_IO9-PadE11)*%
X162250000Y-81650007D03*
%TO.P,M1,E12,OUT_IO2*%
%TO.N,unconnected-(M1-OUT_IO2-PadE12)*%
X162250000Y-82450008D03*
%TO.P,M1,E13,OUT_IO12*%
%TO.N,unconnected-(M1-OUT_IO12-PadE13)*%
X162249997Y-83250007D03*
%TO.P,M1,E14,OUT_PWM5*%
%TO.N,unconnected-(M1-OUT_PWM5-PadE14)*%
X162249997Y-84050008D03*
%TO.P,M1,E15,OUT_PWM4*%
%TO.N,unconnected-(M1-OUT_PWM4-PadE15)*%
X162249997Y-84850009D03*
%TO.P,M1,E16,OUT_PWM3*%
%TO.N,unconnected-(M1-OUT_PWM3-PadE16)*%
X162250000Y-85650007D03*
%TO.P,M1,E17,OUT_PWM2*%
%TO.N,unconnected-(M1-OUT_PWM2-PadE17)*%
X162250000Y-86450008D03*
%TO.P,M1,E18,OUT_INJ2*%
%TO.N,unconnected-(M1-OUT_INJ2-PadE18)*%
X162250000Y-87250006D03*
%TO.P,M1,E19,OUT_INJ1*%
%TO.N,unconnected-(M1-OUT_INJ1-PadE19)*%
X162249997Y-88050007D03*
%TO.P,M1,E20,OUT_IO13*%
%TO.N,unconnected-(M1-OUT_IO13-PadE20)*%
X162249997Y-88850008D03*
%TO.P,M1,E21,OUT_IO4*%
%TO.N,unconnected-(M1-OUT_IO4-PadE21)*%
X162250000Y-89650007D03*
%TO.P,M1,E22,OUT_IO8*%
%TO.N,unconnected-(M1-OUT_IO8-PadE22)*%
X162250000Y-90450008D03*
%TO.P,M1,E23,OUT_IO7*%
%TO.N,unconnected-(M1-OUT_IO7-PadE23)*%
X162250000Y-91250009D03*
%TO.P,M1,E24,OUT_IO11*%
%TO.N,unconnected-(M1-OUT_IO11-PadE24)*%
X162250000Y-92050007D03*
%TO.P,M1,E25,OUT_PWM7*%
%TO.N,unconnected-(M1-OUT_PWM7-PadE25)*%
X162250000Y-92850008D03*
%TO.P,M1,E26,OUT_PWM6*%
%TO.N,unconnected-(M1-OUT_PWM6-PadE26)*%
X162250000Y-93650006D03*
%TO.P,M1,E27,OUT_PWM1*%
%TO.N,unconnected-(M1-OUT_PWM1-PadE27)*%
X162250000Y-94450007D03*
%TO.P,M1,E28,OUT_PWM8*%
%TO.N,unconnected-(M1-OUT_PWM8-PadE28)*%
X162250000Y-95250008D03*
%TO.P,M1,E29,OUT_INJ3*%
%TO.N,unconnected-(M1-OUT_INJ3-PadE29)*%
X162250000Y-96050007D03*
%TO.P,M1,E30,OUT_INJ4*%
%TO.N,unconnected-(M1-OUT_INJ4-PadE30)*%
X162250000Y-96850008D03*
%TO.P,M1,E31,OUT_INJ5*%
%TO.N,unconnected-(M1-OUT_INJ5-PadE31)*%
X162249997Y-97650006D03*
%TO.P,M1,E32,OUT_INJ6*%
%TO.N,unconnected-(M1-OUT_INJ6-PadE32)*%
X162250000Y-98450009D03*
%TO.P,M1,E33,OUT_INJ7*%
%TO.N,unconnected-(M1-OUT_INJ7-PadE33)*%
X162250000Y-99250008D03*
%TO.P,M1,E34,OUT_INJ8*%
%TO.N,unconnected-(M1-OUT_INJ8-PadE34)*%
X162250000Y-100050006D03*
%TO.P,M1,E35,IO6*%
%TO.N,unconnected-(M1-IO6-PadE35)*%
X162250000Y-100850007D03*
%TO.P,M1,E36,IO7*%
%TO.N,unconnected-(M1-IO7-PadE36)*%
X162250000Y-101650008D03*
%TO.P,M1,E38,V5A_SWITCHABLE*%
%TO.N,unconnected-(M1-V5A_SWITCHABLE-PadE38)*%
X162249997Y-108350002D03*
%TO.P,M1,E39,GNDA*%
%TO.N,unconnected-(M1-GNDA-PadE39)*%
X162250000Y-109150003D03*
D14*
%TO.P,M1,G,GND*%
%TO.N,unconnected-(M1-GND-PadG)*%
X120349995Y-110500003D03*
D15*
X120349997Y-104650000D03*
D16*
X120349998Y-76650003D03*
D17*
X120349998Y-98450003D03*
D18*
X122150004Y-111550006D03*
D19*
X123549999Y-71650005D03*
D20*
X132050002Y-71650005D03*
D21*
X141900005Y-71650005D03*
D22*
X162450000Y-73150004D03*
D23*
X162450000Y-105000007D03*
D24*
X162450000Y-110650000D03*
D13*
%TO.P,M1,N1,USBID*%
%TO.N,unconnected-(M1-USBID-PadN1)*%
X162250000Y-71850004D03*
%TO.P,M1,N2,USBM*%
%TO.N,unconnected-(M1-USBM-PadN2)*%
X161450002Y-71850002D03*
%TO.P,M1,N3,USBP*%
%TO.N,unconnected-(M1-USBP-PadN3)*%
X160650001Y-71850002D03*
%TO.P,M1,N4,VBUS*%
%TO.N,unconnected-(M1-VBUS-PadN4)*%
X159850002Y-71850004D03*
%TO.P,M1,N5,BOOT0*%
%TO.N,unconnected-(M1-BOOT0-PadN5)*%
X159050001Y-71850004D03*
%TO.P,M1,N6,SWO*%
%TO.N,unconnected-(M1-SWO-PadN6)*%
X158250000Y-71850004D03*
%TO.P,M1,N7,SWDIO*%
%TO.N,unconnected-(M1-SWDIO-PadN7)*%
X157450002Y-71850004D03*
%TO.P,M1,N8,SWCLK*%
%TO.N,unconnected-(M1-SWCLK-PadN8)*%
X156650001Y-71850002D03*
%TO.P,M1,N9,nReset*%
%TO.N,unconnected-(M1-nReset-PadN9)*%
X155850003Y-71850004D03*
%TO.P,M1,N10,SPI3_CS*%
%TO.N,unconnected-(M1-SPI3_CS-PadN10)*%
X155050002Y-71850004D03*
%TO.P,M1,N11,SPI3_SCK*%
%TO.N,unconnected-(M1-SPI3_SCK-PadN11)*%
X154250001Y-71850004D03*
%TO.P,M1,N12,SPI3_MISO*%
%TO.N,unconnected-(M1-SPI3_MISO-PadN12)*%
X153450000Y-71850004D03*
%TO.P,M1,N13,SPI3_MOSI*%
%TO.N,unconnected-(M1-SPI3_MOSI-PadN13)*%
X152650001Y-71850004D03*
%TO.P,M1,N14,I2C_SCL*%
%TO.N,unconnected-(M1-I2C_SCL-PadN14)*%
X151850000Y-71850004D03*
%TO.P,M1,N15,I2C_SDA*%
%TO.N,unconnected-(M1-I2C_SDA-PadN15)*%
X151049999Y-71850002D03*
%TO.P,M1,N16,IO1*%
%TO.N,unconnected-(M1-IO1-PadN16)*%
X150249999Y-71850002D03*
%TO.P,M1,N17,UART2_TX*%
%TO.N,unconnected-(M1-UART2_TX-PadN17)*%
X149450000Y-71850004D03*
%TO.P,M1,N18,UART2_RX*%
%TO.N,unconnected-(M1-UART2_RX-PadN18)*%
X148649999Y-71850004D03*
%TO.P,M1,N19,IO2*%
%TO.N,unconnected-(M1-IO2-PadN19)*%
X147850001Y-71850004D03*
%TO.P,M1,N20,IO4*%
%TO.N,unconnected-(M1-IO4-PadN20)*%
X147050000Y-71850004D03*
%TO.P,M1,N21,IO3*%
%TO.N,unconnected-(M1-IO3-PadN21)*%
X146250001Y-71850002D03*
%TO.P,M1,N22,V33*%
%TO.N,unconnected-(M1-V33-PadN22)*%
X145450000Y-71850004D03*
%TO.P,M1,N23,IO5*%
%TO.N,unconnected-(M1-IO5-PadN23)*%
X144650000Y-71850004D03*
%TO.P,M1,N24,UART8_RX*%
%TO.N,unconnected-(M1-UART8_RX-PadN24)*%
X139150000Y-71850004D03*
%TO.P,M1,N25,UART8_TX*%
%TO.N,unconnected-(M1-UART8_TX-PadN25)*%
X138349999Y-71850004D03*
%TO.P,M1,N26,IN_VIGN*%
%TO.N,unconnected-(M1-IN_VIGN-PadN26)*%
X137550001Y-71850004D03*
%TO.P,M1,N27,VBAT*%
%TO.N,unconnected-(M1-VBAT-PadN27)*%
X136750003Y-71850004D03*
%TO.P,M1,N28,V33_SWITCHABLE*%
%TO.N,unconnected-(M1-V33_SWITCHABLE-PadN28)*%
X135950004Y-71850004D03*
%TO.P,M1,N29,OUT_PWR_EN*%
%TO.N,unconnected-(M1-OUT_PWR_EN-PadN29)*%
X128150000Y-71850004D03*
%TO.P,M1,N30,V5A_SWITCHABLE*%
%TO.N,unconnected-(M1-V5A_SWITCHABLE-PadN30)*%
X127350001Y-71850004D03*
%TO.P,M1,N31,VCC*%
%TO.N,unconnected-(M1-VCC-PadN31)*%
X126550003Y-71850004D03*
%TO.P,M1,N32,V33*%
%TO.N,unconnected-(M1-V33-PadN32)*%
X120549999Y-71850004D03*
%TO.P,M1,S1,IN_D4*%
%TO.N,unconnected-(M1-IN_D4-PadS1)*%
X161649999Y-111350009D03*
%TO.P,M1,S2,IN_D3*%
%TO.N,unconnected-(M1-IN_D3-PadS2)*%
X160449998Y-111350007D03*
%TO.P,M1,S3,IN_D2*%
%TO.N,unconnected-(M1-IN_D2-PadS3)*%
X159250001Y-111350007D03*
%TO.P,M1,S4,IN_D1*%
%TO.N,unconnected-(M1-IN_D1-PadS4)*%
X158050001Y-111350009D03*
%TO.P,M1,S5,VREF2*%
%TO.N,unconnected-(M1-VREF2-PadS5)*%
X156850001Y-111350007D03*
%TO.P,M1,S6,IN_SENS4*%
%TO.N,unconnected-(M1-IN_SENS4-PadS6)*%
X155750013Y-111350007D03*
%TO.P,M1,S7,IN_SENS3*%
%TO.N,unconnected-(M1-IN_SENS3-PadS7)*%
X154550013Y-111350007D03*
%TO.P,M1,S8,IN_SENS2*%
%TO.N,unconnected-(M1-IN_SENS2-PadS8)*%
X153350015Y-111350009D03*
%TO.P,M1,S9,IN_SENS1*%
%TO.N,unconnected-(M1-IN_SENS1-PadS9)*%
X152150015Y-111350007D03*
%TO.P,M1,S10,IN_AUX4*%
%TO.N,unconnected-(M1-IN_AUX4-PadS10)*%
X150950012Y-111350007D03*
%TO.P,M1,S11,IN_AUX3*%
%TO.N,unconnected-(M1-IN_AUX3-PadS11)*%
X149750010Y-111350009D03*
%TO.P,M1,S12,IN_AUX2*%
%TO.N,unconnected-(M1-IN_AUX2-PadS12)*%
X148550012Y-111350007D03*
%TO.P,M1,S13,IN_AUX1*%
%TO.N,unconnected-(M1-IN_AUX1-PadS13)*%
X147350014Y-111350007D03*
%TO.P,M1,S14,IN_RES2*%
%TO.N,unconnected-(M1-IN_RES2-PadS14)*%
X146150007Y-111350007D03*
%TO.P,M1,S15,IN_O2S2*%
%TO.N,unconnected-(M1-IN_O2S2-PadS15)*%
X144950007Y-111350007D03*
%TO.P,M1,S16,IN_O2S*%
%TO.N,unconnected-(M1-IN_O2S-PadS16)*%
X143750009Y-111350007D03*
%TO.P,M1,S17,IN_RES1*%
%TO.N,unconnected-(M1-IN_RES1-PadS17)*%
X142550009Y-111350007D03*
%TO.P,M1,S18,IN_RES3*%
%TO.N,unconnected-(M1-IN_RES3-PadS18)*%
X141350004Y-111350007D03*
%TO.P,M1,S19,IN_MAP3*%
%TO.N,unconnected-(M1-IN_MAP3-PadS19)*%
X140150003Y-111350007D03*
%TO.P,M1,S20,IN_MAP2*%
%TO.N,unconnected-(M1-IN_MAP2-PadS20)*%
X138950006Y-111350009D03*
%TO.P,M1,S21,IN_MAP1*%
%TO.N,unconnected-(M1-IN_MAP1-PadS21)*%
X137750006Y-111350007D03*
%TO.P,M1,S22,IN_CRANK*%
%TO.N,unconnected-(M1-IN_CRANK-PadS22)*%
X136550003Y-111350009D03*
%TO.P,M1,S23,IN_KNOCK*%
%TO.N,unconnected-(M1-IN_KNOCK-PadS23)*%
X135350003Y-111350007D03*
%TO.P,M1,S24,IN_CAM*%
%TO.N,unconnected-(M1-IN_CAM-PadS24)*%
X134150008Y-111350007D03*
%TO.P,M1,S25,IN_VSS*%
%TO.N,unconnected-(M1-IN_VSS-PadS25)*%
X132950005Y-111350009D03*
%TO.P,M1,S26,IN_IAT*%
%TO.N,unconnected-(M1-IN_IAT-PadS26)*%
X131750000Y-111350007D03*
%TO.P,M1,S27,IN_AT1*%
%TO.N,unconnected-(M1-IN_AT1-PadS27)*%
X130550000Y-111350009D03*
%TO.P,M1,S28,IN_CLT*%
%TO.N,unconnected-(M1-IN_CLT-PadS28)*%
X129350002Y-111350007D03*
%TO.P,M1,S29,IN_AT2*%
%TO.N,unconnected-(M1-IN_AT2-PadS29)*%
X128150002Y-111350007D03*
%TO.P,M1,S30,IN_TPS*%
%TO.N,unconnected-(M1-IN_TPS-PadS30)*%
X126949997Y-111350007D03*
%TO.P,M1,S31,IN_PPS*%
%TO.N,unconnected-(M1-IN_PPS-PadS31)*%
X125749997Y-111350007D03*
%TO.P,M1,S32,IN_TPS2*%
%TO.N,unconnected-(M1-IN_TPS2-PadS32)*%
X124549999Y-111350007D03*
%TO.P,M1,S33,IN_PPS2*%
%TO.N,unconnected-(M1-IN_PPS2-PadS33)*%
X123349999Y-111350007D03*
%TO.P,M1,S35,VREF1*%
%TO.N,unconnected-(M1-VREF1-PadS35)*%
X120949999Y-111350007D03*
%TO.P,M1,W1,GNDA*%
%TO.N,unconnected-(M1-GNDA-PadW1)*%
X120549997Y-108850004D03*
%TO.P,M1,W2,V5A_SWITCHABLE*%
%TO.N,unconnected-(M1-V5A_SWITCHABLE-PadW2)*%
X120549997Y-107850003D03*
%TO.P,M1,W3,V33_REF*%
%TO.N,unconnected-(M1-V33_REF-PadW3)*%
X120549999Y-101450001D03*
%TO.P,M1,W3a,BOOT1*%
%TO.N,unconnected-(M1-BOOT1-PadW3a)*%
X120549998Y-95450003D03*
%TO.P,M1,W4,IGN8*%
%TO.N,unconnected-(M1-IGN8-PadW4)*%
X120549999Y-94450005D03*
%TO.P,M1,W5,IGN7*%
%TO.N,unconnected-(M1-IGN7-PadW5)*%
X120549999Y-93450004D03*
%TO.P,M1,W6,IGN6*%
%TO.N,unconnected-(M1-IGN6-PadW6)*%
X120549999Y-92450006D03*
%TO.P,M1,W7,IGN5*%
%TO.N,unconnected-(M1-IGN5-PadW7)*%
X120549999Y-91450006D03*
%TO.P,M1,W8,IGN4*%
%TO.N,unconnected-(M1-IGN4-PadW8)*%
X120549999Y-90450005D03*
%TO.P,M1,W9,IGN3*%
%TO.N,unconnected-(M1-IGN3-PadW9)*%
X120549999Y-89450007D03*
%TO.P,M1,W10,IGN2*%
%TO.N,unconnected-(M1-IGN2-PadW10)*%
X120549999Y-88450007D03*
%TO.P,M1,W11,IGN1*%
%TO.N,unconnected-(M1-IGN1-PadW11)*%
X120549999Y-87450009D03*
%TO.P,M1,W11a,LED_RED*%
%TO.N,unconnected-(M1-LED_RED-PadW11a)*%
X120549998Y-86450003D03*
%TO.P,M1,W11b,LED_GREEN*%
%TO.N,unconnected-(M1-LED_GREEN-PadW11b)*%
X120549998Y-85450003D03*
%TO.P,M1,W11c,LED_BLUE*%
%TO.N,unconnected-(M1-LED_BLUE-PadW11c)*%
X120549998Y-84450003D03*
%TO.P,M1,W11d,LED_YELLOW*%
%TO.N,unconnected-(M1-LED_YELLOW-PadW11d)*%
X120549998Y-83450003D03*
%TO.P,M1,W12,CANH*%
%TO.N,unconnected-(M1-CANH-PadW12)*%
X120549998Y-82450003D03*
%TO.P,M1,W13,CANL*%
%TO.N,unconnected-(M1-CANL-PadW13)*%
X120549998Y-81450003D03*
%TD*%
D25*
%TO.N,*%
X197642201Y-122976399D03*
X92702201Y-122906399D03*
%TD*%
M02*
