%TF.GenerationSoftware,KiCad,Pcbnew,8.0.8*%
%TF.CreationDate,2026-02-06T20:56:35-05:00*%
%TF.ProjectId,greenecu48,67726565-6e65-4637-9534-382e6b696361,rev?*%
%TF.SameCoordinates,Original*%
%TF.FileFunction,Legend,Bot*%
%TF.FilePolarity,Positive*%
%FSLAX46Y46*%
G04 Gerber Fmt 4.6, Leading zero omitted, Abs format (unit mm)*
G04 Created by KiCad (PCBNEW 8.0.8) date 2026-02-06 20:56:35*
%MOMM*%
%LPD*%
G01*
G04 APERTURE LIST*
%ADD10C,0.127000*%
%ADD11C,0.170000*%
%ADD12C,0.200000*%
%ADD13C,0.120000*%
%ADD14C,0.203200*%
G04 APERTURE END LIST*
D10*
X159992844Y-41225303D02*
X159992844Y-41055970D01*
X160411892Y-41055970D02*
X159611892Y-41055970D01*
X159611892Y-41055970D02*
X159611892Y-41297875D01*
X160411892Y-41491399D02*
X159611892Y-41491399D01*
X159611892Y-41491399D02*
X159611892Y-41684923D01*
X159611892Y-41684923D02*
X159649987Y-41733304D01*
X159649987Y-41733304D02*
X159688082Y-41757494D01*
X159688082Y-41757494D02*
X159764273Y-41781685D01*
X159764273Y-41781685D02*
X159878558Y-41781685D01*
X159878558Y-41781685D02*
X159954749Y-41757494D01*
X159954749Y-41757494D02*
X159992844Y-41733304D01*
X159992844Y-41733304D02*
X160030939Y-41684923D01*
X160030939Y-41684923D02*
X160030939Y-41491399D01*
X160012844Y-38695780D02*
X160012844Y-38865113D01*
X160431892Y-38937685D02*
X160431892Y-38695780D01*
X160431892Y-38695780D02*
X159631892Y-38695780D01*
X159631892Y-38695780D02*
X159631892Y-38937685D01*
X159669987Y-39421494D02*
X159631892Y-39373113D01*
X159631892Y-39373113D02*
X159631892Y-39300542D01*
X159631892Y-39300542D02*
X159669987Y-39227970D01*
X159669987Y-39227970D02*
X159746177Y-39179589D01*
X159746177Y-39179589D02*
X159822368Y-39155399D01*
X159822368Y-39155399D02*
X159974749Y-39131208D01*
X159974749Y-39131208D02*
X160089035Y-39131208D01*
X160089035Y-39131208D02*
X160241416Y-39155399D01*
X160241416Y-39155399D02*
X160317606Y-39179589D01*
X160317606Y-39179589D02*
X160393797Y-39227970D01*
X160393797Y-39227970D02*
X160431892Y-39300542D01*
X160431892Y-39300542D02*
X160431892Y-39348923D01*
X160431892Y-39348923D02*
X160393797Y-39421494D01*
X160393797Y-39421494D02*
X160355701Y-39445685D01*
X160355701Y-39445685D02*
X160089035Y-39445685D01*
X160089035Y-39445685D02*
X160089035Y-39348923D01*
X159631892Y-39590827D02*
X159631892Y-39881113D01*
X160431892Y-39735970D02*
X159631892Y-39735970D01*
X160127130Y-40050447D02*
X160127130Y-40437495D01*
X160431892Y-40243971D02*
X159822368Y-40243971D01*
X157512844Y-41217684D02*
X157550939Y-41290256D01*
X157550939Y-41290256D02*
X157589035Y-41314446D01*
X157589035Y-41314446D02*
X157665225Y-41338637D01*
X157665225Y-41338637D02*
X157779511Y-41338637D01*
X157779511Y-41338637D02*
X157855701Y-41314446D01*
X157855701Y-41314446D02*
X157893797Y-41290256D01*
X157893797Y-41290256D02*
X157931892Y-41241875D01*
X157931892Y-41241875D02*
X157931892Y-41048351D01*
X157931892Y-41048351D02*
X157131892Y-41048351D01*
X157131892Y-41048351D02*
X157131892Y-41217684D01*
X157131892Y-41217684D02*
X157169987Y-41266065D01*
X157169987Y-41266065D02*
X157208082Y-41290256D01*
X157208082Y-41290256D02*
X157284273Y-41314446D01*
X157284273Y-41314446D02*
X157360463Y-41314446D01*
X157360463Y-41314446D02*
X157436654Y-41290256D01*
X157436654Y-41290256D02*
X157474749Y-41266065D01*
X157474749Y-41266065D02*
X157512844Y-41217684D01*
X157512844Y-41217684D02*
X157512844Y-41048351D01*
X157131892Y-41653113D02*
X157131892Y-41749875D01*
X157131892Y-41749875D02*
X157169987Y-41798256D01*
X157169987Y-41798256D02*
X157246177Y-41846637D01*
X157246177Y-41846637D02*
X157398558Y-41870827D01*
X157398558Y-41870827D02*
X157665225Y-41870827D01*
X157665225Y-41870827D02*
X157817606Y-41846637D01*
X157817606Y-41846637D02*
X157893797Y-41798256D01*
X157893797Y-41798256D02*
X157931892Y-41749875D01*
X157931892Y-41749875D02*
X157931892Y-41653113D01*
X157931892Y-41653113D02*
X157893797Y-41604732D01*
X157893797Y-41604732D02*
X157817606Y-41556351D01*
X157817606Y-41556351D02*
X157665225Y-41532160D01*
X157665225Y-41532160D02*
X157398558Y-41532160D01*
X157398558Y-41532160D02*
X157246177Y-41556351D01*
X157246177Y-41556351D02*
X157169987Y-41604732D01*
X157169987Y-41604732D02*
X157131892Y-41653113D01*
X157893797Y-42064350D02*
X157931892Y-42136922D01*
X157931892Y-42136922D02*
X157931892Y-42257874D01*
X157931892Y-42257874D02*
X157893797Y-42306255D01*
X157893797Y-42306255D02*
X157855701Y-42330446D01*
X157855701Y-42330446D02*
X157779511Y-42354636D01*
X157779511Y-42354636D02*
X157703320Y-42354636D01*
X157703320Y-42354636D02*
X157627130Y-42330446D01*
X157627130Y-42330446D02*
X157589035Y-42306255D01*
X157589035Y-42306255D02*
X157550939Y-42257874D01*
X157550939Y-42257874D02*
X157512844Y-42161112D01*
X157512844Y-42161112D02*
X157474749Y-42112731D01*
X157474749Y-42112731D02*
X157436654Y-42088541D01*
X157436654Y-42088541D02*
X157360463Y-42064350D01*
X157360463Y-42064350D02*
X157284273Y-42064350D01*
X157284273Y-42064350D02*
X157208082Y-42088541D01*
X157208082Y-42088541D02*
X157169987Y-42112731D01*
X157169987Y-42112731D02*
X157131892Y-42161112D01*
X157131892Y-42161112D02*
X157131892Y-42282065D01*
X157131892Y-42282065D02*
X157169987Y-42354636D01*
X157131892Y-42499779D02*
X157131892Y-42790065D01*
X157931892Y-42644922D02*
X157131892Y-42644922D01*
X157442844Y-38665780D02*
X157442844Y-38835113D01*
X157861892Y-38907685D02*
X157861892Y-38665780D01*
X157861892Y-38665780D02*
X157061892Y-38665780D01*
X157061892Y-38665780D02*
X157061892Y-38907685D01*
X157099987Y-39391494D02*
X157061892Y-39343113D01*
X157061892Y-39343113D02*
X157061892Y-39270542D01*
X157061892Y-39270542D02*
X157099987Y-39197970D01*
X157099987Y-39197970D02*
X157176177Y-39149589D01*
X157176177Y-39149589D02*
X157252368Y-39125399D01*
X157252368Y-39125399D02*
X157404749Y-39101208D01*
X157404749Y-39101208D02*
X157519035Y-39101208D01*
X157519035Y-39101208D02*
X157671416Y-39125399D01*
X157671416Y-39125399D02*
X157747606Y-39149589D01*
X157747606Y-39149589D02*
X157823797Y-39197970D01*
X157823797Y-39197970D02*
X157861892Y-39270542D01*
X157861892Y-39270542D02*
X157861892Y-39318923D01*
X157861892Y-39318923D02*
X157823797Y-39391494D01*
X157823797Y-39391494D02*
X157785701Y-39415685D01*
X157785701Y-39415685D02*
X157519035Y-39415685D01*
X157519035Y-39415685D02*
X157519035Y-39318923D01*
X157061892Y-39560827D02*
X157061892Y-39851113D01*
X157861892Y-39705970D02*
X157061892Y-39705970D01*
X157557130Y-40020447D02*
X157557130Y-40407495D01*
X154491892Y-41096447D02*
X155139511Y-41096447D01*
X155139511Y-41096447D02*
X155215701Y-41120637D01*
X155215701Y-41120637D02*
X155253797Y-41144828D01*
X155253797Y-41144828D02*
X155291892Y-41193209D01*
X155291892Y-41193209D02*
X155291892Y-41289971D01*
X155291892Y-41289971D02*
X155253797Y-41338352D01*
X155253797Y-41338352D02*
X155215701Y-41362542D01*
X155215701Y-41362542D02*
X155139511Y-41386733D01*
X155139511Y-41386733D02*
X154491892Y-41386733D01*
X155253797Y-41604446D02*
X155291892Y-41677018D01*
X155291892Y-41677018D02*
X155291892Y-41797970D01*
X155291892Y-41797970D02*
X155253797Y-41846351D01*
X155253797Y-41846351D02*
X155215701Y-41870542D01*
X155215701Y-41870542D02*
X155139511Y-41894732D01*
X155139511Y-41894732D02*
X155063320Y-41894732D01*
X155063320Y-41894732D02*
X154987130Y-41870542D01*
X154987130Y-41870542D02*
X154949035Y-41846351D01*
X154949035Y-41846351D02*
X154910939Y-41797970D01*
X154910939Y-41797970D02*
X154872844Y-41701208D01*
X154872844Y-41701208D02*
X154834749Y-41652827D01*
X154834749Y-41652827D02*
X154796654Y-41628637D01*
X154796654Y-41628637D02*
X154720463Y-41604446D01*
X154720463Y-41604446D02*
X154644273Y-41604446D01*
X154644273Y-41604446D02*
X154568082Y-41628637D01*
X154568082Y-41628637D02*
X154529987Y-41652827D01*
X154529987Y-41652827D02*
X154491892Y-41701208D01*
X154491892Y-41701208D02*
X154491892Y-41822161D01*
X154491892Y-41822161D02*
X154529987Y-41894732D01*
X154872844Y-42281780D02*
X154910939Y-42354352D01*
X154910939Y-42354352D02*
X154949035Y-42378542D01*
X154949035Y-42378542D02*
X155025225Y-42402733D01*
X155025225Y-42402733D02*
X155139511Y-42402733D01*
X155139511Y-42402733D02*
X155215701Y-42378542D01*
X155215701Y-42378542D02*
X155253797Y-42354352D01*
X155253797Y-42354352D02*
X155291892Y-42305971D01*
X155291892Y-42305971D02*
X155291892Y-42112447D01*
X155291892Y-42112447D02*
X154491892Y-42112447D01*
X154491892Y-42112447D02*
X154491892Y-42281780D01*
X154491892Y-42281780D02*
X154529987Y-42330161D01*
X154529987Y-42330161D02*
X154568082Y-42354352D01*
X154568082Y-42354352D02*
X154644273Y-42378542D01*
X154644273Y-42378542D02*
X154720463Y-42378542D01*
X154720463Y-42378542D02*
X154796654Y-42354352D01*
X154796654Y-42354352D02*
X154834749Y-42330161D01*
X154834749Y-42330161D02*
X154872844Y-42281780D01*
X154872844Y-42281780D02*
X154872844Y-42112447D01*
X154987130Y-42620447D02*
X154987130Y-43007495D01*
X155291892Y-42813971D02*
X154682368Y-42813971D01*
X155305701Y-38991876D02*
X155343797Y-38967685D01*
X155343797Y-38967685D02*
X155381892Y-38895114D01*
X155381892Y-38895114D02*
X155381892Y-38846733D01*
X155381892Y-38846733D02*
X155343797Y-38774161D01*
X155343797Y-38774161D02*
X155267606Y-38725780D01*
X155267606Y-38725780D02*
X155191416Y-38701590D01*
X155191416Y-38701590D02*
X155039035Y-38677399D01*
X155039035Y-38677399D02*
X154924749Y-38677399D01*
X154924749Y-38677399D02*
X154772368Y-38701590D01*
X154772368Y-38701590D02*
X154696177Y-38725780D01*
X154696177Y-38725780D02*
X154619987Y-38774161D01*
X154619987Y-38774161D02*
X154581892Y-38846733D01*
X154581892Y-38846733D02*
X154581892Y-38895114D01*
X154581892Y-38895114D02*
X154619987Y-38967685D01*
X154619987Y-38967685D02*
X154658082Y-38991876D01*
X155153320Y-39185399D02*
X155153320Y-39427304D01*
X155381892Y-39137018D02*
X154581892Y-39306352D01*
X154581892Y-39306352D02*
X155381892Y-39475685D01*
X155381892Y-39645019D02*
X154581892Y-39645019D01*
X154581892Y-39645019D02*
X155381892Y-39935305D01*
X155381892Y-39935305D02*
X154581892Y-39935305D01*
X155381892Y-40177209D02*
X154581892Y-40177209D01*
X154962844Y-40177209D02*
X154962844Y-40467495D01*
X155381892Y-40467495D02*
X154581892Y-40467495D01*
X152432844Y-41244732D02*
X152470939Y-41317304D01*
X152470939Y-41317304D02*
X152509035Y-41341494D01*
X152509035Y-41341494D02*
X152585225Y-41365685D01*
X152585225Y-41365685D02*
X152699511Y-41365685D01*
X152699511Y-41365685D02*
X152775701Y-41341494D01*
X152775701Y-41341494D02*
X152813797Y-41317304D01*
X152813797Y-41317304D02*
X152851892Y-41268923D01*
X152851892Y-41268923D02*
X152851892Y-41075399D01*
X152851892Y-41075399D02*
X152051892Y-41075399D01*
X152051892Y-41075399D02*
X152051892Y-41244732D01*
X152051892Y-41244732D02*
X152089987Y-41293113D01*
X152089987Y-41293113D02*
X152128082Y-41317304D01*
X152128082Y-41317304D02*
X152204273Y-41341494D01*
X152204273Y-41341494D02*
X152280463Y-41341494D01*
X152280463Y-41341494D02*
X152356654Y-41317304D01*
X152356654Y-41317304D02*
X152394749Y-41293113D01*
X152394749Y-41293113D02*
X152432844Y-41244732D01*
X152432844Y-41244732D02*
X152432844Y-41075399D01*
X152051892Y-41583399D02*
X152699511Y-41583399D01*
X152699511Y-41583399D02*
X152775701Y-41607589D01*
X152775701Y-41607589D02*
X152813797Y-41631780D01*
X152813797Y-41631780D02*
X152851892Y-41680161D01*
X152851892Y-41680161D02*
X152851892Y-41776923D01*
X152851892Y-41776923D02*
X152813797Y-41825304D01*
X152813797Y-41825304D02*
X152775701Y-41849494D01*
X152775701Y-41849494D02*
X152699511Y-41873685D01*
X152699511Y-41873685D02*
X152051892Y-41873685D01*
X152051892Y-42067208D02*
X152051892Y-42405875D01*
X152051892Y-42405875D02*
X152851892Y-42067208D01*
X152851892Y-42067208D02*
X152851892Y-42405875D01*
X151991892Y-38656447D02*
X152639511Y-38656447D01*
X152639511Y-38656447D02*
X152715701Y-38680637D01*
X152715701Y-38680637D02*
X152753797Y-38704828D01*
X152753797Y-38704828D02*
X152791892Y-38753209D01*
X152791892Y-38753209D02*
X152791892Y-38849971D01*
X152791892Y-38849971D02*
X152753797Y-38898352D01*
X152753797Y-38898352D02*
X152715701Y-38922542D01*
X152715701Y-38922542D02*
X152639511Y-38946733D01*
X152639511Y-38946733D02*
X151991892Y-38946733D01*
X152753797Y-39164446D02*
X152791892Y-39237018D01*
X152791892Y-39237018D02*
X152791892Y-39357970D01*
X152791892Y-39357970D02*
X152753797Y-39406351D01*
X152753797Y-39406351D02*
X152715701Y-39430542D01*
X152715701Y-39430542D02*
X152639511Y-39454732D01*
X152639511Y-39454732D02*
X152563320Y-39454732D01*
X152563320Y-39454732D02*
X152487130Y-39430542D01*
X152487130Y-39430542D02*
X152449035Y-39406351D01*
X152449035Y-39406351D02*
X152410939Y-39357970D01*
X152410939Y-39357970D02*
X152372844Y-39261208D01*
X152372844Y-39261208D02*
X152334749Y-39212827D01*
X152334749Y-39212827D02*
X152296654Y-39188637D01*
X152296654Y-39188637D02*
X152220463Y-39164446D01*
X152220463Y-39164446D02*
X152144273Y-39164446D01*
X152144273Y-39164446D02*
X152068082Y-39188637D01*
X152068082Y-39188637D02*
X152029987Y-39212827D01*
X152029987Y-39212827D02*
X151991892Y-39261208D01*
X151991892Y-39261208D02*
X151991892Y-39382161D01*
X151991892Y-39382161D02*
X152029987Y-39454732D01*
X152372844Y-39841780D02*
X152410939Y-39914352D01*
X152410939Y-39914352D02*
X152449035Y-39938542D01*
X152449035Y-39938542D02*
X152525225Y-39962733D01*
X152525225Y-39962733D02*
X152639511Y-39962733D01*
X152639511Y-39962733D02*
X152715701Y-39938542D01*
X152715701Y-39938542D02*
X152753797Y-39914352D01*
X152753797Y-39914352D02*
X152791892Y-39865971D01*
X152791892Y-39865971D02*
X152791892Y-39672447D01*
X152791892Y-39672447D02*
X151991892Y-39672447D01*
X151991892Y-39672447D02*
X151991892Y-39841780D01*
X151991892Y-39841780D02*
X152029987Y-39890161D01*
X152029987Y-39890161D02*
X152068082Y-39914352D01*
X152068082Y-39914352D02*
X152144273Y-39938542D01*
X152144273Y-39938542D02*
X152220463Y-39938542D01*
X152220463Y-39938542D02*
X152296654Y-39914352D01*
X152296654Y-39914352D02*
X152334749Y-39890161D01*
X152334749Y-39890161D02*
X152372844Y-39841780D01*
X152372844Y-39841780D02*
X152372844Y-39672447D01*
X152487130Y-40180447D02*
X152487130Y-40567495D01*
X149451892Y-41004160D02*
X149451892Y-41294446D01*
X150251892Y-41149303D02*
X149451892Y-41149303D01*
X150023320Y-41439589D02*
X150023320Y-41681494D01*
X150251892Y-41391208D02*
X149451892Y-41560542D01*
X149451892Y-41560542D02*
X150251892Y-41729875D01*
X150175701Y-42189495D02*
X150213797Y-42165304D01*
X150213797Y-42165304D02*
X150251892Y-42092733D01*
X150251892Y-42092733D02*
X150251892Y-42044352D01*
X150251892Y-42044352D02*
X150213797Y-41971780D01*
X150213797Y-41971780D02*
X150137606Y-41923399D01*
X150137606Y-41923399D02*
X150061416Y-41899209D01*
X150061416Y-41899209D02*
X149909035Y-41875018D01*
X149909035Y-41875018D02*
X149794749Y-41875018D01*
X149794749Y-41875018D02*
X149642368Y-41899209D01*
X149642368Y-41899209D02*
X149566177Y-41923399D01*
X149566177Y-41923399D02*
X149489987Y-41971780D01*
X149489987Y-41971780D02*
X149451892Y-42044352D01*
X149451892Y-42044352D02*
X149451892Y-42092733D01*
X149451892Y-42092733D02*
X149489987Y-42165304D01*
X149489987Y-42165304D02*
X149528082Y-42189495D01*
X150251892Y-42407209D02*
X149451892Y-42407209D01*
X149832844Y-42407209D02*
X149832844Y-42697495D01*
X150251892Y-42697495D02*
X149451892Y-42697495D01*
X149491892Y-38992065D02*
X149491892Y-38750160D01*
X149491892Y-38750160D02*
X149872844Y-38725969D01*
X149872844Y-38725969D02*
X149834749Y-38750160D01*
X149834749Y-38750160D02*
X149796654Y-38798541D01*
X149796654Y-38798541D02*
X149796654Y-38919493D01*
X149796654Y-38919493D02*
X149834749Y-38967874D01*
X149834749Y-38967874D02*
X149872844Y-38992065D01*
X149872844Y-38992065D02*
X149949035Y-39016255D01*
X149949035Y-39016255D02*
X150139511Y-39016255D01*
X150139511Y-39016255D02*
X150215701Y-38992065D01*
X150215701Y-38992065D02*
X150253797Y-38967874D01*
X150253797Y-38967874D02*
X150291892Y-38919493D01*
X150291892Y-38919493D02*
X150291892Y-38798541D01*
X150291892Y-38798541D02*
X150253797Y-38750160D01*
X150253797Y-38750160D02*
X150215701Y-38725969D01*
X149491892Y-39161398D02*
X150291892Y-39330732D01*
X150291892Y-39330732D02*
X149491892Y-39500065D01*
X146891892Y-41232828D02*
X146891892Y-41329590D01*
X146891892Y-41329590D02*
X146929987Y-41377971D01*
X146929987Y-41377971D02*
X147006177Y-41426352D01*
X147006177Y-41426352D02*
X147158558Y-41450542D01*
X147158558Y-41450542D02*
X147425225Y-41450542D01*
X147425225Y-41450542D02*
X147577606Y-41426352D01*
X147577606Y-41426352D02*
X147653797Y-41377971D01*
X147653797Y-41377971D02*
X147691892Y-41329590D01*
X147691892Y-41329590D02*
X147691892Y-41232828D01*
X147691892Y-41232828D02*
X147653797Y-41184447D01*
X147653797Y-41184447D02*
X147577606Y-41136066D01*
X147577606Y-41136066D02*
X147425225Y-41111875D01*
X147425225Y-41111875D02*
X147158558Y-41111875D01*
X147158558Y-41111875D02*
X147006177Y-41136066D01*
X147006177Y-41136066D02*
X146929987Y-41184447D01*
X146929987Y-41184447D02*
X146891892Y-41232828D01*
X147691892Y-41668256D02*
X146891892Y-41668256D01*
X147691892Y-42152066D02*
X147691892Y-41910161D01*
X147691892Y-41910161D02*
X146891892Y-41910161D01*
X147691892Y-42321399D02*
X146891892Y-42321399D01*
X146891892Y-42321399D02*
X146891892Y-42514923D01*
X146891892Y-42514923D02*
X146929987Y-42563304D01*
X146929987Y-42563304D02*
X146968082Y-42587494D01*
X146968082Y-42587494D02*
X147044273Y-42611685D01*
X147044273Y-42611685D02*
X147158558Y-42611685D01*
X147158558Y-42611685D02*
X147234749Y-42587494D01*
X147234749Y-42587494D02*
X147272844Y-42563304D01*
X147272844Y-42563304D02*
X147310939Y-42514923D01*
X147310939Y-42514923D02*
X147310939Y-42321399D01*
X147031892Y-38607969D02*
X147031892Y-38898255D01*
X147831892Y-38753112D02*
X147031892Y-38753112D01*
X147831892Y-39067589D02*
X147031892Y-39067589D01*
X147031892Y-39067589D02*
X147031892Y-39261113D01*
X147031892Y-39261113D02*
X147069987Y-39309494D01*
X147069987Y-39309494D02*
X147108082Y-39333684D01*
X147108082Y-39333684D02*
X147184273Y-39357875D01*
X147184273Y-39357875D02*
X147298558Y-39357875D01*
X147298558Y-39357875D02*
X147374749Y-39333684D01*
X147374749Y-39333684D02*
X147412844Y-39309494D01*
X147412844Y-39309494D02*
X147450939Y-39261113D01*
X147450939Y-39261113D02*
X147450939Y-39067589D01*
X147793797Y-39551398D02*
X147831892Y-39623970D01*
X147831892Y-39623970D02*
X147831892Y-39744922D01*
X147831892Y-39744922D02*
X147793797Y-39793303D01*
X147793797Y-39793303D02*
X147755701Y-39817494D01*
X147755701Y-39817494D02*
X147679511Y-39841684D01*
X147679511Y-39841684D02*
X147603320Y-39841684D01*
X147603320Y-39841684D02*
X147527130Y-39817494D01*
X147527130Y-39817494D02*
X147489035Y-39793303D01*
X147489035Y-39793303D02*
X147450939Y-39744922D01*
X147450939Y-39744922D02*
X147412844Y-39648160D01*
X147412844Y-39648160D02*
X147374749Y-39599779D01*
X147374749Y-39599779D02*
X147336654Y-39575589D01*
X147336654Y-39575589D02*
X147260463Y-39551398D01*
X147260463Y-39551398D02*
X147184273Y-39551398D01*
X147184273Y-39551398D02*
X147108082Y-39575589D01*
X147108082Y-39575589D02*
X147069987Y-39599779D01*
X147069987Y-39599779D02*
X147031892Y-39648160D01*
X147031892Y-39648160D02*
X147031892Y-39769113D01*
X147031892Y-39769113D02*
X147069987Y-39841684D01*
X145125701Y-41403399D02*
X145163797Y-41379208D01*
X145163797Y-41379208D02*
X145201892Y-41306637D01*
X145201892Y-41306637D02*
X145201892Y-41258256D01*
X145201892Y-41258256D02*
X145163797Y-41185684D01*
X145163797Y-41185684D02*
X145087606Y-41137303D01*
X145087606Y-41137303D02*
X145011416Y-41113113D01*
X145011416Y-41113113D02*
X144859035Y-41088922D01*
X144859035Y-41088922D02*
X144744749Y-41088922D01*
X144744749Y-41088922D02*
X144592368Y-41113113D01*
X144592368Y-41113113D02*
X144516177Y-41137303D01*
X144516177Y-41137303D02*
X144439987Y-41185684D01*
X144439987Y-41185684D02*
X144401892Y-41258256D01*
X144401892Y-41258256D02*
X144401892Y-41306637D01*
X144401892Y-41306637D02*
X144439987Y-41379208D01*
X144439987Y-41379208D02*
X144478082Y-41403399D01*
X145201892Y-41863018D02*
X145201892Y-41621113D01*
X145201892Y-41621113D02*
X144401892Y-41621113D01*
X144401892Y-41959779D02*
X144401892Y-42250065D01*
X145201892Y-42104922D02*
X144401892Y-42104922D01*
X145361892Y-38685017D02*
X144561892Y-38685017D01*
X145133320Y-38902731D02*
X145133320Y-39144636D01*
X145361892Y-38854350D02*
X144561892Y-39023684D01*
X144561892Y-39023684D02*
X145361892Y-39193017D01*
X144561892Y-39289779D02*
X144561892Y-39580065D01*
X145361892Y-39434922D02*
X144561892Y-39434922D01*
X142625701Y-41385685D02*
X142663797Y-41361494D01*
X142663797Y-41361494D02*
X142701892Y-41288923D01*
X142701892Y-41288923D02*
X142701892Y-41240542D01*
X142701892Y-41240542D02*
X142663797Y-41167970D01*
X142663797Y-41167970D02*
X142587606Y-41119589D01*
X142587606Y-41119589D02*
X142511416Y-41095399D01*
X142511416Y-41095399D02*
X142359035Y-41071208D01*
X142359035Y-41071208D02*
X142244749Y-41071208D01*
X142244749Y-41071208D02*
X142092368Y-41095399D01*
X142092368Y-41095399D02*
X142016177Y-41119589D01*
X142016177Y-41119589D02*
X141939987Y-41167970D01*
X141939987Y-41167970D02*
X141901892Y-41240542D01*
X141901892Y-41240542D02*
X141901892Y-41288923D01*
X141901892Y-41288923D02*
X141939987Y-41361494D01*
X141939987Y-41361494D02*
X141978082Y-41385685D01*
X142473320Y-41579208D02*
X142473320Y-41821113D01*
X142701892Y-41530827D02*
X141901892Y-41700161D01*
X141901892Y-41700161D02*
X142701892Y-41869494D01*
X142701892Y-42038828D02*
X141901892Y-42038828D01*
X141901892Y-42038828D02*
X142473320Y-42208161D01*
X142473320Y-42208161D02*
X141901892Y-42377495D01*
X141901892Y-42377495D02*
X142701892Y-42377495D01*
X142811892Y-38755399D02*
X142011892Y-38755399D01*
X142011892Y-38755399D02*
X142583320Y-38924732D01*
X142583320Y-38924732D02*
X142011892Y-39094066D01*
X142011892Y-39094066D02*
X142811892Y-39094066D01*
X142583320Y-39311779D02*
X142583320Y-39553684D01*
X142811892Y-39263398D02*
X142011892Y-39432732D01*
X142011892Y-39432732D02*
X142811892Y-39602065D01*
X142811892Y-39771399D02*
X142011892Y-39771399D01*
X142011892Y-39771399D02*
X142011892Y-39964923D01*
X142011892Y-39964923D02*
X142049987Y-40013304D01*
X142049987Y-40013304D02*
X142088082Y-40037494D01*
X142088082Y-40037494D02*
X142164273Y-40061685D01*
X142164273Y-40061685D02*
X142278558Y-40061685D01*
X142278558Y-40061685D02*
X142354749Y-40037494D01*
X142354749Y-40037494D02*
X142392844Y-40013304D01*
X142392844Y-40013304D02*
X142430939Y-39964923D01*
X142430939Y-39964923D02*
X142430939Y-39771399D01*
X140271892Y-41322445D02*
X140271892Y-41032159D01*
X140271892Y-41177302D02*
X139471892Y-41177302D01*
X139471892Y-41177302D02*
X139586177Y-41128921D01*
X139586177Y-41128921D02*
X139662368Y-41080540D01*
X139662368Y-41080540D02*
X139700463Y-41032159D01*
X139548082Y-41515969D02*
X139509987Y-41540160D01*
X139509987Y-41540160D02*
X139471892Y-41588541D01*
X139471892Y-41588541D02*
X139471892Y-41709493D01*
X139471892Y-41709493D02*
X139509987Y-41757874D01*
X139509987Y-41757874D02*
X139548082Y-41782065D01*
X139548082Y-41782065D02*
X139624273Y-41806255D01*
X139624273Y-41806255D02*
X139700463Y-41806255D01*
X139700463Y-41806255D02*
X139814749Y-41782065D01*
X139814749Y-41782065D02*
X140271892Y-41491779D01*
X140271892Y-41491779D02*
X140271892Y-41806255D01*
X139471892Y-41951398D02*
X140271892Y-42120732D01*
X140271892Y-42120732D02*
X139471892Y-42290065D01*
X133559987Y-41337304D02*
X133521892Y-41288923D01*
X133521892Y-41288923D02*
X133521892Y-41216352D01*
X133521892Y-41216352D02*
X133559987Y-41143780D01*
X133559987Y-41143780D02*
X133636177Y-41095399D01*
X133636177Y-41095399D02*
X133712368Y-41071209D01*
X133712368Y-41071209D02*
X133864749Y-41047018D01*
X133864749Y-41047018D02*
X133979035Y-41047018D01*
X133979035Y-41047018D02*
X134131416Y-41071209D01*
X134131416Y-41071209D02*
X134207606Y-41095399D01*
X134207606Y-41095399D02*
X134283797Y-41143780D01*
X134283797Y-41143780D02*
X134321892Y-41216352D01*
X134321892Y-41216352D02*
X134321892Y-41264733D01*
X134321892Y-41264733D02*
X134283797Y-41337304D01*
X134283797Y-41337304D02*
X134245701Y-41361495D01*
X134245701Y-41361495D02*
X133979035Y-41361495D01*
X133979035Y-41361495D02*
X133979035Y-41264733D01*
X134321892Y-41579209D02*
X133521892Y-41579209D01*
X133521892Y-41579209D02*
X134321892Y-41869495D01*
X134321892Y-41869495D02*
X133521892Y-41869495D01*
X134321892Y-42111399D02*
X133521892Y-42111399D01*
X133521892Y-42111399D02*
X133521892Y-42232351D01*
X133521892Y-42232351D02*
X133559987Y-42304923D01*
X133559987Y-42304923D02*
X133636177Y-42353304D01*
X133636177Y-42353304D02*
X133712368Y-42377494D01*
X133712368Y-42377494D02*
X133864749Y-42401685D01*
X133864749Y-42401685D02*
X133979035Y-42401685D01*
X133979035Y-42401685D02*
X134131416Y-42377494D01*
X134131416Y-42377494D02*
X134207606Y-42353304D01*
X134207606Y-42353304D02*
X134283797Y-42304923D01*
X134283797Y-42304923D02*
X134321892Y-42232351D01*
X134321892Y-42232351D02*
X134321892Y-42111399D01*
X159429987Y-27181875D02*
X159391892Y-27133494D01*
X159391892Y-27133494D02*
X159391892Y-27060923D01*
X159391892Y-27060923D02*
X159429987Y-26988351D01*
X159429987Y-26988351D02*
X159506177Y-26939970D01*
X159506177Y-26939970D02*
X159582368Y-26915780D01*
X159582368Y-26915780D02*
X159734749Y-26891589D01*
X159734749Y-26891589D02*
X159849035Y-26891589D01*
X159849035Y-26891589D02*
X160001416Y-26915780D01*
X160001416Y-26915780D02*
X160077606Y-26939970D01*
X160077606Y-26939970D02*
X160153797Y-26988351D01*
X160153797Y-26988351D02*
X160191892Y-27060923D01*
X160191892Y-27060923D02*
X160191892Y-27109304D01*
X160191892Y-27109304D02*
X160153797Y-27181875D01*
X160153797Y-27181875D02*
X160115701Y-27206066D01*
X160115701Y-27206066D02*
X159849035Y-27206066D01*
X159849035Y-27206066D02*
X159849035Y-27109304D01*
X160191892Y-27423780D02*
X159391892Y-27423780D01*
X159391892Y-27423780D02*
X160191892Y-27714066D01*
X160191892Y-27714066D02*
X159391892Y-27714066D01*
X160191892Y-27955970D02*
X159391892Y-27955970D01*
X159391892Y-27955970D02*
X159391892Y-28076922D01*
X159391892Y-28076922D02*
X159429987Y-28149494D01*
X159429987Y-28149494D02*
X159506177Y-28197875D01*
X159506177Y-28197875D02*
X159582368Y-28222065D01*
X159582368Y-28222065D02*
X159734749Y-28246256D01*
X159734749Y-28246256D02*
X159849035Y-28246256D01*
X159849035Y-28246256D02*
X160001416Y-28222065D01*
X160001416Y-28222065D02*
X160077606Y-28197875D01*
X160077606Y-28197875D02*
X160153797Y-28149494D01*
X160153797Y-28149494D02*
X160191892Y-28076922D01*
X160191892Y-28076922D02*
X160191892Y-27955970D01*
X159963320Y-28439779D02*
X159963320Y-28681684D01*
X160191892Y-28391398D02*
X159391892Y-28560732D01*
X159391892Y-28560732D02*
X160191892Y-28730065D01*
X159309987Y-24561875D02*
X159271892Y-24513494D01*
X159271892Y-24513494D02*
X159271892Y-24440923D01*
X159271892Y-24440923D02*
X159309987Y-24368351D01*
X159309987Y-24368351D02*
X159386177Y-24319970D01*
X159386177Y-24319970D02*
X159462368Y-24295780D01*
X159462368Y-24295780D02*
X159614749Y-24271589D01*
X159614749Y-24271589D02*
X159729035Y-24271589D01*
X159729035Y-24271589D02*
X159881416Y-24295780D01*
X159881416Y-24295780D02*
X159957606Y-24319970D01*
X159957606Y-24319970D02*
X160033797Y-24368351D01*
X160033797Y-24368351D02*
X160071892Y-24440923D01*
X160071892Y-24440923D02*
X160071892Y-24489304D01*
X160071892Y-24489304D02*
X160033797Y-24561875D01*
X160033797Y-24561875D02*
X159995701Y-24586066D01*
X159995701Y-24586066D02*
X159729035Y-24586066D01*
X159729035Y-24586066D02*
X159729035Y-24489304D01*
X160071892Y-24803780D02*
X159271892Y-24803780D01*
X159271892Y-24803780D02*
X160071892Y-25094066D01*
X160071892Y-25094066D02*
X159271892Y-25094066D01*
X160071892Y-25335970D02*
X159271892Y-25335970D01*
X159271892Y-25335970D02*
X159271892Y-25456922D01*
X159271892Y-25456922D02*
X159309987Y-25529494D01*
X159309987Y-25529494D02*
X159386177Y-25577875D01*
X159386177Y-25577875D02*
X159462368Y-25602065D01*
X159462368Y-25602065D02*
X159614749Y-25626256D01*
X159614749Y-25626256D02*
X159729035Y-25626256D01*
X159729035Y-25626256D02*
X159881416Y-25602065D01*
X159881416Y-25602065D02*
X159957606Y-25577875D01*
X159957606Y-25577875D02*
X160033797Y-25529494D01*
X160033797Y-25529494D02*
X160071892Y-25456922D01*
X160071892Y-25456922D02*
X160071892Y-25335970D01*
X159843320Y-25819779D02*
X159843320Y-26061684D01*
X160071892Y-25771398D02*
X159271892Y-25940732D01*
X159271892Y-25940732D02*
X160071892Y-26110065D01*
X157059987Y-27181875D02*
X157021892Y-27133494D01*
X157021892Y-27133494D02*
X157021892Y-27060923D01*
X157021892Y-27060923D02*
X157059987Y-26988351D01*
X157059987Y-26988351D02*
X157136177Y-26939970D01*
X157136177Y-26939970D02*
X157212368Y-26915780D01*
X157212368Y-26915780D02*
X157364749Y-26891589D01*
X157364749Y-26891589D02*
X157479035Y-26891589D01*
X157479035Y-26891589D02*
X157631416Y-26915780D01*
X157631416Y-26915780D02*
X157707606Y-26939970D01*
X157707606Y-26939970D02*
X157783797Y-26988351D01*
X157783797Y-26988351D02*
X157821892Y-27060923D01*
X157821892Y-27060923D02*
X157821892Y-27109304D01*
X157821892Y-27109304D02*
X157783797Y-27181875D01*
X157783797Y-27181875D02*
X157745701Y-27206066D01*
X157745701Y-27206066D02*
X157479035Y-27206066D01*
X157479035Y-27206066D02*
X157479035Y-27109304D01*
X157821892Y-27423780D02*
X157021892Y-27423780D01*
X157021892Y-27423780D02*
X157821892Y-27714066D01*
X157821892Y-27714066D02*
X157021892Y-27714066D01*
X157821892Y-27955970D02*
X157021892Y-27955970D01*
X157021892Y-27955970D02*
X157021892Y-28076922D01*
X157021892Y-28076922D02*
X157059987Y-28149494D01*
X157059987Y-28149494D02*
X157136177Y-28197875D01*
X157136177Y-28197875D02*
X157212368Y-28222065D01*
X157212368Y-28222065D02*
X157364749Y-28246256D01*
X157364749Y-28246256D02*
X157479035Y-28246256D01*
X157479035Y-28246256D02*
X157631416Y-28222065D01*
X157631416Y-28222065D02*
X157707606Y-28197875D01*
X157707606Y-28197875D02*
X157783797Y-28149494D01*
X157783797Y-28149494D02*
X157821892Y-28076922D01*
X157821892Y-28076922D02*
X157821892Y-27955970D01*
X157593320Y-28439779D02*
X157593320Y-28681684D01*
X157821892Y-28391398D02*
X157021892Y-28560732D01*
X157021892Y-28560732D02*
X157821892Y-28730065D01*
X156939987Y-24561875D02*
X156901892Y-24513494D01*
X156901892Y-24513494D02*
X156901892Y-24440923D01*
X156901892Y-24440923D02*
X156939987Y-24368351D01*
X156939987Y-24368351D02*
X157016177Y-24319970D01*
X157016177Y-24319970D02*
X157092368Y-24295780D01*
X157092368Y-24295780D02*
X157244749Y-24271589D01*
X157244749Y-24271589D02*
X157359035Y-24271589D01*
X157359035Y-24271589D02*
X157511416Y-24295780D01*
X157511416Y-24295780D02*
X157587606Y-24319970D01*
X157587606Y-24319970D02*
X157663797Y-24368351D01*
X157663797Y-24368351D02*
X157701892Y-24440923D01*
X157701892Y-24440923D02*
X157701892Y-24489304D01*
X157701892Y-24489304D02*
X157663797Y-24561875D01*
X157663797Y-24561875D02*
X157625701Y-24586066D01*
X157625701Y-24586066D02*
X157359035Y-24586066D01*
X157359035Y-24586066D02*
X157359035Y-24489304D01*
X157701892Y-24803780D02*
X156901892Y-24803780D01*
X156901892Y-24803780D02*
X157701892Y-25094066D01*
X157701892Y-25094066D02*
X156901892Y-25094066D01*
X157701892Y-25335970D02*
X156901892Y-25335970D01*
X156901892Y-25335970D02*
X156901892Y-25456922D01*
X156901892Y-25456922D02*
X156939987Y-25529494D01*
X156939987Y-25529494D02*
X157016177Y-25577875D01*
X157016177Y-25577875D02*
X157092368Y-25602065D01*
X157092368Y-25602065D02*
X157244749Y-25626256D01*
X157244749Y-25626256D02*
X157359035Y-25626256D01*
X157359035Y-25626256D02*
X157511416Y-25602065D01*
X157511416Y-25602065D02*
X157587606Y-25577875D01*
X157587606Y-25577875D02*
X157663797Y-25529494D01*
X157663797Y-25529494D02*
X157701892Y-25456922D01*
X157701892Y-25456922D02*
X157701892Y-25335970D01*
X157473320Y-25819779D02*
X157473320Y-26061684D01*
X157701892Y-25771398D02*
X156901892Y-25940732D01*
X156901892Y-25940732D02*
X157701892Y-26110065D01*
X154379987Y-27311875D02*
X154341892Y-27263494D01*
X154341892Y-27263494D02*
X154341892Y-27190923D01*
X154341892Y-27190923D02*
X154379987Y-27118351D01*
X154379987Y-27118351D02*
X154456177Y-27069970D01*
X154456177Y-27069970D02*
X154532368Y-27045780D01*
X154532368Y-27045780D02*
X154684749Y-27021589D01*
X154684749Y-27021589D02*
X154799035Y-27021589D01*
X154799035Y-27021589D02*
X154951416Y-27045780D01*
X154951416Y-27045780D02*
X155027606Y-27069970D01*
X155027606Y-27069970D02*
X155103797Y-27118351D01*
X155103797Y-27118351D02*
X155141892Y-27190923D01*
X155141892Y-27190923D02*
X155141892Y-27239304D01*
X155141892Y-27239304D02*
X155103797Y-27311875D01*
X155103797Y-27311875D02*
X155065701Y-27336066D01*
X155065701Y-27336066D02*
X154799035Y-27336066D01*
X154799035Y-27336066D02*
X154799035Y-27239304D01*
X155141892Y-27553780D02*
X154341892Y-27553780D01*
X154341892Y-27553780D02*
X155141892Y-27844066D01*
X155141892Y-27844066D02*
X154341892Y-27844066D01*
X155141892Y-28085970D02*
X154341892Y-28085970D01*
X154341892Y-28085970D02*
X154341892Y-28206922D01*
X154341892Y-28206922D02*
X154379987Y-28279494D01*
X154379987Y-28279494D02*
X154456177Y-28327875D01*
X154456177Y-28327875D02*
X154532368Y-28352065D01*
X154532368Y-28352065D02*
X154684749Y-28376256D01*
X154684749Y-28376256D02*
X154799035Y-28376256D01*
X154799035Y-28376256D02*
X154951416Y-28352065D01*
X154951416Y-28352065D02*
X155027606Y-28327875D01*
X155027606Y-28327875D02*
X155103797Y-28279494D01*
X155103797Y-28279494D02*
X155141892Y-28206922D01*
X155141892Y-28206922D02*
X155141892Y-28085970D01*
X154913320Y-28569779D02*
X154913320Y-28811684D01*
X155141892Y-28521398D02*
X154341892Y-28690732D01*
X154341892Y-28690732D02*
X155141892Y-28860065D01*
X154279987Y-24471875D02*
X154241892Y-24423494D01*
X154241892Y-24423494D02*
X154241892Y-24350923D01*
X154241892Y-24350923D02*
X154279987Y-24278351D01*
X154279987Y-24278351D02*
X154356177Y-24229970D01*
X154356177Y-24229970D02*
X154432368Y-24205780D01*
X154432368Y-24205780D02*
X154584749Y-24181589D01*
X154584749Y-24181589D02*
X154699035Y-24181589D01*
X154699035Y-24181589D02*
X154851416Y-24205780D01*
X154851416Y-24205780D02*
X154927606Y-24229970D01*
X154927606Y-24229970D02*
X155003797Y-24278351D01*
X155003797Y-24278351D02*
X155041892Y-24350923D01*
X155041892Y-24350923D02*
X155041892Y-24399304D01*
X155041892Y-24399304D02*
X155003797Y-24471875D01*
X155003797Y-24471875D02*
X154965701Y-24496066D01*
X154965701Y-24496066D02*
X154699035Y-24496066D01*
X154699035Y-24496066D02*
X154699035Y-24399304D01*
X155041892Y-24713780D02*
X154241892Y-24713780D01*
X154241892Y-24713780D02*
X155041892Y-25004066D01*
X155041892Y-25004066D02*
X154241892Y-25004066D01*
X155041892Y-25245970D02*
X154241892Y-25245970D01*
X154241892Y-25245970D02*
X154241892Y-25366922D01*
X154241892Y-25366922D02*
X154279987Y-25439494D01*
X154279987Y-25439494D02*
X154356177Y-25487875D01*
X154356177Y-25487875D02*
X154432368Y-25512065D01*
X154432368Y-25512065D02*
X154584749Y-25536256D01*
X154584749Y-25536256D02*
X154699035Y-25536256D01*
X154699035Y-25536256D02*
X154851416Y-25512065D01*
X154851416Y-25512065D02*
X154927606Y-25487875D01*
X154927606Y-25487875D02*
X155003797Y-25439494D01*
X155003797Y-25439494D02*
X155041892Y-25366922D01*
X155041892Y-25366922D02*
X155041892Y-25245970D01*
X154813320Y-25729779D02*
X154813320Y-25971684D01*
X155041892Y-25681398D02*
X154241892Y-25850732D01*
X154241892Y-25850732D02*
X155041892Y-26020065D01*
X152505701Y-27302828D02*
X152543797Y-27278637D01*
X152543797Y-27278637D02*
X152581892Y-27206066D01*
X152581892Y-27206066D02*
X152581892Y-27157685D01*
X152581892Y-27157685D02*
X152543797Y-27085113D01*
X152543797Y-27085113D02*
X152467606Y-27036732D01*
X152467606Y-27036732D02*
X152391416Y-27012542D01*
X152391416Y-27012542D02*
X152239035Y-26988351D01*
X152239035Y-26988351D02*
X152124749Y-26988351D01*
X152124749Y-26988351D02*
X151972368Y-27012542D01*
X151972368Y-27012542D02*
X151896177Y-27036732D01*
X151896177Y-27036732D02*
X151819987Y-27085113D01*
X151819987Y-27085113D02*
X151781892Y-27157685D01*
X151781892Y-27157685D02*
X151781892Y-27206066D01*
X151781892Y-27206066D02*
X151819987Y-27278637D01*
X151819987Y-27278637D02*
X151858082Y-27302828D01*
X152353320Y-27496351D02*
X152353320Y-27738256D01*
X152581892Y-27447970D02*
X151781892Y-27617304D01*
X151781892Y-27617304D02*
X152581892Y-27786637D01*
X152581892Y-27955971D02*
X151781892Y-27955971D01*
X151781892Y-27955971D02*
X152581892Y-28246257D01*
X152581892Y-28246257D02*
X151781892Y-28246257D01*
X152581892Y-28730066D02*
X152581892Y-28488161D01*
X152581892Y-28488161D02*
X151781892Y-28488161D01*
X152551892Y-24261209D02*
X151751892Y-24261209D01*
X152551892Y-24551495D02*
X152094749Y-24333780D01*
X151751892Y-24551495D02*
X152209035Y-24261209D01*
X152551892Y-24769209D02*
X151751892Y-24769209D01*
X151751892Y-24769209D02*
X152551892Y-25059495D01*
X152551892Y-25059495D02*
X151751892Y-25059495D01*
X152551892Y-25301399D02*
X151751892Y-25301399D01*
X152551892Y-25591685D02*
X152094749Y-25373970D01*
X151751892Y-25591685D02*
X152209035Y-25301399D01*
X149341892Y-27232065D02*
X149341892Y-26990160D01*
X149341892Y-26990160D02*
X149722844Y-26965969D01*
X149722844Y-26965969D02*
X149684749Y-26990160D01*
X149684749Y-26990160D02*
X149646654Y-27038541D01*
X149646654Y-27038541D02*
X149646654Y-27159493D01*
X149646654Y-27159493D02*
X149684749Y-27207874D01*
X149684749Y-27207874D02*
X149722844Y-27232065D01*
X149722844Y-27232065D02*
X149799035Y-27256255D01*
X149799035Y-27256255D02*
X149989511Y-27256255D01*
X149989511Y-27256255D02*
X150065701Y-27232065D01*
X150065701Y-27232065D02*
X150103797Y-27207874D01*
X150103797Y-27207874D02*
X150141892Y-27159493D01*
X150141892Y-27159493D02*
X150141892Y-27038541D01*
X150141892Y-27038541D02*
X150103797Y-26990160D01*
X150103797Y-26990160D02*
X150065701Y-26965969D01*
X149341892Y-27401398D02*
X150141892Y-27570732D01*
X150141892Y-27570732D02*
X149341892Y-27740065D01*
X149975701Y-24484733D02*
X150013797Y-24460542D01*
X150013797Y-24460542D02*
X150051892Y-24387971D01*
X150051892Y-24387971D02*
X150051892Y-24339590D01*
X150051892Y-24339590D02*
X150013797Y-24267018D01*
X150013797Y-24267018D02*
X149937606Y-24218637D01*
X149937606Y-24218637D02*
X149861416Y-24194447D01*
X149861416Y-24194447D02*
X149709035Y-24170256D01*
X149709035Y-24170256D02*
X149594749Y-24170256D01*
X149594749Y-24170256D02*
X149442368Y-24194447D01*
X149442368Y-24194447D02*
X149366177Y-24218637D01*
X149366177Y-24218637D02*
X149289987Y-24267018D01*
X149289987Y-24267018D02*
X149251892Y-24339590D01*
X149251892Y-24339590D02*
X149251892Y-24387971D01*
X149251892Y-24387971D02*
X149289987Y-24460542D01*
X149289987Y-24460542D02*
X149328082Y-24484733D01*
X150051892Y-24702447D02*
X149251892Y-24702447D01*
X150051892Y-24992733D02*
X149594749Y-24775018D01*
X149251892Y-24992733D02*
X149709035Y-24702447D01*
X149747130Y-25210447D02*
X149747130Y-25597495D01*
X147635701Y-27234733D02*
X147673797Y-27210542D01*
X147673797Y-27210542D02*
X147711892Y-27137971D01*
X147711892Y-27137971D02*
X147711892Y-27089590D01*
X147711892Y-27089590D02*
X147673797Y-27017018D01*
X147673797Y-27017018D02*
X147597606Y-26968637D01*
X147597606Y-26968637D02*
X147521416Y-26944447D01*
X147521416Y-26944447D02*
X147369035Y-26920256D01*
X147369035Y-26920256D02*
X147254749Y-26920256D01*
X147254749Y-26920256D02*
X147102368Y-26944447D01*
X147102368Y-26944447D02*
X147026177Y-26968637D01*
X147026177Y-26968637D02*
X146949987Y-27017018D01*
X146949987Y-27017018D02*
X146911892Y-27089590D01*
X146911892Y-27089590D02*
X146911892Y-27137971D01*
X146911892Y-27137971D02*
X146949987Y-27210542D01*
X146949987Y-27210542D02*
X146988082Y-27234733D01*
X147711892Y-27452447D02*
X146911892Y-27452447D01*
X147711892Y-27742733D02*
X147254749Y-27525018D01*
X146911892Y-27742733D02*
X147369035Y-27452447D01*
X147407130Y-27960447D02*
X147407130Y-28347495D01*
X147711892Y-28153971D02*
X147102368Y-28153971D01*
X145371892Y-27204828D02*
X145371892Y-26962923D01*
X145371892Y-26962923D02*
X144571892Y-26962923D01*
X145333797Y-27349970D02*
X145371892Y-27422542D01*
X145371892Y-27422542D02*
X145371892Y-27543494D01*
X145371892Y-27543494D02*
X145333797Y-27591875D01*
X145333797Y-27591875D02*
X145295701Y-27616066D01*
X145295701Y-27616066D02*
X145219511Y-27640256D01*
X145219511Y-27640256D02*
X145143320Y-27640256D01*
X145143320Y-27640256D02*
X145067130Y-27616066D01*
X145067130Y-27616066D02*
X145029035Y-27591875D01*
X145029035Y-27591875D02*
X144990939Y-27543494D01*
X144990939Y-27543494D02*
X144952844Y-27446732D01*
X144952844Y-27446732D02*
X144914749Y-27398351D01*
X144914749Y-27398351D02*
X144876654Y-27374161D01*
X144876654Y-27374161D02*
X144800463Y-27349970D01*
X144800463Y-27349970D02*
X144724273Y-27349970D01*
X144724273Y-27349970D02*
X144648082Y-27374161D01*
X144648082Y-27374161D02*
X144609987Y-27398351D01*
X144609987Y-27398351D02*
X144571892Y-27446732D01*
X144571892Y-27446732D02*
X144571892Y-27567685D01*
X144571892Y-27567685D02*
X144609987Y-27640256D01*
X144571892Y-27857971D02*
X145219511Y-27857971D01*
X145219511Y-27857971D02*
X145295701Y-27882161D01*
X145295701Y-27882161D02*
X145333797Y-27906352D01*
X145333797Y-27906352D02*
X145371892Y-27954733D01*
X145371892Y-27954733D02*
X145371892Y-28051495D01*
X145371892Y-28051495D02*
X145333797Y-28099876D01*
X145333797Y-28099876D02*
X145295701Y-28124066D01*
X145295701Y-28124066D02*
X145219511Y-28148257D01*
X145219511Y-28148257D02*
X144571892Y-28148257D01*
X145448082Y-28269209D02*
X145448082Y-28656256D01*
X145371892Y-28777209D02*
X144571892Y-28777209D01*
X144952844Y-28777209D02*
X144952844Y-29067495D01*
X145371892Y-29067495D02*
X144571892Y-29067495D01*
X145311892Y-24509018D02*
X145311892Y-24267113D01*
X145311892Y-24267113D02*
X144511892Y-24267113D01*
X145273797Y-24654160D02*
X145311892Y-24726732D01*
X145311892Y-24726732D02*
X145311892Y-24847684D01*
X145311892Y-24847684D02*
X145273797Y-24896065D01*
X145273797Y-24896065D02*
X145235701Y-24920256D01*
X145235701Y-24920256D02*
X145159511Y-24944446D01*
X145159511Y-24944446D02*
X145083320Y-24944446D01*
X145083320Y-24944446D02*
X145007130Y-24920256D01*
X145007130Y-24920256D02*
X144969035Y-24896065D01*
X144969035Y-24896065D02*
X144930939Y-24847684D01*
X144930939Y-24847684D02*
X144892844Y-24750922D01*
X144892844Y-24750922D02*
X144854749Y-24702541D01*
X144854749Y-24702541D02*
X144816654Y-24678351D01*
X144816654Y-24678351D02*
X144740463Y-24654160D01*
X144740463Y-24654160D02*
X144664273Y-24654160D01*
X144664273Y-24654160D02*
X144588082Y-24678351D01*
X144588082Y-24678351D02*
X144549987Y-24702541D01*
X144549987Y-24702541D02*
X144511892Y-24750922D01*
X144511892Y-24750922D02*
X144511892Y-24871875D01*
X144511892Y-24871875D02*
X144549987Y-24944446D01*
X144511892Y-25162161D02*
X145159511Y-25162161D01*
X145159511Y-25162161D02*
X145235701Y-25186351D01*
X145235701Y-25186351D02*
X145273797Y-25210542D01*
X145273797Y-25210542D02*
X145311892Y-25258923D01*
X145311892Y-25258923D02*
X145311892Y-25355685D01*
X145311892Y-25355685D02*
X145273797Y-25404066D01*
X145273797Y-25404066D02*
X145235701Y-25428256D01*
X145235701Y-25428256D02*
X145159511Y-25452447D01*
X145159511Y-25452447D02*
X144511892Y-25452447D01*
X145388082Y-25573399D02*
X145388082Y-25960446D01*
X145311892Y-26371685D02*
X144930939Y-26202351D01*
X145311892Y-26081399D02*
X144511892Y-26081399D01*
X144511892Y-26081399D02*
X144511892Y-26274923D01*
X144511892Y-26274923D02*
X144549987Y-26323304D01*
X144549987Y-26323304D02*
X144588082Y-26347494D01*
X144588082Y-26347494D02*
X144664273Y-26371685D01*
X144664273Y-26371685D02*
X144778558Y-26371685D01*
X144778558Y-26371685D02*
X144854749Y-26347494D01*
X144854749Y-26347494D02*
X144892844Y-26323304D01*
X144892844Y-26323304D02*
X144930939Y-26274923D01*
X144930939Y-26274923D02*
X144930939Y-26081399D01*
X147741892Y-24372923D02*
X147741892Y-24131018D01*
X147741892Y-24131018D02*
X146941892Y-24131018D01*
X147703797Y-24518065D02*
X147741892Y-24590637D01*
X147741892Y-24590637D02*
X147741892Y-24711589D01*
X147741892Y-24711589D02*
X147703797Y-24759970D01*
X147703797Y-24759970D02*
X147665701Y-24784161D01*
X147665701Y-24784161D02*
X147589511Y-24808351D01*
X147589511Y-24808351D02*
X147513320Y-24808351D01*
X147513320Y-24808351D02*
X147437130Y-24784161D01*
X147437130Y-24784161D02*
X147399035Y-24759970D01*
X147399035Y-24759970D02*
X147360939Y-24711589D01*
X147360939Y-24711589D02*
X147322844Y-24614827D01*
X147322844Y-24614827D02*
X147284749Y-24566446D01*
X147284749Y-24566446D02*
X147246654Y-24542256D01*
X147246654Y-24542256D02*
X147170463Y-24518065D01*
X147170463Y-24518065D02*
X147094273Y-24518065D01*
X147094273Y-24518065D02*
X147018082Y-24542256D01*
X147018082Y-24542256D02*
X146979987Y-24566446D01*
X146979987Y-24566446D02*
X146941892Y-24614827D01*
X146941892Y-24614827D02*
X146941892Y-24735780D01*
X146941892Y-24735780D02*
X146979987Y-24808351D01*
X146941892Y-25026066D02*
X147589511Y-25026066D01*
X147589511Y-25026066D02*
X147665701Y-25050256D01*
X147665701Y-25050256D02*
X147703797Y-25074447D01*
X147703797Y-25074447D02*
X147741892Y-25122828D01*
X147741892Y-25122828D02*
X147741892Y-25219590D01*
X147741892Y-25219590D02*
X147703797Y-25267971D01*
X147703797Y-25267971D02*
X147665701Y-25292161D01*
X147665701Y-25292161D02*
X147589511Y-25316352D01*
X147589511Y-25316352D02*
X146941892Y-25316352D01*
X147818082Y-25437304D02*
X147818082Y-25824351D01*
X146941892Y-25945304D02*
X147589511Y-25945304D01*
X147589511Y-25945304D02*
X147665701Y-25969494D01*
X147665701Y-25969494D02*
X147703797Y-25993685D01*
X147703797Y-25993685D02*
X147741892Y-26042066D01*
X147741892Y-26042066D02*
X147741892Y-26138828D01*
X147741892Y-26138828D02*
X147703797Y-26187209D01*
X147703797Y-26187209D02*
X147665701Y-26211399D01*
X147665701Y-26211399D02*
X147589511Y-26235590D01*
X147589511Y-26235590D02*
X146941892Y-26235590D01*
X147741892Y-26477494D02*
X146941892Y-26477494D01*
X143291892Y-27195113D02*
X143291892Y-26953208D01*
X143291892Y-26953208D02*
X142491892Y-26953208D01*
X143253797Y-27340255D02*
X143291892Y-27412827D01*
X143291892Y-27412827D02*
X143291892Y-27533779D01*
X143291892Y-27533779D02*
X143253797Y-27582160D01*
X143253797Y-27582160D02*
X143215701Y-27606351D01*
X143215701Y-27606351D02*
X143139511Y-27630541D01*
X143139511Y-27630541D02*
X143063320Y-27630541D01*
X143063320Y-27630541D02*
X142987130Y-27606351D01*
X142987130Y-27606351D02*
X142949035Y-27582160D01*
X142949035Y-27582160D02*
X142910939Y-27533779D01*
X142910939Y-27533779D02*
X142872844Y-27437017D01*
X142872844Y-27437017D02*
X142834749Y-27388636D01*
X142834749Y-27388636D02*
X142796654Y-27364446D01*
X142796654Y-27364446D02*
X142720463Y-27340255D01*
X142720463Y-27340255D02*
X142644273Y-27340255D01*
X142644273Y-27340255D02*
X142568082Y-27364446D01*
X142568082Y-27364446D02*
X142529987Y-27388636D01*
X142529987Y-27388636D02*
X142491892Y-27437017D01*
X142491892Y-27437017D02*
X142491892Y-27557970D01*
X142491892Y-27557970D02*
X142529987Y-27630541D01*
X142491892Y-27848256D02*
X143139511Y-27848256D01*
X143139511Y-27848256D02*
X143215701Y-27872446D01*
X143215701Y-27872446D02*
X143253797Y-27896637D01*
X143253797Y-27896637D02*
X143291892Y-27945018D01*
X143291892Y-27945018D02*
X143291892Y-28041780D01*
X143291892Y-28041780D02*
X143253797Y-28090161D01*
X143253797Y-28090161D02*
X143215701Y-28114351D01*
X143215701Y-28114351D02*
X143139511Y-28138542D01*
X143139511Y-28138542D02*
X142491892Y-28138542D01*
X143368082Y-28259494D02*
X143368082Y-28646541D01*
X143291892Y-28767494D02*
X142491892Y-28767494D01*
X142841892Y-24454828D02*
X142841892Y-24212923D01*
X142841892Y-24212923D02*
X142041892Y-24212923D01*
X142803797Y-24599970D02*
X142841892Y-24672542D01*
X142841892Y-24672542D02*
X142841892Y-24793494D01*
X142841892Y-24793494D02*
X142803797Y-24841875D01*
X142803797Y-24841875D02*
X142765701Y-24866066D01*
X142765701Y-24866066D02*
X142689511Y-24890256D01*
X142689511Y-24890256D02*
X142613320Y-24890256D01*
X142613320Y-24890256D02*
X142537130Y-24866066D01*
X142537130Y-24866066D02*
X142499035Y-24841875D01*
X142499035Y-24841875D02*
X142460939Y-24793494D01*
X142460939Y-24793494D02*
X142422844Y-24696732D01*
X142422844Y-24696732D02*
X142384749Y-24648351D01*
X142384749Y-24648351D02*
X142346654Y-24624161D01*
X142346654Y-24624161D02*
X142270463Y-24599970D01*
X142270463Y-24599970D02*
X142194273Y-24599970D01*
X142194273Y-24599970D02*
X142118082Y-24624161D01*
X142118082Y-24624161D02*
X142079987Y-24648351D01*
X142079987Y-24648351D02*
X142041892Y-24696732D01*
X142041892Y-24696732D02*
X142041892Y-24817685D01*
X142041892Y-24817685D02*
X142079987Y-24890256D01*
X142041892Y-25107971D02*
X142689511Y-25107971D01*
X142689511Y-25107971D02*
X142765701Y-25132161D01*
X142765701Y-25132161D02*
X142803797Y-25156352D01*
X142803797Y-25156352D02*
X142841892Y-25204733D01*
X142841892Y-25204733D02*
X142841892Y-25301495D01*
X142841892Y-25301495D02*
X142803797Y-25349876D01*
X142803797Y-25349876D02*
X142765701Y-25374066D01*
X142765701Y-25374066D02*
X142689511Y-25398257D01*
X142689511Y-25398257D02*
X142041892Y-25398257D01*
X142918082Y-25519209D02*
X142918082Y-25906256D01*
X142041892Y-26027209D02*
X142689511Y-26027209D01*
X142689511Y-26027209D02*
X142765701Y-26051399D01*
X142765701Y-26051399D02*
X142803797Y-26075590D01*
X142803797Y-26075590D02*
X142841892Y-26123971D01*
X142841892Y-26123971D02*
X142841892Y-26220733D01*
X142841892Y-26220733D02*
X142803797Y-26269114D01*
X142803797Y-26269114D02*
X142765701Y-26293304D01*
X142765701Y-26293304D02*
X142689511Y-26317495D01*
X142689511Y-26317495D02*
X142041892Y-26317495D01*
X137801892Y-41412445D02*
X137801892Y-41122159D01*
X137801892Y-41267302D02*
X137001892Y-41267302D01*
X137001892Y-41267302D02*
X137116177Y-41218921D01*
X137116177Y-41218921D02*
X137192368Y-41170540D01*
X137192368Y-41170540D02*
X137230463Y-41122159D01*
X137078082Y-41605969D02*
X137039987Y-41630160D01*
X137039987Y-41630160D02*
X137001892Y-41678541D01*
X137001892Y-41678541D02*
X137001892Y-41799493D01*
X137001892Y-41799493D02*
X137039987Y-41847874D01*
X137039987Y-41847874D02*
X137078082Y-41872065D01*
X137078082Y-41872065D02*
X137154273Y-41896255D01*
X137154273Y-41896255D02*
X137230463Y-41896255D01*
X137230463Y-41896255D02*
X137344749Y-41872065D01*
X137344749Y-41872065D02*
X137801892Y-41581779D01*
X137801892Y-41581779D02*
X137801892Y-41896255D01*
X137001892Y-42041398D02*
X137801892Y-42210732D01*
X137801892Y-42210732D02*
X137001892Y-42380065D01*
X137821892Y-38816065D02*
X137021892Y-38816065D01*
X137821892Y-39057970D02*
X137021892Y-39057970D01*
X137021892Y-39057970D02*
X137821892Y-39348256D01*
X137821892Y-39348256D02*
X137021892Y-39348256D01*
X137440939Y-39686922D02*
X137821892Y-39686922D01*
X137021892Y-39517588D02*
X137440939Y-39686922D01*
X137440939Y-39686922D02*
X137021892Y-39856255D01*
X137021892Y-40267494D02*
X137021892Y-40025589D01*
X137021892Y-40025589D02*
X137402844Y-40001398D01*
X137402844Y-40001398D02*
X137364749Y-40025589D01*
X137364749Y-40025589D02*
X137326654Y-40073970D01*
X137326654Y-40073970D02*
X137326654Y-40194922D01*
X137326654Y-40194922D02*
X137364749Y-40243303D01*
X137364749Y-40243303D02*
X137402844Y-40267494D01*
X137402844Y-40267494D02*
X137479035Y-40291684D01*
X137479035Y-40291684D02*
X137669511Y-40291684D01*
X137669511Y-40291684D02*
X137745701Y-40267494D01*
X137745701Y-40267494D02*
X137783797Y-40243303D01*
X137783797Y-40243303D02*
X137821892Y-40194922D01*
X137821892Y-40194922D02*
X137821892Y-40073970D01*
X137821892Y-40073970D02*
X137783797Y-40025589D01*
X137783797Y-40025589D02*
X137745701Y-40001398D01*
X140411892Y-38766065D02*
X139611892Y-38766065D01*
X140411892Y-39007970D02*
X139611892Y-39007970D01*
X139611892Y-39007970D02*
X140411892Y-39298256D01*
X140411892Y-39298256D02*
X139611892Y-39298256D01*
X140030939Y-39636922D02*
X140411892Y-39636922D01*
X139611892Y-39467588D02*
X140030939Y-39636922D01*
X140030939Y-39636922D02*
X139611892Y-39806255D01*
X139611892Y-40193303D02*
X139611892Y-40096541D01*
X139611892Y-40096541D02*
X139649987Y-40048160D01*
X139649987Y-40048160D02*
X139688082Y-40023970D01*
X139688082Y-40023970D02*
X139802368Y-39975589D01*
X139802368Y-39975589D02*
X139954749Y-39951398D01*
X139954749Y-39951398D02*
X140259511Y-39951398D01*
X140259511Y-39951398D02*
X140335701Y-39975589D01*
X140335701Y-39975589D02*
X140373797Y-39999779D01*
X140373797Y-39999779D02*
X140411892Y-40048160D01*
X140411892Y-40048160D02*
X140411892Y-40144922D01*
X140411892Y-40144922D02*
X140373797Y-40193303D01*
X140373797Y-40193303D02*
X140335701Y-40217494D01*
X140335701Y-40217494D02*
X140259511Y-40241684D01*
X140259511Y-40241684D02*
X140069035Y-40241684D01*
X140069035Y-40241684D02*
X139992844Y-40217494D01*
X139992844Y-40217494D02*
X139954749Y-40193303D01*
X139954749Y-40193303D02*
X139916654Y-40144922D01*
X139916654Y-40144922D02*
X139916654Y-40048160D01*
X139916654Y-40048160D02*
X139954749Y-39999779D01*
X139954749Y-39999779D02*
X139992844Y-39975589D01*
X139992844Y-39975589D02*
X140069035Y-39951398D01*
X140471892Y-24256065D02*
X139671892Y-24256065D01*
X140471892Y-24497970D02*
X139671892Y-24497970D01*
X139671892Y-24497970D02*
X140471892Y-24788256D01*
X140471892Y-24788256D02*
X139671892Y-24788256D01*
X140090939Y-25126922D02*
X140471892Y-25126922D01*
X139671892Y-24957588D02*
X140090939Y-25126922D01*
X140090939Y-25126922D02*
X139671892Y-25296255D01*
X139748082Y-25441398D02*
X139709987Y-25465589D01*
X139709987Y-25465589D02*
X139671892Y-25513970D01*
X139671892Y-25513970D02*
X139671892Y-25634922D01*
X139671892Y-25634922D02*
X139709987Y-25683303D01*
X139709987Y-25683303D02*
X139748082Y-25707494D01*
X139748082Y-25707494D02*
X139824273Y-25731684D01*
X139824273Y-25731684D02*
X139900463Y-25731684D01*
X139900463Y-25731684D02*
X140014749Y-25707494D01*
X140014749Y-25707494D02*
X140471892Y-25417208D01*
X140471892Y-25417208D02*
X140471892Y-25731684D01*
X140891892Y-26906065D02*
X140091892Y-26906065D01*
X140891892Y-27147970D02*
X140091892Y-27147970D01*
X140091892Y-27147970D02*
X140891892Y-27438256D01*
X140891892Y-27438256D02*
X140091892Y-27438256D01*
X140510939Y-27776922D02*
X140891892Y-27776922D01*
X140091892Y-27607588D02*
X140510939Y-27776922D01*
X140510939Y-27776922D02*
X140091892Y-27946255D01*
X140358558Y-28333303D02*
X140891892Y-28333303D01*
X140053797Y-28212351D02*
X140625225Y-28091398D01*
X140625225Y-28091398D02*
X140625225Y-28405875D01*
X138521892Y-26846065D02*
X137721892Y-26846065D01*
X138521892Y-27087970D02*
X137721892Y-27087970D01*
X137721892Y-27087970D02*
X138521892Y-27378256D01*
X138521892Y-27378256D02*
X137721892Y-27378256D01*
X138140939Y-27716922D02*
X138521892Y-27716922D01*
X137721892Y-27547588D02*
X138140939Y-27716922D01*
X138140939Y-27716922D02*
X137721892Y-27886255D01*
X137721892Y-28007208D02*
X137721892Y-28321684D01*
X137721892Y-28321684D02*
X138026654Y-28152351D01*
X138026654Y-28152351D02*
X138026654Y-28224922D01*
X138026654Y-28224922D02*
X138064749Y-28273303D01*
X138064749Y-28273303D02*
X138102844Y-28297494D01*
X138102844Y-28297494D02*
X138179035Y-28321684D01*
X138179035Y-28321684D02*
X138369511Y-28321684D01*
X138369511Y-28321684D02*
X138445701Y-28297494D01*
X138445701Y-28297494D02*
X138483797Y-28273303D01*
X138483797Y-28273303D02*
X138521892Y-28224922D01*
X138521892Y-28224922D02*
X138521892Y-28079779D01*
X138521892Y-28079779D02*
X138483797Y-28031398D01*
X138483797Y-28031398D02*
X138445701Y-28007208D01*
X138101892Y-24286065D02*
X137301892Y-24286065D01*
X138101892Y-24527970D02*
X137301892Y-24527970D01*
X137301892Y-24527970D02*
X138101892Y-24818256D01*
X138101892Y-24818256D02*
X137301892Y-24818256D01*
X137720939Y-25156922D02*
X138101892Y-25156922D01*
X137301892Y-24987588D02*
X137720939Y-25156922D01*
X137720939Y-25156922D02*
X137301892Y-25326255D01*
X138101892Y-25761684D02*
X138101892Y-25471398D01*
X138101892Y-25616541D02*
X137301892Y-25616541D01*
X137301892Y-25616541D02*
X137416177Y-25568160D01*
X137416177Y-25568160D02*
X137492368Y-25519779D01*
X137492368Y-25519779D02*
X137530463Y-25471398D01*
X129749987Y-41387304D02*
X129711892Y-41338923D01*
X129711892Y-41338923D02*
X129711892Y-41266352D01*
X129711892Y-41266352D02*
X129749987Y-41193780D01*
X129749987Y-41193780D02*
X129826177Y-41145399D01*
X129826177Y-41145399D02*
X129902368Y-41121209D01*
X129902368Y-41121209D02*
X130054749Y-41097018D01*
X130054749Y-41097018D02*
X130169035Y-41097018D01*
X130169035Y-41097018D02*
X130321416Y-41121209D01*
X130321416Y-41121209D02*
X130397606Y-41145399D01*
X130397606Y-41145399D02*
X130473797Y-41193780D01*
X130473797Y-41193780D02*
X130511892Y-41266352D01*
X130511892Y-41266352D02*
X130511892Y-41314733D01*
X130511892Y-41314733D02*
X130473797Y-41387304D01*
X130473797Y-41387304D02*
X130435701Y-41411495D01*
X130435701Y-41411495D02*
X130169035Y-41411495D01*
X130169035Y-41411495D02*
X130169035Y-41314733D01*
X130511892Y-41629209D02*
X129711892Y-41629209D01*
X129711892Y-41629209D02*
X130511892Y-41919495D01*
X130511892Y-41919495D02*
X129711892Y-41919495D01*
X130511892Y-42161399D02*
X129711892Y-42161399D01*
X129711892Y-42161399D02*
X129711892Y-42282351D01*
X129711892Y-42282351D02*
X129749987Y-42354923D01*
X129749987Y-42354923D02*
X129826177Y-42403304D01*
X129826177Y-42403304D02*
X129902368Y-42427494D01*
X129902368Y-42427494D02*
X130054749Y-42451685D01*
X130054749Y-42451685D02*
X130169035Y-42451685D01*
X130169035Y-42451685D02*
X130321416Y-42427494D01*
X130321416Y-42427494D02*
X130397606Y-42403304D01*
X130397606Y-42403304D02*
X130473797Y-42354923D01*
X130473797Y-42354923D02*
X130511892Y-42282351D01*
X130511892Y-42282351D02*
X130511892Y-42161399D01*
X134371892Y-38763494D02*
X133571892Y-38763494D01*
X133609987Y-39271494D02*
X133571892Y-39223113D01*
X133571892Y-39223113D02*
X133571892Y-39150542D01*
X133571892Y-39150542D02*
X133609987Y-39077970D01*
X133609987Y-39077970D02*
X133686177Y-39029589D01*
X133686177Y-39029589D02*
X133762368Y-39005399D01*
X133762368Y-39005399D02*
X133914749Y-38981208D01*
X133914749Y-38981208D02*
X134029035Y-38981208D01*
X134029035Y-38981208D02*
X134181416Y-39005399D01*
X134181416Y-39005399D02*
X134257606Y-39029589D01*
X134257606Y-39029589D02*
X134333797Y-39077970D01*
X134333797Y-39077970D02*
X134371892Y-39150542D01*
X134371892Y-39150542D02*
X134371892Y-39198923D01*
X134371892Y-39198923D02*
X134333797Y-39271494D01*
X134333797Y-39271494D02*
X134295701Y-39295685D01*
X134295701Y-39295685D02*
X134029035Y-39295685D01*
X134029035Y-39295685D02*
X134029035Y-39198923D01*
X134371892Y-39513399D02*
X133571892Y-39513399D01*
X133571892Y-39513399D02*
X134371892Y-39803685D01*
X134371892Y-39803685D02*
X133571892Y-39803685D01*
X133571892Y-40263303D02*
X133571892Y-40166541D01*
X133571892Y-40166541D02*
X133609987Y-40118160D01*
X133609987Y-40118160D02*
X133648082Y-40093970D01*
X133648082Y-40093970D02*
X133762368Y-40045589D01*
X133762368Y-40045589D02*
X133914749Y-40021398D01*
X133914749Y-40021398D02*
X134219511Y-40021398D01*
X134219511Y-40021398D02*
X134295701Y-40045589D01*
X134295701Y-40045589D02*
X134333797Y-40069779D01*
X134333797Y-40069779D02*
X134371892Y-40118160D01*
X134371892Y-40118160D02*
X134371892Y-40214922D01*
X134371892Y-40214922D02*
X134333797Y-40263303D01*
X134333797Y-40263303D02*
X134295701Y-40287494D01*
X134295701Y-40287494D02*
X134219511Y-40311684D01*
X134219511Y-40311684D02*
X134029035Y-40311684D01*
X134029035Y-40311684D02*
X133952844Y-40287494D01*
X133952844Y-40287494D02*
X133914749Y-40263303D01*
X133914749Y-40263303D02*
X133876654Y-40214922D01*
X133876654Y-40214922D02*
X133876654Y-40118160D01*
X133876654Y-40118160D02*
X133914749Y-40069779D01*
X133914749Y-40069779D02*
X133952844Y-40045589D01*
X133952844Y-40045589D02*
X134029035Y-40021398D01*
X130571892Y-38853494D02*
X129771892Y-38853494D01*
X129809987Y-39361494D02*
X129771892Y-39313113D01*
X129771892Y-39313113D02*
X129771892Y-39240542D01*
X129771892Y-39240542D02*
X129809987Y-39167970D01*
X129809987Y-39167970D02*
X129886177Y-39119589D01*
X129886177Y-39119589D02*
X129962368Y-39095399D01*
X129962368Y-39095399D02*
X130114749Y-39071208D01*
X130114749Y-39071208D02*
X130229035Y-39071208D01*
X130229035Y-39071208D02*
X130381416Y-39095399D01*
X130381416Y-39095399D02*
X130457606Y-39119589D01*
X130457606Y-39119589D02*
X130533797Y-39167970D01*
X130533797Y-39167970D02*
X130571892Y-39240542D01*
X130571892Y-39240542D02*
X130571892Y-39288923D01*
X130571892Y-39288923D02*
X130533797Y-39361494D01*
X130533797Y-39361494D02*
X130495701Y-39385685D01*
X130495701Y-39385685D02*
X130229035Y-39385685D01*
X130229035Y-39385685D02*
X130229035Y-39288923D01*
X130571892Y-39603399D02*
X129771892Y-39603399D01*
X129771892Y-39603399D02*
X130571892Y-39893685D01*
X130571892Y-39893685D02*
X129771892Y-39893685D01*
X129771892Y-40377494D02*
X129771892Y-40135589D01*
X129771892Y-40135589D02*
X130152844Y-40111398D01*
X130152844Y-40111398D02*
X130114749Y-40135589D01*
X130114749Y-40135589D02*
X130076654Y-40183970D01*
X130076654Y-40183970D02*
X130076654Y-40304922D01*
X130076654Y-40304922D02*
X130114749Y-40353303D01*
X130114749Y-40353303D02*
X130152844Y-40377494D01*
X130152844Y-40377494D02*
X130229035Y-40401684D01*
X130229035Y-40401684D02*
X130419511Y-40401684D01*
X130419511Y-40401684D02*
X130495701Y-40377494D01*
X130495701Y-40377494D02*
X130533797Y-40353303D01*
X130533797Y-40353303D02*
X130571892Y-40304922D01*
X130571892Y-40304922D02*
X130571892Y-40183970D01*
X130571892Y-40183970D02*
X130533797Y-40135589D01*
X130533797Y-40135589D02*
X130495701Y-40111398D01*
X133461892Y-27053494D02*
X132661892Y-27053494D01*
X132699987Y-27561494D02*
X132661892Y-27513113D01*
X132661892Y-27513113D02*
X132661892Y-27440542D01*
X132661892Y-27440542D02*
X132699987Y-27367970D01*
X132699987Y-27367970D02*
X132776177Y-27319589D01*
X132776177Y-27319589D02*
X132852368Y-27295399D01*
X132852368Y-27295399D02*
X133004749Y-27271208D01*
X133004749Y-27271208D02*
X133119035Y-27271208D01*
X133119035Y-27271208D02*
X133271416Y-27295399D01*
X133271416Y-27295399D02*
X133347606Y-27319589D01*
X133347606Y-27319589D02*
X133423797Y-27367970D01*
X133423797Y-27367970D02*
X133461892Y-27440542D01*
X133461892Y-27440542D02*
X133461892Y-27488923D01*
X133461892Y-27488923D02*
X133423797Y-27561494D01*
X133423797Y-27561494D02*
X133385701Y-27585685D01*
X133385701Y-27585685D02*
X133119035Y-27585685D01*
X133119035Y-27585685D02*
X133119035Y-27488923D01*
X133461892Y-27803399D02*
X132661892Y-27803399D01*
X132661892Y-27803399D02*
X133461892Y-28093685D01*
X133461892Y-28093685D02*
X132661892Y-28093685D01*
X132928558Y-28553303D02*
X133461892Y-28553303D01*
X132623797Y-28432351D02*
X133195225Y-28311398D01*
X133195225Y-28311398D02*
X133195225Y-28625875D01*
X130671892Y-26913494D02*
X129871892Y-26913494D01*
X129909987Y-27421494D02*
X129871892Y-27373113D01*
X129871892Y-27373113D02*
X129871892Y-27300542D01*
X129871892Y-27300542D02*
X129909987Y-27227970D01*
X129909987Y-27227970D02*
X129986177Y-27179589D01*
X129986177Y-27179589D02*
X130062368Y-27155399D01*
X130062368Y-27155399D02*
X130214749Y-27131208D01*
X130214749Y-27131208D02*
X130329035Y-27131208D01*
X130329035Y-27131208D02*
X130481416Y-27155399D01*
X130481416Y-27155399D02*
X130557606Y-27179589D01*
X130557606Y-27179589D02*
X130633797Y-27227970D01*
X130633797Y-27227970D02*
X130671892Y-27300542D01*
X130671892Y-27300542D02*
X130671892Y-27348923D01*
X130671892Y-27348923D02*
X130633797Y-27421494D01*
X130633797Y-27421494D02*
X130595701Y-27445685D01*
X130595701Y-27445685D02*
X130329035Y-27445685D01*
X130329035Y-27445685D02*
X130329035Y-27348923D01*
X130671892Y-27663399D02*
X129871892Y-27663399D01*
X129871892Y-27663399D02*
X130671892Y-27953685D01*
X130671892Y-27953685D02*
X129871892Y-27953685D01*
X129871892Y-28147208D02*
X129871892Y-28461684D01*
X129871892Y-28461684D02*
X130176654Y-28292351D01*
X130176654Y-28292351D02*
X130176654Y-28364922D01*
X130176654Y-28364922D02*
X130214749Y-28413303D01*
X130214749Y-28413303D02*
X130252844Y-28437494D01*
X130252844Y-28437494D02*
X130329035Y-28461684D01*
X130329035Y-28461684D02*
X130519511Y-28461684D01*
X130519511Y-28461684D02*
X130595701Y-28437494D01*
X130595701Y-28437494D02*
X130633797Y-28413303D01*
X130633797Y-28413303D02*
X130671892Y-28364922D01*
X130671892Y-28364922D02*
X130671892Y-28219779D01*
X130671892Y-28219779D02*
X130633797Y-28171398D01*
X130633797Y-28171398D02*
X130595701Y-28147208D01*
X134481892Y-24363494D02*
X133681892Y-24363494D01*
X133719987Y-24871494D02*
X133681892Y-24823113D01*
X133681892Y-24823113D02*
X133681892Y-24750542D01*
X133681892Y-24750542D02*
X133719987Y-24677970D01*
X133719987Y-24677970D02*
X133796177Y-24629589D01*
X133796177Y-24629589D02*
X133872368Y-24605399D01*
X133872368Y-24605399D02*
X134024749Y-24581208D01*
X134024749Y-24581208D02*
X134139035Y-24581208D01*
X134139035Y-24581208D02*
X134291416Y-24605399D01*
X134291416Y-24605399D02*
X134367606Y-24629589D01*
X134367606Y-24629589D02*
X134443797Y-24677970D01*
X134443797Y-24677970D02*
X134481892Y-24750542D01*
X134481892Y-24750542D02*
X134481892Y-24798923D01*
X134481892Y-24798923D02*
X134443797Y-24871494D01*
X134443797Y-24871494D02*
X134405701Y-24895685D01*
X134405701Y-24895685D02*
X134139035Y-24895685D01*
X134139035Y-24895685D02*
X134139035Y-24798923D01*
X134481892Y-25113399D02*
X133681892Y-25113399D01*
X133681892Y-25113399D02*
X134481892Y-25403685D01*
X134481892Y-25403685D02*
X133681892Y-25403685D01*
X133758082Y-25621398D02*
X133719987Y-25645589D01*
X133719987Y-25645589D02*
X133681892Y-25693970D01*
X133681892Y-25693970D02*
X133681892Y-25814922D01*
X133681892Y-25814922D02*
X133719987Y-25863303D01*
X133719987Y-25863303D02*
X133758082Y-25887494D01*
X133758082Y-25887494D02*
X133834273Y-25911684D01*
X133834273Y-25911684D02*
X133910463Y-25911684D01*
X133910463Y-25911684D02*
X134024749Y-25887494D01*
X134024749Y-25887494D02*
X134481892Y-25597208D01*
X134481892Y-25597208D02*
X134481892Y-25911684D01*
X130671892Y-24273494D02*
X129871892Y-24273494D01*
X129909987Y-24781494D02*
X129871892Y-24733113D01*
X129871892Y-24733113D02*
X129871892Y-24660542D01*
X129871892Y-24660542D02*
X129909987Y-24587970D01*
X129909987Y-24587970D02*
X129986177Y-24539589D01*
X129986177Y-24539589D02*
X130062368Y-24515399D01*
X130062368Y-24515399D02*
X130214749Y-24491208D01*
X130214749Y-24491208D02*
X130329035Y-24491208D01*
X130329035Y-24491208D02*
X130481416Y-24515399D01*
X130481416Y-24515399D02*
X130557606Y-24539589D01*
X130557606Y-24539589D02*
X130633797Y-24587970D01*
X130633797Y-24587970D02*
X130671892Y-24660542D01*
X130671892Y-24660542D02*
X130671892Y-24708923D01*
X130671892Y-24708923D02*
X130633797Y-24781494D01*
X130633797Y-24781494D02*
X130595701Y-24805685D01*
X130595701Y-24805685D02*
X130329035Y-24805685D01*
X130329035Y-24805685D02*
X130329035Y-24708923D01*
X130671892Y-25023399D02*
X129871892Y-25023399D01*
X129871892Y-25023399D02*
X130671892Y-25313685D01*
X130671892Y-25313685D02*
X129871892Y-25313685D01*
X130671892Y-25821684D02*
X130671892Y-25531398D01*
X130671892Y-25676541D02*
X129871892Y-25676541D01*
X129871892Y-25676541D02*
X129986177Y-25628160D01*
X129986177Y-25628160D02*
X130062368Y-25579779D01*
X130062368Y-25579779D02*
X130100463Y-25531398D01*
X137977856Y-46555778D02*
X138231856Y-46555778D01*
X138231856Y-46954921D02*
X138231856Y-46192921D01*
X138231856Y-46192921D02*
X137868999Y-46192921D01*
X137179570Y-46954921D02*
X137614999Y-46954921D01*
X137397284Y-46954921D02*
X137397284Y-46192921D01*
X137397284Y-46192921D02*
X137469856Y-46301778D01*
X137469856Y-46301778D02*
X137542427Y-46374350D01*
X137542427Y-46374350D02*
X137614999Y-46410636D01*
X136707856Y-46192921D02*
X136635285Y-46192921D01*
X136635285Y-46192921D02*
X136562713Y-46229207D01*
X136562713Y-46229207D02*
X136526428Y-46265493D01*
X136526428Y-46265493D02*
X136490142Y-46338064D01*
X136490142Y-46338064D02*
X136453856Y-46483207D01*
X136453856Y-46483207D02*
X136453856Y-46664636D01*
X136453856Y-46664636D02*
X136490142Y-46809778D01*
X136490142Y-46809778D02*
X136526428Y-46882350D01*
X136526428Y-46882350D02*
X136562713Y-46918636D01*
X136562713Y-46918636D02*
X136635285Y-46954921D01*
X136635285Y-46954921D02*
X136707856Y-46954921D01*
X136707856Y-46954921D02*
X136780428Y-46918636D01*
X136780428Y-46918636D02*
X136816713Y-46882350D01*
X136816713Y-46882350D02*
X136852999Y-46809778D01*
X136852999Y-46809778D02*
X136889285Y-46664636D01*
X136889285Y-46664636D02*
X136889285Y-46483207D01*
X136889285Y-46483207D02*
X136852999Y-46338064D01*
X136852999Y-46338064D02*
X136816713Y-46265493D01*
X136816713Y-46265493D02*
X136780428Y-46229207D01*
X136780428Y-46229207D02*
X136707856Y-46192921D01*
D11*
X98903930Y-73494119D02*
X98630597Y-73884595D01*
X98435359Y-73494119D02*
X98435359Y-74314119D01*
X98435359Y-74314119D02*
X98747740Y-74314119D01*
X98747740Y-74314119D02*
X98825835Y-74275071D01*
X98825835Y-74275071D02*
X98864882Y-74236024D01*
X98864882Y-74236024D02*
X98903930Y-74157928D01*
X98903930Y-74157928D02*
X98903930Y-74040786D01*
X98903930Y-74040786D02*
X98864882Y-73962690D01*
X98864882Y-73962690D02*
X98825835Y-73923643D01*
X98825835Y-73923643D02*
X98747740Y-73884595D01*
X98747740Y-73884595D02*
X98435359Y-73884595D01*
X99294406Y-73494119D02*
X99450597Y-73494119D01*
X99450597Y-73494119D02*
X99528692Y-73533167D01*
X99528692Y-73533167D02*
X99567740Y-73572214D01*
X99567740Y-73572214D02*
X99645835Y-73689357D01*
X99645835Y-73689357D02*
X99684882Y-73845547D01*
X99684882Y-73845547D02*
X99684882Y-74157928D01*
X99684882Y-74157928D02*
X99645835Y-74236024D01*
X99645835Y-74236024D02*
X99606787Y-74275071D01*
X99606787Y-74275071D02*
X99528692Y-74314119D01*
X99528692Y-74314119D02*
X99372501Y-74314119D01*
X99372501Y-74314119D02*
X99294406Y-74275071D01*
X99294406Y-74275071D02*
X99255359Y-74236024D01*
X99255359Y-74236024D02*
X99216311Y-74157928D01*
X99216311Y-74157928D02*
X99216311Y-73962690D01*
X99216311Y-73962690D02*
X99255359Y-73884595D01*
X99255359Y-73884595D02*
X99294406Y-73845547D01*
X99294406Y-73845547D02*
X99372501Y-73806500D01*
X99372501Y-73806500D02*
X99528692Y-73806500D01*
X99528692Y-73806500D02*
X99606787Y-73845547D01*
X99606787Y-73845547D02*
X99645835Y-73884595D01*
X99645835Y-73884595D02*
X99684882Y-73962690D01*
X100465834Y-73494119D02*
X99997263Y-73494119D01*
X100231549Y-73494119D02*
X100231549Y-74314119D01*
X100231549Y-74314119D02*
X100153453Y-74196976D01*
X100153453Y-74196976D02*
X100075358Y-74118881D01*
X100075358Y-74118881D02*
X99997263Y-74079833D01*
X101246786Y-73494119D02*
X100778215Y-73494119D01*
X101012501Y-73494119D02*
X101012501Y-74314119D01*
X101012501Y-74314119D02*
X100934405Y-74196976D01*
X100934405Y-74196976D02*
X100856310Y-74118881D01*
X100856310Y-74118881D02*
X100778215Y-74079833D01*
X122802808Y-122656651D02*
X122412332Y-122383318D01*
X122802808Y-122188080D02*
X121982808Y-122188080D01*
X121982808Y-122188080D02*
X121982808Y-122500461D01*
X121982808Y-122500461D02*
X122021856Y-122578556D01*
X122021856Y-122578556D02*
X122060903Y-122617603D01*
X122060903Y-122617603D02*
X122138999Y-122656651D01*
X122138999Y-122656651D02*
X122256141Y-122656651D01*
X122256141Y-122656651D02*
X122334237Y-122617603D01*
X122334237Y-122617603D02*
X122373284Y-122578556D01*
X122373284Y-122578556D02*
X122412332Y-122500461D01*
X122412332Y-122500461D02*
X122412332Y-122188080D01*
X122256141Y-123359508D02*
X122802808Y-123359508D01*
X121943761Y-123164270D02*
X122529475Y-122969032D01*
X122529475Y-122969032D02*
X122529475Y-123476651D01*
X121982808Y-123945222D02*
X121982808Y-124023317D01*
X121982808Y-124023317D02*
X122021856Y-124101413D01*
X122021856Y-124101413D02*
X122060903Y-124140460D01*
X122060903Y-124140460D02*
X122138999Y-124179508D01*
X122138999Y-124179508D02*
X122295189Y-124218555D01*
X122295189Y-124218555D02*
X122490427Y-124218555D01*
X122490427Y-124218555D02*
X122646618Y-124179508D01*
X122646618Y-124179508D02*
X122724713Y-124140460D01*
X122724713Y-124140460D02*
X122763761Y-124101413D01*
X122763761Y-124101413D02*
X122802808Y-124023317D01*
X122802808Y-124023317D02*
X122802808Y-123945222D01*
X122802808Y-123945222D02*
X122763761Y-123867127D01*
X122763761Y-123867127D02*
X122724713Y-123828079D01*
X122724713Y-123828079D02*
X122646618Y-123789032D01*
X122646618Y-123789032D02*
X122490427Y-123749984D01*
X122490427Y-123749984D02*
X122295189Y-123749984D01*
X122295189Y-123749984D02*
X122138999Y-123789032D01*
X122138999Y-123789032D02*
X122060903Y-123828079D01*
X122060903Y-123828079D02*
X122021856Y-123867127D01*
X122021856Y-123867127D02*
X121982808Y-123945222D01*
X121982808Y-124491888D02*
X121982808Y-124999507D01*
X121982808Y-124999507D02*
X122295189Y-124726174D01*
X122295189Y-124726174D02*
X122295189Y-124843317D01*
X122295189Y-124843317D02*
X122334237Y-124921412D01*
X122334237Y-124921412D02*
X122373284Y-124960460D01*
X122373284Y-124960460D02*
X122451380Y-124999507D01*
X122451380Y-124999507D02*
X122646618Y-124999507D01*
X122646618Y-124999507D02*
X122724713Y-124960460D01*
X122724713Y-124960460D02*
X122763761Y-124921412D01*
X122763761Y-124921412D02*
X122802808Y-124843317D01*
X122802808Y-124843317D02*
X122802808Y-124609031D01*
X122802808Y-124609031D02*
X122763761Y-124530936D01*
X122763761Y-124530936D02*
X122724713Y-124491888D01*
X99115651Y-58449191D02*
X98842318Y-58839667D01*
X98647080Y-58449191D02*
X98647080Y-59269191D01*
X98647080Y-59269191D02*
X98959461Y-59269191D01*
X98959461Y-59269191D02*
X99037556Y-59230143D01*
X99037556Y-59230143D02*
X99076603Y-59191096D01*
X99076603Y-59191096D02*
X99115651Y-59113000D01*
X99115651Y-59113000D02*
X99115651Y-58995858D01*
X99115651Y-58995858D02*
X99076603Y-58917762D01*
X99076603Y-58917762D02*
X99037556Y-58878715D01*
X99037556Y-58878715D02*
X98959461Y-58839667D01*
X98959461Y-58839667D02*
X98647080Y-58839667D01*
X99506127Y-58449191D02*
X99662318Y-58449191D01*
X99662318Y-58449191D02*
X99740413Y-58488239D01*
X99740413Y-58488239D02*
X99779461Y-58527286D01*
X99779461Y-58527286D02*
X99857556Y-58644429D01*
X99857556Y-58644429D02*
X99896603Y-58800619D01*
X99896603Y-58800619D02*
X99896603Y-59113000D01*
X99896603Y-59113000D02*
X99857556Y-59191096D01*
X99857556Y-59191096D02*
X99818508Y-59230143D01*
X99818508Y-59230143D02*
X99740413Y-59269191D01*
X99740413Y-59269191D02*
X99584222Y-59269191D01*
X99584222Y-59269191D02*
X99506127Y-59230143D01*
X99506127Y-59230143D02*
X99467080Y-59191096D01*
X99467080Y-59191096D02*
X99428032Y-59113000D01*
X99428032Y-59113000D02*
X99428032Y-58917762D01*
X99428032Y-58917762D02*
X99467080Y-58839667D01*
X99467080Y-58839667D02*
X99506127Y-58800619D01*
X99506127Y-58800619D02*
X99584222Y-58761572D01*
X99584222Y-58761572D02*
X99740413Y-58761572D01*
X99740413Y-58761572D02*
X99818508Y-58800619D01*
X99818508Y-58800619D02*
X99857556Y-58839667D01*
X99857556Y-58839667D02*
X99896603Y-58917762D01*
X100404222Y-59269191D02*
X100482317Y-59269191D01*
X100482317Y-59269191D02*
X100560413Y-59230143D01*
X100560413Y-59230143D02*
X100599460Y-59191096D01*
X100599460Y-59191096D02*
X100638508Y-59113000D01*
X100638508Y-59113000D02*
X100677555Y-58956810D01*
X100677555Y-58956810D02*
X100677555Y-58761572D01*
X100677555Y-58761572D02*
X100638508Y-58605381D01*
X100638508Y-58605381D02*
X100599460Y-58527286D01*
X100599460Y-58527286D02*
X100560413Y-58488239D01*
X100560413Y-58488239D02*
X100482317Y-58449191D01*
X100482317Y-58449191D02*
X100404222Y-58449191D01*
X100404222Y-58449191D02*
X100326127Y-58488239D01*
X100326127Y-58488239D02*
X100287079Y-58527286D01*
X100287079Y-58527286D02*
X100248032Y-58605381D01*
X100248032Y-58605381D02*
X100208984Y-58761572D01*
X100208984Y-58761572D02*
X100208984Y-58956810D01*
X100208984Y-58956810D02*
X100248032Y-59113000D01*
X100248032Y-59113000D02*
X100287079Y-59191096D01*
X100287079Y-59191096D02*
X100326127Y-59230143D01*
X100326127Y-59230143D02*
X100404222Y-59269191D01*
X100950888Y-59269191D02*
X101458507Y-59269191D01*
X101458507Y-59269191D02*
X101185174Y-58956810D01*
X101185174Y-58956810D02*
X101302317Y-58956810D01*
X101302317Y-58956810D02*
X101380412Y-58917762D01*
X101380412Y-58917762D02*
X101419460Y-58878715D01*
X101419460Y-58878715D02*
X101458507Y-58800619D01*
X101458507Y-58800619D02*
X101458507Y-58605381D01*
X101458507Y-58605381D02*
X101419460Y-58527286D01*
X101419460Y-58527286D02*
X101380412Y-58488239D01*
X101380412Y-58488239D02*
X101302317Y-58449191D01*
X101302317Y-58449191D02*
X101068031Y-58449191D01*
X101068031Y-58449191D02*
X100989936Y-58488239D01*
X100989936Y-58488239D02*
X100950888Y-58527286D01*
X88243930Y-73396191D02*
X87970597Y-73786667D01*
X87775359Y-73396191D02*
X87775359Y-74216191D01*
X87775359Y-74216191D02*
X88087740Y-74216191D01*
X88087740Y-74216191D02*
X88165835Y-74177143D01*
X88165835Y-74177143D02*
X88204882Y-74138096D01*
X88204882Y-74138096D02*
X88243930Y-74060000D01*
X88243930Y-74060000D02*
X88243930Y-73942858D01*
X88243930Y-73942858D02*
X88204882Y-73864762D01*
X88204882Y-73864762D02*
X88165835Y-73825715D01*
X88165835Y-73825715D02*
X88087740Y-73786667D01*
X88087740Y-73786667D02*
X87775359Y-73786667D01*
X88634406Y-73396191D02*
X88790597Y-73396191D01*
X88790597Y-73396191D02*
X88868692Y-73435239D01*
X88868692Y-73435239D02*
X88907740Y-73474286D01*
X88907740Y-73474286D02*
X88985835Y-73591429D01*
X88985835Y-73591429D02*
X89024882Y-73747619D01*
X89024882Y-73747619D02*
X89024882Y-74060000D01*
X89024882Y-74060000D02*
X88985835Y-74138096D01*
X88985835Y-74138096D02*
X88946787Y-74177143D01*
X88946787Y-74177143D02*
X88868692Y-74216191D01*
X88868692Y-74216191D02*
X88712501Y-74216191D01*
X88712501Y-74216191D02*
X88634406Y-74177143D01*
X88634406Y-74177143D02*
X88595359Y-74138096D01*
X88595359Y-74138096D02*
X88556311Y-74060000D01*
X88556311Y-74060000D02*
X88556311Y-73864762D01*
X88556311Y-73864762D02*
X88595359Y-73786667D01*
X88595359Y-73786667D02*
X88634406Y-73747619D01*
X88634406Y-73747619D02*
X88712501Y-73708572D01*
X88712501Y-73708572D02*
X88868692Y-73708572D01*
X88868692Y-73708572D02*
X88946787Y-73747619D01*
X88946787Y-73747619D02*
X88985835Y-73786667D01*
X88985835Y-73786667D02*
X89024882Y-73864762D01*
X89532501Y-74216191D02*
X89610596Y-74216191D01*
X89610596Y-74216191D02*
X89688692Y-74177143D01*
X89688692Y-74177143D02*
X89727739Y-74138096D01*
X89727739Y-74138096D02*
X89766787Y-74060000D01*
X89766787Y-74060000D02*
X89805834Y-73903810D01*
X89805834Y-73903810D02*
X89805834Y-73708572D01*
X89805834Y-73708572D02*
X89766787Y-73552381D01*
X89766787Y-73552381D02*
X89727739Y-73474286D01*
X89727739Y-73474286D02*
X89688692Y-73435239D01*
X89688692Y-73435239D02*
X89610596Y-73396191D01*
X89610596Y-73396191D02*
X89532501Y-73396191D01*
X89532501Y-73396191D02*
X89454406Y-73435239D01*
X89454406Y-73435239D02*
X89415358Y-73474286D01*
X89415358Y-73474286D02*
X89376311Y-73552381D01*
X89376311Y-73552381D02*
X89337263Y-73708572D01*
X89337263Y-73708572D02*
X89337263Y-73903810D01*
X89337263Y-73903810D02*
X89376311Y-74060000D01*
X89376311Y-74060000D02*
X89415358Y-74138096D01*
X89415358Y-74138096D02*
X89454406Y-74177143D01*
X89454406Y-74177143D02*
X89532501Y-74216191D01*
X90508691Y-74216191D02*
X90352501Y-74216191D01*
X90352501Y-74216191D02*
X90274405Y-74177143D01*
X90274405Y-74177143D02*
X90235358Y-74138096D01*
X90235358Y-74138096D02*
X90157263Y-74020953D01*
X90157263Y-74020953D02*
X90118215Y-73864762D01*
X90118215Y-73864762D02*
X90118215Y-73552381D01*
X90118215Y-73552381D02*
X90157263Y-73474286D01*
X90157263Y-73474286D02*
X90196310Y-73435239D01*
X90196310Y-73435239D02*
X90274405Y-73396191D01*
X90274405Y-73396191D02*
X90430596Y-73396191D01*
X90430596Y-73396191D02*
X90508691Y-73435239D01*
X90508691Y-73435239D02*
X90547739Y-73474286D01*
X90547739Y-73474286D02*
X90586786Y-73552381D01*
X90586786Y-73552381D02*
X90586786Y-73747619D01*
X90586786Y-73747619D02*
X90547739Y-73825715D01*
X90547739Y-73825715D02*
X90508691Y-73864762D01*
X90508691Y-73864762D02*
X90430596Y-73903810D01*
X90430596Y-73903810D02*
X90274405Y-73903810D01*
X90274405Y-73903810D02*
X90196310Y-73864762D01*
X90196310Y-73864762D02*
X90157263Y-73825715D01*
X90157263Y-73825715D02*
X90118215Y-73747619D01*
X125936736Y-122470651D02*
X125546260Y-122197318D01*
X125936736Y-122002080D02*
X125116736Y-122002080D01*
X125116736Y-122002080D02*
X125116736Y-122314461D01*
X125116736Y-122314461D02*
X125155784Y-122392556D01*
X125155784Y-122392556D02*
X125194831Y-122431603D01*
X125194831Y-122431603D02*
X125272927Y-122470651D01*
X125272927Y-122470651D02*
X125390069Y-122470651D01*
X125390069Y-122470651D02*
X125468165Y-122431603D01*
X125468165Y-122431603D02*
X125507212Y-122392556D01*
X125507212Y-122392556D02*
X125546260Y-122314461D01*
X125546260Y-122314461D02*
X125546260Y-122002080D01*
X125390069Y-123173508D02*
X125936736Y-123173508D01*
X125077689Y-122978270D02*
X125663403Y-122783032D01*
X125663403Y-122783032D02*
X125663403Y-123290651D01*
X125116736Y-123759222D02*
X125116736Y-123837317D01*
X125116736Y-123837317D02*
X125155784Y-123915413D01*
X125155784Y-123915413D02*
X125194831Y-123954460D01*
X125194831Y-123954460D02*
X125272927Y-123993508D01*
X125272927Y-123993508D02*
X125429117Y-124032555D01*
X125429117Y-124032555D02*
X125624355Y-124032555D01*
X125624355Y-124032555D02*
X125780546Y-123993508D01*
X125780546Y-123993508D02*
X125858641Y-123954460D01*
X125858641Y-123954460D02*
X125897689Y-123915413D01*
X125897689Y-123915413D02*
X125936736Y-123837317D01*
X125936736Y-123837317D02*
X125936736Y-123759222D01*
X125936736Y-123759222D02*
X125897689Y-123681127D01*
X125897689Y-123681127D02*
X125858641Y-123642079D01*
X125858641Y-123642079D02*
X125780546Y-123603032D01*
X125780546Y-123603032D02*
X125624355Y-123563984D01*
X125624355Y-123563984D02*
X125429117Y-123563984D01*
X125429117Y-123563984D02*
X125272927Y-123603032D01*
X125272927Y-123603032D02*
X125194831Y-123642079D01*
X125194831Y-123642079D02*
X125155784Y-123681127D01*
X125155784Y-123681127D02*
X125116736Y-123759222D01*
X125116736Y-124774460D02*
X125116736Y-124383984D01*
X125116736Y-124383984D02*
X125507212Y-124344936D01*
X125507212Y-124344936D02*
X125468165Y-124383984D01*
X125468165Y-124383984D02*
X125429117Y-124462079D01*
X125429117Y-124462079D02*
X125429117Y-124657317D01*
X125429117Y-124657317D02*
X125468165Y-124735412D01*
X125468165Y-124735412D02*
X125507212Y-124774460D01*
X125507212Y-124774460D02*
X125585308Y-124813507D01*
X125585308Y-124813507D02*
X125780546Y-124813507D01*
X125780546Y-124813507D02*
X125858641Y-124774460D01*
X125858641Y-124774460D02*
X125897689Y-124735412D01*
X125897689Y-124735412D02*
X125936736Y-124657317D01*
X125936736Y-124657317D02*
X125936736Y-124462079D01*
X125936736Y-124462079D02*
X125897689Y-124383984D01*
X125897689Y-124383984D02*
X125858641Y-124344936D01*
X109551651Y-57740191D02*
X109278318Y-58130667D01*
X109083080Y-57740191D02*
X109083080Y-58560191D01*
X109083080Y-58560191D02*
X109395461Y-58560191D01*
X109395461Y-58560191D02*
X109473556Y-58521143D01*
X109473556Y-58521143D02*
X109512603Y-58482096D01*
X109512603Y-58482096D02*
X109551651Y-58404000D01*
X109551651Y-58404000D02*
X109551651Y-58286858D01*
X109551651Y-58286858D02*
X109512603Y-58208762D01*
X109512603Y-58208762D02*
X109473556Y-58169715D01*
X109473556Y-58169715D02*
X109395461Y-58130667D01*
X109395461Y-58130667D02*
X109083080Y-58130667D01*
X109942127Y-57740191D02*
X110098318Y-57740191D01*
X110098318Y-57740191D02*
X110176413Y-57779239D01*
X110176413Y-57779239D02*
X110215461Y-57818286D01*
X110215461Y-57818286D02*
X110293556Y-57935429D01*
X110293556Y-57935429D02*
X110332603Y-58091619D01*
X110332603Y-58091619D02*
X110332603Y-58404000D01*
X110332603Y-58404000D02*
X110293556Y-58482096D01*
X110293556Y-58482096D02*
X110254508Y-58521143D01*
X110254508Y-58521143D02*
X110176413Y-58560191D01*
X110176413Y-58560191D02*
X110020222Y-58560191D01*
X110020222Y-58560191D02*
X109942127Y-58521143D01*
X109942127Y-58521143D02*
X109903080Y-58482096D01*
X109903080Y-58482096D02*
X109864032Y-58404000D01*
X109864032Y-58404000D02*
X109864032Y-58208762D01*
X109864032Y-58208762D02*
X109903080Y-58130667D01*
X109903080Y-58130667D02*
X109942127Y-58091619D01*
X109942127Y-58091619D02*
X110020222Y-58052572D01*
X110020222Y-58052572D02*
X110176413Y-58052572D01*
X110176413Y-58052572D02*
X110254508Y-58091619D01*
X110254508Y-58091619D02*
X110293556Y-58130667D01*
X110293556Y-58130667D02*
X110332603Y-58208762D01*
X111113555Y-57740191D02*
X110644984Y-57740191D01*
X110879270Y-57740191D02*
X110879270Y-58560191D01*
X110879270Y-58560191D02*
X110801174Y-58443048D01*
X110801174Y-58443048D02*
X110723079Y-58364953D01*
X110723079Y-58364953D02*
X110644984Y-58325905D01*
X111386888Y-58560191D02*
X111894507Y-58560191D01*
X111894507Y-58560191D02*
X111621174Y-58247810D01*
X111621174Y-58247810D02*
X111738317Y-58247810D01*
X111738317Y-58247810D02*
X111816412Y-58208762D01*
X111816412Y-58208762D02*
X111855460Y-58169715D01*
X111855460Y-58169715D02*
X111894507Y-58091619D01*
X111894507Y-58091619D02*
X111894507Y-57896381D01*
X111894507Y-57896381D02*
X111855460Y-57818286D01*
X111855460Y-57818286D02*
X111816412Y-57779239D01*
X111816412Y-57779239D02*
X111738317Y-57740191D01*
X111738317Y-57740191D02*
X111504031Y-57740191D01*
X111504031Y-57740191D02*
X111425936Y-57779239D01*
X111425936Y-57779239D02*
X111386888Y-57818286D01*
X120115651Y-104239191D02*
X119842318Y-104629667D01*
X119647080Y-104239191D02*
X119647080Y-105059191D01*
X119647080Y-105059191D02*
X119959461Y-105059191D01*
X119959461Y-105059191D02*
X120037556Y-105020143D01*
X120037556Y-105020143D02*
X120076603Y-104981096D01*
X120076603Y-104981096D02*
X120115651Y-104903000D01*
X120115651Y-104903000D02*
X120115651Y-104785858D01*
X120115651Y-104785858D02*
X120076603Y-104707762D01*
X120076603Y-104707762D02*
X120037556Y-104668715D01*
X120037556Y-104668715D02*
X119959461Y-104629667D01*
X119959461Y-104629667D02*
X119647080Y-104629667D01*
X120506127Y-104239191D02*
X120662318Y-104239191D01*
X120662318Y-104239191D02*
X120740413Y-104278239D01*
X120740413Y-104278239D02*
X120779461Y-104317286D01*
X120779461Y-104317286D02*
X120857556Y-104434429D01*
X120857556Y-104434429D02*
X120896603Y-104590619D01*
X120896603Y-104590619D02*
X120896603Y-104903000D01*
X120896603Y-104903000D02*
X120857556Y-104981096D01*
X120857556Y-104981096D02*
X120818508Y-105020143D01*
X120818508Y-105020143D02*
X120740413Y-105059191D01*
X120740413Y-105059191D02*
X120584222Y-105059191D01*
X120584222Y-105059191D02*
X120506127Y-105020143D01*
X120506127Y-105020143D02*
X120467080Y-104981096D01*
X120467080Y-104981096D02*
X120428032Y-104903000D01*
X120428032Y-104903000D02*
X120428032Y-104707762D01*
X120428032Y-104707762D02*
X120467080Y-104629667D01*
X120467080Y-104629667D02*
X120506127Y-104590619D01*
X120506127Y-104590619D02*
X120584222Y-104551572D01*
X120584222Y-104551572D02*
X120740413Y-104551572D01*
X120740413Y-104551572D02*
X120818508Y-104590619D01*
X120818508Y-104590619D02*
X120857556Y-104629667D01*
X120857556Y-104629667D02*
X120896603Y-104707762D01*
X121677555Y-104239191D02*
X121208984Y-104239191D01*
X121443270Y-104239191D02*
X121443270Y-105059191D01*
X121443270Y-105059191D02*
X121365174Y-104942048D01*
X121365174Y-104942048D02*
X121287079Y-104863953D01*
X121287079Y-104863953D02*
X121208984Y-104824905D01*
X122380412Y-105059191D02*
X122224222Y-105059191D01*
X122224222Y-105059191D02*
X122146126Y-105020143D01*
X122146126Y-105020143D02*
X122107079Y-104981096D01*
X122107079Y-104981096D02*
X122028984Y-104863953D01*
X122028984Y-104863953D02*
X121989936Y-104707762D01*
X121989936Y-104707762D02*
X121989936Y-104395381D01*
X121989936Y-104395381D02*
X122028984Y-104317286D01*
X122028984Y-104317286D02*
X122068031Y-104278239D01*
X122068031Y-104278239D02*
X122146126Y-104239191D01*
X122146126Y-104239191D02*
X122302317Y-104239191D01*
X122302317Y-104239191D02*
X122380412Y-104278239D01*
X122380412Y-104278239D02*
X122419460Y-104317286D01*
X122419460Y-104317286D02*
X122458507Y-104395381D01*
X122458507Y-104395381D02*
X122458507Y-104590619D01*
X122458507Y-104590619D02*
X122419460Y-104668715D01*
X122419460Y-104668715D02*
X122380412Y-104707762D01*
X122380412Y-104707762D02*
X122302317Y-104746810D01*
X122302317Y-104746810D02*
X122146126Y-104746810D01*
X122146126Y-104746810D02*
X122068031Y-104707762D01*
X122068031Y-104707762D02*
X122028984Y-104668715D01*
X122028984Y-104668715D02*
X121989936Y-104590619D01*
X118869808Y-122572651D02*
X118479332Y-122299318D01*
X118869808Y-122104080D02*
X118049808Y-122104080D01*
X118049808Y-122104080D02*
X118049808Y-122416461D01*
X118049808Y-122416461D02*
X118088856Y-122494556D01*
X118088856Y-122494556D02*
X118127903Y-122533603D01*
X118127903Y-122533603D02*
X118205999Y-122572651D01*
X118205999Y-122572651D02*
X118323141Y-122572651D01*
X118323141Y-122572651D02*
X118401237Y-122533603D01*
X118401237Y-122533603D02*
X118440284Y-122494556D01*
X118440284Y-122494556D02*
X118479332Y-122416461D01*
X118479332Y-122416461D02*
X118479332Y-122104080D01*
X118323141Y-123275508D02*
X118869808Y-123275508D01*
X118010761Y-123080270D02*
X118596475Y-122885032D01*
X118596475Y-122885032D02*
X118596475Y-123392651D01*
X118049808Y-123861222D02*
X118049808Y-123939317D01*
X118049808Y-123939317D02*
X118088856Y-124017413D01*
X118088856Y-124017413D02*
X118127903Y-124056460D01*
X118127903Y-124056460D02*
X118205999Y-124095508D01*
X118205999Y-124095508D02*
X118362189Y-124134555D01*
X118362189Y-124134555D02*
X118557427Y-124134555D01*
X118557427Y-124134555D02*
X118713618Y-124095508D01*
X118713618Y-124095508D02*
X118791713Y-124056460D01*
X118791713Y-124056460D02*
X118830761Y-124017413D01*
X118830761Y-124017413D02*
X118869808Y-123939317D01*
X118869808Y-123939317D02*
X118869808Y-123861222D01*
X118869808Y-123861222D02*
X118830761Y-123783127D01*
X118830761Y-123783127D02*
X118791713Y-123744079D01*
X118791713Y-123744079D02*
X118713618Y-123705032D01*
X118713618Y-123705032D02*
X118557427Y-123665984D01*
X118557427Y-123665984D02*
X118362189Y-123665984D01*
X118362189Y-123665984D02*
X118205999Y-123705032D01*
X118205999Y-123705032D02*
X118127903Y-123744079D01*
X118127903Y-123744079D02*
X118088856Y-123783127D01*
X118088856Y-123783127D02*
X118049808Y-123861222D01*
X118127903Y-124446936D02*
X118088856Y-124485984D01*
X118088856Y-124485984D02*
X118049808Y-124564079D01*
X118049808Y-124564079D02*
X118049808Y-124759317D01*
X118049808Y-124759317D02*
X118088856Y-124837412D01*
X118088856Y-124837412D02*
X118127903Y-124876460D01*
X118127903Y-124876460D02*
X118205999Y-124915507D01*
X118205999Y-124915507D02*
X118284094Y-124915507D01*
X118284094Y-124915507D02*
X118401237Y-124876460D01*
X118401237Y-124876460D02*
X118869808Y-124407888D01*
X118869808Y-124407888D02*
X118869808Y-124915507D01*
X109742651Y-88857191D02*
X109469318Y-89247667D01*
X109274080Y-88857191D02*
X109274080Y-89677191D01*
X109274080Y-89677191D02*
X109586461Y-89677191D01*
X109586461Y-89677191D02*
X109664556Y-89638143D01*
X109664556Y-89638143D02*
X109703603Y-89599096D01*
X109703603Y-89599096D02*
X109742651Y-89521000D01*
X109742651Y-89521000D02*
X109742651Y-89403858D01*
X109742651Y-89403858D02*
X109703603Y-89325762D01*
X109703603Y-89325762D02*
X109664556Y-89286715D01*
X109664556Y-89286715D02*
X109586461Y-89247667D01*
X109586461Y-89247667D02*
X109274080Y-89247667D01*
X110133127Y-88857191D02*
X110289318Y-88857191D01*
X110289318Y-88857191D02*
X110367413Y-88896239D01*
X110367413Y-88896239D02*
X110406461Y-88935286D01*
X110406461Y-88935286D02*
X110484556Y-89052429D01*
X110484556Y-89052429D02*
X110523603Y-89208619D01*
X110523603Y-89208619D02*
X110523603Y-89521000D01*
X110523603Y-89521000D02*
X110484556Y-89599096D01*
X110484556Y-89599096D02*
X110445508Y-89638143D01*
X110445508Y-89638143D02*
X110367413Y-89677191D01*
X110367413Y-89677191D02*
X110211222Y-89677191D01*
X110211222Y-89677191D02*
X110133127Y-89638143D01*
X110133127Y-89638143D02*
X110094080Y-89599096D01*
X110094080Y-89599096D02*
X110055032Y-89521000D01*
X110055032Y-89521000D02*
X110055032Y-89325762D01*
X110055032Y-89325762D02*
X110094080Y-89247667D01*
X110094080Y-89247667D02*
X110133127Y-89208619D01*
X110133127Y-89208619D02*
X110211222Y-89169572D01*
X110211222Y-89169572D02*
X110367413Y-89169572D01*
X110367413Y-89169572D02*
X110445508Y-89208619D01*
X110445508Y-89208619D02*
X110484556Y-89247667D01*
X110484556Y-89247667D02*
X110523603Y-89325762D01*
X111031222Y-89677191D02*
X111109317Y-89677191D01*
X111109317Y-89677191D02*
X111187413Y-89638143D01*
X111187413Y-89638143D02*
X111226460Y-89599096D01*
X111226460Y-89599096D02*
X111265508Y-89521000D01*
X111265508Y-89521000D02*
X111304555Y-89364810D01*
X111304555Y-89364810D02*
X111304555Y-89169572D01*
X111304555Y-89169572D02*
X111265508Y-89013381D01*
X111265508Y-89013381D02*
X111226460Y-88935286D01*
X111226460Y-88935286D02*
X111187413Y-88896239D01*
X111187413Y-88896239D02*
X111109317Y-88857191D01*
X111109317Y-88857191D02*
X111031222Y-88857191D01*
X111031222Y-88857191D02*
X110953127Y-88896239D01*
X110953127Y-88896239D02*
X110914079Y-88935286D01*
X110914079Y-88935286D02*
X110875032Y-89013381D01*
X110875032Y-89013381D02*
X110835984Y-89169572D01*
X110835984Y-89169572D02*
X110835984Y-89364810D01*
X110835984Y-89364810D02*
X110875032Y-89521000D01*
X110875032Y-89521000D02*
X110914079Y-89599096D01*
X110914079Y-89599096D02*
X110953127Y-89638143D01*
X110953127Y-89638143D02*
X111031222Y-89677191D01*
X112046460Y-89677191D02*
X111655984Y-89677191D01*
X111655984Y-89677191D02*
X111616936Y-89286715D01*
X111616936Y-89286715D02*
X111655984Y-89325762D01*
X111655984Y-89325762D02*
X111734079Y-89364810D01*
X111734079Y-89364810D02*
X111929317Y-89364810D01*
X111929317Y-89364810D02*
X112007412Y-89325762D01*
X112007412Y-89325762D02*
X112046460Y-89286715D01*
X112046460Y-89286715D02*
X112085507Y-89208619D01*
X112085507Y-89208619D02*
X112085507Y-89013381D01*
X112085507Y-89013381D02*
X112046460Y-88935286D01*
X112046460Y-88935286D02*
X112007412Y-88896239D01*
X112007412Y-88896239D02*
X111929317Y-88857191D01*
X111929317Y-88857191D02*
X111734079Y-88857191D01*
X111734079Y-88857191D02*
X111655984Y-88896239D01*
X111655984Y-88896239D02*
X111616936Y-88935286D01*
X120278808Y-122561651D02*
X119888332Y-122288318D01*
X120278808Y-122093080D02*
X119458808Y-122093080D01*
X119458808Y-122093080D02*
X119458808Y-122405461D01*
X119458808Y-122405461D02*
X119497856Y-122483556D01*
X119497856Y-122483556D02*
X119536903Y-122522603D01*
X119536903Y-122522603D02*
X119614999Y-122561651D01*
X119614999Y-122561651D02*
X119732141Y-122561651D01*
X119732141Y-122561651D02*
X119810237Y-122522603D01*
X119810237Y-122522603D02*
X119849284Y-122483556D01*
X119849284Y-122483556D02*
X119888332Y-122405461D01*
X119888332Y-122405461D02*
X119888332Y-122093080D01*
X119732141Y-123264508D02*
X120278808Y-123264508D01*
X119419761Y-123069270D02*
X120005475Y-122874032D01*
X120005475Y-122874032D02*
X120005475Y-123381651D01*
X119458808Y-123850222D02*
X119458808Y-123928317D01*
X119458808Y-123928317D02*
X119497856Y-124006413D01*
X119497856Y-124006413D02*
X119536903Y-124045460D01*
X119536903Y-124045460D02*
X119614999Y-124084508D01*
X119614999Y-124084508D02*
X119771189Y-124123555D01*
X119771189Y-124123555D02*
X119966427Y-124123555D01*
X119966427Y-124123555D02*
X120122618Y-124084508D01*
X120122618Y-124084508D02*
X120200713Y-124045460D01*
X120200713Y-124045460D02*
X120239761Y-124006413D01*
X120239761Y-124006413D02*
X120278808Y-123928317D01*
X120278808Y-123928317D02*
X120278808Y-123850222D01*
X120278808Y-123850222D02*
X120239761Y-123772127D01*
X120239761Y-123772127D02*
X120200713Y-123733079D01*
X120200713Y-123733079D02*
X120122618Y-123694032D01*
X120122618Y-123694032D02*
X119966427Y-123654984D01*
X119966427Y-123654984D02*
X119771189Y-123654984D01*
X119771189Y-123654984D02*
X119614999Y-123694032D01*
X119614999Y-123694032D02*
X119536903Y-123733079D01*
X119536903Y-123733079D02*
X119497856Y-123772127D01*
X119497856Y-123772127D02*
X119458808Y-123850222D01*
X120278808Y-124904507D02*
X120278808Y-124435936D01*
X120278808Y-124670222D02*
X119458808Y-124670222D01*
X119458808Y-124670222D02*
X119575951Y-124592126D01*
X119575951Y-124592126D02*
X119654046Y-124514031D01*
X119654046Y-124514031D02*
X119693094Y-124435936D01*
X99025651Y-104359191D02*
X98752318Y-104749667D01*
X98557080Y-104359191D02*
X98557080Y-105179191D01*
X98557080Y-105179191D02*
X98869461Y-105179191D01*
X98869461Y-105179191D02*
X98947556Y-105140143D01*
X98947556Y-105140143D02*
X98986603Y-105101096D01*
X98986603Y-105101096D02*
X99025651Y-105023000D01*
X99025651Y-105023000D02*
X99025651Y-104905858D01*
X99025651Y-104905858D02*
X98986603Y-104827762D01*
X98986603Y-104827762D02*
X98947556Y-104788715D01*
X98947556Y-104788715D02*
X98869461Y-104749667D01*
X98869461Y-104749667D02*
X98557080Y-104749667D01*
X99416127Y-104359191D02*
X99572318Y-104359191D01*
X99572318Y-104359191D02*
X99650413Y-104398239D01*
X99650413Y-104398239D02*
X99689461Y-104437286D01*
X99689461Y-104437286D02*
X99767556Y-104554429D01*
X99767556Y-104554429D02*
X99806603Y-104710619D01*
X99806603Y-104710619D02*
X99806603Y-105023000D01*
X99806603Y-105023000D02*
X99767556Y-105101096D01*
X99767556Y-105101096D02*
X99728508Y-105140143D01*
X99728508Y-105140143D02*
X99650413Y-105179191D01*
X99650413Y-105179191D02*
X99494222Y-105179191D01*
X99494222Y-105179191D02*
X99416127Y-105140143D01*
X99416127Y-105140143D02*
X99377080Y-105101096D01*
X99377080Y-105101096D02*
X99338032Y-105023000D01*
X99338032Y-105023000D02*
X99338032Y-104827762D01*
X99338032Y-104827762D02*
X99377080Y-104749667D01*
X99377080Y-104749667D02*
X99416127Y-104710619D01*
X99416127Y-104710619D02*
X99494222Y-104671572D01*
X99494222Y-104671572D02*
X99650413Y-104671572D01*
X99650413Y-104671572D02*
X99728508Y-104710619D01*
X99728508Y-104710619D02*
X99767556Y-104749667D01*
X99767556Y-104749667D02*
X99806603Y-104827762D01*
X100587555Y-104359191D02*
X100118984Y-104359191D01*
X100353270Y-104359191D02*
X100353270Y-105179191D01*
X100353270Y-105179191D02*
X100275174Y-105062048D01*
X100275174Y-105062048D02*
X100197079Y-104983953D01*
X100197079Y-104983953D02*
X100118984Y-104944905D01*
X100899936Y-105101096D02*
X100938984Y-105140143D01*
X100938984Y-105140143D02*
X101017079Y-105179191D01*
X101017079Y-105179191D02*
X101212317Y-105179191D01*
X101212317Y-105179191D02*
X101290412Y-105140143D01*
X101290412Y-105140143D02*
X101329460Y-105101096D01*
X101329460Y-105101096D02*
X101368507Y-105023000D01*
X101368507Y-105023000D02*
X101368507Y-104944905D01*
X101368507Y-104944905D02*
X101329460Y-104827762D01*
X101329460Y-104827762D02*
X100860888Y-104359191D01*
X100860888Y-104359191D02*
X101368507Y-104359191D01*
X109385651Y-104259191D02*
X109112318Y-104649667D01*
X108917080Y-104259191D02*
X108917080Y-105079191D01*
X108917080Y-105079191D02*
X109229461Y-105079191D01*
X109229461Y-105079191D02*
X109307556Y-105040143D01*
X109307556Y-105040143D02*
X109346603Y-105001096D01*
X109346603Y-105001096D02*
X109385651Y-104923000D01*
X109385651Y-104923000D02*
X109385651Y-104805858D01*
X109385651Y-104805858D02*
X109346603Y-104727762D01*
X109346603Y-104727762D02*
X109307556Y-104688715D01*
X109307556Y-104688715D02*
X109229461Y-104649667D01*
X109229461Y-104649667D02*
X108917080Y-104649667D01*
X109776127Y-104259191D02*
X109932318Y-104259191D01*
X109932318Y-104259191D02*
X110010413Y-104298239D01*
X110010413Y-104298239D02*
X110049461Y-104337286D01*
X110049461Y-104337286D02*
X110127556Y-104454429D01*
X110127556Y-104454429D02*
X110166603Y-104610619D01*
X110166603Y-104610619D02*
X110166603Y-104923000D01*
X110166603Y-104923000D02*
X110127556Y-105001096D01*
X110127556Y-105001096D02*
X110088508Y-105040143D01*
X110088508Y-105040143D02*
X110010413Y-105079191D01*
X110010413Y-105079191D02*
X109854222Y-105079191D01*
X109854222Y-105079191D02*
X109776127Y-105040143D01*
X109776127Y-105040143D02*
X109737080Y-105001096D01*
X109737080Y-105001096D02*
X109698032Y-104923000D01*
X109698032Y-104923000D02*
X109698032Y-104727762D01*
X109698032Y-104727762D02*
X109737080Y-104649667D01*
X109737080Y-104649667D02*
X109776127Y-104610619D01*
X109776127Y-104610619D02*
X109854222Y-104571572D01*
X109854222Y-104571572D02*
X110010413Y-104571572D01*
X110010413Y-104571572D02*
X110088508Y-104610619D01*
X110088508Y-104610619D02*
X110127556Y-104649667D01*
X110127556Y-104649667D02*
X110166603Y-104727762D01*
X110947555Y-104259191D02*
X110478984Y-104259191D01*
X110713270Y-104259191D02*
X110713270Y-105079191D01*
X110713270Y-105079191D02*
X110635174Y-104962048D01*
X110635174Y-104962048D02*
X110557079Y-104883953D01*
X110557079Y-104883953D02*
X110478984Y-104844905D01*
X111650412Y-104805858D02*
X111650412Y-104259191D01*
X111455174Y-105118239D02*
X111259936Y-104532524D01*
X111259936Y-104532524D02*
X111767555Y-104532524D01*
X88455651Y-58349191D02*
X88182318Y-58739667D01*
X87987080Y-58349191D02*
X87987080Y-59169191D01*
X87987080Y-59169191D02*
X88299461Y-59169191D01*
X88299461Y-59169191D02*
X88377556Y-59130143D01*
X88377556Y-59130143D02*
X88416603Y-59091096D01*
X88416603Y-59091096D02*
X88455651Y-59013000D01*
X88455651Y-59013000D02*
X88455651Y-58895858D01*
X88455651Y-58895858D02*
X88416603Y-58817762D01*
X88416603Y-58817762D02*
X88377556Y-58778715D01*
X88377556Y-58778715D02*
X88299461Y-58739667D01*
X88299461Y-58739667D02*
X87987080Y-58739667D01*
X88846127Y-58349191D02*
X89002318Y-58349191D01*
X89002318Y-58349191D02*
X89080413Y-58388239D01*
X89080413Y-58388239D02*
X89119461Y-58427286D01*
X89119461Y-58427286D02*
X89197556Y-58544429D01*
X89197556Y-58544429D02*
X89236603Y-58700619D01*
X89236603Y-58700619D02*
X89236603Y-59013000D01*
X89236603Y-59013000D02*
X89197556Y-59091096D01*
X89197556Y-59091096D02*
X89158508Y-59130143D01*
X89158508Y-59130143D02*
X89080413Y-59169191D01*
X89080413Y-59169191D02*
X88924222Y-59169191D01*
X88924222Y-59169191D02*
X88846127Y-59130143D01*
X88846127Y-59130143D02*
X88807080Y-59091096D01*
X88807080Y-59091096D02*
X88768032Y-59013000D01*
X88768032Y-59013000D02*
X88768032Y-58817762D01*
X88768032Y-58817762D02*
X88807080Y-58739667D01*
X88807080Y-58739667D02*
X88846127Y-58700619D01*
X88846127Y-58700619D02*
X88924222Y-58661572D01*
X88924222Y-58661572D02*
X89080413Y-58661572D01*
X89080413Y-58661572D02*
X89158508Y-58700619D01*
X89158508Y-58700619D02*
X89197556Y-58739667D01*
X89197556Y-58739667D02*
X89236603Y-58817762D01*
X89744222Y-59169191D02*
X89822317Y-59169191D01*
X89822317Y-59169191D02*
X89900413Y-59130143D01*
X89900413Y-59130143D02*
X89939460Y-59091096D01*
X89939460Y-59091096D02*
X89978508Y-59013000D01*
X89978508Y-59013000D02*
X90017555Y-58856810D01*
X90017555Y-58856810D02*
X90017555Y-58661572D01*
X90017555Y-58661572D02*
X89978508Y-58505381D01*
X89978508Y-58505381D02*
X89939460Y-58427286D01*
X89939460Y-58427286D02*
X89900413Y-58388239D01*
X89900413Y-58388239D02*
X89822317Y-58349191D01*
X89822317Y-58349191D02*
X89744222Y-58349191D01*
X89744222Y-58349191D02*
X89666127Y-58388239D01*
X89666127Y-58388239D02*
X89627079Y-58427286D01*
X89627079Y-58427286D02*
X89588032Y-58505381D01*
X89588032Y-58505381D02*
X89548984Y-58661572D01*
X89548984Y-58661572D02*
X89548984Y-58856810D01*
X89548984Y-58856810D02*
X89588032Y-59013000D01*
X89588032Y-59013000D02*
X89627079Y-59091096D01*
X89627079Y-59091096D02*
X89666127Y-59130143D01*
X89666127Y-59130143D02*
X89744222Y-59169191D01*
X90329936Y-59091096D02*
X90368984Y-59130143D01*
X90368984Y-59130143D02*
X90447079Y-59169191D01*
X90447079Y-59169191D02*
X90642317Y-59169191D01*
X90642317Y-59169191D02*
X90720412Y-59130143D01*
X90720412Y-59130143D02*
X90759460Y-59091096D01*
X90759460Y-59091096D02*
X90798507Y-59013000D01*
X90798507Y-59013000D02*
X90798507Y-58934905D01*
X90798507Y-58934905D02*
X90759460Y-58817762D01*
X90759460Y-58817762D02*
X90290888Y-58349191D01*
X90290888Y-58349191D02*
X90798507Y-58349191D01*
X127457808Y-122304651D02*
X127067332Y-122031318D01*
X127457808Y-121836080D02*
X126637808Y-121836080D01*
X126637808Y-121836080D02*
X126637808Y-122148461D01*
X126637808Y-122148461D02*
X126676856Y-122226556D01*
X126676856Y-122226556D02*
X126715903Y-122265603D01*
X126715903Y-122265603D02*
X126793999Y-122304651D01*
X126793999Y-122304651D02*
X126911141Y-122304651D01*
X126911141Y-122304651D02*
X126989237Y-122265603D01*
X126989237Y-122265603D02*
X127028284Y-122226556D01*
X127028284Y-122226556D02*
X127067332Y-122148461D01*
X127067332Y-122148461D02*
X127067332Y-121836080D01*
X126911141Y-123007508D02*
X127457808Y-123007508D01*
X126598761Y-122812270D02*
X127184475Y-122617032D01*
X127184475Y-122617032D02*
X127184475Y-123124651D01*
X126637808Y-123593222D02*
X126637808Y-123671317D01*
X126637808Y-123671317D02*
X126676856Y-123749413D01*
X126676856Y-123749413D02*
X126715903Y-123788460D01*
X126715903Y-123788460D02*
X126793999Y-123827508D01*
X126793999Y-123827508D02*
X126950189Y-123866555D01*
X126950189Y-123866555D02*
X127145427Y-123866555D01*
X127145427Y-123866555D02*
X127301618Y-123827508D01*
X127301618Y-123827508D02*
X127379713Y-123788460D01*
X127379713Y-123788460D02*
X127418761Y-123749413D01*
X127418761Y-123749413D02*
X127457808Y-123671317D01*
X127457808Y-123671317D02*
X127457808Y-123593222D01*
X127457808Y-123593222D02*
X127418761Y-123515127D01*
X127418761Y-123515127D02*
X127379713Y-123476079D01*
X127379713Y-123476079D02*
X127301618Y-123437032D01*
X127301618Y-123437032D02*
X127145427Y-123397984D01*
X127145427Y-123397984D02*
X126950189Y-123397984D01*
X126950189Y-123397984D02*
X126793999Y-123437032D01*
X126793999Y-123437032D02*
X126715903Y-123476079D01*
X126715903Y-123476079D02*
X126676856Y-123515127D01*
X126676856Y-123515127D02*
X126637808Y-123593222D01*
X126637808Y-124569412D02*
X126637808Y-124413222D01*
X126637808Y-124413222D02*
X126676856Y-124335126D01*
X126676856Y-124335126D02*
X126715903Y-124296079D01*
X126715903Y-124296079D02*
X126833046Y-124217984D01*
X126833046Y-124217984D02*
X126989237Y-124178936D01*
X126989237Y-124178936D02*
X127301618Y-124178936D01*
X127301618Y-124178936D02*
X127379713Y-124217984D01*
X127379713Y-124217984D02*
X127418761Y-124257031D01*
X127418761Y-124257031D02*
X127457808Y-124335126D01*
X127457808Y-124335126D02*
X127457808Y-124491317D01*
X127457808Y-124491317D02*
X127418761Y-124569412D01*
X127418761Y-124569412D02*
X127379713Y-124608460D01*
X127379713Y-124608460D02*
X127301618Y-124647507D01*
X127301618Y-124647507D02*
X127106380Y-124647507D01*
X127106380Y-124647507D02*
X127028284Y-124608460D01*
X127028284Y-124608460D02*
X126989237Y-124569412D01*
X126989237Y-124569412D02*
X126950189Y-124491317D01*
X126950189Y-124491317D02*
X126950189Y-124335126D01*
X126950189Y-124335126D02*
X126989237Y-124257031D01*
X126989237Y-124257031D02*
X127028284Y-124217984D01*
X127028284Y-124217984D02*
X127106380Y-124178936D01*
X88577372Y-89212191D02*
X88304039Y-89602667D01*
X88108801Y-89212191D02*
X88108801Y-90032191D01*
X88108801Y-90032191D02*
X88421182Y-90032191D01*
X88421182Y-90032191D02*
X88499277Y-89993143D01*
X88499277Y-89993143D02*
X88538324Y-89954096D01*
X88538324Y-89954096D02*
X88577372Y-89876000D01*
X88577372Y-89876000D02*
X88577372Y-89758858D01*
X88577372Y-89758858D02*
X88538324Y-89680762D01*
X88538324Y-89680762D02*
X88499277Y-89641715D01*
X88499277Y-89641715D02*
X88421182Y-89602667D01*
X88421182Y-89602667D02*
X88108801Y-89602667D01*
X88967848Y-89212191D02*
X89124039Y-89212191D01*
X89124039Y-89212191D02*
X89202134Y-89251239D01*
X89202134Y-89251239D02*
X89241182Y-89290286D01*
X89241182Y-89290286D02*
X89319277Y-89407429D01*
X89319277Y-89407429D02*
X89358324Y-89563619D01*
X89358324Y-89563619D02*
X89358324Y-89876000D01*
X89358324Y-89876000D02*
X89319277Y-89954096D01*
X89319277Y-89954096D02*
X89280229Y-89993143D01*
X89280229Y-89993143D02*
X89202134Y-90032191D01*
X89202134Y-90032191D02*
X89045943Y-90032191D01*
X89045943Y-90032191D02*
X88967848Y-89993143D01*
X88967848Y-89993143D02*
X88928801Y-89954096D01*
X88928801Y-89954096D02*
X88889753Y-89876000D01*
X88889753Y-89876000D02*
X88889753Y-89680762D01*
X88889753Y-89680762D02*
X88928801Y-89602667D01*
X88928801Y-89602667D02*
X88967848Y-89563619D01*
X88967848Y-89563619D02*
X89045943Y-89524572D01*
X89045943Y-89524572D02*
X89202134Y-89524572D01*
X89202134Y-89524572D02*
X89280229Y-89563619D01*
X89280229Y-89563619D02*
X89319277Y-89602667D01*
X89319277Y-89602667D02*
X89358324Y-89680762D01*
X89865943Y-90032191D02*
X89944038Y-90032191D01*
X89944038Y-90032191D02*
X90022134Y-89993143D01*
X90022134Y-89993143D02*
X90061181Y-89954096D01*
X90061181Y-89954096D02*
X90100229Y-89876000D01*
X90100229Y-89876000D02*
X90139276Y-89719810D01*
X90139276Y-89719810D02*
X90139276Y-89524572D01*
X90139276Y-89524572D02*
X90100229Y-89368381D01*
X90100229Y-89368381D02*
X90061181Y-89290286D01*
X90061181Y-89290286D02*
X90022134Y-89251239D01*
X90022134Y-89251239D02*
X89944038Y-89212191D01*
X89944038Y-89212191D02*
X89865943Y-89212191D01*
X89865943Y-89212191D02*
X89787848Y-89251239D01*
X89787848Y-89251239D02*
X89748800Y-89290286D01*
X89748800Y-89290286D02*
X89709753Y-89368381D01*
X89709753Y-89368381D02*
X89670705Y-89524572D01*
X89670705Y-89524572D02*
X89670705Y-89719810D01*
X89670705Y-89719810D02*
X89709753Y-89876000D01*
X89709753Y-89876000D02*
X89748800Y-89954096D01*
X89748800Y-89954096D02*
X89787848Y-89993143D01*
X89787848Y-89993143D02*
X89865943Y-90032191D01*
X90842133Y-89758858D02*
X90842133Y-89212191D01*
X90646895Y-90071239D02*
X90451657Y-89485524D01*
X90451657Y-89485524D02*
X90959276Y-89485524D01*
X124514808Y-122521651D02*
X124124332Y-122248318D01*
X124514808Y-122053080D02*
X123694808Y-122053080D01*
X123694808Y-122053080D02*
X123694808Y-122365461D01*
X123694808Y-122365461D02*
X123733856Y-122443556D01*
X123733856Y-122443556D02*
X123772903Y-122482603D01*
X123772903Y-122482603D02*
X123850999Y-122521651D01*
X123850999Y-122521651D02*
X123968141Y-122521651D01*
X123968141Y-122521651D02*
X124046237Y-122482603D01*
X124046237Y-122482603D02*
X124085284Y-122443556D01*
X124085284Y-122443556D02*
X124124332Y-122365461D01*
X124124332Y-122365461D02*
X124124332Y-122053080D01*
X123968141Y-123224508D02*
X124514808Y-123224508D01*
X123655761Y-123029270D02*
X124241475Y-122834032D01*
X124241475Y-122834032D02*
X124241475Y-123341651D01*
X123694808Y-123810222D02*
X123694808Y-123888317D01*
X123694808Y-123888317D02*
X123733856Y-123966413D01*
X123733856Y-123966413D02*
X123772903Y-124005460D01*
X123772903Y-124005460D02*
X123850999Y-124044508D01*
X123850999Y-124044508D02*
X124007189Y-124083555D01*
X124007189Y-124083555D02*
X124202427Y-124083555D01*
X124202427Y-124083555D02*
X124358618Y-124044508D01*
X124358618Y-124044508D02*
X124436713Y-124005460D01*
X124436713Y-124005460D02*
X124475761Y-123966413D01*
X124475761Y-123966413D02*
X124514808Y-123888317D01*
X124514808Y-123888317D02*
X124514808Y-123810222D01*
X124514808Y-123810222D02*
X124475761Y-123732127D01*
X124475761Y-123732127D02*
X124436713Y-123693079D01*
X124436713Y-123693079D02*
X124358618Y-123654032D01*
X124358618Y-123654032D02*
X124202427Y-123614984D01*
X124202427Y-123614984D02*
X124007189Y-123614984D01*
X124007189Y-123614984D02*
X123850999Y-123654032D01*
X123850999Y-123654032D02*
X123772903Y-123693079D01*
X123772903Y-123693079D02*
X123733856Y-123732127D01*
X123733856Y-123732127D02*
X123694808Y-123810222D01*
X123968141Y-124786412D02*
X124514808Y-124786412D01*
X123655761Y-124591174D02*
X124241475Y-124395936D01*
X124241475Y-124395936D02*
X124241475Y-124903555D01*
X88365651Y-104259191D02*
X88092318Y-104649667D01*
X87897080Y-104259191D02*
X87897080Y-105079191D01*
X87897080Y-105079191D02*
X88209461Y-105079191D01*
X88209461Y-105079191D02*
X88287556Y-105040143D01*
X88287556Y-105040143D02*
X88326603Y-105001096D01*
X88326603Y-105001096D02*
X88365651Y-104923000D01*
X88365651Y-104923000D02*
X88365651Y-104805858D01*
X88365651Y-104805858D02*
X88326603Y-104727762D01*
X88326603Y-104727762D02*
X88287556Y-104688715D01*
X88287556Y-104688715D02*
X88209461Y-104649667D01*
X88209461Y-104649667D02*
X87897080Y-104649667D01*
X88756127Y-104259191D02*
X88912318Y-104259191D01*
X88912318Y-104259191D02*
X88990413Y-104298239D01*
X88990413Y-104298239D02*
X89029461Y-104337286D01*
X89029461Y-104337286D02*
X89107556Y-104454429D01*
X89107556Y-104454429D02*
X89146603Y-104610619D01*
X89146603Y-104610619D02*
X89146603Y-104923000D01*
X89146603Y-104923000D02*
X89107556Y-105001096D01*
X89107556Y-105001096D02*
X89068508Y-105040143D01*
X89068508Y-105040143D02*
X88990413Y-105079191D01*
X88990413Y-105079191D02*
X88834222Y-105079191D01*
X88834222Y-105079191D02*
X88756127Y-105040143D01*
X88756127Y-105040143D02*
X88717080Y-105001096D01*
X88717080Y-105001096D02*
X88678032Y-104923000D01*
X88678032Y-104923000D02*
X88678032Y-104727762D01*
X88678032Y-104727762D02*
X88717080Y-104649667D01*
X88717080Y-104649667D02*
X88756127Y-104610619D01*
X88756127Y-104610619D02*
X88834222Y-104571572D01*
X88834222Y-104571572D02*
X88990413Y-104571572D01*
X88990413Y-104571572D02*
X89068508Y-104610619D01*
X89068508Y-104610619D02*
X89107556Y-104649667D01*
X89107556Y-104649667D02*
X89146603Y-104727762D01*
X89654222Y-105079191D02*
X89732317Y-105079191D01*
X89732317Y-105079191D02*
X89810413Y-105040143D01*
X89810413Y-105040143D02*
X89849460Y-105001096D01*
X89849460Y-105001096D02*
X89888508Y-104923000D01*
X89888508Y-104923000D02*
X89927555Y-104766810D01*
X89927555Y-104766810D02*
X89927555Y-104571572D01*
X89927555Y-104571572D02*
X89888508Y-104415381D01*
X89888508Y-104415381D02*
X89849460Y-104337286D01*
X89849460Y-104337286D02*
X89810413Y-104298239D01*
X89810413Y-104298239D02*
X89732317Y-104259191D01*
X89732317Y-104259191D02*
X89654222Y-104259191D01*
X89654222Y-104259191D02*
X89576127Y-104298239D01*
X89576127Y-104298239D02*
X89537079Y-104337286D01*
X89537079Y-104337286D02*
X89498032Y-104415381D01*
X89498032Y-104415381D02*
X89458984Y-104571572D01*
X89458984Y-104571572D02*
X89458984Y-104766810D01*
X89458984Y-104766810D02*
X89498032Y-104923000D01*
X89498032Y-104923000D02*
X89537079Y-105001096D01*
X89537079Y-105001096D02*
X89576127Y-105040143D01*
X89576127Y-105040143D02*
X89654222Y-105079191D01*
X90708507Y-104259191D02*
X90239936Y-104259191D01*
X90474222Y-104259191D02*
X90474222Y-105079191D01*
X90474222Y-105079191D02*
X90396126Y-104962048D01*
X90396126Y-104962048D02*
X90318031Y-104883953D01*
X90318031Y-104883953D02*
X90239936Y-104844905D01*
X109252651Y-73049191D02*
X108979318Y-73439667D01*
X108784080Y-73049191D02*
X108784080Y-73869191D01*
X108784080Y-73869191D02*
X109096461Y-73869191D01*
X109096461Y-73869191D02*
X109174556Y-73830143D01*
X109174556Y-73830143D02*
X109213603Y-73791096D01*
X109213603Y-73791096D02*
X109252651Y-73713000D01*
X109252651Y-73713000D02*
X109252651Y-73595858D01*
X109252651Y-73595858D02*
X109213603Y-73517762D01*
X109213603Y-73517762D02*
X109174556Y-73478715D01*
X109174556Y-73478715D02*
X109096461Y-73439667D01*
X109096461Y-73439667D02*
X108784080Y-73439667D01*
X109643127Y-73049191D02*
X109799318Y-73049191D01*
X109799318Y-73049191D02*
X109877413Y-73088239D01*
X109877413Y-73088239D02*
X109916461Y-73127286D01*
X109916461Y-73127286D02*
X109994556Y-73244429D01*
X109994556Y-73244429D02*
X110033603Y-73400619D01*
X110033603Y-73400619D02*
X110033603Y-73713000D01*
X110033603Y-73713000D02*
X109994556Y-73791096D01*
X109994556Y-73791096D02*
X109955508Y-73830143D01*
X109955508Y-73830143D02*
X109877413Y-73869191D01*
X109877413Y-73869191D02*
X109721222Y-73869191D01*
X109721222Y-73869191D02*
X109643127Y-73830143D01*
X109643127Y-73830143D02*
X109604080Y-73791096D01*
X109604080Y-73791096D02*
X109565032Y-73713000D01*
X109565032Y-73713000D02*
X109565032Y-73517762D01*
X109565032Y-73517762D02*
X109604080Y-73439667D01*
X109604080Y-73439667D02*
X109643127Y-73400619D01*
X109643127Y-73400619D02*
X109721222Y-73361572D01*
X109721222Y-73361572D02*
X109877413Y-73361572D01*
X109877413Y-73361572D02*
X109955508Y-73400619D01*
X109955508Y-73400619D02*
X109994556Y-73439667D01*
X109994556Y-73439667D02*
X110033603Y-73517762D01*
X110814555Y-73049191D02*
X110345984Y-73049191D01*
X110580270Y-73049191D02*
X110580270Y-73869191D01*
X110580270Y-73869191D02*
X110502174Y-73752048D01*
X110502174Y-73752048D02*
X110424079Y-73673953D01*
X110424079Y-73673953D02*
X110345984Y-73634905D01*
X111556460Y-73869191D02*
X111165984Y-73869191D01*
X111165984Y-73869191D02*
X111126936Y-73478715D01*
X111126936Y-73478715D02*
X111165984Y-73517762D01*
X111165984Y-73517762D02*
X111244079Y-73556810D01*
X111244079Y-73556810D02*
X111439317Y-73556810D01*
X111439317Y-73556810D02*
X111517412Y-73517762D01*
X111517412Y-73517762D02*
X111556460Y-73478715D01*
X111556460Y-73478715D02*
X111595507Y-73400619D01*
X111595507Y-73400619D02*
X111595507Y-73205381D01*
X111595507Y-73205381D02*
X111556460Y-73127286D01*
X111556460Y-73127286D02*
X111517412Y-73088239D01*
X111517412Y-73088239D02*
X111439317Y-73049191D01*
X111439317Y-73049191D02*
X111244079Y-73049191D01*
X111244079Y-73049191D02*
X111165984Y-73088239D01*
X111165984Y-73088239D02*
X111126936Y-73127286D01*
D12*
%TO.C,M4*%
X117539400Y-110613999D02*
X117539400Y-117964380D01*
X117539400Y-117964380D02*
X117789018Y-118213999D01*
X117789018Y-118213999D02*
X129864018Y-118213999D01*
X117789399Y-110363999D02*
X117539400Y-110613999D01*
X117789399Y-110363999D02*
X130851080Y-110363999D01*
X129864018Y-117213998D02*
X129864018Y-118213999D01*
X130614019Y-116463997D02*
X129864018Y-117213998D01*
X130614019Y-116463997D02*
X131212728Y-116463997D01*
X130851080Y-110363999D02*
X131212728Y-110725647D01*
X131212728Y-110725647D02*
X131212728Y-116463997D01*
%TO.C,M2*%
X177980784Y-46430242D02*
X177980784Y-61430242D01*
X177980784Y-46430242D02*
X179280784Y-46430242D01*
X177980784Y-61430242D02*
X183080784Y-61430242D01*
X187580784Y-46430242D02*
X181180784Y-46430242D01*
X187580784Y-60830242D02*
X187580784Y-46430242D01*
%TO.C,M3*%
X173270000Y-46721000D02*
X173270000Y-55821000D01*
X173270000Y-46721000D02*
X174270002Y-46721000D01*
X176370003Y-46721000D02*
X176370003Y-55821000D01*
%TO.C,M7*%
X126439999Y-83322998D02*
X126439999Y-95397998D01*
X126689618Y-83073380D02*
X126439999Y-83322998D01*
X127440000Y-95397998D02*
X126439999Y-95397998D01*
X128190001Y-96147999D02*
X127440000Y-95397998D01*
X128190001Y-96147999D02*
X128190001Y-96746708D01*
X133928351Y-96746708D02*
X128190001Y-96746708D01*
X134039999Y-83073380D02*
X126689618Y-83073380D01*
X134289999Y-83323379D02*
X134039999Y-83073380D01*
X134289999Y-83323379D02*
X134289999Y-96385060D01*
X134289999Y-96385060D02*
X133928351Y-96746708D01*
%TO.C,M9*%
X140095002Y-83774997D02*
X140094999Y-123674996D01*
X141394999Y-123674996D02*
X140094999Y-123674996D01*
X182195002Y-83774997D02*
X140095002Y-83774997D01*
X182195002Y-83774997D02*
X182195002Y-123674996D01*
X182195002Y-123674996D02*
X141394999Y-123674996D01*
%TO.C,M5*%
X190231000Y-33817000D02*
X204131000Y-33817000D01*
X204131000Y-61317000D01*
X190231000Y-61317000D01*
X190231000Y-33817000D01*
%TO.C,M1*%
X158270253Y-48257400D02*
X158270253Y-47957402D01*
X158270251Y-67107402D02*
X158270256Y-65557402D01*
X158270251Y-63557400D02*
X158270251Y-62457397D01*
X158270251Y-60857402D02*
X158270251Y-58157402D01*
X158270251Y-54657400D02*
X158270251Y-49857400D01*
X142970254Y-47957404D02*
X158270253Y-47957402D01*
X141470254Y-68557402D02*
X156870254Y-68557402D01*
X141470254Y-68557402D02*
X141470254Y-68257402D01*
X141470254Y-66657402D02*
X141470254Y-56257400D01*
X141470254Y-54557402D02*
X141470254Y-51357399D01*
D13*
%TO.C,F10*%
X138361000Y-53059010D02*
G75*
G02*
X136361000Y-53059010I-1000000J0D01*
G01*
X136361000Y-48159010D02*
G75*
G02*
X138361000Y-48159010I1000000J0D01*
G01*
X138361000Y-53009010D02*
X138361000Y-48159010D01*
X136361000Y-53009010D02*
X136361000Y-48159010D01*
D12*
%TO.C,M6*%
X199384460Y-106973499D02*
X206277337Y-106973499D01*
X199390663Y-96129705D02*
X199390663Y-106973499D01*
X199440663Y-96073503D02*
X199390663Y-96129705D01*
X199440663Y-96073503D02*
X200265662Y-96073503D01*
X200540668Y-95798499D02*
X200265662Y-96073503D01*
X200540668Y-95798499D02*
X206238490Y-95798499D01*
X206238490Y-95798499D02*
X206277337Y-106973499D01*
D14*
%TO.C,R911*%
X99947222Y-71324077D02*
X99547223Y-71324088D01*
X99948279Y-72069913D02*
X99548279Y-72069923D01*
%TO.C,R403*%
X122130015Y-120573000D02*
X122130005Y-120173000D01*
X122875851Y-120571943D02*
X122875840Y-120171944D01*
%TO.C,R903*%
X100158943Y-56279149D02*
X99758944Y-56279160D01*
X100160000Y-57024985D02*
X99760000Y-57024995D01*
%TO.C,R906*%
X89287222Y-71226149D02*
X88887223Y-71226160D01*
X89288279Y-71971985D02*
X88888279Y-71971995D01*
%TO.C,R405*%
X125334015Y-120573000D02*
X125334005Y-120173000D01*
X126079851Y-120571943D02*
X126079840Y-120171944D01*
%TO.C,R913*%
X110594943Y-55570149D02*
X110194944Y-55570160D01*
X110596000Y-56315985D02*
X110196000Y-56315995D01*
%TO.C,R916*%
X121158943Y-102069149D02*
X120758944Y-102069160D01*
X121160000Y-102814985D02*
X120760000Y-102814995D01*
%TO.C,R402*%
X118231015Y-120573000D02*
X118231005Y-120173000D01*
X118976851Y-120571943D02*
X118976840Y-120171944D01*
%TO.C,R905*%
X110785943Y-86687149D02*
X110385944Y-86687160D01*
X110787000Y-87432985D02*
X110387000Y-87432995D01*
%TO.C,R401*%
X119773015Y-120573000D02*
X119773005Y-120173000D01*
X120518851Y-120571943D02*
X120518840Y-120171944D01*
%TO.C,R912*%
X100068943Y-102189149D02*
X99668944Y-102189160D01*
X100070000Y-102934985D02*
X99670000Y-102934995D01*
%TO.C,R914*%
X110428943Y-102089149D02*
X110028944Y-102089160D01*
X110430000Y-102834985D02*
X110030000Y-102834995D01*
%TO.C,R902*%
X89498943Y-56179149D02*
X89098944Y-56179160D01*
X89500000Y-56924985D02*
X89100000Y-56924995D01*
%TO.C,R406*%
X126673015Y-120421000D02*
X126673005Y-120021000D01*
X127418851Y-120419943D02*
X127418840Y-120019944D01*
%TO.C,R904*%
X89620664Y-87042149D02*
X89220665Y-87042160D01*
X89621721Y-87787985D02*
X89221721Y-87787995D01*
%TO.C,R404*%
X123927015Y-120573000D02*
X123927005Y-120173000D01*
X124672851Y-120571943D02*
X124672840Y-120171944D01*
%TO.C,R901*%
X89408943Y-102089149D02*
X89008944Y-102089160D01*
X89410000Y-102834985D02*
X89010000Y-102834995D01*
%TO.C,R915*%
X110295943Y-70879149D02*
X109895944Y-70879160D01*
X110297000Y-71624985D02*
X109897000Y-71624995D01*
%TD*%
M02*
