%TF.GenerationSoftware,KiCad,Pcbnew,8.0.8*%
%TF.CreationDate,2026-01-27T15:31:09-05:00*%
%TF.ProjectId,greenecu48,67726565-6e65-4637-9534-382e6b696361,rev?*%
%TF.SameCoordinates,Original*%
%TF.FileFunction,Legend,Bot*%
%TF.FilePolarity,Positive*%
%FSLAX46Y46*%
G04 Gerber Fmt 4.6, Leading zero omitted, Abs format (unit mm)*
G04 Created by KiCad (PCBNEW 8.0.8) date 2026-01-27 15:31:09*
%MOMM*%
%LPD*%
G01*
G04 APERTURE LIST*
%ADD10C,0.150000*%
%ADD11C,0.130000*%
%ADD12C,0.101600*%
%ADD13C,0.127000*%
%ADD14C,0.200000*%
G04 APERTURE END LIST*
D10*
X134896458Y-24511218D02*
X134896458Y-23844551D01*
X134896458Y-23939789D02*
X134944077Y-23892170D01*
X134944077Y-23892170D02*
X135039315Y-23844551D01*
X135039315Y-23844551D02*
X135182172Y-23844551D01*
X135182172Y-23844551D02*
X135277410Y-23892170D01*
X135277410Y-23892170D02*
X135325029Y-23987408D01*
X135325029Y-23987408D02*
X135325029Y-24511218D01*
X135325029Y-23987408D02*
X135372648Y-23892170D01*
X135372648Y-23892170D02*
X135467886Y-23844551D01*
X135467886Y-23844551D02*
X135610743Y-23844551D01*
X135610743Y-23844551D02*
X135705982Y-23892170D01*
X135705982Y-23892170D02*
X135753601Y-23987408D01*
X135753601Y-23987408D02*
X135753601Y-24511218D01*
X136372648Y-24511218D02*
X136277410Y-24463599D01*
X136277410Y-24463599D02*
X136229791Y-24415979D01*
X136229791Y-24415979D02*
X136182172Y-24320741D01*
X136182172Y-24320741D02*
X136182172Y-24035027D01*
X136182172Y-24035027D02*
X136229791Y-23939789D01*
X136229791Y-23939789D02*
X136277410Y-23892170D01*
X136277410Y-23892170D02*
X136372648Y-23844551D01*
X136372648Y-23844551D02*
X136515505Y-23844551D01*
X136515505Y-23844551D02*
X136610743Y-23892170D01*
X136610743Y-23892170D02*
X136658362Y-23939789D01*
X136658362Y-23939789D02*
X136705981Y-24035027D01*
X136705981Y-24035027D02*
X136705981Y-24320741D01*
X136705981Y-24320741D02*
X136658362Y-24415979D01*
X136658362Y-24415979D02*
X136610743Y-24463599D01*
X136610743Y-24463599D02*
X136515505Y-24511218D01*
X136515505Y-24511218D02*
X136372648Y-24511218D01*
X137277410Y-24511218D02*
X137182172Y-24463599D01*
X137182172Y-24463599D02*
X137134553Y-24368360D01*
X137134553Y-24368360D02*
X137134553Y-23511218D01*
X138039315Y-24463599D02*
X137944077Y-24511218D01*
X137944077Y-24511218D02*
X137753601Y-24511218D01*
X137753601Y-24511218D02*
X137658363Y-24463599D01*
X137658363Y-24463599D02*
X137610744Y-24368360D01*
X137610744Y-24368360D02*
X137610744Y-23987408D01*
X137610744Y-23987408D02*
X137658363Y-23892170D01*
X137658363Y-23892170D02*
X137753601Y-23844551D01*
X137753601Y-23844551D02*
X137944077Y-23844551D01*
X137944077Y-23844551D02*
X138039315Y-23892170D01*
X138039315Y-23892170D02*
X138086934Y-23987408D01*
X138086934Y-23987408D02*
X138086934Y-24082646D01*
X138086934Y-24082646D02*
X137610744Y-24177884D01*
X138420268Y-24511218D02*
X138944077Y-23844551D01*
X138420268Y-23844551D02*
X138944077Y-24511218D01*
X139086935Y-24606456D02*
X139848839Y-24606456D01*
X140515506Y-23844551D02*
X140515506Y-24511218D01*
X140277411Y-23463599D02*
X140039316Y-24177884D01*
X140039316Y-24177884D02*
X140658363Y-24177884D01*
X141182173Y-23939789D02*
X141086935Y-23892170D01*
X141086935Y-23892170D02*
X141039316Y-23844551D01*
X141039316Y-23844551D02*
X140991697Y-23749313D01*
X140991697Y-23749313D02*
X140991697Y-23701694D01*
X140991697Y-23701694D02*
X141039316Y-23606456D01*
X141039316Y-23606456D02*
X141086935Y-23558837D01*
X141086935Y-23558837D02*
X141182173Y-23511218D01*
X141182173Y-23511218D02*
X141372649Y-23511218D01*
X141372649Y-23511218D02*
X141467887Y-23558837D01*
X141467887Y-23558837D02*
X141515506Y-23606456D01*
X141515506Y-23606456D02*
X141563125Y-23701694D01*
X141563125Y-23701694D02*
X141563125Y-23749313D01*
X141563125Y-23749313D02*
X141515506Y-23844551D01*
X141515506Y-23844551D02*
X141467887Y-23892170D01*
X141467887Y-23892170D02*
X141372649Y-23939789D01*
X141372649Y-23939789D02*
X141182173Y-23939789D01*
X141182173Y-23939789D02*
X141086935Y-23987408D01*
X141086935Y-23987408D02*
X141039316Y-24035027D01*
X141039316Y-24035027D02*
X140991697Y-24130265D01*
X140991697Y-24130265D02*
X140991697Y-24320741D01*
X140991697Y-24320741D02*
X141039316Y-24415979D01*
X141039316Y-24415979D02*
X141086935Y-24463599D01*
X141086935Y-24463599D02*
X141182173Y-24511218D01*
X141182173Y-24511218D02*
X141372649Y-24511218D01*
X141372649Y-24511218D02*
X141467887Y-24463599D01*
X141467887Y-24463599D02*
X141515506Y-24415979D01*
X141515506Y-24415979D02*
X141563125Y-24320741D01*
X141563125Y-24320741D02*
X141563125Y-24130265D01*
X141563125Y-24130265D02*
X141515506Y-24035027D01*
X141515506Y-24035027D02*
X141467887Y-23987408D01*
X141467887Y-23987408D02*
X141372649Y-23939789D01*
X141991697Y-23844551D02*
X141991697Y-24844551D01*
X141991697Y-23892170D02*
X142086935Y-23844551D01*
X142086935Y-23844551D02*
X142277411Y-23844551D01*
X142277411Y-23844551D02*
X142372649Y-23892170D01*
X142372649Y-23892170D02*
X142420268Y-23939789D01*
X142420268Y-23939789D02*
X142467887Y-24035027D01*
X142467887Y-24035027D02*
X142467887Y-24320741D01*
X142467887Y-24320741D02*
X142420268Y-24415979D01*
X142420268Y-24415979D02*
X142372649Y-24463599D01*
X142372649Y-24463599D02*
X142277411Y-24511218D01*
X142277411Y-24511218D02*
X142086935Y-24511218D01*
X142086935Y-24511218D02*
X141991697Y-24463599D01*
X142896459Y-24511218D02*
X142896459Y-23844551D01*
X142896459Y-23511218D02*
X142848840Y-23558837D01*
X142848840Y-23558837D02*
X142896459Y-23606456D01*
X142896459Y-23606456D02*
X142944078Y-23558837D01*
X142944078Y-23558837D02*
X142896459Y-23511218D01*
X142896459Y-23511218D02*
X142896459Y-23606456D01*
X143372649Y-23844551D02*
X143372649Y-24511218D01*
X143372649Y-23939789D02*
X143420268Y-23892170D01*
X143420268Y-23892170D02*
X143515506Y-23844551D01*
X143515506Y-23844551D02*
X143658363Y-23844551D01*
X143658363Y-23844551D02*
X143753601Y-23892170D01*
X143753601Y-23892170D02*
X143801220Y-23987408D01*
X143801220Y-23987408D02*
X143801220Y-24511218D01*
X144039316Y-24606456D02*
X144801220Y-24606456D01*
X145039316Y-24511218D02*
X145039316Y-23511218D01*
X145039316Y-23511218D02*
X145372649Y-24225503D01*
X145372649Y-24225503D02*
X145705982Y-23511218D01*
X145705982Y-23511218D02*
X145705982Y-24511218D01*
X146753601Y-24511218D02*
X146420268Y-24035027D01*
X146182173Y-24511218D02*
X146182173Y-23511218D01*
X146182173Y-23511218D02*
X146563125Y-23511218D01*
X146563125Y-23511218D02*
X146658363Y-23558837D01*
X146658363Y-23558837D02*
X146705982Y-23606456D01*
X146705982Y-23606456D02*
X146753601Y-23701694D01*
X146753601Y-23701694D02*
X146753601Y-23844551D01*
X146753601Y-23844551D02*
X146705982Y-23939789D01*
X146705982Y-23939789D02*
X146658363Y-23987408D01*
X146658363Y-23987408D02*
X146563125Y-24035027D01*
X146563125Y-24035027D02*
X146182173Y-24035027D01*
X147182173Y-23987408D02*
X147515506Y-23987408D01*
X147658363Y-24511218D02*
X147182173Y-24511218D01*
X147182173Y-24511218D02*
X147182173Y-23511218D01*
X147182173Y-23511218D02*
X147658363Y-23511218D01*
D11*
X161220830Y-39094400D02*
X161220830Y-39627734D01*
X161363687Y-38789639D02*
X161506544Y-39361067D01*
X161506544Y-39361067D02*
X161135115Y-39361067D01*
X160820829Y-39170591D02*
X160877972Y-39132496D01*
X160877972Y-39132496D02*
X160906543Y-39094400D01*
X160906543Y-39094400D02*
X160935115Y-39018210D01*
X160935115Y-39018210D02*
X160935115Y-38980115D01*
X160935115Y-38980115D02*
X160906543Y-38903924D01*
X160906543Y-38903924D02*
X160877972Y-38865829D01*
X160877972Y-38865829D02*
X160820829Y-38827734D01*
X160820829Y-38827734D02*
X160706543Y-38827734D01*
X160706543Y-38827734D02*
X160649401Y-38865829D01*
X160649401Y-38865829D02*
X160620829Y-38903924D01*
X160620829Y-38903924D02*
X160592258Y-38980115D01*
X160592258Y-38980115D02*
X160592258Y-39018210D01*
X160592258Y-39018210D02*
X160620829Y-39094400D01*
X160620829Y-39094400D02*
X160649401Y-39132496D01*
X160649401Y-39132496D02*
X160706543Y-39170591D01*
X160706543Y-39170591D02*
X160820829Y-39170591D01*
X160820829Y-39170591D02*
X160877972Y-39208686D01*
X160877972Y-39208686D02*
X160906543Y-39246781D01*
X160906543Y-39246781D02*
X160935115Y-39322972D01*
X160935115Y-39322972D02*
X160935115Y-39475353D01*
X160935115Y-39475353D02*
X160906543Y-39551543D01*
X160906543Y-39551543D02*
X160877972Y-39589639D01*
X160877972Y-39589639D02*
X160820829Y-39627734D01*
X160820829Y-39627734D02*
X160706543Y-39627734D01*
X160706543Y-39627734D02*
X160649401Y-39589639D01*
X160649401Y-39589639D02*
X160620829Y-39551543D01*
X160620829Y-39551543D02*
X160592258Y-39475353D01*
X160592258Y-39475353D02*
X160592258Y-39322972D01*
X160592258Y-39322972D02*
X160620829Y-39246781D01*
X160620829Y-39246781D02*
X160649401Y-39208686D01*
X160649401Y-39208686D02*
X160706543Y-39170591D01*
X127757831Y-32072875D02*
X127719736Y-31996685D01*
X127719736Y-31996685D02*
X127719736Y-31882399D01*
X127719736Y-31882399D02*
X127757831Y-31768113D01*
X127757831Y-31768113D02*
X127834021Y-31691923D01*
X127834021Y-31691923D02*
X127910212Y-31653828D01*
X127910212Y-31653828D02*
X128062593Y-31615732D01*
X128062593Y-31615732D02*
X128176879Y-31615732D01*
X128176879Y-31615732D02*
X128329260Y-31653828D01*
X128329260Y-31653828D02*
X128405450Y-31691923D01*
X128405450Y-31691923D02*
X128481641Y-31768113D01*
X128481641Y-31768113D02*
X128519736Y-31882399D01*
X128519736Y-31882399D02*
X128519736Y-31958590D01*
X128519736Y-31958590D02*
X128481641Y-32072875D01*
X128481641Y-32072875D02*
X128443545Y-32110971D01*
X128443545Y-32110971D02*
X128176879Y-32110971D01*
X128176879Y-32110971D02*
X128176879Y-31958590D01*
X128519736Y-32453828D02*
X127719736Y-32453828D01*
X127719736Y-32453828D02*
X128519736Y-32910971D01*
X128519736Y-32910971D02*
X127719736Y-32910971D01*
X128519736Y-33291923D02*
X127719736Y-33291923D01*
X127719736Y-33291923D02*
X127719736Y-33482399D01*
X127719736Y-33482399D02*
X127757831Y-33596685D01*
X127757831Y-33596685D02*
X127834021Y-33672875D01*
X127834021Y-33672875D02*
X127910212Y-33710970D01*
X127910212Y-33710970D02*
X128062593Y-33749066D01*
X128062593Y-33749066D02*
X128176879Y-33749066D01*
X128176879Y-33749066D02*
X128329260Y-33710970D01*
X128329260Y-33710970D02*
X128405450Y-33672875D01*
X128405450Y-33672875D02*
X128481641Y-33596685D01*
X128481641Y-33596685D02*
X128519736Y-33482399D01*
X128519736Y-33482399D02*
X128519736Y-33291923D01*
X152484664Y-39018400D02*
X152484664Y-39399353D01*
X152713236Y-38942210D02*
X151913236Y-39208877D01*
X151913236Y-39208877D02*
X152713236Y-39475543D01*
X151913236Y-39627924D02*
X152713236Y-39894591D01*
X152713236Y-39894591D02*
X151913236Y-40161257D01*
X152256093Y-40542209D02*
X152217998Y-40466019D01*
X152217998Y-40466019D02*
X152179902Y-40427924D01*
X152179902Y-40427924D02*
X152103712Y-40389828D01*
X152103712Y-40389828D02*
X152065617Y-40389828D01*
X152065617Y-40389828D02*
X151989426Y-40427924D01*
X151989426Y-40427924D02*
X151951331Y-40466019D01*
X151951331Y-40466019D02*
X151913236Y-40542209D01*
X151913236Y-40542209D02*
X151913236Y-40694590D01*
X151913236Y-40694590D02*
X151951331Y-40770781D01*
X151951331Y-40770781D02*
X151989426Y-40808876D01*
X151989426Y-40808876D02*
X152065617Y-40846971D01*
X152065617Y-40846971D02*
X152103712Y-40846971D01*
X152103712Y-40846971D02*
X152179902Y-40808876D01*
X152179902Y-40808876D02*
X152217998Y-40770781D01*
X152217998Y-40770781D02*
X152256093Y-40694590D01*
X152256093Y-40694590D02*
X152256093Y-40542209D01*
X152256093Y-40542209D02*
X152294188Y-40466019D01*
X152294188Y-40466019D02*
X152332283Y-40427924D01*
X152332283Y-40427924D02*
X152408474Y-40389828D01*
X152408474Y-40389828D02*
X152560855Y-40389828D01*
X152560855Y-40389828D02*
X152637045Y-40427924D01*
X152637045Y-40427924D02*
X152675141Y-40466019D01*
X152675141Y-40466019D02*
X152713236Y-40542209D01*
X152713236Y-40542209D02*
X152713236Y-40694590D01*
X152713236Y-40694590D02*
X152675141Y-40770781D01*
X152675141Y-40770781D02*
X152637045Y-40808876D01*
X152637045Y-40808876D02*
X152560855Y-40846971D01*
X152560855Y-40846971D02*
X152408474Y-40846971D01*
X152408474Y-40846971D02*
X152332283Y-40808876D01*
X152332283Y-40808876D02*
X152294188Y-40770781D01*
X152294188Y-40770781D02*
X152256093Y-40694590D01*
D12*
X146274984Y-34746826D02*
X146274984Y-34988731D01*
X146420127Y-34698445D02*
X145912127Y-34867779D01*
X145912127Y-34867779D02*
X146420127Y-35037112D01*
X145912127Y-35133874D02*
X146420127Y-35303208D01*
X146420127Y-35303208D02*
X145912127Y-35472541D01*
X146420127Y-35907970D02*
X146420127Y-35617684D01*
X146420127Y-35762827D02*
X145912127Y-35762827D01*
X145912127Y-35762827D02*
X145984698Y-35714446D01*
X145984698Y-35714446D02*
X146033079Y-35666065D01*
X146033079Y-35666065D02*
X146057270Y-35617684D01*
X156389627Y-32022375D02*
X155881627Y-32022375D01*
X156389627Y-32264280D02*
X155881627Y-32264280D01*
X155881627Y-32264280D02*
X156389627Y-32554566D01*
X156389627Y-32554566D02*
X155881627Y-32554566D01*
X155881627Y-32941613D02*
X156244484Y-32941613D01*
X156244484Y-32941613D02*
X156317056Y-32917422D01*
X156317056Y-32917422D02*
X156365437Y-32869041D01*
X156365437Y-32869041D02*
X156389627Y-32796470D01*
X156389627Y-32796470D02*
X156389627Y-32748089D01*
X156050960Y-33401232D02*
X156389627Y-33401232D01*
X155857437Y-33280280D02*
X156220294Y-33159327D01*
X156220294Y-33159327D02*
X156220294Y-33473804D01*
X138443317Y-32297541D02*
X138419127Y-32249160D01*
X138419127Y-32249160D02*
X138419127Y-32176589D01*
X138419127Y-32176589D02*
X138443317Y-32104017D01*
X138443317Y-32104017D02*
X138491698Y-32055636D01*
X138491698Y-32055636D02*
X138540079Y-32031446D01*
X138540079Y-32031446D02*
X138636841Y-32007255D01*
X138636841Y-32007255D02*
X138709413Y-32007255D01*
X138709413Y-32007255D02*
X138806175Y-32031446D01*
X138806175Y-32031446D02*
X138854556Y-32055636D01*
X138854556Y-32055636D02*
X138902937Y-32104017D01*
X138902937Y-32104017D02*
X138927127Y-32176589D01*
X138927127Y-32176589D02*
X138927127Y-32224970D01*
X138927127Y-32224970D02*
X138902937Y-32297541D01*
X138902937Y-32297541D02*
X138878746Y-32321732D01*
X138878746Y-32321732D02*
X138709413Y-32321732D01*
X138709413Y-32321732D02*
X138709413Y-32224970D01*
X138927127Y-32539446D02*
X138419127Y-32539446D01*
X138419127Y-32539446D02*
X138419127Y-32732970D01*
X138419127Y-32732970D02*
X138443317Y-32781351D01*
X138443317Y-32781351D02*
X138467508Y-32805541D01*
X138467508Y-32805541D02*
X138515889Y-32829732D01*
X138515889Y-32829732D02*
X138588460Y-32829732D01*
X138588460Y-32829732D02*
X138636841Y-32805541D01*
X138636841Y-32805541D02*
X138661032Y-32781351D01*
X138661032Y-32781351D02*
X138685222Y-32732970D01*
X138685222Y-32732970D02*
X138685222Y-32539446D01*
X138419127Y-33289351D02*
X138419127Y-33047446D01*
X138419127Y-33047446D02*
X138661032Y-33023255D01*
X138661032Y-33023255D02*
X138636841Y-33047446D01*
X138636841Y-33047446D02*
X138612651Y-33095827D01*
X138612651Y-33095827D02*
X138612651Y-33216779D01*
X138612651Y-33216779D02*
X138636841Y-33265160D01*
X138636841Y-33265160D02*
X138661032Y-33289351D01*
X138661032Y-33289351D02*
X138709413Y-33313541D01*
X138709413Y-33313541D02*
X138830365Y-33313541D01*
X138830365Y-33313541D02*
X138878746Y-33289351D01*
X138878746Y-33289351D02*
X138902937Y-33265160D01*
X138902937Y-33265160D02*
X138927127Y-33216779D01*
X138927127Y-33216779D02*
X138927127Y-33095827D01*
X138927127Y-33095827D02*
X138902937Y-33047446D01*
X138902937Y-33047446D02*
X138878746Y-33023255D01*
D13*
X138439153Y-29332805D02*
X138439153Y-28824805D01*
X137979534Y-28994138D02*
X137979534Y-29405376D01*
X137979534Y-29405376D02*
X138003724Y-29453757D01*
X138003724Y-29453757D02*
X138027915Y-29477948D01*
X138027915Y-29477948D02*
X138076296Y-29502138D01*
X138076296Y-29502138D02*
X138148867Y-29502138D01*
X138148867Y-29502138D02*
X138197248Y-29477948D01*
X137979534Y-29308615D02*
X138027915Y-29332805D01*
X138027915Y-29332805D02*
X138124677Y-29332805D01*
X138124677Y-29332805D02*
X138173058Y-29308615D01*
X138173058Y-29308615D02*
X138197248Y-29284424D01*
X138197248Y-29284424D02*
X138221439Y-29236043D01*
X138221439Y-29236043D02*
X138221439Y-29090900D01*
X138221439Y-29090900D02*
X138197248Y-29042519D01*
X138197248Y-29042519D02*
X138173058Y-29018329D01*
X138173058Y-29018329D02*
X138124677Y-28994138D01*
X138124677Y-28994138D02*
X138027915Y-28994138D01*
X138027915Y-28994138D02*
X137979534Y-29018329D01*
X137737629Y-28994138D02*
X137737629Y-29332805D01*
X137737629Y-29042519D02*
X137713439Y-29018329D01*
X137713439Y-29018329D02*
X137665058Y-28994138D01*
X137665058Y-28994138D02*
X137592486Y-28994138D01*
X137592486Y-28994138D02*
X137544105Y-29018329D01*
X137544105Y-29018329D02*
X137519915Y-29066710D01*
X137519915Y-29066710D02*
X137519915Y-29332805D01*
X137011915Y-29332805D02*
X137302201Y-29332805D01*
X137157058Y-29332805D02*
X137157058Y-28824805D01*
X137157058Y-28824805D02*
X137205439Y-28897376D01*
X137205439Y-28897376D02*
X137253820Y-28945757D01*
X137253820Y-28945757D02*
X137302201Y-28969948D01*
D10*
X128108420Y-30423065D02*
X128822705Y-30423065D01*
X128822705Y-30423065D02*
X128965562Y-30375446D01*
X128965562Y-30375446D02*
X129060801Y-30280208D01*
X129060801Y-30280208D02*
X129108420Y-30137351D01*
X129108420Y-30137351D02*
X129108420Y-30042113D01*
X128536991Y-31042113D02*
X128489372Y-30946875D01*
X128489372Y-30946875D02*
X128441753Y-30899256D01*
X128441753Y-30899256D02*
X128346515Y-30851637D01*
X128346515Y-30851637D02*
X128298896Y-30851637D01*
X128298896Y-30851637D02*
X128203658Y-30899256D01*
X128203658Y-30899256D02*
X128156039Y-30946875D01*
X128156039Y-30946875D02*
X128108420Y-31042113D01*
X128108420Y-31042113D02*
X128108420Y-31232589D01*
X128108420Y-31232589D02*
X128156039Y-31327827D01*
X128156039Y-31327827D02*
X128203658Y-31375446D01*
X128203658Y-31375446D02*
X128298896Y-31423065D01*
X128298896Y-31423065D02*
X128346515Y-31423065D01*
X128346515Y-31423065D02*
X128441753Y-31375446D01*
X128441753Y-31375446D02*
X128489372Y-31327827D01*
X128489372Y-31327827D02*
X128536991Y-31232589D01*
X128536991Y-31232589D02*
X128536991Y-31042113D01*
X128536991Y-31042113D02*
X128584610Y-30946875D01*
X128584610Y-30946875D02*
X128632229Y-30899256D01*
X128632229Y-30899256D02*
X128727467Y-30851637D01*
X128727467Y-30851637D02*
X128917943Y-30851637D01*
X128917943Y-30851637D02*
X129013181Y-30899256D01*
X129013181Y-30899256D02*
X129060801Y-30946875D01*
X129060801Y-30946875D02*
X129108420Y-31042113D01*
X129108420Y-31042113D02*
X129108420Y-31232589D01*
X129108420Y-31232589D02*
X129060801Y-31327827D01*
X129060801Y-31327827D02*
X129013181Y-31375446D01*
X129013181Y-31375446D02*
X128917943Y-31423065D01*
X128917943Y-31423065D02*
X128727467Y-31423065D01*
X128727467Y-31423065D02*
X128632229Y-31375446D01*
X128632229Y-31375446D02*
X128584610Y-31327827D01*
X128584610Y-31327827D02*
X128536991Y-31232589D01*
D11*
X155151664Y-39018400D02*
X155151664Y-39399353D01*
X155380236Y-38942210D02*
X154580236Y-39208877D01*
X154580236Y-39208877D02*
X155380236Y-39475543D01*
X154580236Y-39627924D02*
X155380236Y-39894591D01*
X155380236Y-39894591D02*
X154580236Y-40161257D01*
X155380236Y-40466019D02*
X155380236Y-40618400D01*
X155380236Y-40618400D02*
X155342141Y-40694590D01*
X155342141Y-40694590D02*
X155304045Y-40732686D01*
X155304045Y-40732686D02*
X155189760Y-40808876D01*
X155189760Y-40808876D02*
X155037379Y-40846971D01*
X155037379Y-40846971D02*
X154732617Y-40846971D01*
X154732617Y-40846971D02*
X154656426Y-40808876D01*
X154656426Y-40808876D02*
X154618331Y-40770781D01*
X154618331Y-40770781D02*
X154580236Y-40694590D01*
X154580236Y-40694590D02*
X154580236Y-40542209D01*
X154580236Y-40542209D02*
X154618331Y-40466019D01*
X154618331Y-40466019D02*
X154656426Y-40427924D01*
X154656426Y-40427924D02*
X154732617Y-40389828D01*
X154732617Y-40389828D02*
X154923093Y-40389828D01*
X154923093Y-40389828D02*
X154999283Y-40427924D01*
X154999283Y-40427924D02*
X155037379Y-40466019D01*
X155037379Y-40466019D02*
X155075474Y-40542209D01*
X155075474Y-40542209D02*
X155075474Y-40694590D01*
X155075474Y-40694590D02*
X155037379Y-40770781D01*
X155037379Y-40770781D02*
X154999283Y-40808876D01*
X154999283Y-40808876D02*
X154923093Y-40846971D01*
D12*
X158881246Y-31741766D02*
X158905437Y-31717575D01*
X158905437Y-31717575D02*
X158929627Y-31645004D01*
X158929627Y-31645004D02*
X158929627Y-31596623D01*
X158929627Y-31596623D02*
X158905437Y-31524051D01*
X158905437Y-31524051D02*
X158857056Y-31475670D01*
X158857056Y-31475670D02*
X158808675Y-31451480D01*
X158808675Y-31451480D02*
X158711913Y-31427289D01*
X158711913Y-31427289D02*
X158639341Y-31427289D01*
X158639341Y-31427289D02*
X158542579Y-31451480D01*
X158542579Y-31451480D02*
X158494198Y-31475670D01*
X158494198Y-31475670D02*
X158445817Y-31524051D01*
X158445817Y-31524051D02*
X158421627Y-31596623D01*
X158421627Y-31596623D02*
X158421627Y-31645004D01*
X158421627Y-31645004D02*
X158445817Y-31717575D01*
X158445817Y-31717575D02*
X158470008Y-31741766D01*
X158929627Y-32249766D02*
X158687722Y-32080432D01*
X158929627Y-31959480D02*
X158421627Y-31959480D01*
X158421627Y-31959480D02*
X158421627Y-32153004D01*
X158421627Y-32153004D02*
X158445817Y-32201385D01*
X158445817Y-32201385D02*
X158470008Y-32225575D01*
X158470008Y-32225575D02*
X158518389Y-32249766D01*
X158518389Y-32249766D02*
X158590960Y-32249766D01*
X158590960Y-32249766D02*
X158639341Y-32225575D01*
X158639341Y-32225575D02*
X158663532Y-32201385D01*
X158663532Y-32201385D02*
X158687722Y-32153004D01*
X158687722Y-32153004D02*
X158687722Y-31959480D01*
X158929627Y-32467480D02*
X158421627Y-32467480D01*
X158421627Y-32467480D02*
X158929627Y-32757766D01*
X158929627Y-32757766D02*
X158421627Y-32757766D01*
X158929627Y-32999670D02*
X158421627Y-32999670D01*
X158929627Y-33289956D02*
X158639341Y-33072241D01*
X158421627Y-33289956D02*
X158711913Y-32999670D01*
X158736103Y-33507670D02*
X158736103Y-33894718D01*
D11*
X164097257Y-35636543D02*
X164135353Y-35674639D01*
X164135353Y-35674639D02*
X164249638Y-35712734D01*
X164249638Y-35712734D02*
X164325829Y-35712734D01*
X164325829Y-35712734D02*
X164440115Y-35674639D01*
X164440115Y-35674639D02*
X164516305Y-35598448D01*
X164516305Y-35598448D02*
X164554400Y-35522258D01*
X164554400Y-35522258D02*
X164592496Y-35369877D01*
X164592496Y-35369877D02*
X164592496Y-35255591D01*
X164592496Y-35255591D02*
X164554400Y-35103210D01*
X164554400Y-35103210D02*
X164516305Y-35027019D01*
X164516305Y-35027019D02*
X164440115Y-34950829D01*
X164440115Y-34950829D02*
X164325829Y-34912734D01*
X164325829Y-34912734D02*
X164249638Y-34912734D01*
X164249638Y-34912734D02*
X164135353Y-34950829D01*
X164135353Y-34950829D02*
X164097257Y-34988924D01*
X163792496Y-35484162D02*
X163411543Y-35484162D01*
X163868686Y-35712734D02*
X163602019Y-34912734D01*
X163602019Y-34912734D02*
X163335353Y-35712734D01*
X163068686Y-35712734D02*
X163068686Y-34912734D01*
X163068686Y-34912734D02*
X162611543Y-35712734D01*
X162611543Y-35712734D02*
X162611543Y-34912734D01*
X161240115Y-35712734D02*
X161621067Y-35712734D01*
X161621067Y-35712734D02*
X161621067Y-34912734D01*
X155077736Y-27223373D02*
X154277736Y-27223373D01*
X155077736Y-27509087D02*
X154277736Y-27509087D01*
X154277736Y-27509087D02*
X155077736Y-27851944D01*
X155077736Y-27851944D02*
X154277736Y-27851944D01*
X154277736Y-28309086D02*
X154849164Y-28309086D01*
X154849164Y-28309086D02*
X154963450Y-28280515D01*
X154963450Y-28280515D02*
X155039641Y-28223372D01*
X155039641Y-28223372D02*
X155077736Y-28137658D01*
X155077736Y-28137658D02*
X155077736Y-28080515D01*
X155077736Y-28909086D02*
X155077736Y-28566229D01*
X155077736Y-28737658D02*
X154277736Y-28737658D01*
X154277736Y-28737658D02*
X154392021Y-28680515D01*
X154392021Y-28680515D02*
X154468212Y-28623372D01*
X154468212Y-28623372D02*
X154506307Y-28566229D01*
D13*
X132431492Y-34813113D02*
X132431492Y-34432161D01*
X132431492Y-34432161D02*
X131631492Y-34432161D01*
X132393397Y-35041684D02*
X132431492Y-35155970D01*
X132431492Y-35155970D02*
X132431492Y-35346446D01*
X132431492Y-35346446D02*
X132393397Y-35422637D01*
X132393397Y-35422637D02*
X132355301Y-35460732D01*
X132355301Y-35460732D02*
X132279111Y-35498827D01*
X132279111Y-35498827D02*
X132202920Y-35498827D01*
X132202920Y-35498827D02*
X132126730Y-35460732D01*
X132126730Y-35460732D02*
X132088635Y-35422637D01*
X132088635Y-35422637D02*
X132050539Y-35346446D01*
X132050539Y-35346446D02*
X132012444Y-35194065D01*
X132012444Y-35194065D02*
X131974349Y-35117875D01*
X131974349Y-35117875D02*
X131936254Y-35079780D01*
X131936254Y-35079780D02*
X131860063Y-35041684D01*
X131860063Y-35041684D02*
X131783873Y-35041684D01*
X131783873Y-35041684D02*
X131707682Y-35079780D01*
X131707682Y-35079780D02*
X131669587Y-35117875D01*
X131669587Y-35117875D02*
X131631492Y-35194065D01*
X131631492Y-35194065D02*
X131631492Y-35384542D01*
X131631492Y-35384542D02*
X131669587Y-35498827D01*
X132431492Y-36260732D02*
X132431492Y-35803589D01*
X132431492Y-36032161D02*
X131631492Y-36032161D01*
X131631492Y-36032161D02*
X131745777Y-35955970D01*
X131745777Y-35955970D02*
X131821968Y-35879780D01*
X131821968Y-35879780D02*
X131860063Y-35803589D01*
X140694915Y-28848995D02*
X140743296Y-28824805D01*
X140743296Y-28824805D02*
X140815867Y-28824805D01*
X140815867Y-28824805D02*
X140888439Y-28848995D01*
X140888439Y-28848995D02*
X140936820Y-28897376D01*
X140936820Y-28897376D02*
X140961010Y-28945757D01*
X140961010Y-28945757D02*
X140985201Y-29042519D01*
X140985201Y-29042519D02*
X140985201Y-29115091D01*
X140985201Y-29115091D02*
X140961010Y-29211853D01*
X140961010Y-29211853D02*
X140936820Y-29260234D01*
X140936820Y-29260234D02*
X140888439Y-29308615D01*
X140888439Y-29308615D02*
X140815867Y-29332805D01*
X140815867Y-29332805D02*
X140767486Y-29332805D01*
X140767486Y-29332805D02*
X140694915Y-29308615D01*
X140694915Y-29308615D02*
X140670724Y-29284424D01*
X140670724Y-29284424D02*
X140670724Y-29115091D01*
X140670724Y-29115091D02*
X140767486Y-29115091D01*
X140453010Y-29332805D02*
X140453010Y-28824805D01*
X140453010Y-28824805D02*
X140259486Y-28824805D01*
X140259486Y-28824805D02*
X140211105Y-28848995D01*
X140211105Y-28848995D02*
X140186915Y-28873186D01*
X140186915Y-28873186D02*
X140162724Y-28921567D01*
X140162724Y-28921567D02*
X140162724Y-28994138D01*
X140162724Y-28994138D02*
X140186915Y-29042519D01*
X140186915Y-29042519D02*
X140211105Y-29066710D01*
X140211105Y-29066710D02*
X140259486Y-29090900D01*
X140259486Y-29090900D02*
X140453010Y-29090900D01*
X139727296Y-28824805D02*
X139824058Y-28824805D01*
X139824058Y-28824805D02*
X139872439Y-28848995D01*
X139872439Y-28848995D02*
X139896629Y-28873186D01*
X139896629Y-28873186D02*
X139945010Y-28945757D01*
X139945010Y-28945757D02*
X139969201Y-29042519D01*
X139969201Y-29042519D02*
X139969201Y-29236043D01*
X139969201Y-29236043D02*
X139945010Y-29284424D01*
X139945010Y-29284424D02*
X139920820Y-29308615D01*
X139920820Y-29308615D02*
X139872439Y-29332805D01*
X139872439Y-29332805D02*
X139775677Y-29332805D01*
X139775677Y-29332805D02*
X139727296Y-29308615D01*
X139727296Y-29308615D02*
X139703105Y-29284424D01*
X139703105Y-29284424D02*
X139678915Y-29236043D01*
X139678915Y-29236043D02*
X139678915Y-29115091D01*
X139678915Y-29115091D02*
X139703105Y-29066710D01*
X139703105Y-29066710D02*
X139727296Y-29042519D01*
X139727296Y-29042519D02*
X139775677Y-29018329D01*
X139775677Y-29018329D02*
X139872439Y-29018329D01*
X139872439Y-29018329D02*
X139920820Y-29042519D01*
X139920820Y-29042519D02*
X139945010Y-29066710D01*
X139945010Y-29066710D02*
X139969201Y-29115091D01*
D12*
X153341627Y-34925232D02*
X153341627Y-34683327D01*
X153341627Y-34683327D02*
X153583532Y-34659136D01*
X153583532Y-34659136D02*
X153559341Y-34683327D01*
X153559341Y-34683327D02*
X153535151Y-34731708D01*
X153535151Y-34731708D02*
X153535151Y-34852660D01*
X153535151Y-34852660D02*
X153559341Y-34901041D01*
X153559341Y-34901041D02*
X153583532Y-34925232D01*
X153583532Y-34925232D02*
X153631913Y-34949422D01*
X153631913Y-34949422D02*
X153752865Y-34949422D01*
X153752865Y-34949422D02*
X153801246Y-34925232D01*
X153801246Y-34925232D02*
X153825437Y-34901041D01*
X153825437Y-34901041D02*
X153849627Y-34852660D01*
X153849627Y-34852660D02*
X153849627Y-34731708D01*
X153849627Y-34731708D02*
X153825437Y-34683327D01*
X153825437Y-34683327D02*
X153801246Y-34659136D01*
X153341627Y-35094565D02*
X153849627Y-35263899D01*
X153849627Y-35263899D02*
X153341627Y-35433232D01*
X153390008Y-35578375D02*
X153365817Y-35602566D01*
X153365817Y-35602566D02*
X153341627Y-35650947D01*
X153341627Y-35650947D02*
X153341627Y-35771899D01*
X153341627Y-35771899D02*
X153365817Y-35820280D01*
X153365817Y-35820280D02*
X153390008Y-35844471D01*
X153390008Y-35844471D02*
X153438389Y-35868661D01*
X153438389Y-35868661D02*
X153486770Y-35868661D01*
X153486770Y-35868661D02*
X153559341Y-35844471D01*
X153559341Y-35844471D02*
X153849627Y-35554185D01*
X153849627Y-35554185D02*
X153849627Y-35868661D01*
D11*
X144864664Y-39018400D02*
X144864664Y-39399353D01*
X145093236Y-38942210D02*
X144293236Y-39208877D01*
X144293236Y-39208877D02*
X145093236Y-39475543D01*
X144293236Y-39627924D02*
X144293236Y-40085067D01*
X145093236Y-39856495D02*
X144293236Y-39856495D01*
X144293236Y-40275543D02*
X144293236Y-40770781D01*
X144293236Y-40770781D02*
X144597998Y-40504115D01*
X144597998Y-40504115D02*
X144597998Y-40618400D01*
X144597998Y-40618400D02*
X144636093Y-40694591D01*
X144636093Y-40694591D02*
X144674188Y-40732686D01*
X144674188Y-40732686D02*
X144750379Y-40770781D01*
X144750379Y-40770781D02*
X144940855Y-40770781D01*
X144940855Y-40770781D02*
X145017045Y-40732686D01*
X145017045Y-40732686D02*
X145055141Y-40694591D01*
X145055141Y-40694591D02*
X145093236Y-40618400D01*
X145093236Y-40618400D02*
X145093236Y-40389829D01*
X145093236Y-40389829D02*
X145055141Y-40313638D01*
X145055141Y-40313638D02*
X145017045Y-40275543D01*
X134413927Y-27807757D02*
X134871070Y-27807757D01*
X134642498Y-27807757D02*
X134642498Y-27007757D01*
X134642498Y-27007757D02*
X134718689Y-27122042D01*
X134718689Y-27122042D02*
X134794879Y-27198233D01*
X134794879Y-27198233D02*
X134871070Y-27236328D01*
X134109165Y-27083947D02*
X134071069Y-27045852D01*
X134071069Y-27045852D02*
X133994879Y-27007757D01*
X133994879Y-27007757D02*
X133804403Y-27007757D01*
X133804403Y-27007757D02*
X133728212Y-27045852D01*
X133728212Y-27045852D02*
X133690117Y-27083947D01*
X133690117Y-27083947D02*
X133652022Y-27160138D01*
X133652022Y-27160138D02*
X133652022Y-27236328D01*
X133652022Y-27236328D02*
X133690117Y-27350614D01*
X133690117Y-27350614D02*
X134147260Y-27807757D01*
X134147260Y-27807757D02*
X133652022Y-27807757D01*
X133423450Y-27007757D02*
X133156783Y-27807757D01*
X133156783Y-27807757D02*
X132890117Y-27007757D01*
X134642497Y-29095712D02*
X134642497Y-28295712D01*
X133842498Y-28333807D02*
X133918688Y-28295712D01*
X133918688Y-28295712D02*
X134032974Y-28295712D01*
X134032974Y-28295712D02*
X134147260Y-28333807D01*
X134147260Y-28333807D02*
X134223450Y-28409997D01*
X134223450Y-28409997D02*
X134261545Y-28486188D01*
X134261545Y-28486188D02*
X134299641Y-28638569D01*
X134299641Y-28638569D02*
X134299641Y-28752855D01*
X134299641Y-28752855D02*
X134261545Y-28905236D01*
X134261545Y-28905236D02*
X134223450Y-28981426D01*
X134223450Y-28981426D02*
X134147260Y-29057617D01*
X134147260Y-29057617D02*
X134032974Y-29095712D01*
X134032974Y-29095712D02*
X133956783Y-29095712D01*
X133956783Y-29095712D02*
X133842498Y-29057617D01*
X133842498Y-29057617D02*
X133804402Y-29019521D01*
X133804402Y-29019521D02*
X133804402Y-28752855D01*
X133804402Y-28752855D02*
X133956783Y-28752855D01*
X133461545Y-29095712D02*
X133461545Y-28295712D01*
X133461545Y-28295712D02*
X133004402Y-29095712D01*
X133004402Y-29095712D02*
X133004402Y-28295712D01*
X161347830Y-28807400D02*
X161347830Y-29340734D01*
X161490687Y-28502639D02*
X161633544Y-29074067D01*
X161633544Y-29074067D02*
X161262115Y-29074067D01*
X160747829Y-28540734D02*
X161033543Y-28540734D01*
X161033543Y-28540734D02*
X161062115Y-28921686D01*
X161062115Y-28921686D02*
X161033543Y-28883591D01*
X161033543Y-28883591D02*
X160976401Y-28845496D01*
X160976401Y-28845496D02*
X160833543Y-28845496D01*
X160833543Y-28845496D02*
X160776401Y-28883591D01*
X160776401Y-28883591D02*
X160747829Y-28921686D01*
X160747829Y-28921686D02*
X160719258Y-28997877D01*
X160719258Y-28997877D02*
X160719258Y-29188353D01*
X160719258Y-29188353D02*
X160747829Y-29264543D01*
X160747829Y-29264543D02*
X160776401Y-29302639D01*
X160776401Y-29302639D02*
X160833543Y-29340734D01*
X160833543Y-29340734D02*
X160976401Y-29340734D01*
X160976401Y-29340734D02*
X161033543Y-29302639D01*
X161033543Y-29302639D02*
X161062115Y-29264543D01*
D12*
X135903317Y-34837541D02*
X135879127Y-34789160D01*
X135879127Y-34789160D02*
X135879127Y-34716589D01*
X135879127Y-34716589D02*
X135903317Y-34644017D01*
X135903317Y-34644017D02*
X135951698Y-34595636D01*
X135951698Y-34595636D02*
X136000079Y-34571446D01*
X136000079Y-34571446D02*
X136096841Y-34547255D01*
X136096841Y-34547255D02*
X136169413Y-34547255D01*
X136169413Y-34547255D02*
X136266175Y-34571446D01*
X136266175Y-34571446D02*
X136314556Y-34595636D01*
X136314556Y-34595636D02*
X136362937Y-34644017D01*
X136362937Y-34644017D02*
X136387127Y-34716589D01*
X136387127Y-34716589D02*
X136387127Y-34764970D01*
X136387127Y-34764970D02*
X136362937Y-34837541D01*
X136362937Y-34837541D02*
X136338746Y-34861732D01*
X136338746Y-34861732D02*
X136169413Y-34861732D01*
X136169413Y-34861732D02*
X136169413Y-34764970D01*
X136387127Y-35079446D02*
X135879127Y-35079446D01*
X135879127Y-35079446D02*
X135879127Y-35272970D01*
X135879127Y-35272970D02*
X135903317Y-35321351D01*
X135903317Y-35321351D02*
X135927508Y-35345541D01*
X135927508Y-35345541D02*
X135975889Y-35369732D01*
X135975889Y-35369732D02*
X136048460Y-35369732D01*
X136048460Y-35369732D02*
X136096841Y-35345541D01*
X136096841Y-35345541D02*
X136121032Y-35321351D01*
X136121032Y-35321351D02*
X136145222Y-35272970D01*
X136145222Y-35272970D02*
X136145222Y-35079446D01*
X135879127Y-35539065D02*
X135879127Y-35853541D01*
X135879127Y-35853541D02*
X136072651Y-35684208D01*
X136072651Y-35684208D02*
X136072651Y-35756779D01*
X136072651Y-35756779D02*
X136096841Y-35805160D01*
X136096841Y-35805160D02*
X136121032Y-35829351D01*
X136121032Y-35829351D02*
X136169413Y-35853541D01*
X136169413Y-35853541D02*
X136290365Y-35853541D01*
X136290365Y-35853541D02*
X136338746Y-35829351D01*
X136338746Y-35829351D02*
X136362937Y-35805160D01*
X136362937Y-35805160D02*
X136387127Y-35756779D01*
X136387127Y-35756779D02*
X136387127Y-35611636D01*
X136387127Y-35611636D02*
X136362937Y-35563255D01*
X136362937Y-35563255D02*
X136338746Y-35539065D01*
X141321984Y-32231017D02*
X141321984Y-32472922D01*
X141467127Y-32182636D02*
X140959127Y-32351970D01*
X140959127Y-32351970D02*
X141467127Y-32521303D01*
X140959127Y-32618065D02*
X140959127Y-32908351D01*
X141467127Y-32763208D02*
X140959127Y-32763208D01*
X141467127Y-33343780D02*
X141467127Y-33053494D01*
X141467127Y-33198637D02*
X140959127Y-33198637D01*
X140959127Y-33198637D02*
X141031698Y-33150256D01*
X141031698Y-33150256D02*
X141080079Y-33101875D01*
X141080079Y-33101875D02*
X141104270Y-33053494D01*
X155905817Y-34901041D02*
X155881627Y-34852660D01*
X155881627Y-34852660D02*
X155881627Y-34780089D01*
X155881627Y-34780089D02*
X155905817Y-34707517D01*
X155905817Y-34707517D02*
X155954198Y-34659136D01*
X155954198Y-34659136D02*
X156002579Y-34634946D01*
X156002579Y-34634946D02*
X156099341Y-34610755D01*
X156099341Y-34610755D02*
X156171913Y-34610755D01*
X156171913Y-34610755D02*
X156268675Y-34634946D01*
X156268675Y-34634946D02*
X156317056Y-34659136D01*
X156317056Y-34659136D02*
X156365437Y-34707517D01*
X156365437Y-34707517D02*
X156389627Y-34780089D01*
X156389627Y-34780089D02*
X156389627Y-34828470D01*
X156389627Y-34828470D02*
X156365437Y-34901041D01*
X156365437Y-34901041D02*
X156341246Y-34925232D01*
X156341246Y-34925232D02*
X156171913Y-34925232D01*
X156171913Y-34925232D02*
X156171913Y-34828470D01*
X156389627Y-35142946D02*
X155881627Y-35142946D01*
X155881627Y-35142946D02*
X155881627Y-35336470D01*
X155881627Y-35336470D02*
X155905817Y-35384851D01*
X155905817Y-35384851D02*
X155930008Y-35409041D01*
X155930008Y-35409041D02*
X155978389Y-35433232D01*
X155978389Y-35433232D02*
X156050960Y-35433232D01*
X156050960Y-35433232D02*
X156099341Y-35409041D01*
X156099341Y-35409041D02*
X156123532Y-35384851D01*
X156123532Y-35384851D02*
X156147722Y-35336470D01*
X156147722Y-35336470D02*
X156147722Y-35142946D01*
X156050960Y-35868660D02*
X156389627Y-35868660D01*
X155857437Y-35747708D02*
X156220294Y-35626755D01*
X156220294Y-35626755D02*
X156220294Y-35941232D01*
D11*
X147508545Y-27709087D02*
X147546641Y-27680515D01*
X147546641Y-27680515D02*
X147584736Y-27594801D01*
X147584736Y-27594801D02*
X147584736Y-27537658D01*
X147584736Y-27537658D02*
X147546641Y-27451944D01*
X147546641Y-27451944D02*
X147470450Y-27394801D01*
X147470450Y-27394801D02*
X147394260Y-27366230D01*
X147394260Y-27366230D02*
X147241879Y-27337658D01*
X147241879Y-27337658D02*
X147127593Y-27337658D01*
X147127593Y-27337658D02*
X146975212Y-27366230D01*
X146975212Y-27366230D02*
X146899021Y-27394801D01*
X146899021Y-27394801D02*
X146822831Y-27451944D01*
X146822831Y-27451944D02*
X146784736Y-27537658D01*
X146784736Y-27537658D02*
X146784736Y-27594801D01*
X146784736Y-27594801D02*
X146822831Y-27680515D01*
X146822831Y-27680515D02*
X146860926Y-27709087D01*
X147356164Y-27937658D02*
X147356164Y-28223373D01*
X147584736Y-27880515D02*
X146784736Y-28080515D01*
X146784736Y-28080515D02*
X147584736Y-28280515D01*
X147584736Y-28480516D02*
X146784736Y-28480516D01*
X146784736Y-28480516D02*
X147356164Y-28680516D01*
X147356164Y-28680516D02*
X146784736Y-28880516D01*
X146784736Y-28880516D02*
X147584736Y-28880516D01*
X133561688Y-39056496D02*
X133561688Y-39323162D01*
X133980736Y-39437448D02*
X133980736Y-39056496D01*
X133980736Y-39056496D02*
X133180736Y-39056496D01*
X133180736Y-39056496D02*
X133180736Y-39437448D01*
X133180736Y-39666020D02*
X133180736Y-40123163D01*
X133980736Y-39894591D02*
X133180736Y-39894591D01*
X133561688Y-40656496D02*
X133599783Y-40770782D01*
X133599783Y-40770782D02*
X133637879Y-40808877D01*
X133637879Y-40808877D02*
X133714069Y-40846973D01*
X133714069Y-40846973D02*
X133828355Y-40846973D01*
X133828355Y-40846973D02*
X133904545Y-40808877D01*
X133904545Y-40808877D02*
X133942641Y-40770782D01*
X133942641Y-40770782D02*
X133980736Y-40694592D01*
X133980736Y-40694592D02*
X133980736Y-40389830D01*
X133980736Y-40389830D02*
X133180736Y-40389830D01*
X133180736Y-40389830D02*
X133180736Y-40656496D01*
X133180736Y-40656496D02*
X133218831Y-40732687D01*
X133218831Y-40732687D02*
X133256926Y-40770782D01*
X133256926Y-40770782D02*
X133333117Y-40808877D01*
X133333117Y-40808877D02*
X133409307Y-40808877D01*
X133409307Y-40808877D02*
X133485498Y-40770782D01*
X133485498Y-40770782D02*
X133523593Y-40732687D01*
X133523593Y-40732687D02*
X133561688Y-40656496D01*
X133561688Y-40656496D02*
X133561688Y-40389830D01*
X133675974Y-41189830D02*
X133675974Y-41799354D01*
D12*
X153849627Y-32022375D02*
X153341627Y-32022375D01*
X153849627Y-32264280D02*
X153341627Y-32264280D01*
X153341627Y-32264280D02*
X153849627Y-32554566D01*
X153849627Y-32554566D02*
X153341627Y-32554566D01*
X153341627Y-32941613D02*
X153704484Y-32941613D01*
X153704484Y-32941613D02*
X153777056Y-32917422D01*
X153777056Y-32917422D02*
X153825437Y-32869041D01*
X153825437Y-32869041D02*
X153849627Y-32796470D01*
X153849627Y-32796470D02*
X153849627Y-32748089D01*
X153390008Y-33159327D02*
X153365817Y-33183518D01*
X153365817Y-33183518D02*
X153341627Y-33231899D01*
X153341627Y-33231899D02*
X153341627Y-33352851D01*
X153341627Y-33352851D02*
X153365817Y-33401232D01*
X153365817Y-33401232D02*
X153390008Y-33425423D01*
X153390008Y-33425423D02*
X153438389Y-33449613D01*
X153438389Y-33449613D02*
X153486770Y-33449613D01*
X153486770Y-33449613D02*
X153559341Y-33425423D01*
X153559341Y-33425423D02*
X153849627Y-33135137D01*
X153849627Y-33135137D02*
X153849627Y-33449613D01*
D11*
X128519736Y-34835113D02*
X128519736Y-34454161D01*
X128519736Y-34454161D02*
X127719736Y-34454161D01*
X128481641Y-35063684D02*
X128519736Y-35177970D01*
X128519736Y-35177970D02*
X128519736Y-35368446D01*
X128519736Y-35368446D02*
X128481641Y-35444637D01*
X128481641Y-35444637D02*
X128443545Y-35482732D01*
X128443545Y-35482732D02*
X128367355Y-35520827D01*
X128367355Y-35520827D02*
X128291164Y-35520827D01*
X128291164Y-35520827D02*
X128214974Y-35482732D01*
X128214974Y-35482732D02*
X128176879Y-35444637D01*
X128176879Y-35444637D02*
X128138783Y-35368446D01*
X128138783Y-35368446D02*
X128100688Y-35216065D01*
X128100688Y-35216065D02*
X128062593Y-35139875D01*
X128062593Y-35139875D02*
X128024498Y-35101780D01*
X128024498Y-35101780D02*
X127948307Y-35063684D01*
X127948307Y-35063684D02*
X127872117Y-35063684D01*
X127872117Y-35063684D02*
X127795926Y-35101780D01*
X127795926Y-35101780D02*
X127757831Y-35139875D01*
X127757831Y-35139875D02*
X127719736Y-35216065D01*
X127719736Y-35216065D02*
X127719736Y-35406542D01*
X127719736Y-35406542D02*
X127757831Y-35520827D01*
X127795926Y-35825589D02*
X127757831Y-35863685D01*
X127757831Y-35863685D02*
X127719736Y-35939875D01*
X127719736Y-35939875D02*
X127719736Y-36130351D01*
X127719736Y-36130351D02*
X127757831Y-36206542D01*
X127757831Y-36206542D02*
X127795926Y-36244637D01*
X127795926Y-36244637D02*
X127872117Y-36282732D01*
X127872117Y-36282732D02*
X127948307Y-36282732D01*
X127948307Y-36282732D02*
X128062593Y-36244637D01*
X128062593Y-36244637D02*
X128519736Y-35787494D01*
X128519736Y-35787494D02*
X128519736Y-36282732D01*
X142324664Y-39018400D02*
X142324664Y-39399353D01*
X142553236Y-38942210D02*
X141753236Y-39208877D01*
X141753236Y-39208877D02*
X142553236Y-39475543D01*
X141753236Y-39627924D02*
X142553236Y-39894591D01*
X142553236Y-39894591D02*
X141753236Y-40161257D01*
X141753236Y-40808876D02*
X141753236Y-40427924D01*
X141753236Y-40427924D02*
X142134188Y-40389828D01*
X142134188Y-40389828D02*
X142096093Y-40427924D01*
X142096093Y-40427924D02*
X142057998Y-40504114D01*
X142057998Y-40504114D02*
X142057998Y-40694590D01*
X142057998Y-40694590D02*
X142096093Y-40770781D01*
X142096093Y-40770781D02*
X142134188Y-40808876D01*
X142134188Y-40808876D02*
X142210379Y-40846971D01*
X142210379Y-40846971D02*
X142400855Y-40846971D01*
X142400855Y-40846971D02*
X142477045Y-40808876D01*
X142477045Y-40808876D02*
X142515141Y-40770781D01*
X142515141Y-40770781D02*
X142553236Y-40694590D01*
X142553236Y-40694590D02*
X142553236Y-40504114D01*
X142553236Y-40504114D02*
X142515141Y-40427924D01*
X142515141Y-40427924D02*
X142477045Y-40389828D01*
D12*
X148814984Y-34746826D02*
X148814984Y-34988731D01*
X148960127Y-34698445D02*
X148452127Y-34867779D01*
X148452127Y-34867779D02*
X148960127Y-35037112D01*
X148452127Y-35133874D02*
X148960127Y-35303208D01*
X148960127Y-35303208D02*
X148452127Y-35472541D01*
X148452127Y-35593494D02*
X148452127Y-35907970D01*
X148452127Y-35907970D02*
X148645651Y-35738637D01*
X148645651Y-35738637D02*
X148645651Y-35811208D01*
X148645651Y-35811208D02*
X148669841Y-35859589D01*
X148669841Y-35859589D02*
X148694032Y-35883780D01*
X148694032Y-35883780D02*
X148742413Y-35907970D01*
X148742413Y-35907970D02*
X148863365Y-35907970D01*
X148863365Y-35907970D02*
X148911746Y-35883780D01*
X148911746Y-35883780D02*
X148935937Y-35859589D01*
X148935937Y-35859589D02*
X148960127Y-35811208D01*
X148960127Y-35811208D02*
X148960127Y-35666065D01*
X148960127Y-35666065D02*
X148935937Y-35617684D01*
X148935937Y-35617684D02*
X148911746Y-35593494D01*
D11*
X164929066Y-30153543D02*
X164967162Y-30191639D01*
X164967162Y-30191639D02*
X165081447Y-30229734D01*
X165081447Y-30229734D02*
X165157638Y-30229734D01*
X165157638Y-30229734D02*
X165271924Y-30191639D01*
X165271924Y-30191639D02*
X165348114Y-30115448D01*
X165348114Y-30115448D02*
X165386209Y-30039258D01*
X165386209Y-30039258D02*
X165424305Y-29886877D01*
X165424305Y-29886877D02*
X165424305Y-29772591D01*
X165424305Y-29772591D02*
X165386209Y-29620210D01*
X165386209Y-29620210D02*
X165348114Y-29544019D01*
X165348114Y-29544019D02*
X165271924Y-29467829D01*
X165271924Y-29467829D02*
X165157638Y-29429734D01*
X165157638Y-29429734D02*
X165081447Y-29429734D01*
X165081447Y-29429734D02*
X164967162Y-29467829D01*
X164967162Y-29467829D02*
X164929066Y-29505924D01*
X164129066Y-30229734D02*
X164395733Y-29848781D01*
X164586209Y-30229734D02*
X164586209Y-29429734D01*
X164586209Y-29429734D02*
X164281447Y-29429734D01*
X164281447Y-29429734D02*
X164205257Y-29467829D01*
X164205257Y-29467829D02*
X164167162Y-29505924D01*
X164167162Y-29505924D02*
X164129066Y-29582115D01*
X164129066Y-29582115D02*
X164129066Y-29696400D01*
X164129066Y-29696400D02*
X164167162Y-29772591D01*
X164167162Y-29772591D02*
X164205257Y-29810686D01*
X164205257Y-29810686D02*
X164281447Y-29848781D01*
X164281447Y-29848781D02*
X164586209Y-29848781D01*
X163786209Y-30229734D02*
X163786209Y-29429734D01*
X163786209Y-29429734D02*
X163329066Y-30229734D01*
X163329066Y-30229734D02*
X163329066Y-29429734D01*
X162948114Y-30229734D02*
X162948114Y-29429734D01*
X162490971Y-30229734D02*
X162833829Y-29772591D01*
X162490971Y-29429734D02*
X162948114Y-29886877D01*
X162148114Y-29924972D02*
X161538591Y-29924972D01*
X161843352Y-30229734D02*
X161843352Y-29620210D01*
X149817664Y-39018400D02*
X149817664Y-39399353D01*
X150046236Y-38942210D02*
X149246236Y-39208877D01*
X149246236Y-39208877D02*
X150046236Y-39475543D01*
X149246236Y-39627924D02*
X150046236Y-39894591D01*
X150046236Y-39894591D02*
X149246236Y-40161257D01*
X149246236Y-40770781D02*
X149246236Y-40618400D01*
X149246236Y-40618400D02*
X149284331Y-40542209D01*
X149284331Y-40542209D02*
X149322426Y-40504114D01*
X149322426Y-40504114D02*
X149436712Y-40427924D01*
X149436712Y-40427924D02*
X149589093Y-40389828D01*
X149589093Y-40389828D02*
X149893855Y-40389828D01*
X149893855Y-40389828D02*
X149970045Y-40427924D01*
X149970045Y-40427924D02*
X150008141Y-40466019D01*
X150008141Y-40466019D02*
X150046236Y-40542209D01*
X150046236Y-40542209D02*
X150046236Y-40694590D01*
X150046236Y-40694590D02*
X150008141Y-40770781D01*
X150008141Y-40770781D02*
X149970045Y-40808876D01*
X149970045Y-40808876D02*
X149893855Y-40846971D01*
X149893855Y-40846971D02*
X149703379Y-40846971D01*
X149703379Y-40846971D02*
X149627188Y-40808876D01*
X149627188Y-40808876D02*
X149589093Y-40770781D01*
X149589093Y-40770781D02*
X149550998Y-40694590D01*
X149550998Y-40694590D02*
X149550998Y-40542209D01*
X149550998Y-40542209D02*
X149589093Y-40466019D01*
X149589093Y-40466019D02*
X149627188Y-40427924D01*
X149627188Y-40427924D02*
X149703379Y-40389828D01*
D12*
X146274984Y-32206826D02*
X146274984Y-32448731D01*
X146420127Y-32158445D02*
X145912127Y-32327779D01*
X145912127Y-32327779D02*
X146420127Y-32497112D01*
X145912127Y-32593874D02*
X146420127Y-32763208D01*
X146420127Y-32763208D02*
X145912127Y-32932541D01*
X145960508Y-33077684D02*
X145936317Y-33101875D01*
X145936317Y-33101875D02*
X145912127Y-33150256D01*
X145912127Y-33150256D02*
X145912127Y-33271208D01*
X145912127Y-33271208D02*
X145936317Y-33319589D01*
X145936317Y-33319589D02*
X145960508Y-33343780D01*
X145960508Y-33343780D02*
X146008889Y-33367970D01*
X146008889Y-33367970D02*
X146057270Y-33367970D01*
X146057270Y-33367970D02*
X146129841Y-33343780D01*
X146129841Y-33343780D02*
X146420127Y-33053494D01*
X146420127Y-33053494D02*
X146420127Y-33367970D01*
D11*
X160257045Y-39462839D02*
X160295141Y-39424743D01*
X160295141Y-39424743D02*
X160333236Y-39310458D01*
X160333236Y-39310458D02*
X160333236Y-39234267D01*
X160333236Y-39234267D02*
X160295141Y-39119981D01*
X160295141Y-39119981D02*
X160218950Y-39043791D01*
X160218950Y-39043791D02*
X160142760Y-39005696D01*
X160142760Y-39005696D02*
X159990379Y-38967600D01*
X159990379Y-38967600D02*
X159876093Y-38967600D01*
X159876093Y-38967600D02*
X159723712Y-39005696D01*
X159723712Y-39005696D02*
X159647521Y-39043791D01*
X159647521Y-39043791D02*
X159571331Y-39119981D01*
X159571331Y-39119981D02*
X159533236Y-39234267D01*
X159533236Y-39234267D02*
X159533236Y-39310458D01*
X159533236Y-39310458D02*
X159571331Y-39424743D01*
X159571331Y-39424743D02*
X159609426Y-39462839D01*
X160104664Y-39767600D02*
X160104664Y-40148553D01*
X160333236Y-39691410D02*
X159533236Y-39958077D01*
X159533236Y-39958077D02*
X160333236Y-40224743D01*
X160333236Y-40491410D02*
X159533236Y-40491410D01*
X159533236Y-40491410D02*
X160333236Y-40948553D01*
X160333236Y-40948553D02*
X159533236Y-40948553D01*
X160333236Y-41329505D02*
X159533236Y-41329505D01*
X159914188Y-41329505D02*
X159914188Y-41786648D01*
X160333236Y-41786648D02*
X159533236Y-41786648D01*
D12*
X150825817Y-32424541D02*
X150801627Y-32376160D01*
X150801627Y-32376160D02*
X150801627Y-32303589D01*
X150801627Y-32303589D02*
X150825817Y-32231017D01*
X150825817Y-32231017D02*
X150874198Y-32182636D01*
X150874198Y-32182636D02*
X150922579Y-32158446D01*
X150922579Y-32158446D02*
X151019341Y-32134255D01*
X151019341Y-32134255D02*
X151091913Y-32134255D01*
X151091913Y-32134255D02*
X151188675Y-32158446D01*
X151188675Y-32158446D02*
X151237056Y-32182636D01*
X151237056Y-32182636D02*
X151285437Y-32231017D01*
X151285437Y-32231017D02*
X151309627Y-32303589D01*
X151309627Y-32303589D02*
X151309627Y-32351970D01*
X151309627Y-32351970D02*
X151285437Y-32424541D01*
X151285437Y-32424541D02*
X151261246Y-32448732D01*
X151261246Y-32448732D02*
X151091913Y-32448732D01*
X151091913Y-32448732D02*
X151091913Y-32351970D01*
X151309627Y-32666446D02*
X150801627Y-32666446D01*
X150801627Y-32666446D02*
X150801627Y-32859970D01*
X150801627Y-32859970D02*
X150825817Y-32908351D01*
X150825817Y-32908351D02*
X150850008Y-32932541D01*
X150850008Y-32932541D02*
X150898389Y-32956732D01*
X150898389Y-32956732D02*
X150970960Y-32956732D01*
X150970960Y-32956732D02*
X151019341Y-32932541D01*
X151019341Y-32932541D02*
X151043532Y-32908351D01*
X151043532Y-32908351D02*
X151067722Y-32859970D01*
X151067722Y-32859970D02*
X151067722Y-32666446D01*
X150850008Y-33150255D02*
X150825817Y-33174446D01*
X150825817Y-33174446D02*
X150801627Y-33222827D01*
X150801627Y-33222827D02*
X150801627Y-33343779D01*
X150801627Y-33343779D02*
X150825817Y-33392160D01*
X150825817Y-33392160D02*
X150850008Y-33416351D01*
X150850008Y-33416351D02*
X150898389Y-33440541D01*
X150898389Y-33440541D02*
X150946770Y-33440541D01*
X150946770Y-33440541D02*
X151019341Y-33416351D01*
X151019341Y-33416351D02*
X151309627Y-33126065D01*
X151309627Y-33126065D02*
X151309627Y-33440541D01*
D11*
X150109736Y-23937659D02*
X149309736Y-23937659D01*
X149309736Y-23937659D02*
X149881164Y-24137659D01*
X149881164Y-24137659D02*
X149309736Y-24337659D01*
X149309736Y-24337659D02*
X150109736Y-24337659D01*
X149881164Y-24594801D02*
X149881164Y-24880516D01*
X150109736Y-24537658D02*
X149309736Y-24737658D01*
X149309736Y-24737658D02*
X150109736Y-24937658D01*
X150109736Y-25137659D02*
X149309736Y-25137659D01*
X150109736Y-25423373D02*
X149309736Y-25423373D01*
X149309736Y-25423373D02*
X150109736Y-25766230D01*
X150109736Y-25766230D02*
X149309736Y-25766230D01*
X150109736Y-26851944D02*
X149728783Y-26651944D01*
X150109736Y-26509087D02*
X149309736Y-26509087D01*
X149309736Y-26509087D02*
X149309736Y-26737658D01*
X149309736Y-26737658D02*
X149347831Y-26794801D01*
X149347831Y-26794801D02*
X149385926Y-26823372D01*
X149385926Y-26823372D02*
X149462117Y-26851944D01*
X149462117Y-26851944D02*
X149576402Y-26851944D01*
X149576402Y-26851944D02*
X149652593Y-26823372D01*
X149652593Y-26823372D02*
X149690688Y-26794801D01*
X149690688Y-26794801D02*
X149728783Y-26737658D01*
X149728783Y-26737658D02*
X149728783Y-26509087D01*
X149690688Y-27109087D02*
X149690688Y-27309087D01*
X150109736Y-27394801D02*
X150109736Y-27109087D01*
X150109736Y-27109087D02*
X149309736Y-27109087D01*
X149309736Y-27109087D02*
X149309736Y-27394801D01*
X150109736Y-27937658D02*
X150109736Y-27651944D01*
X150109736Y-27651944D02*
X149309736Y-27651944D01*
X149881164Y-28109086D02*
X149881164Y-28394801D01*
X150109736Y-28051943D02*
X149309736Y-28251943D01*
X149309736Y-28251943D02*
X150109736Y-28451943D01*
X149728783Y-28766229D02*
X150109736Y-28766229D01*
X149309736Y-28566229D02*
X149728783Y-28766229D01*
X149728783Y-28766229D02*
X149309736Y-28966229D01*
D12*
X136387127Y-31958875D02*
X135879127Y-31958875D01*
X136048460Y-32418494D02*
X136459698Y-32418494D01*
X136459698Y-32418494D02*
X136508079Y-32394304D01*
X136508079Y-32394304D02*
X136532270Y-32370113D01*
X136532270Y-32370113D02*
X136556460Y-32321732D01*
X136556460Y-32321732D02*
X136556460Y-32249161D01*
X136556460Y-32249161D02*
X136532270Y-32200780D01*
X136362937Y-32418494D02*
X136387127Y-32370113D01*
X136387127Y-32370113D02*
X136387127Y-32273351D01*
X136387127Y-32273351D02*
X136362937Y-32224970D01*
X136362937Y-32224970D02*
X136338746Y-32200780D01*
X136338746Y-32200780D02*
X136290365Y-32176589D01*
X136290365Y-32176589D02*
X136145222Y-32176589D01*
X136145222Y-32176589D02*
X136096841Y-32200780D01*
X136096841Y-32200780D02*
X136072651Y-32224970D01*
X136072651Y-32224970D02*
X136048460Y-32273351D01*
X136048460Y-32273351D02*
X136048460Y-32370113D01*
X136048460Y-32370113D02*
X136072651Y-32418494D01*
X136048460Y-32660399D02*
X136387127Y-32660399D01*
X136096841Y-32660399D02*
X136072651Y-32684589D01*
X136072651Y-32684589D02*
X136048460Y-32732970D01*
X136048460Y-32732970D02*
X136048460Y-32805542D01*
X136048460Y-32805542D02*
X136072651Y-32853923D01*
X136072651Y-32853923D02*
X136121032Y-32878113D01*
X136121032Y-32878113D02*
X136387127Y-32878113D01*
X135927508Y-33095827D02*
X135903317Y-33120018D01*
X135903317Y-33120018D02*
X135879127Y-33168399D01*
X135879127Y-33168399D02*
X135879127Y-33289351D01*
X135879127Y-33289351D02*
X135903317Y-33337732D01*
X135903317Y-33337732D02*
X135927508Y-33361923D01*
X135927508Y-33361923D02*
X135975889Y-33386113D01*
X135975889Y-33386113D02*
X136024270Y-33386113D01*
X136024270Y-33386113D02*
X136096841Y-33361923D01*
X136096841Y-33361923D02*
X136387127Y-33071637D01*
X136387127Y-33071637D02*
X136387127Y-33386113D01*
D11*
X147404664Y-39018400D02*
X147404664Y-39399353D01*
X147633236Y-38942210D02*
X146833236Y-39208877D01*
X146833236Y-39208877D02*
X147633236Y-39475543D01*
X146833236Y-39627924D02*
X147633236Y-39894591D01*
X147633236Y-39894591D02*
X146833236Y-40161257D01*
X147633236Y-40846971D02*
X147633236Y-40389828D01*
X147633236Y-40618400D02*
X146833236Y-40618400D01*
X146833236Y-40618400D02*
X146947521Y-40542209D01*
X146947521Y-40542209D02*
X147023712Y-40466019D01*
X147023712Y-40466019D02*
X147061807Y-40389828D01*
X146833236Y-41342210D02*
X146833236Y-41418400D01*
X146833236Y-41418400D02*
X146871331Y-41494591D01*
X146871331Y-41494591D02*
X146909426Y-41532686D01*
X146909426Y-41532686D02*
X146985617Y-41570781D01*
X146985617Y-41570781D02*
X147137998Y-41608876D01*
X147137998Y-41608876D02*
X147328474Y-41608876D01*
X147328474Y-41608876D02*
X147480855Y-41570781D01*
X147480855Y-41570781D02*
X147557045Y-41532686D01*
X147557045Y-41532686D02*
X147595141Y-41494591D01*
X147595141Y-41494591D02*
X147633236Y-41418400D01*
X147633236Y-41418400D02*
X147633236Y-41342210D01*
X147633236Y-41342210D02*
X147595141Y-41266019D01*
X147595141Y-41266019D02*
X147557045Y-41227924D01*
X147557045Y-41227924D02*
X147480855Y-41189829D01*
X147480855Y-41189829D02*
X147328474Y-41151733D01*
X147328474Y-41151733D02*
X147137998Y-41151733D01*
X147137998Y-41151733D02*
X146985617Y-41189829D01*
X146985617Y-41189829D02*
X146909426Y-41227924D01*
X146909426Y-41227924D02*
X146871331Y-41266019D01*
X146871331Y-41266019D02*
X146833236Y-41342210D01*
X156993236Y-39437448D02*
X156993236Y-39056496D01*
X156993236Y-39056496D02*
X157374188Y-39018400D01*
X157374188Y-39018400D02*
X157336093Y-39056496D01*
X157336093Y-39056496D02*
X157297998Y-39132686D01*
X157297998Y-39132686D02*
X157297998Y-39323162D01*
X157297998Y-39323162D02*
X157336093Y-39399353D01*
X157336093Y-39399353D02*
X157374188Y-39437448D01*
X157374188Y-39437448D02*
X157450379Y-39475543D01*
X157450379Y-39475543D02*
X157640855Y-39475543D01*
X157640855Y-39475543D02*
X157717045Y-39437448D01*
X157717045Y-39437448D02*
X157755141Y-39399353D01*
X157755141Y-39399353D02*
X157793236Y-39323162D01*
X157793236Y-39323162D02*
X157793236Y-39132686D01*
X157793236Y-39132686D02*
X157755141Y-39056496D01*
X157755141Y-39056496D02*
X157717045Y-39018400D01*
X156993236Y-39704115D02*
X157793236Y-39970782D01*
X157793236Y-39970782D02*
X156993236Y-40237448D01*
X157793236Y-40923162D02*
X157793236Y-40466019D01*
X157793236Y-40694591D02*
X156993236Y-40694591D01*
X156993236Y-40694591D02*
X157107521Y-40618400D01*
X157107521Y-40618400D02*
X157183712Y-40542210D01*
X157183712Y-40542210D02*
X157221807Y-40466019D01*
D12*
X138927127Y-34752875D02*
X138419127Y-34752875D01*
X138419127Y-34752875D02*
X138419127Y-34873827D01*
X138419127Y-34873827D02*
X138443317Y-34946399D01*
X138443317Y-34946399D02*
X138491698Y-34994780D01*
X138491698Y-34994780D02*
X138540079Y-35018970D01*
X138540079Y-35018970D02*
X138636841Y-35043161D01*
X138636841Y-35043161D02*
X138709413Y-35043161D01*
X138709413Y-35043161D02*
X138806175Y-35018970D01*
X138806175Y-35018970D02*
X138854556Y-34994780D01*
X138854556Y-34994780D02*
X138902937Y-34946399D01*
X138902937Y-34946399D02*
X138927127Y-34873827D01*
X138927127Y-34873827D02*
X138927127Y-34752875D01*
X138733603Y-35260875D02*
X138733603Y-35647923D01*
X158881246Y-34680909D02*
X158905437Y-34656718D01*
X158905437Y-34656718D02*
X158929627Y-34584147D01*
X158929627Y-34584147D02*
X158929627Y-34535766D01*
X158929627Y-34535766D02*
X158905437Y-34463194D01*
X158905437Y-34463194D02*
X158857056Y-34414813D01*
X158857056Y-34414813D02*
X158808675Y-34390623D01*
X158808675Y-34390623D02*
X158711913Y-34366432D01*
X158711913Y-34366432D02*
X158639341Y-34366432D01*
X158639341Y-34366432D02*
X158542579Y-34390623D01*
X158542579Y-34390623D02*
X158494198Y-34414813D01*
X158494198Y-34414813D02*
X158445817Y-34463194D01*
X158445817Y-34463194D02*
X158421627Y-34535766D01*
X158421627Y-34535766D02*
X158421627Y-34584147D01*
X158421627Y-34584147D02*
X158445817Y-34656718D01*
X158445817Y-34656718D02*
X158470008Y-34680909D01*
X158784484Y-34874432D02*
X158784484Y-35116337D01*
X158929627Y-34826051D02*
X158421627Y-34995385D01*
X158421627Y-34995385D02*
X158929627Y-35164718D01*
X158929627Y-35334052D02*
X158421627Y-35334052D01*
X158421627Y-35334052D02*
X158929627Y-35624338D01*
X158929627Y-35624338D02*
X158421627Y-35624338D01*
X158929627Y-36108147D02*
X158929627Y-35866242D01*
X158929627Y-35866242D02*
X158421627Y-35866242D01*
D11*
X164802066Y-33900043D02*
X164840162Y-33938139D01*
X164840162Y-33938139D02*
X164954447Y-33976234D01*
X164954447Y-33976234D02*
X165030638Y-33976234D01*
X165030638Y-33976234D02*
X165144924Y-33938139D01*
X165144924Y-33938139D02*
X165221114Y-33861948D01*
X165221114Y-33861948D02*
X165259209Y-33785758D01*
X165259209Y-33785758D02*
X165297305Y-33633377D01*
X165297305Y-33633377D02*
X165297305Y-33519091D01*
X165297305Y-33519091D02*
X165259209Y-33366710D01*
X165259209Y-33366710D02*
X165221114Y-33290519D01*
X165221114Y-33290519D02*
X165144924Y-33214329D01*
X165144924Y-33214329D02*
X165030638Y-33176234D01*
X165030638Y-33176234D02*
X164954447Y-33176234D01*
X164954447Y-33176234D02*
X164840162Y-33214329D01*
X164840162Y-33214329D02*
X164802066Y-33252424D01*
X164002066Y-33976234D02*
X164268733Y-33595281D01*
X164459209Y-33976234D02*
X164459209Y-33176234D01*
X164459209Y-33176234D02*
X164154447Y-33176234D01*
X164154447Y-33176234D02*
X164078257Y-33214329D01*
X164078257Y-33214329D02*
X164040162Y-33252424D01*
X164040162Y-33252424D02*
X164002066Y-33328615D01*
X164002066Y-33328615D02*
X164002066Y-33442900D01*
X164002066Y-33442900D02*
X164040162Y-33519091D01*
X164040162Y-33519091D02*
X164078257Y-33557186D01*
X164078257Y-33557186D02*
X164154447Y-33595281D01*
X164154447Y-33595281D02*
X164459209Y-33595281D01*
X163659209Y-33976234D02*
X163659209Y-33176234D01*
X163659209Y-33176234D02*
X163202066Y-33976234D01*
X163202066Y-33976234D02*
X163202066Y-33176234D01*
X162821114Y-33976234D02*
X162821114Y-33176234D01*
X162363971Y-33976234D02*
X162706829Y-33519091D01*
X162363971Y-33176234D02*
X162821114Y-33633377D01*
X162021114Y-33671472D02*
X161411591Y-33671472D01*
X139941236Y-39056496D02*
X139141236Y-39056496D01*
X139141236Y-39056496D02*
X139141236Y-39246972D01*
X139141236Y-39246972D02*
X139179331Y-39361258D01*
X139179331Y-39361258D02*
X139255521Y-39437448D01*
X139255521Y-39437448D02*
X139331712Y-39475543D01*
X139331712Y-39475543D02*
X139484093Y-39513639D01*
X139484093Y-39513639D02*
X139598379Y-39513639D01*
X139598379Y-39513639D02*
X139750760Y-39475543D01*
X139750760Y-39475543D02*
X139826950Y-39437448D01*
X139826950Y-39437448D02*
X139903141Y-39361258D01*
X139903141Y-39361258D02*
X139941236Y-39246972D01*
X139941236Y-39246972D02*
X139941236Y-39056496D01*
X139636474Y-39856496D02*
X139636474Y-40466020D01*
X139941236Y-40161258D02*
X139331712Y-40161258D01*
X130349927Y-27807757D02*
X130807070Y-27807757D01*
X130578498Y-27807757D02*
X130578498Y-27007757D01*
X130578498Y-27007757D02*
X130654689Y-27122042D01*
X130654689Y-27122042D02*
X130730879Y-27198233D01*
X130730879Y-27198233D02*
X130807070Y-27236328D01*
X130045165Y-27083947D02*
X130007069Y-27045852D01*
X130007069Y-27045852D02*
X129930879Y-27007757D01*
X129930879Y-27007757D02*
X129740403Y-27007757D01*
X129740403Y-27007757D02*
X129664212Y-27045852D01*
X129664212Y-27045852D02*
X129626117Y-27083947D01*
X129626117Y-27083947D02*
X129588022Y-27160138D01*
X129588022Y-27160138D02*
X129588022Y-27236328D01*
X129588022Y-27236328D02*
X129626117Y-27350614D01*
X129626117Y-27350614D02*
X130083260Y-27807757D01*
X130083260Y-27807757D02*
X129588022Y-27807757D01*
X129359450Y-27007757D02*
X129092783Y-27807757D01*
X129092783Y-27807757D02*
X128826117Y-27007757D01*
X131340403Y-29095712D02*
X131607070Y-28714759D01*
X131797546Y-29095712D02*
X131797546Y-28295712D01*
X131797546Y-28295712D02*
X131492784Y-28295712D01*
X131492784Y-28295712D02*
X131416594Y-28333807D01*
X131416594Y-28333807D02*
X131378499Y-28371902D01*
X131378499Y-28371902D02*
X131340403Y-28448093D01*
X131340403Y-28448093D02*
X131340403Y-28562378D01*
X131340403Y-28562378D02*
X131378499Y-28638569D01*
X131378499Y-28638569D02*
X131416594Y-28676664D01*
X131416594Y-28676664D02*
X131492784Y-28714759D01*
X131492784Y-28714759D02*
X131797546Y-28714759D01*
X130692784Y-29057617D02*
X130768975Y-29095712D01*
X130768975Y-29095712D02*
X130921356Y-29095712D01*
X130921356Y-29095712D02*
X130997546Y-29057617D01*
X130997546Y-29057617D02*
X131035642Y-28981426D01*
X131035642Y-28981426D02*
X131035642Y-28676664D01*
X131035642Y-28676664D02*
X130997546Y-28600474D01*
X130997546Y-28600474D02*
X130921356Y-28562378D01*
X130921356Y-28562378D02*
X130768975Y-28562378D01*
X130768975Y-28562378D02*
X130692784Y-28600474D01*
X130692784Y-28600474D02*
X130654689Y-28676664D01*
X130654689Y-28676664D02*
X130654689Y-28752855D01*
X130654689Y-28752855D02*
X131035642Y-28829045D01*
X130197547Y-29095712D02*
X130273737Y-29057617D01*
X130273737Y-29057617D02*
X130311832Y-28981426D01*
X130311832Y-28981426D02*
X130311832Y-28295712D01*
X129549927Y-29095712D02*
X129549927Y-28676664D01*
X129549927Y-28676664D02*
X129588022Y-28600474D01*
X129588022Y-28600474D02*
X129664213Y-28562378D01*
X129664213Y-28562378D02*
X129816594Y-28562378D01*
X129816594Y-28562378D02*
X129892784Y-28600474D01*
X129549927Y-29057617D02*
X129626118Y-29095712D01*
X129626118Y-29095712D02*
X129816594Y-29095712D01*
X129816594Y-29095712D02*
X129892784Y-29057617D01*
X129892784Y-29057617D02*
X129930880Y-28981426D01*
X129930880Y-28981426D02*
X129930880Y-28905236D01*
X129930880Y-28905236D02*
X129892784Y-28829045D01*
X129892784Y-28829045D02*
X129816594Y-28790950D01*
X129816594Y-28790950D02*
X129626118Y-28790950D01*
X129626118Y-28790950D02*
X129549927Y-28752855D01*
X129245165Y-28562378D02*
X129054689Y-29095712D01*
X128864212Y-28562378D02*
X129054689Y-29095712D01*
X129054689Y-29095712D02*
X129130879Y-29286188D01*
X129130879Y-29286188D02*
X129168974Y-29324283D01*
X129168974Y-29324283D02*
X129245165Y-29362378D01*
X129878688Y-39035970D02*
X129878688Y-39302636D01*
X130297736Y-39416922D02*
X130297736Y-39035970D01*
X130297736Y-39035970D02*
X129497736Y-39035970D01*
X129497736Y-39035970D02*
X129497736Y-39416922D01*
X129497736Y-39645494D02*
X129497736Y-40102637D01*
X130297736Y-39874065D02*
X129497736Y-39874065D01*
X129878688Y-40635970D02*
X129916783Y-40750256D01*
X129916783Y-40750256D02*
X129954879Y-40788351D01*
X129954879Y-40788351D02*
X130031069Y-40826447D01*
X130031069Y-40826447D02*
X130145355Y-40826447D01*
X130145355Y-40826447D02*
X130221545Y-40788351D01*
X130221545Y-40788351D02*
X130259641Y-40750256D01*
X130259641Y-40750256D02*
X130297736Y-40674066D01*
X130297736Y-40674066D02*
X130297736Y-40369304D01*
X130297736Y-40369304D02*
X129497736Y-40369304D01*
X129497736Y-40369304D02*
X129497736Y-40635970D01*
X129497736Y-40635970D02*
X129535831Y-40712161D01*
X129535831Y-40712161D02*
X129573926Y-40750256D01*
X129573926Y-40750256D02*
X129650117Y-40788351D01*
X129650117Y-40788351D02*
X129726307Y-40788351D01*
X129726307Y-40788351D02*
X129802498Y-40750256D01*
X129802498Y-40750256D02*
X129840593Y-40712161D01*
X129840593Y-40712161D02*
X129878688Y-40635970D01*
X129878688Y-40635970D02*
X129878688Y-40369304D01*
X129992974Y-41169304D02*
X129992974Y-41778828D01*
X130297736Y-41474066D02*
X129688212Y-41474066D01*
D12*
X150825817Y-34964541D02*
X150801627Y-34916160D01*
X150801627Y-34916160D02*
X150801627Y-34843589D01*
X150801627Y-34843589D02*
X150825817Y-34771017D01*
X150825817Y-34771017D02*
X150874198Y-34722636D01*
X150874198Y-34722636D02*
X150922579Y-34698446D01*
X150922579Y-34698446D02*
X151019341Y-34674255D01*
X151019341Y-34674255D02*
X151091913Y-34674255D01*
X151091913Y-34674255D02*
X151188675Y-34698446D01*
X151188675Y-34698446D02*
X151237056Y-34722636D01*
X151237056Y-34722636D02*
X151285437Y-34771017D01*
X151285437Y-34771017D02*
X151309627Y-34843589D01*
X151309627Y-34843589D02*
X151309627Y-34891970D01*
X151309627Y-34891970D02*
X151285437Y-34964541D01*
X151285437Y-34964541D02*
X151261246Y-34988732D01*
X151261246Y-34988732D02*
X151091913Y-34988732D01*
X151091913Y-34988732D02*
X151091913Y-34891970D01*
X151309627Y-35206446D02*
X150801627Y-35206446D01*
X150801627Y-35206446D02*
X150801627Y-35399970D01*
X150801627Y-35399970D02*
X150825817Y-35448351D01*
X150825817Y-35448351D02*
X150850008Y-35472541D01*
X150850008Y-35472541D02*
X150898389Y-35496732D01*
X150898389Y-35496732D02*
X150970960Y-35496732D01*
X150970960Y-35496732D02*
X151019341Y-35472541D01*
X151019341Y-35472541D02*
X151043532Y-35448351D01*
X151043532Y-35448351D02*
X151067722Y-35399970D01*
X151067722Y-35399970D02*
X151067722Y-35206446D01*
X151309627Y-35980541D02*
X151309627Y-35690255D01*
X151309627Y-35835398D02*
X150801627Y-35835398D01*
X150801627Y-35835398D02*
X150874198Y-35787017D01*
X150874198Y-35787017D02*
X150922579Y-35738636D01*
X150922579Y-35738636D02*
X150946770Y-35690255D01*
X148814984Y-32206826D02*
X148814984Y-32448731D01*
X148960127Y-32158445D02*
X148452127Y-32327779D01*
X148452127Y-32327779D02*
X148960127Y-32497112D01*
X148452127Y-32593874D02*
X148960127Y-32763208D01*
X148960127Y-32763208D02*
X148452127Y-32932541D01*
X148452127Y-33053494D02*
X148452127Y-33392161D01*
X148452127Y-33392161D02*
X148960127Y-33174446D01*
X143861984Y-34771017D02*
X143861984Y-35012922D01*
X144007127Y-34722636D02*
X143499127Y-34891970D01*
X143499127Y-34891970D02*
X144007127Y-35061303D01*
X143499127Y-35158065D02*
X143499127Y-35448351D01*
X144007127Y-35303208D02*
X143499127Y-35303208D01*
X143547508Y-35593494D02*
X143523317Y-35617685D01*
X143523317Y-35617685D02*
X143499127Y-35666066D01*
X143499127Y-35666066D02*
X143499127Y-35787018D01*
X143499127Y-35787018D02*
X143523317Y-35835399D01*
X143523317Y-35835399D02*
X143547508Y-35859590D01*
X143547508Y-35859590D02*
X143595889Y-35883780D01*
X143595889Y-35883780D02*
X143644270Y-35883780D01*
X143644270Y-35883780D02*
X143716841Y-35859590D01*
X143716841Y-35859590D02*
X144007127Y-35569304D01*
X144007127Y-35569304D02*
X144007127Y-35883780D01*
D11*
X151887831Y-27709086D02*
X151849736Y-27651944D01*
X151849736Y-27651944D02*
X151849736Y-27566229D01*
X151849736Y-27566229D02*
X151887831Y-27480515D01*
X151887831Y-27480515D02*
X151964021Y-27423372D01*
X151964021Y-27423372D02*
X152040212Y-27394801D01*
X152040212Y-27394801D02*
X152192593Y-27366229D01*
X152192593Y-27366229D02*
X152306879Y-27366229D01*
X152306879Y-27366229D02*
X152459260Y-27394801D01*
X152459260Y-27394801D02*
X152535450Y-27423372D01*
X152535450Y-27423372D02*
X152611641Y-27480515D01*
X152611641Y-27480515D02*
X152649736Y-27566229D01*
X152649736Y-27566229D02*
X152649736Y-27623372D01*
X152649736Y-27623372D02*
X152611641Y-27709086D01*
X152611641Y-27709086D02*
X152573545Y-27737658D01*
X152573545Y-27737658D02*
X152306879Y-27737658D01*
X152306879Y-27737658D02*
X152306879Y-27623372D01*
X152649736Y-27994801D02*
X151849736Y-27994801D01*
X151849736Y-27994801D02*
X151849736Y-28223372D01*
X151849736Y-28223372D02*
X151887831Y-28280515D01*
X151887831Y-28280515D02*
X151925926Y-28309086D01*
X151925926Y-28309086D02*
X152002117Y-28337658D01*
X152002117Y-28337658D02*
X152116402Y-28337658D01*
X152116402Y-28337658D02*
X152192593Y-28309086D01*
X152192593Y-28309086D02*
X152230688Y-28280515D01*
X152230688Y-28280515D02*
X152268783Y-28223372D01*
X152268783Y-28223372D02*
X152268783Y-27994801D01*
X151849736Y-28537658D02*
X151849736Y-28909086D01*
X151849736Y-28909086D02*
X152154498Y-28709086D01*
X152154498Y-28709086D02*
X152154498Y-28794801D01*
X152154498Y-28794801D02*
X152192593Y-28851944D01*
X152192593Y-28851944D02*
X152230688Y-28880515D01*
X152230688Y-28880515D02*
X152306879Y-28909086D01*
X152306879Y-28909086D02*
X152497355Y-28909086D01*
X152497355Y-28909086D02*
X152573545Y-28880515D01*
X152573545Y-28880515D02*
X152611641Y-28851944D01*
X152611641Y-28851944D02*
X152649736Y-28794801D01*
X152649736Y-28794801D02*
X152649736Y-28623372D01*
X152649736Y-28623372D02*
X152611641Y-28566229D01*
X152611641Y-28566229D02*
X152573545Y-28537658D01*
X157677736Y-27223373D02*
X156877736Y-27223373D01*
X157677736Y-27509087D02*
X156877736Y-27509087D01*
X156877736Y-27509087D02*
X157677736Y-27851944D01*
X157677736Y-27851944D02*
X156877736Y-27851944D01*
X156877736Y-28309086D02*
X157449164Y-28309086D01*
X157449164Y-28309086D02*
X157563450Y-28280515D01*
X157563450Y-28280515D02*
X157639641Y-28223372D01*
X157639641Y-28223372D02*
X157677736Y-28137658D01*
X157677736Y-28137658D02*
X157677736Y-28080515D01*
X156877736Y-28537658D02*
X156877736Y-28909086D01*
X156877736Y-28909086D02*
X157182498Y-28709086D01*
X157182498Y-28709086D02*
X157182498Y-28794801D01*
X157182498Y-28794801D02*
X157220593Y-28851944D01*
X157220593Y-28851944D02*
X157258688Y-28880515D01*
X157258688Y-28880515D02*
X157334879Y-28909086D01*
X157334879Y-28909086D02*
X157525355Y-28909086D01*
X157525355Y-28909086D02*
X157601545Y-28880515D01*
X157601545Y-28880515D02*
X157639641Y-28851944D01*
X157639641Y-28851944D02*
X157677736Y-28794801D01*
X157677736Y-28794801D02*
X157677736Y-28623372D01*
X157677736Y-28623372D02*
X157639641Y-28566229D01*
X157639641Y-28566229D02*
X157601545Y-28537658D01*
X135890686Y-29721734D02*
X135776400Y-29721734D01*
X135776400Y-29721734D02*
X135719257Y-29683639D01*
X135719257Y-29683639D02*
X135690686Y-29645543D01*
X135690686Y-29645543D02*
X135633543Y-29531258D01*
X135633543Y-29531258D02*
X135604972Y-29378877D01*
X135604972Y-29378877D02*
X135604972Y-29074115D01*
X135604972Y-29074115D02*
X135633543Y-28997924D01*
X135633543Y-28997924D02*
X135662115Y-28959829D01*
X135662115Y-28959829D02*
X135719257Y-28921734D01*
X135719257Y-28921734D02*
X135833543Y-28921734D01*
X135833543Y-28921734D02*
X135890686Y-28959829D01*
X135890686Y-28959829D02*
X135919257Y-28997924D01*
X135919257Y-28997924D02*
X135947829Y-29074115D01*
X135947829Y-29074115D02*
X135947829Y-29264591D01*
X135947829Y-29264591D02*
X135919257Y-29340781D01*
X135919257Y-29340781D02*
X135890686Y-29378877D01*
X135890686Y-29378877D02*
X135833543Y-29416972D01*
X135833543Y-29416972D02*
X135719257Y-29416972D01*
X135719257Y-29416972D02*
X135662115Y-29378877D01*
X135662115Y-29378877D02*
X135633543Y-29340781D01*
X135633543Y-29340781D02*
X135604972Y-29264591D01*
D13*
X131669587Y-32050875D02*
X131631492Y-31974685D01*
X131631492Y-31974685D02*
X131631492Y-31860399D01*
X131631492Y-31860399D02*
X131669587Y-31746113D01*
X131669587Y-31746113D02*
X131745777Y-31669923D01*
X131745777Y-31669923D02*
X131821968Y-31631828D01*
X131821968Y-31631828D02*
X131974349Y-31593732D01*
X131974349Y-31593732D02*
X132088635Y-31593732D01*
X132088635Y-31593732D02*
X132241016Y-31631828D01*
X132241016Y-31631828D02*
X132317206Y-31669923D01*
X132317206Y-31669923D02*
X132393397Y-31746113D01*
X132393397Y-31746113D02*
X132431492Y-31860399D01*
X132431492Y-31860399D02*
X132431492Y-31936590D01*
X132431492Y-31936590D02*
X132393397Y-32050875D01*
X132393397Y-32050875D02*
X132355301Y-32088971D01*
X132355301Y-32088971D02*
X132088635Y-32088971D01*
X132088635Y-32088971D02*
X132088635Y-31936590D01*
X132431492Y-32431828D02*
X131631492Y-32431828D01*
X131631492Y-32431828D02*
X132431492Y-32888971D01*
X132431492Y-32888971D02*
X131631492Y-32888971D01*
X132431492Y-33269923D02*
X131631492Y-33269923D01*
X131631492Y-33269923D02*
X131631492Y-33460399D01*
X131631492Y-33460399D02*
X131669587Y-33574685D01*
X131669587Y-33574685D02*
X131745777Y-33650875D01*
X131745777Y-33650875D02*
X131821968Y-33688970D01*
X131821968Y-33688970D02*
X131974349Y-33727066D01*
X131974349Y-33727066D02*
X132088635Y-33727066D01*
X132088635Y-33727066D02*
X132241016Y-33688970D01*
X132241016Y-33688970D02*
X132317206Y-33650875D01*
X132317206Y-33650875D02*
X132393397Y-33574685D01*
X132393397Y-33574685D02*
X132431492Y-33460399D01*
X132431492Y-33460399D02*
X132431492Y-33269923D01*
D11*
X136017687Y-39373734D02*
X136360544Y-39373734D01*
X136189115Y-39373734D02*
X136189115Y-38573734D01*
X136189115Y-38573734D02*
X136246258Y-38688019D01*
X136246258Y-38688019D02*
X136303401Y-38764210D01*
X136303401Y-38764210D02*
X136360544Y-38802305D01*
X135789115Y-38649924D02*
X135760543Y-38611829D01*
X135760543Y-38611829D02*
X135703401Y-38573734D01*
X135703401Y-38573734D02*
X135560543Y-38573734D01*
X135560543Y-38573734D02*
X135503401Y-38611829D01*
X135503401Y-38611829D02*
X135474829Y-38649924D01*
X135474829Y-38649924D02*
X135446258Y-38726115D01*
X135446258Y-38726115D02*
X135446258Y-38802305D01*
X135446258Y-38802305D02*
X135474829Y-38916591D01*
X135474829Y-38916591D02*
X135817686Y-39373734D01*
X135817686Y-39373734D02*
X135446258Y-39373734D01*
X128111972Y-29721734D02*
X128454829Y-29721734D01*
X128283400Y-29721734D02*
X128283400Y-28921734D01*
X128283400Y-28921734D02*
X128340543Y-29036019D01*
X128340543Y-29036019D02*
X128397686Y-29112210D01*
X128397686Y-29112210D02*
X128454829Y-29150305D01*
X145450031Y-27774444D02*
X145411936Y-27717302D01*
X145411936Y-27717302D02*
X145411936Y-27631587D01*
X145411936Y-27631587D02*
X145450031Y-27545873D01*
X145450031Y-27545873D02*
X145526221Y-27488730D01*
X145526221Y-27488730D02*
X145602412Y-27460159D01*
X145602412Y-27460159D02*
X145754793Y-27431587D01*
X145754793Y-27431587D02*
X145869079Y-27431587D01*
X145869079Y-27431587D02*
X146021460Y-27460159D01*
X146021460Y-27460159D02*
X146097650Y-27488730D01*
X146097650Y-27488730D02*
X146173841Y-27545873D01*
X146173841Y-27545873D02*
X146211936Y-27631587D01*
X146211936Y-27631587D02*
X146211936Y-27688730D01*
X146211936Y-27688730D02*
X146173841Y-27774444D01*
X146173841Y-27774444D02*
X146135745Y-27803016D01*
X146135745Y-27803016D02*
X145869079Y-27803016D01*
X145869079Y-27803016D02*
X145869079Y-27688730D01*
X146211936Y-28060159D02*
X145411936Y-28060159D01*
X145411936Y-28060159D02*
X146211936Y-28403016D01*
X146211936Y-28403016D02*
X145411936Y-28403016D01*
X146211936Y-28688730D02*
X145411936Y-28688730D01*
X145411936Y-28688730D02*
X145411936Y-28831587D01*
X145411936Y-28831587D02*
X145450031Y-28917301D01*
X145450031Y-28917301D02*
X145526221Y-28974444D01*
X145526221Y-28974444D02*
X145602412Y-29003015D01*
X145602412Y-29003015D02*
X145754793Y-29031587D01*
X145754793Y-29031587D02*
X145869079Y-29031587D01*
X145869079Y-29031587D02*
X146021460Y-29003015D01*
X146021460Y-29003015D02*
X146097650Y-28974444D01*
X146097650Y-28974444D02*
X146173841Y-28917301D01*
X146173841Y-28917301D02*
X146211936Y-28831587D01*
X146211936Y-28831587D02*
X146211936Y-28688730D01*
X128423115Y-38840400D02*
X128423115Y-39373734D01*
X128565972Y-38535639D02*
X128708829Y-39107067D01*
X128708829Y-39107067D02*
X128337400Y-39107067D01*
D12*
X143861984Y-32231017D02*
X143861984Y-32472922D01*
X144007127Y-32182636D02*
X143499127Y-32351970D01*
X143499127Y-32351970D02*
X144007127Y-32521303D01*
X143499127Y-32618065D02*
X143499127Y-32908351D01*
X144007127Y-32763208D02*
X143499127Y-32763208D01*
X143668460Y-33295399D02*
X144007127Y-33295399D01*
X143474937Y-33174447D02*
X143837794Y-33053494D01*
X143837794Y-33053494D02*
X143837794Y-33367971D01*
D11*
X137473236Y-39056496D02*
X136673236Y-39056496D01*
X136939902Y-39780305D02*
X137587521Y-39780305D01*
X137587521Y-39780305D02*
X137663712Y-39742210D01*
X137663712Y-39742210D02*
X137701807Y-39704114D01*
X137701807Y-39704114D02*
X137739902Y-39627924D01*
X137739902Y-39627924D02*
X137739902Y-39513638D01*
X137739902Y-39513638D02*
X137701807Y-39437448D01*
X137435141Y-39780305D02*
X137473236Y-39704114D01*
X137473236Y-39704114D02*
X137473236Y-39551733D01*
X137473236Y-39551733D02*
X137435141Y-39475543D01*
X137435141Y-39475543D02*
X137397045Y-39437448D01*
X137397045Y-39437448D02*
X137320855Y-39399352D01*
X137320855Y-39399352D02*
X137092283Y-39399352D01*
X137092283Y-39399352D02*
X137016093Y-39437448D01*
X137016093Y-39437448D02*
X136977998Y-39475543D01*
X136977998Y-39475543D02*
X136939902Y-39551733D01*
X136939902Y-39551733D02*
X136939902Y-39704114D01*
X136939902Y-39704114D02*
X136977998Y-39780305D01*
X136939902Y-40161258D02*
X137473236Y-40161258D01*
X137016093Y-40161258D02*
X136977998Y-40199353D01*
X136977998Y-40199353D02*
X136939902Y-40275543D01*
X136939902Y-40275543D02*
X136939902Y-40389829D01*
X136939902Y-40389829D02*
X136977998Y-40466020D01*
X136977998Y-40466020D02*
X137054188Y-40504115D01*
X137054188Y-40504115D02*
X137473236Y-40504115D01*
X136939902Y-41227925D02*
X137473236Y-41227925D01*
X136635141Y-41037449D02*
X137206569Y-40846972D01*
X137206569Y-40846972D02*
X137206569Y-41342211D01*
D13*
X142775295Y-28853495D02*
X142823676Y-28829305D01*
X142823676Y-28829305D02*
X142896247Y-28829305D01*
X142896247Y-28829305D02*
X142968819Y-28853495D01*
X142968819Y-28853495D02*
X143017200Y-28901876D01*
X143017200Y-28901876D02*
X143041390Y-28950257D01*
X143041390Y-28950257D02*
X143065581Y-29047019D01*
X143065581Y-29047019D02*
X143065581Y-29119591D01*
X143065581Y-29119591D02*
X143041390Y-29216353D01*
X143041390Y-29216353D02*
X143017200Y-29264734D01*
X143017200Y-29264734D02*
X142968819Y-29313115D01*
X142968819Y-29313115D02*
X142896247Y-29337305D01*
X142896247Y-29337305D02*
X142847866Y-29337305D01*
X142847866Y-29337305D02*
X142775295Y-29313115D01*
X142775295Y-29313115D02*
X142751104Y-29288924D01*
X142751104Y-29288924D02*
X142751104Y-29119591D01*
X142751104Y-29119591D02*
X142847866Y-29119591D01*
X142533390Y-29337305D02*
X142533390Y-28829305D01*
X142533390Y-28829305D02*
X142243104Y-29337305D01*
X142243104Y-29337305D02*
X142243104Y-28829305D01*
X142001200Y-29337305D02*
X142001200Y-28829305D01*
X142001200Y-28829305D02*
X141880248Y-28829305D01*
X141880248Y-28829305D02*
X141807676Y-28853495D01*
X141807676Y-28853495D02*
X141759295Y-28901876D01*
X141759295Y-28901876D02*
X141735105Y-28950257D01*
X141735105Y-28950257D02*
X141710914Y-29047019D01*
X141710914Y-29047019D02*
X141710914Y-29119591D01*
X141710914Y-29119591D02*
X141735105Y-29216353D01*
X141735105Y-29216353D02*
X141759295Y-29264734D01*
X141759295Y-29264734D02*
X141807676Y-29313115D01*
X141807676Y-29313115D02*
X141880248Y-29337305D01*
X141880248Y-29337305D02*
X142001200Y-29337305D01*
D12*
X141321984Y-34746826D02*
X141321984Y-34988731D01*
X141467127Y-34698445D02*
X140959127Y-34867779D01*
X140959127Y-34867779D02*
X141467127Y-35037112D01*
X140959127Y-35133874D02*
X141467127Y-35303208D01*
X141467127Y-35303208D02*
X140959127Y-35472541D01*
X141128460Y-35859589D02*
X141467127Y-35859589D01*
X140934937Y-35738637D02*
X141297794Y-35617684D01*
X141297794Y-35617684D02*
X141297794Y-35932161D01*
D14*
%TO.C,M1*%
X120349998Y-71650009D02*
X161150001Y-71650009D01*
X120349998Y-111550008D02*
X120349998Y-71650009D01*
X120349998Y-111550008D02*
X162449998Y-111550008D01*
X161150001Y-71650009D02*
X162450001Y-71650009D01*
X162449998Y-111550008D02*
X162450001Y-71650009D01*
%TD*%
M02*
