%TF.GenerationSoftware,KiCad,Pcbnew,8.0.8*%
%TF.CreationDate,2026-02-09T15:56:51-05:00*%
%TF.ProjectId,greenecu48,67726565-6e65-4637-9534-382e6b696361,rev?*%
%TF.SameCoordinates,Original*%
%TF.FileFunction,Legend,Bot*%
%TF.FilePolarity,Positive*%
%FSLAX46Y46*%
G04 Gerber Fmt 4.6, Leading zero omitted, Abs format (unit mm)*
G04 Created by KiCad (PCBNEW 8.0.8) date 2026-02-09 15:56:51*
%MOMM*%
%LPD*%
G01*
G04 APERTURE LIST*
%ADD10C,0.127000*%
%ADD11C,0.170000*%
%ADD12C,0.000000*%
%ADD13C,0.200000*%
%ADD14C,0.120000*%
%ADD15C,0.203200*%
G04 APERTURE END LIST*
D10*
X151991892Y-38656447D02*
X152639511Y-38656447D01*
X152639511Y-38656447D02*
X152715701Y-38680637D01*
X152715701Y-38680637D02*
X152753797Y-38704828D01*
X152753797Y-38704828D02*
X152791892Y-38753209D01*
X152791892Y-38753209D02*
X152791892Y-38849971D01*
X152791892Y-38849971D02*
X152753797Y-38898352D01*
X152753797Y-38898352D02*
X152715701Y-38922542D01*
X152715701Y-38922542D02*
X152639511Y-38946733D01*
X152639511Y-38946733D02*
X151991892Y-38946733D01*
X152753797Y-39164446D02*
X152791892Y-39237018D01*
X152791892Y-39237018D02*
X152791892Y-39357970D01*
X152791892Y-39357970D02*
X152753797Y-39406351D01*
X152753797Y-39406351D02*
X152715701Y-39430542D01*
X152715701Y-39430542D02*
X152639511Y-39454732D01*
X152639511Y-39454732D02*
X152563320Y-39454732D01*
X152563320Y-39454732D02*
X152487130Y-39430542D01*
X152487130Y-39430542D02*
X152449035Y-39406351D01*
X152449035Y-39406351D02*
X152410939Y-39357970D01*
X152410939Y-39357970D02*
X152372844Y-39261208D01*
X152372844Y-39261208D02*
X152334749Y-39212827D01*
X152334749Y-39212827D02*
X152296654Y-39188637D01*
X152296654Y-39188637D02*
X152220463Y-39164446D01*
X152220463Y-39164446D02*
X152144273Y-39164446D01*
X152144273Y-39164446D02*
X152068082Y-39188637D01*
X152068082Y-39188637D02*
X152029987Y-39212827D01*
X152029987Y-39212827D02*
X151991892Y-39261208D01*
X151991892Y-39261208D02*
X151991892Y-39382161D01*
X151991892Y-39382161D02*
X152029987Y-39454732D01*
X152372844Y-39841780D02*
X152410939Y-39914352D01*
X152410939Y-39914352D02*
X152449035Y-39938542D01*
X152449035Y-39938542D02*
X152525225Y-39962733D01*
X152525225Y-39962733D02*
X152639511Y-39962733D01*
X152639511Y-39962733D02*
X152715701Y-39938542D01*
X152715701Y-39938542D02*
X152753797Y-39914352D01*
X152753797Y-39914352D02*
X152791892Y-39865971D01*
X152791892Y-39865971D02*
X152791892Y-39672447D01*
X152791892Y-39672447D02*
X151991892Y-39672447D01*
X151991892Y-39672447D02*
X151991892Y-39841780D01*
X151991892Y-39841780D02*
X152029987Y-39890161D01*
X152029987Y-39890161D02*
X152068082Y-39914352D01*
X152068082Y-39914352D02*
X152144273Y-39938542D01*
X152144273Y-39938542D02*
X152220463Y-39938542D01*
X152220463Y-39938542D02*
X152296654Y-39914352D01*
X152296654Y-39914352D02*
X152334749Y-39890161D01*
X152334749Y-39890161D02*
X152372844Y-39841780D01*
X152372844Y-39841780D02*
X152372844Y-39672447D01*
X152487130Y-40180447D02*
X152487130Y-40567495D01*
X143291892Y-27195113D02*
X143291892Y-26953208D01*
X143291892Y-26953208D02*
X142491892Y-26953208D01*
X143253797Y-27340255D02*
X143291892Y-27412827D01*
X143291892Y-27412827D02*
X143291892Y-27533779D01*
X143291892Y-27533779D02*
X143253797Y-27582160D01*
X143253797Y-27582160D02*
X143215701Y-27606351D01*
X143215701Y-27606351D02*
X143139511Y-27630541D01*
X143139511Y-27630541D02*
X143063320Y-27630541D01*
X143063320Y-27630541D02*
X142987130Y-27606351D01*
X142987130Y-27606351D02*
X142949035Y-27582160D01*
X142949035Y-27582160D02*
X142910939Y-27533779D01*
X142910939Y-27533779D02*
X142872844Y-27437017D01*
X142872844Y-27437017D02*
X142834749Y-27388636D01*
X142834749Y-27388636D02*
X142796654Y-27364446D01*
X142796654Y-27364446D02*
X142720463Y-27340255D01*
X142720463Y-27340255D02*
X142644273Y-27340255D01*
X142644273Y-27340255D02*
X142568082Y-27364446D01*
X142568082Y-27364446D02*
X142529987Y-27388636D01*
X142529987Y-27388636D02*
X142491892Y-27437017D01*
X142491892Y-27437017D02*
X142491892Y-27557970D01*
X142491892Y-27557970D02*
X142529987Y-27630541D01*
X142491892Y-27848256D02*
X143139511Y-27848256D01*
X143139511Y-27848256D02*
X143215701Y-27872446D01*
X143215701Y-27872446D02*
X143253797Y-27896637D01*
X143253797Y-27896637D02*
X143291892Y-27945018D01*
X143291892Y-27945018D02*
X143291892Y-28041780D01*
X143291892Y-28041780D02*
X143253797Y-28090161D01*
X143253797Y-28090161D02*
X143215701Y-28114351D01*
X143215701Y-28114351D02*
X143139511Y-28138542D01*
X143139511Y-28138542D02*
X142491892Y-28138542D01*
X143368082Y-28259494D02*
X143368082Y-28646541D01*
X143291892Y-28767494D02*
X142491892Y-28767494D01*
X130671892Y-24273494D02*
X129871892Y-24273494D01*
X129909987Y-24781494D02*
X129871892Y-24733113D01*
X129871892Y-24733113D02*
X129871892Y-24660542D01*
X129871892Y-24660542D02*
X129909987Y-24587970D01*
X129909987Y-24587970D02*
X129986177Y-24539589D01*
X129986177Y-24539589D02*
X130062368Y-24515399D01*
X130062368Y-24515399D02*
X130214749Y-24491208D01*
X130214749Y-24491208D02*
X130329035Y-24491208D01*
X130329035Y-24491208D02*
X130481416Y-24515399D01*
X130481416Y-24515399D02*
X130557606Y-24539589D01*
X130557606Y-24539589D02*
X130633797Y-24587970D01*
X130633797Y-24587970D02*
X130671892Y-24660542D01*
X130671892Y-24660542D02*
X130671892Y-24708923D01*
X130671892Y-24708923D02*
X130633797Y-24781494D01*
X130633797Y-24781494D02*
X130595701Y-24805685D01*
X130595701Y-24805685D02*
X130329035Y-24805685D01*
X130329035Y-24805685D02*
X130329035Y-24708923D01*
X130671892Y-25023399D02*
X129871892Y-25023399D01*
X129871892Y-25023399D02*
X130671892Y-25313685D01*
X130671892Y-25313685D02*
X129871892Y-25313685D01*
X130671892Y-25821684D02*
X130671892Y-25531398D01*
X130671892Y-25676541D02*
X129871892Y-25676541D01*
X129871892Y-25676541D02*
X129986177Y-25628160D01*
X129986177Y-25628160D02*
X130062368Y-25579779D01*
X130062368Y-25579779D02*
X130100463Y-25531398D01*
X152432844Y-41244732D02*
X152470939Y-41317304D01*
X152470939Y-41317304D02*
X152509035Y-41341494D01*
X152509035Y-41341494D02*
X152585225Y-41365685D01*
X152585225Y-41365685D02*
X152699511Y-41365685D01*
X152699511Y-41365685D02*
X152775701Y-41341494D01*
X152775701Y-41341494D02*
X152813797Y-41317304D01*
X152813797Y-41317304D02*
X152851892Y-41268923D01*
X152851892Y-41268923D02*
X152851892Y-41075399D01*
X152851892Y-41075399D02*
X152051892Y-41075399D01*
X152051892Y-41075399D02*
X152051892Y-41244732D01*
X152051892Y-41244732D02*
X152089987Y-41293113D01*
X152089987Y-41293113D02*
X152128082Y-41317304D01*
X152128082Y-41317304D02*
X152204273Y-41341494D01*
X152204273Y-41341494D02*
X152280463Y-41341494D01*
X152280463Y-41341494D02*
X152356654Y-41317304D01*
X152356654Y-41317304D02*
X152394749Y-41293113D01*
X152394749Y-41293113D02*
X152432844Y-41244732D01*
X152432844Y-41244732D02*
X152432844Y-41075399D01*
X152051892Y-41583399D02*
X152699511Y-41583399D01*
X152699511Y-41583399D02*
X152775701Y-41607589D01*
X152775701Y-41607589D02*
X152813797Y-41631780D01*
X152813797Y-41631780D02*
X152851892Y-41680161D01*
X152851892Y-41680161D02*
X152851892Y-41776923D01*
X152851892Y-41776923D02*
X152813797Y-41825304D01*
X152813797Y-41825304D02*
X152775701Y-41849494D01*
X152775701Y-41849494D02*
X152699511Y-41873685D01*
X152699511Y-41873685D02*
X152051892Y-41873685D01*
X152051892Y-42067208D02*
X152051892Y-42405875D01*
X152051892Y-42405875D02*
X152851892Y-42067208D01*
X152851892Y-42067208D02*
X152851892Y-42405875D01*
X147031892Y-38607969D02*
X147031892Y-38898255D01*
X147831892Y-38753112D02*
X147031892Y-38753112D01*
X147831892Y-39067589D02*
X147031892Y-39067589D01*
X147031892Y-39067589D02*
X147031892Y-39261113D01*
X147031892Y-39261113D02*
X147069987Y-39309494D01*
X147069987Y-39309494D02*
X147108082Y-39333684D01*
X147108082Y-39333684D02*
X147184273Y-39357875D01*
X147184273Y-39357875D02*
X147298558Y-39357875D01*
X147298558Y-39357875D02*
X147374749Y-39333684D01*
X147374749Y-39333684D02*
X147412844Y-39309494D01*
X147412844Y-39309494D02*
X147450939Y-39261113D01*
X147450939Y-39261113D02*
X147450939Y-39067589D01*
X147793797Y-39551398D02*
X147831892Y-39623970D01*
X147831892Y-39623970D02*
X147831892Y-39744922D01*
X147831892Y-39744922D02*
X147793797Y-39793303D01*
X147793797Y-39793303D02*
X147755701Y-39817494D01*
X147755701Y-39817494D02*
X147679511Y-39841684D01*
X147679511Y-39841684D02*
X147603320Y-39841684D01*
X147603320Y-39841684D02*
X147527130Y-39817494D01*
X147527130Y-39817494D02*
X147489035Y-39793303D01*
X147489035Y-39793303D02*
X147450939Y-39744922D01*
X147450939Y-39744922D02*
X147412844Y-39648160D01*
X147412844Y-39648160D02*
X147374749Y-39599779D01*
X147374749Y-39599779D02*
X147336654Y-39575589D01*
X147336654Y-39575589D02*
X147260463Y-39551398D01*
X147260463Y-39551398D02*
X147184273Y-39551398D01*
X147184273Y-39551398D02*
X147108082Y-39575589D01*
X147108082Y-39575589D02*
X147069987Y-39599779D01*
X147069987Y-39599779D02*
X147031892Y-39648160D01*
X147031892Y-39648160D02*
X147031892Y-39769113D01*
X147031892Y-39769113D02*
X147069987Y-39841684D01*
X137801892Y-41412445D02*
X137801892Y-41122159D01*
X137801892Y-41267302D02*
X137001892Y-41267302D01*
X137001892Y-41267302D02*
X137116177Y-41218921D01*
X137116177Y-41218921D02*
X137192368Y-41170540D01*
X137192368Y-41170540D02*
X137230463Y-41122159D01*
X137078082Y-41605969D02*
X137039987Y-41630160D01*
X137039987Y-41630160D02*
X137001892Y-41678541D01*
X137001892Y-41678541D02*
X137001892Y-41799493D01*
X137001892Y-41799493D02*
X137039987Y-41847874D01*
X137039987Y-41847874D02*
X137078082Y-41872065D01*
X137078082Y-41872065D02*
X137154273Y-41896255D01*
X137154273Y-41896255D02*
X137230463Y-41896255D01*
X137230463Y-41896255D02*
X137344749Y-41872065D01*
X137344749Y-41872065D02*
X137801892Y-41581779D01*
X137801892Y-41581779D02*
X137801892Y-41896255D01*
X137001892Y-42041398D02*
X137801892Y-42210732D01*
X137801892Y-42210732D02*
X137001892Y-42380065D01*
X160012844Y-38695780D02*
X160012844Y-38865113D01*
X160431892Y-38937685D02*
X160431892Y-38695780D01*
X160431892Y-38695780D02*
X159631892Y-38695780D01*
X159631892Y-38695780D02*
X159631892Y-38937685D01*
X159669987Y-39421494D02*
X159631892Y-39373113D01*
X159631892Y-39373113D02*
X159631892Y-39300542D01*
X159631892Y-39300542D02*
X159669987Y-39227970D01*
X159669987Y-39227970D02*
X159746177Y-39179589D01*
X159746177Y-39179589D02*
X159822368Y-39155399D01*
X159822368Y-39155399D02*
X159974749Y-39131208D01*
X159974749Y-39131208D02*
X160089035Y-39131208D01*
X160089035Y-39131208D02*
X160241416Y-39155399D01*
X160241416Y-39155399D02*
X160317606Y-39179589D01*
X160317606Y-39179589D02*
X160393797Y-39227970D01*
X160393797Y-39227970D02*
X160431892Y-39300542D01*
X160431892Y-39300542D02*
X160431892Y-39348923D01*
X160431892Y-39348923D02*
X160393797Y-39421494D01*
X160393797Y-39421494D02*
X160355701Y-39445685D01*
X160355701Y-39445685D02*
X160089035Y-39445685D01*
X160089035Y-39445685D02*
X160089035Y-39348923D01*
X159631892Y-39590827D02*
X159631892Y-39881113D01*
X160431892Y-39735970D02*
X159631892Y-39735970D01*
X160127130Y-40050447D02*
X160127130Y-40437495D01*
X160431892Y-40243971D02*
X159822368Y-40243971D01*
X159429987Y-27181875D02*
X159391892Y-27133494D01*
X159391892Y-27133494D02*
X159391892Y-27060923D01*
X159391892Y-27060923D02*
X159429987Y-26988351D01*
X159429987Y-26988351D02*
X159506177Y-26939970D01*
X159506177Y-26939970D02*
X159582368Y-26915780D01*
X159582368Y-26915780D02*
X159734749Y-26891589D01*
X159734749Y-26891589D02*
X159849035Y-26891589D01*
X159849035Y-26891589D02*
X160001416Y-26915780D01*
X160001416Y-26915780D02*
X160077606Y-26939970D01*
X160077606Y-26939970D02*
X160153797Y-26988351D01*
X160153797Y-26988351D02*
X160191892Y-27060923D01*
X160191892Y-27060923D02*
X160191892Y-27109304D01*
X160191892Y-27109304D02*
X160153797Y-27181875D01*
X160153797Y-27181875D02*
X160115701Y-27206066D01*
X160115701Y-27206066D02*
X159849035Y-27206066D01*
X159849035Y-27206066D02*
X159849035Y-27109304D01*
X160191892Y-27423780D02*
X159391892Y-27423780D01*
X159391892Y-27423780D02*
X160191892Y-27714066D01*
X160191892Y-27714066D02*
X159391892Y-27714066D01*
X160191892Y-27955970D02*
X159391892Y-27955970D01*
X159391892Y-27955970D02*
X159391892Y-28076922D01*
X159391892Y-28076922D02*
X159429987Y-28149494D01*
X159429987Y-28149494D02*
X159506177Y-28197875D01*
X159506177Y-28197875D02*
X159582368Y-28222065D01*
X159582368Y-28222065D02*
X159734749Y-28246256D01*
X159734749Y-28246256D02*
X159849035Y-28246256D01*
X159849035Y-28246256D02*
X160001416Y-28222065D01*
X160001416Y-28222065D02*
X160077606Y-28197875D01*
X160077606Y-28197875D02*
X160153797Y-28149494D01*
X160153797Y-28149494D02*
X160191892Y-28076922D01*
X160191892Y-28076922D02*
X160191892Y-27955970D01*
X159963320Y-28439779D02*
X159963320Y-28681684D01*
X160191892Y-28391398D02*
X159391892Y-28560732D01*
X159391892Y-28560732D02*
X160191892Y-28730065D01*
X142811892Y-38755399D02*
X142011892Y-38755399D01*
X142011892Y-38755399D02*
X142583320Y-38924732D01*
X142583320Y-38924732D02*
X142011892Y-39094066D01*
X142011892Y-39094066D02*
X142811892Y-39094066D01*
X142583320Y-39311779D02*
X142583320Y-39553684D01*
X142811892Y-39263398D02*
X142011892Y-39432732D01*
X142011892Y-39432732D02*
X142811892Y-39602065D01*
X142811892Y-39771399D02*
X142011892Y-39771399D01*
X142011892Y-39771399D02*
X142011892Y-39964923D01*
X142011892Y-39964923D02*
X142049987Y-40013304D01*
X142049987Y-40013304D02*
X142088082Y-40037494D01*
X142088082Y-40037494D02*
X142164273Y-40061685D01*
X142164273Y-40061685D02*
X142278558Y-40061685D01*
X142278558Y-40061685D02*
X142354749Y-40037494D01*
X142354749Y-40037494D02*
X142392844Y-40013304D01*
X142392844Y-40013304D02*
X142430939Y-39964923D01*
X142430939Y-39964923D02*
X142430939Y-39771399D01*
X145311892Y-24509018D02*
X145311892Y-24267113D01*
X145311892Y-24267113D02*
X144511892Y-24267113D01*
X145273797Y-24654160D02*
X145311892Y-24726732D01*
X145311892Y-24726732D02*
X145311892Y-24847684D01*
X145311892Y-24847684D02*
X145273797Y-24896065D01*
X145273797Y-24896065D02*
X145235701Y-24920256D01*
X145235701Y-24920256D02*
X145159511Y-24944446D01*
X145159511Y-24944446D02*
X145083320Y-24944446D01*
X145083320Y-24944446D02*
X145007130Y-24920256D01*
X145007130Y-24920256D02*
X144969035Y-24896065D01*
X144969035Y-24896065D02*
X144930939Y-24847684D01*
X144930939Y-24847684D02*
X144892844Y-24750922D01*
X144892844Y-24750922D02*
X144854749Y-24702541D01*
X144854749Y-24702541D02*
X144816654Y-24678351D01*
X144816654Y-24678351D02*
X144740463Y-24654160D01*
X144740463Y-24654160D02*
X144664273Y-24654160D01*
X144664273Y-24654160D02*
X144588082Y-24678351D01*
X144588082Y-24678351D02*
X144549987Y-24702541D01*
X144549987Y-24702541D02*
X144511892Y-24750922D01*
X144511892Y-24750922D02*
X144511892Y-24871875D01*
X144511892Y-24871875D02*
X144549987Y-24944446D01*
X144511892Y-25162161D02*
X145159511Y-25162161D01*
X145159511Y-25162161D02*
X145235701Y-25186351D01*
X145235701Y-25186351D02*
X145273797Y-25210542D01*
X145273797Y-25210542D02*
X145311892Y-25258923D01*
X145311892Y-25258923D02*
X145311892Y-25355685D01*
X145311892Y-25355685D02*
X145273797Y-25404066D01*
X145273797Y-25404066D02*
X145235701Y-25428256D01*
X145235701Y-25428256D02*
X145159511Y-25452447D01*
X145159511Y-25452447D02*
X144511892Y-25452447D01*
X145388082Y-25573399D02*
X145388082Y-25960446D01*
X145311892Y-26371685D02*
X144930939Y-26202351D01*
X145311892Y-26081399D02*
X144511892Y-26081399D01*
X144511892Y-26081399D02*
X144511892Y-26274923D01*
X144511892Y-26274923D02*
X144549987Y-26323304D01*
X144549987Y-26323304D02*
X144588082Y-26347494D01*
X144588082Y-26347494D02*
X144664273Y-26371685D01*
X144664273Y-26371685D02*
X144778558Y-26371685D01*
X144778558Y-26371685D02*
X144854749Y-26347494D01*
X144854749Y-26347494D02*
X144892844Y-26323304D01*
X144892844Y-26323304D02*
X144930939Y-26274923D01*
X144930939Y-26274923D02*
X144930939Y-26081399D01*
X138101892Y-24286065D02*
X137301892Y-24286065D01*
X138101892Y-24527970D02*
X137301892Y-24527970D01*
X137301892Y-24527970D02*
X138101892Y-24818256D01*
X138101892Y-24818256D02*
X137301892Y-24818256D01*
X137720939Y-25156922D02*
X138101892Y-25156922D01*
X137301892Y-24987588D02*
X137720939Y-25156922D01*
X137720939Y-25156922D02*
X137301892Y-25326255D01*
X138101892Y-25761684D02*
X138101892Y-25471398D01*
X138101892Y-25616541D02*
X137301892Y-25616541D01*
X137301892Y-25616541D02*
X137416177Y-25568160D01*
X137416177Y-25568160D02*
X137492368Y-25519779D01*
X137492368Y-25519779D02*
X137530463Y-25471398D01*
X154379987Y-27311875D02*
X154341892Y-27263494D01*
X154341892Y-27263494D02*
X154341892Y-27190923D01*
X154341892Y-27190923D02*
X154379987Y-27118351D01*
X154379987Y-27118351D02*
X154456177Y-27069970D01*
X154456177Y-27069970D02*
X154532368Y-27045780D01*
X154532368Y-27045780D02*
X154684749Y-27021589D01*
X154684749Y-27021589D02*
X154799035Y-27021589D01*
X154799035Y-27021589D02*
X154951416Y-27045780D01*
X154951416Y-27045780D02*
X155027606Y-27069970D01*
X155027606Y-27069970D02*
X155103797Y-27118351D01*
X155103797Y-27118351D02*
X155141892Y-27190923D01*
X155141892Y-27190923D02*
X155141892Y-27239304D01*
X155141892Y-27239304D02*
X155103797Y-27311875D01*
X155103797Y-27311875D02*
X155065701Y-27336066D01*
X155065701Y-27336066D02*
X154799035Y-27336066D01*
X154799035Y-27336066D02*
X154799035Y-27239304D01*
X155141892Y-27553780D02*
X154341892Y-27553780D01*
X154341892Y-27553780D02*
X155141892Y-27844066D01*
X155141892Y-27844066D02*
X154341892Y-27844066D01*
X155141892Y-28085970D02*
X154341892Y-28085970D01*
X154341892Y-28085970D02*
X154341892Y-28206922D01*
X154341892Y-28206922D02*
X154379987Y-28279494D01*
X154379987Y-28279494D02*
X154456177Y-28327875D01*
X154456177Y-28327875D02*
X154532368Y-28352065D01*
X154532368Y-28352065D02*
X154684749Y-28376256D01*
X154684749Y-28376256D02*
X154799035Y-28376256D01*
X154799035Y-28376256D02*
X154951416Y-28352065D01*
X154951416Y-28352065D02*
X155027606Y-28327875D01*
X155027606Y-28327875D02*
X155103797Y-28279494D01*
X155103797Y-28279494D02*
X155141892Y-28206922D01*
X155141892Y-28206922D02*
X155141892Y-28085970D01*
X154913320Y-28569779D02*
X154913320Y-28811684D01*
X155141892Y-28521398D02*
X154341892Y-28690732D01*
X154341892Y-28690732D02*
X155141892Y-28860065D01*
X149341892Y-27232065D02*
X149341892Y-26990160D01*
X149341892Y-26990160D02*
X149722844Y-26965969D01*
X149722844Y-26965969D02*
X149684749Y-26990160D01*
X149684749Y-26990160D02*
X149646654Y-27038541D01*
X149646654Y-27038541D02*
X149646654Y-27159493D01*
X149646654Y-27159493D02*
X149684749Y-27207874D01*
X149684749Y-27207874D02*
X149722844Y-27232065D01*
X149722844Y-27232065D02*
X149799035Y-27256255D01*
X149799035Y-27256255D02*
X149989511Y-27256255D01*
X149989511Y-27256255D02*
X150065701Y-27232065D01*
X150065701Y-27232065D02*
X150103797Y-27207874D01*
X150103797Y-27207874D02*
X150141892Y-27159493D01*
X150141892Y-27159493D02*
X150141892Y-27038541D01*
X150141892Y-27038541D02*
X150103797Y-26990160D01*
X150103797Y-26990160D02*
X150065701Y-26965969D01*
X149341892Y-27401398D02*
X150141892Y-27570732D01*
X150141892Y-27570732D02*
X149341892Y-27740065D01*
X157512844Y-41217684D02*
X157550939Y-41290256D01*
X157550939Y-41290256D02*
X157589035Y-41314446D01*
X157589035Y-41314446D02*
X157665225Y-41338637D01*
X157665225Y-41338637D02*
X157779511Y-41338637D01*
X157779511Y-41338637D02*
X157855701Y-41314446D01*
X157855701Y-41314446D02*
X157893797Y-41290256D01*
X157893797Y-41290256D02*
X157931892Y-41241875D01*
X157931892Y-41241875D02*
X157931892Y-41048351D01*
X157931892Y-41048351D02*
X157131892Y-41048351D01*
X157131892Y-41048351D02*
X157131892Y-41217684D01*
X157131892Y-41217684D02*
X157169987Y-41266065D01*
X157169987Y-41266065D02*
X157208082Y-41290256D01*
X157208082Y-41290256D02*
X157284273Y-41314446D01*
X157284273Y-41314446D02*
X157360463Y-41314446D01*
X157360463Y-41314446D02*
X157436654Y-41290256D01*
X157436654Y-41290256D02*
X157474749Y-41266065D01*
X157474749Y-41266065D02*
X157512844Y-41217684D01*
X157512844Y-41217684D02*
X157512844Y-41048351D01*
X157131892Y-41653113D02*
X157131892Y-41749875D01*
X157131892Y-41749875D02*
X157169987Y-41798256D01*
X157169987Y-41798256D02*
X157246177Y-41846637D01*
X157246177Y-41846637D02*
X157398558Y-41870827D01*
X157398558Y-41870827D02*
X157665225Y-41870827D01*
X157665225Y-41870827D02*
X157817606Y-41846637D01*
X157817606Y-41846637D02*
X157893797Y-41798256D01*
X157893797Y-41798256D02*
X157931892Y-41749875D01*
X157931892Y-41749875D02*
X157931892Y-41653113D01*
X157931892Y-41653113D02*
X157893797Y-41604732D01*
X157893797Y-41604732D02*
X157817606Y-41556351D01*
X157817606Y-41556351D02*
X157665225Y-41532160D01*
X157665225Y-41532160D02*
X157398558Y-41532160D01*
X157398558Y-41532160D02*
X157246177Y-41556351D01*
X157246177Y-41556351D02*
X157169987Y-41604732D01*
X157169987Y-41604732D02*
X157131892Y-41653113D01*
X157893797Y-42064350D02*
X157931892Y-42136922D01*
X157931892Y-42136922D02*
X157931892Y-42257874D01*
X157931892Y-42257874D02*
X157893797Y-42306255D01*
X157893797Y-42306255D02*
X157855701Y-42330446D01*
X157855701Y-42330446D02*
X157779511Y-42354636D01*
X157779511Y-42354636D02*
X157703320Y-42354636D01*
X157703320Y-42354636D02*
X157627130Y-42330446D01*
X157627130Y-42330446D02*
X157589035Y-42306255D01*
X157589035Y-42306255D02*
X157550939Y-42257874D01*
X157550939Y-42257874D02*
X157512844Y-42161112D01*
X157512844Y-42161112D02*
X157474749Y-42112731D01*
X157474749Y-42112731D02*
X157436654Y-42088541D01*
X157436654Y-42088541D02*
X157360463Y-42064350D01*
X157360463Y-42064350D02*
X157284273Y-42064350D01*
X157284273Y-42064350D02*
X157208082Y-42088541D01*
X157208082Y-42088541D02*
X157169987Y-42112731D01*
X157169987Y-42112731D02*
X157131892Y-42161112D01*
X157131892Y-42161112D02*
X157131892Y-42282065D01*
X157131892Y-42282065D02*
X157169987Y-42354636D01*
X157131892Y-42499779D02*
X157131892Y-42790065D01*
X157931892Y-42644922D02*
X157131892Y-42644922D01*
X154491892Y-41096447D02*
X155139511Y-41096447D01*
X155139511Y-41096447D02*
X155215701Y-41120637D01*
X155215701Y-41120637D02*
X155253797Y-41144828D01*
X155253797Y-41144828D02*
X155291892Y-41193209D01*
X155291892Y-41193209D02*
X155291892Y-41289971D01*
X155291892Y-41289971D02*
X155253797Y-41338352D01*
X155253797Y-41338352D02*
X155215701Y-41362542D01*
X155215701Y-41362542D02*
X155139511Y-41386733D01*
X155139511Y-41386733D02*
X154491892Y-41386733D01*
X155253797Y-41604446D02*
X155291892Y-41677018D01*
X155291892Y-41677018D02*
X155291892Y-41797970D01*
X155291892Y-41797970D02*
X155253797Y-41846351D01*
X155253797Y-41846351D02*
X155215701Y-41870542D01*
X155215701Y-41870542D02*
X155139511Y-41894732D01*
X155139511Y-41894732D02*
X155063320Y-41894732D01*
X155063320Y-41894732D02*
X154987130Y-41870542D01*
X154987130Y-41870542D02*
X154949035Y-41846351D01*
X154949035Y-41846351D02*
X154910939Y-41797970D01*
X154910939Y-41797970D02*
X154872844Y-41701208D01*
X154872844Y-41701208D02*
X154834749Y-41652827D01*
X154834749Y-41652827D02*
X154796654Y-41628637D01*
X154796654Y-41628637D02*
X154720463Y-41604446D01*
X154720463Y-41604446D02*
X154644273Y-41604446D01*
X154644273Y-41604446D02*
X154568082Y-41628637D01*
X154568082Y-41628637D02*
X154529987Y-41652827D01*
X154529987Y-41652827D02*
X154491892Y-41701208D01*
X154491892Y-41701208D02*
X154491892Y-41822161D01*
X154491892Y-41822161D02*
X154529987Y-41894732D01*
X154872844Y-42281780D02*
X154910939Y-42354352D01*
X154910939Y-42354352D02*
X154949035Y-42378542D01*
X154949035Y-42378542D02*
X155025225Y-42402733D01*
X155025225Y-42402733D02*
X155139511Y-42402733D01*
X155139511Y-42402733D02*
X155215701Y-42378542D01*
X155215701Y-42378542D02*
X155253797Y-42354352D01*
X155253797Y-42354352D02*
X155291892Y-42305971D01*
X155291892Y-42305971D02*
X155291892Y-42112447D01*
X155291892Y-42112447D02*
X154491892Y-42112447D01*
X154491892Y-42112447D02*
X154491892Y-42281780D01*
X154491892Y-42281780D02*
X154529987Y-42330161D01*
X154529987Y-42330161D02*
X154568082Y-42354352D01*
X154568082Y-42354352D02*
X154644273Y-42378542D01*
X154644273Y-42378542D02*
X154720463Y-42378542D01*
X154720463Y-42378542D02*
X154796654Y-42354352D01*
X154796654Y-42354352D02*
X154834749Y-42330161D01*
X154834749Y-42330161D02*
X154872844Y-42281780D01*
X154872844Y-42281780D02*
X154872844Y-42112447D01*
X154987130Y-42620447D02*
X154987130Y-43007495D01*
X155291892Y-42813971D02*
X154682368Y-42813971D01*
X156939987Y-24561875D02*
X156901892Y-24513494D01*
X156901892Y-24513494D02*
X156901892Y-24440923D01*
X156901892Y-24440923D02*
X156939987Y-24368351D01*
X156939987Y-24368351D02*
X157016177Y-24319970D01*
X157016177Y-24319970D02*
X157092368Y-24295780D01*
X157092368Y-24295780D02*
X157244749Y-24271589D01*
X157244749Y-24271589D02*
X157359035Y-24271589D01*
X157359035Y-24271589D02*
X157511416Y-24295780D01*
X157511416Y-24295780D02*
X157587606Y-24319970D01*
X157587606Y-24319970D02*
X157663797Y-24368351D01*
X157663797Y-24368351D02*
X157701892Y-24440923D01*
X157701892Y-24440923D02*
X157701892Y-24489304D01*
X157701892Y-24489304D02*
X157663797Y-24561875D01*
X157663797Y-24561875D02*
X157625701Y-24586066D01*
X157625701Y-24586066D02*
X157359035Y-24586066D01*
X157359035Y-24586066D02*
X157359035Y-24489304D01*
X157701892Y-24803780D02*
X156901892Y-24803780D01*
X156901892Y-24803780D02*
X157701892Y-25094066D01*
X157701892Y-25094066D02*
X156901892Y-25094066D01*
X157701892Y-25335970D02*
X156901892Y-25335970D01*
X156901892Y-25335970D02*
X156901892Y-25456922D01*
X156901892Y-25456922D02*
X156939987Y-25529494D01*
X156939987Y-25529494D02*
X157016177Y-25577875D01*
X157016177Y-25577875D02*
X157092368Y-25602065D01*
X157092368Y-25602065D02*
X157244749Y-25626256D01*
X157244749Y-25626256D02*
X157359035Y-25626256D01*
X157359035Y-25626256D02*
X157511416Y-25602065D01*
X157511416Y-25602065D02*
X157587606Y-25577875D01*
X157587606Y-25577875D02*
X157663797Y-25529494D01*
X157663797Y-25529494D02*
X157701892Y-25456922D01*
X157701892Y-25456922D02*
X157701892Y-25335970D01*
X157473320Y-25819779D02*
X157473320Y-26061684D01*
X157701892Y-25771398D02*
X156901892Y-25940732D01*
X156901892Y-25940732D02*
X157701892Y-26110065D01*
X155305701Y-38991876D02*
X155343797Y-38967685D01*
X155343797Y-38967685D02*
X155381892Y-38895114D01*
X155381892Y-38895114D02*
X155381892Y-38846733D01*
X155381892Y-38846733D02*
X155343797Y-38774161D01*
X155343797Y-38774161D02*
X155267606Y-38725780D01*
X155267606Y-38725780D02*
X155191416Y-38701590D01*
X155191416Y-38701590D02*
X155039035Y-38677399D01*
X155039035Y-38677399D02*
X154924749Y-38677399D01*
X154924749Y-38677399D02*
X154772368Y-38701590D01*
X154772368Y-38701590D02*
X154696177Y-38725780D01*
X154696177Y-38725780D02*
X154619987Y-38774161D01*
X154619987Y-38774161D02*
X154581892Y-38846733D01*
X154581892Y-38846733D02*
X154581892Y-38895114D01*
X154581892Y-38895114D02*
X154619987Y-38967685D01*
X154619987Y-38967685D02*
X154658082Y-38991876D01*
X155153320Y-39185399D02*
X155153320Y-39427304D01*
X155381892Y-39137018D02*
X154581892Y-39306352D01*
X154581892Y-39306352D02*
X155381892Y-39475685D01*
X155381892Y-39645019D02*
X154581892Y-39645019D01*
X154581892Y-39645019D02*
X155381892Y-39935305D01*
X155381892Y-39935305D02*
X154581892Y-39935305D01*
X155381892Y-40177209D02*
X154581892Y-40177209D01*
X154962844Y-40177209D02*
X154962844Y-40467495D01*
X155381892Y-40467495D02*
X154581892Y-40467495D01*
X157059987Y-27181875D02*
X157021892Y-27133494D01*
X157021892Y-27133494D02*
X157021892Y-27060923D01*
X157021892Y-27060923D02*
X157059987Y-26988351D01*
X157059987Y-26988351D02*
X157136177Y-26939970D01*
X157136177Y-26939970D02*
X157212368Y-26915780D01*
X157212368Y-26915780D02*
X157364749Y-26891589D01*
X157364749Y-26891589D02*
X157479035Y-26891589D01*
X157479035Y-26891589D02*
X157631416Y-26915780D01*
X157631416Y-26915780D02*
X157707606Y-26939970D01*
X157707606Y-26939970D02*
X157783797Y-26988351D01*
X157783797Y-26988351D02*
X157821892Y-27060923D01*
X157821892Y-27060923D02*
X157821892Y-27109304D01*
X157821892Y-27109304D02*
X157783797Y-27181875D01*
X157783797Y-27181875D02*
X157745701Y-27206066D01*
X157745701Y-27206066D02*
X157479035Y-27206066D01*
X157479035Y-27206066D02*
X157479035Y-27109304D01*
X157821892Y-27423780D02*
X157021892Y-27423780D01*
X157021892Y-27423780D02*
X157821892Y-27714066D01*
X157821892Y-27714066D02*
X157021892Y-27714066D01*
X157821892Y-27955970D02*
X157021892Y-27955970D01*
X157021892Y-27955970D02*
X157021892Y-28076922D01*
X157021892Y-28076922D02*
X157059987Y-28149494D01*
X157059987Y-28149494D02*
X157136177Y-28197875D01*
X157136177Y-28197875D02*
X157212368Y-28222065D01*
X157212368Y-28222065D02*
X157364749Y-28246256D01*
X157364749Y-28246256D02*
X157479035Y-28246256D01*
X157479035Y-28246256D02*
X157631416Y-28222065D01*
X157631416Y-28222065D02*
X157707606Y-28197875D01*
X157707606Y-28197875D02*
X157783797Y-28149494D01*
X157783797Y-28149494D02*
X157821892Y-28076922D01*
X157821892Y-28076922D02*
X157821892Y-27955970D01*
X157593320Y-28439779D02*
X157593320Y-28681684D01*
X157821892Y-28391398D02*
X157021892Y-28560732D01*
X157021892Y-28560732D02*
X157821892Y-28730065D01*
X152505701Y-27302828D02*
X152543797Y-27278637D01*
X152543797Y-27278637D02*
X152581892Y-27206066D01*
X152581892Y-27206066D02*
X152581892Y-27157685D01*
X152581892Y-27157685D02*
X152543797Y-27085113D01*
X152543797Y-27085113D02*
X152467606Y-27036732D01*
X152467606Y-27036732D02*
X152391416Y-27012542D01*
X152391416Y-27012542D02*
X152239035Y-26988351D01*
X152239035Y-26988351D02*
X152124749Y-26988351D01*
X152124749Y-26988351D02*
X151972368Y-27012542D01*
X151972368Y-27012542D02*
X151896177Y-27036732D01*
X151896177Y-27036732D02*
X151819987Y-27085113D01*
X151819987Y-27085113D02*
X151781892Y-27157685D01*
X151781892Y-27157685D02*
X151781892Y-27206066D01*
X151781892Y-27206066D02*
X151819987Y-27278637D01*
X151819987Y-27278637D02*
X151858082Y-27302828D01*
X152353320Y-27496351D02*
X152353320Y-27738256D01*
X152581892Y-27447970D02*
X151781892Y-27617304D01*
X151781892Y-27617304D02*
X152581892Y-27786637D01*
X152581892Y-27955971D02*
X151781892Y-27955971D01*
X151781892Y-27955971D02*
X152581892Y-28246257D01*
X152581892Y-28246257D02*
X151781892Y-28246257D01*
X152581892Y-28730066D02*
X152581892Y-28488161D01*
X152581892Y-28488161D02*
X151781892Y-28488161D01*
X130571892Y-38853494D02*
X129771892Y-38853494D01*
X129809987Y-39361494D02*
X129771892Y-39313113D01*
X129771892Y-39313113D02*
X129771892Y-39240542D01*
X129771892Y-39240542D02*
X129809987Y-39167970D01*
X129809987Y-39167970D02*
X129886177Y-39119589D01*
X129886177Y-39119589D02*
X129962368Y-39095399D01*
X129962368Y-39095399D02*
X130114749Y-39071208D01*
X130114749Y-39071208D02*
X130229035Y-39071208D01*
X130229035Y-39071208D02*
X130381416Y-39095399D01*
X130381416Y-39095399D02*
X130457606Y-39119589D01*
X130457606Y-39119589D02*
X130533797Y-39167970D01*
X130533797Y-39167970D02*
X130571892Y-39240542D01*
X130571892Y-39240542D02*
X130571892Y-39288923D01*
X130571892Y-39288923D02*
X130533797Y-39361494D01*
X130533797Y-39361494D02*
X130495701Y-39385685D01*
X130495701Y-39385685D02*
X130229035Y-39385685D01*
X130229035Y-39385685D02*
X130229035Y-39288923D01*
X130571892Y-39603399D02*
X129771892Y-39603399D01*
X129771892Y-39603399D02*
X130571892Y-39893685D01*
X130571892Y-39893685D02*
X129771892Y-39893685D01*
X129771892Y-40377494D02*
X129771892Y-40135589D01*
X129771892Y-40135589D02*
X130152844Y-40111398D01*
X130152844Y-40111398D02*
X130114749Y-40135589D01*
X130114749Y-40135589D02*
X130076654Y-40183970D01*
X130076654Y-40183970D02*
X130076654Y-40304922D01*
X130076654Y-40304922D02*
X130114749Y-40353303D01*
X130114749Y-40353303D02*
X130152844Y-40377494D01*
X130152844Y-40377494D02*
X130229035Y-40401684D01*
X130229035Y-40401684D02*
X130419511Y-40401684D01*
X130419511Y-40401684D02*
X130495701Y-40377494D01*
X130495701Y-40377494D02*
X130533797Y-40353303D01*
X130533797Y-40353303D02*
X130571892Y-40304922D01*
X130571892Y-40304922D02*
X130571892Y-40183970D01*
X130571892Y-40183970D02*
X130533797Y-40135589D01*
X130533797Y-40135589D02*
X130495701Y-40111398D01*
X145361892Y-38685017D02*
X144561892Y-38685017D01*
X145133320Y-38902731D02*
X145133320Y-39144636D01*
X145361892Y-38854350D02*
X144561892Y-39023684D01*
X144561892Y-39023684D02*
X145361892Y-39193017D01*
X144561892Y-39289779D02*
X144561892Y-39580065D01*
X145361892Y-39434922D02*
X144561892Y-39434922D01*
X140411892Y-38766065D02*
X139611892Y-38766065D01*
X140411892Y-39007970D02*
X139611892Y-39007970D01*
X139611892Y-39007970D02*
X140411892Y-39298256D01*
X140411892Y-39298256D02*
X139611892Y-39298256D01*
X140030939Y-39636922D02*
X140411892Y-39636922D01*
X139611892Y-39467588D02*
X140030939Y-39636922D01*
X140030939Y-39636922D02*
X139611892Y-39806255D01*
X139611892Y-40193303D02*
X139611892Y-40096541D01*
X139611892Y-40096541D02*
X139649987Y-40048160D01*
X139649987Y-40048160D02*
X139688082Y-40023970D01*
X139688082Y-40023970D02*
X139802368Y-39975589D01*
X139802368Y-39975589D02*
X139954749Y-39951398D01*
X139954749Y-39951398D02*
X140259511Y-39951398D01*
X140259511Y-39951398D02*
X140335701Y-39975589D01*
X140335701Y-39975589D02*
X140373797Y-39999779D01*
X140373797Y-39999779D02*
X140411892Y-40048160D01*
X140411892Y-40048160D02*
X140411892Y-40144922D01*
X140411892Y-40144922D02*
X140373797Y-40193303D01*
X140373797Y-40193303D02*
X140335701Y-40217494D01*
X140335701Y-40217494D02*
X140259511Y-40241684D01*
X140259511Y-40241684D02*
X140069035Y-40241684D01*
X140069035Y-40241684D02*
X139992844Y-40217494D01*
X139992844Y-40217494D02*
X139954749Y-40193303D01*
X139954749Y-40193303D02*
X139916654Y-40144922D01*
X139916654Y-40144922D02*
X139916654Y-40048160D01*
X139916654Y-40048160D02*
X139954749Y-39999779D01*
X139954749Y-39999779D02*
X139992844Y-39975589D01*
X139992844Y-39975589D02*
X140069035Y-39951398D01*
X140471892Y-24256065D02*
X139671892Y-24256065D01*
X140471892Y-24497970D02*
X139671892Y-24497970D01*
X139671892Y-24497970D02*
X140471892Y-24788256D01*
X140471892Y-24788256D02*
X139671892Y-24788256D01*
X140090939Y-25126922D02*
X140471892Y-25126922D01*
X139671892Y-24957588D02*
X140090939Y-25126922D01*
X140090939Y-25126922D02*
X139671892Y-25296255D01*
X139748082Y-25441398D02*
X139709987Y-25465589D01*
X139709987Y-25465589D02*
X139671892Y-25513970D01*
X139671892Y-25513970D02*
X139671892Y-25634922D01*
X139671892Y-25634922D02*
X139709987Y-25683303D01*
X139709987Y-25683303D02*
X139748082Y-25707494D01*
X139748082Y-25707494D02*
X139824273Y-25731684D01*
X139824273Y-25731684D02*
X139900463Y-25731684D01*
X139900463Y-25731684D02*
X140014749Y-25707494D01*
X140014749Y-25707494D02*
X140471892Y-25417208D01*
X140471892Y-25417208D02*
X140471892Y-25731684D01*
X145125701Y-41403399D02*
X145163797Y-41379208D01*
X145163797Y-41379208D02*
X145201892Y-41306637D01*
X145201892Y-41306637D02*
X145201892Y-41258256D01*
X145201892Y-41258256D02*
X145163797Y-41185684D01*
X145163797Y-41185684D02*
X145087606Y-41137303D01*
X145087606Y-41137303D02*
X145011416Y-41113113D01*
X145011416Y-41113113D02*
X144859035Y-41088922D01*
X144859035Y-41088922D02*
X144744749Y-41088922D01*
X144744749Y-41088922D02*
X144592368Y-41113113D01*
X144592368Y-41113113D02*
X144516177Y-41137303D01*
X144516177Y-41137303D02*
X144439987Y-41185684D01*
X144439987Y-41185684D02*
X144401892Y-41258256D01*
X144401892Y-41258256D02*
X144401892Y-41306637D01*
X144401892Y-41306637D02*
X144439987Y-41379208D01*
X144439987Y-41379208D02*
X144478082Y-41403399D01*
X145201892Y-41863018D02*
X145201892Y-41621113D01*
X145201892Y-41621113D02*
X144401892Y-41621113D01*
X144401892Y-41959779D02*
X144401892Y-42250065D01*
X145201892Y-42104922D02*
X144401892Y-42104922D01*
X147741892Y-24372923D02*
X147741892Y-24131018D01*
X147741892Y-24131018D02*
X146941892Y-24131018D01*
X147703797Y-24518065D02*
X147741892Y-24590637D01*
X147741892Y-24590637D02*
X147741892Y-24711589D01*
X147741892Y-24711589D02*
X147703797Y-24759970D01*
X147703797Y-24759970D02*
X147665701Y-24784161D01*
X147665701Y-24784161D02*
X147589511Y-24808351D01*
X147589511Y-24808351D02*
X147513320Y-24808351D01*
X147513320Y-24808351D02*
X147437130Y-24784161D01*
X147437130Y-24784161D02*
X147399035Y-24759970D01*
X147399035Y-24759970D02*
X147360939Y-24711589D01*
X147360939Y-24711589D02*
X147322844Y-24614827D01*
X147322844Y-24614827D02*
X147284749Y-24566446D01*
X147284749Y-24566446D02*
X147246654Y-24542256D01*
X147246654Y-24542256D02*
X147170463Y-24518065D01*
X147170463Y-24518065D02*
X147094273Y-24518065D01*
X147094273Y-24518065D02*
X147018082Y-24542256D01*
X147018082Y-24542256D02*
X146979987Y-24566446D01*
X146979987Y-24566446D02*
X146941892Y-24614827D01*
X146941892Y-24614827D02*
X146941892Y-24735780D01*
X146941892Y-24735780D02*
X146979987Y-24808351D01*
X146941892Y-25026066D02*
X147589511Y-25026066D01*
X147589511Y-25026066D02*
X147665701Y-25050256D01*
X147665701Y-25050256D02*
X147703797Y-25074447D01*
X147703797Y-25074447D02*
X147741892Y-25122828D01*
X147741892Y-25122828D02*
X147741892Y-25219590D01*
X147741892Y-25219590D02*
X147703797Y-25267971D01*
X147703797Y-25267971D02*
X147665701Y-25292161D01*
X147665701Y-25292161D02*
X147589511Y-25316352D01*
X147589511Y-25316352D02*
X146941892Y-25316352D01*
X147818082Y-25437304D02*
X147818082Y-25824351D01*
X146941892Y-25945304D02*
X147589511Y-25945304D01*
X147589511Y-25945304D02*
X147665701Y-25969494D01*
X147665701Y-25969494D02*
X147703797Y-25993685D01*
X147703797Y-25993685D02*
X147741892Y-26042066D01*
X147741892Y-26042066D02*
X147741892Y-26138828D01*
X147741892Y-26138828D02*
X147703797Y-26187209D01*
X147703797Y-26187209D02*
X147665701Y-26211399D01*
X147665701Y-26211399D02*
X147589511Y-26235590D01*
X147589511Y-26235590D02*
X146941892Y-26235590D01*
X147741892Y-26477494D02*
X146941892Y-26477494D01*
X147635701Y-27234733D02*
X147673797Y-27210542D01*
X147673797Y-27210542D02*
X147711892Y-27137971D01*
X147711892Y-27137971D02*
X147711892Y-27089590D01*
X147711892Y-27089590D02*
X147673797Y-27017018D01*
X147673797Y-27017018D02*
X147597606Y-26968637D01*
X147597606Y-26968637D02*
X147521416Y-26944447D01*
X147521416Y-26944447D02*
X147369035Y-26920256D01*
X147369035Y-26920256D02*
X147254749Y-26920256D01*
X147254749Y-26920256D02*
X147102368Y-26944447D01*
X147102368Y-26944447D02*
X147026177Y-26968637D01*
X147026177Y-26968637D02*
X146949987Y-27017018D01*
X146949987Y-27017018D02*
X146911892Y-27089590D01*
X146911892Y-27089590D02*
X146911892Y-27137971D01*
X146911892Y-27137971D02*
X146949987Y-27210542D01*
X146949987Y-27210542D02*
X146988082Y-27234733D01*
X147711892Y-27452447D02*
X146911892Y-27452447D01*
X147711892Y-27742733D02*
X147254749Y-27525018D01*
X146911892Y-27742733D02*
X147369035Y-27452447D01*
X147407130Y-27960447D02*
X147407130Y-28347495D01*
X147711892Y-28153971D02*
X147102368Y-28153971D01*
X142625701Y-41385685D02*
X142663797Y-41361494D01*
X142663797Y-41361494D02*
X142701892Y-41288923D01*
X142701892Y-41288923D02*
X142701892Y-41240542D01*
X142701892Y-41240542D02*
X142663797Y-41167970D01*
X142663797Y-41167970D02*
X142587606Y-41119589D01*
X142587606Y-41119589D02*
X142511416Y-41095399D01*
X142511416Y-41095399D02*
X142359035Y-41071208D01*
X142359035Y-41071208D02*
X142244749Y-41071208D01*
X142244749Y-41071208D02*
X142092368Y-41095399D01*
X142092368Y-41095399D02*
X142016177Y-41119589D01*
X142016177Y-41119589D02*
X141939987Y-41167970D01*
X141939987Y-41167970D02*
X141901892Y-41240542D01*
X141901892Y-41240542D02*
X141901892Y-41288923D01*
X141901892Y-41288923D02*
X141939987Y-41361494D01*
X141939987Y-41361494D02*
X141978082Y-41385685D01*
X142473320Y-41579208D02*
X142473320Y-41821113D01*
X142701892Y-41530827D02*
X141901892Y-41700161D01*
X141901892Y-41700161D02*
X142701892Y-41869494D01*
X142701892Y-42038828D02*
X141901892Y-42038828D01*
X141901892Y-42038828D02*
X142473320Y-42208161D01*
X142473320Y-42208161D02*
X141901892Y-42377495D01*
X141901892Y-42377495D02*
X142701892Y-42377495D01*
X149975701Y-24484733D02*
X150013797Y-24460542D01*
X150013797Y-24460542D02*
X150051892Y-24387971D01*
X150051892Y-24387971D02*
X150051892Y-24339590D01*
X150051892Y-24339590D02*
X150013797Y-24267018D01*
X150013797Y-24267018D02*
X149937606Y-24218637D01*
X149937606Y-24218637D02*
X149861416Y-24194447D01*
X149861416Y-24194447D02*
X149709035Y-24170256D01*
X149709035Y-24170256D02*
X149594749Y-24170256D01*
X149594749Y-24170256D02*
X149442368Y-24194447D01*
X149442368Y-24194447D02*
X149366177Y-24218637D01*
X149366177Y-24218637D02*
X149289987Y-24267018D01*
X149289987Y-24267018D02*
X149251892Y-24339590D01*
X149251892Y-24339590D02*
X149251892Y-24387971D01*
X149251892Y-24387971D02*
X149289987Y-24460542D01*
X149289987Y-24460542D02*
X149328082Y-24484733D01*
X150051892Y-24702447D02*
X149251892Y-24702447D01*
X150051892Y-24992733D02*
X149594749Y-24775018D01*
X149251892Y-24992733D02*
X149709035Y-24702447D01*
X149747130Y-25210447D02*
X149747130Y-25597495D01*
X133461892Y-27053494D02*
X132661892Y-27053494D01*
X132699987Y-27561494D02*
X132661892Y-27513113D01*
X132661892Y-27513113D02*
X132661892Y-27440542D01*
X132661892Y-27440542D02*
X132699987Y-27367970D01*
X132699987Y-27367970D02*
X132776177Y-27319589D01*
X132776177Y-27319589D02*
X132852368Y-27295399D01*
X132852368Y-27295399D02*
X133004749Y-27271208D01*
X133004749Y-27271208D02*
X133119035Y-27271208D01*
X133119035Y-27271208D02*
X133271416Y-27295399D01*
X133271416Y-27295399D02*
X133347606Y-27319589D01*
X133347606Y-27319589D02*
X133423797Y-27367970D01*
X133423797Y-27367970D02*
X133461892Y-27440542D01*
X133461892Y-27440542D02*
X133461892Y-27488923D01*
X133461892Y-27488923D02*
X133423797Y-27561494D01*
X133423797Y-27561494D02*
X133385701Y-27585685D01*
X133385701Y-27585685D02*
X133119035Y-27585685D01*
X133119035Y-27585685D02*
X133119035Y-27488923D01*
X133461892Y-27803399D02*
X132661892Y-27803399D01*
X132661892Y-27803399D02*
X133461892Y-28093685D01*
X133461892Y-28093685D02*
X132661892Y-28093685D01*
X132928558Y-28553303D02*
X133461892Y-28553303D01*
X132623797Y-28432351D02*
X133195225Y-28311398D01*
X133195225Y-28311398D02*
X133195225Y-28625875D01*
X134481892Y-24363494D02*
X133681892Y-24363494D01*
X133719987Y-24871494D02*
X133681892Y-24823113D01*
X133681892Y-24823113D02*
X133681892Y-24750542D01*
X133681892Y-24750542D02*
X133719987Y-24677970D01*
X133719987Y-24677970D02*
X133796177Y-24629589D01*
X133796177Y-24629589D02*
X133872368Y-24605399D01*
X133872368Y-24605399D02*
X134024749Y-24581208D01*
X134024749Y-24581208D02*
X134139035Y-24581208D01*
X134139035Y-24581208D02*
X134291416Y-24605399D01*
X134291416Y-24605399D02*
X134367606Y-24629589D01*
X134367606Y-24629589D02*
X134443797Y-24677970D01*
X134443797Y-24677970D02*
X134481892Y-24750542D01*
X134481892Y-24750542D02*
X134481892Y-24798923D01*
X134481892Y-24798923D02*
X134443797Y-24871494D01*
X134443797Y-24871494D02*
X134405701Y-24895685D01*
X134405701Y-24895685D02*
X134139035Y-24895685D01*
X134139035Y-24895685D02*
X134139035Y-24798923D01*
X134481892Y-25113399D02*
X133681892Y-25113399D01*
X133681892Y-25113399D02*
X134481892Y-25403685D01*
X134481892Y-25403685D02*
X133681892Y-25403685D01*
X133758082Y-25621398D02*
X133719987Y-25645589D01*
X133719987Y-25645589D02*
X133681892Y-25693970D01*
X133681892Y-25693970D02*
X133681892Y-25814922D01*
X133681892Y-25814922D02*
X133719987Y-25863303D01*
X133719987Y-25863303D02*
X133758082Y-25887494D01*
X133758082Y-25887494D02*
X133834273Y-25911684D01*
X133834273Y-25911684D02*
X133910463Y-25911684D01*
X133910463Y-25911684D02*
X134024749Y-25887494D01*
X134024749Y-25887494D02*
X134481892Y-25597208D01*
X134481892Y-25597208D02*
X134481892Y-25911684D01*
X146891892Y-41232828D02*
X146891892Y-41329590D01*
X146891892Y-41329590D02*
X146929987Y-41377971D01*
X146929987Y-41377971D02*
X147006177Y-41426352D01*
X147006177Y-41426352D02*
X147158558Y-41450542D01*
X147158558Y-41450542D02*
X147425225Y-41450542D01*
X147425225Y-41450542D02*
X147577606Y-41426352D01*
X147577606Y-41426352D02*
X147653797Y-41377971D01*
X147653797Y-41377971D02*
X147691892Y-41329590D01*
X147691892Y-41329590D02*
X147691892Y-41232828D01*
X147691892Y-41232828D02*
X147653797Y-41184447D01*
X147653797Y-41184447D02*
X147577606Y-41136066D01*
X147577606Y-41136066D02*
X147425225Y-41111875D01*
X147425225Y-41111875D02*
X147158558Y-41111875D01*
X147158558Y-41111875D02*
X147006177Y-41136066D01*
X147006177Y-41136066D02*
X146929987Y-41184447D01*
X146929987Y-41184447D02*
X146891892Y-41232828D01*
X147691892Y-41668256D02*
X146891892Y-41668256D01*
X147691892Y-42152066D02*
X147691892Y-41910161D01*
X147691892Y-41910161D02*
X146891892Y-41910161D01*
X147691892Y-42321399D02*
X146891892Y-42321399D01*
X146891892Y-42321399D02*
X146891892Y-42514923D01*
X146891892Y-42514923D02*
X146929987Y-42563304D01*
X146929987Y-42563304D02*
X146968082Y-42587494D01*
X146968082Y-42587494D02*
X147044273Y-42611685D01*
X147044273Y-42611685D02*
X147158558Y-42611685D01*
X147158558Y-42611685D02*
X147234749Y-42587494D01*
X147234749Y-42587494D02*
X147272844Y-42563304D01*
X147272844Y-42563304D02*
X147310939Y-42514923D01*
X147310939Y-42514923D02*
X147310939Y-42321399D01*
X159992844Y-41225303D02*
X159992844Y-41055970D01*
X160411892Y-41055970D02*
X159611892Y-41055970D01*
X159611892Y-41055970D02*
X159611892Y-41297875D01*
X160411892Y-41491399D02*
X159611892Y-41491399D01*
X159611892Y-41491399D02*
X159611892Y-41684923D01*
X159611892Y-41684923D02*
X159649987Y-41733304D01*
X159649987Y-41733304D02*
X159688082Y-41757494D01*
X159688082Y-41757494D02*
X159764273Y-41781685D01*
X159764273Y-41781685D02*
X159878558Y-41781685D01*
X159878558Y-41781685D02*
X159954749Y-41757494D01*
X159954749Y-41757494D02*
X159992844Y-41733304D01*
X159992844Y-41733304D02*
X160030939Y-41684923D01*
X160030939Y-41684923D02*
X160030939Y-41491399D01*
X149491892Y-38992065D02*
X149491892Y-38750160D01*
X149491892Y-38750160D02*
X149872844Y-38725969D01*
X149872844Y-38725969D02*
X149834749Y-38750160D01*
X149834749Y-38750160D02*
X149796654Y-38798541D01*
X149796654Y-38798541D02*
X149796654Y-38919493D01*
X149796654Y-38919493D02*
X149834749Y-38967874D01*
X149834749Y-38967874D02*
X149872844Y-38992065D01*
X149872844Y-38992065D02*
X149949035Y-39016255D01*
X149949035Y-39016255D02*
X150139511Y-39016255D01*
X150139511Y-39016255D02*
X150215701Y-38992065D01*
X150215701Y-38992065D02*
X150253797Y-38967874D01*
X150253797Y-38967874D02*
X150291892Y-38919493D01*
X150291892Y-38919493D02*
X150291892Y-38798541D01*
X150291892Y-38798541D02*
X150253797Y-38750160D01*
X150253797Y-38750160D02*
X150215701Y-38725969D01*
X149491892Y-39161398D02*
X150291892Y-39330732D01*
X150291892Y-39330732D02*
X149491892Y-39500065D01*
X140891892Y-26906065D02*
X140091892Y-26906065D01*
X140891892Y-27147970D02*
X140091892Y-27147970D01*
X140091892Y-27147970D02*
X140891892Y-27438256D01*
X140891892Y-27438256D02*
X140091892Y-27438256D01*
X140510939Y-27776922D02*
X140891892Y-27776922D01*
X140091892Y-27607588D02*
X140510939Y-27776922D01*
X140510939Y-27776922D02*
X140091892Y-27946255D01*
X140358558Y-28333303D02*
X140891892Y-28333303D01*
X140053797Y-28212351D02*
X140625225Y-28091398D01*
X140625225Y-28091398D02*
X140625225Y-28405875D01*
X154279987Y-24471875D02*
X154241892Y-24423494D01*
X154241892Y-24423494D02*
X154241892Y-24350923D01*
X154241892Y-24350923D02*
X154279987Y-24278351D01*
X154279987Y-24278351D02*
X154356177Y-24229970D01*
X154356177Y-24229970D02*
X154432368Y-24205780D01*
X154432368Y-24205780D02*
X154584749Y-24181589D01*
X154584749Y-24181589D02*
X154699035Y-24181589D01*
X154699035Y-24181589D02*
X154851416Y-24205780D01*
X154851416Y-24205780D02*
X154927606Y-24229970D01*
X154927606Y-24229970D02*
X155003797Y-24278351D01*
X155003797Y-24278351D02*
X155041892Y-24350923D01*
X155041892Y-24350923D02*
X155041892Y-24399304D01*
X155041892Y-24399304D02*
X155003797Y-24471875D01*
X155003797Y-24471875D02*
X154965701Y-24496066D01*
X154965701Y-24496066D02*
X154699035Y-24496066D01*
X154699035Y-24496066D02*
X154699035Y-24399304D01*
X155041892Y-24713780D02*
X154241892Y-24713780D01*
X154241892Y-24713780D02*
X155041892Y-25004066D01*
X155041892Y-25004066D02*
X154241892Y-25004066D01*
X155041892Y-25245970D02*
X154241892Y-25245970D01*
X154241892Y-25245970D02*
X154241892Y-25366922D01*
X154241892Y-25366922D02*
X154279987Y-25439494D01*
X154279987Y-25439494D02*
X154356177Y-25487875D01*
X154356177Y-25487875D02*
X154432368Y-25512065D01*
X154432368Y-25512065D02*
X154584749Y-25536256D01*
X154584749Y-25536256D02*
X154699035Y-25536256D01*
X154699035Y-25536256D02*
X154851416Y-25512065D01*
X154851416Y-25512065D02*
X154927606Y-25487875D01*
X154927606Y-25487875D02*
X155003797Y-25439494D01*
X155003797Y-25439494D02*
X155041892Y-25366922D01*
X155041892Y-25366922D02*
X155041892Y-25245970D01*
X154813320Y-25729779D02*
X154813320Y-25971684D01*
X155041892Y-25681398D02*
X154241892Y-25850732D01*
X154241892Y-25850732D02*
X155041892Y-26020065D01*
X157442844Y-38665780D02*
X157442844Y-38835113D01*
X157861892Y-38907685D02*
X157861892Y-38665780D01*
X157861892Y-38665780D02*
X157061892Y-38665780D01*
X157061892Y-38665780D02*
X157061892Y-38907685D01*
X157099987Y-39391494D02*
X157061892Y-39343113D01*
X157061892Y-39343113D02*
X157061892Y-39270542D01*
X157061892Y-39270542D02*
X157099987Y-39197970D01*
X157099987Y-39197970D02*
X157176177Y-39149589D01*
X157176177Y-39149589D02*
X157252368Y-39125399D01*
X157252368Y-39125399D02*
X157404749Y-39101208D01*
X157404749Y-39101208D02*
X157519035Y-39101208D01*
X157519035Y-39101208D02*
X157671416Y-39125399D01*
X157671416Y-39125399D02*
X157747606Y-39149589D01*
X157747606Y-39149589D02*
X157823797Y-39197970D01*
X157823797Y-39197970D02*
X157861892Y-39270542D01*
X157861892Y-39270542D02*
X157861892Y-39318923D01*
X157861892Y-39318923D02*
X157823797Y-39391494D01*
X157823797Y-39391494D02*
X157785701Y-39415685D01*
X157785701Y-39415685D02*
X157519035Y-39415685D01*
X157519035Y-39415685D02*
X157519035Y-39318923D01*
X157061892Y-39560827D02*
X157061892Y-39851113D01*
X157861892Y-39705970D02*
X157061892Y-39705970D01*
X157557130Y-40020447D02*
X157557130Y-40407495D01*
X129749987Y-41387304D02*
X129711892Y-41338923D01*
X129711892Y-41338923D02*
X129711892Y-41266352D01*
X129711892Y-41266352D02*
X129749987Y-41193780D01*
X129749987Y-41193780D02*
X129826177Y-41145399D01*
X129826177Y-41145399D02*
X129902368Y-41121209D01*
X129902368Y-41121209D02*
X130054749Y-41097018D01*
X130054749Y-41097018D02*
X130169035Y-41097018D01*
X130169035Y-41097018D02*
X130321416Y-41121209D01*
X130321416Y-41121209D02*
X130397606Y-41145399D01*
X130397606Y-41145399D02*
X130473797Y-41193780D01*
X130473797Y-41193780D02*
X130511892Y-41266352D01*
X130511892Y-41266352D02*
X130511892Y-41314733D01*
X130511892Y-41314733D02*
X130473797Y-41387304D01*
X130473797Y-41387304D02*
X130435701Y-41411495D01*
X130435701Y-41411495D02*
X130169035Y-41411495D01*
X130169035Y-41411495D02*
X130169035Y-41314733D01*
X130511892Y-41629209D02*
X129711892Y-41629209D01*
X129711892Y-41629209D02*
X130511892Y-41919495D01*
X130511892Y-41919495D02*
X129711892Y-41919495D01*
X130511892Y-42161399D02*
X129711892Y-42161399D01*
X129711892Y-42161399D02*
X129711892Y-42282351D01*
X129711892Y-42282351D02*
X129749987Y-42354923D01*
X129749987Y-42354923D02*
X129826177Y-42403304D01*
X129826177Y-42403304D02*
X129902368Y-42427494D01*
X129902368Y-42427494D02*
X130054749Y-42451685D01*
X130054749Y-42451685D02*
X130169035Y-42451685D01*
X130169035Y-42451685D02*
X130321416Y-42427494D01*
X130321416Y-42427494D02*
X130397606Y-42403304D01*
X130397606Y-42403304D02*
X130473797Y-42354923D01*
X130473797Y-42354923D02*
X130511892Y-42282351D01*
X130511892Y-42282351D02*
X130511892Y-42161399D01*
X138521892Y-26846065D02*
X137721892Y-26846065D01*
X138521892Y-27087970D02*
X137721892Y-27087970D01*
X137721892Y-27087970D02*
X138521892Y-27378256D01*
X138521892Y-27378256D02*
X137721892Y-27378256D01*
X138140939Y-27716922D02*
X138521892Y-27716922D01*
X137721892Y-27547588D02*
X138140939Y-27716922D01*
X138140939Y-27716922D02*
X137721892Y-27886255D01*
X137721892Y-28007208D02*
X137721892Y-28321684D01*
X137721892Y-28321684D02*
X138026654Y-28152351D01*
X138026654Y-28152351D02*
X138026654Y-28224922D01*
X138026654Y-28224922D02*
X138064749Y-28273303D01*
X138064749Y-28273303D02*
X138102844Y-28297494D01*
X138102844Y-28297494D02*
X138179035Y-28321684D01*
X138179035Y-28321684D02*
X138369511Y-28321684D01*
X138369511Y-28321684D02*
X138445701Y-28297494D01*
X138445701Y-28297494D02*
X138483797Y-28273303D01*
X138483797Y-28273303D02*
X138521892Y-28224922D01*
X138521892Y-28224922D02*
X138521892Y-28079779D01*
X138521892Y-28079779D02*
X138483797Y-28031398D01*
X138483797Y-28031398D02*
X138445701Y-28007208D01*
X134371892Y-38763494D02*
X133571892Y-38763494D01*
X133609987Y-39271494D02*
X133571892Y-39223113D01*
X133571892Y-39223113D02*
X133571892Y-39150542D01*
X133571892Y-39150542D02*
X133609987Y-39077970D01*
X133609987Y-39077970D02*
X133686177Y-39029589D01*
X133686177Y-39029589D02*
X133762368Y-39005399D01*
X133762368Y-39005399D02*
X133914749Y-38981208D01*
X133914749Y-38981208D02*
X134029035Y-38981208D01*
X134029035Y-38981208D02*
X134181416Y-39005399D01*
X134181416Y-39005399D02*
X134257606Y-39029589D01*
X134257606Y-39029589D02*
X134333797Y-39077970D01*
X134333797Y-39077970D02*
X134371892Y-39150542D01*
X134371892Y-39150542D02*
X134371892Y-39198923D01*
X134371892Y-39198923D02*
X134333797Y-39271494D01*
X134333797Y-39271494D02*
X134295701Y-39295685D01*
X134295701Y-39295685D02*
X134029035Y-39295685D01*
X134029035Y-39295685D02*
X134029035Y-39198923D01*
X134371892Y-39513399D02*
X133571892Y-39513399D01*
X133571892Y-39513399D02*
X134371892Y-39803685D01*
X134371892Y-39803685D02*
X133571892Y-39803685D01*
X133571892Y-40263303D02*
X133571892Y-40166541D01*
X133571892Y-40166541D02*
X133609987Y-40118160D01*
X133609987Y-40118160D02*
X133648082Y-40093970D01*
X133648082Y-40093970D02*
X133762368Y-40045589D01*
X133762368Y-40045589D02*
X133914749Y-40021398D01*
X133914749Y-40021398D02*
X134219511Y-40021398D01*
X134219511Y-40021398D02*
X134295701Y-40045589D01*
X134295701Y-40045589D02*
X134333797Y-40069779D01*
X134333797Y-40069779D02*
X134371892Y-40118160D01*
X134371892Y-40118160D02*
X134371892Y-40214922D01*
X134371892Y-40214922D02*
X134333797Y-40263303D01*
X134333797Y-40263303D02*
X134295701Y-40287494D01*
X134295701Y-40287494D02*
X134219511Y-40311684D01*
X134219511Y-40311684D02*
X134029035Y-40311684D01*
X134029035Y-40311684D02*
X133952844Y-40287494D01*
X133952844Y-40287494D02*
X133914749Y-40263303D01*
X133914749Y-40263303D02*
X133876654Y-40214922D01*
X133876654Y-40214922D02*
X133876654Y-40118160D01*
X133876654Y-40118160D02*
X133914749Y-40069779D01*
X133914749Y-40069779D02*
X133952844Y-40045589D01*
X133952844Y-40045589D02*
X134029035Y-40021398D01*
X137821892Y-38816065D02*
X137021892Y-38816065D01*
X137821892Y-39057970D02*
X137021892Y-39057970D01*
X137021892Y-39057970D02*
X137821892Y-39348256D01*
X137821892Y-39348256D02*
X137021892Y-39348256D01*
X137440939Y-39686922D02*
X137821892Y-39686922D01*
X137021892Y-39517588D02*
X137440939Y-39686922D01*
X137440939Y-39686922D02*
X137021892Y-39856255D01*
X137021892Y-40267494D02*
X137021892Y-40025589D01*
X137021892Y-40025589D02*
X137402844Y-40001398D01*
X137402844Y-40001398D02*
X137364749Y-40025589D01*
X137364749Y-40025589D02*
X137326654Y-40073970D01*
X137326654Y-40073970D02*
X137326654Y-40194922D01*
X137326654Y-40194922D02*
X137364749Y-40243303D01*
X137364749Y-40243303D02*
X137402844Y-40267494D01*
X137402844Y-40267494D02*
X137479035Y-40291684D01*
X137479035Y-40291684D02*
X137669511Y-40291684D01*
X137669511Y-40291684D02*
X137745701Y-40267494D01*
X137745701Y-40267494D02*
X137783797Y-40243303D01*
X137783797Y-40243303D02*
X137821892Y-40194922D01*
X137821892Y-40194922D02*
X137821892Y-40073970D01*
X137821892Y-40073970D02*
X137783797Y-40025589D01*
X137783797Y-40025589D02*
X137745701Y-40001398D01*
X152551892Y-24261209D02*
X151751892Y-24261209D01*
X152551892Y-24551495D02*
X152094749Y-24333780D01*
X151751892Y-24551495D02*
X152209035Y-24261209D01*
X152551892Y-24769209D02*
X151751892Y-24769209D01*
X151751892Y-24769209D02*
X152551892Y-25059495D01*
X152551892Y-25059495D02*
X151751892Y-25059495D01*
X152551892Y-25301399D02*
X151751892Y-25301399D01*
X152551892Y-25591685D02*
X152094749Y-25373970D01*
X151751892Y-25591685D02*
X152209035Y-25301399D01*
X142841892Y-24454828D02*
X142841892Y-24212923D01*
X142841892Y-24212923D02*
X142041892Y-24212923D01*
X142803797Y-24599970D02*
X142841892Y-24672542D01*
X142841892Y-24672542D02*
X142841892Y-24793494D01*
X142841892Y-24793494D02*
X142803797Y-24841875D01*
X142803797Y-24841875D02*
X142765701Y-24866066D01*
X142765701Y-24866066D02*
X142689511Y-24890256D01*
X142689511Y-24890256D02*
X142613320Y-24890256D01*
X142613320Y-24890256D02*
X142537130Y-24866066D01*
X142537130Y-24866066D02*
X142499035Y-24841875D01*
X142499035Y-24841875D02*
X142460939Y-24793494D01*
X142460939Y-24793494D02*
X142422844Y-24696732D01*
X142422844Y-24696732D02*
X142384749Y-24648351D01*
X142384749Y-24648351D02*
X142346654Y-24624161D01*
X142346654Y-24624161D02*
X142270463Y-24599970D01*
X142270463Y-24599970D02*
X142194273Y-24599970D01*
X142194273Y-24599970D02*
X142118082Y-24624161D01*
X142118082Y-24624161D02*
X142079987Y-24648351D01*
X142079987Y-24648351D02*
X142041892Y-24696732D01*
X142041892Y-24696732D02*
X142041892Y-24817685D01*
X142041892Y-24817685D02*
X142079987Y-24890256D01*
X142041892Y-25107971D02*
X142689511Y-25107971D01*
X142689511Y-25107971D02*
X142765701Y-25132161D01*
X142765701Y-25132161D02*
X142803797Y-25156352D01*
X142803797Y-25156352D02*
X142841892Y-25204733D01*
X142841892Y-25204733D02*
X142841892Y-25301495D01*
X142841892Y-25301495D02*
X142803797Y-25349876D01*
X142803797Y-25349876D02*
X142765701Y-25374066D01*
X142765701Y-25374066D02*
X142689511Y-25398257D01*
X142689511Y-25398257D02*
X142041892Y-25398257D01*
X142918082Y-25519209D02*
X142918082Y-25906256D01*
X142041892Y-26027209D02*
X142689511Y-26027209D01*
X142689511Y-26027209D02*
X142765701Y-26051399D01*
X142765701Y-26051399D02*
X142803797Y-26075590D01*
X142803797Y-26075590D02*
X142841892Y-26123971D01*
X142841892Y-26123971D02*
X142841892Y-26220733D01*
X142841892Y-26220733D02*
X142803797Y-26269114D01*
X142803797Y-26269114D02*
X142765701Y-26293304D01*
X142765701Y-26293304D02*
X142689511Y-26317495D01*
X142689511Y-26317495D02*
X142041892Y-26317495D01*
X130671892Y-26913494D02*
X129871892Y-26913494D01*
X129909987Y-27421494D02*
X129871892Y-27373113D01*
X129871892Y-27373113D02*
X129871892Y-27300542D01*
X129871892Y-27300542D02*
X129909987Y-27227970D01*
X129909987Y-27227970D02*
X129986177Y-27179589D01*
X129986177Y-27179589D02*
X130062368Y-27155399D01*
X130062368Y-27155399D02*
X130214749Y-27131208D01*
X130214749Y-27131208D02*
X130329035Y-27131208D01*
X130329035Y-27131208D02*
X130481416Y-27155399D01*
X130481416Y-27155399D02*
X130557606Y-27179589D01*
X130557606Y-27179589D02*
X130633797Y-27227970D01*
X130633797Y-27227970D02*
X130671892Y-27300542D01*
X130671892Y-27300542D02*
X130671892Y-27348923D01*
X130671892Y-27348923D02*
X130633797Y-27421494D01*
X130633797Y-27421494D02*
X130595701Y-27445685D01*
X130595701Y-27445685D02*
X130329035Y-27445685D01*
X130329035Y-27445685D02*
X130329035Y-27348923D01*
X130671892Y-27663399D02*
X129871892Y-27663399D01*
X129871892Y-27663399D02*
X130671892Y-27953685D01*
X130671892Y-27953685D02*
X129871892Y-27953685D01*
X129871892Y-28147208D02*
X129871892Y-28461684D01*
X129871892Y-28461684D02*
X130176654Y-28292351D01*
X130176654Y-28292351D02*
X130176654Y-28364922D01*
X130176654Y-28364922D02*
X130214749Y-28413303D01*
X130214749Y-28413303D02*
X130252844Y-28437494D01*
X130252844Y-28437494D02*
X130329035Y-28461684D01*
X130329035Y-28461684D02*
X130519511Y-28461684D01*
X130519511Y-28461684D02*
X130595701Y-28437494D01*
X130595701Y-28437494D02*
X130633797Y-28413303D01*
X130633797Y-28413303D02*
X130671892Y-28364922D01*
X130671892Y-28364922D02*
X130671892Y-28219779D01*
X130671892Y-28219779D02*
X130633797Y-28171398D01*
X130633797Y-28171398D02*
X130595701Y-28147208D01*
X149451892Y-41004160D02*
X149451892Y-41294446D01*
X150251892Y-41149303D02*
X149451892Y-41149303D01*
X150023320Y-41439589D02*
X150023320Y-41681494D01*
X150251892Y-41391208D02*
X149451892Y-41560542D01*
X149451892Y-41560542D02*
X150251892Y-41729875D01*
X150175701Y-42189495D02*
X150213797Y-42165304D01*
X150213797Y-42165304D02*
X150251892Y-42092733D01*
X150251892Y-42092733D02*
X150251892Y-42044352D01*
X150251892Y-42044352D02*
X150213797Y-41971780D01*
X150213797Y-41971780D02*
X150137606Y-41923399D01*
X150137606Y-41923399D02*
X150061416Y-41899209D01*
X150061416Y-41899209D02*
X149909035Y-41875018D01*
X149909035Y-41875018D02*
X149794749Y-41875018D01*
X149794749Y-41875018D02*
X149642368Y-41899209D01*
X149642368Y-41899209D02*
X149566177Y-41923399D01*
X149566177Y-41923399D02*
X149489987Y-41971780D01*
X149489987Y-41971780D02*
X149451892Y-42044352D01*
X149451892Y-42044352D02*
X149451892Y-42092733D01*
X149451892Y-42092733D02*
X149489987Y-42165304D01*
X149489987Y-42165304D02*
X149528082Y-42189495D01*
X150251892Y-42407209D02*
X149451892Y-42407209D01*
X149832844Y-42407209D02*
X149832844Y-42697495D01*
X150251892Y-42697495D02*
X149451892Y-42697495D01*
X145371892Y-27204828D02*
X145371892Y-26962923D01*
X145371892Y-26962923D02*
X144571892Y-26962923D01*
X145333797Y-27349970D02*
X145371892Y-27422542D01*
X145371892Y-27422542D02*
X145371892Y-27543494D01*
X145371892Y-27543494D02*
X145333797Y-27591875D01*
X145333797Y-27591875D02*
X145295701Y-27616066D01*
X145295701Y-27616066D02*
X145219511Y-27640256D01*
X145219511Y-27640256D02*
X145143320Y-27640256D01*
X145143320Y-27640256D02*
X145067130Y-27616066D01*
X145067130Y-27616066D02*
X145029035Y-27591875D01*
X145029035Y-27591875D02*
X144990939Y-27543494D01*
X144990939Y-27543494D02*
X144952844Y-27446732D01*
X144952844Y-27446732D02*
X144914749Y-27398351D01*
X144914749Y-27398351D02*
X144876654Y-27374161D01*
X144876654Y-27374161D02*
X144800463Y-27349970D01*
X144800463Y-27349970D02*
X144724273Y-27349970D01*
X144724273Y-27349970D02*
X144648082Y-27374161D01*
X144648082Y-27374161D02*
X144609987Y-27398351D01*
X144609987Y-27398351D02*
X144571892Y-27446732D01*
X144571892Y-27446732D02*
X144571892Y-27567685D01*
X144571892Y-27567685D02*
X144609987Y-27640256D01*
X144571892Y-27857971D02*
X145219511Y-27857971D01*
X145219511Y-27857971D02*
X145295701Y-27882161D01*
X145295701Y-27882161D02*
X145333797Y-27906352D01*
X145333797Y-27906352D02*
X145371892Y-27954733D01*
X145371892Y-27954733D02*
X145371892Y-28051495D01*
X145371892Y-28051495D02*
X145333797Y-28099876D01*
X145333797Y-28099876D02*
X145295701Y-28124066D01*
X145295701Y-28124066D02*
X145219511Y-28148257D01*
X145219511Y-28148257D02*
X144571892Y-28148257D01*
X145448082Y-28269209D02*
X145448082Y-28656256D01*
X145371892Y-28777209D02*
X144571892Y-28777209D01*
X144952844Y-28777209D02*
X144952844Y-29067495D01*
X145371892Y-29067495D02*
X144571892Y-29067495D01*
X133559987Y-41337304D02*
X133521892Y-41288923D01*
X133521892Y-41288923D02*
X133521892Y-41216352D01*
X133521892Y-41216352D02*
X133559987Y-41143780D01*
X133559987Y-41143780D02*
X133636177Y-41095399D01*
X133636177Y-41095399D02*
X133712368Y-41071209D01*
X133712368Y-41071209D02*
X133864749Y-41047018D01*
X133864749Y-41047018D02*
X133979035Y-41047018D01*
X133979035Y-41047018D02*
X134131416Y-41071209D01*
X134131416Y-41071209D02*
X134207606Y-41095399D01*
X134207606Y-41095399D02*
X134283797Y-41143780D01*
X134283797Y-41143780D02*
X134321892Y-41216352D01*
X134321892Y-41216352D02*
X134321892Y-41264733D01*
X134321892Y-41264733D02*
X134283797Y-41337304D01*
X134283797Y-41337304D02*
X134245701Y-41361495D01*
X134245701Y-41361495D02*
X133979035Y-41361495D01*
X133979035Y-41361495D02*
X133979035Y-41264733D01*
X134321892Y-41579209D02*
X133521892Y-41579209D01*
X133521892Y-41579209D02*
X134321892Y-41869495D01*
X134321892Y-41869495D02*
X133521892Y-41869495D01*
X134321892Y-42111399D02*
X133521892Y-42111399D01*
X133521892Y-42111399D02*
X133521892Y-42232351D01*
X133521892Y-42232351D02*
X133559987Y-42304923D01*
X133559987Y-42304923D02*
X133636177Y-42353304D01*
X133636177Y-42353304D02*
X133712368Y-42377494D01*
X133712368Y-42377494D02*
X133864749Y-42401685D01*
X133864749Y-42401685D02*
X133979035Y-42401685D01*
X133979035Y-42401685D02*
X134131416Y-42377494D01*
X134131416Y-42377494D02*
X134207606Y-42353304D01*
X134207606Y-42353304D02*
X134283797Y-42304923D01*
X134283797Y-42304923D02*
X134321892Y-42232351D01*
X134321892Y-42232351D02*
X134321892Y-42111399D01*
X140271892Y-41322445D02*
X140271892Y-41032159D01*
X140271892Y-41177302D02*
X139471892Y-41177302D01*
X139471892Y-41177302D02*
X139586177Y-41128921D01*
X139586177Y-41128921D02*
X139662368Y-41080540D01*
X139662368Y-41080540D02*
X139700463Y-41032159D01*
X139548082Y-41515969D02*
X139509987Y-41540160D01*
X139509987Y-41540160D02*
X139471892Y-41588541D01*
X139471892Y-41588541D02*
X139471892Y-41709493D01*
X139471892Y-41709493D02*
X139509987Y-41757874D01*
X139509987Y-41757874D02*
X139548082Y-41782065D01*
X139548082Y-41782065D02*
X139624273Y-41806255D01*
X139624273Y-41806255D02*
X139700463Y-41806255D01*
X139700463Y-41806255D02*
X139814749Y-41782065D01*
X139814749Y-41782065D02*
X140271892Y-41491779D01*
X140271892Y-41491779D02*
X140271892Y-41806255D01*
X139471892Y-41951398D02*
X140271892Y-42120732D01*
X140271892Y-42120732D02*
X139471892Y-42290065D01*
X159309987Y-24561875D02*
X159271892Y-24513494D01*
X159271892Y-24513494D02*
X159271892Y-24440923D01*
X159271892Y-24440923D02*
X159309987Y-24368351D01*
X159309987Y-24368351D02*
X159386177Y-24319970D01*
X159386177Y-24319970D02*
X159462368Y-24295780D01*
X159462368Y-24295780D02*
X159614749Y-24271589D01*
X159614749Y-24271589D02*
X159729035Y-24271589D01*
X159729035Y-24271589D02*
X159881416Y-24295780D01*
X159881416Y-24295780D02*
X159957606Y-24319970D01*
X159957606Y-24319970D02*
X160033797Y-24368351D01*
X160033797Y-24368351D02*
X160071892Y-24440923D01*
X160071892Y-24440923D02*
X160071892Y-24489304D01*
X160071892Y-24489304D02*
X160033797Y-24561875D01*
X160033797Y-24561875D02*
X159995701Y-24586066D01*
X159995701Y-24586066D02*
X159729035Y-24586066D01*
X159729035Y-24586066D02*
X159729035Y-24489304D01*
X160071892Y-24803780D02*
X159271892Y-24803780D01*
X159271892Y-24803780D02*
X160071892Y-25094066D01*
X160071892Y-25094066D02*
X159271892Y-25094066D01*
X160071892Y-25335970D02*
X159271892Y-25335970D01*
X159271892Y-25335970D02*
X159271892Y-25456922D01*
X159271892Y-25456922D02*
X159309987Y-25529494D01*
X159309987Y-25529494D02*
X159386177Y-25577875D01*
X159386177Y-25577875D02*
X159462368Y-25602065D01*
X159462368Y-25602065D02*
X159614749Y-25626256D01*
X159614749Y-25626256D02*
X159729035Y-25626256D01*
X159729035Y-25626256D02*
X159881416Y-25602065D01*
X159881416Y-25602065D02*
X159957606Y-25577875D01*
X159957606Y-25577875D02*
X160033797Y-25529494D01*
X160033797Y-25529494D02*
X160071892Y-25456922D01*
X160071892Y-25456922D02*
X160071892Y-25335970D01*
X159843320Y-25819779D02*
X159843320Y-26061684D01*
X160071892Y-25771398D02*
X159271892Y-25940732D01*
X159271892Y-25940732D02*
X160071892Y-26110065D01*
X137977856Y-46555778D02*
X138231856Y-46555778D01*
X138231856Y-46954921D02*
X138231856Y-46192921D01*
X138231856Y-46192921D02*
X137868999Y-46192921D01*
X137179570Y-46954921D02*
X137614999Y-46954921D01*
X137397284Y-46954921D02*
X137397284Y-46192921D01*
X137397284Y-46192921D02*
X137469856Y-46301778D01*
X137469856Y-46301778D02*
X137542427Y-46374350D01*
X137542427Y-46374350D02*
X137614999Y-46410636D01*
X136707856Y-46192921D02*
X136635285Y-46192921D01*
X136635285Y-46192921D02*
X136562713Y-46229207D01*
X136562713Y-46229207D02*
X136526428Y-46265493D01*
X136526428Y-46265493D02*
X136490142Y-46338064D01*
X136490142Y-46338064D02*
X136453856Y-46483207D01*
X136453856Y-46483207D02*
X136453856Y-46664636D01*
X136453856Y-46664636D02*
X136490142Y-46809778D01*
X136490142Y-46809778D02*
X136526428Y-46882350D01*
X136526428Y-46882350D02*
X136562713Y-46918636D01*
X136562713Y-46918636D02*
X136635285Y-46954921D01*
X136635285Y-46954921D02*
X136707856Y-46954921D01*
X136707856Y-46954921D02*
X136780428Y-46918636D01*
X136780428Y-46918636D02*
X136816713Y-46882350D01*
X136816713Y-46882350D02*
X136852999Y-46809778D01*
X136852999Y-46809778D02*
X136889285Y-46664636D01*
X136889285Y-46664636D02*
X136889285Y-46483207D01*
X136889285Y-46483207D02*
X136852999Y-46338064D01*
X136852999Y-46338064D02*
X136816713Y-46265493D01*
X136816713Y-46265493D02*
X136780428Y-46229207D01*
X136780428Y-46229207D02*
X136707856Y-46192921D01*
D11*
X98903930Y-73494119D02*
X98630597Y-73884595D01*
X98435359Y-73494119D02*
X98435359Y-74314119D01*
X98435359Y-74314119D02*
X98747740Y-74314119D01*
X98747740Y-74314119D02*
X98825835Y-74275071D01*
X98825835Y-74275071D02*
X98864882Y-74236024D01*
X98864882Y-74236024D02*
X98903930Y-74157928D01*
X98903930Y-74157928D02*
X98903930Y-74040786D01*
X98903930Y-74040786D02*
X98864882Y-73962690D01*
X98864882Y-73962690D02*
X98825835Y-73923643D01*
X98825835Y-73923643D02*
X98747740Y-73884595D01*
X98747740Y-73884595D02*
X98435359Y-73884595D01*
X99294406Y-73494119D02*
X99450597Y-73494119D01*
X99450597Y-73494119D02*
X99528692Y-73533167D01*
X99528692Y-73533167D02*
X99567740Y-73572214D01*
X99567740Y-73572214D02*
X99645835Y-73689357D01*
X99645835Y-73689357D02*
X99684882Y-73845547D01*
X99684882Y-73845547D02*
X99684882Y-74157928D01*
X99684882Y-74157928D02*
X99645835Y-74236024D01*
X99645835Y-74236024D02*
X99606787Y-74275071D01*
X99606787Y-74275071D02*
X99528692Y-74314119D01*
X99528692Y-74314119D02*
X99372501Y-74314119D01*
X99372501Y-74314119D02*
X99294406Y-74275071D01*
X99294406Y-74275071D02*
X99255359Y-74236024D01*
X99255359Y-74236024D02*
X99216311Y-74157928D01*
X99216311Y-74157928D02*
X99216311Y-73962690D01*
X99216311Y-73962690D02*
X99255359Y-73884595D01*
X99255359Y-73884595D02*
X99294406Y-73845547D01*
X99294406Y-73845547D02*
X99372501Y-73806500D01*
X99372501Y-73806500D02*
X99528692Y-73806500D01*
X99528692Y-73806500D02*
X99606787Y-73845547D01*
X99606787Y-73845547D02*
X99645835Y-73884595D01*
X99645835Y-73884595D02*
X99684882Y-73962690D01*
X100465834Y-73494119D02*
X99997263Y-73494119D01*
X100231549Y-73494119D02*
X100231549Y-74314119D01*
X100231549Y-74314119D02*
X100153453Y-74196976D01*
X100153453Y-74196976D02*
X100075358Y-74118881D01*
X100075358Y-74118881D02*
X99997263Y-74079833D01*
X101246786Y-73494119D02*
X100778215Y-73494119D01*
X101012501Y-73494119D02*
X101012501Y-74314119D01*
X101012501Y-74314119D02*
X100934405Y-74196976D01*
X100934405Y-74196976D02*
X100856310Y-74118881D01*
X100856310Y-74118881D02*
X100778215Y-74079833D01*
X122802808Y-122656651D02*
X122412332Y-122383318D01*
X122802808Y-122188080D02*
X121982808Y-122188080D01*
X121982808Y-122188080D02*
X121982808Y-122500461D01*
X121982808Y-122500461D02*
X122021856Y-122578556D01*
X122021856Y-122578556D02*
X122060903Y-122617603D01*
X122060903Y-122617603D02*
X122138999Y-122656651D01*
X122138999Y-122656651D02*
X122256141Y-122656651D01*
X122256141Y-122656651D02*
X122334237Y-122617603D01*
X122334237Y-122617603D02*
X122373284Y-122578556D01*
X122373284Y-122578556D02*
X122412332Y-122500461D01*
X122412332Y-122500461D02*
X122412332Y-122188080D01*
X122256141Y-123359508D02*
X122802808Y-123359508D01*
X121943761Y-123164270D02*
X122529475Y-122969032D01*
X122529475Y-122969032D02*
X122529475Y-123476651D01*
X121982808Y-123945222D02*
X121982808Y-124023317D01*
X121982808Y-124023317D02*
X122021856Y-124101413D01*
X122021856Y-124101413D02*
X122060903Y-124140460D01*
X122060903Y-124140460D02*
X122138999Y-124179508D01*
X122138999Y-124179508D02*
X122295189Y-124218555D01*
X122295189Y-124218555D02*
X122490427Y-124218555D01*
X122490427Y-124218555D02*
X122646618Y-124179508D01*
X122646618Y-124179508D02*
X122724713Y-124140460D01*
X122724713Y-124140460D02*
X122763761Y-124101413D01*
X122763761Y-124101413D02*
X122802808Y-124023317D01*
X122802808Y-124023317D02*
X122802808Y-123945222D01*
X122802808Y-123945222D02*
X122763761Y-123867127D01*
X122763761Y-123867127D02*
X122724713Y-123828079D01*
X122724713Y-123828079D02*
X122646618Y-123789032D01*
X122646618Y-123789032D02*
X122490427Y-123749984D01*
X122490427Y-123749984D02*
X122295189Y-123749984D01*
X122295189Y-123749984D02*
X122138999Y-123789032D01*
X122138999Y-123789032D02*
X122060903Y-123828079D01*
X122060903Y-123828079D02*
X122021856Y-123867127D01*
X122021856Y-123867127D02*
X121982808Y-123945222D01*
X121982808Y-124491888D02*
X121982808Y-124999507D01*
X121982808Y-124999507D02*
X122295189Y-124726174D01*
X122295189Y-124726174D02*
X122295189Y-124843317D01*
X122295189Y-124843317D02*
X122334237Y-124921412D01*
X122334237Y-124921412D02*
X122373284Y-124960460D01*
X122373284Y-124960460D02*
X122451380Y-124999507D01*
X122451380Y-124999507D02*
X122646618Y-124999507D01*
X122646618Y-124999507D02*
X122724713Y-124960460D01*
X122724713Y-124960460D02*
X122763761Y-124921412D01*
X122763761Y-124921412D02*
X122802808Y-124843317D01*
X122802808Y-124843317D02*
X122802808Y-124609031D01*
X122802808Y-124609031D02*
X122763761Y-124530936D01*
X122763761Y-124530936D02*
X122724713Y-124491888D01*
X99115651Y-58449191D02*
X98842318Y-58839667D01*
X98647080Y-58449191D02*
X98647080Y-59269191D01*
X98647080Y-59269191D02*
X98959461Y-59269191D01*
X98959461Y-59269191D02*
X99037556Y-59230143D01*
X99037556Y-59230143D02*
X99076603Y-59191096D01*
X99076603Y-59191096D02*
X99115651Y-59113000D01*
X99115651Y-59113000D02*
X99115651Y-58995858D01*
X99115651Y-58995858D02*
X99076603Y-58917762D01*
X99076603Y-58917762D02*
X99037556Y-58878715D01*
X99037556Y-58878715D02*
X98959461Y-58839667D01*
X98959461Y-58839667D02*
X98647080Y-58839667D01*
X99506127Y-58449191D02*
X99662318Y-58449191D01*
X99662318Y-58449191D02*
X99740413Y-58488239D01*
X99740413Y-58488239D02*
X99779461Y-58527286D01*
X99779461Y-58527286D02*
X99857556Y-58644429D01*
X99857556Y-58644429D02*
X99896603Y-58800619D01*
X99896603Y-58800619D02*
X99896603Y-59113000D01*
X99896603Y-59113000D02*
X99857556Y-59191096D01*
X99857556Y-59191096D02*
X99818508Y-59230143D01*
X99818508Y-59230143D02*
X99740413Y-59269191D01*
X99740413Y-59269191D02*
X99584222Y-59269191D01*
X99584222Y-59269191D02*
X99506127Y-59230143D01*
X99506127Y-59230143D02*
X99467080Y-59191096D01*
X99467080Y-59191096D02*
X99428032Y-59113000D01*
X99428032Y-59113000D02*
X99428032Y-58917762D01*
X99428032Y-58917762D02*
X99467080Y-58839667D01*
X99467080Y-58839667D02*
X99506127Y-58800619D01*
X99506127Y-58800619D02*
X99584222Y-58761572D01*
X99584222Y-58761572D02*
X99740413Y-58761572D01*
X99740413Y-58761572D02*
X99818508Y-58800619D01*
X99818508Y-58800619D02*
X99857556Y-58839667D01*
X99857556Y-58839667D02*
X99896603Y-58917762D01*
X100404222Y-59269191D02*
X100482317Y-59269191D01*
X100482317Y-59269191D02*
X100560413Y-59230143D01*
X100560413Y-59230143D02*
X100599460Y-59191096D01*
X100599460Y-59191096D02*
X100638508Y-59113000D01*
X100638508Y-59113000D02*
X100677555Y-58956810D01*
X100677555Y-58956810D02*
X100677555Y-58761572D01*
X100677555Y-58761572D02*
X100638508Y-58605381D01*
X100638508Y-58605381D02*
X100599460Y-58527286D01*
X100599460Y-58527286D02*
X100560413Y-58488239D01*
X100560413Y-58488239D02*
X100482317Y-58449191D01*
X100482317Y-58449191D02*
X100404222Y-58449191D01*
X100404222Y-58449191D02*
X100326127Y-58488239D01*
X100326127Y-58488239D02*
X100287079Y-58527286D01*
X100287079Y-58527286D02*
X100248032Y-58605381D01*
X100248032Y-58605381D02*
X100208984Y-58761572D01*
X100208984Y-58761572D02*
X100208984Y-58956810D01*
X100208984Y-58956810D02*
X100248032Y-59113000D01*
X100248032Y-59113000D02*
X100287079Y-59191096D01*
X100287079Y-59191096D02*
X100326127Y-59230143D01*
X100326127Y-59230143D02*
X100404222Y-59269191D01*
X100950888Y-59269191D02*
X101458507Y-59269191D01*
X101458507Y-59269191D02*
X101185174Y-58956810D01*
X101185174Y-58956810D02*
X101302317Y-58956810D01*
X101302317Y-58956810D02*
X101380412Y-58917762D01*
X101380412Y-58917762D02*
X101419460Y-58878715D01*
X101419460Y-58878715D02*
X101458507Y-58800619D01*
X101458507Y-58800619D02*
X101458507Y-58605381D01*
X101458507Y-58605381D02*
X101419460Y-58527286D01*
X101419460Y-58527286D02*
X101380412Y-58488239D01*
X101380412Y-58488239D02*
X101302317Y-58449191D01*
X101302317Y-58449191D02*
X101068031Y-58449191D01*
X101068031Y-58449191D02*
X100989936Y-58488239D01*
X100989936Y-58488239D02*
X100950888Y-58527286D01*
X88243930Y-73396191D02*
X87970597Y-73786667D01*
X87775359Y-73396191D02*
X87775359Y-74216191D01*
X87775359Y-74216191D02*
X88087740Y-74216191D01*
X88087740Y-74216191D02*
X88165835Y-74177143D01*
X88165835Y-74177143D02*
X88204882Y-74138096D01*
X88204882Y-74138096D02*
X88243930Y-74060000D01*
X88243930Y-74060000D02*
X88243930Y-73942858D01*
X88243930Y-73942858D02*
X88204882Y-73864762D01*
X88204882Y-73864762D02*
X88165835Y-73825715D01*
X88165835Y-73825715D02*
X88087740Y-73786667D01*
X88087740Y-73786667D02*
X87775359Y-73786667D01*
X88634406Y-73396191D02*
X88790597Y-73396191D01*
X88790597Y-73396191D02*
X88868692Y-73435239D01*
X88868692Y-73435239D02*
X88907740Y-73474286D01*
X88907740Y-73474286D02*
X88985835Y-73591429D01*
X88985835Y-73591429D02*
X89024882Y-73747619D01*
X89024882Y-73747619D02*
X89024882Y-74060000D01*
X89024882Y-74060000D02*
X88985835Y-74138096D01*
X88985835Y-74138096D02*
X88946787Y-74177143D01*
X88946787Y-74177143D02*
X88868692Y-74216191D01*
X88868692Y-74216191D02*
X88712501Y-74216191D01*
X88712501Y-74216191D02*
X88634406Y-74177143D01*
X88634406Y-74177143D02*
X88595359Y-74138096D01*
X88595359Y-74138096D02*
X88556311Y-74060000D01*
X88556311Y-74060000D02*
X88556311Y-73864762D01*
X88556311Y-73864762D02*
X88595359Y-73786667D01*
X88595359Y-73786667D02*
X88634406Y-73747619D01*
X88634406Y-73747619D02*
X88712501Y-73708572D01*
X88712501Y-73708572D02*
X88868692Y-73708572D01*
X88868692Y-73708572D02*
X88946787Y-73747619D01*
X88946787Y-73747619D02*
X88985835Y-73786667D01*
X88985835Y-73786667D02*
X89024882Y-73864762D01*
X89532501Y-74216191D02*
X89610596Y-74216191D01*
X89610596Y-74216191D02*
X89688692Y-74177143D01*
X89688692Y-74177143D02*
X89727739Y-74138096D01*
X89727739Y-74138096D02*
X89766787Y-74060000D01*
X89766787Y-74060000D02*
X89805834Y-73903810D01*
X89805834Y-73903810D02*
X89805834Y-73708572D01*
X89805834Y-73708572D02*
X89766787Y-73552381D01*
X89766787Y-73552381D02*
X89727739Y-73474286D01*
X89727739Y-73474286D02*
X89688692Y-73435239D01*
X89688692Y-73435239D02*
X89610596Y-73396191D01*
X89610596Y-73396191D02*
X89532501Y-73396191D01*
X89532501Y-73396191D02*
X89454406Y-73435239D01*
X89454406Y-73435239D02*
X89415358Y-73474286D01*
X89415358Y-73474286D02*
X89376311Y-73552381D01*
X89376311Y-73552381D02*
X89337263Y-73708572D01*
X89337263Y-73708572D02*
X89337263Y-73903810D01*
X89337263Y-73903810D02*
X89376311Y-74060000D01*
X89376311Y-74060000D02*
X89415358Y-74138096D01*
X89415358Y-74138096D02*
X89454406Y-74177143D01*
X89454406Y-74177143D02*
X89532501Y-74216191D01*
X90508691Y-74216191D02*
X90352501Y-74216191D01*
X90352501Y-74216191D02*
X90274405Y-74177143D01*
X90274405Y-74177143D02*
X90235358Y-74138096D01*
X90235358Y-74138096D02*
X90157263Y-74020953D01*
X90157263Y-74020953D02*
X90118215Y-73864762D01*
X90118215Y-73864762D02*
X90118215Y-73552381D01*
X90118215Y-73552381D02*
X90157263Y-73474286D01*
X90157263Y-73474286D02*
X90196310Y-73435239D01*
X90196310Y-73435239D02*
X90274405Y-73396191D01*
X90274405Y-73396191D02*
X90430596Y-73396191D01*
X90430596Y-73396191D02*
X90508691Y-73435239D01*
X90508691Y-73435239D02*
X90547739Y-73474286D01*
X90547739Y-73474286D02*
X90586786Y-73552381D01*
X90586786Y-73552381D02*
X90586786Y-73747619D01*
X90586786Y-73747619D02*
X90547739Y-73825715D01*
X90547739Y-73825715D02*
X90508691Y-73864762D01*
X90508691Y-73864762D02*
X90430596Y-73903810D01*
X90430596Y-73903810D02*
X90274405Y-73903810D01*
X90274405Y-73903810D02*
X90196310Y-73864762D01*
X90196310Y-73864762D02*
X90157263Y-73825715D01*
X90157263Y-73825715D02*
X90118215Y-73747619D01*
X125936736Y-122470651D02*
X125546260Y-122197318D01*
X125936736Y-122002080D02*
X125116736Y-122002080D01*
X125116736Y-122002080D02*
X125116736Y-122314461D01*
X125116736Y-122314461D02*
X125155784Y-122392556D01*
X125155784Y-122392556D02*
X125194831Y-122431603D01*
X125194831Y-122431603D02*
X125272927Y-122470651D01*
X125272927Y-122470651D02*
X125390069Y-122470651D01*
X125390069Y-122470651D02*
X125468165Y-122431603D01*
X125468165Y-122431603D02*
X125507212Y-122392556D01*
X125507212Y-122392556D02*
X125546260Y-122314461D01*
X125546260Y-122314461D02*
X125546260Y-122002080D01*
X125390069Y-123173508D02*
X125936736Y-123173508D01*
X125077689Y-122978270D02*
X125663403Y-122783032D01*
X125663403Y-122783032D02*
X125663403Y-123290651D01*
X125116736Y-123759222D02*
X125116736Y-123837317D01*
X125116736Y-123837317D02*
X125155784Y-123915413D01*
X125155784Y-123915413D02*
X125194831Y-123954460D01*
X125194831Y-123954460D02*
X125272927Y-123993508D01*
X125272927Y-123993508D02*
X125429117Y-124032555D01*
X125429117Y-124032555D02*
X125624355Y-124032555D01*
X125624355Y-124032555D02*
X125780546Y-123993508D01*
X125780546Y-123993508D02*
X125858641Y-123954460D01*
X125858641Y-123954460D02*
X125897689Y-123915413D01*
X125897689Y-123915413D02*
X125936736Y-123837317D01*
X125936736Y-123837317D02*
X125936736Y-123759222D01*
X125936736Y-123759222D02*
X125897689Y-123681127D01*
X125897689Y-123681127D02*
X125858641Y-123642079D01*
X125858641Y-123642079D02*
X125780546Y-123603032D01*
X125780546Y-123603032D02*
X125624355Y-123563984D01*
X125624355Y-123563984D02*
X125429117Y-123563984D01*
X125429117Y-123563984D02*
X125272927Y-123603032D01*
X125272927Y-123603032D02*
X125194831Y-123642079D01*
X125194831Y-123642079D02*
X125155784Y-123681127D01*
X125155784Y-123681127D02*
X125116736Y-123759222D01*
X125116736Y-124774460D02*
X125116736Y-124383984D01*
X125116736Y-124383984D02*
X125507212Y-124344936D01*
X125507212Y-124344936D02*
X125468165Y-124383984D01*
X125468165Y-124383984D02*
X125429117Y-124462079D01*
X125429117Y-124462079D02*
X125429117Y-124657317D01*
X125429117Y-124657317D02*
X125468165Y-124735412D01*
X125468165Y-124735412D02*
X125507212Y-124774460D01*
X125507212Y-124774460D02*
X125585308Y-124813507D01*
X125585308Y-124813507D02*
X125780546Y-124813507D01*
X125780546Y-124813507D02*
X125858641Y-124774460D01*
X125858641Y-124774460D02*
X125897689Y-124735412D01*
X125897689Y-124735412D02*
X125936736Y-124657317D01*
X125936736Y-124657317D02*
X125936736Y-124462079D01*
X125936736Y-124462079D02*
X125897689Y-124383984D01*
X125897689Y-124383984D02*
X125858641Y-124344936D01*
X109551651Y-57740191D02*
X109278318Y-58130667D01*
X109083080Y-57740191D02*
X109083080Y-58560191D01*
X109083080Y-58560191D02*
X109395461Y-58560191D01*
X109395461Y-58560191D02*
X109473556Y-58521143D01*
X109473556Y-58521143D02*
X109512603Y-58482096D01*
X109512603Y-58482096D02*
X109551651Y-58404000D01*
X109551651Y-58404000D02*
X109551651Y-58286858D01*
X109551651Y-58286858D02*
X109512603Y-58208762D01*
X109512603Y-58208762D02*
X109473556Y-58169715D01*
X109473556Y-58169715D02*
X109395461Y-58130667D01*
X109395461Y-58130667D02*
X109083080Y-58130667D01*
X109942127Y-57740191D02*
X110098318Y-57740191D01*
X110098318Y-57740191D02*
X110176413Y-57779239D01*
X110176413Y-57779239D02*
X110215461Y-57818286D01*
X110215461Y-57818286D02*
X110293556Y-57935429D01*
X110293556Y-57935429D02*
X110332603Y-58091619D01*
X110332603Y-58091619D02*
X110332603Y-58404000D01*
X110332603Y-58404000D02*
X110293556Y-58482096D01*
X110293556Y-58482096D02*
X110254508Y-58521143D01*
X110254508Y-58521143D02*
X110176413Y-58560191D01*
X110176413Y-58560191D02*
X110020222Y-58560191D01*
X110020222Y-58560191D02*
X109942127Y-58521143D01*
X109942127Y-58521143D02*
X109903080Y-58482096D01*
X109903080Y-58482096D02*
X109864032Y-58404000D01*
X109864032Y-58404000D02*
X109864032Y-58208762D01*
X109864032Y-58208762D02*
X109903080Y-58130667D01*
X109903080Y-58130667D02*
X109942127Y-58091619D01*
X109942127Y-58091619D02*
X110020222Y-58052572D01*
X110020222Y-58052572D02*
X110176413Y-58052572D01*
X110176413Y-58052572D02*
X110254508Y-58091619D01*
X110254508Y-58091619D02*
X110293556Y-58130667D01*
X110293556Y-58130667D02*
X110332603Y-58208762D01*
X111113555Y-57740191D02*
X110644984Y-57740191D01*
X110879270Y-57740191D02*
X110879270Y-58560191D01*
X110879270Y-58560191D02*
X110801174Y-58443048D01*
X110801174Y-58443048D02*
X110723079Y-58364953D01*
X110723079Y-58364953D02*
X110644984Y-58325905D01*
X111386888Y-58560191D02*
X111894507Y-58560191D01*
X111894507Y-58560191D02*
X111621174Y-58247810D01*
X111621174Y-58247810D02*
X111738317Y-58247810D01*
X111738317Y-58247810D02*
X111816412Y-58208762D01*
X111816412Y-58208762D02*
X111855460Y-58169715D01*
X111855460Y-58169715D02*
X111894507Y-58091619D01*
X111894507Y-58091619D02*
X111894507Y-57896381D01*
X111894507Y-57896381D02*
X111855460Y-57818286D01*
X111855460Y-57818286D02*
X111816412Y-57779239D01*
X111816412Y-57779239D02*
X111738317Y-57740191D01*
X111738317Y-57740191D02*
X111504031Y-57740191D01*
X111504031Y-57740191D02*
X111425936Y-57779239D01*
X111425936Y-57779239D02*
X111386888Y-57818286D01*
X120115651Y-104239191D02*
X119842318Y-104629667D01*
X119647080Y-104239191D02*
X119647080Y-105059191D01*
X119647080Y-105059191D02*
X119959461Y-105059191D01*
X119959461Y-105059191D02*
X120037556Y-105020143D01*
X120037556Y-105020143D02*
X120076603Y-104981096D01*
X120076603Y-104981096D02*
X120115651Y-104903000D01*
X120115651Y-104903000D02*
X120115651Y-104785858D01*
X120115651Y-104785858D02*
X120076603Y-104707762D01*
X120076603Y-104707762D02*
X120037556Y-104668715D01*
X120037556Y-104668715D02*
X119959461Y-104629667D01*
X119959461Y-104629667D02*
X119647080Y-104629667D01*
X120506127Y-104239191D02*
X120662318Y-104239191D01*
X120662318Y-104239191D02*
X120740413Y-104278239D01*
X120740413Y-104278239D02*
X120779461Y-104317286D01*
X120779461Y-104317286D02*
X120857556Y-104434429D01*
X120857556Y-104434429D02*
X120896603Y-104590619D01*
X120896603Y-104590619D02*
X120896603Y-104903000D01*
X120896603Y-104903000D02*
X120857556Y-104981096D01*
X120857556Y-104981096D02*
X120818508Y-105020143D01*
X120818508Y-105020143D02*
X120740413Y-105059191D01*
X120740413Y-105059191D02*
X120584222Y-105059191D01*
X120584222Y-105059191D02*
X120506127Y-105020143D01*
X120506127Y-105020143D02*
X120467080Y-104981096D01*
X120467080Y-104981096D02*
X120428032Y-104903000D01*
X120428032Y-104903000D02*
X120428032Y-104707762D01*
X120428032Y-104707762D02*
X120467080Y-104629667D01*
X120467080Y-104629667D02*
X120506127Y-104590619D01*
X120506127Y-104590619D02*
X120584222Y-104551572D01*
X120584222Y-104551572D02*
X120740413Y-104551572D01*
X120740413Y-104551572D02*
X120818508Y-104590619D01*
X120818508Y-104590619D02*
X120857556Y-104629667D01*
X120857556Y-104629667D02*
X120896603Y-104707762D01*
X121677555Y-104239191D02*
X121208984Y-104239191D01*
X121443270Y-104239191D02*
X121443270Y-105059191D01*
X121443270Y-105059191D02*
X121365174Y-104942048D01*
X121365174Y-104942048D02*
X121287079Y-104863953D01*
X121287079Y-104863953D02*
X121208984Y-104824905D01*
X122380412Y-105059191D02*
X122224222Y-105059191D01*
X122224222Y-105059191D02*
X122146126Y-105020143D01*
X122146126Y-105020143D02*
X122107079Y-104981096D01*
X122107079Y-104981096D02*
X122028984Y-104863953D01*
X122028984Y-104863953D02*
X121989936Y-104707762D01*
X121989936Y-104707762D02*
X121989936Y-104395381D01*
X121989936Y-104395381D02*
X122028984Y-104317286D01*
X122028984Y-104317286D02*
X122068031Y-104278239D01*
X122068031Y-104278239D02*
X122146126Y-104239191D01*
X122146126Y-104239191D02*
X122302317Y-104239191D01*
X122302317Y-104239191D02*
X122380412Y-104278239D01*
X122380412Y-104278239D02*
X122419460Y-104317286D01*
X122419460Y-104317286D02*
X122458507Y-104395381D01*
X122458507Y-104395381D02*
X122458507Y-104590619D01*
X122458507Y-104590619D02*
X122419460Y-104668715D01*
X122419460Y-104668715D02*
X122380412Y-104707762D01*
X122380412Y-104707762D02*
X122302317Y-104746810D01*
X122302317Y-104746810D02*
X122146126Y-104746810D01*
X122146126Y-104746810D02*
X122068031Y-104707762D01*
X122068031Y-104707762D02*
X122028984Y-104668715D01*
X122028984Y-104668715D02*
X121989936Y-104590619D01*
X118869808Y-122572651D02*
X118479332Y-122299318D01*
X118869808Y-122104080D02*
X118049808Y-122104080D01*
X118049808Y-122104080D02*
X118049808Y-122416461D01*
X118049808Y-122416461D02*
X118088856Y-122494556D01*
X118088856Y-122494556D02*
X118127903Y-122533603D01*
X118127903Y-122533603D02*
X118205999Y-122572651D01*
X118205999Y-122572651D02*
X118323141Y-122572651D01*
X118323141Y-122572651D02*
X118401237Y-122533603D01*
X118401237Y-122533603D02*
X118440284Y-122494556D01*
X118440284Y-122494556D02*
X118479332Y-122416461D01*
X118479332Y-122416461D02*
X118479332Y-122104080D01*
X118323141Y-123275508D02*
X118869808Y-123275508D01*
X118010761Y-123080270D02*
X118596475Y-122885032D01*
X118596475Y-122885032D02*
X118596475Y-123392651D01*
X118049808Y-123861222D02*
X118049808Y-123939317D01*
X118049808Y-123939317D02*
X118088856Y-124017413D01*
X118088856Y-124017413D02*
X118127903Y-124056460D01*
X118127903Y-124056460D02*
X118205999Y-124095508D01*
X118205999Y-124095508D02*
X118362189Y-124134555D01*
X118362189Y-124134555D02*
X118557427Y-124134555D01*
X118557427Y-124134555D02*
X118713618Y-124095508D01*
X118713618Y-124095508D02*
X118791713Y-124056460D01*
X118791713Y-124056460D02*
X118830761Y-124017413D01*
X118830761Y-124017413D02*
X118869808Y-123939317D01*
X118869808Y-123939317D02*
X118869808Y-123861222D01*
X118869808Y-123861222D02*
X118830761Y-123783127D01*
X118830761Y-123783127D02*
X118791713Y-123744079D01*
X118791713Y-123744079D02*
X118713618Y-123705032D01*
X118713618Y-123705032D02*
X118557427Y-123665984D01*
X118557427Y-123665984D02*
X118362189Y-123665984D01*
X118362189Y-123665984D02*
X118205999Y-123705032D01*
X118205999Y-123705032D02*
X118127903Y-123744079D01*
X118127903Y-123744079D02*
X118088856Y-123783127D01*
X118088856Y-123783127D02*
X118049808Y-123861222D01*
X118127903Y-124446936D02*
X118088856Y-124485984D01*
X118088856Y-124485984D02*
X118049808Y-124564079D01*
X118049808Y-124564079D02*
X118049808Y-124759317D01*
X118049808Y-124759317D02*
X118088856Y-124837412D01*
X118088856Y-124837412D02*
X118127903Y-124876460D01*
X118127903Y-124876460D02*
X118205999Y-124915507D01*
X118205999Y-124915507D02*
X118284094Y-124915507D01*
X118284094Y-124915507D02*
X118401237Y-124876460D01*
X118401237Y-124876460D02*
X118869808Y-124407888D01*
X118869808Y-124407888D02*
X118869808Y-124915507D01*
X109742651Y-88857191D02*
X109469318Y-89247667D01*
X109274080Y-88857191D02*
X109274080Y-89677191D01*
X109274080Y-89677191D02*
X109586461Y-89677191D01*
X109586461Y-89677191D02*
X109664556Y-89638143D01*
X109664556Y-89638143D02*
X109703603Y-89599096D01*
X109703603Y-89599096D02*
X109742651Y-89521000D01*
X109742651Y-89521000D02*
X109742651Y-89403858D01*
X109742651Y-89403858D02*
X109703603Y-89325762D01*
X109703603Y-89325762D02*
X109664556Y-89286715D01*
X109664556Y-89286715D02*
X109586461Y-89247667D01*
X109586461Y-89247667D02*
X109274080Y-89247667D01*
X110133127Y-88857191D02*
X110289318Y-88857191D01*
X110289318Y-88857191D02*
X110367413Y-88896239D01*
X110367413Y-88896239D02*
X110406461Y-88935286D01*
X110406461Y-88935286D02*
X110484556Y-89052429D01*
X110484556Y-89052429D02*
X110523603Y-89208619D01*
X110523603Y-89208619D02*
X110523603Y-89521000D01*
X110523603Y-89521000D02*
X110484556Y-89599096D01*
X110484556Y-89599096D02*
X110445508Y-89638143D01*
X110445508Y-89638143D02*
X110367413Y-89677191D01*
X110367413Y-89677191D02*
X110211222Y-89677191D01*
X110211222Y-89677191D02*
X110133127Y-89638143D01*
X110133127Y-89638143D02*
X110094080Y-89599096D01*
X110094080Y-89599096D02*
X110055032Y-89521000D01*
X110055032Y-89521000D02*
X110055032Y-89325762D01*
X110055032Y-89325762D02*
X110094080Y-89247667D01*
X110094080Y-89247667D02*
X110133127Y-89208619D01*
X110133127Y-89208619D02*
X110211222Y-89169572D01*
X110211222Y-89169572D02*
X110367413Y-89169572D01*
X110367413Y-89169572D02*
X110445508Y-89208619D01*
X110445508Y-89208619D02*
X110484556Y-89247667D01*
X110484556Y-89247667D02*
X110523603Y-89325762D01*
X111031222Y-89677191D02*
X111109317Y-89677191D01*
X111109317Y-89677191D02*
X111187413Y-89638143D01*
X111187413Y-89638143D02*
X111226460Y-89599096D01*
X111226460Y-89599096D02*
X111265508Y-89521000D01*
X111265508Y-89521000D02*
X111304555Y-89364810D01*
X111304555Y-89364810D02*
X111304555Y-89169572D01*
X111304555Y-89169572D02*
X111265508Y-89013381D01*
X111265508Y-89013381D02*
X111226460Y-88935286D01*
X111226460Y-88935286D02*
X111187413Y-88896239D01*
X111187413Y-88896239D02*
X111109317Y-88857191D01*
X111109317Y-88857191D02*
X111031222Y-88857191D01*
X111031222Y-88857191D02*
X110953127Y-88896239D01*
X110953127Y-88896239D02*
X110914079Y-88935286D01*
X110914079Y-88935286D02*
X110875032Y-89013381D01*
X110875032Y-89013381D02*
X110835984Y-89169572D01*
X110835984Y-89169572D02*
X110835984Y-89364810D01*
X110835984Y-89364810D02*
X110875032Y-89521000D01*
X110875032Y-89521000D02*
X110914079Y-89599096D01*
X110914079Y-89599096D02*
X110953127Y-89638143D01*
X110953127Y-89638143D02*
X111031222Y-89677191D01*
X112046460Y-89677191D02*
X111655984Y-89677191D01*
X111655984Y-89677191D02*
X111616936Y-89286715D01*
X111616936Y-89286715D02*
X111655984Y-89325762D01*
X111655984Y-89325762D02*
X111734079Y-89364810D01*
X111734079Y-89364810D02*
X111929317Y-89364810D01*
X111929317Y-89364810D02*
X112007412Y-89325762D01*
X112007412Y-89325762D02*
X112046460Y-89286715D01*
X112046460Y-89286715D02*
X112085507Y-89208619D01*
X112085507Y-89208619D02*
X112085507Y-89013381D01*
X112085507Y-89013381D02*
X112046460Y-88935286D01*
X112046460Y-88935286D02*
X112007412Y-88896239D01*
X112007412Y-88896239D02*
X111929317Y-88857191D01*
X111929317Y-88857191D02*
X111734079Y-88857191D01*
X111734079Y-88857191D02*
X111655984Y-88896239D01*
X111655984Y-88896239D02*
X111616936Y-88935286D01*
X120278808Y-122561651D02*
X119888332Y-122288318D01*
X120278808Y-122093080D02*
X119458808Y-122093080D01*
X119458808Y-122093080D02*
X119458808Y-122405461D01*
X119458808Y-122405461D02*
X119497856Y-122483556D01*
X119497856Y-122483556D02*
X119536903Y-122522603D01*
X119536903Y-122522603D02*
X119614999Y-122561651D01*
X119614999Y-122561651D02*
X119732141Y-122561651D01*
X119732141Y-122561651D02*
X119810237Y-122522603D01*
X119810237Y-122522603D02*
X119849284Y-122483556D01*
X119849284Y-122483556D02*
X119888332Y-122405461D01*
X119888332Y-122405461D02*
X119888332Y-122093080D01*
X119732141Y-123264508D02*
X120278808Y-123264508D01*
X119419761Y-123069270D02*
X120005475Y-122874032D01*
X120005475Y-122874032D02*
X120005475Y-123381651D01*
X119458808Y-123850222D02*
X119458808Y-123928317D01*
X119458808Y-123928317D02*
X119497856Y-124006413D01*
X119497856Y-124006413D02*
X119536903Y-124045460D01*
X119536903Y-124045460D02*
X119614999Y-124084508D01*
X119614999Y-124084508D02*
X119771189Y-124123555D01*
X119771189Y-124123555D02*
X119966427Y-124123555D01*
X119966427Y-124123555D02*
X120122618Y-124084508D01*
X120122618Y-124084508D02*
X120200713Y-124045460D01*
X120200713Y-124045460D02*
X120239761Y-124006413D01*
X120239761Y-124006413D02*
X120278808Y-123928317D01*
X120278808Y-123928317D02*
X120278808Y-123850222D01*
X120278808Y-123850222D02*
X120239761Y-123772127D01*
X120239761Y-123772127D02*
X120200713Y-123733079D01*
X120200713Y-123733079D02*
X120122618Y-123694032D01*
X120122618Y-123694032D02*
X119966427Y-123654984D01*
X119966427Y-123654984D02*
X119771189Y-123654984D01*
X119771189Y-123654984D02*
X119614999Y-123694032D01*
X119614999Y-123694032D02*
X119536903Y-123733079D01*
X119536903Y-123733079D02*
X119497856Y-123772127D01*
X119497856Y-123772127D02*
X119458808Y-123850222D01*
X120278808Y-124904507D02*
X120278808Y-124435936D01*
X120278808Y-124670222D02*
X119458808Y-124670222D01*
X119458808Y-124670222D02*
X119575951Y-124592126D01*
X119575951Y-124592126D02*
X119654046Y-124514031D01*
X119654046Y-124514031D02*
X119693094Y-124435936D01*
X99025651Y-104359191D02*
X98752318Y-104749667D01*
X98557080Y-104359191D02*
X98557080Y-105179191D01*
X98557080Y-105179191D02*
X98869461Y-105179191D01*
X98869461Y-105179191D02*
X98947556Y-105140143D01*
X98947556Y-105140143D02*
X98986603Y-105101096D01*
X98986603Y-105101096D02*
X99025651Y-105023000D01*
X99025651Y-105023000D02*
X99025651Y-104905858D01*
X99025651Y-104905858D02*
X98986603Y-104827762D01*
X98986603Y-104827762D02*
X98947556Y-104788715D01*
X98947556Y-104788715D02*
X98869461Y-104749667D01*
X98869461Y-104749667D02*
X98557080Y-104749667D01*
X99416127Y-104359191D02*
X99572318Y-104359191D01*
X99572318Y-104359191D02*
X99650413Y-104398239D01*
X99650413Y-104398239D02*
X99689461Y-104437286D01*
X99689461Y-104437286D02*
X99767556Y-104554429D01*
X99767556Y-104554429D02*
X99806603Y-104710619D01*
X99806603Y-104710619D02*
X99806603Y-105023000D01*
X99806603Y-105023000D02*
X99767556Y-105101096D01*
X99767556Y-105101096D02*
X99728508Y-105140143D01*
X99728508Y-105140143D02*
X99650413Y-105179191D01*
X99650413Y-105179191D02*
X99494222Y-105179191D01*
X99494222Y-105179191D02*
X99416127Y-105140143D01*
X99416127Y-105140143D02*
X99377080Y-105101096D01*
X99377080Y-105101096D02*
X99338032Y-105023000D01*
X99338032Y-105023000D02*
X99338032Y-104827762D01*
X99338032Y-104827762D02*
X99377080Y-104749667D01*
X99377080Y-104749667D02*
X99416127Y-104710619D01*
X99416127Y-104710619D02*
X99494222Y-104671572D01*
X99494222Y-104671572D02*
X99650413Y-104671572D01*
X99650413Y-104671572D02*
X99728508Y-104710619D01*
X99728508Y-104710619D02*
X99767556Y-104749667D01*
X99767556Y-104749667D02*
X99806603Y-104827762D01*
X100587555Y-104359191D02*
X100118984Y-104359191D01*
X100353270Y-104359191D02*
X100353270Y-105179191D01*
X100353270Y-105179191D02*
X100275174Y-105062048D01*
X100275174Y-105062048D02*
X100197079Y-104983953D01*
X100197079Y-104983953D02*
X100118984Y-104944905D01*
X100899936Y-105101096D02*
X100938984Y-105140143D01*
X100938984Y-105140143D02*
X101017079Y-105179191D01*
X101017079Y-105179191D02*
X101212317Y-105179191D01*
X101212317Y-105179191D02*
X101290412Y-105140143D01*
X101290412Y-105140143D02*
X101329460Y-105101096D01*
X101329460Y-105101096D02*
X101368507Y-105023000D01*
X101368507Y-105023000D02*
X101368507Y-104944905D01*
X101368507Y-104944905D02*
X101329460Y-104827762D01*
X101329460Y-104827762D02*
X100860888Y-104359191D01*
X100860888Y-104359191D02*
X101368507Y-104359191D01*
X109385651Y-104259191D02*
X109112318Y-104649667D01*
X108917080Y-104259191D02*
X108917080Y-105079191D01*
X108917080Y-105079191D02*
X109229461Y-105079191D01*
X109229461Y-105079191D02*
X109307556Y-105040143D01*
X109307556Y-105040143D02*
X109346603Y-105001096D01*
X109346603Y-105001096D02*
X109385651Y-104923000D01*
X109385651Y-104923000D02*
X109385651Y-104805858D01*
X109385651Y-104805858D02*
X109346603Y-104727762D01*
X109346603Y-104727762D02*
X109307556Y-104688715D01*
X109307556Y-104688715D02*
X109229461Y-104649667D01*
X109229461Y-104649667D02*
X108917080Y-104649667D01*
X109776127Y-104259191D02*
X109932318Y-104259191D01*
X109932318Y-104259191D02*
X110010413Y-104298239D01*
X110010413Y-104298239D02*
X110049461Y-104337286D01*
X110049461Y-104337286D02*
X110127556Y-104454429D01*
X110127556Y-104454429D02*
X110166603Y-104610619D01*
X110166603Y-104610619D02*
X110166603Y-104923000D01*
X110166603Y-104923000D02*
X110127556Y-105001096D01*
X110127556Y-105001096D02*
X110088508Y-105040143D01*
X110088508Y-105040143D02*
X110010413Y-105079191D01*
X110010413Y-105079191D02*
X109854222Y-105079191D01*
X109854222Y-105079191D02*
X109776127Y-105040143D01*
X109776127Y-105040143D02*
X109737080Y-105001096D01*
X109737080Y-105001096D02*
X109698032Y-104923000D01*
X109698032Y-104923000D02*
X109698032Y-104727762D01*
X109698032Y-104727762D02*
X109737080Y-104649667D01*
X109737080Y-104649667D02*
X109776127Y-104610619D01*
X109776127Y-104610619D02*
X109854222Y-104571572D01*
X109854222Y-104571572D02*
X110010413Y-104571572D01*
X110010413Y-104571572D02*
X110088508Y-104610619D01*
X110088508Y-104610619D02*
X110127556Y-104649667D01*
X110127556Y-104649667D02*
X110166603Y-104727762D01*
X110947555Y-104259191D02*
X110478984Y-104259191D01*
X110713270Y-104259191D02*
X110713270Y-105079191D01*
X110713270Y-105079191D02*
X110635174Y-104962048D01*
X110635174Y-104962048D02*
X110557079Y-104883953D01*
X110557079Y-104883953D02*
X110478984Y-104844905D01*
X111650412Y-104805858D02*
X111650412Y-104259191D01*
X111455174Y-105118239D02*
X111259936Y-104532524D01*
X111259936Y-104532524D02*
X111767555Y-104532524D01*
X88455651Y-58349191D02*
X88182318Y-58739667D01*
X87987080Y-58349191D02*
X87987080Y-59169191D01*
X87987080Y-59169191D02*
X88299461Y-59169191D01*
X88299461Y-59169191D02*
X88377556Y-59130143D01*
X88377556Y-59130143D02*
X88416603Y-59091096D01*
X88416603Y-59091096D02*
X88455651Y-59013000D01*
X88455651Y-59013000D02*
X88455651Y-58895858D01*
X88455651Y-58895858D02*
X88416603Y-58817762D01*
X88416603Y-58817762D02*
X88377556Y-58778715D01*
X88377556Y-58778715D02*
X88299461Y-58739667D01*
X88299461Y-58739667D02*
X87987080Y-58739667D01*
X88846127Y-58349191D02*
X89002318Y-58349191D01*
X89002318Y-58349191D02*
X89080413Y-58388239D01*
X89080413Y-58388239D02*
X89119461Y-58427286D01*
X89119461Y-58427286D02*
X89197556Y-58544429D01*
X89197556Y-58544429D02*
X89236603Y-58700619D01*
X89236603Y-58700619D02*
X89236603Y-59013000D01*
X89236603Y-59013000D02*
X89197556Y-59091096D01*
X89197556Y-59091096D02*
X89158508Y-59130143D01*
X89158508Y-59130143D02*
X89080413Y-59169191D01*
X89080413Y-59169191D02*
X88924222Y-59169191D01*
X88924222Y-59169191D02*
X88846127Y-59130143D01*
X88846127Y-59130143D02*
X88807080Y-59091096D01*
X88807080Y-59091096D02*
X88768032Y-59013000D01*
X88768032Y-59013000D02*
X88768032Y-58817762D01*
X88768032Y-58817762D02*
X88807080Y-58739667D01*
X88807080Y-58739667D02*
X88846127Y-58700619D01*
X88846127Y-58700619D02*
X88924222Y-58661572D01*
X88924222Y-58661572D02*
X89080413Y-58661572D01*
X89080413Y-58661572D02*
X89158508Y-58700619D01*
X89158508Y-58700619D02*
X89197556Y-58739667D01*
X89197556Y-58739667D02*
X89236603Y-58817762D01*
X89744222Y-59169191D02*
X89822317Y-59169191D01*
X89822317Y-59169191D02*
X89900413Y-59130143D01*
X89900413Y-59130143D02*
X89939460Y-59091096D01*
X89939460Y-59091096D02*
X89978508Y-59013000D01*
X89978508Y-59013000D02*
X90017555Y-58856810D01*
X90017555Y-58856810D02*
X90017555Y-58661572D01*
X90017555Y-58661572D02*
X89978508Y-58505381D01*
X89978508Y-58505381D02*
X89939460Y-58427286D01*
X89939460Y-58427286D02*
X89900413Y-58388239D01*
X89900413Y-58388239D02*
X89822317Y-58349191D01*
X89822317Y-58349191D02*
X89744222Y-58349191D01*
X89744222Y-58349191D02*
X89666127Y-58388239D01*
X89666127Y-58388239D02*
X89627079Y-58427286D01*
X89627079Y-58427286D02*
X89588032Y-58505381D01*
X89588032Y-58505381D02*
X89548984Y-58661572D01*
X89548984Y-58661572D02*
X89548984Y-58856810D01*
X89548984Y-58856810D02*
X89588032Y-59013000D01*
X89588032Y-59013000D02*
X89627079Y-59091096D01*
X89627079Y-59091096D02*
X89666127Y-59130143D01*
X89666127Y-59130143D02*
X89744222Y-59169191D01*
X90329936Y-59091096D02*
X90368984Y-59130143D01*
X90368984Y-59130143D02*
X90447079Y-59169191D01*
X90447079Y-59169191D02*
X90642317Y-59169191D01*
X90642317Y-59169191D02*
X90720412Y-59130143D01*
X90720412Y-59130143D02*
X90759460Y-59091096D01*
X90759460Y-59091096D02*
X90798507Y-59013000D01*
X90798507Y-59013000D02*
X90798507Y-58934905D01*
X90798507Y-58934905D02*
X90759460Y-58817762D01*
X90759460Y-58817762D02*
X90290888Y-58349191D01*
X90290888Y-58349191D02*
X90798507Y-58349191D01*
X127457808Y-122304651D02*
X127067332Y-122031318D01*
X127457808Y-121836080D02*
X126637808Y-121836080D01*
X126637808Y-121836080D02*
X126637808Y-122148461D01*
X126637808Y-122148461D02*
X126676856Y-122226556D01*
X126676856Y-122226556D02*
X126715903Y-122265603D01*
X126715903Y-122265603D02*
X126793999Y-122304651D01*
X126793999Y-122304651D02*
X126911141Y-122304651D01*
X126911141Y-122304651D02*
X126989237Y-122265603D01*
X126989237Y-122265603D02*
X127028284Y-122226556D01*
X127028284Y-122226556D02*
X127067332Y-122148461D01*
X127067332Y-122148461D02*
X127067332Y-121836080D01*
X126911141Y-123007508D02*
X127457808Y-123007508D01*
X126598761Y-122812270D02*
X127184475Y-122617032D01*
X127184475Y-122617032D02*
X127184475Y-123124651D01*
X126637808Y-123593222D02*
X126637808Y-123671317D01*
X126637808Y-123671317D02*
X126676856Y-123749413D01*
X126676856Y-123749413D02*
X126715903Y-123788460D01*
X126715903Y-123788460D02*
X126793999Y-123827508D01*
X126793999Y-123827508D02*
X126950189Y-123866555D01*
X126950189Y-123866555D02*
X127145427Y-123866555D01*
X127145427Y-123866555D02*
X127301618Y-123827508D01*
X127301618Y-123827508D02*
X127379713Y-123788460D01*
X127379713Y-123788460D02*
X127418761Y-123749413D01*
X127418761Y-123749413D02*
X127457808Y-123671317D01*
X127457808Y-123671317D02*
X127457808Y-123593222D01*
X127457808Y-123593222D02*
X127418761Y-123515127D01*
X127418761Y-123515127D02*
X127379713Y-123476079D01*
X127379713Y-123476079D02*
X127301618Y-123437032D01*
X127301618Y-123437032D02*
X127145427Y-123397984D01*
X127145427Y-123397984D02*
X126950189Y-123397984D01*
X126950189Y-123397984D02*
X126793999Y-123437032D01*
X126793999Y-123437032D02*
X126715903Y-123476079D01*
X126715903Y-123476079D02*
X126676856Y-123515127D01*
X126676856Y-123515127D02*
X126637808Y-123593222D01*
X126637808Y-124569412D02*
X126637808Y-124413222D01*
X126637808Y-124413222D02*
X126676856Y-124335126D01*
X126676856Y-124335126D02*
X126715903Y-124296079D01*
X126715903Y-124296079D02*
X126833046Y-124217984D01*
X126833046Y-124217984D02*
X126989237Y-124178936D01*
X126989237Y-124178936D02*
X127301618Y-124178936D01*
X127301618Y-124178936D02*
X127379713Y-124217984D01*
X127379713Y-124217984D02*
X127418761Y-124257031D01*
X127418761Y-124257031D02*
X127457808Y-124335126D01*
X127457808Y-124335126D02*
X127457808Y-124491317D01*
X127457808Y-124491317D02*
X127418761Y-124569412D01*
X127418761Y-124569412D02*
X127379713Y-124608460D01*
X127379713Y-124608460D02*
X127301618Y-124647507D01*
X127301618Y-124647507D02*
X127106380Y-124647507D01*
X127106380Y-124647507D02*
X127028284Y-124608460D01*
X127028284Y-124608460D02*
X126989237Y-124569412D01*
X126989237Y-124569412D02*
X126950189Y-124491317D01*
X126950189Y-124491317D02*
X126950189Y-124335126D01*
X126950189Y-124335126D02*
X126989237Y-124257031D01*
X126989237Y-124257031D02*
X127028284Y-124217984D01*
X127028284Y-124217984D02*
X127106380Y-124178936D01*
X88577372Y-89212191D02*
X88304039Y-89602667D01*
X88108801Y-89212191D02*
X88108801Y-90032191D01*
X88108801Y-90032191D02*
X88421182Y-90032191D01*
X88421182Y-90032191D02*
X88499277Y-89993143D01*
X88499277Y-89993143D02*
X88538324Y-89954096D01*
X88538324Y-89954096D02*
X88577372Y-89876000D01*
X88577372Y-89876000D02*
X88577372Y-89758858D01*
X88577372Y-89758858D02*
X88538324Y-89680762D01*
X88538324Y-89680762D02*
X88499277Y-89641715D01*
X88499277Y-89641715D02*
X88421182Y-89602667D01*
X88421182Y-89602667D02*
X88108801Y-89602667D01*
X88967848Y-89212191D02*
X89124039Y-89212191D01*
X89124039Y-89212191D02*
X89202134Y-89251239D01*
X89202134Y-89251239D02*
X89241182Y-89290286D01*
X89241182Y-89290286D02*
X89319277Y-89407429D01*
X89319277Y-89407429D02*
X89358324Y-89563619D01*
X89358324Y-89563619D02*
X89358324Y-89876000D01*
X89358324Y-89876000D02*
X89319277Y-89954096D01*
X89319277Y-89954096D02*
X89280229Y-89993143D01*
X89280229Y-89993143D02*
X89202134Y-90032191D01*
X89202134Y-90032191D02*
X89045943Y-90032191D01*
X89045943Y-90032191D02*
X88967848Y-89993143D01*
X88967848Y-89993143D02*
X88928801Y-89954096D01*
X88928801Y-89954096D02*
X88889753Y-89876000D01*
X88889753Y-89876000D02*
X88889753Y-89680762D01*
X88889753Y-89680762D02*
X88928801Y-89602667D01*
X88928801Y-89602667D02*
X88967848Y-89563619D01*
X88967848Y-89563619D02*
X89045943Y-89524572D01*
X89045943Y-89524572D02*
X89202134Y-89524572D01*
X89202134Y-89524572D02*
X89280229Y-89563619D01*
X89280229Y-89563619D02*
X89319277Y-89602667D01*
X89319277Y-89602667D02*
X89358324Y-89680762D01*
X89865943Y-90032191D02*
X89944038Y-90032191D01*
X89944038Y-90032191D02*
X90022134Y-89993143D01*
X90022134Y-89993143D02*
X90061181Y-89954096D01*
X90061181Y-89954096D02*
X90100229Y-89876000D01*
X90100229Y-89876000D02*
X90139276Y-89719810D01*
X90139276Y-89719810D02*
X90139276Y-89524572D01*
X90139276Y-89524572D02*
X90100229Y-89368381D01*
X90100229Y-89368381D02*
X90061181Y-89290286D01*
X90061181Y-89290286D02*
X90022134Y-89251239D01*
X90022134Y-89251239D02*
X89944038Y-89212191D01*
X89944038Y-89212191D02*
X89865943Y-89212191D01*
X89865943Y-89212191D02*
X89787848Y-89251239D01*
X89787848Y-89251239D02*
X89748800Y-89290286D01*
X89748800Y-89290286D02*
X89709753Y-89368381D01*
X89709753Y-89368381D02*
X89670705Y-89524572D01*
X89670705Y-89524572D02*
X89670705Y-89719810D01*
X89670705Y-89719810D02*
X89709753Y-89876000D01*
X89709753Y-89876000D02*
X89748800Y-89954096D01*
X89748800Y-89954096D02*
X89787848Y-89993143D01*
X89787848Y-89993143D02*
X89865943Y-90032191D01*
X90842133Y-89758858D02*
X90842133Y-89212191D01*
X90646895Y-90071239D02*
X90451657Y-89485524D01*
X90451657Y-89485524D02*
X90959276Y-89485524D01*
X124514808Y-122521651D02*
X124124332Y-122248318D01*
X124514808Y-122053080D02*
X123694808Y-122053080D01*
X123694808Y-122053080D02*
X123694808Y-122365461D01*
X123694808Y-122365461D02*
X123733856Y-122443556D01*
X123733856Y-122443556D02*
X123772903Y-122482603D01*
X123772903Y-122482603D02*
X123850999Y-122521651D01*
X123850999Y-122521651D02*
X123968141Y-122521651D01*
X123968141Y-122521651D02*
X124046237Y-122482603D01*
X124046237Y-122482603D02*
X124085284Y-122443556D01*
X124085284Y-122443556D02*
X124124332Y-122365461D01*
X124124332Y-122365461D02*
X124124332Y-122053080D01*
X123968141Y-123224508D02*
X124514808Y-123224508D01*
X123655761Y-123029270D02*
X124241475Y-122834032D01*
X124241475Y-122834032D02*
X124241475Y-123341651D01*
X123694808Y-123810222D02*
X123694808Y-123888317D01*
X123694808Y-123888317D02*
X123733856Y-123966413D01*
X123733856Y-123966413D02*
X123772903Y-124005460D01*
X123772903Y-124005460D02*
X123850999Y-124044508D01*
X123850999Y-124044508D02*
X124007189Y-124083555D01*
X124007189Y-124083555D02*
X124202427Y-124083555D01*
X124202427Y-124083555D02*
X124358618Y-124044508D01*
X124358618Y-124044508D02*
X124436713Y-124005460D01*
X124436713Y-124005460D02*
X124475761Y-123966413D01*
X124475761Y-123966413D02*
X124514808Y-123888317D01*
X124514808Y-123888317D02*
X124514808Y-123810222D01*
X124514808Y-123810222D02*
X124475761Y-123732127D01*
X124475761Y-123732127D02*
X124436713Y-123693079D01*
X124436713Y-123693079D02*
X124358618Y-123654032D01*
X124358618Y-123654032D02*
X124202427Y-123614984D01*
X124202427Y-123614984D02*
X124007189Y-123614984D01*
X124007189Y-123614984D02*
X123850999Y-123654032D01*
X123850999Y-123654032D02*
X123772903Y-123693079D01*
X123772903Y-123693079D02*
X123733856Y-123732127D01*
X123733856Y-123732127D02*
X123694808Y-123810222D01*
X123968141Y-124786412D02*
X124514808Y-124786412D01*
X123655761Y-124591174D02*
X124241475Y-124395936D01*
X124241475Y-124395936D02*
X124241475Y-124903555D01*
X88365651Y-104259191D02*
X88092318Y-104649667D01*
X87897080Y-104259191D02*
X87897080Y-105079191D01*
X87897080Y-105079191D02*
X88209461Y-105079191D01*
X88209461Y-105079191D02*
X88287556Y-105040143D01*
X88287556Y-105040143D02*
X88326603Y-105001096D01*
X88326603Y-105001096D02*
X88365651Y-104923000D01*
X88365651Y-104923000D02*
X88365651Y-104805858D01*
X88365651Y-104805858D02*
X88326603Y-104727762D01*
X88326603Y-104727762D02*
X88287556Y-104688715D01*
X88287556Y-104688715D02*
X88209461Y-104649667D01*
X88209461Y-104649667D02*
X87897080Y-104649667D01*
X88756127Y-104259191D02*
X88912318Y-104259191D01*
X88912318Y-104259191D02*
X88990413Y-104298239D01*
X88990413Y-104298239D02*
X89029461Y-104337286D01*
X89029461Y-104337286D02*
X89107556Y-104454429D01*
X89107556Y-104454429D02*
X89146603Y-104610619D01*
X89146603Y-104610619D02*
X89146603Y-104923000D01*
X89146603Y-104923000D02*
X89107556Y-105001096D01*
X89107556Y-105001096D02*
X89068508Y-105040143D01*
X89068508Y-105040143D02*
X88990413Y-105079191D01*
X88990413Y-105079191D02*
X88834222Y-105079191D01*
X88834222Y-105079191D02*
X88756127Y-105040143D01*
X88756127Y-105040143D02*
X88717080Y-105001096D01*
X88717080Y-105001096D02*
X88678032Y-104923000D01*
X88678032Y-104923000D02*
X88678032Y-104727762D01*
X88678032Y-104727762D02*
X88717080Y-104649667D01*
X88717080Y-104649667D02*
X88756127Y-104610619D01*
X88756127Y-104610619D02*
X88834222Y-104571572D01*
X88834222Y-104571572D02*
X88990413Y-104571572D01*
X88990413Y-104571572D02*
X89068508Y-104610619D01*
X89068508Y-104610619D02*
X89107556Y-104649667D01*
X89107556Y-104649667D02*
X89146603Y-104727762D01*
X89654222Y-105079191D02*
X89732317Y-105079191D01*
X89732317Y-105079191D02*
X89810413Y-105040143D01*
X89810413Y-105040143D02*
X89849460Y-105001096D01*
X89849460Y-105001096D02*
X89888508Y-104923000D01*
X89888508Y-104923000D02*
X89927555Y-104766810D01*
X89927555Y-104766810D02*
X89927555Y-104571572D01*
X89927555Y-104571572D02*
X89888508Y-104415381D01*
X89888508Y-104415381D02*
X89849460Y-104337286D01*
X89849460Y-104337286D02*
X89810413Y-104298239D01*
X89810413Y-104298239D02*
X89732317Y-104259191D01*
X89732317Y-104259191D02*
X89654222Y-104259191D01*
X89654222Y-104259191D02*
X89576127Y-104298239D01*
X89576127Y-104298239D02*
X89537079Y-104337286D01*
X89537079Y-104337286D02*
X89498032Y-104415381D01*
X89498032Y-104415381D02*
X89458984Y-104571572D01*
X89458984Y-104571572D02*
X89458984Y-104766810D01*
X89458984Y-104766810D02*
X89498032Y-104923000D01*
X89498032Y-104923000D02*
X89537079Y-105001096D01*
X89537079Y-105001096D02*
X89576127Y-105040143D01*
X89576127Y-105040143D02*
X89654222Y-105079191D01*
X90708507Y-104259191D02*
X90239936Y-104259191D01*
X90474222Y-104259191D02*
X90474222Y-105079191D01*
X90474222Y-105079191D02*
X90396126Y-104962048D01*
X90396126Y-104962048D02*
X90318031Y-104883953D01*
X90318031Y-104883953D02*
X90239936Y-104844905D01*
X109252651Y-73049191D02*
X108979318Y-73439667D01*
X108784080Y-73049191D02*
X108784080Y-73869191D01*
X108784080Y-73869191D02*
X109096461Y-73869191D01*
X109096461Y-73869191D02*
X109174556Y-73830143D01*
X109174556Y-73830143D02*
X109213603Y-73791096D01*
X109213603Y-73791096D02*
X109252651Y-73713000D01*
X109252651Y-73713000D02*
X109252651Y-73595858D01*
X109252651Y-73595858D02*
X109213603Y-73517762D01*
X109213603Y-73517762D02*
X109174556Y-73478715D01*
X109174556Y-73478715D02*
X109096461Y-73439667D01*
X109096461Y-73439667D02*
X108784080Y-73439667D01*
X109643127Y-73049191D02*
X109799318Y-73049191D01*
X109799318Y-73049191D02*
X109877413Y-73088239D01*
X109877413Y-73088239D02*
X109916461Y-73127286D01*
X109916461Y-73127286D02*
X109994556Y-73244429D01*
X109994556Y-73244429D02*
X110033603Y-73400619D01*
X110033603Y-73400619D02*
X110033603Y-73713000D01*
X110033603Y-73713000D02*
X109994556Y-73791096D01*
X109994556Y-73791096D02*
X109955508Y-73830143D01*
X109955508Y-73830143D02*
X109877413Y-73869191D01*
X109877413Y-73869191D02*
X109721222Y-73869191D01*
X109721222Y-73869191D02*
X109643127Y-73830143D01*
X109643127Y-73830143D02*
X109604080Y-73791096D01*
X109604080Y-73791096D02*
X109565032Y-73713000D01*
X109565032Y-73713000D02*
X109565032Y-73517762D01*
X109565032Y-73517762D02*
X109604080Y-73439667D01*
X109604080Y-73439667D02*
X109643127Y-73400619D01*
X109643127Y-73400619D02*
X109721222Y-73361572D01*
X109721222Y-73361572D02*
X109877413Y-73361572D01*
X109877413Y-73361572D02*
X109955508Y-73400619D01*
X109955508Y-73400619D02*
X109994556Y-73439667D01*
X109994556Y-73439667D02*
X110033603Y-73517762D01*
X110814555Y-73049191D02*
X110345984Y-73049191D01*
X110580270Y-73049191D02*
X110580270Y-73869191D01*
X110580270Y-73869191D02*
X110502174Y-73752048D01*
X110502174Y-73752048D02*
X110424079Y-73673953D01*
X110424079Y-73673953D02*
X110345984Y-73634905D01*
X111556460Y-73869191D02*
X111165984Y-73869191D01*
X111165984Y-73869191D02*
X111126936Y-73478715D01*
X111126936Y-73478715D02*
X111165984Y-73517762D01*
X111165984Y-73517762D02*
X111244079Y-73556810D01*
X111244079Y-73556810D02*
X111439317Y-73556810D01*
X111439317Y-73556810D02*
X111517412Y-73517762D01*
X111517412Y-73517762D02*
X111556460Y-73478715D01*
X111556460Y-73478715D02*
X111595507Y-73400619D01*
X111595507Y-73400619D02*
X111595507Y-73205381D01*
X111595507Y-73205381D02*
X111556460Y-73127286D01*
X111556460Y-73127286D02*
X111517412Y-73088239D01*
X111517412Y-73088239D02*
X111439317Y-73049191D01*
X111439317Y-73049191D02*
X111244079Y-73049191D01*
X111244079Y-73049191D02*
X111165984Y-73088239D01*
X111165984Y-73088239D02*
X111126936Y-73127286D01*
D12*
%TO.C,G\u002A\u002A\u002A*%
G36*
X166558011Y-129747154D02*
G01*
X166542946Y-129762220D01*
X166527881Y-129747154D01*
X166542946Y-129732089D01*
X166558011Y-129747154D01*
G37*
G36*
X164840573Y-127909195D02*
G01*
X164825508Y-127924260D01*
X164810443Y-127909195D01*
X164825508Y-127894130D01*
X164840573Y-127909195D01*
G37*
G36*
X164689921Y-128602196D02*
G01*
X164674856Y-128617261D01*
X164659790Y-128602196D01*
X164674856Y-128587131D01*
X164689921Y-128602196D01*
G37*
G36*
X164659790Y-126252018D02*
G01*
X164644725Y-126267083D01*
X164629660Y-126252018D01*
X164644725Y-126236953D01*
X164659790Y-126252018D01*
G37*
G36*
X166497750Y-129732089D02*
G01*
X166495576Y-129748040D01*
X166477663Y-129752176D01*
X166474057Y-129747760D01*
X166477663Y-129712002D01*
X166486726Y-129707288D01*
X166497750Y-129732089D01*
G37*
G36*
X166035052Y-126372008D02*
G01*
X166058921Y-126408904D01*
X166061066Y-126414620D01*
X166067388Y-126444811D01*
X166042054Y-126425770D01*
X166024861Y-126403616D01*
X166021481Y-126371743D01*
X166035052Y-126372008D01*
G37*
G36*
X164961095Y-127895075D02*
G01*
X164956004Y-127908492D01*
X164915900Y-127924260D01*
X164895308Y-127922951D01*
X164870704Y-127912418D01*
X164876255Y-127904620D01*
X164915900Y-127883234D01*
X164939009Y-127878497D01*
X164961095Y-127895075D01*
G37*
G36*
X159744973Y-129781592D02*
G01*
X159772982Y-129830359D01*
X159768620Y-129866507D01*
X159720600Y-129882742D01*
X159677981Y-129871784D01*
X159658130Y-129820271D01*
X159665995Y-129788057D01*
X159701544Y-129766810D01*
X159744973Y-129781592D01*
G37*
G36*
X158690406Y-129781592D02*
G01*
X158718415Y-129830359D01*
X158714053Y-129866507D01*
X158666033Y-129882742D01*
X158623414Y-129871784D01*
X158603563Y-129820271D01*
X158611428Y-129788057D01*
X158646977Y-129766810D01*
X158690406Y-129781592D01*
G37*
G36*
X157155556Y-129822481D02*
G01*
X157167224Y-129877239D01*
X157165840Y-129920405D01*
X157147849Y-129942437D01*
X157133216Y-129921273D01*
X157130172Y-129845079D01*
X157133337Y-129783016D01*
X157140283Y-129776669D01*
X157155556Y-129822481D01*
G37*
G36*
X159929304Y-128557000D02*
G01*
X159929304Y-128707653D01*
X159827362Y-128707653D01*
X159796697Y-128705896D01*
X159727885Y-128676171D01*
X159699357Y-128606394D01*
X159708741Y-128492259D01*
X159721518Y-128446924D01*
X159755680Y-128413880D01*
X159827614Y-128406348D01*
X159929304Y-128406348D01*
X159929304Y-128557000D01*
G37*
G36*
X155138557Y-127365114D02*
G01*
X155138557Y-127502433D01*
X155018609Y-127502433D01*
X154947122Y-127498429D01*
X154901964Y-127477581D01*
X154880353Y-127429490D01*
X154870220Y-127381523D01*
X154872538Y-127300364D01*
X154917107Y-127255571D01*
X155010762Y-127237059D01*
X155138557Y-127227794D01*
X155138557Y-127365114D01*
G37*
G36*
X160163229Y-129784595D02*
G01*
X160189835Y-129847753D01*
X160200017Y-129950535D01*
X160193314Y-130010760D01*
X160167313Y-130059525D01*
X160131937Y-130063593D01*
X160098245Y-130015865D01*
X160088121Y-129980721D01*
X160080355Y-129896627D01*
X160089345Y-129819492D01*
X160113456Y-129775203D01*
X160124644Y-129770065D01*
X160163229Y-129784595D01*
G37*
G36*
X157719844Y-129763746D02*
G01*
X157752917Y-129800801D01*
X157777498Y-129870786D01*
X157787858Y-129951466D01*
X157778269Y-130020608D01*
X157749049Y-130060259D01*
X157717387Y-130048930D01*
X157690517Y-129993853D01*
X157675399Y-129902984D01*
X157673316Y-129826339D01*
X157683804Y-129776149D01*
X157711697Y-129762220D01*
X157719844Y-129763746D01*
G37*
G36*
X156036116Y-129781862D02*
G01*
X156063704Y-129851698D01*
X156072602Y-129975597D01*
X156070571Y-130021143D01*
X156053754Y-130081348D01*
X156023294Y-130087002D01*
X155983270Y-130035375D01*
X155972915Y-130012281D01*
X155954832Y-129933737D01*
X155952868Y-129852164D01*
X155966212Y-129788134D01*
X155994052Y-129762220D01*
X156036116Y-129781862D01*
G37*
G36*
X154961298Y-129771506D02*
G01*
X154995053Y-129822735D01*
X155022311Y-129899892D01*
X155036280Y-129981288D01*
X155030169Y-130045233D01*
X155001160Y-130087572D01*
X154963786Y-130080004D01*
X154926898Y-130016367D01*
X154905877Y-129942797D01*
X154897676Y-129853972D01*
X154909898Y-129788032D01*
X154941547Y-129762220D01*
X154961298Y-129771506D01*
G37*
G36*
X158513171Y-128521848D02*
G01*
X158512874Y-128541263D01*
X158505605Y-128617165D01*
X158491650Y-128658869D01*
X158488639Y-128661181D01*
X158440376Y-128671867D01*
X158363596Y-128671424D01*
X158330422Y-128668196D01*
X158279537Y-128653700D01*
X158257087Y-128615126D01*
X158247797Y-128534402D01*
X158238532Y-128406348D01*
X158375852Y-128406348D01*
X158513171Y-128406348D01*
X158513171Y-128521848D01*
G37*
G36*
X160742827Y-127345027D02*
G01*
X160742489Y-127366049D01*
X160735174Y-127442153D01*
X160721306Y-127483780D01*
X160718295Y-127486092D01*
X160670032Y-127496778D01*
X160593252Y-127496335D01*
X160565296Y-127493744D01*
X160511377Y-127480481D01*
X160490317Y-127444420D01*
X160486718Y-127366846D01*
X160487251Y-127318075D01*
X160497669Y-127266888D01*
X160534571Y-127245563D01*
X160614773Y-127237059D01*
X160742827Y-127227794D01*
X160742827Y-127345027D01*
G37*
G36*
X164642379Y-128705447D02*
G01*
X164658296Y-128762736D01*
X164653081Y-128830212D01*
X164627279Y-128874842D01*
X164621282Y-128880441D01*
X164607972Y-128937075D01*
X164614851Y-129040949D01*
X164620277Y-129089674D01*
X164623036Y-129172032D01*
X164615453Y-129218482D01*
X164609178Y-129227775D01*
X164581547Y-129249264D01*
X164572967Y-129227404D01*
X164575409Y-129192497D01*
X164552959Y-129113357D01*
X164484754Y-129024023D01*
X164441319Y-128975047D01*
X164389638Y-128897369D01*
X164383148Y-128838977D01*
X164419009Y-128789745D01*
X164501378Y-128729497D01*
X164579005Y-128693110D01*
X164630283Y-128692972D01*
X164642379Y-128705447D01*
G37*
G36*
X164763511Y-127927070D02*
G01*
X164759683Y-127936345D01*
X164778534Y-127954390D01*
X164788417Y-127956061D01*
X164810443Y-127988210D01*
X164802686Y-128004689D01*
X164765247Y-127984521D01*
X164764891Y-127984226D01*
X164729040Y-127962147D01*
X164720051Y-127985043D01*
X164710144Y-128014412D01*
X164667323Y-128061629D01*
X164635977Y-128090136D01*
X164610828Y-128132745D01*
X164610149Y-128138424D01*
X164602834Y-128187902D01*
X164596233Y-128193271D01*
X164571467Y-128167618D01*
X164565975Y-128134471D01*
X164585796Y-128070806D01*
X164625005Y-128012121D01*
X164669101Y-127985468D01*
X164675781Y-127983884D01*
X164676973Y-127957816D01*
X164679241Y-127938505D01*
X164720432Y-127915430D01*
X164753915Y-127911627D01*
X164763511Y-127927070D01*
G37*
G36*
X164978863Y-127971071D02*
G01*
X164996266Y-127986189D01*
X164968628Y-128006222D01*
X164954770Y-128013364D01*
X164930965Y-128050765D01*
X164936553Y-128060035D01*
X164988971Y-128069182D01*
X165092847Y-128061630D01*
X165171009Y-128052928D01*
X165228859Y-128053561D01*
X165255638Y-128071382D01*
X165267261Y-128110887D01*
X165273552Y-128189093D01*
X165256608Y-128259617D01*
X165214995Y-128285826D01*
X165196252Y-128282792D01*
X165172009Y-128255695D01*
X165168099Y-128242998D01*
X165130278Y-128225565D01*
X165099629Y-128236825D01*
X165049267Y-128288267D01*
X165008202Y-128361457D01*
X164991226Y-128434199D01*
X164990638Y-128441909D01*
X164963596Y-128504594D01*
X164908675Y-128570846D01*
X164895549Y-128582857D01*
X164828135Y-128635367D01*
X164791420Y-128641399D01*
X164780312Y-128602196D01*
X164775699Y-128581226D01*
X164740159Y-128557000D01*
X164717774Y-128547860D01*
X164663321Y-128502579D01*
X164599660Y-128432133D01*
X164551383Y-128370473D01*
X164522722Y-128322789D01*
X164525376Y-128293275D01*
X164555181Y-128266415D01*
X164612573Y-128232073D01*
X164649096Y-128237015D01*
X164659790Y-128291507D01*
X164659790Y-128357450D01*
X164723320Y-128289259D01*
X164786849Y-128221068D01*
X164723320Y-128161882D01*
X164694164Y-128133689D01*
X164664758Y-128093787D01*
X164687082Y-128081521D01*
X164764122Y-128091755D01*
X164829479Y-128100883D01*
X164857809Y-128089920D01*
X164856805Y-128050839D01*
X164860114Y-128006372D01*
X164909343Y-127973566D01*
X164931542Y-127969198D01*
X164978863Y-127971071D01*
G37*
G36*
X167823491Y-126107008D02*
G01*
X167823491Y-126186735D01*
X167823491Y-126716964D01*
X167823491Y-128541935D01*
X167823491Y-129032834D01*
X167823491Y-129584492D01*
X167823491Y-129686893D01*
X167823491Y-129732089D01*
X167823491Y-129804905D01*
X167823491Y-129867676D01*
X167823491Y-129926930D01*
X167823491Y-130108720D01*
X167823491Y-130229242D01*
X167823491Y-130253697D01*
X167823491Y-131359135D01*
X160321000Y-131359135D01*
X152818509Y-131359135D01*
X152818509Y-130440156D01*
X162671178Y-130440156D01*
X162686244Y-130455221D01*
X162701309Y-130440156D01*
X162686244Y-130425090D01*
X162671178Y-130440156D01*
X152818509Y-130440156D01*
X152818509Y-130421395D01*
X162740059Y-130421395D01*
X162744103Y-130440156D01*
X162772743Y-130573023D01*
X162848757Y-130707795D01*
X162968328Y-130831852D01*
X162987620Y-130846608D01*
X163018780Y-130862539D01*
X163063244Y-130874801D01*
X163128836Y-130884140D01*
X163223383Y-130891302D01*
X163354709Y-130897032D01*
X163530640Y-130902076D01*
X163759001Y-130907178D01*
X163897875Y-130909949D01*
X164085114Y-130913217D01*
X164245099Y-130915454D01*
X164369582Y-130916567D01*
X164450314Y-130916467D01*
X164479050Y-130915063D01*
X164465300Y-130889195D01*
X164426566Y-130821677D01*
X164368883Y-130722989D01*
X164298299Y-130603548D01*
X164138522Y-130334464D01*
X164624245Y-130334464D01*
X164739942Y-130443838D01*
X164761605Y-130464464D01*
X164839117Y-130539181D01*
X164943952Y-130641023D01*
X165065111Y-130759287D01*
X165191594Y-130883269D01*
X165223956Y-130915063D01*
X165527548Y-131213328D01*
X165527548Y-131107447D01*
X165527614Y-131098756D01*
X165533927Y-131019545D01*
X165547405Y-130969437D01*
X165555981Y-130963062D01*
X165615688Y-130949428D01*
X165721730Y-130940507D01*
X165864151Y-130937309D01*
X166161040Y-130937309D01*
X166190859Y-130860117D01*
X166377228Y-130860117D01*
X166378371Y-130864601D01*
X166409137Y-130877048D01*
X166420035Y-130874682D01*
X166422424Y-130846917D01*
X166417716Y-130835246D01*
X166435711Y-130816787D01*
X166452953Y-130808128D01*
X166467620Y-130762552D01*
X166470786Y-130732623D01*
X166492669Y-130679693D01*
X166497495Y-130673349D01*
X166526532Y-130620758D01*
X166564508Y-130538858D01*
X166604525Y-130444424D01*
X166639684Y-130354235D01*
X166663087Y-130285067D01*
X166667835Y-130253697D01*
X166660118Y-130257038D01*
X166632370Y-130297814D01*
X166594956Y-130370789D01*
X166531627Y-130507236D01*
X166461059Y-130660944D01*
X166413145Y-130767979D01*
X166385872Y-130832862D01*
X166377228Y-130860117D01*
X166190859Y-130860117D01*
X166257063Y-130688732D01*
X166267911Y-130660571D01*
X166328587Y-130500657D01*
X166391628Y-130331097D01*
X166428839Y-130229242D01*
X166979838Y-130229242D01*
X166994903Y-130244307D01*
X167009968Y-130229242D01*
X166994903Y-130214177D01*
X166979838Y-130229242D01*
X166428839Y-130229242D01*
X166438152Y-130203750D01*
X166688193Y-130203750D01*
X166690505Y-130204088D01*
X166709511Y-130176089D01*
X166737425Y-130114808D01*
X166739787Y-130108720D01*
X167040099Y-130108720D01*
X167055164Y-130123786D01*
X167070229Y-130108720D01*
X167055164Y-130093655D01*
X167040099Y-130108720D01*
X166739787Y-130108720D01*
X166766526Y-130039810D01*
X166789095Y-129970662D01*
X166797412Y-129926930D01*
X166791528Y-129927910D01*
X166769153Y-129968905D01*
X166736096Y-130044894D01*
X166714114Y-130102214D01*
X166691912Y-130171738D01*
X166688193Y-130203750D01*
X166438152Y-130203750D01*
X166453079Y-130162891D01*
X166508988Y-130007038D01*
X166555401Y-129874537D01*
X166557705Y-129867676D01*
X167160621Y-129867676D01*
X167175686Y-129882742D01*
X167190751Y-129867676D01*
X167175686Y-129852611D01*
X167160621Y-129867676D01*
X166557705Y-129867676D01*
X166579050Y-129804124D01*
X166833919Y-129804124D01*
X166841112Y-129844451D01*
X166851398Y-129843984D01*
X166856937Y-129804905D01*
X166852112Y-129775288D01*
X166838733Y-129786701D01*
X166833919Y-129804124D01*
X166579050Y-129804124D01*
X166588366Y-129776388D01*
X166603930Y-129723590D01*
X166603935Y-129710003D01*
X166843683Y-129710003D01*
X166860262Y-129732089D01*
X166873678Y-129726998D01*
X166877838Y-129716418D01*
X167227319Y-129716418D01*
X167230925Y-129752176D01*
X167239988Y-129756890D01*
X167251012Y-129732089D01*
X167248838Y-129716138D01*
X167230925Y-129712002D01*
X167227319Y-129716418D01*
X166877838Y-129716418D01*
X166889446Y-129686893D01*
X166888138Y-129666302D01*
X166884396Y-129657560D01*
X167286962Y-129657560D01*
X167300532Y-129657295D01*
X167324401Y-129620399D01*
X167326546Y-129614683D01*
X167332868Y-129584492D01*
X167307534Y-129603532D01*
X167290342Y-129625686D01*
X167286962Y-129657560D01*
X166884396Y-129657560D01*
X166877605Y-129641698D01*
X166869806Y-129647249D01*
X166848420Y-129686893D01*
X166846943Y-129694099D01*
X166843683Y-129710003D01*
X166603935Y-129710003D01*
X166603941Y-129694099D01*
X166579065Y-129674432D01*
X166555292Y-129675423D01*
X166477886Y-129676320D01*
X166358784Y-129676628D01*
X166208813Y-129676327D01*
X166038796Y-129675398D01*
X165534646Y-129671828D01*
X165544297Y-129518999D01*
X165553949Y-129366169D01*
X165210206Y-129707314D01*
X165151906Y-129765485D01*
X165024255Y-129894864D01*
X164906582Y-130016656D01*
X164809933Y-130119357D01*
X164745354Y-130191462D01*
X164624245Y-130334464D01*
X164138522Y-130334464D01*
X164117591Y-130299214D01*
X164298299Y-129965645D01*
X164305251Y-129952794D01*
X164372986Y-129825505D01*
X164428205Y-129718090D01*
X164465386Y-129641518D01*
X164479008Y-129606757D01*
X164462730Y-129601470D01*
X164394230Y-129595005D01*
X164279722Y-129589489D01*
X164127360Y-129585202D01*
X163945299Y-129582425D01*
X163741693Y-129581437D01*
X163004379Y-129581437D01*
X162940237Y-129717024D01*
X162928055Y-129742774D01*
X162926026Y-129747154D01*
X162899718Y-129803944D01*
X162898325Y-129807415D01*
X162862046Y-129897807D01*
X162820508Y-130001302D01*
X162803774Y-130042997D01*
X162802345Y-130048459D01*
X162778703Y-130138851D01*
X162750478Y-130246767D01*
X162745997Y-130321870D01*
X162744333Y-130349764D01*
X162740059Y-130421395D01*
X152818509Y-130421395D01*
X152818509Y-129699483D01*
X153601902Y-129699483D01*
X153608240Y-129723175D01*
X153635596Y-129789583D01*
X153677228Y-129877109D01*
X153701182Y-129925065D01*
X153737413Y-130003195D01*
X153747378Y-130044513D01*
X153732023Y-130060722D01*
X153692293Y-130063525D01*
X153657152Y-130071913D01*
X153632032Y-130108720D01*
X153637279Y-130127517D01*
X153677570Y-130147909D01*
X153766549Y-130153916D01*
X153901065Y-130153916D01*
X153839959Y-130010796D01*
X153816986Y-129959330D01*
X153778128Y-129881856D01*
X153750639Y-129839052D01*
X153731423Y-129815263D01*
X153729820Y-129776517D01*
X153782685Y-129762220D01*
X153817826Y-129753831D01*
X153837688Y-129724728D01*
X153968363Y-129724728D01*
X153971215Y-129808725D01*
X153981801Y-129917334D01*
X153996264Y-130012391D01*
X154021725Y-130108521D01*
X154051032Y-130148149D01*
X154069802Y-130147743D01*
X154081045Y-130120724D01*
X154081672Y-130055047D01*
X154072781Y-129940207D01*
X154060378Y-129835419D01*
X154037016Y-129727103D01*
X154029405Y-129713282D01*
X154147233Y-129713282D01*
X154154612Y-129745276D01*
X154215638Y-129773604D01*
X154243196Y-129783055D01*
X154273793Y-129811571D01*
X154292883Y-129869692D01*
X154307526Y-129972719D01*
X154319929Y-130055047D01*
X154322530Y-130072308D01*
X154344045Y-130134970D01*
X154373550Y-130153916D01*
X154394442Y-130147283D01*
X154406497Y-130116604D01*
X154407324Y-130049945D01*
X154398262Y-129935470D01*
X154397020Y-129922637D01*
X154385135Y-129816363D01*
X154373589Y-129737706D01*
X154368322Y-129717024D01*
X154475686Y-129717024D01*
X154487211Y-129743747D01*
X154537522Y-129762220D01*
X154560209Y-129763826D01*
X154584777Y-129780648D01*
X154593154Y-129827930D01*
X154590250Y-129920405D01*
X154586268Y-129970411D01*
X154569884Y-130049331D01*
X154569138Y-130049945D01*
X154543480Y-130071057D01*
X154525421Y-130073016D01*
X154505817Y-130108720D01*
X154518625Y-130131969D01*
X154567517Y-130152119D01*
X154626485Y-130153250D01*
X154666732Y-130131318D01*
X154675118Y-130099736D01*
X154682709Y-130020120D01*
X154686295Y-129915399D01*
X154686142Y-129887445D01*
X154822761Y-129887445D01*
X154823901Y-129915399D01*
X154825236Y-129948158D01*
X154839917Y-130045311D01*
X154864113Y-130104781D01*
X154885935Y-130122964D01*
X154955999Y-130148573D01*
X155033564Y-130153503D01*
X155088339Y-130133829D01*
X155095734Y-130115324D01*
X155104861Y-130049170D01*
X155108426Y-129956384D01*
X155099086Y-129855035D01*
X155229007Y-129855035D01*
X155237036Y-129956384D01*
X155237325Y-129960032D01*
X155255589Y-130056295D01*
X155280520Y-130126648D01*
X155308841Y-130153916D01*
X155325853Y-130150360D01*
X155340637Y-130125172D01*
X155342603Y-130065187D01*
X155333293Y-129958068D01*
X155326177Y-129884118D01*
X155323851Y-129808199D01*
X155333789Y-129771665D01*
X155357511Y-129762220D01*
X155399089Y-129787851D01*
X155428391Y-129863155D01*
X155439450Y-129978201D01*
X155444646Y-130049288D01*
X155469835Y-130126141D01*
X155512307Y-130153916D01*
X155530266Y-130137590D01*
X155539078Y-130074426D01*
X155535704Y-129958068D01*
X155532252Y-129893866D01*
X155532817Y-129812700D01*
X155544295Y-129772832D01*
X155568715Y-129762220D01*
X155606955Y-129775725D01*
X155639958Y-129839708D01*
X155650775Y-129958068D01*
X155650775Y-129958764D01*
X155656189Y-130043404D01*
X155669064Y-130106256D01*
X155683513Y-130129488D01*
X155730690Y-130153916D01*
X155739716Y-130153084D01*
X155762141Y-130126958D01*
X155758922Y-130055992D01*
X155755657Y-130034354D01*
X155741064Y-129931263D01*
X155731855Y-129861546D01*
X155861688Y-129861546D01*
X155862455Y-129894678D01*
X155877678Y-130008380D01*
X155908593Y-130086951D01*
X155936838Y-130119027D01*
X155953290Y-130126958D01*
X156010602Y-130154586D01*
X156084073Y-130142987D01*
X156140466Y-130089903D01*
X156162993Y-130001004D01*
X156162978Y-129995206D01*
X156147283Y-129841543D01*
X156103032Y-129737373D01*
X156041936Y-129692214D01*
X156225678Y-129692214D01*
X156235260Y-129726086D01*
X156283515Y-129753489D01*
X156324051Y-129777967D01*
X156344188Y-129848593D01*
X156348141Y-129910299D01*
X156362767Y-129995731D01*
X156364069Y-130001004D01*
X156365905Y-130008437D01*
X156362890Y-130052497D01*
X156317160Y-130063525D01*
X156278828Y-130071999D01*
X156253385Y-130108720D01*
X156255553Y-130118253D01*
X156291780Y-130144071D01*
X156352132Y-130155058D01*
X156409790Y-130149026D01*
X156437934Y-130123786D01*
X156442657Y-130067774D01*
X156445664Y-129970926D01*
X156445137Y-129865773D01*
X156441505Y-129769449D01*
X156439298Y-129744847D01*
X156561151Y-129744847D01*
X156569171Y-129845079D01*
X156577603Y-129918131D01*
X156584533Y-129970926D01*
X156590621Y-130017310D01*
X156601151Y-130082566D01*
X156612633Y-130114497D01*
X156651494Y-130140697D01*
X156732063Y-130148428D01*
X156797986Y-130147726D01*
X156857084Y-130133448D01*
X156868356Y-130113610D01*
X157009275Y-130113610D01*
X157020927Y-130146023D01*
X157047550Y-130153916D01*
X157074837Y-130145114D01*
X157097038Y-130098677D01*
X157099616Y-130067713D01*
X157115049Y-130025427D01*
X157155843Y-130016034D01*
X157198186Y-130045059D01*
X157217560Y-130096879D01*
X157225545Y-130128994D01*
X157266522Y-130153916D01*
X157275885Y-130153232D01*
X157296496Y-130139408D01*
X157301805Y-130101513D01*
X157290736Y-130031319D01*
X157262212Y-129920597D01*
X157215159Y-129761121D01*
X157196520Y-129702082D01*
X157189189Y-129683092D01*
X157544011Y-129683092D01*
X157564987Y-129895906D01*
X157565703Y-129903116D01*
X157577595Y-130009786D01*
X157588875Y-130090315D01*
X157591361Y-130101513D01*
X157597189Y-130127760D01*
X157614283Y-130140332D01*
X157675815Y-130150442D01*
X157754920Y-130146299D01*
X157825855Y-130130173D01*
X157862880Y-130104333D01*
X157871410Y-130074383D01*
X157879759Y-129969747D01*
X157869077Y-129854640D01*
X157845390Y-129775425D01*
X157976848Y-129775425D01*
X157986248Y-129890274D01*
X157987386Y-129901656D01*
X157995176Y-129969747D01*
X157999767Y-130009875D01*
X158011867Y-130092103D01*
X158021215Y-130131318D01*
X158024792Y-130136939D01*
X158056282Y-130155720D01*
X158081208Y-130124553D01*
X158091344Y-130052665D01*
X158091216Y-130031446D01*
X158083469Y-129891263D01*
X158065511Y-129776977D01*
X158044111Y-129712881D01*
X158151117Y-129712881D01*
X158161586Y-129745397D01*
X158225459Y-129774223D01*
X158255726Y-129784560D01*
X158286370Y-129813086D01*
X158305266Y-129870853D01*
X158319742Y-129973337D01*
X158329645Y-130044238D01*
X158331939Y-130052665D01*
X158352164Y-130126954D01*
X158381476Y-130153916D01*
X158387211Y-130153487D01*
X158409865Y-130134437D01*
X158418858Y-130081147D01*
X158414610Y-129985374D01*
X158400667Y-129865696D01*
X158513171Y-129865696D01*
X158518229Y-129912162D01*
X158547403Y-129937472D01*
X158618628Y-129943003D01*
X158666236Y-129944972D01*
X158712288Y-129961730D01*
X158724085Y-130003264D01*
X158707826Y-130049401D01*
X158648758Y-130063525D01*
X158599625Y-130072370D01*
X158593300Y-130081147D01*
X158573432Y-130108720D01*
X158597479Y-130140674D01*
X158655490Y-130153848D01*
X158723697Y-130146559D01*
X158778319Y-130117759D01*
X158797451Y-130086960D01*
X158814877Y-130001854D01*
X158812478Y-129898313D01*
X158791756Y-129800377D01*
X158754215Y-129732089D01*
X158729395Y-129710062D01*
X158703786Y-129698730D01*
X158914045Y-129698730D01*
X158917242Y-129769752D01*
X158921258Y-129796471D01*
X158935914Y-129900188D01*
X158949398Y-130001854D01*
X158950584Y-130010796D01*
X158958295Y-130060389D01*
X158981495Y-130131771D01*
X159015592Y-130153916D01*
X159018372Y-130153869D01*
X159044142Y-130141768D01*
X159051271Y-130098708D01*
X159042355Y-130010796D01*
X159021181Y-129866398D01*
X159014128Y-129827238D01*
X159148673Y-129827238D01*
X159159927Y-129958652D01*
X159160481Y-129963772D01*
X159176939Y-130075298D01*
X159185001Y-130098708D01*
X159197753Y-130135734D01*
X159225907Y-130153916D01*
X159237049Y-130152408D01*
X159256614Y-130130270D01*
X159263905Y-130072307D01*
X159261172Y-129966553D01*
X159258821Y-129911919D01*
X159260358Y-129828464D01*
X159273339Y-129785353D01*
X159300425Y-129769202D01*
X159316414Y-129768733D01*
X159339571Y-129789628D01*
X159356251Y-129848536D01*
X159370617Y-129956566D01*
X159385694Y-130063167D01*
X159406866Y-130132342D01*
X159434549Y-130153916D01*
X159442051Y-130153236D01*
X159464645Y-130133548D01*
X159473536Y-130080334D01*
X159469200Y-129985104D01*
X159455197Y-129865696D01*
X159567738Y-129865696D01*
X159580265Y-129924519D01*
X159625535Y-129943003D01*
X159678807Y-129947215D01*
X159751441Y-129974599D01*
X159778652Y-130021552D01*
X159762225Y-130048941D01*
X159703325Y-130063525D01*
X159654192Y-130072370D01*
X159648453Y-130080334D01*
X159627999Y-130108720D01*
X159652046Y-130140674D01*
X159710057Y-130153848D01*
X159778264Y-130146559D01*
X159832887Y-130117759D01*
X159852018Y-130086960D01*
X159869444Y-130001854D01*
X159867045Y-129898313D01*
X159846323Y-129800377D01*
X159808782Y-129732089D01*
X159783962Y-129710062D01*
X159716129Y-129680046D01*
X159953047Y-129680046D01*
X159969703Y-129788926D01*
X159978421Y-129850769D01*
X159992989Y-129965685D01*
X159997172Y-130001854D01*
X160007044Y-130087227D01*
X160024008Y-130199032D01*
X160050519Y-130275709D01*
X160090678Y-130320739D01*
X160133656Y-130345211D01*
X160212982Y-130364164D01*
X160255837Y-130349764D01*
X162610917Y-130349764D01*
X162625983Y-130364829D01*
X162641048Y-130349764D01*
X162625983Y-130334699D01*
X162610917Y-130349764D01*
X160255837Y-130349764D01*
X160270783Y-130344742D01*
X160287663Y-130321870D01*
X160276485Y-130287919D01*
X160208011Y-130268907D01*
X160149253Y-130250871D01*
X160116342Y-130197825D01*
X160114719Y-130178758D01*
X160131324Y-130145212D01*
X160191669Y-130137564D01*
X160234243Y-130135810D01*
X160263641Y-130118628D01*
X160277664Y-130070956D01*
X160285007Y-129977925D01*
X160282029Y-129852932D01*
X160397777Y-129852932D01*
X160411906Y-129947179D01*
X160430293Y-130053080D01*
X160446558Y-130115968D01*
X160463674Y-130146146D01*
X160484614Y-130153916D01*
X160492938Y-130152610D01*
X160510181Y-130128613D01*
X160515106Y-130066269D01*
X160509009Y-129955017D01*
X160507879Y-129940821D01*
X160501633Y-129840615D01*
X160504780Y-129786534D01*
X160520042Y-129766130D01*
X160550142Y-129766959D01*
X160591056Y-129791689D01*
X160615196Y-129867934D01*
X160624719Y-129954044D01*
X160639159Y-130055992D01*
X160661968Y-130125845D01*
X160701645Y-130153916D01*
X160724812Y-130147859D01*
X160737354Y-130112614D01*
X160730410Y-130033394D01*
X160729396Y-130026494D01*
X160712259Y-129909699D01*
X160695677Y-129796459D01*
X160690959Y-129765712D01*
X160673799Y-129706750D01*
X160636474Y-129683879D01*
X160558951Y-129680046D01*
X160540164Y-129680400D01*
X160446800Y-129701123D01*
X160400776Y-129757091D01*
X160397777Y-129852932D01*
X160282029Y-129852932D01*
X160281712Y-129839605D01*
X160249344Y-129746611D01*
X160183199Y-129695599D01*
X160078760Y-129680046D01*
X159953047Y-129680046D01*
X159716129Y-129680046D01*
X159704097Y-129674722D01*
X159634890Y-129692510D01*
X159586163Y-129757983D01*
X159567738Y-129865696D01*
X159455197Y-129865696D01*
X159452109Y-129839368D01*
X159432151Y-129690537D01*
X159302094Y-129683937D01*
X159228510Y-129683877D01*
X159177486Y-129700438D01*
X159152700Y-129744696D01*
X159148673Y-129827238D01*
X159014128Y-129827238D01*
X159003206Y-129766594D01*
X158986442Y-129707422D01*
X158968089Y-129679095D01*
X158945345Y-129671828D01*
X158936520Y-129672631D01*
X158914045Y-129698730D01*
X158703786Y-129698730D01*
X158649530Y-129674722D01*
X158580323Y-129692510D01*
X158531596Y-129757983D01*
X158513171Y-129865696D01*
X158400667Y-129865696D01*
X158397542Y-129838874D01*
X158386141Y-129762992D01*
X158367850Y-129711111D01*
X158331924Y-129689648D01*
X158264595Y-129682399D01*
X158189144Y-129688191D01*
X158151117Y-129712881D01*
X158044111Y-129712881D01*
X158039817Y-129700021D01*
X158008865Y-129671828D01*
X157989693Y-129677960D01*
X157977594Y-129708533D01*
X157976848Y-129775425D01*
X157845390Y-129775425D01*
X157841442Y-129762220D01*
X157813157Y-129719988D01*
X157762259Y-129692903D01*
X157673676Y-129684993D01*
X157544011Y-129683092D01*
X157189189Y-129683092D01*
X157169788Y-129632836D01*
X160808729Y-129632836D01*
X160814701Y-129718140D01*
X160829360Y-129846375D01*
X160852908Y-130025861D01*
X160854986Y-130040187D01*
X160875252Y-130112614D01*
X160878925Y-130125740D01*
X160915476Y-130153916D01*
X160933503Y-130149558D01*
X160939066Y-130138851D01*
X162490395Y-130138851D01*
X162505461Y-130153916D01*
X162520526Y-130138851D01*
X162505461Y-130123786D01*
X162490395Y-130138851D01*
X160939066Y-130138851D01*
X160947522Y-130122578D01*
X160949370Y-130060277D01*
X160948419Y-130048459D01*
X162430134Y-130048459D01*
X162441952Y-130060277D01*
X162445200Y-130063525D01*
X162460265Y-130048459D01*
X162445200Y-130033394D01*
X162430134Y-130048459D01*
X160948419Y-130048459D01*
X160940541Y-129950535D01*
X160939984Y-129944964D01*
X162377261Y-129944964D01*
X162384939Y-129973133D01*
X162391129Y-129982052D01*
X162418626Y-130003264D01*
X162422747Y-130001302D01*
X162415069Y-129973133D01*
X162408879Y-129964214D01*
X162381382Y-129943003D01*
X162377261Y-129944964D01*
X160939984Y-129944964D01*
X160938715Y-129932281D01*
X160934921Y-129897807D01*
X162339743Y-129897807D01*
X162354808Y-129912872D01*
X162369873Y-129897807D01*
X162791700Y-129897807D01*
X162806766Y-129912872D01*
X162821831Y-129897807D01*
X162806766Y-129882742D01*
X162791700Y-129897807D01*
X162369873Y-129897807D01*
X162354808Y-129882742D01*
X162339743Y-129897807D01*
X160934921Y-129897807D01*
X160924973Y-129807415D01*
X162671178Y-129807415D01*
X162686244Y-129822481D01*
X162701309Y-129807415D01*
X162686244Y-129792350D01*
X162671178Y-129807415D01*
X160924973Y-129807415D01*
X160921081Y-129772050D01*
X160917356Y-129747154D01*
X162249352Y-129747154D01*
X162264417Y-129762220D01*
X162279482Y-129747154D01*
X162264417Y-129732089D01*
X162249352Y-129747154D01*
X160917356Y-129747154D01*
X160912847Y-129717024D01*
X162610917Y-129717024D01*
X162625983Y-129732089D01*
X162641048Y-129717024D01*
X162625983Y-129701959D01*
X162610917Y-129717024D01*
X160912847Y-129717024D01*
X160904687Y-129662492D01*
X160887383Y-129594952D01*
X160867023Y-129560775D01*
X160841459Y-129551306D01*
X160840930Y-129551309D01*
X160822044Y-129557741D01*
X160818224Y-129566372D01*
X160811244Y-129582143D01*
X160808729Y-129632836D01*
X157169788Y-129632836D01*
X157161501Y-129611369D01*
X157129367Y-129564585D01*
X157094104Y-129551306D01*
X157064923Y-129556529D01*
X157053560Y-129573453D01*
X157042551Y-129589851D01*
X157036777Y-129667408D01*
X157035198Y-129728323D01*
X157028169Y-129846187D01*
X157017420Y-129968713D01*
X157013976Y-130005774D01*
X157010464Y-130043573D01*
X157009275Y-130113610D01*
X156868356Y-130113610D01*
X156881309Y-130090812D01*
X156885793Y-130005774D01*
X156881416Y-129895705D01*
X156864874Y-129778202D01*
X156838384Y-129700140D01*
X156804458Y-129671828D01*
X156789933Y-129674771D01*
X156774809Y-129699661D01*
X156772555Y-129759963D01*
X156781780Y-129867676D01*
X156784512Y-129893451D01*
X156792604Y-129987997D01*
X156789669Y-130038908D01*
X156772774Y-130059608D01*
X156738983Y-130063525D01*
X156709931Y-130060340D01*
X156682150Y-130032437D01*
X156675212Y-129961834D01*
X156673109Y-129892265D01*
X156657861Y-129777116D01*
X156630450Y-129699979D01*
X156593951Y-129671828D01*
X156585572Y-129672612D01*
X156566029Y-129691479D01*
X156561151Y-129744847D01*
X156439298Y-129744847D01*
X156435194Y-129699089D01*
X156426635Y-129671828D01*
X156416291Y-129666783D01*
X156404037Y-129626632D01*
X156398788Y-129605555D01*
X156358841Y-129581437D01*
X156337764Y-129586686D01*
X156313646Y-129626632D01*
X156308396Y-129647710D01*
X156268450Y-129671828D01*
X156258547Y-129672342D01*
X156225678Y-129692214D01*
X156041936Y-129692214D01*
X156031561Y-129684545D01*
X155934208Y-129684905D01*
X155908993Y-129692646D01*
X155878099Y-129716884D01*
X155864638Y-129767566D01*
X155861688Y-129861546D01*
X155731855Y-129861546D01*
X155726584Y-129821643D01*
X155709351Y-129685217D01*
X155476682Y-129686088D01*
X155399129Y-129686680D01*
X155311971Y-129690519D01*
X155264061Y-129701379D01*
X155242323Y-129723244D01*
X155233681Y-129760095D01*
X155229007Y-129855035D01*
X155099086Y-129855035D01*
X155096527Y-129827266D01*
X155057518Y-129729800D01*
X154993875Y-129682423D01*
X154908199Y-129688611D01*
X154866183Y-129706303D01*
X154836735Y-129735801D01*
X154824782Y-129790316D01*
X154822761Y-129887445D01*
X154686142Y-129887445D01*
X154685693Y-129805435D01*
X154680718Y-129710091D01*
X154671189Y-129649230D01*
X154659177Y-129622774D01*
X154620868Y-129586929D01*
X154583128Y-129586773D01*
X154566078Y-129626632D01*
X154560828Y-129647710D01*
X154520882Y-129671828D01*
X154499805Y-129677078D01*
X154475686Y-129717024D01*
X154368322Y-129717024D01*
X154364721Y-129702883D01*
X154362977Y-129701482D01*
X154321346Y-129691266D01*
X154248121Y-129685136D01*
X154189017Y-129689834D01*
X154147233Y-129713282D01*
X154029405Y-129713282D01*
X154008222Y-129674816D01*
X153974770Y-129680613D01*
X153973739Y-129681997D01*
X153968363Y-129724728D01*
X153837688Y-129724728D01*
X153842946Y-129717024D01*
X153840758Y-129704031D01*
X153806226Y-129679291D01*
X153722424Y-129671828D01*
X153695427Y-129672532D01*
X153628638Y-129682164D01*
X153601902Y-129699483D01*
X152818509Y-129699483D01*
X152818509Y-129566372D01*
X153933337Y-129566372D01*
X153943183Y-129593876D01*
X153985052Y-129611884D01*
X154032953Y-129592299D01*
X154042836Y-129573453D01*
X154026073Y-129537856D01*
X153976755Y-129521176D01*
X153956544Y-129526405D01*
X153933337Y-129566372D01*
X152818509Y-129566372D01*
X152818509Y-129443888D01*
X157910561Y-129443888D01*
X157918309Y-129473108D01*
X157939946Y-129534280D01*
X157964294Y-129580760D01*
X157999148Y-129610052D01*
X158022562Y-129598301D01*
X158021049Y-129566784D01*
X158895743Y-129566784D01*
X158898666Y-129576172D01*
X158925595Y-129598301D01*
X158931956Y-129603528D01*
X158974340Y-129600218D01*
X158995259Y-129566372D01*
X158987340Y-129538663D01*
X158942531Y-129526912D01*
X158915185Y-129537024D01*
X158895743Y-129566784D01*
X158021049Y-129566784D01*
X158019944Y-129543774D01*
X158008800Y-129497813D01*
X158001364Y-129453382D01*
X158001083Y-129451296D01*
X157975151Y-129434656D01*
X157932798Y-129430913D01*
X157910561Y-129443888D01*
X152818509Y-129443888D01*
X152818509Y-128541935D01*
X152818509Y-128273394D01*
X154411985Y-128273394D01*
X154412321Y-128293183D01*
X154425806Y-128360073D01*
X154450623Y-128461935D01*
X154483260Y-128586105D01*
X154520205Y-128719921D01*
X154557945Y-128850721D01*
X154592969Y-128965843D01*
X154621764Y-129052623D01*
X154640817Y-129098400D01*
X154671402Y-129118076D01*
X154738579Y-129128535D01*
X154809006Y-129122448D01*
X154852138Y-129099639D01*
X154855927Y-129091727D01*
X154876100Y-129034052D01*
X154906275Y-128936563D01*
X154942539Y-128813178D01*
X154970565Y-128714493D01*
X155228948Y-128714493D01*
X155228948Y-129133117D01*
X155339199Y-129123766D01*
X155372521Y-129120398D01*
X155412993Y-129109755D01*
X155446107Y-129083727D01*
X155479584Y-129032293D01*
X155521146Y-128945428D01*
X155578514Y-128813109D01*
X155707578Y-128511804D01*
X155716840Y-128813109D01*
X155717820Y-128844423D01*
X155722928Y-128971075D01*
X155730291Y-129051033D01*
X155742720Y-129095629D01*
X155763028Y-129116194D01*
X155794030Y-129124060D01*
X155839424Y-129121123D01*
X155877833Y-129092336D01*
X155878654Y-129089631D01*
X155883740Y-129038134D01*
X155884948Y-128998158D01*
X156075823Y-128998158D01*
X156084215Y-129051444D01*
X156106908Y-129080110D01*
X156148508Y-129099569D01*
X156199099Y-129113553D01*
X156318966Y-129126151D01*
X156445125Y-129121282D01*
X156545579Y-129098994D01*
X156546262Y-129098715D01*
X156606467Y-129053194D01*
X156658569Y-128981878D01*
X156683691Y-128903850D01*
X156700551Y-128781278D01*
X156704737Y-128645048D01*
X156695638Y-128519209D01*
X156672644Y-128427810D01*
X156669585Y-128421395D01*
X156594962Y-128334389D01*
X156514404Y-128294044D01*
X157181187Y-128294044D01*
X157192147Y-128639308D01*
X157192341Y-128645048D01*
X157195688Y-128743893D01*
X157201692Y-128860287D01*
X157211001Y-128937258D01*
X157226473Y-128987345D01*
X157250967Y-129023088D01*
X157287340Y-129057025D01*
X157294842Y-129063334D01*
X157385000Y-129113837D01*
X157497947Y-129125984D01*
X157546988Y-129123899D01*
X157650901Y-129109748D01*
X157685142Y-129094359D01*
X158054501Y-129094359D01*
X158076404Y-129122135D01*
X158141304Y-129129479D01*
X158144896Y-129129419D01*
X158193906Y-129113076D01*
X158244171Y-129060758D01*
X158305719Y-128962269D01*
X158354671Y-128883029D01*
X158414549Y-128815641D01*
X158460554Y-128806674D01*
X158493242Y-128856134D01*
X158513171Y-128964023D01*
X158514804Y-128979700D01*
X158529016Y-129065124D01*
X158552547Y-129107934D01*
X158593187Y-129123670D01*
X158634486Y-129124298D01*
X158668573Y-129108605D01*
X158669540Y-129104610D01*
X158673245Y-129054266D01*
X158674690Y-129007998D01*
X158849244Y-129007998D01*
X158850044Y-129046621D01*
X158854607Y-129069057D01*
X158871480Y-129094326D01*
X158911026Y-129109291D01*
X158985773Y-129117666D01*
X159108248Y-129123165D01*
X159356825Y-129131917D01*
X159356825Y-128699846D01*
X159356825Y-128553798D01*
X159526019Y-128553798D01*
X159533846Y-128653496D01*
X159552528Y-128699846D01*
X159575172Y-128756025D01*
X159657940Y-128819130D01*
X159788792Y-128850304D01*
X159851868Y-128858272D01*
X159904801Y-128875435D01*
X159926864Y-128913898D01*
X159935287Y-128990104D01*
X159936547Y-129006418D01*
X159947806Y-129077885D01*
X159973875Y-129109137D01*
X160027228Y-129117455D01*
X160110087Y-129120495D01*
X160110087Y-128908941D01*
X161979880Y-128908941D01*
X162003788Y-128942168D01*
X162016618Y-128949316D01*
X162038438Y-128993892D01*
X162040038Y-129009412D01*
X162061036Y-129044110D01*
X162061400Y-129044293D01*
X162088522Y-129072526D01*
X162143561Y-129139008D01*
X162218694Y-129234041D01*
X162306096Y-129347925D01*
X162310987Y-129354380D01*
X162396720Y-129466193D01*
X162468579Y-129557523D01*
X162519159Y-129619111D01*
X162541055Y-129641698D01*
X162538310Y-129631294D01*
X162511477Y-129584976D01*
X162466606Y-129515405D01*
X162413931Y-129437889D01*
X162363688Y-129367731D01*
X162326110Y-129320240D01*
X162318309Y-129310783D01*
X162277562Y-129256323D01*
X162216399Y-129171063D01*
X162144825Y-129068874D01*
X162112095Y-129022995D01*
X162049462Y-128943632D01*
X162003408Y-128896885D01*
X161982120Y-128891672D01*
X161979880Y-128908941D01*
X160110087Y-128908941D01*
X160110087Y-128688095D01*
X160110087Y-128669638D01*
X162086706Y-128669638D01*
X162090876Y-128688095D01*
X162093791Y-128700995D01*
X162105168Y-128706349D01*
X162128830Y-128741371D01*
X162145983Y-128780144D01*
X162189577Y-128836784D01*
X162219551Y-128870943D01*
X162286096Y-128950387D01*
X162357801Y-129039088D01*
X162397721Y-129088928D01*
X162491947Y-129204158D01*
X162580787Y-129310262D01*
X162623700Y-129360856D01*
X162717887Y-129472898D01*
X162801994Y-129574043D01*
X162857777Y-129641698D01*
X162907691Y-129702236D01*
X163011838Y-129528847D01*
X163059562Y-129448501D01*
X163134911Y-129314873D01*
X163180558Y-129220765D01*
X163199576Y-129159385D01*
X163195038Y-129123939D01*
X163188266Y-129108523D01*
X163207671Y-129110795D01*
X163212807Y-129111578D01*
X163246868Y-129085706D01*
X163296231Y-129025365D01*
X163350609Y-128945377D01*
X163399715Y-128860566D01*
X163433258Y-128785756D01*
X163449097Y-128781742D01*
X163503972Y-128799799D01*
X163582639Y-128840427D01*
X163722603Y-128922450D01*
X163663630Y-128717127D01*
X163655744Y-128689576D01*
X163633165Y-128609983D01*
X164032446Y-128609983D01*
X164068381Y-128795168D01*
X164127766Y-128922450D01*
X164147661Y-128965092D01*
X164267968Y-129108832D01*
X164426982Y-129215462D01*
X164613943Y-129279616D01*
X164819092Y-129293951D01*
X165017986Y-129249323D01*
X165205747Y-129146167D01*
X165206283Y-129145774D01*
X165347241Y-129008456D01*
X165440829Y-128845430D01*
X165488143Y-128666761D01*
X165490280Y-128482514D01*
X165461962Y-128361152D01*
X165752752Y-128361152D01*
X165821688Y-128482514D01*
X166116441Y-129001425D01*
X166480131Y-129641698D01*
X166616995Y-129638978D01*
X166716699Y-129631470D01*
X166847141Y-129614336D01*
X166979838Y-129591300D01*
X166995785Y-129588142D01*
X167110230Y-129566331D01*
X167203366Y-129549960D01*
X167256333Y-129542367D01*
X167281235Y-129537402D01*
X167295179Y-129519511D01*
X167294387Y-129516369D01*
X167315612Y-129483766D01*
X167369211Y-129437266D01*
X167397216Y-129412639D01*
X167464763Y-129330750D01*
X167522370Y-129234557D01*
X167535219Y-129207759D01*
X167561020Y-129148103D01*
X167577027Y-129091858D01*
X167581002Y-129032834D01*
X167570707Y-128964842D01*
X167543904Y-128881690D01*
X167498355Y-128777188D01*
X167431822Y-128645148D01*
X167342068Y-128479378D01*
X167226854Y-128273689D01*
X167083942Y-128021891D01*
X167083677Y-128021424D01*
X167013789Y-127903373D01*
X166953339Y-127810149D01*
X166908783Y-127751119D01*
X166886580Y-127735651D01*
X166871754Y-127757066D01*
X166831421Y-127822909D01*
X166774172Y-127920313D01*
X166707162Y-128037249D01*
X166658855Y-128119209D01*
X166591075Y-128222700D01*
X166535942Y-128293052D01*
X166500915Y-128320042D01*
X166459788Y-128322768D01*
X166369443Y-128328055D01*
X166245701Y-128334945D01*
X166102653Y-128342640D01*
X165752752Y-128361152D01*
X165461962Y-128361152D01*
X165448336Y-128302754D01*
X165363408Y-128137544D01*
X165236593Y-127996950D01*
X165068987Y-127891036D01*
X165039346Y-127878638D01*
X164932752Y-127847951D01*
X164830816Y-127835914D01*
X164750756Y-127843463D01*
X164709791Y-127871532D01*
X164691874Y-127891356D01*
X164659790Y-127863999D01*
X164630920Y-127837126D01*
X164609790Y-127856466D01*
X164601397Y-127870326D01*
X164555244Y-127894130D01*
X164546361Y-127896662D01*
X164517646Y-127939080D01*
X164496615Y-128022184D01*
X164485661Y-128080315D01*
X164464933Y-128155247D01*
X164443428Y-128207069D01*
X164426427Y-128224034D01*
X164419208Y-128194398D01*
X164418615Y-128189069D01*
X164388277Y-128142048D01*
X164326284Y-128093547D01*
X164313559Y-128086060D01*
X164256084Y-128056802D01*
X164222452Y-128059584D01*
X164189044Y-128094584D01*
X164099890Y-128237530D01*
X164042176Y-128420462D01*
X164032446Y-128609983D01*
X163633165Y-128609983D01*
X163621849Y-128570094D01*
X163578138Y-128414936D01*
X163529398Y-128241128D01*
X163480419Y-128065691D01*
X163468227Y-128022359D01*
X163418447Y-127855643D01*
X163376250Y-127731344D01*
X163343614Y-127654898D01*
X163322516Y-127631743D01*
X163320943Y-127632283D01*
X163276778Y-127645643D01*
X163185165Y-127672404D01*
X163055572Y-127709832D01*
X162897466Y-127755190D01*
X162720316Y-127805742D01*
X162151779Y-127967578D01*
X162251836Y-128051109D01*
X162351893Y-128134640D01*
X162283649Y-128247896D01*
X162214848Y-128368172D01*
X162151406Y-128493272D01*
X162107302Y-128597079D01*
X162086706Y-128669638D01*
X160110087Y-128669638D01*
X160110087Y-128255695D01*
X159900854Y-128255695D01*
X159821228Y-128256853D01*
X159728741Y-128265745D01*
X159664497Y-128287500D01*
X159608820Y-128326918D01*
X159599467Y-128335118D01*
X159552782Y-128388500D01*
X159531240Y-128453337D01*
X159526019Y-128553798D01*
X159356825Y-128553798D01*
X159356825Y-128267775D01*
X159108248Y-128269268D01*
X158996661Y-128270497D01*
X158918566Y-128275108D01*
X158877775Y-128286749D01*
X158862180Y-128309161D01*
X158859672Y-128346087D01*
X158861099Y-128376317D01*
X158876309Y-128406507D01*
X158920914Y-128418971D01*
X159010324Y-128421413D01*
X159085923Y-128422513D01*
X159139021Y-128432450D01*
X159161668Y-128461350D01*
X159170418Y-128519337D01*
X159179860Y-128617261D01*
X159027299Y-128617261D01*
X158963934Y-128618036D01*
X158904165Y-128625763D01*
X158879540Y-128648091D01*
X158876363Y-128677522D01*
X158874737Y-128692587D01*
X158876164Y-128722818D01*
X158891374Y-128753008D01*
X158935979Y-128765471D01*
X159025389Y-128767914D01*
X159176042Y-128767914D01*
X159176042Y-128873370D01*
X159176042Y-128978827D01*
X159008229Y-128978827D01*
X158926306Y-128979978D01*
X158870104Y-128987739D01*
X158849244Y-129007998D01*
X158674690Y-129007998D01*
X158676239Y-128958389D01*
X158678236Y-128828851D01*
X158678949Y-128677522D01*
X158678889Y-128270761D01*
X158499361Y-128261537D01*
X158357069Y-128260707D01*
X158219537Y-128282951D01*
X158127981Y-128334588D01*
X158077006Y-128419045D01*
X158061214Y-128539748D01*
X158063439Y-128588627D01*
X158064194Y-128605201D01*
X158085739Y-128677770D01*
X158136540Y-128732400D01*
X158139115Y-128734437D01*
X158190584Y-128781125D01*
X158211866Y-128812017D01*
X158205477Y-128828852D01*
X158173142Y-128885068D01*
X158122664Y-128962033D01*
X158074636Y-129037537D01*
X158054501Y-129094359D01*
X157685142Y-129094359D01*
X157724919Y-129076482D01*
X157773950Y-129015917D01*
X157802898Y-128919874D01*
X157816670Y-128780171D01*
X157820170Y-128588627D01*
X157820163Y-128570993D01*
X157819016Y-128430324D01*
X157814784Y-128338681D01*
X157805853Y-128285889D01*
X157790611Y-128261773D01*
X157767442Y-128256157D01*
X157742886Y-128257243D01*
X157698029Y-128269743D01*
X157668038Y-128303985D01*
X157649481Y-128369596D01*
X157638925Y-128476204D01*
X157632939Y-128633434D01*
X157624322Y-128963762D01*
X157539641Y-128973472D01*
X157508765Y-128976104D01*
X157447466Y-128969810D01*
X157406774Y-128938064D01*
X157382676Y-128872209D01*
X157371160Y-128763583D01*
X157368213Y-128603528D01*
X157367502Y-128511653D01*
X157364273Y-128396710D01*
X157359032Y-128315024D01*
X157352439Y-128280096D01*
X157322470Y-128273402D01*
X157258926Y-128279183D01*
X157181187Y-128294044D01*
X156514404Y-128294044D01*
X156479826Y-128276727D01*
X156339127Y-128256107D01*
X156216142Y-128260828D01*
X156135458Y-128277459D01*
X156098006Y-128309625D01*
X156095323Y-128360968D01*
X156103089Y-128391508D01*
X156124849Y-128416405D01*
X156173609Y-128422600D01*
X156265715Y-128415303D01*
X156326145Y-128410849D01*
X156425314Y-128420248D01*
X156485944Y-128462862D01*
X156516279Y-128547171D01*
X156524559Y-128681655D01*
X156524244Y-128719015D01*
X156514352Y-128846505D01*
X156486758Y-128926161D01*
X156436292Y-128967196D01*
X156357781Y-128978827D01*
X156288453Y-128974011D01*
X156259085Y-128948418D01*
X156253385Y-128885615D01*
X156253400Y-128882107D01*
X156267566Y-128809082D01*
X156313646Y-128776644D01*
X156348118Y-128757598D01*
X156373907Y-128702488D01*
X156373490Y-128690899D01*
X156360466Y-128661636D01*
X156317933Y-128650825D01*
X156230787Y-128653273D01*
X156087667Y-128662457D01*
X156081168Y-128810909D01*
X156078753Y-128866058D01*
X156077129Y-128904839D01*
X156075823Y-128998158D01*
X155884948Y-128998158D01*
X155886678Y-128940946D01*
X155887248Y-128810909D01*
X155885231Y-128660863D01*
X155876754Y-128270761D01*
X155767199Y-128261614D01*
X155657645Y-128252467D01*
X155526485Y-128555386D01*
X155480658Y-128659072D01*
X155432741Y-128762271D01*
X155397350Y-128832457D01*
X155379931Y-128858373D01*
X155376383Y-128849390D01*
X155372326Y-128793630D01*
X155371454Y-128698169D01*
X155374041Y-128576163D01*
X155377355Y-128456131D01*
X155376336Y-128367067D01*
X155368308Y-128315661D01*
X155351229Y-128289974D01*
X155323057Y-128278068D01*
X155285024Y-128272040D01*
X155245758Y-128279059D01*
X155243782Y-128283932D01*
X155242527Y-128294938D01*
X155237953Y-128335038D01*
X155233244Y-128431439D01*
X155230096Y-128561727D01*
X155228948Y-128714493D01*
X154970565Y-128714493D01*
X154980981Y-128677815D01*
X155017689Y-128544392D01*
X155048752Y-128426827D01*
X155070258Y-128339036D01*
X155078296Y-128294938D01*
X155059639Y-128269033D01*
X155002224Y-128255695D01*
X154970430Y-128258192D01*
X154936370Y-128274048D01*
X154908400Y-128312609D01*
X154882336Y-128383028D01*
X154853993Y-128494455D01*
X154819187Y-128656044D01*
X154807097Y-128712097D01*
X154781458Y-128817934D01*
X154759704Y-128891191D01*
X154745567Y-128918566D01*
X154734360Y-128898375D01*
X154712344Y-128830054D01*
X154683993Y-128724852D01*
X154652716Y-128594663D01*
X154640836Y-128542826D01*
X154610539Y-128417595D01*
X154586436Y-128337683D01*
X154563868Y-128292766D01*
X154538178Y-128272518D01*
X154504706Y-128266613D01*
X154453383Y-128266479D01*
X154411985Y-128273394D01*
X152818509Y-128273394D01*
X152818509Y-127123561D01*
X153089684Y-127123561D01*
X153092941Y-127133254D01*
X153116353Y-127186731D01*
X153157399Y-127275108D01*
X153210206Y-127385609D01*
X153248046Y-127466392D01*
X153297746Y-127590772D01*
X153323423Y-127693790D01*
X153330728Y-127794612D01*
X153332095Y-127882349D01*
X153341919Y-127932441D01*
X153368746Y-127951420D01*
X153421119Y-127954390D01*
X153423163Y-127954390D01*
X154650551Y-127954390D01*
X154751434Y-127953956D01*
X154789877Y-127952081D01*
X154840119Y-127935333D01*
X154883187Y-127890138D01*
X154935167Y-127803304D01*
X154960304Y-127760170D01*
X155023166Y-127679314D01*
X155078287Y-127653086D01*
X155092236Y-127653731D01*
X155121919Y-127668311D01*
X155135385Y-127713377D01*
X155138557Y-127803738D01*
X155139572Y-127878134D01*
X155148755Y-127930862D01*
X155175439Y-127951099D01*
X155228948Y-127954390D01*
X155319340Y-127954390D01*
X155319340Y-127534732D01*
X155319340Y-127184488D01*
X155500123Y-127184488D01*
X155501915Y-127214573D01*
X155518753Y-127244515D01*
X155565891Y-127259491D01*
X155658308Y-127267347D01*
X155727220Y-127272307D01*
X155787998Y-127284557D01*
X155815577Y-127310622D01*
X155826027Y-127359313D01*
X155828939Y-127400605D01*
X155816453Y-127429270D01*
X155772589Y-127440340D01*
X155682907Y-127442172D01*
X155621434Y-127442907D01*
X155560586Y-127450458D01*
X155535288Y-127472312D01*
X155530253Y-127515848D01*
X155530954Y-127536505D01*
X155544233Y-127572204D01*
X155586492Y-127589919D01*
X155673373Y-127598706D01*
X155732044Y-127603182D01*
X155789558Y-127615462D01*
X155812408Y-127643475D01*
X155816493Y-127698281D01*
X155814248Y-127745148D01*
X155797238Y-127776149D01*
X155750306Y-127790518D01*
X155658308Y-127797780D01*
X155594002Y-127802318D01*
X155531861Y-127813746D01*
X155505561Y-127837238D01*
X155500123Y-127880639D01*
X155501564Y-127910827D01*
X155514091Y-127935527D01*
X155550008Y-127948513D01*
X155621602Y-127953548D01*
X155741166Y-127954390D01*
X155982210Y-127954390D01*
X156193124Y-127954390D01*
X156313646Y-127954390D01*
X156340548Y-127954176D01*
X156407402Y-127951219D01*
X156434168Y-127945898D01*
X156442303Y-127924965D01*
X156470781Y-127858915D01*
X156514901Y-127759106D01*
X156569609Y-127637061D01*
X156705050Y-127336716D01*
X156705196Y-127645553D01*
X156705342Y-127954390D01*
X156780668Y-127954390D01*
X156855994Y-127954390D01*
X156855994Y-127879064D01*
X157036777Y-127879064D01*
X157039063Y-127915252D01*
X157053885Y-127937639D01*
X157093176Y-127949285D01*
X157168867Y-127953699D01*
X157292887Y-127954390D01*
X157548996Y-127954390D01*
X157548996Y-127534383D01*
X158061214Y-127534383D01*
X158061214Y-127958028D01*
X158172715Y-127948677D01*
X158195641Y-127946574D01*
X158240655Y-127937619D01*
X158275732Y-127914966D01*
X158309296Y-127868195D01*
X158349771Y-127786886D01*
X158405582Y-127660618D01*
X158441928Y-127579074D01*
X158490106Y-127477366D01*
X158526765Y-127407732D01*
X158545991Y-127381911D01*
X158550423Y-127391772D01*
X158554693Y-127448797D01*
X158554635Y-127545272D01*
X158550063Y-127668151D01*
X158535091Y-127954390D01*
X158612744Y-127954390D01*
X158667199Y-127948280D01*
X158705884Y-127929332D01*
X158707057Y-127926276D01*
X158712323Y-127879064D01*
X158874737Y-127879064D01*
X158877022Y-127915252D01*
X158891845Y-127937639D01*
X158931136Y-127949285D01*
X159006826Y-127953699D01*
X159130846Y-127954390D01*
X159386955Y-127954390D01*
X159386955Y-127880639D01*
X159567738Y-127880639D01*
X159569180Y-127910827D01*
X159581707Y-127935527D01*
X159617623Y-127948513D01*
X159689218Y-127953548D01*
X159808782Y-127954390D01*
X160049826Y-127954390D01*
X160049826Y-127940372D01*
X160260739Y-127940372D01*
X160261170Y-127941671D01*
X160293369Y-127950696D01*
X160361046Y-127954390D01*
X160401594Y-127952621D01*
X160449014Y-127936244D01*
X160487267Y-127891190D01*
X160531914Y-127803738D01*
X160579305Y-127714592D01*
X160623380Y-127666480D01*
X160672651Y-127653086D01*
X160697619Y-127654320D01*
X160727484Y-127669427D01*
X160740179Y-127714135D01*
X160742827Y-127803738D01*
X160743541Y-127864198D01*
X160751146Y-127924579D01*
X160773448Y-127949506D01*
X160818153Y-127954390D01*
X160893480Y-127954390D01*
X160898860Y-127607890D01*
X160900862Y-127483414D01*
X160901054Y-127472303D01*
X161104393Y-127472303D01*
X161104393Y-127683962D01*
X161104479Y-127723012D01*
X161107377Y-127819474D01*
X161117992Y-127875257D01*
X161141151Y-127905416D01*
X161181681Y-127925006D01*
X161280468Y-127949198D01*
X161411672Y-127954348D01*
X161534627Y-127935337D01*
X161625174Y-127893861D01*
X161627975Y-127891597D01*
X161687319Y-127811777D01*
X161731166Y-127694856D01*
X161753703Y-127562329D01*
X161749114Y-127435690D01*
X161736432Y-127371885D01*
X161690175Y-127239012D01*
X161620927Y-127156744D01*
X162912222Y-127156744D01*
X162923575Y-127160678D01*
X162982794Y-127166085D01*
X163081240Y-127169877D01*
X163205994Y-127171409D01*
X163279845Y-127172006D01*
X163405670Y-127175353D01*
X163504631Y-127180952D01*
X163560030Y-127188019D01*
X163587014Y-127206343D01*
X163645269Y-127275328D01*
X163722667Y-127389657D01*
X163815319Y-127543910D01*
X163825894Y-127562329D01*
X164010345Y-127883602D01*
X164395247Y-127263658D01*
X164453351Y-127170076D01*
X164574495Y-126975252D01*
X164668881Y-126824543D01*
X164740097Y-126712933D01*
X164791728Y-126635409D01*
X164827361Y-126586955D01*
X164850582Y-126562558D01*
X164864978Y-126557202D01*
X164874135Y-126565872D01*
X164881639Y-126583555D01*
X164887327Y-126608451D01*
X164870359Y-126613371D01*
X164855027Y-126610641D01*
X164840573Y-126641936D01*
X164844488Y-126664411D01*
X164872482Y-126688910D01*
X164882409Y-126690598D01*
X164887360Y-126716467D01*
X164883407Y-126725109D01*
X164894722Y-126754130D01*
X164895306Y-126754435D01*
X164919399Y-126786137D01*
X164964636Y-126860100D01*
X165024754Y-126965672D01*
X165093491Y-127092204D01*
X165129943Y-127160627D01*
X165191462Y-127278878D01*
X165226047Y-127359291D01*
X165233780Y-127412911D01*
X165214742Y-127450782D01*
X165169016Y-127483949D01*
X165096682Y-127523458D01*
X165083860Y-127530684D01*
X165038996Y-127563861D01*
X165036537Y-127582655D01*
X165042037Y-127584389D01*
X165094709Y-127600103D01*
X165193513Y-127629150D01*
X165329443Y-127668896D01*
X165493489Y-127716704D01*
X165676647Y-127769940D01*
X166286510Y-127946978D01*
X166319530Y-127822630D01*
X166322446Y-127811712D01*
X166345609Y-127726553D01*
X166380043Y-127601433D01*
X166421594Y-127451404D01*
X166466108Y-127291520D01*
X166477101Y-127252089D01*
X166519434Y-127099237D01*
X166556434Y-126964134D01*
X166584442Y-126860202D01*
X166599803Y-126800861D01*
X166619941Y-126716964D01*
X166503370Y-126776435D01*
X166386798Y-126835905D01*
X166287109Y-126649418D01*
X166277376Y-126631279D01*
X166187518Y-126471528D01*
X166115935Y-126359330D01*
X166064448Y-126297296D01*
X166034881Y-126288038D01*
X166021549Y-126294852D01*
X165960245Y-126308385D01*
X165871834Y-126317876D01*
X165842704Y-126319984D01*
X165695168Y-126334602D01*
X165510095Y-126357479D01*
X165304820Y-126386352D01*
X165096682Y-126418962D01*
X165014752Y-126432304D01*
X164914679Y-126448019D01*
X164848882Y-126457639D01*
X164804894Y-126467763D01*
X164758491Y-126492094D01*
X164752670Y-126502174D01*
X164777435Y-126493237D01*
X164801730Y-126482952D01*
X164798255Y-126503472D01*
X164779560Y-126529302D01*
X164760577Y-126529453D01*
X164730718Y-126495123D01*
X164678860Y-126418382D01*
X164658959Y-126387909D01*
X164612221Y-126309099D01*
X164602058Y-126274215D01*
X164627578Y-126280862D01*
X164637011Y-126284791D01*
X164673265Y-126269657D01*
X164677292Y-126260057D01*
X164662364Y-126223478D01*
X164650698Y-126219243D01*
X164614326Y-126237388D01*
X164611902Y-126239682D01*
X164577005Y-126228319D01*
X164534079Y-126195798D01*
X164876034Y-126195798D01*
X164900834Y-126206822D01*
X164916785Y-126204648D01*
X164920921Y-126186735D01*
X164916505Y-126183129D01*
X164880747Y-126186735D01*
X164876034Y-126195798D01*
X164534079Y-126195798D01*
X164513439Y-126180161D01*
X164498063Y-126165668D01*
X165117077Y-126165668D01*
X165141878Y-126176692D01*
X165157829Y-126174517D01*
X165159151Y-126168791D01*
X165187074Y-126168791D01*
X165352792Y-126167313D01*
X165493552Y-126164073D01*
X165639816Y-126156605D01*
X165767196Y-126146089D01*
X165865351Y-126133601D01*
X165923940Y-126120215D01*
X165932622Y-126107008D01*
X165898693Y-126097122D01*
X165831434Y-126095110D01*
X165725040Y-126102049D01*
X165572763Y-126118390D01*
X165367857Y-126144581D01*
X165278070Y-126156605D01*
X165187074Y-126168791D01*
X165159151Y-126168791D01*
X165161965Y-126156605D01*
X165157549Y-126152999D01*
X165121791Y-126156605D01*
X165117077Y-126165668D01*
X164498063Y-126165668D01*
X164430825Y-126102292D01*
X164414908Y-126086335D01*
X164331984Y-126009826D01*
X164262628Y-125955994D01*
X164220484Y-125935648D01*
X164199311Y-125932214D01*
X164189697Y-125910487D01*
X164171349Y-125898935D01*
X164106958Y-125892470D01*
X164010543Y-125892735D01*
X163979228Y-125893848D01*
X163904070Y-125897108D01*
X163840128Y-125904398D01*
X163783041Y-125920397D01*
X163728446Y-125949782D01*
X163671983Y-125997231D01*
X163609289Y-126067422D01*
X163536002Y-126165033D01*
X163447762Y-126294741D01*
X163340206Y-126461226D01*
X163208973Y-126669164D01*
X163049700Y-126923233D01*
X163024363Y-126963887D01*
X162967014Y-127057992D01*
X162927158Y-127126482D01*
X162912222Y-127156744D01*
X161620927Y-127156744D01*
X161618643Y-127154031D01*
X161512767Y-127108944D01*
X161363473Y-127095757D01*
X161258687Y-127099140D01*
X161169113Y-127115050D01*
X161126735Y-127146659D01*
X161124816Y-127193596D01*
X161124682Y-127196878D01*
X161133024Y-127219255D01*
X161160253Y-127242440D01*
X161217265Y-127251758D01*
X161319178Y-127251449D01*
X161403260Y-127251260D01*
X161484850Y-127265239D01*
X161530764Y-127305950D01*
X161551083Y-127384488D01*
X161555889Y-127511947D01*
X161555791Y-127538783D01*
X161546772Y-127668420D01*
X161519539Y-127749694D01*
X161468876Y-127791751D01*
X161389573Y-127803738D01*
X161322113Y-127799273D01*
X161291361Y-127774985D01*
X161285176Y-127715377D01*
X161297361Y-127647480D01*
X161345437Y-127607890D01*
X161380442Y-127585875D01*
X161405698Y-127530533D01*
X161405208Y-127519074D01*
X161390850Y-127489321D01*
X161345671Y-127475615D01*
X161255045Y-127472303D01*
X161104393Y-127472303D01*
X160901054Y-127472303D01*
X160903136Y-127351888D01*
X160905072Y-127250215D01*
X160906393Y-127193596D01*
X160905858Y-127173744D01*
X160890108Y-127140101D01*
X160842604Y-127117953D01*
X160749219Y-127098777D01*
X160629801Y-127088375D01*
X160492414Y-127102507D01*
X160383426Y-127143735D01*
X160317085Y-127208445D01*
X160313436Y-127215636D01*
X160289772Y-127304372D01*
X160290610Y-127404103D01*
X160312078Y-127497185D01*
X160331738Y-127532564D01*
X160350304Y-127565974D01*
X160401418Y-127592825D01*
X160431676Y-127599656D01*
X160436331Y-127627645D01*
X160410287Y-127685977D01*
X160351131Y-127783820D01*
X160313845Y-127843869D01*
X160275573Y-127909310D01*
X160260739Y-127940372D01*
X160049826Y-127940372D01*
X160049826Y-127532564D01*
X160049826Y-127110737D01*
X159808782Y-127110737D01*
X159710119Y-127111178D01*
X159629392Y-127115011D01*
X159586946Y-127126000D01*
X159570492Y-127147906D01*
X159567738Y-127184488D01*
X159569531Y-127214573D01*
X159586369Y-127244515D01*
X159633507Y-127259491D01*
X159725923Y-127267347D01*
X159792385Y-127272061D01*
X159853349Y-127283605D01*
X159878920Y-127307507D01*
X159884108Y-127351781D01*
X159883346Y-127374167D01*
X159870007Y-127409966D01*
X159827784Y-127427586D01*
X159740989Y-127436290D01*
X159703521Y-127439014D01*
X159634436Y-127450093D01*
X159604413Y-127473307D01*
X159597869Y-127517498D01*
X159598374Y-127532564D01*
X159598503Y-127536395D01*
X159611710Y-127572009D01*
X159654011Y-127589832D01*
X159740989Y-127598706D01*
X159799660Y-127603182D01*
X159857174Y-127615462D01*
X159880024Y-127643475D01*
X159884108Y-127698281D01*
X159881863Y-127745148D01*
X159864853Y-127776149D01*
X159817922Y-127790518D01*
X159725923Y-127797780D01*
X159661618Y-127802318D01*
X159599477Y-127813746D01*
X159573177Y-127837238D01*
X159567738Y-127880639D01*
X159386955Y-127880639D01*
X159386955Y-127532564D01*
X159386955Y-127110737D01*
X159130846Y-127110737D01*
X159007807Y-127111409D01*
X158931693Y-127115769D01*
X158892097Y-127127325D01*
X158877089Y-127149587D01*
X158874737Y-127186063D01*
X158877452Y-127223682D01*
X158896126Y-127249099D01*
X158945545Y-127259434D01*
X159040455Y-127261389D01*
X159042989Y-127261389D01*
X159136630Y-127263000D01*
X159185153Y-127273209D01*
X159203390Y-127300105D01*
X159206172Y-127351781D01*
X159204481Y-127396418D01*
X159189175Y-127428055D01*
X159144703Y-127440197D01*
X159055520Y-127442172D01*
X158995060Y-127442886D01*
X158934679Y-127450491D01*
X158909752Y-127472793D01*
X158906130Y-127505943D01*
X158904868Y-127517498D01*
X158906295Y-127547729D01*
X158921504Y-127577919D01*
X158966109Y-127590382D01*
X159055520Y-127592825D01*
X159206172Y-127592825D01*
X159206172Y-127698281D01*
X159206172Y-127803738D01*
X159040455Y-127803738D01*
X158957692Y-127804972D01*
X158901775Y-127813460D01*
X158879039Y-127835923D01*
X158874737Y-127879064D01*
X158712323Y-127879064D01*
X158712448Y-127877944D01*
X158716532Y-127783749D01*
X158718929Y-127655735D01*
X158719259Y-127505943D01*
X158717147Y-127107611D01*
X158593659Y-127116707D01*
X158470171Y-127125802D01*
X158348551Y-127411164D01*
X158226932Y-127696526D01*
X158218308Y-127403632D01*
X158216810Y-127353716D01*
X158212098Y-127236510D01*
X158204761Y-127164759D01*
X158191643Y-127127313D01*
X158169590Y-127113023D01*
X158135449Y-127110737D01*
X158061214Y-127110737D01*
X158061214Y-127532564D01*
X158061214Y-127534383D01*
X157548996Y-127534383D01*
X157548996Y-127532564D01*
X157548996Y-127110737D01*
X157292887Y-127110737D01*
X157169847Y-127111409D01*
X157093733Y-127115769D01*
X157054137Y-127127325D01*
X157039129Y-127149587D01*
X157036777Y-127186063D01*
X157039492Y-127223682D01*
X157058166Y-127249099D01*
X157107585Y-127259434D01*
X157202495Y-127261389D01*
X157205029Y-127261389D01*
X157298671Y-127263000D01*
X157347194Y-127273209D01*
X157365430Y-127300105D01*
X157368213Y-127351781D01*
X157366521Y-127396418D01*
X157351215Y-127428055D01*
X157306743Y-127440197D01*
X157217560Y-127442172D01*
X157157100Y-127442886D01*
X157096719Y-127450491D01*
X157071792Y-127472793D01*
X157066908Y-127517498D01*
X157067619Y-127532564D01*
X157068335Y-127547729D01*
X157083545Y-127577919D01*
X157128150Y-127590382D01*
X157217560Y-127592825D01*
X157368213Y-127592825D01*
X157368213Y-127698281D01*
X157368213Y-127803738D01*
X157202495Y-127803738D01*
X157119732Y-127804972D01*
X157063815Y-127813460D01*
X157041079Y-127835923D01*
X157036777Y-127879064D01*
X156855994Y-127879064D01*
X156855994Y-127532564D01*
X156855994Y-127110737D01*
X156740976Y-127110737D01*
X156625958Y-127110737D01*
X156510277Y-127396976D01*
X156474409Y-127483488D01*
X156428778Y-127586599D01*
X156393900Y-127657099D01*
X156375326Y-127683216D01*
X156370756Y-127673382D01*
X156365908Y-127616372D01*
X156365078Y-127519885D01*
X156368575Y-127396976D01*
X156381095Y-127110737D01*
X156287109Y-127110737D01*
X156193124Y-127110737D01*
X156193124Y-127532564D01*
X156193124Y-127954390D01*
X155982210Y-127954390D01*
X155982210Y-127532564D01*
X155982210Y-127110737D01*
X155741166Y-127110737D01*
X155642503Y-127111178D01*
X155561776Y-127115011D01*
X155561537Y-127115073D01*
X155519331Y-127126000D01*
X155502876Y-127147906D01*
X155500123Y-127184488D01*
X155319340Y-127184488D01*
X155319340Y-127115073D01*
X155156750Y-127094759D01*
X155063304Y-127086713D01*
X154899450Y-127097611D01*
X154781624Y-127146079D01*
X154710462Y-127231768D01*
X154686599Y-127354324D01*
X154686701Y-127365151D01*
X154705438Y-127469460D01*
X154752478Y-127535845D01*
X154764820Y-127553262D01*
X154796344Y-127587115D01*
X154820594Y-127631027D01*
X154816741Y-127681023D01*
X154782452Y-127751402D01*
X154715397Y-127856466D01*
X154650551Y-127954390D01*
X153423163Y-127954390D01*
X153473878Y-127951373D01*
X153500146Y-127932506D01*
X153510010Y-127882983D01*
X153511510Y-127788004D01*
X153514226Y-127718256D01*
X153530931Y-127622768D01*
X153568181Y-127517456D01*
X153589451Y-127472303D01*
X153873076Y-127472303D01*
X153873076Y-127694767D01*
X153873178Y-127736360D01*
X153875997Y-127835440D01*
X153885621Y-127892419D01*
X153905946Y-127921128D01*
X153940870Y-127935400D01*
X153977914Y-127943258D01*
X154084743Y-127952669D01*
X154199433Y-127949901D01*
X154299479Y-127936167D01*
X154362377Y-127912681D01*
X154372910Y-127904051D01*
X154440021Y-127811401D01*
X154484125Y-127682593D01*
X154502687Y-127535845D01*
X154493171Y-127389371D01*
X154453041Y-127261389D01*
X154419613Y-127209468D01*
X154317977Y-127129214D01*
X154179867Y-127089508D01*
X154013281Y-127093404D01*
X153983010Y-127098165D01*
X153910816Y-127115192D01*
X153896953Y-127126471D01*
X153880743Y-127139659D01*
X153878791Y-127180649D01*
X153887467Y-127212863D01*
X153913654Y-127234717D01*
X153970979Y-127244250D01*
X154073976Y-127246354D01*
X154161029Y-127248921D01*
X154242616Y-127257340D01*
X154283012Y-127269586D01*
X154290119Y-127280462D01*
X154306588Y-127344602D01*
X154316330Y-127441191D01*
X154318655Y-127549752D01*
X154312868Y-127649807D01*
X154298277Y-127720879D01*
X154283862Y-127752724D01*
X154241363Y-127793524D01*
X154165083Y-127803738D01*
X154157563Y-127803697D01*
X154086434Y-127798991D01*
X154049009Y-127788844D01*
X154044625Y-127780737D01*
X154041706Y-127734250D01*
X154049784Y-127673005D01*
X154064444Y-127621994D01*
X154081270Y-127606209D01*
X154081285Y-127606218D01*
X154124846Y-127605613D01*
X154160090Y-127569395D01*
X154164652Y-127520539D01*
X154156995Y-127507005D01*
X154107335Y-127480447D01*
X154009609Y-127472303D01*
X153873076Y-127472303D01*
X153589451Y-127472303D01*
X153632032Y-127381911D01*
X153657118Y-127331674D01*
X153706018Y-127231425D01*
X153739890Y-127158658D01*
X153752554Y-127126471D01*
X153727069Y-127115421D01*
X153664623Y-127110737D01*
X153617802Y-127115240D01*
X153580884Y-127138269D01*
X153547569Y-127192733D01*
X153506591Y-127291520D01*
X153470245Y-127379060D01*
X153437215Y-127446492D01*
X153417413Y-127472303D01*
X153399779Y-127449747D01*
X153368235Y-127384501D01*
X153330728Y-127291520D01*
X153294306Y-127199782D01*
X153261568Y-127141673D01*
X153225954Y-127116311D01*
X153176401Y-127110737D01*
X153115838Y-127114404D01*
X153089684Y-127123561D01*
X152818509Y-127123561D01*
X152818509Y-125887314D01*
X164276254Y-125887314D01*
X164276721Y-125897599D01*
X164315801Y-125903139D01*
X164345417Y-125898314D01*
X164338711Y-125890452D01*
X164418747Y-125890452D01*
X164426609Y-125898314D01*
X164433812Y-125905517D01*
X164448877Y-125890452D01*
X164445990Y-125887565D01*
X164719035Y-125887565D01*
X164721420Y-125890452D01*
X164725495Y-125895386D01*
X164780312Y-125898527D01*
X164800755Y-125898236D01*
X164842418Y-125893481D01*
X164835796Y-125887314D01*
X164939125Y-125887314D01*
X164939405Y-125893481D01*
X164939592Y-125897599D01*
X164978671Y-125903139D01*
X165008288Y-125898314D01*
X164996875Y-125884935D01*
X164979452Y-125880121D01*
X164939125Y-125887314D01*
X164835796Y-125887314D01*
X164833041Y-125884748D01*
X164804002Y-125880062D01*
X164727584Y-125884748D01*
X164719035Y-125887565D01*
X164445990Y-125887565D01*
X164433812Y-125875387D01*
X164418747Y-125890452D01*
X164338711Y-125890452D01*
X164334005Y-125884935D01*
X164316581Y-125880121D01*
X164276254Y-125887314D01*
X152818509Y-125887314D01*
X152818509Y-125724735D01*
X160321000Y-125724735D01*
X167823491Y-125724735D01*
X167823491Y-125898314D01*
X167823491Y-126107008D01*
G37*
D13*
%TO.C,M4*%
X117539400Y-110613999D02*
X117539400Y-117964380D01*
X117539400Y-117964380D02*
X117789018Y-118213999D01*
X117789018Y-118213999D02*
X129864018Y-118213999D01*
X117789399Y-110363999D02*
X117539400Y-110613999D01*
X117789399Y-110363999D02*
X130851080Y-110363999D01*
X129864018Y-117213998D02*
X129864018Y-118213999D01*
X130614019Y-116463997D02*
X129864018Y-117213998D01*
X130614019Y-116463997D02*
X131212728Y-116463997D01*
X130851080Y-110363999D02*
X131212728Y-110725647D01*
X131212728Y-110725647D02*
X131212728Y-116463997D01*
%TO.C,M2*%
X177980784Y-46430242D02*
X177980784Y-61430242D01*
X177980784Y-46430242D02*
X179280784Y-46430242D01*
X177980784Y-61430242D02*
X183080784Y-61430242D01*
X187580784Y-46430242D02*
X181180784Y-46430242D01*
X187580784Y-60830242D02*
X187580784Y-46430242D01*
%TO.C,M3*%
X173270000Y-46721000D02*
X173270000Y-55821000D01*
X173270000Y-46721000D02*
X174270002Y-46721000D01*
X176370003Y-46721000D02*
X176370003Y-55821000D01*
%TO.C,M7*%
X126439999Y-83322998D02*
X126439999Y-95397998D01*
X126689618Y-83073380D02*
X126439999Y-83322998D01*
X127440000Y-95397998D02*
X126439999Y-95397998D01*
X128190001Y-96147999D02*
X127440000Y-95397998D01*
X128190001Y-96147999D02*
X128190001Y-96746708D01*
X133928351Y-96746708D02*
X128190001Y-96746708D01*
X134039999Y-83073380D02*
X126689618Y-83073380D01*
X134289999Y-83323379D02*
X134039999Y-83073380D01*
X134289999Y-83323379D02*
X134289999Y-96385060D01*
X134289999Y-96385060D02*
X133928351Y-96746708D01*
%TO.C,M9*%
X140095002Y-83774997D02*
X140094999Y-123674996D01*
X141394999Y-123674996D02*
X140094999Y-123674996D01*
X182195002Y-83774997D02*
X140095002Y-83774997D01*
X182195002Y-83774997D02*
X182195002Y-123674996D01*
X182195002Y-123674996D02*
X141394999Y-123674996D01*
%TO.C,M5*%
X190231000Y-33817000D02*
X204131000Y-33817000D01*
X204131000Y-61317000D01*
X190231000Y-61317000D01*
X190231000Y-33817000D01*
%TO.C,M1*%
X141470254Y-54557402D02*
X141470254Y-51357399D01*
X141470254Y-66657402D02*
X141470254Y-56257400D01*
X141470254Y-68557402D02*
X141470254Y-68257402D01*
X141470254Y-68557402D02*
X156870254Y-68557402D01*
X142970254Y-47957404D02*
X158270253Y-47957402D01*
X158270251Y-54657400D02*
X158270251Y-49857400D01*
X158270251Y-60857402D02*
X158270251Y-58157402D01*
X158270251Y-63557400D02*
X158270251Y-62457397D01*
X158270251Y-67107402D02*
X158270256Y-65557402D01*
X158270253Y-48257400D02*
X158270253Y-47957402D01*
D14*
%TO.C,F10*%
X136361000Y-53009010D02*
X136361000Y-48159010D01*
X138361000Y-53009010D02*
X138361000Y-48159010D01*
X136361000Y-48159010D02*
G75*
G02*
X138361000Y-48159010I1000000J0D01*
G01*
X138361000Y-53059010D02*
G75*
G02*
X136361000Y-53059010I-1000000J0D01*
G01*
D13*
%TO.C,M6*%
X199384460Y-106973499D02*
X206277337Y-106973499D01*
X199390663Y-96129705D02*
X199390663Y-106973499D01*
X199440663Y-96073503D02*
X199390663Y-96129705D01*
X199440663Y-96073503D02*
X200265662Y-96073503D01*
X200540668Y-95798499D02*
X200265662Y-96073503D01*
X200540668Y-95798499D02*
X206238490Y-95798499D01*
X206238490Y-95798499D02*
X206277337Y-106973499D01*
D15*
%TO.C,R911*%
X99947222Y-71324077D02*
X99547223Y-71324088D01*
X99948279Y-72069913D02*
X99548279Y-72069923D01*
%TO.C,R403*%
X122130015Y-120573000D02*
X122130005Y-120173000D01*
X122875851Y-120571943D02*
X122875840Y-120171944D01*
%TO.C,R903*%
X100158943Y-56279149D02*
X99758944Y-56279160D01*
X100160000Y-57024985D02*
X99760000Y-57024995D01*
%TO.C,R906*%
X89287222Y-71226149D02*
X88887223Y-71226160D01*
X89288279Y-71971985D02*
X88888279Y-71971995D01*
%TO.C,R405*%
X125334015Y-120573000D02*
X125334005Y-120173000D01*
X126079851Y-120571943D02*
X126079840Y-120171944D01*
%TO.C,R913*%
X110594943Y-55570149D02*
X110194944Y-55570160D01*
X110596000Y-56315985D02*
X110196000Y-56315995D01*
%TO.C,R916*%
X121158943Y-102069149D02*
X120758944Y-102069160D01*
X121160000Y-102814985D02*
X120760000Y-102814995D01*
%TO.C,R402*%
X118231015Y-120573000D02*
X118231005Y-120173000D01*
X118976851Y-120571943D02*
X118976840Y-120171944D01*
%TO.C,R905*%
X110785943Y-86687149D02*
X110385944Y-86687160D01*
X110787000Y-87432985D02*
X110387000Y-87432995D01*
%TO.C,R401*%
X119773015Y-120573000D02*
X119773005Y-120173000D01*
X120518851Y-120571943D02*
X120518840Y-120171944D01*
%TO.C,R912*%
X100068943Y-102189149D02*
X99668944Y-102189160D01*
X100070000Y-102934985D02*
X99670000Y-102934995D01*
%TO.C,R914*%
X110428943Y-102089149D02*
X110028944Y-102089160D01*
X110430000Y-102834985D02*
X110030000Y-102834995D01*
%TO.C,R902*%
X89498943Y-56179149D02*
X89098944Y-56179160D01*
X89500000Y-56924985D02*
X89100000Y-56924995D01*
%TO.C,R406*%
X126673015Y-120421000D02*
X126673005Y-120021000D01*
X127418851Y-120419943D02*
X127418840Y-120019944D01*
%TO.C,R904*%
X89620664Y-87042149D02*
X89220665Y-87042160D01*
X89621721Y-87787985D02*
X89221721Y-87787995D01*
%TO.C,R404*%
X123927015Y-120573000D02*
X123927005Y-120173000D01*
X124672851Y-120571943D02*
X124672840Y-120171944D01*
%TO.C,R901*%
X89408943Y-102089149D02*
X89008944Y-102089160D01*
X89410000Y-102834985D02*
X89010000Y-102834995D01*
%TO.C,R915*%
X110295943Y-70879149D02*
X109895944Y-70879160D01*
X110297000Y-71624985D02*
X109897000Y-71624995D01*
%TD*%
M02*
