G04 #@! TF.GenerationSoftware,KiCad,Pcbnew,8.0.9-8.0.9-0~ubuntu24.04.1*
G04 #@! TF.CreationDate,2026-01-27T20:47:38+00:00*
G04 #@! TF.ProjectId,greenecu48,67726565-6e65-4637-9534-382e6b696361,rev?*
G04 #@! TF.SameCoordinates,Original*
G04 #@! TF.FileFunction,Legend,Top*
G04 #@! TF.FilePolarity,Positive*
%FSLAX46Y46*%
G04 Gerber Fmt 4.6, Leading zero omitted, Abs format (unit mm)*
G04 Created by KiCad (PCBNEW 8.0.9-8.0.9-0~ubuntu24.04.1) date 2026-01-27 20:47:38*
%MOMM*%
%LPD*%
G01*
G04 APERTURE LIST*
%ADD10C,0.130000*%
%ADD11C,0.114300*%
%ADD12C,0.101600*%
%ADD13C,0.127000*%
%ADD14C,0.100000*%
%ADD15C,0.150000*%
%ADD16C,0.200000*%
%ADD17C,4.000000*%
%ADD18C,2.200000*%
G04 APERTURE END LIST*
D10*
X32042372Y99422797D02*
X32042372Y98815654D01*
X32042372Y98815654D02*
X32078086Y98744226D01*
X32078086Y98744226D02*
X32113801Y98708511D01*
X32113801Y98708511D02*
X32185229Y98672797D01*
X32185229Y98672797D02*
X32328086Y98672797D01*
X32328086Y98672797D02*
X32399515Y98708511D01*
X32399515Y98708511D02*
X32435229Y98744226D01*
X32435229Y98744226D02*
X32470943Y98815654D01*
X32470943Y98815654D02*
X32470943Y99422797D01*
X33220943Y98672797D02*
X32792372Y98672797D01*
X33006657Y98672797D02*
X33006657Y99422797D01*
X33006657Y99422797D02*
X32935229Y99315654D01*
X32935229Y99315654D02*
X32863800Y99244226D01*
X32863800Y99244226D02*
X32792372Y99208511D01*
X63177831Y105113770D02*
X63139736Y105056627D01*
X63139736Y105056627D02*
X63139736Y104970913D01*
X63139736Y104970913D02*
X63177831Y104885199D01*
X63177831Y104885199D02*
X63254021Y104828056D01*
X63254021Y104828056D02*
X63330212Y104799485D01*
X63330212Y104799485D02*
X63482593Y104770913D01*
X63482593Y104770913D02*
X63596879Y104770913D01*
X63596879Y104770913D02*
X63749260Y104799485D01*
X63749260Y104799485D02*
X63825450Y104828056D01*
X63825450Y104828056D02*
X63901641Y104885199D01*
X63901641Y104885199D02*
X63939736Y104970913D01*
X63939736Y104970913D02*
X63939736Y105028056D01*
X63939736Y105028056D02*
X63901641Y105113770D01*
X63901641Y105113770D02*
X63863545Y105142342D01*
X63863545Y105142342D02*
X63596879Y105142342D01*
X63596879Y105142342D02*
X63596879Y105028056D01*
X63939736Y105399485D02*
X63139736Y105399485D01*
X63139736Y105399485D02*
X63939736Y105742342D01*
X63939736Y105742342D02*
X63139736Y105742342D01*
X63939736Y106028056D02*
X63139736Y106028056D01*
X63139736Y106028056D02*
X63139736Y106170913D01*
X63139736Y106170913D02*
X63177831Y106256627D01*
X63177831Y106256627D02*
X63254021Y106313770D01*
X63254021Y106313770D02*
X63330212Y106342341D01*
X63330212Y106342341D02*
X63482593Y106370913D01*
X63482593Y106370913D02*
X63596879Y106370913D01*
X63596879Y106370913D02*
X63749260Y106342341D01*
X63749260Y106342341D02*
X63825450Y106313770D01*
X63825450Y106313770D02*
X63901641Y106256627D01*
X63901641Y106256627D02*
X63939736Y106170913D01*
X63939736Y106170913D02*
X63939736Y106028056D01*
X56446736Y104956385D02*
X55646736Y104956385D01*
X55913402Y105499241D02*
X56561021Y105499241D01*
X56561021Y105499241D02*
X56637212Y105470670D01*
X56637212Y105470670D02*
X56675307Y105442099D01*
X56675307Y105442099D02*
X56713402Y105384956D01*
X56713402Y105384956D02*
X56713402Y105299241D01*
X56713402Y105299241D02*
X56675307Y105242099D01*
X56408641Y105499241D02*
X56446736Y105442099D01*
X56446736Y105442099D02*
X56446736Y105327813D01*
X56446736Y105327813D02*
X56408641Y105270670D01*
X56408641Y105270670D02*
X56370545Y105242099D01*
X56370545Y105242099D02*
X56294355Y105213527D01*
X56294355Y105213527D02*
X56065783Y105213527D01*
X56065783Y105213527D02*
X55989593Y105242099D01*
X55989593Y105242099D02*
X55951498Y105270670D01*
X55951498Y105270670D02*
X55913402Y105327813D01*
X55913402Y105327813D02*
X55913402Y105442099D01*
X55913402Y105442099D02*
X55951498Y105499241D01*
X55913402Y105784956D02*
X56446736Y105784956D01*
X55989593Y105784956D02*
X55951498Y105813527D01*
X55951498Y105813527D02*
X55913402Y105870670D01*
X55913402Y105870670D02*
X55913402Y105956384D01*
X55913402Y105956384D02*
X55951498Y106013527D01*
X55951498Y106013527D02*
X56027688Y106042098D01*
X56027688Y106042098D02*
X56446736Y106042098D01*
X56446736Y106642098D02*
X56446736Y106299241D01*
X56446736Y106470670D02*
X55646736Y106470670D01*
X55646736Y106470670D02*
X55761021Y106413527D01*
X55761021Y106413527D02*
X55837212Y106356384D01*
X55837212Y106356384D02*
X55875307Y106299241D01*
D11*
X70791497Y94585678D02*
X71033402Y94585678D01*
X70743116Y94440535D02*
X70912450Y94948535D01*
X70912450Y94948535D02*
X71081783Y94440535D01*
X71178545Y94948535D02*
X71347879Y94440535D01*
X71347879Y94440535D02*
X71517212Y94948535D01*
X71759117Y94730821D02*
X71710736Y94755011D01*
X71710736Y94755011D02*
X71686546Y94779202D01*
X71686546Y94779202D02*
X71662355Y94827583D01*
X71662355Y94827583D02*
X71662355Y94851773D01*
X71662355Y94851773D02*
X71686546Y94900154D01*
X71686546Y94900154D02*
X71710736Y94924345D01*
X71710736Y94924345D02*
X71759117Y94948535D01*
X71759117Y94948535D02*
X71855879Y94948535D01*
X71855879Y94948535D02*
X71904260Y94924345D01*
X71904260Y94924345D02*
X71928451Y94900154D01*
X71928451Y94900154D02*
X71952641Y94851773D01*
X71952641Y94851773D02*
X71952641Y94827583D01*
X71952641Y94827583D02*
X71928451Y94779202D01*
X71928451Y94779202D02*
X71904260Y94755011D01*
X71904260Y94755011D02*
X71855879Y94730821D01*
X71855879Y94730821D02*
X71759117Y94730821D01*
X71759117Y94730821D02*
X71710736Y94706630D01*
X71710736Y94706630D02*
X71686546Y94682440D01*
X71686546Y94682440D02*
X71662355Y94634059D01*
X71662355Y94634059D02*
X71662355Y94537297D01*
X71662355Y94537297D02*
X71686546Y94488916D01*
X71686546Y94488916D02*
X71710736Y94464725D01*
X71710736Y94464725D02*
X71759117Y94440535D01*
X71759117Y94440535D02*
X71855879Y94440535D01*
X71855879Y94440535D02*
X71904260Y94464725D01*
X71904260Y94464725D02*
X71928451Y94488916D01*
X71928451Y94488916D02*
X71952641Y94537297D01*
X71952641Y94537297D02*
X71952641Y94634059D01*
X71952641Y94634059D02*
X71928451Y94682440D01*
X71928451Y94682440D02*
X71904260Y94706630D01*
X71904260Y94706630D02*
X71855879Y94730821D01*
D12*
X60231984Y100336220D02*
X60231984Y100578125D01*
X60377127Y100287839D02*
X59869127Y100457173D01*
X59869127Y100457173D02*
X60377127Y100626506D01*
X59869127Y100723268D02*
X59869127Y101013554D01*
X60377127Y100868411D02*
X59869127Y100868411D01*
X60377127Y101448983D02*
X60377127Y101158697D01*
X60377127Y101303840D02*
X59869127Y101303840D01*
X59869127Y101303840D02*
X59941698Y101255459D01*
X59941698Y101255459D02*
X59990079Y101207078D01*
X59990079Y101207078D02*
X60014270Y101158697D01*
X77791246Y100075569D02*
X77815437Y100051378D01*
X77815437Y100051378D02*
X77839627Y99978807D01*
X77839627Y99978807D02*
X77839627Y99930426D01*
X77839627Y99930426D02*
X77815437Y99857854D01*
X77815437Y99857854D02*
X77767056Y99809473D01*
X77767056Y99809473D02*
X77718675Y99785283D01*
X77718675Y99785283D02*
X77621913Y99761092D01*
X77621913Y99761092D02*
X77549341Y99761092D01*
X77549341Y99761092D02*
X77452579Y99785283D01*
X77452579Y99785283D02*
X77404198Y99809473D01*
X77404198Y99809473D02*
X77355817Y99857854D01*
X77355817Y99857854D02*
X77331627Y99930426D01*
X77331627Y99930426D02*
X77331627Y99978807D01*
X77331627Y99978807D02*
X77355817Y100051378D01*
X77355817Y100051378D02*
X77380008Y100075569D01*
X77839627Y100583569D02*
X77597722Y100414235D01*
X77839627Y100293283D02*
X77331627Y100293283D01*
X77331627Y100293283D02*
X77331627Y100486807D01*
X77331627Y100486807D02*
X77355817Y100535188D01*
X77355817Y100535188D02*
X77380008Y100559378D01*
X77380008Y100559378D02*
X77428389Y100583569D01*
X77428389Y100583569D02*
X77500960Y100583569D01*
X77500960Y100583569D02*
X77549341Y100559378D01*
X77549341Y100559378D02*
X77573532Y100535188D01*
X77573532Y100535188D02*
X77597722Y100486807D01*
X77597722Y100486807D02*
X77597722Y100293283D01*
X77839627Y100801283D02*
X77331627Y100801283D01*
X77331627Y100801283D02*
X77839627Y101091569D01*
X77839627Y101091569D02*
X77331627Y101091569D01*
X77839627Y101333473D02*
X77331627Y101333473D01*
X77839627Y101623759D02*
X77549341Y101406044D01*
X77331627Y101623759D02*
X77621913Y101333473D01*
X77646103Y101841473D02*
X77646103Y102228520D01*
X57837127Y98032078D02*
X57329127Y98032078D01*
X57329127Y98032078D02*
X57329127Y98153030D01*
X57329127Y98153030D02*
X57353317Y98225602D01*
X57353317Y98225602D02*
X57401698Y98273983D01*
X57401698Y98273983D02*
X57450079Y98298173D01*
X57450079Y98298173D02*
X57546841Y98322364D01*
X57546841Y98322364D02*
X57619413Y98322364D01*
X57619413Y98322364D02*
X57716175Y98298173D01*
X57716175Y98298173D02*
X57764556Y98273983D01*
X57764556Y98273983D02*
X57812937Y98225602D01*
X57812937Y98225602D02*
X57837127Y98153030D01*
X57837127Y98153030D02*
X57837127Y98032078D01*
X57643603Y98540078D02*
X57643603Y98927125D01*
D10*
X66418545Y105142342D02*
X66456641Y105113770D01*
X66456641Y105113770D02*
X66494736Y105028056D01*
X66494736Y105028056D02*
X66494736Y104970913D01*
X66494736Y104970913D02*
X66456641Y104885199D01*
X66456641Y104885199D02*
X66380450Y104828056D01*
X66380450Y104828056D02*
X66304260Y104799485D01*
X66304260Y104799485D02*
X66151879Y104770913D01*
X66151879Y104770913D02*
X66037593Y104770913D01*
X66037593Y104770913D02*
X65885212Y104799485D01*
X65885212Y104799485D02*
X65809021Y104828056D01*
X65809021Y104828056D02*
X65732831Y104885199D01*
X65732831Y104885199D02*
X65694736Y104970913D01*
X65694736Y104970913D02*
X65694736Y105028056D01*
X65694736Y105028056D02*
X65732831Y105113770D01*
X65732831Y105113770D02*
X65770926Y105142342D01*
X66266164Y105370913D02*
X66266164Y105656627D01*
X66494736Y105313770D02*
X65694736Y105513770D01*
X65694736Y105513770D02*
X66494736Y105713770D01*
X66494736Y105913771D02*
X65694736Y105913771D01*
X65694736Y105913771D02*
X66266164Y106113771D01*
X66266164Y106113771D02*
X65694736Y106313771D01*
X65694736Y106313771D02*
X66494736Y106313771D01*
X80700790Y95525457D02*
X80662694Y95487361D01*
X80662694Y95487361D02*
X80548409Y95449266D01*
X80548409Y95449266D02*
X80472218Y95449266D01*
X80472218Y95449266D02*
X80357932Y95487361D01*
X80357932Y95487361D02*
X80281742Y95563552D01*
X80281742Y95563552D02*
X80243647Y95639742D01*
X80243647Y95639742D02*
X80205551Y95792123D01*
X80205551Y95792123D02*
X80205551Y95906409D01*
X80205551Y95906409D02*
X80243647Y96058790D01*
X80243647Y96058790D02*
X80281742Y96134981D01*
X80281742Y96134981D02*
X80357932Y96211171D01*
X80357932Y96211171D02*
X80472218Y96249266D01*
X80472218Y96249266D02*
X80548409Y96249266D01*
X80548409Y96249266D02*
X80662694Y96211171D01*
X80662694Y96211171D02*
X80700790Y96173076D01*
X81005551Y95677838D02*
X81386504Y95677838D01*
X80929361Y95449266D02*
X81196028Y96249266D01*
X81196028Y96249266D02*
X81462694Y95449266D01*
X81729361Y95449266D02*
X81729361Y96249266D01*
X81729361Y96249266D02*
X82186504Y95449266D01*
X82186504Y95449266D02*
X82186504Y96249266D01*
X82567456Y95449266D02*
X82567456Y96249266D01*
X82567456Y95868314D02*
X83024599Y95868314D01*
X83024599Y95449266D02*
X83024599Y96249266D01*
X80905735Y103526457D02*
X80867639Y103488361D01*
X80867639Y103488361D02*
X80753354Y103450266D01*
X80753354Y103450266D02*
X80677163Y103450266D01*
X80677163Y103450266D02*
X80562877Y103488361D01*
X80562877Y103488361D02*
X80486687Y103564552D01*
X80486687Y103564552D02*
X80448592Y103640742D01*
X80448592Y103640742D02*
X80410496Y103793123D01*
X80410496Y103793123D02*
X80410496Y103907409D01*
X80410496Y103907409D02*
X80448592Y104059790D01*
X80448592Y104059790D02*
X80486687Y104135981D01*
X80486687Y104135981D02*
X80562877Y104212171D01*
X80562877Y104212171D02*
X80677163Y104250266D01*
X80677163Y104250266D02*
X80753354Y104250266D01*
X80753354Y104250266D02*
X80867639Y104212171D01*
X80867639Y104212171D02*
X80905735Y104174076D01*
X81705735Y103450266D02*
X81439068Y103831219D01*
X81248592Y103450266D02*
X81248592Y104250266D01*
X81248592Y104250266D02*
X81553354Y104250266D01*
X81553354Y104250266D02*
X81629544Y104212171D01*
X81629544Y104212171D02*
X81667639Y104174076D01*
X81667639Y104174076D02*
X81705735Y104097885D01*
X81705735Y104097885D02*
X81705735Y103983600D01*
X81705735Y103983600D02*
X81667639Y103907409D01*
X81667639Y103907409D02*
X81629544Y103869314D01*
X81629544Y103869314D02*
X81553354Y103831219D01*
X81553354Y103831219D02*
X81248592Y103831219D01*
X82048592Y103450266D02*
X82048592Y104250266D01*
X82048592Y104250266D02*
X82505735Y103450266D01*
X82505735Y103450266D02*
X82505735Y104250266D01*
X82886687Y103450266D02*
X82886687Y104250266D01*
X83343830Y103450266D02*
X83000972Y103907409D01*
X83343830Y104250266D02*
X82886687Y103793123D01*
X83686687Y103755028D02*
X84296211Y103755028D01*
X83991449Y103450266D02*
X83991449Y104059790D01*
X46667831Y100388078D02*
X46629736Y100311888D01*
X46629736Y100311888D02*
X46629736Y100197602D01*
X46629736Y100197602D02*
X46667831Y100083316D01*
X46667831Y100083316D02*
X46744021Y100007126D01*
X46744021Y100007126D02*
X46820212Y99969031D01*
X46820212Y99969031D02*
X46972593Y99930935D01*
X46972593Y99930935D02*
X47086879Y99930935D01*
X47086879Y99930935D02*
X47239260Y99969031D01*
X47239260Y99969031D02*
X47315450Y100007126D01*
X47315450Y100007126D02*
X47391641Y100083316D01*
X47391641Y100083316D02*
X47429736Y100197602D01*
X47429736Y100197602D02*
X47429736Y100273793D01*
X47429736Y100273793D02*
X47391641Y100388078D01*
X47391641Y100388078D02*
X47353545Y100426174D01*
X47353545Y100426174D02*
X47086879Y100426174D01*
X47086879Y100426174D02*
X47086879Y100273793D01*
X47429736Y100769031D02*
X46629736Y100769031D01*
X46629736Y100769031D02*
X47429736Y101226174D01*
X47429736Y101226174D02*
X46629736Y101226174D01*
X47429736Y101607126D02*
X46629736Y101607126D01*
X46629736Y101607126D02*
X46629736Y101797602D01*
X46629736Y101797602D02*
X46667831Y101911888D01*
X46667831Y101911888D02*
X46744021Y101988078D01*
X46744021Y101988078D02*
X46820212Y102026173D01*
X46820212Y102026173D02*
X46972593Y102064269D01*
X46972593Y102064269D02*
X47086879Y102064269D01*
X47086879Y102064269D02*
X47239260Y102026173D01*
X47239260Y102026173D02*
X47315450Y101988078D01*
X47315450Y101988078D02*
X47391641Y101911888D01*
X47391641Y101911888D02*
X47429736Y101797602D01*
X47429736Y101797602D02*
X47429736Y101607126D01*
X52471688Y91880647D02*
X52471688Y92147313D01*
X52890736Y92261599D02*
X52890736Y91880647D01*
X52890736Y91880647D02*
X52090736Y91880647D01*
X52090736Y91880647D02*
X52090736Y92261599D01*
X52090736Y92490171D02*
X52090736Y92947314D01*
X52890736Y92718742D02*
X52090736Y92718742D01*
X52471688Y93480647D02*
X52509783Y93594933D01*
X52509783Y93594933D02*
X52547879Y93633028D01*
X52547879Y93633028D02*
X52624069Y93671124D01*
X52624069Y93671124D02*
X52738355Y93671124D01*
X52738355Y93671124D02*
X52814545Y93633028D01*
X52814545Y93633028D02*
X52852641Y93594933D01*
X52852641Y93594933D02*
X52890736Y93518743D01*
X52890736Y93518743D02*
X52890736Y93213981D01*
X52890736Y93213981D02*
X52090736Y93213981D01*
X52090736Y93213981D02*
X52090736Y93480647D01*
X52090736Y93480647D02*
X52128831Y93556838D01*
X52128831Y93556838D02*
X52166926Y93594933D01*
X52166926Y93594933D02*
X52243117Y93633028D01*
X52243117Y93633028D02*
X52319307Y93633028D01*
X52319307Y93633028D02*
X52395498Y93594933D01*
X52395498Y93594933D02*
X52433593Y93556838D01*
X52433593Y93556838D02*
X52471688Y93480647D01*
X52471688Y93480647D02*
X52471688Y93213981D01*
X52585974Y94013981D02*
X52585974Y94623504D01*
X58851236Y93213981D02*
X58051236Y93213981D01*
X58051236Y93213981D02*
X58051236Y93404457D01*
X58051236Y93404457D02*
X58089331Y93518743D01*
X58089331Y93518743D02*
X58165521Y93594933D01*
X58165521Y93594933D02*
X58241712Y93633028D01*
X58241712Y93633028D02*
X58394093Y93671124D01*
X58394093Y93671124D02*
X58508379Y93671124D01*
X58508379Y93671124D02*
X58660760Y93633028D01*
X58660760Y93633028D02*
X58736950Y93594933D01*
X58736950Y93594933D02*
X58813141Y93518743D01*
X58813141Y93518743D02*
X58851236Y93404457D01*
X58851236Y93404457D02*
X58851236Y93213981D01*
X58546474Y94013981D02*
X58546474Y94623504D01*
X58851236Y94318743D02*
X58241712Y94318743D01*
X47429736Y97816316D02*
X47429736Y97435364D01*
X47429736Y97435364D02*
X46629736Y97435364D01*
X47391641Y98044887D02*
X47429736Y98159173D01*
X47429736Y98159173D02*
X47429736Y98349649D01*
X47429736Y98349649D02*
X47391641Y98425840D01*
X47391641Y98425840D02*
X47353545Y98463935D01*
X47353545Y98463935D02*
X47277355Y98502030D01*
X47277355Y98502030D02*
X47201164Y98502030D01*
X47201164Y98502030D02*
X47124974Y98463935D01*
X47124974Y98463935D02*
X47086879Y98425840D01*
X47086879Y98425840D02*
X47048783Y98349649D01*
X47048783Y98349649D02*
X47010688Y98197268D01*
X47010688Y98197268D02*
X46972593Y98121078D01*
X46972593Y98121078D02*
X46934498Y98082983D01*
X46934498Y98082983D02*
X46858307Y98044887D01*
X46858307Y98044887D02*
X46782117Y98044887D01*
X46782117Y98044887D02*
X46705926Y98082983D01*
X46705926Y98082983D02*
X46667831Y98121078D01*
X46667831Y98121078D02*
X46629736Y98197268D01*
X46629736Y98197268D02*
X46629736Y98387745D01*
X46629736Y98387745D02*
X46667831Y98502030D01*
X46705926Y98806792D02*
X46667831Y98844888D01*
X46667831Y98844888D02*
X46629736Y98921078D01*
X46629736Y98921078D02*
X46629736Y99111554D01*
X46629736Y99111554D02*
X46667831Y99187745D01*
X46667831Y99187745D02*
X46705926Y99225840D01*
X46705926Y99225840D02*
X46782117Y99263935D01*
X46782117Y99263935D02*
X46858307Y99263935D01*
X46858307Y99263935D02*
X46972593Y99225840D01*
X46972593Y99225840D02*
X47429736Y98768697D01*
X47429736Y98768697D02*
X47429736Y99263935D01*
D13*
X68243142Y94586338D02*
X68485047Y94586338D01*
X68194761Y94441195D02*
X68364095Y94949195D01*
X68364095Y94949195D02*
X68533428Y94441195D01*
X68630190Y94949195D02*
X68799524Y94441195D01*
X68799524Y94441195D02*
X68968857Y94949195D01*
X69355905Y94949195D02*
X69259143Y94949195D01*
X69259143Y94949195D02*
X69210762Y94925005D01*
X69210762Y94925005D02*
X69186572Y94900814D01*
X69186572Y94900814D02*
X69138191Y94828243D01*
X69138191Y94828243D02*
X69114000Y94731481D01*
X69114000Y94731481D02*
X69114000Y94537957D01*
X69114000Y94537957D02*
X69138191Y94489576D01*
X69138191Y94489576D02*
X69162381Y94465385D01*
X69162381Y94465385D02*
X69210762Y94441195D01*
X69210762Y94441195D02*
X69307524Y94441195D01*
X69307524Y94441195D02*
X69355905Y94465385D01*
X69355905Y94465385D02*
X69380096Y94489576D01*
X69380096Y94489576D02*
X69404286Y94537957D01*
X69404286Y94537957D02*
X69404286Y94658909D01*
X69404286Y94658909D02*
X69380096Y94707290D01*
X69380096Y94707290D02*
X69355905Y94731481D01*
X69355905Y94731481D02*
X69307524Y94755671D01*
X69307524Y94755671D02*
X69210762Y94755671D01*
X69210762Y94755671D02*
X69162381Y94731481D01*
X69162381Y94731481D02*
X69138191Y94707290D01*
X69138191Y94707290D02*
X69114000Y94658909D01*
D10*
X54699114Y94306266D02*
X54356257Y94306266D01*
X54527686Y94306266D02*
X54527686Y95106266D01*
X54527686Y95106266D02*
X54470543Y94991981D01*
X54470543Y94991981D02*
X54413400Y94915790D01*
X54413400Y94915790D02*
X54356257Y94877695D01*
X54927686Y95030076D02*
X54956258Y95068171D01*
X54956258Y95068171D02*
X55013401Y95106266D01*
X55013401Y95106266D02*
X55156258Y95106266D01*
X55156258Y95106266D02*
X55213401Y95068171D01*
X55213401Y95068171D02*
X55241972Y95030076D01*
X55241972Y95030076D02*
X55270543Y94953885D01*
X55270543Y94953885D02*
X55270543Y94877695D01*
X55270543Y94877695D02*
X55241972Y94763409D01*
X55241972Y94763409D02*
X54899115Y94306266D01*
X54899115Y94306266D02*
X55270543Y94306266D01*
D12*
X67724984Y100312029D02*
X67724984Y100553934D01*
X67870127Y100263648D02*
X67362127Y100432982D01*
X67362127Y100432982D02*
X67870127Y100602315D01*
X67362127Y100699077D02*
X67870127Y100868411D01*
X67870127Y100868411D02*
X67362127Y101037744D01*
X67362127Y101158697D02*
X67362127Y101497364D01*
X67362127Y101497364D02*
X67870127Y101279649D01*
D10*
X47561687Y94839600D02*
X47561687Y94306266D01*
X47418829Y95144361D02*
X47275972Y94572933D01*
X47275972Y94572933D02*
X47647401Y94572933D01*
X70797831Y105113770D02*
X70759736Y105056627D01*
X70759736Y105056627D02*
X70759736Y104970913D01*
X70759736Y104970913D02*
X70797831Y104885199D01*
X70797831Y104885199D02*
X70874021Y104828056D01*
X70874021Y104828056D02*
X70950212Y104799485D01*
X70950212Y104799485D02*
X71102593Y104770913D01*
X71102593Y104770913D02*
X71216879Y104770913D01*
X71216879Y104770913D02*
X71369260Y104799485D01*
X71369260Y104799485D02*
X71445450Y104828056D01*
X71445450Y104828056D02*
X71521641Y104885199D01*
X71521641Y104885199D02*
X71559736Y104970913D01*
X71559736Y104970913D02*
X71559736Y105028056D01*
X71559736Y105028056D02*
X71521641Y105113770D01*
X71521641Y105113770D02*
X71483545Y105142342D01*
X71483545Y105142342D02*
X71216879Y105142342D01*
X71216879Y105142342D02*
X71216879Y105028056D01*
X71559736Y105399485D02*
X70759736Y105399485D01*
X70759736Y105399485D02*
X70759736Y105628056D01*
X70759736Y105628056D02*
X70797831Y105685199D01*
X70797831Y105685199D02*
X70835926Y105713770D01*
X70835926Y105713770D02*
X70912117Y105742342D01*
X70912117Y105742342D02*
X71026402Y105742342D01*
X71026402Y105742342D02*
X71102593Y105713770D01*
X71102593Y105713770D02*
X71140688Y105685199D01*
X71140688Y105685199D02*
X71178783Y105628056D01*
X71178783Y105628056D02*
X71178783Y105399485D01*
X70759736Y105942342D02*
X70759736Y106313770D01*
X70759736Y106313770D02*
X71064498Y106113770D01*
X71064498Y106113770D02*
X71064498Y106199485D01*
X71064498Y106199485D02*
X71102593Y106256627D01*
X71102593Y106256627D02*
X71140688Y106285199D01*
X71140688Y106285199D02*
X71216879Y106313770D01*
X71216879Y106313770D02*
X71407355Y106313770D01*
X71407355Y106313770D02*
X71483545Y106285199D01*
X71483545Y106285199D02*
X71521641Y106256627D01*
X71521641Y106256627D02*
X71559736Y106199485D01*
X71559736Y106199485D02*
X71559736Y106028056D01*
X71559736Y106028056D02*
X71521641Y105970913D01*
X71521641Y105970913D02*
X71483545Y105942342D01*
D14*
X75174289Y95385091D02*
X75174289Y95626996D01*
X75319432Y95336710D02*
X74811432Y95506044D01*
X74811432Y95506044D02*
X75319432Y95675377D01*
X74811432Y95772139D02*
X75319432Y95941473D01*
X75319432Y95941473D02*
X74811432Y96110806D01*
X75319432Y96304330D02*
X75319432Y96401092D01*
X75319432Y96401092D02*
X75295242Y96449473D01*
X75295242Y96449473D02*
X75271051Y96473664D01*
X75271051Y96473664D02*
X75198480Y96522045D01*
X75198480Y96522045D02*
X75101718Y96546235D01*
X75101718Y96546235D02*
X74908194Y96546235D01*
X74908194Y96546235D02*
X74859813Y96522045D01*
X74859813Y96522045D02*
X74835622Y96497854D01*
X74835622Y96497854D02*
X74811432Y96449473D01*
X74811432Y96449473D02*
X74811432Y96352711D01*
X74811432Y96352711D02*
X74835622Y96304330D01*
X74835622Y96304330D02*
X74859813Y96280140D01*
X74859813Y96280140D02*
X74908194Y96255949D01*
X74908194Y96255949D02*
X75029146Y96255949D01*
X75029146Y96255949D02*
X75077527Y96280140D01*
X75077527Y96280140D02*
X75101718Y96304330D01*
X75101718Y96304330D02*
X75125908Y96352711D01*
X75125908Y96352711D02*
X75125908Y96449473D01*
X75125908Y96449473D02*
X75101718Y96497854D01*
X75101718Y96497854D02*
X75077527Y96522045D01*
X75077527Y96522045D02*
X75029146Y96546235D01*
D12*
X62771984Y97796220D02*
X62771984Y98038125D01*
X62917127Y97747839D02*
X62409127Y97917173D01*
X62409127Y97917173D02*
X62917127Y98086506D01*
X62409127Y98183268D02*
X62409127Y98473554D01*
X62917127Y98328411D02*
X62409127Y98328411D01*
X62457508Y98618697D02*
X62433317Y98642888D01*
X62433317Y98642888D02*
X62409127Y98691269D01*
X62409127Y98691269D02*
X62409127Y98812221D01*
X62409127Y98812221D02*
X62433317Y98860602D01*
X62433317Y98860602D02*
X62457508Y98884793D01*
X62457508Y98884793D02*
X62505889Y98908983D01*
X62505889Y98908983D02*
X62554270Y98908983D01*
X62554270Y98908983D02*
X62626841Y98884793D01*
X62626841Y98884793D02*
X62917127Y98594507D01*
X62917127Y98594507D02*
X62917127Y98908983D01*
X65184984Y100312029D02*
X65184984Y100553934D01*
X65330127Y100263648D02*
X64822127Y100432982D01*
X64822127Y100432982D02*
X65330127Y100602315D01*
X64822127Y100699077D02*
X65330127Y100868411D01*
X65330127Y100868411D02*
X64822127Y101037744D01*
X64870508Y101182887D02*
X64846317Y101207078D01*
X64846317Y101207078D02*
X64822127Y101255459D01*
X64822127Y101255459D02*
X64822127Y101376411D01*
X64822127Y101376411D02*
X64846317Y101424792D01*
X64846317Y101424792D02*
X64870508Y101448983D01*
X64870508Y101448983D02*
X64918889Y101473173D01*
X64918889Y101473173D02*
X64967270Y101473173D01*
X64967270Y101473173D02*
X65039841Y101448983D01*
X65039841Y101448983D02*
X65330127Y101158697D01*
X65330127Y101158697D02*
X65330127Y101473173D01*
D10*
X61234664Y92833028D02*
X61234664Y93213981D01*
X61463236Y92756838D02*
X60663236Y93023505D01*
X60663236Y93023505D02*
X61463236Y93290171D01*
X60663236Y93442552D02*
X61463236Y93709219D01*
X61463236Y93709219D02*
X60663236Y93975885D01*
X60663236Y94623504D02*
X60663236Y94242552D01*
X60663236Y94242552D02*
X61044188Y94204456D01*
X61044188Y94204456D02*
X61006093Y94242552D01*
X61006093Y94242552D02*
X60967998Y94318742D01*
X60967998Y94318742D02*
X60967998Y94509218D01*
X60967998Y94509218D02*
X61006093Y94585409D01*
X61006093Y94585409D02*
X61044188Y94623504D01*
X61044188Y94623504D02*
X61120379Y94661599D01*
X61120379Y94661599D02*
X61310855Y94661599D01*
X61310855Y94661599D02*
X61387045Y94623504D01*
X61387045Y94623504D02*
X61425141Y94585409D01*
X61425141Y94585409D02*
X61463236Y94509218D01*
X61463236Y94509218D02*
X61463236Y94318742D01*
X61463236Y94318742D02*
X61425141Y94242552D01*
X61425141Y94242552D02*
X61387045Y94204456D01*
D12*
X77791246Y97934712D02*
X77815437Y97910521D01*
X77815437Y97910521D02*
X77839627Y97837950D01*
X77839627Y97837950D02*
X77839627Y97789569D01*
X77839627Y97789569D02*
X77815437Y97716997D01*
X77815437Y97716997D02*
X77767056Y97668616D01*
X77767056Y97668616D02*
X77718675Y97644426D01*
X77718675Y97644426D02*
X77621913Y97620235D01*
X77621913Y97620235D02*
X77549341Y97620235D01*
X77549341Y97620235D02*
X77452579Y97644426D01*
X77452579Y97644426D02*
X77404198Y97668616D01*
X77404198Y97668616D02*
X77355817Y97716997D01*
X77355817Y97716997D02*
X77331627Y97789569D01*
X77331627Y97789569D02*
X77331627Y97837950D01*
X77331627Y97837950D02*
X77355817Y97910521D01*
X77355817Y97910521D02*
X77380008Y97934712D01*
X77694484Y98128235D02*
X77694484Y98370140D01*
X77839627Y98079854D02*
X77331627Y98249188D01*
X77331627Y98249188D02*
X77839627Y98418521D01*
X77839627Y98587855D02*
X77331627Y98587855D01*
X77331627Y98587855D02*
X77839627Y98878141D01*
X77839627Y98878141D02*
X77331627Y98878141D01*
X77839627Y99361950D02*
X77839627Y99120045D01*
X77839627Y99120045D02*
X77331627Y99120045D01*
X65184984Y97772029D02*
X65184984Y98013934D01*
X65330127Y97723648D02*
X64822127Y97892982D01*
X64822127Y97892982D02*
X65330127Y98062315D01*
X64822127Y98159077D02*
X65330127Y98328411D01*
X65330127Y98328411D02*
X64822127Y98497744D01*
X65330127Y98933173D02*
X65330127Y98642887D01*
X65330127Y98788030D02*
X64822127Y98788030D01*
X64822127Y98788030D02*
X64894698Y98739649D01*
X64894698Y98739649D02*
X64943079Y98691268D01*
X64943079Y98691268D02*
X64967270Y98642887D01*
X57353317Y100656744D02*
X57329127Y100608363D01*
X57329127Y100608363D02*
X57329127Y100535792D01*
X57329127Y100535792D02*
X57353317Y100463220D01*
X57353317Y100463220D02*
X57401698Y100414839D01*
X57401698Y100414839D02*
X57450079Y100390649D01*
X57450079Y100390649D02*
X57546841Y100366458D01*
X57546841Y100366458D02*
X57619413Y100366458D01*
X57619413Y100366458D02*
X57716175Y100390649D01*
X57716175Y100390649D02*
X57764556Y100414839D01*
X57764556Y100414839D02*
X57812937Y100463220D01*
X57812937Y100463220D02*
X57837127Y100535792D01*
X57837127Y100535792D02*
X57837127Y100584173D01*
X57837127Y100584173D02*
X57812937Y100656744D01*
X57812937Y100656744D02*
X57788746Y100680935D01*
X57788746Y100680935D02*
X57619413Y100680935D01*
X57619413Y100680935D02*
X57619413Y100584173D01*
X57837127Y100898649D02*
X57329127Y100898649D01*
X57329127Y100898649D02*
X57329127Y101092173D01*
X57329127Y101092173D02*
X57353317Y101140554D01*
X57353317Y101140554D02*
X57377508Y101164744D01*
X57377508Y101164744D02*
X57425889Y101188935D01*
X57425889Y101188935D02*
X57498460Y101188935D01*
X57498460Y101188935D02*
X57546841Y101164744D01*
X57546841Y101164744D02*
X57571032Y101140554D01*
X57571032Y101140554D02*
X57595222Y101092173D01*
X57595222Y101092173D02*
X57595222Y100898649D01*
X57329127Y101648554D02*
X57329127Y101406649D01*
X57329127Y101406649D02*
X57571032Y101382458D01*
X57571032Y101382458D02*
X57546841Y101406649D01*
X57546841Y101406649D02*
X57522651Y101455030D01*
X57522651Y101455030D02*
X57522651Y101575982D01*
X57522651Y101575982D02*
X57546841Y101624363D01*
X57546841Y101624363D02*
X57571032Y101648554D01*
X57571032Y101648554D02*
X57619413Y101672744D01*
X57619413Y101672744D02*
X57740365Y101672744D01*
X57740365Y101672744D02*
X57788746Y101648554D01*
X57788746Y101648554D02*
X57812937Y101624363D01*
X57812937Y101624363D02*
X57837127Y101575982D01*
X57837127Y101575982D02*
X57837127Y101455030D01*
X57837127Y101455030D02*
X57812937Y101406649D01*
X57812937Y101406649D02*
X57788746Y101382458D01*
D10*
X60652831Y105113770D02*
X60614736Y105056627D01*
X60614736Y105056627D02*
X60614736Y104970913D01*
X60614736Y104970913D02*
X60652831Y104885199D01*
X60652831Y104885199D02*
X60729021Y104828056D01*
X60729021Y104828056D02*
X60805212Y104799485D01*
X60805212Y104799485D02*
X60957593Y104770913D01*
X60957593Y104770913D02*
X61071879Y104770913D01*
X61071879Y104770913D02*
X61224260Y104799485D01*
X61224260Y104799485D02*
X61300450Y104828056D01*
X61300450Y104828056D02*
X61376641Y104885199D01*
X61376641Y104885199D02*
X61414736Y104970913D01*
X61414736Y104970913D02*
X61414736Y105028056D01*
X61414736Y105028056D02*
X61376641Y105113770D01*
X61376641Y105113770D02*
X61338545Y105142342D01*
X61338545Y105142342D02*
X61071879Y105142342D01*
X61071879Y105142342D02*
X61071879Y105028056D01*
X61414736Y105399485D02*
X60614736Y105399485D01*
X60614736Y105399485D02*
X61414736Y105742342D01*
X61414736Y105742342D02*
X60614736Y105742342D01*
X61414736Y106028056D02*
X60614736Y106028056D01*
X60614736Y106028056D02*
X60614736Y106170913D01*
X60614736Y106170913D02*
X60652831Y106256627D01*
X60652831Y106256627D02*
X60729021Y106313770D01*
X60729021Y106313770D02*
X60805212Y106342341D01*
X60805212Y106342341D02*
X60957593Y106370913D01*
X60957593Y106370913D02*
X61071879Y106370913D01*
X61071879Y106370913D02*
X61224260Y106342341D01*
X61224260Y106342341D02*
X61300450Y106313770D01*
X61300450Y106313770D02*
X61376641Y106256627D01*
X61376641Y106256627D02*
X61414736Y106170913D01*
X61414736Y106170913D02*
X61414736Y106028056D01*
X63774664Y92909218D02*
X63774664Y93290171D01*
X64003236Y92833028D02*
X63203236Y93099695D01*
X63203236Y93099695D02*
X64003236Y93366361D01*
X63203236Y93518742D02*
X63203236Y93975885D01*
X64003236Y93747313D02*
X63203236Y93747313D01*
X63203236Y94166361D02*
X63203236Y94661599D01*
X63203236Y94661599D02*
X63507998Y94394933D01*
X63507998Y94394933D02*
X63507998Y94509218D01*
X63507998Y94509218D02*
X63546093Y94585409D01*
X63546093Y94585409D02*
X63584188Y94623504D01*
X63584188Y94623504D02*
X63660379Y94661599D01*
X63660379Y94661599D02*
X63850855Y94661599D01*
X63850855Y94661599D02*
X63927045Y94623504D01*
X63927045Y94623504D02*
X63965141Y94585409D01*
X63965141Y94585409D02*
X64003236Y94509218D01*
X64003236Y94509218D02*
X64003236Y94280647D01*
X64003236Y94280647D02*
X63965141Y94204456D01*
X63965141Y94204456D02*
X63927045Y94166361D01*
X47364829Y103958266D02*
X47021972Y103958266D01*
X47193401Y103958266D02*
X47193401Y104758266D01*
X47193401Y104758266D02*
X47136258Y104643981D01*
X47136258Y104643981D02*
X47079115Y104567790D01*
X47079115Y104567790D02*
X47021972Y104529695D01*
D12*
X62771984Y100336220D02*
X62771984Y100578125D01*
X62917127Y100287839D02*
X62409127Y100457173D01*
X62409127Y100457173D02*
X62917127Y100626506D01*
X62409127Y100723268D02*
X62409127Y101013554D01*
X62917127Y100868411D02*
X62409127Y100868411D01*
X62578460Y101400602D02*
X62917127Y101400602D01*
X62384937Y101279650D02*
X62747794Y101158697D01*
X62747794Y101158697D02*
X62747794Y101473174D01*
D13*
X65473332Y94586338D02*
X65715237Y94586338D01*
X65424951Y94441195D02*
X65594285Y94949195D01*
X65594285Y94949195D02*
X65763618Y94441195D01*
X65860380Y94949195D02*
X66029714Y94441195D01*
X66029714Y94441195D02*
X66199047Y94949195D01*
X66634476Y94441195D02*
X66344190Y94441195D01*
X66489333Y94441195D02*
X66489333Y94949195D01*
X66489333Y94949195D02*
X66440952Y94876624D01*
X66440952Y94876624D02*
X66392571Y94828243D01*
X66392571Y94828243D02*
X66344190Y94804052D01*
X66948953Y94949195D02*
X66997334Y94949195D01*
X66997334Y94949195D02*
X67045715Y94925005D01*
X67045715Y94925005D02*
X67069905Y94900814D01*
X67069905Y94900814D02*
X67094096Y94852433D01*
X67094096Y94852433D02*
X67118286Y94755671D01*
X67118286Y94755671D02*
X67118286Y94634719D01*
X67118286Y94634719D02*
X67094096Y94537957D01*
X67094096Y94537957D02*
X67069905Y94489576D01*
X67069905Y94489576D02*
X67045715Y94465385D01*
X67045715Y94465385D02*
X66997334Y94441195D01*
X66997334Y94441195D02*
X66948953Y94441195D01*
X66948953Y94441195D02*
X66900572Y94465385D01*
X66900572Y94465385D02*
X66876381Y94489576D01*
X66876381Y94489576D02*
X66852191Y94537957D01*
X66852191Y94537957D02*
X66828000Y94634719D01*
X66828000Y94634719D02*
X66828000Y94755671D01*
X66828000Y94755671D02*
X66852191Y94852433D01*
X66852191Y94852433D02*
X66876381Y94900814D01*
X66876381Y94900814D02*
X66900572Y94925005D01*
X66900572Y94925005D02*
X66948953Y94949195D01*
D10*
X73987736Y104799485D02*
X73187736Y104799485D01*
X73987736Y105085199D02*
X73187736Y105085199D01*
X73187736Y105085199D02*
X73987736Y105428056D01*
X73987736Y105428056D02*
X73187736Y105428056D01*
X73187736Y105885198D02*
X73759164Y105885198D01*
X73759164Y105885198D02*
X73873450Y105856627D01*
X73873450Y105856627D02*
X73949641Y105799484D01*
X73949641Y105799484D02*
X73987736Y105713770D01*
X73987736Y105713770D02*
X73987736Y105656627D01*
X73987736Y106485198D02*
X73987736Y106142341D01*
X73987736Y106313770D02*
X73187736Y106313770D01*
X73187736Y106313770D02*
X73302021Y106256627D01*
X73302021Y106256627D02*
X73378212Y106199484D01*
X73378212Y106199484D02*
X73416307Y106142341D01*
X79914972Y104872600D02*
X79914972Y104339266D01*
X79772114Y105177361D02*
X79629257Y104605933D01*
X79629257Y104605933D02*
X80000686Y104605933D01*
X80514972Y105139266D02*
X80229258Y105139266D01*
X80229258Y105139266D02*
X80200686Y104758314D01*
X80200686Y104758314D02*
X80229258Y104796409D01*
X80229258Y104796409D02*
X80286401Y104834504D01*
X80286401Y104834504D02*
X80429258Y104834504D01*
X80429258Y104834504D02*
X80486401Y104796409D01*
X80486401Y104796409D02*
X80514972Y104758314D01*
X80514972Y104758314D02*
X80543543Y104682123D01*
X80543543Y104682123D02*
X80543543Y104491647D01*
X80543543Y104491647D02*
X80514972Y104415457D01*
X80514972Y104415457D02*
X80486401Y104377361D01*
X80486401Y104377361D02*
X80429258Y104339266D01*
X80429258Y104339266D02*
X80286401Y104339266D01*
X80286401Y104339266D02*
X80229258Y104377361D01*
X80229258Y104377361D02*
X80200686Y104415457D01*
D12*
X60231984Y97772029D02*
X60231984Y98013934D01*
X60377127Y97723648D02*
X59869127Y97892982D01*
X59869127Y97892982D02*
X60377127Y98062315D01*
X59869127Y98159077D02*
X60377127Y98328411D01*
X60377127Y98328411D02*
X59869127Y98497744D01*
X60038460Y98884792D02*
X60377127Y98884792D01*
X59844937Y98763840D02*
X60207794Y98642887D01*
X60207794Y98642887D02*
X60207794Y98957364D01*
D10*
X48788688Y91901173D02*
X48788688Y92167839D01*
X49207736Y92282125D02*
X49207736Y91901173D01*
X49207736Y91901173D02*
X48407736Y91901173D01*
X48407736Y91901173D02*
X48407736Y92282125D01*
X48407736Y92510697D02*
X48407736Y92967840D01*
X49207736Y92739268D02*
X48407736Y92739268D01*
X48788688Y93501173D02*
X48826783Y93615459D01*
X48826783Y93615459D02*
X48864879Y93653554D01*
X48864879Y93653554D02*
X48941069Y93691650D01*
X48941069Y93691650D02*
X49055355Y93691650D01*
X49055355Y93691650D02*
X49131545Y93653554D01*
X49131545Y93653554D02*
X49169641Y93615459D01*
X49169641Y93615459D02*
X49207736Y93539269D01*
X49207736Y93539269D02*
X49207736Y93234507D01*
X49207736Y93234507D02*
X48407736Y93234507D01*
X48407736Y93234507D02*
X48407736Y93501173D01*
X48407736Y93501173D02*
X48445831Y93577364D01*
X48445831Y93577364D02*
X48483926Y93615459D01*
X48483926Y93615459D02*
X48560117Y93653554D01*
X48560117Y93653554D02*
X48636307Y93653554D01*
X48636307Y93653554D02*
X48712498Y93615459D01*
X48712498Y93615459D02*
X48750593Y93577364D01*
X48750593Y93577364D02*
X48788688Y93501173D01*
X48788688Y93501173D02*
X48788688Y93234507D01*
X48902974Y94034507D02*
X48902974Y94644030D01*
X49207736Y94339269D02*
X48598212Y94339269D01*
X48269450Y105872243D02*
X47812307Y105872243D01*
X48040879Y105872243D02*
X48040879Y106672243D01*
X48040879Y106672243D02*
X47964688Y106557958D01*
X47964688Y106557958D02*
X47888498Y106481767D01*
X47888498Y106481767D02*
X47812307Y106443672D01*
X48574212Y106596053D02*
X48612308Y106634148D01*
X48612308Y106634148D02*
X48688498Y106672243D01*
X48688498Y106672243D02*
X48878974Y106672243D01*
X48878974Y106672243D02*
X48955165Y106634148D01*
X48955165Y106634148D02*
X48993260Y106596053D01*
X48993260Y106596053D02*
X49031355Y106519862D01*
X49031355Y106519862D02*
X49031355Y106443672D01*
X49031355Y106443672D02*
X48993260Y106329386D01*
X48993260Y106329386D02*
X48536117Y105872243D01*
X48536117Y105872243D02*
X49031355Y105872243D01*
X49259927Y106672243D02*
X49526594Y105872243D01*
X49526594Y105872243D02*
X49793260Y106672243D01*
X48307546Y104584288D02*
X48040879Y104965241D01*
X47850403Y104584288D02*
X47850403Y105384288D01*
X47850403Y105384288D02*
X48155165Y105384288D01*
X48155165Y105384288D02*
X48231355Y105346193D01*
X48231355Y105346193D02*
X48269450Y105308098D01*
X48269450Y105308098D02*
X48307546Y105231907D01*
X48307546Y105231907D02*
X48307546Y105117622D01*
X48307546Y105117622D02*
X48269450Y105041431D01*
X48269450Y105041431D02*
X48231355Y105003336D01*
X48231355Y105003336D02*
X48155165Y104965241D01*
X48155165Y104965241D02*
X47850403Y104965241D01*
X48955165Y104622383D02*
X48878974Y104584288D01*
X48878974Y104584288D02*
X48726593Y104584288D01*
X48726593Y104584288D02*
X48650403Y104622383D01*
X48650403Y104622383D02*
X48612307Y104698574D01*
X48612307Y104698574D02*
X48612307Y105003336D01*
X48612307Y105003336D02*
X48650403Y105079526D01*
X48650403Y105079526D02*
X48726593Y105117622D01*
X48726593Y105117622D02*
X48878974Y105117622D01*
X48878974Y105117622D02*
X48955165Y105079526D01*
X48955165Y105079526D02*
X48993260Y105003336D01*
X48993260Y105003336D02*
X48993260Y104927145D01*
X48993260Y104927145D02*
X48612307Y104850955D01*
X49450402Y104584288D02*
X49374212Y104622383D01*
X49374212Y104622383D02*
X49336117Y104698574D01*
X49336117Y104698574D02*
X49336117Y105384288D01*
X50098022Y104584288D02*
X50098022Y105003336D01*
X50098022Y105003336D02*
X50059927Y105079526D01*
X50059927Y105079526D02*
X49983736Y105117622D01*
X49983736Y105117622D02*
X49831355Y105117622D01*
X49831355Y105117622D02*
X49755165Y105079526D01*
X50098022Y104622383D02*
X50021831Y104584288D01*
X50021831Y104584288D02*
X49831355Y104584288D01*
X49831355Y104584288D02*
X49755165Y104622383D01*
X49755165Y104622383D02*
X49717069Y104698574D01*
X49717069Y104698574D02*
X49717069Y104774764D01*
X49717069Y104774764D02*
X49755165Y104850955D01*
X49755165Y104850955D02*
X49831355Y104889050D01*
X49831355Y104889050D02*
X50021831Y104889050D01*
X50021831Y104889050D02*
X50098022Y104927145D01*
X50402784Y105117622D02*
X50593260Y104584288D01*
X50783737Y105117622D02*
X50593260Y104584288D01*
X50593260Y104584288D02*
X50517070Y104393812D01*
X50517070Y104393812D02*
X50478975Y104355717D01*
X50478975Y104355717D02*
X50402784Y104317622D01*
X80721544Y98043457D02*
X80683448Y98005361D01*
X80683448Y98005361D02*
X80569163Y97967266D01*
X80569163Y97967266D02*
X80492972Y97967266D01*
X80492972Y97967266D02*
X80378686Y98005361D01*
X80378686Y98005361D02*
X80302496Y98081552D01*
X80302496Y98081552D02*
X80264401Y98157742D01*
X80264401Y98157742D02*
X80226305Y98310123D01*
X80226305Y98310123D02*
X80226305Y98424409D01*
X80226305Y98424409D02*
X80264401Y98576790D01*
X80264401Y98576790D02*
X80302496Y98652981D01*
X80302496Y98652981D02*
X80378686Y98729171D01*
X80378686Y98729171D02*
X80492972Y98767266D01*
X80492972Y98767266D02*
X80569163Y98767266D01*
X80569163Y98767266D02*
X80683448Y98729171D01*
X80683448Y98729171D02*
X80721544Y98691076D01*
X81026305Y98195838D02*
X81407258Y98195838D01*
X80950115Y97967266D02*
X81216782Y98767266D01*
X81216782Y98767266D02*
X81483448Y97967266D01*
X81750115Y97967266D02*
X81750115Y98767266D01*
X81750115Y98767266D02*
X82207258Y97967266D01*
X82207258Y97967266D02*
X82207258Y98767266D01*
X83578686Y97967266D02*
X83197734Y97967266D01*
X83197734Y97967266D02*
X83197734Y98767266D01*
D12*
X69735817Y100529744D02*
X69711627Y100481363D01*
X69711627Y100481363D02*
X69711627Y100408792D01*
X69711627Y100408792D02*
X69735817Y100336220D01*
X69735817Y100336220D02*
X69784198Y100287839D01*
X69784198Y100287839D02*
X69832579Y100263649D01*
X69832579Y100263649D02*
X69929341Y100239458D01*
X69929341Y100239458D02*
X70001913Y100239458D01*
X70001913Y100239458D02*
X70098675Y100263649D01*
X70098675Y100263649D02*
X70147056Y100287839D01*
X70147056Y100287839D02*
X70195437Y100336220D01*
X70195437Y100336220D02*
X70219627Y100408792D01*
X70219627Y100408792D02*
X70219627Y100457173D01*
X70219627Y100457173D02*
X70195437Y100529744D01*
X70195437Y100529744D02*
X70171246Y100553935D01*
X70171246Y100553935D02*
X70001913Y100553935D01*
X70001913Y100553935D02*
X70001913Y100457173D01*
X70219627Y100771649D02*
X69711627Y100771649D01*
X69711627Y100771649D02*
X69711627Y100965173D01*
X69711627Y100965173D02*
X69735817Y101013554D01*
X69735817Y101013554D02*
X69760008Y101037744D01*
X69760008Y101037744D02*
X69808389Y101061935D01*
X69808389Y101061935D02*
X69880960Y101061935D01*
X69880960Y101061935D02*
X69929341Y101037744D01*
X69929341Y101037744D02*
X69953532Y101013554D01*
X69953532Y101013554D02*
X69977722Y100965173D01*
X69977722Y100965173D02*
X69977722Y100771649D01*
X69760008Y101255458D02*
X69735817Y101279649D01*
X69735817Y101279649D02*
X69711627Y101328030D01*
X69711627Y101328030D02*
X69711627Y101448982D01*
X69711627Y101448982D02*
X69735817Y101497363D01*
X69735817Y101497363D02*
X69760008Y101521554D01*
X69760008Y101521554D02*
X69808389Y101545744D01*
X69808389Y101545744D02*
X69856770Y101545744D01*
X69856770Y101545744D02*
X69929341Y101521554D01*
X69929341Y101521554D02*
X70219627Y101231268D01*
X70219627Y101231268D02*
X70219627Y101545744D01*
X72759627Y100254578D02*
X72251627Y100254578D01*
X72759627Y100496483D02*
X72251627Y100496483D01*
X72251627Y100496483D02*
X72759627Y100786769D01*
X72759627Y100786769D02*
X72251627Y100786769D01*
X72251627Y101173816D02*
X72614484Y101173816D01*
X72614484Y101173816D02*
X72687056Y101149625D01*
X72687056Y101149625D02*
X72735437Y101101244D01*
X72735437Y101101244D02*
X72759627Y101028673D01*
X72759627Y101028673D02*
X72759627Y100980292D01*
X72300008Y101391530D02*
X72275817Y101415721D01*
X72275817Y101415721D02*
X72251627Y101464102D01*
X72251627Y101464102D02*
X72251627Y101585054D01*
X72251627Y101585054D02*
X72275817Y101633435D01*
X72275817Y101633435D02*
X72300008Y101657626D01*
X72300008Y101657626D02*
X72348389Y101681816D01*
X72348389Y101681816D02*
X72396770Y101681816D01*
X72396770Y101681816D02*
X72469341Y101657626D01*
X72469341Y101657626D02*
X72759627Y101367340D01*
X72759627Y101367340D02*
X72759627Y101681816D01*
D10*
X58097831Y105113770D02*
X58059736Y105056627D01*
X58059736Y105056627D02*
X58059736Y104970913D01*
X58059736Y104970913D02*
X58097831Y104885199D01*
X58097831Y104885199D02*
X58174021Y104828056D01*
X58174021Y104828056D02*
X58250212Y104799485D01*
X58250212Y104799485D02*
X58402593Y104770913D01*
X58402593Y104770913D02*
X58516879Y104770913D01*
X58516879Y104770913D02*
X58669260Y104799485D01*
X58669260Y104799485D02*
X58745450Y104828056D01*
X58745450Y104828056D02*
X58821641Y104885199D01*
X58821641Y104885199D02*
X58859736Y104970913D01*
X58859736Y104970913D02*
X58859736Y105028056D01*
X58859736Y105028056D02*
X58821641Y105113770D01*
X58821641Y105113770D02*
X58783545Y105142342D01*
X58783545Y105142342D02*
X58516879Y105142342D01*
X58516879Y105142342D02*
X58516879Y105028056D01*
X58859736Y105399485D02*
X58059736Y105399485D01*
X58059736Y105399485D02*
X58059736Y105628056D01*
X58059736Y105628056D02*
X58097831Y105685199D01*
X58097831Y105685199D02*
X58135926Y105713770D01*
X58135926Y105713770D02*
X58212117Y105742342D01*
X58212117Y105742342D02*
X58326402Y105742342D01*
X58326402Y105742342D02*
X58402593Y105713770D01*
X58402593Y105713770D02*
X58440688Y105685199D01*
X58440688Y105685199D02*
X58478783Y105628056D01*
X58478783Y105628056D02*
X58478783Y105399485D01*
X58059736Y106256627D02*
X58059736Y106142342D01*
X58059736Y106142342D02*
X58097831Y106085199D01*
X58097831Y106085199D02*
X58135926Y106056627D01*
X58135926Y106056627D02*
X58250212Y105999485D01*
X58250212Y105999485D02*
X58402593Y105970913D01*
X58402593Y105970913D02*
X58707355Y105970913D01*
X58707355Y105970913D02*
X58783545Y105999485D01*
X58783545Y105999485D02*
X58821641Y106028056D01*
X58821641Y106028056D02*
X58859736Y106085199D01*
X58859736Y106085199D02*
X58859736Y106199485D01*
X58859736Y106199485D02*
X58821641Y106256627D01*
X58821641Y106256627D02*
X58783545Y106285199D01*
X58783545Y106285199D02*
X58707355Y106313770D01*
X58707355Y106313770D02*
X58516879Y106313770D01*
X58516879Y106313770D02*
X58440688Y106285199D01*
X58440688Y106285199D02*
X58402593Y106256627D01*
X58402593Y106256627D02*
X58364498Y106199485D01*
X58364498Y106199485D02*
X58364498Y106085199D01*
X58364498Y106085199D02*
X58402593Y106028056D01*
X58402593Y106028056D02*
X58440688Y105999485D01*
X58440688Y105999485D02*
X58516879Y105970913D01*
D12*
X72285327Y98784935D02*
X72285327Y98543030D01*
X72285327Y98543030D02*
X72527232Y98518839D01*
X72527232Y98518839D02*
X72503041Y98543030D01*
X72503041Y98543030D02*
X72478851Y98591411D01*
X72478851Y98591411D02*
X72478851Y98712363D01*
X72478851Y98712363D02*
X72503041Y98760744D01*
X72503041Y98760744D02*
X72527232Y98784935D01*
X72527232Y98784935D02*
X72575613Y98809125D01*
X72575613Y98809125D02*
X72696565Y98809125D01*
X72696565Y98809125D02*
X72744946Y98784935D01*
X72744946Y98784935D02*
X72769137Y98760744D01*
X72769137Y98760744D02*
X72793327Y98712363D01*
X72793327Y98712363D02*
X72793327Y98591411D01*
X72793327Y98591411D02*
X72769137Y98543030D01*
X72769137Y98543030D02*
X72744946Y98518839D01*
X72285327Y98954268D02*
X72793327Y99123602D01*
X72793327Y99123602D02*
X72285327Y99292935D01*
X72333708Y99438078D02*
X72309517Y99462269D01*
X72309517Y99462269D02*
X72285327Y99510650D01*
X72285327Y99510650D02*
X72285327Y99631602D01*
X72285327Y99631602D02*
X72309517Y99679983D01*
X72309517Y99679983D02*
X72333708Y99704174D01*
X72333708Y99704174D02*
X72382089Y99728364D01*
X72382089Y99728364D02*
X72430470Y99728364D01*
X72430470Y99728364D02*
X72503041Y99704174D01*
X72503041Y99704174D02*
X72793327Y99413888D01*
X72793327Y99413888D02*
X72793327Y99728364D01*
D10*
X76587736Y104799485D02*
X75787736Y104799485D01*
X76587736Y105085199D02*
X75787736Y105085199D01*
X75787736Y105085199D02*
X76587736Y105428056D01*
X76587736Y105428056D02*
X75787736Y105428056D01*
X75787736Y105885198D02*
X76359164Y105885198D01*
X76359164Y105885198D02*
X76473450Y105856627D01*
X76473450Y105856627D02*
X76549641Y105799484D01*
X76549641Y105799484D02*
X76587736Y105713770D01*
X76587736Y105713770D02*
X76587736Y105656627D01*
X75787736Y106113770D02*
X75787736Y106485198D01*
X75787736Y106485198D02*
X76092498Y106285198D01*
X76092498Y106285198D02*
X76092498Y106370913D01*
X76092498Y106370913D02*
X76130593Y106428055D01*
X76130593Y106428055D02*
X76168688Y106456627D01*
X76168688Y106456627D02*
X76244879Y106485198D01*
X76244879Y106485198D02*
X76435355Y106485198D01*
X76435355Y106485198D02*
X76511545Y106456627D01*
X76511545Y106456627D02*
X76549641Y106428055D01*
X76549641Y106428055D02*
X76587736Y106370913D01*
X76587736Y106370913D02*
X76587736Y106199484D01*
X76587736Y106199484D02*
X76549641Y106142341D01*
X76549641Y106142341D02*
X76511545Y106113770D01*
X79787972Y94693600D02*
X79787972Y94160266D01*
X79645114Y94998361D02*
X79502257Y94426933D01*
X79502257Y94426933D02*
X79873686Y94426933D01*
X80187972Y94617409D02*
X80130829Y94655504D01*
X80130829Y94655504D02*
X80102258Y94693600D01*
X80102258Y94693600D02*
X80073686Y94769790D01*
X80073686Y94769790D02*
X80073686Y94807885D01*
X80073686Y94807885D02*
X80102258Y94884076D01*
X80102258Y94884076D02*
X80130829Y94922171D01*
X80130829Y94922171D02*
X80187972Y94960266D01*
X80187972Y94960266D02*
X80302258Y94960266D01*
X80302258Y94960266D02*
X80359401Y94922171D01*
X80359401Y94922171D02*
X80387972Y94884076D01*
X80387972Y94884076D02*
X80416543Y94807885D01*
X80416543Y94807885D02*
X80416543Y94769790D01*
X80416543Y94769790D02*
X80387972Y94693600D01*
X80387972Y94693600D02*
X80359401Y94655504D01*
X80359401Y94655504D02*
X80302258Y94617409D01*
X80302258Y94617409D02*
X80187972Y94617409D01*
X80187972Y94617409D02*
X80130829Y94579314D01*
X80130829Y94579314D02*
X80102258Y94541219D01*
X80102258Y94541219D02*
X80073686Y94465028D01*
X80073686Y94465028D02*
X80073686Y94312647D01*
X80073686Y94312647D02*
X80102258Y94236457D01*
X80102258Y94236457D02*
X80130829Y94198361D01*
X80130829Y94198361D02*
X80187972Y94160266D01*
X80187972Y94160266D02*
X80302258Y94160266D01*
X80302258Y94160266D02*
X80359401Y94198361D01*
X80359401Y94198361D02*
X80387972Y94236457D01*
X80387972Y94236457D02*
X80416543Y94312647D01*
X80416543Y94312647D02*
X80416543Y94465028D01*
X80416543Y94465028D02*
X80387972Y94541219D01*
X80387972Y94541219D02*
X80359401Y94579314D01*
X80359401Y94579314D02*
X80302258Y94617409D01*
D12*
X74815817Y98053244D02*
X74791627Y98004863D01*
X74791627Y98004863D02*
X74791627Y97932292D01*
X74791627Y97932292D02*
X74815817Y97859720D01*
X74815817Y97859720D02*
X74864198Y97811339D01*
X74864198Y97811339D02*
X74912579Y97787149D01*
X74912579Y97787149D02*
X75009341Y97762958D01*
X75009341Y97762958D02*
X75081913Y97762958D01*
X75081913Y97762958D02*
X75178675Y97787149D01*
X75178675Y97787149D02*
X75227056Y97811339D01*
X75227056Y97811339D02*
X75275437Y97859720D01*
X75275437Y97859720D02*
X75299627Y97932292D01*
X75299627Y97932292D02*
X75299627Y97980673D01*
X75299627Y97980673D02*
X75275437Y98053244D01*
X75275437Y98053244D02*
X75251246Y98077435D01*
X75251246Y98077435D02*
X75081913Y98077435D01*
X75081913Y98077435D02*
X75081913Y97980673D01*
X75299627Y98295149D02*
X74791627Y98295149D01*
X74791627Y98295149D02*
X74791627Y98488673D01*
X74791627Y98488673D02*
X74815817Y98537054D01*
X74815817Y98537054D02*
X74840008Y98561244D01*
X74840008Y98561244D02*
X74888389Y98585435D01*
X74888389Y98585435D02*
X74960960Y98585435D01*
X74960960Y98585435D02*
X75009341Y98561244D01*
X75009341Y98561244D02*
X75033532Y98537054D01*
X75033532Y98537054D02*
X75057722Y98488673D01*
X75057722Y98488673D02*
X75057722Y98295149D01*
X74960960Y99020863D02*
X75299627Y99020863D01*
X74767437Y98899911D02*
X75130294Y98778958D01*
X75130294Y98778958D02*
X75130294Y99093435D01*
X67724984Y97772029D02*
X67724984Y98013934D01*
X67870127Y97723648D02*
X67362127Y97892982D01*
X67362127Y97892982D02*
X67870127Y98062315D01*
X67362127Y98159077D02*
X67870127Y98328411D01*
X67870127Y98328411D02*
X67362127Y98497744D01*
X67362127Y98618697D02*
X67362127Y98933173D01*
X67362127Y98933173D02*
X67555651Y98763840D01*
X67555651Y98763840D02*
X67555651Y98836411D01*
X67555651Y98836411D02*
X67579841Y98884792D01*
X67579841Y98884792D02*
X67604032Y98908983D01*
X67604032Y98908983D02*
X67652413Y98933173D01*
X67652413Y98933173D02*
X67773365Y98933173D01*
X67773365Y98933173D02*
X67821746Y98908983D01*
X67821746Y98908983D02*
X67845937Y98884792D01*
X67845937Y98884792D02*
X67870127Y98836411D01*
X67870127Y98836411D02*
X67870127Y98691268D01*
X67870127Y98691268D02*
X67845937Y98642887D01*
X67845937Y98642887D02*
X67821746Y98618697D01*
D13*
X50579587Y100410078D02*
X50541492Y100333888D01*
X50541492Y100333888D02*
X50541492Y100219602D01*
X50541492Y100219602D02*
X50579587Y100105316D01*
X50579587Y100105316D02*
X50655777Y100029126D01*
X50655777Y100029126D02*
X50731968Y99991031D01*
X50731968Y99991031D02*
X50884349Y99952935D01*
X50884349Y99952935D02*
X50998635Y99952935D01*
X50998635Y99952935D02*
X51151016Y99991031D01*
X51151016Y99991031D02*
X51227206Y100029126D01*
X51227206Y100029126D02*
X51303397Y100105316D01*
X51303397Y100105316D02*
X51341492Y100219602D01*
X51341492Y100219602D02*
X51341492Y100295793D01*
X51341492Y100295793D02*
X51303397Y100410078D01*
X51303397Y100410078D02*
X51265301Y100448174D01*
X51265301Y100448174D02*
X50998635Y100448174D01*
X50998635Y100448174D02*
X50998635Y100295793D01*
X51341492Y100791031D02*
X50541492Y100791031D01*
X50541492Y100791031D02*
X51341492Y101248174D01*
X51341492Y101248174D02*
X50541492Y101248174D01*
X51341492Y101629126D02*
X50541492Y101629126D01*
X50541492Y101629126D02*
X50541492Y101819602D01*
X50541492Y101819602D02*
X50579587Y101933888D01*
X50579587Y101933888D02*
X50655777Y102010078D01*
X50655777Y102010078D02*
X50731968Y102048173D01*
X50731968Y102048173D02*
X50884349Y102086269D01*
X50884349Y102086269D02*
X50998635Y102086269D01*
X50998635Y102086269D02*
X51151016Y102048173D01*
X51151016Y102048173D02*
X51227206Y102010078D01*
X51227206Y102010078D02*
X51303397Y101933888D01*
X51303397Y101933888D02*
X51341492Y101819602D01*
X51341492Y101819602D02*
X51341492Y101629126D01*
D14*
X77304510Y95654591D02*
X77304510Y95412686D01*
X77304510Y95412686D02*
X77546415Y95388495D01*
X77546415Y95388495D02*
X77522224Y95412686D01*
X77522224Y95412686D02*
X77498034Y95461067D01*
X77498034Y95461067D02*
X77498034Y95582019D01*
X77498034Y95582019D02*
X77522224Y95630400D01*
X77522224Y95630400D02*
X77546415Y95654591D01*
X77546415Y95654591D02*
X77594796Y95678781D01*
X77594796Y95678781D02*
X77715748Y95678781D01*
X77715748Y95678781D02*
X77764129Y95654591D01*
X77764129Y95654591D02*
X77788320Y95630400D01*
X77788320Y95630400D02*
X77812510Y95582019D01*
X77812510Y95582019D02*
X77812510Y95461067D01*
X77812510Y95461067D02*
X77788320Y95412686D01*
X77788320Y95412686D02*
X77764129Y95388495D01*
X77304510Y95823924D02*
X77812510Y95993258D01*
X77812510Y95993258D02*
X77304510Y96162591D01*
X77812510Y96598020D02*
X77812510Y96307734D01*
X77812510Y96452877D02*
X77304510Y96452877D01*
X77304510Y96452877D02*
X77377081Y96404496D01*
X77377081Y96404496D02*
X77425462Y96356115D01*
X77425462Y96356115D02*
X77449653Y96307734D01*
D12*
X55297127Y100318078D02*
X54789127Y100318078D01*
X54958460Y100777697D02*
X55369698Y100777697D01*
X55369698Y100777697D02*
X55418079Y100753507D01*
X55418079Y100753507D02*
X55442270Y100729316D01*
X55442270Y100729316D02*
X55466460Y100680935D01*
X55466460Y100680935D02*
X55466460Y100608364D01*
X55466460Y100608364D02*
X55442270Y100559983D01*
X55272937Y100777697D02*
X55297127Y100729316D01*
X55297127Y100729316D02*
X55297127Y100632554D01*
X55297127Y100632554D02*
X55272937Y100584173D01*
X55272937Y100584173D02*
X55248746Y100559983D01*
X55248746Y100559983D02*
X55200365Y100535792D01*
X55200365Y100535792D02*
X55055222Y100535792D01*
X55055222Y100535792D02*
X55006841Y100559983D01*
X55006841Y100559983D02*
X54982651Y100584173D01*
X54982651Y100584173D02*
X54958460Y100632554D01*
X54958460Y100632554D02*
X54958460Y100729316D01*
X54958460Y100729316D02*
X54982651Y100777697D01*
X54958460Y101019602D02*
X55297127Y101019602D01*
X55006841Y101019602D02*
X54982651Y101043792D01*
X54982651Y101043792D02*
X54958460Y101092173D01*
X54958460Y101092173D02*
X54958460Y101164745D01*
X54958460Y101164745D02*
X54982651Y101213126D01*
X54982651Y101213126D02*
X55031032Y101237316D01*
X55031032Y101237316D02*
X55297127Y101237316D01*
X54837508Y101455030D02*
X54813317Y101479221D01*
X54813317Y101479221D02*
X54789127Y101527602D01*
X54789127Y101527602D02*
X54789127Y101648554D01*
X54789127Y101648554D02*
X54813317Y101696935D01*
X54813317Y101696935D02*
X54837508Y101721126D01*
X54837508Y101721126D02*
X54885889Y101745316D01*
X54885889Y101745316D02*
X54934270Y101745316D01*
X54934270Y101745316D02*
X55006841Y101721126D01*
X55006841Y101721126D02*
X55297127Y101430840D01*
X55297127Y101430840D02*
X55297127Y101745316D01*
D10*
X69019736Y104799485D02*
X68219736Y104799485D01*
X68219736Y104799485D02*
X68791164Y104999485D01*
X68791164Y104999485D02*
X68219736Y105199485D01*
X68219736Y105199485D02*
X69019736Y105199485D01*
X68791164Y105456627D02*
X68791164Y105742341D01*
X69019736Y105399484D02*
X68219736Y105599484D01*
X68219736Y105599484D02*
X69019736Y105799484D01*
X69019736Y105999485D02*
X68219736Y105999485D01*
X69019736Y106285199D02*
X68219736Y106285199D01*
X68219736Y106285199D02*
X69019736Y106628056D01*
X69019736Y106628056D02*
X68219736Y106628056D01*
X69019736Y107713770D02*
X68638783Y107513770D01*
X69019736Y107370913D02*
X68219736Y107370913D01*
X68219736Y107370913D02*
X68219736Y107599484D01*
X68219736Y107599484D02*
X68257831Y107656627D01*
X68257831Y107656627D02*
X68295926Y107685198D01*
X68295926Y107685198D02*
X68372117Y107713770D01*
X68372117Y107713770D02*
X68486402Y107713770D01*
X68486402Y107713770D02*
X68562593Y107685198D01*
X68562593Y107685198D02*
X68600688Y107656627D01*
X68600688Y107656627D02*
X68638783Y107599484D01*
X68638783Y107599484D02*
X68638783Y107370913D01*
X68600688Y107970913D02*
X68600688Y108170913D01*
X69019736Y108256627D02*
X69019736Y107970913D01*
X69019736Y107970913D02*
X68219736Y107970913D01*
X68219736Y107970913D02*
X68219736Y108256627D01*
X69019736Y108799484D02*
X69019736Y108513770D01*
X69019736Y108513770D02*
X68219736Y108513770D01*
X68791164Y108970912D02*
X68791164Y109256626D01*
X69019736Y108913769D02*
X68219736Y109113769D01*
X68219736Y109113769D02*
X69019736Y109313769D01*
X68638783Y109628055D02*
X69019736Y109628055D01*
X68219736Y109428055D02*
X68638783Y109628055D01*
X68638783Y109628055D02*
X68219736Y109828055D01*
X56383236Y92413980D02*
X55583236Y92413980D01*
X55849902Y93137789D02*
X56497521Y93137789D01*
X56497521Y93137789D02*
X56573712Y93099694D01*
X56573712Y93099694D02*
X56611807Y93061598D01*
X56611807Y93061598D02*
X56649902Y92985408D01*
X56649902Y92985408D02*
X56649902Y92871122D01*
X56649902Y92871122D02*
X56611807Y92794932D01*
X56345141Y93137789D02*
X56383236Y93061598D01*
X56383236Y93061598D02*
X56383236Y92909217D01*
X56383236Y92909217D02*
X56345141Y92833027D01*
X56345141Y92833027D02*
X56307045Y92794932D01*
X56307045Y92794932D02*
X56230855Y92756836D01*
X56230855Y92756836D02*
X56002283Y92756836D01*
X56002283Y92756836D02*
X55926093Y92794932D01*
X55926093Y92794932D02*
X55887998Y92833027D01*
X55887998Y92833027D02*
X55849902Y92909217D01*
X55849902Y92909217D02*
X55849902Y93061598D01*
X55849902Y93061598D02*
X55887998Y93137789D01*
X55849902Y93518742D02*
X56383236Y93518742D01*
X55926093Y93518742D02*
X55887998Y93556837D01*
X55887998Y93556837D02*
X55849902Y93633027D01*
X55849902Y93633027D02*
X55849902Y93747313D01*
X55849902Y93747313D02*
X55887998Y93823504D01*
X55887998Y93823504D02*
X55964188Y93861599D01*
X55964188Y93861599D02*
X56383236Y93861599D01*
X55849902Y94585409D02*
X56383236Y94585409D01*
X55545141Y94394933D02*
X56116569Y94204456D01*
X56116569Y94204456D02*
X56116569Y94699695D01*
D12*
X69735817Y97989744D02*
X69711627Y97941363D01*
X69711627Y97941363D02*
X69711627Y97868792D01*
X69711627Y97868792D02*
X69735817Y97796220D01*
X69735817Y97796220D02*
X69784198Y97747839D01*
X69784198Y97747839D02*
X69832579Y97723649D01*
X69832579Y97723649D02*
X69929341Y97699458D01*
X69929341Y97699458D02*
X70001913Y97699458D01*
X70001913Y97699458D02*
X70098675Y97723649D01*
X70098675Y97723649D02*
X70147056Y97747839D01*
X70147056Y97747839D02*
X70195437Y97796220D01*
X70195437Y97796220D02*
X70219627Y97868792D01*
X70219627Y97868792D02*
X70219627Y97917173D01*
X70219627Y97917173D02*
X70195437Y97989744D01*
X70195437Y97989744D02*
X70171246Y98013935D01*
X70171246Y98013935D02*
X70001913Y98013935D01*
X70001913Y98013935D02*
X70001913Y97917173D01*
X70219627Y98231649D02*
X69711627Y98231649D01*
X69711627Y98231649D02*
X69711627Y98425173D01*
X69711627Y98425173D02*
X69735817Y98473554D01*
X69735817Y98473554D02*
X69760008Y98497744D01*
X69760008Y98497744D02*
X69808389Y98521935D01*
X69808389Y98521935D02*
X69880960Y98521935D01*
X69880960Y98521935D02*
X69929341Y98497744D01*
X69929341Y98497744D02*
X69953532Y98473554D01*
X69953532Y98473554D02*
X69977722Y98425173D01*
X69977722Y98425173D02*
X69977722Y98231649D01*
X70219627Y99005744D02*
X70219627Y98715458D01*
X70219627Y98860601D02*
X69711627Y98860601D01*
X69711627Y98860601D02*
X69784198Y98812220D01*
X69784198Y98812220D02*
X69832579Y98763839D01*
X69832579Y98763839D02*
X69856770Y98715458D01*
D13*
X51341492Y97838316D02*
X51341492Y97457364D01*
X51341492Y97457364D02*
X50541492Y97457364D01*
X51303397Y98066887D02*
X51341492Y98181173D01*
X51341492Y98181173D02*
X51341492Y98371649D01*
X51341492Y98371649D02*
X51303397Y98447840D01*
X51303397Y98447840D02*
X51265301Y98485935D01*
X51265301Y98485935D02*
X51189111Y98524030D01*
X51189111Y98524030D02*
X51112920Y98524030D01*
X51112920Y98524030D02*
X51036730Y98485935D01*
X51036730Y98485935D02*
X50998635Y98447840D01*
X50998635Y98447840D02*
X50960539Y98371649D01*
X50960539Y98371649D02*
X50922444Y98219268D01*
X50922444Y98219268D02*
X50884349Y98143078D01*
X50884349Y98143078D02*
X50846254Y98104983D01*
X50846254Y98104983D02*
X50770063Y98066887D01*
X50770063Y98066887D02*
X50693873Y98066887D01*
X50693873Y98066887D02*
X50617682Y98104983D01*
X50617682Y98104983D02*
X50579587Y98143078D01*
X50579587Y98143078D02*
X50541492Y98219268D01*
X50541492Y98219268D02*
X50541492Y98409745D01*
X50541492Y98409745D02*
X50579587Y98524030D01*
X51341492Y99285935D02*
X51341492Y98828792D01*
X51341492Y99057364D02*
X50541492Y99057364D01*
X50541492Y99057364D02*
X50655777Y98981173D01*
X50655777Y98981173D02*
X50731968Y98904983D01*
X50731968Y98904983D02*
X50770063Y98828792D01*
D12*
X54813317Y98116744D02*
X54789127Y98068363D01*
X54789127Y98068363D02*
X54789127Y97995792D01*
X54789127Y97995792D02*
X54813317Y97923220D01*
X54813317Y97923220D02*
X54861698Y97874839D01*
X54861698Y97874839D02*
X54910079Y97850649D01*
X54910079Y97850649D02*
X55006841Y97826458D01*
X55006841Y97826458D02*
X55079413Y97826458D01*
X55079413Y97826458D02*
X55176175Y97850649D01*
X55176175Y97850649D02*
X55224556Y97874839D01*
X55224556Y97874839D02*
X55272937Y97923220D01*
X55272937Y97923220D02*
X55297127Y97995792D01*
X55297127Y97995792D02*
X55297127Y98044173D01*
X55297127Y98044173D02*
X55272937Y98116744D01*
X55272937Y98116744D02*
X55248746Y98140935D01*
X55248746Y98140935D02*
X55079413Y98140935D01*
X55079413Y98140935D02*
X55079413Y98044173D01*
X55297127Y98358649D02*
X54789127Y98358649D01*
X54789127Y98358649D02*
X54789127Y98552173D01*
X54789127Y98552173D02*
X54813317Y98600554D01*
X54813317Y98600554D02*
X54837508Y98624744D01*
X54837508Y98624744D02*
X54885889Y98648935D01*
X54885889Y98648935D02*
X54958460Y98648935D01*
X54958460Y98648935D02*
X55006841Y98624744D01*
X55006841Y98624744D02*
X55031032Y98600554D01*
X55031032Y98600554D02*
X55055222Y98552173D01*
X55055222Y98552173D02*
X55055222Y98358649D01*
X54789127Y98818268D02*
X54789127Y99132744D01*
X54789127Y99132744D02*
X54982651Y98963411D01*
X54982651Y98963411D02*
X54982651Y99035982D01*
X54982651Y99035982D02*
X55006841Y99084363D01*
X55006841Y99084363D02*
X55031032Y99108554D01*
X55031032Y99108554D02*
X55079413Y99132744D01*
X55079413Y99132744D02*
X55200365Y99132744D01*
X55200365Y99132744D02*
X55248746Y99108554D01*
X55248746Y99108554D02*
X55272937Y99084363D01*
X55272937Y99084363D02*
X55297127Y99035982D01*
X55297127Y99035982D02*
X55297127Y98890839D01*
X55297127Y98890839D02*
X55272937Y98842458D01*
X55272937Y98842458D02*
X55248746Y98818268D01*
D15*
X47018420Y102590268D02*
X47732705Y102590268D01*
X47732705Y102590268D02*
X47875562Y102542649D01*
X47875562Y102542649D02*
X47970801Y102447411D01*
X47970801Y102447411D02*
X48018420Y102304554D01*
X48018420Y102304554D02*
X48018420Y102209316D01*
X47446991Y103209316D02*
X47399372Y103114078D01*
X47399372Y103114078D02*
X47351753Y103066459D01*
X47351753Y103066459D02*
X47256515Y103018840D01*
X47256515Y103018840D02*
X47208896Y103018840D01*
X47208896Y103018840D02*
X47113658Y103066459D01*
X47113658Y103066459D02*
X47066039Y103114078D01*
X47066039Y103114078D02*
X47018420Y103209316D01*
X47018420Y103209316D02*
X47018420Y103399792D01*
X47018420Y103399792D02*
X47066039Y103495030D01*
X47066039Y103495030D02*
X47113658Y103542649D01*
X47113658Y103542649D02*
X47208896Y103590268D01*
X47208896Y103590268D02*
X47256515Y103590268D01*
X47256515Y103590268D02*
X47351753Y103542649D01*
X47351753Y103542649D02*
X47399372Y103495030D01*
X47399372Y103495030D02*
X47446991Y103399792D01*
X47446991Y103399792D02*
X47446991Y103209316D01*
X47446991Y103209316D02*
X47494610Y103114078D01*
X47494610Y103114078D02*
X47542229Y103066459D01*
X47542229Y103066459D02*
X47637467Y103018840D01*
X47637467Y103018840D02*
X47827943Y103018840D01*
X47827943Y103018840D02*
X47923181Y103066459D01*
X47923181Y103066459D02*
X47970801Y103114078D01*
X47970801Y103114078D02*
X48018420Y103209316D01*
X48018420Y103209316D02*
X48018420Y103399792D01*
X48018420Y103399792D02*
X47970801Y103495030D01*
X47970801Y103495030D02*
X47923181Y103542649D01*
X47923181Y103542649D02*
X47827943Y103590268D01*
X47827943Y103590268D02*
X47637467Y103590268D01*
X47637467Y103590268D02*
X47542229Y103542649D01*
X47542229Y103542649D02*
X47494610Y103495030D01*
X47494610Y103495030D02*
X47446991Y103399792D01*
D10*
X80778735Y99779957D02*
X80740639Y99741861D01*
X80740639Y99741861D02*
X80626354Y99703766D01*
X80626354Y99703766D02*
X80550163Y99703766D01*
X80550163Y99703766D02*
X80435877Y99741861D01*
X80435877Y99741861D02*
X80359687Y99818052D01*
X80359687Y99818052D02*
X80321592Y99894242D01*
X80321592Y99894242D02*
X80283496Y100046623D01*
X80283496Y100046623D02*
X80283496Y100160909D01*
X80283496Y100160909D02*
X80321592Y100313290D01*
X80321592Y100313290D02*
X80359687Y100389481D01*
X80359687Y100389481D02*
X80435877Y100465671D01*
X80435877Y100465671D02*
X80550163Y100503766D01*
X80550163Y100503766D02*
X80626354Y100503766D01*
X80626354Y100503766D02*
X80740639Y100465671D01*
X80740639Y100465671D02*
X80778735Y100427576D01*
X81578735Y99703766D02*
X81312068Y100084719D01*
X81121592Y99703766D02*
X81121592Y100503766D01*
X81121592Y100503766D02*
X81426354Y100503766D01*
X81426354Y100503766D02*
X81502544Y100465671D01*
X81502544Y100465671D02*
X81540639Y100427576D01*
X81540639Y100427576D02*
X81578735Y100351385D01*
X81578735Y100351385D02*
X81578735Y100237100D01*
X81578735Y100237100D02*
X81540639Y100160909D01*
X81540639Y100160909D02*
X81502544Y100122814D01*
X81502544Y100122814D02*
X81426354Y100084719D01*
X81426354Y100084719D02*
X81121592Y100084719D01*
X81921592Y99703766D02*
X81921592Y100503766D01*
X81921592Y100503766D02*
X82378735Y99703766D01*
X82378735Y99703766D02*
X82378735Y100503766D01*
X82759687Y99703766D02*
X82759687Y100503766D01*
X83216830Y99703766D02*
X82873972Y100160909D01*
X83216830Y100503766D02*
X82759687Y100046623D01*
X83559687Y100008528D02*
X84169211Y100008528D01*
X52111874Y105897643D02*
X51654731Y105897643D01*
X51883303Y105897643D02*
X51883303Y106697643D01*
X51883303Y106697643D02*
X51807112Y106583358D01*
X51807112Y106583358D02*
X51730922Y106507167D01*
X51730922Y106507167D02*
X51654731Y106469072D01*
X52416636Y106621453D02*
X52454732Y106659548D01*
X52454732Y106659548D02*
X52530922Y106697643D01*
X52530922Y106697643D02*
X52721398Y106697643D01*
X52721398Y106697643D02*
X52797589Y106659548D01*
X52797589Y106659548D02*
X52835684Y106621453D01*
X52835684Y106621453D02*
X52873779Y106545262D01*
X52873779Y106545262D02*
X52873779Y106469072D01*
X52873779Y106469072D02*
X52835684Y106354786D01*
X52835684Y106354786D02*
X52378541Y105897643D01*
X52378541Y105897643D02*
X52873779Y105897643D01*
X53102351Y106697643D02*
X53369018Y105897643D01*
X53369018Y105897643D02*
X53635684Y106697643D01*
X51883304Y104609688D02*
X51883304Y105409688D01*
X52683303Y105371593D02*
X52607113Y105409688D01*
X52607113Y105409688D02*
X52492827Y105409688D01*
X52492827Y105409688D02*
X52378541Y105371593D01*
X52378541Y105371593D02*
X52302351Y105295403D01*
X52302351Y105295403D02*
X52264256Y105219212D01*
X52264256Y105219212D02*
X52226160Y105066831D01*
X52226160Y105066831D02*
X52226160Y104952545D01*
X52226160Y104952545D02*
X52264256Y104800164D01*
X52264256Y104800164D02*
X52302351Y104723974D01*
X52302351Y104723974D02*
X52378541Y104647783D01*
X52378541Y104647783D02*
X52492827Y104609688D01*
X52492827Y104609688D02*
X52569018Y104609688D01*
X52569018Y104609688D02*
X52683303Y104647783D01*
X52683303Y104647783D02*
X52721399Y104685879D01*
X52721399Y104685879D02*
X52721399Y104952545D01*
X52721399Y104952545D02*
X52569018Y104952545D01*
X53064256Y104609688D02*
X53064256Y105409688D01*
X53064256Y105409688D02*
X53521399Y104609688D01*
X53521399Y104609688D02*
X53521399Y105409688D01*
D12*
X75299627Y100254578D02*
X74791627Y100254578D01*
X75299627Y100496483D02*
X74791627Y100496483D01*
X74791627Y100496483D02*
X75299627Y100786769D01*
X75299627Y100786769D02*
X74791627Y100786769D01*
X74791627Y101173816D02*
X75154484Y101173816D01*
X75154484Y101173816D02*
X75227056Y101149625D01*
X75227056Y101149625D02*
X75275437Y101101244D01*
X75275437Y101101244D02*
X75299627Y101028673D01*
X75299627Y101028673D02*
X75299627Y100980292D01*
X74960960Y101633435D02*
X75299627Y101633435D01*
X74767437Y101512483D02*
X75130294Y101391530D01*
X75130294Y101391530D02*
X75130294Y101706007D01*
D10*
X54572115Y103958266D02*
X54686401Y103958266D01*
X54686401Y103958266D02*
X54743544Y103996361D01*
X54743544Y103996361D02*
X54772115Y104034457D01*
X54772115Y104034457D02*
X54829258Y104148742D01*
X54829258Y104148742D02*
X54857829Y104301123D01*
X54857829Y104301123D02*
X54857829Y104605885D01*
X54857829Y104605885D02*
X54829258Y104682076D01*
X54829258Y104682076D02*
X54800687Y104720171D01*
X54800687Y104720171D02*
X54743544Y104758266D01*
X54743544Y104758266D02*
X54629258Y104758266D01*
X54629258Y104758266D02*
X54572115Y104720171D01*
X54572115Y104720171D02*
X54543544Y104682076D01*
X54543544Y104682076D02*
X54514972Y104605885D01*
X54514972Y104605885D02*
X54514972Y104415409D01*
X54514972Y104415409D02*
X54543544Y104339219D01*
X54543544Y104339219D02*
X54572115Y104301123D01*
X54572115Y104301123D02*
X54629258Y104263028D01*
X54629258Y104263028D02*
X54743544Y104263028D01*
X54743544Y104263028D02*
X54800687Y104301123D01*
X54800687Y104301123D02*
X54829258Y104339219D01*
X54829258Y104339219D02*
X54857829Y104415409D01*
D16*
G04 #@! TO.C,M1*
X39259998Y62029991D02*
X80060001Y62029991D01*
X39259998Y22129992D02*
X39259998Y62029991D01*
X39259998Y22129992D02*
X81359998Y22129992D01*
X80060001Y62029991D02*
X81360001Y62029991D01*
X81359998Y22129992D02*
X81360001Y62029991D01*
G04 #@! TD*
D17*
G04 #@! TO.C,U1*
X38587601Y98705401D03*
D18*
X42687601Y94855401D03*
X85287601Y94855401D03*
D17*
X89387601Y98705401D03*
G04 #@! TD*
M02*
