G04 #@! TF.GenerationSoftware,KiCad,Pcbnew,8.0.9-8.0.9-0~ubuntu24.04.1*
G04 #@! TF.CreationDate,2026-02-09T21:46:22+00:00*
G04 #@! TF.ProjectId,greenecu48,67726565-6e65-4637-9534-382e6b696361,rev?*
G04 #@! TF.SameCoordinates,Original*
G04 #@! TF.FileFunction,Soldermask,Bot*
G04 #@! TF.FilePolarity,Negative*
%FSLAX46Y46*%
G04 Gerber Fmt 4.6, Leading zero omitted, Abs format (unit mm)*
G04 Created by KiCad (PCBNEW 8.0.9-8.0.9-0~ubuntu24.04.1) date 2026-02-09 21:46:22*
%MOMM*%
%LPD*%
G01*
G04 APERTURE LIST*
%ADD10C,0.600000*%
%ADD11R,1.100000X1.100000*%
%ADD12C,1.100000*%
%ADD13O,1.100000X2.400000*%
%ADD14C,4.000000*%
%ADD15C,2.200000*%
%ADD16C,1.600000*%
%ADD17C,0.599999*%
%ADD18C,1.500000*%
%ADD19C,1.524000*%
G04 APERTURE END LIST*
D10*
G04 #@! TO.C,M4*
X46724005Y17576002D03*
X46298997Y15740992D03*
X45749000Y17791000D03*
X44874041Y17576005D03*
X44024018Y17500998D03*
X43699002Y15740992D03*
X42399035Y17050992D03*
X41749018Y15740992D03*
X48924021Y21666007D03*
X48624019Y17591001D03*
G04 #@! TD*
G04 #@! TO.C,M2*
X103690784Y72549758D03*
X102490784Y72549758D03*
X104890784Y72549758D03*
X106090784Y72549758D03*
X99630784Y86974758D03*
X98630784Y86974758D03*
G04 #@! TD*
D11*
G04 #@! TO.C,J4*
X42758000Y8728000D03*
D12*
X43558000Y10478000D03*
X44358000Y8728000D03*
X45158000Y10478000D03*
X45958000Y8728000D03*
D13*
X40708000Y9603000D03*
X48008000Y9603000D03*
G04 #@! TD*
D10*
G04 #@! TO.C,M3*
X94680000Y78059000D03*
X93730000Y78059000D03*
X92780002Y78059000D03*
X93780000Y86759000D03*
X94680000Y86759000D03*
G04 #@! TD*
D14*
G04 #@! TO.C,U1*
X38587601Y98705401D03*
D15*
X42687601Y94855401D03*
X85287601Y94855401D03*
D14*
X89387601Y98705401D03*
D16*
X49137601Y103455401D03*
X49137601Y100955401D03*
X49137601Y98455401D03*
X49137601Y95955401D03*
X52837601Y103455401D03*
X52837601Y100955401D03*
X52837601Y98455401D03*
X52837601Y95955401D03*
X56337601Y103455401D03*
X56337601Y100955401D03*
X56337601Y98455401D03*
X56337601Y95955401D03*
X58837601Y103455401D03*
X58837601Y100955401D03*
X58837601Y98455401D03*
X58837601Y95955401D03*
X61337601Y103455401D03*
X61337601Y100955401D03*
X61337601Y98455401D03*
X61337601Y95955401D03*
X63837601Y103455401D03*
X63837601Y100955401D03*
X63837601Y98455401D03*
X63837601Y95955401D03*
X66337601Y103455401D03*
X66337601Y100955401D03*
X66337601Y98455401D03*
X66337601Y95955401D03*
X68837601Y103455401D03*
X68837601Y100955401D03*
X68837601Y98455401D03*
X68837601Y95955401D03*
X71337601Y103455401D03*
X71337601Y100955401D03*
X71337601Y98455401D03*
X71337601Y95955401D03*
X73837601Y103455401D03*
X73837601Y100955401D03*
X73837601Y98455401D03*
X73837601Y95955401D03*
X76337601Y103455401D03*
X76337601Y100955401D03*
X76337601Y98455401D03*
X76337601Y95955401D03*
X78837601Y103455401D03*
X78837601Y100955401D03*
X78837601Y98455401D03*
X78837601Y95955401D03*
G04 #@! TD*
D17*
G04 #@! TO.C,M7*
X47460000Y40332015D03*
X45624990Y40757023D03*
X47674998Y41307020D03*
X47460003Y42181979D03*
X47384996Y43032002D03*
X45624990Y43357018D03*
X46934990Y44656985D03*
X45624990Y45307002D03*
X51550005Y38131999D03*
X47474999Y38432001D03*
G04 #@! TD*
D18*
G04 #@! TO.C,M1*
X76530250Y84622598D03*
X76530250Y78222601D03*
X76530250Y76322598D03*
X76530250Y72022598D03*
D10*
X76980249Y69622601D03*
X76980249Y68622600D03*
D18*
X76530250Y65772598D03*
X61030253Y85072600D03*
X61030253Y83222601D03*
X61030253Y78272598D03*
X61030253Y66222600D03*
G04 #@! TD*
D19*
G04 #@! TO.C,F10*
X56271000Y85520990D03*
X56271000Y80620990D03*
G04 #@! TD*
D17*
G04 #@! TO.C,M6*
X119575662Y30281501D03*
X120100662Y31156503D03*
X120850660Y29981499D03*
X124400661Y30056502D03*
G04 #@! TD*
G04 #@! TO.C,R911*
G36*
G01*
X17508279Y61595072D02*
X17508279Y62375072D01*
G75*
G02*
X17578279Y62445072I70000J0D01*
G01*
X18138279Y62445072D01*
G75*
G02*
X18208279Y62375072I0J-70000D01*
G01*
X18208279Y61595072D01*
G75*
G02*
X18138279Y61525072I-70000J0D01*
G01*
X17578279Y61525072D01*
G75*
G02*
X17508279Y61595072I0J70000D01*
G01*
G37*
G36*
G01*
X19108279Y61595072D02*
X19108279Y62375072D01*
G75*
G02*
X19178279Y62445072I70000J0D01*
G01*
X19738279Y62445072D01*
G75*
G02*
X19808279Y62375072I0J-70000D01*
G01*
X19808279Y61595072D01*
G75*
G02*
X19738279Y61525072I-70000J0D01*
G01*
X19178279Y61525072D01*
G75*
G02*
X19108279Y61595072I0J70000D01*
G01*
G37*
G04 #@! TD*
G04 #@! TO.C,R403*
G36*
G01*
X41025000Y14457000D02*
X41805000Y14457000D01*
G75*
G02*
X41875000Y14387000I0J-70000D01*
G01*
X41875000Y13827000D01*
G75*
G02*
X41805000Y13757000I-70000J0D01*
G01*
X41025000Y13757000D01*
G75*
G02*
X40955000Y13827000I0J70000D01*
G01*
X40955000Y14387000D01*
G75*
G02*
X41025000Y14457000I70000J0D01*
G01*
G37*
G36*
G01*
X41025000Y12857000D02*
X41805000Y12857000D01*
G75*
G02*
X41875000Y12787000I0J-70000D01*
G01*
X41875000Y12227000D01*
G75*
G02*
X41805000Y12157000I-70000J0D01*
G01*
X41025000Y12157000D01*
G75*
G02*
X40955000Y12227000I0J70000D01*
G01*
X40955000Y12787000D01*
G75*
G02*
X41025000Y12857000I70000J0D01*
G01*
G37*
G04 #@! TD*
G04 #@! TO.C,R903*
G36*
G01*
X17720000Y76640000D02*
X17720000Y77420000D01*
G75*
G02*
X17790000Y77490000I70000J0D01*
G01*
X18350000Y77490000D01*
G75*
G02*
X18420000Y77420000I0J-70000D01*
G01*
X18420000Y76640000D01*
G75*
G02*
X18350000Y76570000I-70000J0D01*
G01*
X17790000Y76570000D01*
G75*
G02*
X17720000Y76640000I0J70000D01*
G01*
G37*
G36*
G01*
X19320000Y76640000D02*
X19320000Y77420000D01*
G75*
G02*
X19390000Y77490000I70000J0D01*
G01*
X19950000Y77490000D01*
G75*
G02*
X20020000Y77420000I0J-70000D01*
G01*
X20020000Y76640000D01*
G75*
G02*
X19950000Y76570000I-70000J0D01*
G01*
X19390000Y76570000D01*
G75*
G02*
X19320000Y76640000I0J70000D01*
G01*
G37*
G04 #@! TD*
G04 #@! TO.C,R906*
G36*
G01*
X6848279Y61693000D02*
X6848279Y62473000D01*
G75*
G02*
X6918279Y62543000I70000J0D01*
G01*
X7478279Y62543000D01*
G75*
G02*
X7548279Y62473000I0J-70000D01*
G01*
X7548279Y61693000D01*
G75*
G02*
X7478279Y61623000I-70000J0D01*
G01*
X6918279Y61623000D01*
G75*
G02*
X6848279Y61693000I0J70000D01*
G01*
G37*
G36*
G01*
X8448279Y61693000D02*
X8448279Y62473000D01*
G75*
G02*
X8518279Y62543000I70000J0D01*
G01*
X9078279Y62543000D01*
G75*
G02*
X9148279Y62473000I0J-70000D01*
G01*
X9148279Y61693000D01*
G75*
G02*
X9078279Y61623000I-70000J0D01*
G01*
X8518279Y61623000D01*
G75*
G02*
X8448279Y61693000I0J70000D01*
G01*
G37*
G04 #@! TD*
G04 #@! TO.C,R405*
G36*
G01*
X44229000Y14457000D02*
X45009000Y14457000D01*
G75*
G02*
X45079000Y14387000I0J-70000D01*
G01*
X45079000Y13827000D01*
G75*
G02*
X45009000Y13757000I-70000J0D01*
G01*
X44229000Y13757000D01*
G75*
G02*
X44159000Y13827000I0J70000D01*
G01*
X44159000Y14387000D01*
G75*
G02*
X44229000Y14457000I70000J0D01*
G01*
G37*
G36*
G01*
X44229000Y12857000D02*
X45009000Y12857000D01*
G75*
G02*
X45079000Y12787000I0J-70000D01*
G01*
X45079000Y12227000D01*
G75*
G02*
X45009000Y12157000I-70000J0D01*
G01*
X44229000Y12157000D01*
G75*
G02*
X44159000Y12227000I0J70000D01*
G01*
X44159000Y12787000D01*
G75*
G02*
X44229000Y12857000I70000J0D01*
G01*
G37*
G04 #@! TD*
G04 #@! TO.C,R913*
G36*
G01*
X28156000Y77349000D02*
X28156000Y78129000D01*
G75*
G02*
X28226000Y78199000I70000J0D01*
G01*
X28786000Y78199000D01*
G75*
G02*
X28856000Y78129000I0J-70000D01*
G01*
X28856000Y77349000D01*
G75*
G02*
X28786000Y77279000I-70000J0D01*
G01*
X28226000Y77279000D01*
G75*
G02*
X28156000Y77349000I0J70000D01*
G01*
G37*
G36*
G01*
X29756000Y77349000D02*
X29756000Y78129000D01*
G75*
G02*
X29826000Y78199000I70000J0D01*
G01*
X30386000Y78199000D01*
G75*
G02*
X30456000Y78129000I0J-70000D01*
G01*
X30456000Y77349000D01*
G75*
G02*
X30386000Y77279000I-70000J0D01*
G01*
X29826000Y77279000D01*
G75*
G02*
X29756000Y77349000I0J70000D01*
G01*
G37*
G04 #@! TD*
G04 #@! TO.C,R916*
G36*
G01*
X38720000Y30850000D02*
X38720000Y31630000D01*
G75*
G02*
X38790000Y31700000I70000J0D01*
G01*
X39350000Y31700000D01*
G75*
G02*
X39420000Y31630000I0J-70000D01*
G01*
X39420000Y30850000D01*
G75*
G02*
X39350000Y30780000I-70000J0D01*
G01*
X38790000Y30780000D01*
G75*
G02*
X38720000Y30850000I0J70000D01*
G01*
G37*
G36*
G01*
X40320000Y30850000D02*
X40320000Y31630000D01*
G75*
G02*
X40390000Y31700000I70000J0D01*
G01*
X40950000Y31700000D01*
G75*
G02*
X41020000Y31630000I0J-70000D01*
G01*
X41020000Y30850000D01*
G75*
G02*
X40950000Y30780000I-70000J0D01*
G01*
X40390000Y30780000D01*
G75*
G02*
X40320000Y30850000I0J70000D01*
G01*
G37*
G04 #@! TD*
G04 #@! TO.C,R402*
G36*
G01*
X37126000Y14457000D02*
X37906000Y14457000D01*
G75*
G02*
X37976000Y14387000I0J-70000D01*
G01*
X37976000Y13827000D01*
G75*
G02*
X37906000Y13757000I-70000J0D01*
G01*
X37126000Y13757000D01*
G75*
G02*
X37056000Y13827000I0J70000D01*
G01*
X37056000Y14387000D01*
G75*
G02*
X37126000Y14457000I70000J0D01*
G01*
G37*
G36*
G01*
X37126000Y12857000D02*
X37906000Y12857000D01*
G75*
G02*
X37976000Y12787000I0J-70000D01*
G01*
X37976000Y12227000D01*
G75*
G02*
X37906000Y12157000I-70000J0D01*
G01*
X37126000Y12157000D01*
G75*
G02*
X37056000Y12227000I0J70000D01*
G01*
X37056000Y12787000D01*
G75*
G02*
X37126000Y12857000I70000J0D01*
G01*
G37*
G04 #@! TD*
G04 #@! TO.C,R905*
G36*
G01*
X28347000Y46232000D02*
X28347000Y47012000D01*
G75*
G02*
X28417000Y47082000I70000J0D01*
G01*
X28977000Y47082000D01*
G75*
G02*
X29047000Y47012000I0J-70000D01*
G01*
X29047000Y46232000D01*
G75*
G02*
X28977000Y46162000I-70000J0D01*
G01*
X28417000Y46162000D01*
G75*
G02*
X28347000Y46232000I0J70000D01*
G01*
G37*
G36*
G01*
X29947000Y46232000D02*
X29947000Y47012000D01*
G75*
G02*
X30017000Y47082000I70000J0D01*
G01*
X30577000Y47082000D01*
G75*
G02*
X30647000Y47012000I0J-70000D01*
G01*
X30647000Y46232000D01*
G75*
G02*
X30577000Y46162000I-70000J0D01*
G01*
X30017000Y46162000D01*
G75*
G02*
X29947000Y46232000I0J70000D01*
G01*
G37*
G04 #@! TD*
G04 #@! TO.C,R401*
G36*
G01*
X38668000Y14457000D02*
X39448000Y14457000D01*
G75*
G02*
X39518000Y14387000I0J-70000D01*
G01*
X39518000Y13827000D01*
G75*
G02*
X39448000Y13757000I-70000J0D01*
G01*
X38668000Y13757000D01*
G75*
G02*
X38598000Y13827000I0J70000D01*
G01*
X38598000Y14387000D01*
G75*
G02*
X38668000Y14457000I70000J0D01*
G01*
G37*
G36*
G01*
X38668000Y12857000D02*
X39448000Y12857000D01*
G75*
G02*
X39518000Y12787000I0J-70000D01*
G01*
X39518000Y12227000D01*
G75*
G02*
X39448000Y12157000I-70000J0D01*
G01*
X38668000Y12157000D01*
G75*
G02*
X38598000Y12227000I0J70000D01*
G01*
X38598000Y12787000D01*
G75*
G02*
X38668000Y12857000I70000J0D01*
G01*
G37*
G04 #@! TD*
G04 #@! TO.C,R912*
G36*
G01*
X17630000Y30730000D02*
X17630000Y31510000D01*
G75*
G02*
X17700000Y31580000I70000J0D01*
G01*
X18260000Y31580000D01*
G75*
G02*
X18330000Y31510000I0J-70000D01*
G01*
X18330000Y30730000D01*
G75*
G02*
X18260000Y30660000I-70000J0D01*
G01*
X17700000Y30660000D01*
G75*
G02*
X17630000Y30730000I0J70000D01*
G01*
G37*
G36*
G01*
X19230000Y30730000D02*
X19230000Y31510000D01*
G75*
G02*
X19300000Y31580000I70000J0D01*
G01*
X19860000Y31580000D01*
G75*
G02*
X19930000Y31510000I0J-70000D01*
G01*
X19930000Y30730000D01*
G75*
G02*
X19860000Y30660000I-70000J0D01*
G01*
X19300000Y30660000D01*
G75*
G02*
X19230000Y30730000I0J70000D01*
G01*
G37*
G04 #@! TD*
G04 #@! TO.C,R914*
G36*
G01*
X27990000Y30830000D02*
X27990000Y31610000D01*
G75*
G02*
X28060000Y31680000I70000J0D01*
G01*
X28620000Y31680000D01*
G75*
G02*
X28690000Y31610000I0J-70000D01*
G01*
X28690000Y30830000D01*
G75*
G02*
X28620000Y30760000I-70000J0D01*
G01*
X28060000Y30760000D01*
G75*
G02*
X27990000Y30830000I0J70000D01*
G01*
G37*
G36*
G01*
X29590000Y30830000D02*
X29590000Y31610000D01*
G75*
G02*
X29660000Y31680000I70000J0D01*
G01*
X30220000Y31680000D01*
G75*
G02*
X30290000Y31610000I0J-70000D01*
G01*
X30290000Y30830000D01*
G75*
G02*
X30220000Y30760000I-70000J0D01*
G01*
X29660000Y30760000D01*
G75*
G02*
X29590000Y30830000I0J70000D01*
G01*
G37*
G04 #@! TD*
G04 #@! TO.C,R902*
G36*
G01*
X7060000Y76740000D02*
X7060000Y77520000D01*
G75*
G02*
X7130000Y77590000I70000J0D01*
G01*
X7690000Y77590000D01*
G75*
G02*
X7760000Y77520000I0J-70000D01*
G01*
X7760000Y76740000D01*
G75*
G02*
X7690000Y76670000I-70000J0D01*
G01*
X7130000Y76670000D01*
G75*
G02*
X7060000Y76740000I0J70000D01*
G01*
G37*
G36*
G01*
X8660000Y76740000D02*
X8660000Y77520000D01*
G75*
G02*
X8730000Y77590000I70000J0D01*
G01*
X9290000Y77590000D01*
G75*
G02*
X9360000Y77520000I0J-70000D01*
G01*
X9360000Y76740000D01*
G75*
G02*
X9290000Y76670000I-70000J0D01*
G01*
X8730000Y76670000D01*
G75*
G02*
X8660000Y76740000I0J70000D01*
G01*
G37*
G04 #@! TD*
G04 #@! TO.C,R406*
G36*
G01*
X45568000Y14609000D02*
X46348000Y14609000D01*
G75*
G02*
X46418000Y14539000I0J-70000D01*
G01*
X46418000Y13979000D01*
G75*
G02*
X46348000Y13909000I-70000J0D01*
G01*
X45568000Y13909000D01*
G75*
G02*
X45498000Y13979000I0J70000D01*
G01*
X45498000Y14539000D01*
G75*
G02*
X45568000Y14609000I70000J0D01*
G01*
G37*
G36*
G01*
X45568000Y13009000D02*
X46348000Y13009000D01*
G75*
G02*
X46418000Y12939000I0J-70000D01*
G01*
X46418000Y12379000D01*
G75*
G02*
X46348000Y12309000I-70000J0D01*
G01*
X45568000Y12309000D01*
G75*
G02*
X45498000Y12379000I0J70000D01*
G01*
X45498000Y12939000D01*
G75*
G02*
X45568000Y13009000I70000J0D01*
G01*
G37*
G04 #@! TD*
G04 #@! TO.C,R904*
G36*
G01*
X7181721Y45877000D02*
X7181721Y46657000D01*
G75*
G02*
X7251721Y46727000I70000J0D01*
G01*
X7811721Y46727000D01*
G75*
G02*
X7881721Y46657000I0J-70000D01*
G01*
X7881721Y45877000D01*
G75*
G02*
X7811721Y45807000I-70000J0D01*
G01*
X7251721Y45807000D01*
G75*
G02*
X7181721Y45877000I0J70000D01*
G01*
G37*
G36*
G01*
X8781721Y45877000D02*
X8781721Y46657000D01*
G75*
G02*
X8851721Y46727000I70000J0D01*
G01*
X9411721Y46727000D01*
G75*
G02*
X9481721Y46657000I0J-70000D01*
G01*
X9481721Y45877000D01*
G75*
G02*
X9411721Y45807000I-70000J0D01*
G01*
X8851721Y45807000D01*
G75*
G02*
X8781721Y45877000I0J70000D01*
G01*
G37*
G04 #@! TD*
G04 #@! TO.C,R404*
G36*
G01*
X42822000Y14457000D02*
X43602000Y14457000D01*
G75*
G02*
X43672000Y14387000I0J-70000D01*
G01*
X43672000Y13827000D01*
G75*
G02*
X43602000Y13757000I-70000J0D01*
G01*
X42822000Y13757000D01*
G75*
G02*
X42752000Y13827000I0J70000D01*
G01*
X42752000Y14387000D01*
G75*
G02*
X42822000Y14457000I70000J0D01*
G01*
G37*
G36*
G01*
X42822000Y12857000D02*
X43602000Y12857000D01*
G75*
G02*
X43672000Y12787000I0J-70000D01*
G01*
X43672000Y12227000D01*
G75*
G02*
X43602000Y12157000I-70000J0D01*
G01*
X42822000Y12157000D01*
G75*
G02*
X42752000Y12227000I0J70000D01*
G01*
X42752000Y12787000D01*
G75*
G02*
X42822000Y12857000I70000J0D01*
G01*
G37*
G04 #@! TD*
G04 #@! TO.C,R901*
G36*
G01*
X6970000Y30830000D02*
X6970000Y31610000D01*
G75*
G02*
X7040000Y31680000I70000J0D01*
G01*
X7600000Y31680000D01*
G75*
G02*
X7670000Y31610000I0J-70000D01*
G01*
X7670000Y30830000D01*
G75*
G02*
X7600000Y30760000I-70000J0D01*
G01*
X7040000Y30760000D01*
G75*
G02*
X6970000Y30830000I0J70000D01*
G01*
G37*
G36*
G01*
X8570000Y30830000D02*
X8570000Y31610000D01*
G75*
G02*
X8640000Y31680000I70000J0D01*
G01*
X9200000Y31680000D01*
G75*
G02*
X9270000Y31610000I0J-70000D01*
G01*
X9270000Y30830000D01*
G75*
G02*
X9200000Y30760000I-70000J0D01*
G01*
X8640000Y30760000D01*
G75*
G02*
X8570000Y30830000I0J70000D01*
G01*
G37*
G04 #@! TD*
G04 #@! TO.C,R915*
G36*
G01*
X27857000Y62040000D02*
X27857000Y62820000D01*
G75*
G02*
X27927000Y62890000I70000J0D01*
G01*
X28487000Y62890000D01*
G75*
G02*
X28557000Y62820000I0J-70000D01*
G01*
X28557000Y62040000D01*
G75*
G02*
X28487000Y61970000I-70000J0D01*
G01*
X27927000Y61970000D01*
G75*
G02*
X27857000Y62040000I0J70000D01*
G01*
G37*
G36*
G01*
X29457000Y62040000D02*
X29457000Y62820000D01*
G75*
G02*
X29527000Y62890000I70000J0D01*
G01*
X30087000Y62890000D01*
G75*
G02*
X30157000Y62820000I0J-70000D01*
G01*
X30157000Y62040000D01*
G75*
G02*
X30087000Y61970000I-70000J0D01*
G01*
X29527000Y61970000D01*
G75*
G02*
X29457000Y62040000I0J70000D01*
G01*
G37*
G04 #@! TD*
M02*
