G04 #@! TF.GenerationSoftware,KiCad,Pcbnew,8.0.9-8.0.9-0~ubuntu24.04.1*
G04 #@! TF.CreationDate,2026-02-09T21:46:22+00:00*
G04 #@! TF.ProjectId,greenecu48,67726565-6e65-4637-9534-382e6b696361,rev?*
G04 #@! TF.SameCoordinates,Original*
G04 #@! TF.FileFunction,Legend,Top*
G04 #@! TF.FilePolarity,Positive*
%FSLAX46Y46*%
G04 Gerber Fmt 4.6, Leading zero omitted, Abs format (unit mm)*
G04 Created by KiCad (PCBNEW 8.0.9-8.0.9-0~ubuntu24.04.1) date 2026-02-09 21:46:22*
%MOMM*%
%LPD*%
G01*
G04 APERTURE LIST*
%ADD10C,0.150000*%
%ADD11C,0.170000*%
%ADD12C,0.127000*%
%ADD13C,0.120000*%
%ADD14C,0.000000*%
%ADD15C,0.203200*%
%ADD16C,0.200000*%
G04 APERTURE END LIST*
D10*
X3988336Y66015381D02*
X3940717Y65920143D01*
X3940717Y65920143D02*
X3845479Y65824905D01*
X3845479Y65824905D02*
X3702621Y65682048D01*
X3702621Y65682048D02*
X3655002Y65586810D01*
X3655002Y65586810D02*
X3655002Y65491572D01*
X3893098Y65539191D02*
X3845479Y65443953D01*
X3845479Y65443953D02*
X3750240Y65348715D01*
X3750240Y65348715D02*
X3559764Y65301096D01*
X3559764Y65301096D02*
X3226431Y65301096D01*
X3226431Y65301096D02*
X3035955Y65348715D01*
X3035955Y65348715D02*
X2940717Y65443953D01*
X2940717Y65443953D02*
X2893098Y65539191D01*
X2893098Y65539191D02*
X2893098Y65729667D01*
X2893098Y65729667D02*
X2940717Y65824905D01*
X2940717Y65824905D02*
X3035955Y65920143D01*
X3035955Y65920143D02*
X3226431Y65967762D01*
X3226431Y65967762D02*
X3559764Y65967762D01*
X3559764Y65967762D02*
X3750240Y65920143D01*
X3750240Y65920143D02*
X3845479Y65824905D01*
X3845479Y65824905D02*
X3893098Y65729667D01*
X3893098Y65729667D02*
X3893098Y65539191D01*
X3893098Y66443953D02*
X3893098Y66634429D01*
X3893098Y66634429D02*
X3845479Y66729667D01*
X3845479Y66729667D02*
X3797859Y66777286D01*
X3797859Y66777286D02*
X3655002Y66872524D01*
X3655002Y66872524D02*
X3464526Y66920143D01*
X3464526Y66920143D02*
X3083574Y66920143D01*
X3083574Y66920143D02*
X2988336Y66872524D01*
X2988336Y66872524D02*
X2940717Y66824905D01*
X2940717Y66824905D02*
X2893098Y66729667D01*
X2893098Y66729667D02*
X2893098Y66539191D01*
X2893098Y66539191D02*
X2940717Y66443953D01*
X2940717Y66443953D02*
X2988336Y66396334D01*
X2988336Y66396334D02*
X3083574Y66348715D01*
X3083574Y66348715D02*
X3321669Y66348715D01*
X3321669Y66348715D02*
X3416907Y66396334D01*
X3416907Y66396334D02*
X3464526Y66443953D01*
X3464526Y66443953D02*
X3512145Y66539191D01*
X3512145Y66539191D02*
X3512145Y66729667D01*
X3512145Y66729667D02*
X3464526Y66824905D01*
X3464526Y66824905D02*
X3416907Y66872524D01*
X3416907Y66872524D02*
X3321669Y66920143D01*
X2893098Y67539191D02*
X2893098Y67634429D01*
X2893098Y67634429D02*
X2940717Y67729667D01*
X2940717Y67729667D02*
X2988336Y67777286D01*
X2988336Y67777286D02*
X3083574Y67824905D01*
X3083574Y67824905D02*
X3274050Y67872524D01*
X3274050Y67872524D02*
X3512145Y67872524D01*
X3512145Y67872524D02*
X3702621Y67824905D01*
X3702621Y67824905D02*
X3797859Y67777286D01*
X3797859Y67777286D02*
X3845479Y67729667D01*
X3845479Y67729667D02*
X3893098Y67634429D01*
X3893098Y67634429D02*
X3893098Y67539191D01*
X3893098Y67539191D02*
X3845479Y67443953D01*
X3845479Y67443953D02*
X3797859Y67396334D01*
X3797859Y67396334D02*
X3702621Y67348715D01*
X3702621Y67348715D02*
X3512145Y67301096D01*
X3512145Y67301096D02*
X3274050Y67301096D01*
X3274050Y67301096D02*
X3083574Y67348715D01*
X3083574Y67348715D02*
X2988336Y67396334D01*
X2988336Y67396334D02*
X2940717Y67443953D01*
X2940717Y67443953D02*
X2893098Y67539191D01*
X2893098Y68729667D02*
X2893098Y68539191D01*
X2893098Y68539191D02*
X2940717Y68443953D01*
X2940717Y68443953D02*
X2988336Y68396334D01*
X2988336Y68396334D02*
X3131193Y68301096D01*
X3131193Y68301096D02*
X3321669Y68253477D01*
X3321669Y68253477D02*
X3702621Y68253477D01*
X3702621Y68253477D02*
X3797859Y68301096D01*
X3797859Y68301096D02*
X3845479Y68348715D01*
X3845479Y68348715D02*
X3893098Y68443953D01*
X3893098Y68443953D02*
X3893098Y68634429D01*
X3893098Y68634429D02*
X3845479Y68729667D01*
X3845479Y68729667D02*
X3797859Y68777286D01*
X3797859Y68777286D02*
X3702621Y68824905D01*
X3702621Y68824905D02*
X3464526Y68824905D01*
X3464526Y68824905D02*
X3369288Y68777286D01*
X3369288Y68777286D02*
X3321669Y68729667D01*
X3321669Y68729667D02*
X3274050Y68634429D01*
X3274050Y68634429D02*
X3274050Y68443953D01*
X3274050Y68443953D02*
X3321669Y68348715D01*
X3321669Y68348715D02*
X3369288Y68301096D01*
X3369288Y68301096D02*
X3464526Y68253477D01*
X14860057Y80962381D02*
X14812438Y80867143D01*
X14812438Y80867143D02*
X14717200Y80771905D01*
X14717200Y80771905D02*
X14574342Y80629048D01*
X14574342Y80629048D02*
X14526723Y80533810D01*
X14526723Y80533810D02*
X14526723Y80438572D01*
X14764819Y80486191D02*
X14717200Y80390953D01*
X14717200Y80390953D02*
X14621961Y80295715D01*
X14621961Y80295715D02*
X14431485Y80248096D01*
X14431485Y80248096D02*
X14098152Y80248096D01*
X14098152Y80248096D02*
X13907676Y80295715D01*
X13907676Y80295715D02*
X13812438Y80390953D01*
X13812438Y80390953D02*
X13764819Y80486191D01*
X13764819Y80486191D02*
X13764819Y80676667D01*
X13764819Y80676667D02*
X13812438Y80771905D01*
X13812438Y80771905D02*
X13907676Y80867143D01*
X13907676Y80867143D02*
X14098152Y80914762D01*
X14098152Y80914762D02*
X14431485Y80914762D01*
X14431485Y80914762D02*
X14621961Y80867143D01*
X14621961Y80867143D02*
X14717200Y80771905D01*
X14717200Y80771905D02*
X14764819Y80676667D01*
X14764819Y80676667D02*
X14764819Y80486191D01*
X14764819Y81390953D02*
X14764819Y81581429D01*
X14764819Y81581429D02*
X14717200Y81676667D01*
X14717200Y81676667D02*
X14669580Y81724286D01*
X14669580Y81724286D02*
X14526723Y81819524D01*
X14526723Y81819524D02*
X14336247Y81867143D01*
X14336247Y81867143D02*
X13955295Y81867143D01*
X13955295Y81867143D02*
X13860057Y81819524D01*
X13860057Y81819524D02*
X13812438Y81771905D01*
X13812438Y81771905D02*
X13764819Y81676667D01*
X13764819Y81676667D02*
X13764819Y81486191D01*
X13764819Y81486191D02*
X13812438Y81390953D01*
X13812438Y81390953D02*
X13860057Y81343334D01*
X13860057Y81343334D02*
X13955295Y81295715D01*
X13955295Y81295715D02*
X14193390Y81295715D01*
X14193390Y81295715D02*
X14288628Y81343334D01*
X14288628Y81343334D02*
X14336247Y81390953D01*
X14336247Y81390953D02*
X14383866Y81486191D01*
X14383866Y81486191D02*
X14383866Y81676667D01*
X14383866Y81676667D02*
X14336247Y81771905D01*
X14336247Y81771905D02*
X14288628Y81819524D01*
X14288628Y81819524D02*
X14193390Y81867143D01*
X13764819Y82486191D02*
X13764819Y82581429D01*
X13764819Y82581429D02*
X13812438Y82676667D01*
X13812438Y82676667D02*
X13860057Y82724286D01*
X13860057Y82724286D02*
X13955295Y82771905D01*
X13955295Y82771905D02*
X14145771Y82819524D01*
X14145771Y82819524D02*
X14383866Y82819524D01*
X14383866Y82819524D02*
X14574342Y82771905D01*
X14574342Y82771905D02*
X14669580Y82724286D01*
X14669580Y82724286D02*
X14717200Y82676667D01*
X14717200Y82676667D02*
X14764819Y82581429D01*
X14764819Y82581429D02*
X14764819Y82486191D01*
X14764819Y82486191D02*
X14717200Y82390953D01*
X14717200Y82390953D02*
X14669580Y82343334D01*
X14669580Y82343334D02*
X14574342Y82295715D01*
X14574342Y82295715D02*
X14383866Y82248096D01*
X14383866Y82248096D02*
X14145771Y82248096D01*
X14145771Y82248096D02*
X13955295Y82295715D01*
X13955295Y82295715D02*
X13860057Y82343334D01*
X13860057Y82343334D02*
X13812438Y82390953D01*
X13812438Y82390953D02*
X13764819Y82486191D01*
X13764819Y83152858D02*
X13764819Y83771905D01*
X13764819Y83771905D02*
X14145771Y83438572D01*
X14145771Y83438572D02*
X14145771Y83581429D01*
X14145771Y83581429D02*
X14193390Y83676667D01*
X14193390Y83676667D02*
X14241009Y83724286D01*
X14241009Y83724286D02*
X14336247Y83771905D01*
X14336247Y83771905D02*
X14574342Y83771905D01*
X14574342Y83771905D02*
X14669580Y83724286D01*
X14669580Y83724286D02*
X14717200Y83676667D01*
X14717200Y83676667D02*
X14764819Y83581429D01*
X14764819Y83581429D02*
X14764819Y83295715D01*
X14764819Y83295715D02*
X14717200Y83200477D01*
X14717200Y83200477D02*
X14669580Y83152858D01*
X4110057Y35152381D02*
X4062438Y35057143D01*
X4062438Y35057143D02*
X3967200Y34961905D01*
X3967200Y34961905D02*
X3824342Y34819048D01*
X3824342Y34819048D02*
X3776723Y34723810D01*
X3776723Y34723810D02*
X3776723Y34628572D01*
X4014819Y34676191D02*
X3967200Y34580953D01*
X3967200Y34580953D02*
X3871961Y34485715D01*
X3871961Y34485715D02*
X3681485Y34438096D01*
X3681485Y34438096D02*
X3348152Y34438096D01*
X3348152Y34438096D02*
X3157676Y34485715D01*
X3157676Y34485715D02*
X3062438Y34580953D01*
X3062438Y34580953D02*
X3014819Y34676191D01*
X3014819Y34676191D02*
X3014819Y34866667D01*
X3014819Y34866667D02*
X3062438Y34961905D01*
X3062438Y34961905D02*
X3157676Y35057143D01*
X3157676Y35057143D02*
X3348152Y35104762D01*
X3348152Y35104762D02*
X3681485Y35104762D01*
X3681485Y35104762D02*
X3871961Y35057143D01*
X3871961Y35057143D02*
X3967200Y34961905D01*
X3967200Y34961905D02*
X4014819Y34866667D01*
X4014819Y34866667D02*
X4014819Y34676191D01*
X4014819Y35580953D02*
X4014819Y35771429D01*
X4014819Y35771429D02*
X3967200Y35866667D01*
X3967200Y35866667D02*
X3919580Y35914286D01*
X3919580Y35914286D02*
X3776723Y36009524D01*
X3776723Y36009524D02*
X3586247Y36057143D01*
X3586247Y36057143D02*
X3205295Y36057143D01*
X3205295Y36057143D02*
X3110057Y36009524D01*
X3110057Y36009524D02*
X3062438Y35961905D01*
X3062438Y35961905D02*
X3014819Y35866667D01*
X3014819Y35866667D02*
X3014819Y35676191D01*
X3014819Y35676191D02*
X3062438Y35580953D01*
X3062438Y35580953D02*
X3110057Y35533334D01*
X3110057Y35533334D02*
X3205295Y35485715D01*
X3205295Y35485715D02*
X3443390Y35485715D01*
X3443390Y35485715D02*
X3538628Y35533334D01*
X3538628Y35533334D02*
X3586247Y35580953D01*
X3586247Y35580953D02*
X3633866Y35676191D01*
X3633866Y35676191D02*
X3633866Y35866667D01*
X3633866Y35866667D02*
X3586247Y35961905D01*
X3586247Y35961905D02*
X3538628Y36009524D01*
X3538628Y36009524D02*
X3443390Y36057143D01*
X3014819Y36676191D02*
X3014819Y36771429D01*
X3014819Y36771429D02*
X3062438Y36866667D01*
X3062438Y36866667D02*
X3110057Y36914286D01*
X3110057Y36914286D02*
X3205295Y36961905D01*
X3205295Y36961905D02*
X3395771Y37009524D01*
X3395771Y37009524D02*
X3633866Y37009524D01*
X3633866Y37009524D02*
X3824342Y36961905D01*
X3824342Y36961905D02*
X3919580Y36914286D01*
X3919580Y36914286D02*
X3967200Y36866667D01*
X3967200Y36866667D02*
X4014819Y36771429D01*
X4014819Y36771429D02*
X4014819Y36676191D01*
X4014819Y36676191D02*
X3967200Y36580953D01*
X3967200Y36580953D02*
X3919580Y36533334D01*
X3919580Y36533334D02*
X3824342Y36485715D01*
X3824342Y36485715D02*
X3633866Y36438096D01*
X3633866Y36438096D02*
X3395771Y36438096D01*
X3395771Y36438096D02*
X3205295Y36485715D01*
X3205295Y36485715D02*
X3110057Y36533334D01*
X3110057Y36533334D02*
X3062438Y36580953D01*
X3062438Y36580953D02*
X3014819Y36676191D01*
X4014819Y37961905D02*
X4014819Y37390477D01*
X4014819Y37676191D02*
X3014819Y37676191D01*
X3014819Y37676191D02*
X3157676Y37580953D01*
X3157676Y37580953D02*
X3252914Y37485715D01*
X3252914Y37485715D02*
X3300533Y37390477D01*
X4200057Y81062381D02*
X4152438Y80967143D01*
X4152438Y80967143D02*
X4057200Y80871905D01*
X4057200Y80871905D02*
X3914342Y80729048D01*
X3914342Y80729048D02*
X3866723Y80633810D01*
X3866723Y80633810D02*
X3866723Y80538572D01*
X4104819Y80586191D02*
X4057200Y80490953D01*
X4057200Y80490953D02*
X3961961Y80395715D01*
X3961961Y80395715D02*
X3771485Y80348096D01*
X3771485Y80348096D02*
X3438152Y80348096D01*
X3438152Y80348096D02*
X3247676Y80395715D01*
X3247676Y80395715D02*
X3152438Y80490953D01*
X3152438Y80490953D02*
X3104819Y80586191D01*
X3104819Y80586191D02*
X3104819Y80776667D01*
X3104819Y80776667D02*
X3152438Y80871905D01*
X3152438Y80871905D02*
X3247676Y80967143D01*
X3247676Y80967143D02*
X3438152Y81014762D01*
X3438152Y81014762D02*
X3771485Y81014762D01*
X3771485Y81014762D02*
X3961961Y80967143D01*
X3961961Y80967143D02*
X4057200Y80871905D01*
X4057200Y80871905D02*
X4104819Y80776667D01*
X4104819Y80776667D02*
X4104819Y80586191D01*
X4104819Y81490953D02*
X4104819Y81681429D01*
X4104819Y81681429D02*
X4057200Y81776667D01*
X4057200Y81776667D02*
X4009580Y81824286D01*
X4009580Y81824286D02*
X3866723Y81919524D01*
X3866723Y81919524D02*
X3676247Y81967143D01*
X3676247Y81967143D02*
X3295295Y81967143D01*
X3295295Y81967143D02*
X3200057Y81919524D01*
X3200057Y81919524D02*
X3152438Y81871905D01*
X3152438Y81871905D02*
X3104819Y81776667D01*
X3104819Y81776667D02*
X3104819Y81586191D01*
X3104819Y81586191D02*
X3152438Y81490953D01*
X3152438Y81490953D02*
X3200057Y81443334D01*
X3200057Y81443334D02*
X3295295Y81395715D01*
X3295295Y81395715D02*
X3533390Y81395715D01*
X3533390Y81395715D02*
X3628628Y81443334D01*
X3628628Y81443334D02*
X3676247Y81490953D01*
X3676247Y81490953D02*
X3723866Y81586191D01*
X3723866Y81586191D02*
X3723866Y81776667D01*
X3723866Y81776667D02*
X3676247Y81871905D01*
X3676247Y81871905D02*
X3628628Y81919524D01*
X3628628Y81919524D02*
X3533390Y81967143D01*
X3104819Y82586191D02*
X3104819Y82681429D01*
X3104819Y82681429D02*
X3152438Y82776667D01*
X3152438Y82776667D02*
X3200057Y82824286D01*
X3200057Y82824286D02*
X3295295Y82871905D01*
X3295295Y82871905D02*
X3485771Y82919524D01*
X3485771Y82919524D02*
X3723866Y82919524D01*
X3723866Y82919524D02*
X3914342Y82871905D01*
X3914342Y82871905D02*
X4009580Y82824286D01*
X4009580Y82824286D02*
X4057200Y82776667D01*
X4057200Y82776667D02*
X4104819Y82681429D01*
X4104819Y82681429D02*
X4104819Y82586191D01*
X4104819Y82586191D02*
X4057200Y82490953D01*
X4057200Y82490953D02*
X4009580Y82443334D01*
X4009580Y82443334D02*
X3914342Y82395715D01*
X3914342Y82395715D02*
X3723866Y82348096D01*
X3723866Y82348096D02*
X3485771Y82348096D01*
X3485771Y82348096D02*
X3295295Y82395715D01*
X3295295Y82395715D02*
X3200057Y82443334D01*
X3200057Y82443334D02*
X3152438Y82490953D01*
X3152438Y82490953D02*
X3104819Y82586191D01*
X3200057Y83300477D02*
X3152438Y83348096D01*
X3152438Y83348096D02*
X3104819Y83443334D01*
X3104819Y83443334D02*
X3104819Y83681429D01*
X3104819Y83681429D02*
X3152438Y83776667D01*
X3152438Y83776667D02*
X3200057Y83824286D01*
X3200057Y83824286D02*
X3295295Y83871905D01*
X3295295Y83871905D02*
X3390533Y83871905D01*
X3390533Y83871905D02*
X3533390Y83824286D01*
X3533390Y83824286D02*
X4104819Y83252858D01*
X4104819Y83252858D02*
X4104819Y83871905D01*
D11*
X67528348Y63029357D02*
X67801681Y62638881D01*
X67996919Y63029357D02*
X67996919Y62209357D01*
X67996919Y62209357D02*
X67684538Y62209357D01*
X67684538Y62209357D02*
X67606443Y62248405D01*
X67606443Y62248405D02*
X67567396Y62287452D01*
X67567396Y62287452D02*
X67528348Y62365548D01*
X67528348Y62365548D02*
X67528348Y62482690D01*
X67528348Y62482690D02*
X67567396Y62560786D01*
X67567396Y62560786D02*
X67606443Y62599833D01*
X67606443Y62599833D02*
X67684538Y62638881D01*
X67684538Y62638881D02*
X67996919Y62638881D01*
X66747396Y63029357D02*
X67215967Y63029357D01*
X66981681Y63029357D02*
X66981681Y62209357D01*
X66981681Y62209357D02*
X67059777Y62326500D01*
X67059777Y62326500D02*
X67137872Y62404595D01*
X67137872Y62404595D02*
X67215967Y62443643D01*
X66474063Y62209357D02*
X65966444Y62209357D01*
X65966444Y62209357D02*
X66239777Y62521738D01*
X66239777Y62521738D02*
X66122634Y62521738D01*
X66122634Y62521738D02*
X66044539Y62560786D01*
X66044539Y62560786D02*
X66005491Y62599833D01*
X66005491Y62599833D02*
X65966444Y62677929D01*
X65966444Y62677929D02*
X65966444Y62873167D01*
X65966444Y62873167D02*
X66005491Y62951262D01*
X66005491Y62951262D02*
X66044539Y62990309D01*
X66044539Y62990309D02*
X66122634Y63029357D01*
X66122634Y63029357D02*
X66356920Y63029357D01*
X66356920Y63029357D02*
X66435015Y62990309D01*
X66435015Y62990309D02*
X66474063Y62951262D01*
X68581804Y59360497D02*
X69381805Y59360497D01*
X69381805Y59360497D02*
X69381805Y59170021D01*
X69381805Y59170021D02*
X69343710Y59055735D01*
X69343710Y59055735D02*
X69267519Y58979544D01*
X69267519Y58979544D02*
X69191329Y58941449D01*
X69191329Y58941449D02*
X69038948Y58903354D01*
X69038948Y58903354D02*
X68924662Y58903354D01*
X68924662Y58903354D02*
X68772281Y58941449D01*
X68772281Y58941449D02*
X68696090Y58979544D01*
X68696090Y58979544D02*
X68619900Y59055735D01*
X68619900Y59055735D02*
X68581804Y59170021D01*
X68581804Y59170021D02*
X68581804Y59360497D01*
X68581804Y58141448D02*
X68581804Y58598591D01*
X68581804Y58370020D02*
X69381805Y58370020D01*
X69381805Y58370020D02*
X69267519Y58446210D01*
X69267519Y58446210D02*
X69191329Y58522401D01*
X69191329Y58522401D02*
X69153234Y58598591D01*
X68581804Y57379542D02*
X68581804Y57836685D01*
X68581804Y57608114D02*
X69381805Y57608114D01*
X69381805Y57608114D02*
X69267519Y57684304D01*
X69267519Y57684304D02*
X69191329Y57760495D01*
X69191329Y57760495D02*
X69153234Y57836685D01*
X70324651Y51223192D02*
X70051318Y51613668D01*
X69856080Y51223192D02*
X69856080Y52043192D01*
X69856080Y52043192D02*
X70168461Y52043192D01*
X70168461Y52043192D02*
X70246556Y52004144D01*
X70246556Y52004144D02*
X70285603Y51965097D01*
X70285603Y51965097D02*
X70324651Y51887001D01*
X70324651Y51887001D02*
X70324651Y51769859D01*
X70324651Y51769859D02*
X70285603Y51691763D01*
X70285603Y51691763D02*
X70246556Y51652716D01*
X70246556Y51652716D02*
X70168461Y51613668D01*
X70168461Y51613668D02*
X69856080Y51613668D01*
X71105603Y51223192D02*
X70637032Y51223192D01*
X70871318Y51223192D02*
X70871318Y52043192D01*
X70871318Y52043192D02*
X70793222Y51926049D01*
X70793222Y51926049D02*
X70715127Y51847954D01*
X70715127Y51847954D02*
X70637032Y51808906D01*
X71808460Y51769859D02*
X71808460Y51223192D01*
X71613222Y52082239D02*
X71417984Y51496525D01*
X71417984Y51496525D02*
X71925603Y51496525D01*
X51572762Y79608492D02*
X51572762Y80428492D01*
X51572762Y80428492D02*
X51768000Y80428492D01*
X51768000Y80428492D02*
X51885143Y80389444D01*
X51885143Y80389444D02*
X51963238Y80311349D01*
X51963238Y80311349D02*
X52002285Y80233254D01*
X52002285Y80233254D02*
X52041333Y80077063D01*
X52041333Y80077063D02*
X52041333Y79959920D01*
X52041333Y79959920D02*
X52002285Y79803730D01*
X52002285Y79803730D02*
X51963238Y79725635D01*
X51963238Y79725635D02*
X51885143Y79647539D01*
X51885143Y79647539D02*
X51768000Y79608492D01*
X51768000Y79608492D02*
X51572762Y79608492D01*
X52744190Y80155159D02*
X52744190Y79608492D01*
X52548952Y80467539D02*
X52353714Y79881825D01*
X52353714Y79881825D02*
X52861333Y79881825D01*
X113499347Y68202713D02*
X113538395Y68241760D01*
X113538395Y68241760D02*
X113655538Y68280808D01*
X113655538Y68280808D02*
X113733633Y68280808D01*
X113733633Y68280808D02*
X113850776Y68241760D01*
X113850776Y68241760D02*
X113928872Y68163665D01*
X113928872Y68163665D02*
X113967919Y68085570D01*
X113967919Y68085570D02*
X114006967Y67929379D01*
X114006967Y67929379D02*
X114006967Y67812236D01*
X114006967Y67812236D02*
X113967919Y67656045D01*
X113967919Y67656045D02*
X113928872Y67577950D01*
X113928872Y67577950D02*
X113850776Y67499855D01*
X113850776Y67499855D02*
X113733633Y67460807D01*
X113733633Y67460807D02*
X113655538Y67460807D01*
X113655538Y67460807D02*
X113538395Y67499855D01*
X113538395Y67499855D02*
X113499347Y67538902D01*
X113186966Y67538902D02*
X113147918Y67499855D01*
X113147918Y67499855D02*
X113069823Y67460807D01*
X113069823Y67460807D02*
X112874585Y67460807D01*
X112874585Y67460807D02*
X112796489Y67499855D01*
X112796489Y67499855D02*
X112757442Y67538902D01*
X112757442Y67538902D02*
X112718394Y67616998D01*
X112718394Y67616998D02*
X112718394Y67695093D01*
X112718394Y67695093D02*
X112757442Y67812236D01*
X112757442Y67812236D02*
X113226014Y68280808D01*
X113226014Y68280808D02*
X112718394Y68280808D01*
D10*
X43730761Y86408943D02*
X43635523Y86456562D01*
X43635523Y86456562D02*
X43540285Y86551800D01*
X43540285Y86551800D02*
X43397428Y86694658D01*
X43397428Y86694658D02*
X43302190Y86742277D01*
X43302190Y86742277D02*
X43206952Y86742277D01*
X43254571Y86504181D02*
X43159333Y86551800D01*
X43159333Y86551800D02*
X43064095Y86647039D01*
X43064095Y86647039D02*
X43016476Y86837515D01*
X43016476Y86837515D02*
X43016476Y87170848D01*
X43016476Y87170848D02*
X43064095Y87361324D01*
X43064095Y87361324D02*
X43159333Y87456562D01*
X43159333Y87456562D02*
X43254571Y87504181D01*
X43254571Y87504181D02*
X43445047Y87504181D01*
X43445047Y87504181D02*
X43540285Y87456562D01*
X43540285Y87456562D02*
X43635523Y87361324D01*
X43635523Y87361324D02*
X43683142Y87170848D01*
X43683142Y87170848D02*
X43683142Y86837515D01*
X43683142Y86837515D02*
X43635523Y86647039D01*
X43635523Y86647039D02*
X43540285Y86551800D01*
X43540285Y86551800D02*
X43445047Y86504181D01*
X43445047Y86504181D02*
X43254571Y86504181D01*
X44159333Y86504181D02*
X44349809Y86504181D01*
X44349809Y86504181D02*
X44445047Y86551800D01*
X44445047Y86551800D02*
X44492666Y86599420D01*
X44492666Y86599420D02*
X44587904Y86742277D01*
X44587904Y86742277D02*
X44635523Y86932753D01*
X44635523Y86932753D02*
X44635523Y87313705D01*
X44635523Y87313705D02*
X44587904Y87408943D01*
X44587904Y87408943D02*
X44540285Y87456562D01*
X44540285Y87456562D02*
X44445047Y87504181D01*
X44445047Y87504181D02*
X44254571Y87504181D01*
X44254571Y87504181D02*
X44159333Y87456562D01*
X44159333Y87456562D02*
X44111714Y87408943D01*
X44111714Y87408943D02*
X44064095Y87313705D01*
X44064095Y87313705D02*
X44064095Y87075610D01*
X44064095Y87075610D02*
X44111714Y86980372D01*
X44111714Y86980372D02*
X44159333Y86932753D01*
X44159333Y86932753D02*
X44254571Y86885134D01*
X44254571Y86885134D02*
X44445047Y86885134D01*
X44445047Y86885134D02*
X44540285Y86932753D01*
X44540285Y86932753D02*
X44587904Y86980372D01*
X44587904Y86980372D02*
X44635523Y87075610D01*
D11*
X112397614Y35870950D02*
X113197615Y35870950D01*
X113197615Y35870950D02*
X113197615Y35680474D01*
X113197615Y35680474D02*
X113159520Y35566188D01*
X113159520Y35566188D02*
X113083329Y35489997D01*
X113083329Y35489997D02*
X113007139Y35451902D01*
X113007139Y35451902D02*
X112854758Y35413807D01*
X112854758Y35413807D02*
X112740472Y35413807D01*
X112740472Y35413807D02*
X112588091Y35451902D01*
X112588091Y35451902D02*
X112511900Y35489997D01*
X112511900Y35489997D02*
X112435710Y35566188D01*
X112435710Y35566188D02*
X112397614Y35680474D01*
X112397614Y35680474D02*
X112397614Y35870950D01*
X112397614Y34651901D02*
X112397614Y35109044D01*
X112397614Y34880473D02*
X113197615Y34880473D01*
X113197615Y34880473D02*
X113083329Y34956663D01*
X113083329Y34956663D02*
X113007139Y35032854D01*
X113007139Y35032854D02*
X112969044Y35109044D01*
X112930948Y33966185D02*
X112397614Y33966185D01*
X113235711Y34156662D02*
X112664281Y34347138D01*
X112664281Y34347138D02*
X112664281Y33851900D01*
X39286942Y82912908D02*
X39677418Y83186241D01*
X39286942Y83381479D02*
X40106942Y83381479D01*
X40106942Y83381479D02*
X40106942Y83069098D01*
X40106942Y83069098D02*
X40067894Y82991003D01*
X40067894Y82991003D02*
X40028847Y82951956D01*
X40028847Y82951956D02*
X39950751Y82912908D01*
X39950751Y82912908D02*
X39833609Y82912908D01*
X39833609Y82912908D02*
X39755513Y82951956D01*
X39755513Y82951956D02*
X39716466Y82991003D01*
X39716466Y82991003D02*
X39677418Y83069098D01*
X39677418Y83069098D02*
X39677418Y83381479D01*
X39286942Y82131956D02*
X39286942Y82600527D01*
X39286942Y82366241D02*
X40106942Y82366241D01*
X40106942Y82366241D02*
X39989799Y82444337D01*
X39989799Y82444337D02*
X39911704Y82522432D01*
X39911704Y82522432D02*
X39872656Y82600527D01*
X40028847Y81819575D02*
X40067894Y81780527D01*
X40067894Y81780527D02*
X40106942Y81702432D01*
X40106942Y81702432D02*
X40106942Y81507194D01*
X40106942Y81507194D02*
X40067894Y81429099D01*
X40067894Y81429099D02*
X40028847Y81390051D01*
X40028847Y81390051D02*
X39950751Y81351004D01*
X39950751Y81351004D02*
X39872656Y81351004D01*
X39872656Y81351004D02*
X39755513Y81390051D01*
X39755513Y81390051D02*
X39286942Y81858623D01*
X39286942Y81858623D02*
X39286942Y81351004D01*
X40162942Y65830908D02*
X40553418Y66104241D01*
X40162942Y66299479D02*
X40982942Y66299479D01*
X40982942Y66299479D02*
X40982942Y65987098D01*
X40982942Y65987098D02*
X40943894Y65909003D01*
X40943894Y65909003D02*
X40904847Y65869956D01*
X40904847Y65869956D02*
X40826751Y65830908D01*
X40826751Y65830908D02*
X40709609Y65830908D01*
X40709609Y65830908D02*
X40631513Y65869956D01*
X40631513Y65869956D02*
X40592466Y65909003D01*
X40592466Y65909003D02*
X40553418Y65987098D01*
X40553418Y65987098D02*
X40553418Y66299479D01*
X40162942Y65049956D02*
X40162942Y65518527D01*
X40162942Y65284241D02*
X40982942Y65284241D01*
X40982942Y65284241D02*
X40865799Y65362337D01*
X40865799Y65362337D02*
X40787704Y65440432D01*
X40787704Y65440432D02*
X40748656Y65518527D01*
X40162942Y64659480D02*
X40162942Y64503289D01*
X40162942Y64503289D02*
X40201990Y64425194D01*
X40201990Y64425194D02*
X40241037Y64386146D01*
X40241037Y64386146D02*
X40358180Y64308051D01*
X40358180Y64308051D02*
X40514370Y64269004D01*
X40514370Y64269004D02*
X40826751Y64269004D01*
X40826751Y64269004D02*
X40904847Y64308051D01*
X40904847Y64308051D02*
X40943894Y64347099D01*
X40943894Y64347099D02*
X40982942Y64425194D01*
X40982942Y64425194D02*
X40982942Y64581385D01*
X40982942Y64581385D02*
X40943894Y64659480D01*
X40943894Y64659480D02*
X40904847Y64698527D01*
X40904847Y64698527D02*
X40826751Y64737575D01*
X40826751Y64737575D02*
X40631513Y64737575D01*
X40631513Y64737575D02*
X40553418Y64698527D01*
X40553418Y64698527D02*
X40514370Y64659480D01*
X40514370Y64659480D02*
X40475323Y64581385D01*
X40475323Y64581385D02*
X40475323Y64425194D01*
X40475323Y64425194D02*
X40514370Y64347099D01*
X40514370Y64347099D02*
X40553418Y64308051D01*
X40553418Y64308051D02*
X40631513Y64269004D01*
X39343942Y74731908D02*
X39734418Y75005241D01*
X39343942Y75200479D02*
X40163942Y75200479D01*
X40163942Y75200479D02*
X40163942Y74888098D01*
X40163942Y74888098D02*
X40124894Y74810003D01*
X40124894Y74810003D02*
X40085847Y74770956D01*
X40085847Y74770956D02*
X40007751Y74731908D01*
X40007751Y74731908D02*
X39890609Y74731908D01*
X39890609Y74731908D02*
X39812513Y74770956D01*
X39812513Y74770956D02*
X39773466Y74810003D01*
X39773466Y74810003D02*
X39734418Y74888098D01*
X39734418Y74888098D02*
X39734418Y75200479D01*
X39343942Y73950956D02*
X39343942Y74419527D01*
X39343942Y74185241D02*
X40163942Y74185241D01*
X40163942Y74185241D02*
X40046799Y74263337D01*
X40046799Y74263337D02*
X39968704Y74341432D01*
X39968704Y74341432D02*
X39929656Y74419527D01*
X39343942Y73170004D02*
X39343942Y73638575D01*
X39343942Y73404289D02*
X40163942Y73404289D01*
X40163942Y73404289D02*
X40046799Y73482385D01*
X40046799Y73482385D02*
X39968704Y73560480D01*
X39968704Y73560480D02*
X39929656Y73638575D01*
D10*
X43254571Y78213943D02*
X43159333Y78261562D01*
X43159333Y78261562D02*
X43064095Y78356800D01*
X43064095Y78356800D02*
X42921238Y78499658D01*
X42921238Y78499658D02*
X42826000Y78547277D01*
X42826000Y78547277D02*
X42730762Y78547277D01*
X42778381Y78309181D02*
X42683143Y78356800D01*
X42683143Y78356800D02*
X42587905Y78452039D01*
X42587905Y78452039D02*
X42540286Y78642515D01*
X42540286Y78642515D02*
X42540286Y78975848D01*
X42540286Y78975848D02*
X42587905Y79166324D01*
X42587905Y79166324D02*
X42683143Y79261562D01*
X42683143Y79261562D02*
X42778381Y79309181D01*
X42778381Y79309181D02*
X42968857Y79309181D01*
X42968857Y79309181D02*
X43064095Y79261562D01*
X43064095Y79261562D02*
X43159333Y79166324D01*
X43159333Y79166324D02*
X43206952Y78975848D01*
X43206952Y78975848D02*
X43206952Y78642515D01*
X43206952Y78642515D02*
X43159333Y78452039D01*
X43159333Y78452039D02*
X43064095Y78356800D01*
X43064095Y78356800D02*
X42968857Y78309181D01*
X42968857Y78309181D02*
X42778381Y78309181D01*
X44159333Y78309181D02*
X43587905Y78309181D01*
X43873619Y78309181D02*
X43873619Y79309181D01*
X43873619Y79309181D02*
X43778381Y79166324D01*
X43778381Y79166324D02*
X43683143Y79071086D01*
X43683143Y79071086D02*
X43587905Y79023467D01*
X45016476Y78975848D02*
X45016476Y78309181D01*
X44778381Y79356800D02*
X44540286Y78642515D01*
X44540286Y78642515D02*
X45159333Y78642515D01*
X44024666Y12973181D02*
X44024666Y12258896D01*
X44024666Y12258896D02*
X43977047Y12116039D01*
X43977047Y12116039D02*
X43881809Y12020800D01*
X43881809Y12020800D02*
X43738952Y11973181D01*
X43738952Y11973181D02*
X43643714Y11973181D01*
X44929428Y12639848D02*
X44929428Y11973181D01*
X44691333Y13020800D02*
X44453238Y12306515D01*
X44453238Y12306515D02*
X45072285Y12306515D01*
X96199428Y86917259D02*
X96799428Y86917259D01*
X96799428Y86917259D02*
X96370857Y86717259D01*
X96370857Y86717259D02*
X96799428Y86517259D01*
X96799428Y86517259D02*
X96199428Y86517259D01*
X96799428Y86288688D02*
X96799428Y85917260D01*
X96799428Y85917260D02*
X96570857Y86117260D01*
X96570857Y86117260D02*
X96570857Y86031545D01*
X96570857Y86031545D02*
X96542285Y85974402D01*
X96542285Y85974402D02*
X96513714Y85945831D01*
X96513714Y85945831D02*
X96456571Y85917260D01*
X96456571Y85917260D02*
X96313714Y85917260D01*
X96313714Y85917260D02*
X96256571Y85945831D01*
X96256571Y85945831D02*
X96228000Y85974402D01*
X96228000Y85974402D02*
X96199428Y86031545D01*
X96199428Y86031545D02*
X96199428Y86202974D01*
X96199428Y86202974D02*
X96228000Y86260117D01*
X96228000Y86260117D02*
X96256571Y86288688D01*
D11*
X51991762Y73500492D02*
X51991762Y74320492D01*
X51991762Y74320492D02*
X52187000Y74320492D01*
X52187000Y74320492D02*
X52304143Y74281444D01*
X52304143Y74281444D02*
X52382238Y74203349D01*
X52382238Y74203349D02*
X52421285Y74125254D01*
X52421285Y74125254D02*
X52460333Y73969063D01*
X52460333Y73969063D02*
X52460333Y73851920D01*
X52460333Y73851920D02*
X52421285Y73695730D01*
X52421285Y73695730D02*
X52382238Y73617635D01*
X52382238Y73617635D02*
X52304143Y73539539D01*
X52304143Y73539539D02*
X52187000Y73500492D01*
X52187000Y73500492D02*
X51991762Y73500492D01*
X53202238Y74320492D02*
X52811762Y74320492D01*
X52811762Y74320492D02*
X52772714Y73930016D01*
X52772714Y73930016D02*
X52811762Y73969063D01*
X52811762Y73969063D02*
X52889857Y74008111D01*
X52889857Y74008111D02*
X53085095Y74008111D01*
X53085095Y74008111D02*
X53163190Y73969063D01*
X53163190Y73969063D02*
X53202238Y73930016D01*
X53202238Y73930016D02*
X53241285Y73851920D01*
X53241285Y73851920D02*
X53241285Y73656682D01*
X53241285Y73656682D02*
X53202238Y73578587D01*
X53202238Y73578587D02*
X53163190Y73539539D01*
X53163190Y73539539D02*
X53085095Y73500492D01*
X53085095Y73500492D02*
X52889857Y73500492D01*
X52889857Y73500492D02*
X52811762Y73539539D01*
X52811762Y73539539D02*
X52772714Y73578587D01*
D10*
X119211095Y67329181D02*
X119211095Y66519658D01*
X119211095Y66519658D02*
X119258714Y66424420D01*
X119258714Y66424420D02*
X119306333Y66376800D01*
X119306333Y66376800D02*
X119401571Y66329181D01*
X119401571Y66329181D02*
X119592047Y66329181D01*
X119592047Y66329181D02*
X119687285Y66376800D01*
X119687285Y66376800D02*
X119734904Y66424420D01*
X119734904Y66424420D02*
X119782523Y66519658D01*
X119782523Y66519658D02*
X119782523Y67329181D01*
X120211095Y67233943D02*
X120258714Y67281562D01*
X120258714Y67281562D02*
X120353952Y67329181D01*
X120353952Y67329181D02*
X120592047Y67329181D01*
X120592047Y67329181D02*
X120687285Y67281562D01*
X120687285Y67281562D02*
X120734904Y67233943D01*
X120734904Y67233943D02*
X120782523Y67138705D01*
X120782523Y67138705D02*
X120782523Y67043467D01*
X120782523Y67043467D02*
X120734904Y66900610D01*
X120734904Y66900610D02*
X120163476Y66329181D01*
X120163476Y66329181D02*
X120782523Y66329181D01*
D11*
X113402092Y38438943D02*
X113128759Y38829419D01*
X112933521Y38438943D02*
X112933521Y39258943D01*
X112933521Y39258943D02*
X113245902Y39258943D01*
X113245902Y39258943D02*
X113323997Y39219895D01*
X113323997Y39219895D02*
X113363044Y39180848D01*
X113363044Y39180848D02*
X113402092Y39102752D01*
X113402092Y39102752D02*
X113402092Y38985610D01*
X113402092Y38985610D02*
X113363044Y38907514D01*
X113363044Y38907514D02*
X113323997Y38868467D01*
X113323997Y38868467D02*
X113245902Y38829419D01*
X113245902Y38829419D02*
X112933521Y38829419D01*
X114183044Y38438943D02*
X113714473Y38438943D01*
X113948759Y38438943D02*
X113948759Y39258943D01*
X113948759Y39258943D02*
X113870663Y39141800D01*
X113870663Y39141800D02*
X113792568Y39063705D01*
X113792568Y39063705D02*
X113714473Y39024657D01*
X114924949Y39258943D02*
X114534473Y39258943D01*
X114534473Y39258943D02*
X114495425Y38868467D01*
X114495425Y38868467D02*
X114534473Y38907514D01*
X114534473Y38907514D02*
X114612568Y38946562D01*
X114612568Y38946562D02*
X114807806Y38946562D01*
X114807806Y38946562D02*
X114885901Y38907514D01*
X114885901Y38907514D02*
X114924949Y38868467D01*
X114924949Y38868467D02*
X114963996Y38790371D01*
X114963996Y38790371D02*
X114963996Y38595133D01*
X114963996Y38595133D02*
X114924949Y38517038D01*
X114924949Y38517038D02*
X114885901Y38477990D01*
X114885901Y38477990D02*
X114807806Y38438943D01*
X114807806Y38438943D02*
X114612568Y38438943D01*
X114612568Y38438943D02*
X114534473Y38477990D01*
X114534473Y38477990D02*
X114495425Y38517038D01*
X52735762Y63268492D02*
X52735762Y64088492D01*
X52735762Y64088492D02*
X52931000Y64088492D01*
X52931000Y64088492D02*
X53048143Y64049444D01*
X53048143Y64049444D02*
X53126238Y63971349D01*
X53126238Y63971349D02*
X53165285Y63893254D01*
X53165285Y63893254D02*
X53204333Y63737063D01*
X53204333Y63737063D02*
X53204333Y63619920D01*
X53204333Y63619920D02*
X53165285Y63463730D01*
X53165285Y63463730D02*
X53126238Y63385635D01*
X53126238Y63385635D02*
X53048143Y63307539D01*
X53048143Y63307539D02*
X52931000Y63268492D01*
X52931000Y63268492D02*
X52735762Y63268492D01*
X53477666Y64088492D02*
X53985285Y64088492D01*
X53985285Y64088492D02*
X53711952Y63776111D01*
X53711952Y63776111D02*
X53829095Y63776111D01*
X53829095Y63776111D02*
X53907190Y63737063D01*
X53907190Y63737063D02*
X53946238Y63698016D01*
X53946238Y63698016D02*
X53985285Y63619920D01*
X53985285Y63619920D02*
X53985285Y63424682D01*
X53985285Y63424682D02*
X53946238Y63346587D01*
X53946238Y63346587D02*
X53907190Y63307539D01*
X53907190Y63307539D02*
X53829095Y63268492D01*
X53829095Y63268492D02*
X53594809Y63268492D01*
X53594809Y63268492D02*
X53516714Y63307539D01*
X53516714Y63307539D02*
X53477666Y63346587D01*
D10*
X43921571Y69287943D02*
X43826333Y69335562D01*
X43826333Y69335562D02*
X43731095Y69430800D01*
X43731095Y69430800D02*
X43588238Y69573658D01*
X43588238Y69573658D02*
X43493000Y69621277D01*
X43493000Y69621277D02*
X43397762Y69621277D01*
X43445381Y69383181D02*
X43350143Y69430800D01*
X43350143Y69430800D02*
X43254905Y69526039D01*
X43254905Y69526039D02*
X43207286Y69716515D01*
X43207286Y69716515D02*
X43207286Y70049848D01*
X43207286Y70049848D02*
X43254905Y70240324D01*
X43254905Y70240324D02*
X43350143Y70335562D01*
X43350143Y70335562D02*
X43445381Y70383181D01*
X43445381Y70383181D02*
X43635857Y70383181D01*
X43635857Y70383181D02*
X43731095Y70335562D01*
X43731095Y70335562D02*
X43826333Y70240324D01*
X43826333Y70240324D02*
X43873952Y70049848D01*
X43873952Y70049848D02*
X43873952Y69716515D01*
X43873952Y69716515D02*
X43826333Y69526039D01*
X43826333Y69526039D02*
X43731095Y69430800D01*
X43731095Y69430800D02*
X43635857Y69383181D01*
X43635857Y69383181D02*
X43445381Y69383181D01*
X44826333Y69383181D02*
X44254905Y69383181D01*
X44540619Y69383181D02*
X44540619Y70383181D01*
X44540619Y70383181D02*
X44445381Y70240324D01*
X44445381Y70240324D02*
X44350143Y70145086D01*
X44350143Y70145086D02*
X44254905Y70097467D01*
X45778714Y69383181D02*
X45207286Y69383181D01*
X45493000Y69383181D02*
X45493000Y70383181D01*
X45493000Y70383181D02*
X45397762Y70240324D01*
X45397762Y70240324D02*
X45302524Y70145086D01*
X45302524Y70145086D02*
X45207286Y70097467D01*
D11*
X61805126Y56769415D02*
X61005126Y56769415D01*
X61005126Y56769415D02*
X61005126Y56959891D01*
X61005126Y56959891D02*
X61043221Y57074177D01*
X61043221Y57074177D02*
X61119411Y57150367D01*
X61119411Y57150367D02*
X61195602Y57188462D01*
X61195602Y57188462D02*
X61347983Y57226558D01*
X61347983Y57226558D02*
X61462269Y57226558D01*
X61462269Y57226558D02*
X61614650Y57188462D01*
X61614650Y57188462D02*
X61690840Y57150367D01*
X61690840Y57150367D02*
X61767031Y57074177D01*
X61767031Y57074177D02*
X61805126Y56959891D01*
X61805126Y56959891D02*
X61805126Y56769415D01*
X61805126Y57607510D02*
X61805126Y57759891D01*
X61805126Y57759891D02*
X61767031Y57836081D01*
X61767031Y57836081D02*
X61728935Y57874177D01*
X61728935Y57874177D02*
X61614650Y57950367D01*
X61614650Y57950367D02*
X61462269Y57988462D01*
X61462269Y57988462D02*
X61157507Y57988462D01*
X61157507Y57988462D02*
X61081316Y57950367D01*
X61081316Y57950367D02*
X61043221Y57912272D01*
X61043221Y57912272D02*
X61005126Y57836081D01*
X61005126Y57836081D02*
X61005126Y57683700D01*
X61005126Y57683700D02*
X61043221Y57607510D01*
X61043221Y57607510D02*
X61081316Y57569415D01*
X61081316Y57569415D02*
X61157507Y57531319D01*
X61157507Y57531319D02*
X61347983Y57531319D01*
X61347983Y57531319D02*
X61424173Y57569415D01*
X61424173Y57569415D02*
X61462269Y57607510D01*
X61462269Y57607510D02*
X61500364Y57683700D01*
X61500364Y57683700D02*
X61500364Y57836081D01*
X61500364Y57836081D02*
X61462269Y57912272D01*
X61462269Y57912272D02*
X61424173Y57950367D01*
X61424173Y57950367D02*
X61347983Y57988462D01*
X111186709Y39355950D02*
X111986710Y39355950D01*
X111986710Y39355950D02*
X111986710Y39165474D01*
X111986710Y39165474D02*
X111948615Y39051188D01*
X111948615Y39051188D02*
X111872424Y38974997D01*
X111872424Y38974997D02*
X111796234Y38936902D01*
X111796234Y38936902D02*
X111643853Y38898807D01*
X111643853Y38898807D02*
X111529567Y38898807D01*
X111529567Y38898807D02*
X111377186Y38936902D01*
X111377186Y38936902D02*
X111300995Y38974997D01*
X111300995Y38974997D02*
X111224805Y39051188D01*
X111224805Y39051188D02*
X111186709Y39165474D01*
X111186709Y39165474D02*
X111186709Y39355950D01*
X111186709Y38136901D02*
X111186709Y38594044D01*
X111186709Y38365473D02*
X111986710Y38365473D01*
X111986710Y38365473D02*
X111872424Y38441663D01*
X111872424Y38441663D02*
X111796234Y38517854D01*
X111796234Y38517854D02*
X111758139Y38594044D01*
X111986710Y37870234D02*
X111986710Y37374995D01*
X111986710Y37374995D02*
X111681948Y37641662D01*
X111681948Y37641662D02*
X111681948Y37527376D01*
X111681948Y37527376D02*
X111643853Y37451185D01*
X111643853Y37451185D02*
X111605757Y37413090D01*
X111605757Y37413090D02*
X111529567Y37374995D01*
X111529567Y37374995D02*
X111339090Y37374995D01*
X111339090Y37374995D02*
X111262900Y37413090D01*
X111262900Y37413090D02*
X111224805Y37451185D01*
X111224805Y37451185D02*
X111186709Y37527376D01*
X111186709Y37527376D02*
X111186709Y37755948D01*
X111186709Y37755948D02*
X111224805Y37832138D01*
X111224805Y37832138D02*
X111262900Y37870234D01*
D10*
X35860057Y35172381D02*
X35812438Y35077143D01*
X35812438Y35077143D02*
X35717200Y34981905D01*
X35717200Y34981905D02*
X35574342Y34839048D01*
X35574342Y34839048D02*
X35526723Y34743810D01*
X35526723Y34743810D02*
X35526723Y34648572D01*
X35764819Y34696191D02*
X35717200Y34600953D01*
X35717200Y34600953D02*
X35621961Y34505715D01*
X35621961Y34505715D02*
X35431485Y34458096D01*
X35431485Y34458096D02*
X35098152Y34458096D01*
X35098152Y34458096D02*
X34907676Y34505715D01*
X34907676Y34505715D02*
X34812438Y34600953D01*
X34812438Y34600953D02*
X34764819Y34696191D01*
X34764819Y34696191D02*
X34764819Y34886667D01*
X34764819Y34886667D02*
X34812438Y34981905D01*
X34812438Y34981905D02*
X34907676Y35077143D01*
X34907676Y35077143D02*
X35098152Y35124762D01*
X35098152Y35124762D02*
X35431485Y35124762D01*
X35431485Y35124762D02*
X35621961Y35077143D01*
X35621961Y35077143D02*
X35717200Y34981905D01*
X35717200Y34981905D02*
X35764819Y34886667D01*
X35764819Y34886667D02*
X35764819Y34696191D01*
X35764819Y35600953D02*
X35764819Y35791429D01*
X35764819Y35791429D02*
X35717200Y35886667D01*
X35717200Y35886667D02*
X35669580Y35934286D01*
X35669580Y35934286D02*
X35526723Y36029524D01*
X35526723Y36029524D02*
X35336247Y36077143D01*
X35336247Y36077143D02*
X34955295Y36077143D01*
X34955295Y36077143D02*
X34860057Y36029524D01*
X34860057Y36029524D02*
X34812438Y35981905D01*
X34812438Y35981905D02*
X34764819Y35886667D01*
X34764819Y35886667D02*
X34764819Y35696191D01*
X34764819Y35696191D02*
X34812438Y35600953D01*
X34812438Y35600953D02*
X34860057Y35553334D01*
X34860057Y35553334D02*
X34955295Y35505715D01*
X34955295Y35505715D02*
X35193390Y35505715D01*
X35193390Y35505715D02*
X35288628Y35553334D01*
X35288628Y35553334D02*
X35336247Y35600953D01*
X35336247Y35600953D02*
X35383866Y35696191D01*
X35383866Y35696191D02*
X35383866Y35886667D01*
X35383866Y35886667D02*
X35336247Y35981905D01*
X35336247Y35981905D02*
X35288628Y36029524D01*
X35288628Y36029524D02*
X35193390Y36077143D01*
X35764819Y37029524D02*
X35764819Y36458096D01*
X35764819Y36743810D02*
X34764819Y36743810D01*
X34764819Y36743810D02*
X34907676Y36648572D01*
X34907676Y36648572D02*
X35002914Y36553334D01*
X35002914Y36553334D02*
X35050533Y36458096D01*
X34764819Y37886667D02*
X34764819Y37696191D01*
X34764819Y37696191D02*
X34812438Y37600953D01*
X34812438Y37600953D02*
X34860057Y37553334D01*
X34860057Y37553334D02*
X35002914Y37458096D01*
X35002914Y37458096D02*
X35193390Y37410477D01*
X35193390Y37410477D02*
X35574342Y37410477D01*
X35574342Y37410477D02*
X35669580Y37458096D01*
X35669580Y37458096D02*
X35717200Y37505715D01*
X35717200Y37505715D02*
X35764819Y37600953D01*
X35764819Y37600953D02*
X35764819Y37791429D01*
X35764819Y37791429D02*
X35717200Y37886667D01*
X35717200Y37886667D02*
X35669580Y37934286D01*
X35669580Y37934286D02*
X35574342Y37981905D01*
X35574342Y37981905D02*
X35336247Y37981905D01*
X35336247Y37981905D02*
X35241009Y37934286D01*
X35241009Y37934286D02*
X35193390Y37886667D01*
X35193390Y37886667D02*
X35145771Y37791429D01*
X35145771Y37791429D02*
X35145771Y37600953D01*
X35145771Y37600953D02*
X35193390Y37505715D01*
X35193390Y37505715D02*
X35241009Y37458096D01*
X35241009Y37458096D02*
X35336247Y37410477D01*
X4321778Y50199381D02*
X4274159Y50104143D01*
X4274159Y50104143D02*
X4178921Y50008905D01*
X4178921Y50008905D02*
X4036063Y49866048D01*
X4036063Y49866048D02*
X3988444Y49770810D01*
X3988444Y49770810D02*
X3988444Y49675572D01*
X4226540Y49723191D02*
X4178921Y49627953D01*
X4178921Y49627953D02*
X4083682Y49532715D01*
X4083682Y49532715D02*
X3893206Y49485096D01*
X3893206Y49485096D02*
X3559873Y49485096D01*
X3559873Y49485096D02*
X3369397Y49532715D01*
X3369397Y49532715D02*
X3274159Y49627953D01*
X3274159Y49627953D02*
X3226540Y49723191D01*
X3226540Y49723191D02*
X3226540Y49913667D01*
X3226540Y49913667D02*
X3274159Y50008905D01*
X3274159Y50008905D02*
X3369397Y50104143D01*
X3369397Y50104143D02*
X3559873Y50151762D01*
X3559873Y50151762D02*
X3893206Y50151762D01*
X3893206Y50151762D02*
X4083682Y50104143D01*
X4083682Y50104143D02*
X4178921Y50008905D01*
X4178921Y50008905D02*
X4226540Y49913667D01*
X4226540Y49913667D02*
X4226540Y49723191D01*
X4226540Y50627953D02*
X4226540Y50818429D01*
X4226540Y50818429D02*
X4178921Y50913667D01*
X4178921Y50913667D02*
X4131301Y50961286D01*
X4131301Y50961286D02*
X3988444Y51056524D01*
X3988444Y51056524D02*
X3797968Y51104143D01*
X3797968Y51104143D02*
X3417016Y51104143D01*
X3417016Y51104143D02*
X3321778Y51056524D01*
X3321778Y51056524D02*
X3274159Y51008905D01*
X3274159Y51008905D02*
X3226540Y50913667D01*
X3226540Y50913667D02*
X3226540Y50723191D01*
X3226540Y50723191D02*
X3274159Y50627953D01*
X3274159Y50627953D02*
X3321778Y50580334D01*
X3321778Y50580334D02*
X3417016Y50532715D01*
X3417016Y50532715D02*
X3655111Y50532715D01*
X3655111Y50532715D02*
X3750349Y50580334D01*
X3750349Y50580334D02*
X3797968Y50627953D01*
X3797968Y50627953D02*
X3845587Y50723191D01*
X3845587Y50723191D02*
X3845587Y50913667D01*
X3845587Y50913667D02*
X3797968Y51008905D01*
X3797968Y51008905D02*
X3750349Y51056524D01*
X3750349Y51056524D02*
X3655111Y51104143D01*
X3226540Y51723191D02*
X3226540Y51818429D01*
X3226540Y51818429D02*
X3274159Y51913667D01*
X3274159Y51913667D02*
X3321778Y51961286D01*
X3321778Y51961286D02*
X3417016Y52008905D01*
X3417016Y52008905D02*
X3607492Y52056524D01*
X3607492Y52056524D02*
X3845587Y52056524D01*
X3845587Y52056524D02*
X4036063Y52008905D01*
X4036063Y52008905D02*
X4131301Y51961286D01*
X4131301Y51961286D02*
X4178921Y51913667D01*
X4178921Y51913667D02*
X4226540Y51818429D01*
X4226540Y51818429D02*
X4226540Y51723191D01*
X4226540Y51723191D02*
X4178921Y51627953D01*
X4178921Y51627953D02*
X4131301Y51580334D01*
X4131301Y51580334D02*
X4036063Y51532715D01*
X4036063Y51532715D02*
X3845587Y51485096D01*
X3845587Y51485096D02*
X3607492Y51485096D01*
X3607492Y51485096D02*
X3417016Y51532715D01*
X3417016Y51532715D02*
X3321778Y51580334D01*
X3321778Y51580334D02*
X3274159Y51627953D01*
X3274159Y51627953D02*
X3226540Y51723191D01*
X3559873Y52913667D02*
X4226540Y52913667D01*
X3178921Y52675572D02*
X3893206Y52437477D01*
X3893206Y52437477D02*
X3893206Y53056524D01*
D11*
X73232614Y54977498D02*
X74032615Y54977498D01*
X74032615Y54977498D02*
X74032615Y54787022D01*
X74032615Y54787022D02*
X73994520Y54672736D01*
X73994520Y54672736D02*
X73918329Y54596545D01*
X73918329Y54596545D02*
X73842139Y54558450D01*
X73842139Y54558450D02*
X73689758Y54520355D01*
X73689758Y54520355D02*
X73575472Y54520355D01*
X73575472Y54520355D02*
X73423091Y54558450D01*
X73423091Y54558450D02*
X73346900Y54596545D01*
X73346900Y54596545D02*
X73270710Y54672736D01*
X73270710Y54672736D02*
X73232614Y54787022D01*
X73232614Y54787022D02*
X73232614Y54977498D01*
X73232614Y53758449D02*
X73232614Y54215592D01*
X73232614Y53987021D02*
X74032615Y53987021D01*
X74032615Y53987021D02*
X73918329Y54063211D01*
X73918329Y54063211D02*
X73842139Y54139402D01*
X73842139Y54139402D02*
X73804044Y54215592D01*
X73956425Y53453686D02*
X73994520Y53415591D01*
X73994520Y53415591D02*
X74032615Y53339400D01*
X74032615Y53339400D02*
X74032615Y53148924D01*
X74032615Y53148924D02*
X73994520Y53072733D01*
X73994520Y53072733D02*
X73956425Y53034638D01*
X73956425Y53034638D02*
X73880234Y52996543D01*
X73880234Y52996543D02*
X73804044Y52996543D01*
X73804044Y52996543D02*
X73689758Y53034638D01*
X73689758Y53034638D02*
X73232614Y53491782D01*
X73232614Y53491782D02*
X73232614Y52996543D01*
X117372417Y69148467D02*
X117333370Y69187515D01*
X117333370Y69187515D02*
X117294322Y69304658D01*
X117294322Y69304658D02*
X117294322Y69382753D01*
X117294322Y69382753D02*
X117333370Y69499896D01*
X117333370Y69499896D02*
X117411465Y69577991D01*
X117411465Y69577991D02*
X117489560Y69617039D01*
X117489560Y69617039D02*
X117645751Y69656087D01*
X117645751Y69656087D02*
X117762894Y69656087D01*
X117762894Y69656087D02*
X117919085Y69617039D01*
X117919085Y69617039D02*
X117997180Y69577991D01*
X117997180Y69577991D02*
X118075275Y69499896D01*
X118075275Y69499896D02*
X118114323Y69382753D01*
X118114323Y69382753D02*
X118114323Y69304658D01*
X118114323Y69304658D02*
X118075275Y69187515D01*
X118075275Y69187515D02*
X118036228Y69148467D01*
X118114323Y68875133D02*
X118114323Y68367514D01*
X118114323Y68367514D02*
X117801942Y68640847D01*
X117801942Y68640847D02*
X117801942Y68523704D01*
X117801942Y68523704D02*
X117762894Y68445609D01*
X117762894Y68445609D02*
X117723846Y68406561D01*
X117723846Y68406561D02*
X117645751Y68367514D01*
X117645751Y68367514D02*
X117450513Y68367514D01*
X117450513Y68367514D02*
X117372417Y68406561D01*
X117372417Y68406561D02*
X117333370Y68445609D01*
X117333370Y68445609D02*
X117294322Y68523704D01*
X117294322Y68523704D02*
X117294322Y68757990D01*
X117294322Y68757990D02*
X117333370Y68836086D01*
X117333370Y68836086D02*
X117372417Y68875133D01*
X114414652Y59982288D02*
X114375604Y59943240D01*
X114375604Y59943240D02*
X114258461Y59904193D01*
X114258461Y59904193D02*
X114180366Y59904193D01*
X114180366Y59904193D02*
X114063223Y59943240D01*
X114063223Y59943240D02*
X113985128Y60021336D01*
X113985128Y60021336D02*
X113946080Y60099431D01*
X113946080Y60099431D02*
X113907032Y60255622D01*
X113907032Y60255622D02*
X113907032Y60372765D01*
X113907032Y60372765D02*
X113946080Y60528955D01*
X113946080Y60528955D02*
X113985128Y60607051D01*
X113985128Y60607051D02*
X114063223Y60685146D01*
X114063223Y60685146D02*
X114180366Y60724194D01*
X114180366Y60724194D02*
X114258461Y60724194D01*
X114258461Y60724194D02*
X114375604Y60685146D01*
X114375604Y60685146D02*
X114414652Y60646098D01*
X115117510Y60450860D02*
X115117510Y59904193D01*
X114922272Y60763241D02*
X114727033Y60177526D01*
X114727033Y60177526D02*
X115234653Y60177526D01*
X106578014Y104123908D02*
X106968490Y104397241D01*
X106578014Y104592479D02*
X107398014Y104592479D01*
X107398014Y104592479D02*
X107398014Y104280098D01*
X107398014Y104280098D02*
X107358966Y104202003D01*
X107358966Y104202003D02*
X107319919Y104162956D01*
X107319919Y104162956D02*
X107241823Y104123908D01*
X107241823Y104123908D02*
X107124681Y104123908D01*
X107124681Y104123908D02*
X107046585Y104162956D01*
X107046585Y104162956D02*
X107007538Y104202003D01*
X107007538Y104202003D02*
X106968490Y104280098D01*
X106968490Y104280098D02*
X106968490Y104592479D01*
X106578014Y103733432D02*
X106578014Y103577241D01*
X106578014Y103577241D02*
X106617062Y103499146D01*
X106617062Y103499146D02*
X106656109Y103460098D01*
X106656109Y103460098D02*
X106773252Y103382003D01*
X106773252Y103382003D02*
X106929442Y103342956D01*
X106929442Y103342956D02*
X107241823Y103342956D01*
X107241823Y103342956D02*
X107319919Y103382003D01*
X107319919Y103382003D02*
X107358966Y103421051D01*
X107358966Y103421051D02*
X107398014Y103499146D01*
X107398014Y103499146D02*
X107398014Y103655337D01*
X107398014Y103655337D02*
X107358966Y103733432D01*
X107358966Y103733432D02*
X107319919Y103772479D01*
X107319919Y103772479D02*
X107241823Y103811527D01*
X107241823Y103811527D02*
X107046585Y103811527D01*
X107046585Y103811527D02*
X106968490Y103772479D01*
X106968490Y103772479D02*
X106929442Y103733432D01*
X106929442Y103733432D02*
X106890395Y103655337D01*
X106890395Y103655337D02*
X106890395Y103499146D01*
X106890395Y103499146D02*
X106929442Y103421051D01*
X106929442Y103421051D02*
X106968490Y103382003D01*
X106968490Y103382003D02*
X107046585Y103342956D01*
D10*
X110948571Y107616943D02*
X110853333Y107664562D01*
X110853333Y107664562D02*
X110758095Y107759800D01*
X110758095Y107759800D02*
X110615238Y107902658D01*
X110615238Y107902658D02*
X110520000Y107950277D01*
X110520000Y107950277D02*
X110424762Y107950277D01*
X110472381Y107712181D02*
X110377143Y107759800D01*
X110377143Y107759800D02*
X110281905Y107855039D01*
X110281905Y107855039D02*
X110234286Y108045515D01*
X110234286Y108045515D02*
X110234286Y108378848D01*
X110234286Y108378848D02*
X110281905Y108569324D01*
X110281905Y108569324D02*
X110377143Y108664562D01*
X110377143Y108664562D02*
X110472381Y108712181D01*
X110472381Y108712181D02*
X110662857Y108712181D01*
X110662857Y108712181D02*
X110758095Y108664562D01*
X110758095Y108664562D02*
X110853333Y108569324D01*
X110853333Y108569324D02*
X110900952Y108378848D01*
X110900952Y108378848D02*
X110900952Y108045515D01*
X110900952Y108045515D02*
X110853333Y107855039D01*
X110853333Y107855039D02*
X110758095Y107759800D01*
X110758095Y107759800D02*
X110662857Y107712181D01*
X110662857Y107712181D02*
X110472381Y107712181D01*
X111853333Y107712181D02*
X111281905Y107712181D01*
X111567619Y107712181D02*
X111567619Y108712181D01*
X111567619Y108712181D02*
X111472381Y108569324D01*
X111472381Y108569324D02*
X111377143Y108474086D01*
X111377143Y108474086D02*
X111281905Y108426467D01*
X112234286Y108616943D02*
X112281905Y108664562D01*
X112281905Y108664562D02*
X112377143Y108712181D01*
X112377143Y108712181D02*
X112615238Y108712181D01*
X112615238Y108712181D02*
X112710476Y108664562D01*
X112710476Y108664562D02*
X112758095Y108616943D01*
X112758095Y108616943D02*
X112805714Y108521705D01*
X112805714Y108521705D02*
X112805714Y108426467D01*
X112805714Y108426467D02*
X112758095Y108283610D01*
X112758095Y108283610D02*
X112186667Y107712181D01*
X112186667Y107712181D02*
X112805714Y107712181D01*
X25008336Y66015381D02*
X24960717Y65920143D01*
X24960717Y65920143D02*
X24865479Y65824905D01*
X24865479Y65824905D02*
X24722621Y65682048D01*
X24722621Y65682048D02*
X24675002Y65586810D01*
X24675002Y65586810D02*
X24675002Y65491572D01*
X24913098Y65539191D02*
X24865479Y65443953D01*
X24865479Y65443953D02*
X24770240Y65348715D01*
X24770240Y65348715D02*
X24579764Y65301096D01*
X24579764Y65301096D02*
X24246431Y65301096D01*
X24246431Y65301096D02*
X24055955Y65348715D01*
X24055955Y65348715D02*
X23960717Y65443953D01*
X23960717Y65443953D02*
X23913098Y65539191D01*
X23913098Y65539191D02*
X23913098Y65729667D01*
X23913098Y65729667D02*
X23960717Y65824905D01*
X23960717Y65824905D02*
X24055955Y65920143D01*
X24055955Y65920143D02*
X24246431Y65967762D01*
X24246431Y65967762D02*
X24579764Y65967762D01*
X24579764Y65967762D02*
X24770240Y65920143D01*
X24770240Y65920143D02*
X24865479Y65824905D01*
X24865479Y65824905D02*
X24913098Y65729667D01*
X24913098Y65729667D02*
X24913098Y65539191D01*
X24913098Y66443953D02*
X24913098Y66634429D01*
X24913098Y66634429D02*
X24865479Y66729667D01*
X24865479Y66729667D02*
X24817859Y66777286D01*
X24817859Y66777286D02*
X24675002Y66872524D01*
X24675002Y66872524D02*
X24484526Y66920143D01*
X24484526Y66920143D02*
X24103574Y66920143D01*
X24103574Y66920143D02*
X24008336Y66872524D01*
X24008336Y66872524D02*
X23960717Y66824905D01*
X23960717Y66824905D02*
X23913098Y66729667D01*
X23913098Y66729667D02*
X23913098Y66539191D01*
X23913098Y66539191D02*
X23960717Y66443953D01*
X23960717Y66443953D02*
X24008336Y66396334D01*
X24008336Y66396334D02*
X24103574Y66348715D01*
X24103574Y66348715D02*
X24341669Y66348715D01*
X24341669Y66348715D02*
X24436907Y66396334D01*
X24436907Y66396334D02*
X24484526Y66443953D01*
X24484526Y66443953D02*
X24532145Y66539191D01*
X24532145Y66539191D02*
X24532145Y66729667D01*
X24532145Y66729667D02*
X24484526Y66824905D01*
X24484526Y66824905D02*
X24436907Y66872524D01*
X24436907Y66872524D02*
X24341669Y66920143D01*
X24913098Y67872524D02*
X24913098Y67301096D01*
X24913098Y67586810D02*
X23913098Y67586810D01*
X23913098Y67586810D02*
X24055955Y67491572D01*
X24055955Y67491572D02*
X24151193Y67396334D01*
X24151193Y67396334D02*
X24198812Y67301096D01*
X23913098Y68777286D02*
X23913098Y68301096D01*
X23913098Y68301096D02*
X24389288Y68253477D01*
X24389288Y68253477D02*
X24341669Y68301096D01*
X24341669Y68301096D02*
X24294050Y68396334D01*
X24294050Y68396334D02*
X24294050Y68634429D01*
X24294050Y68634429D02*
X24341669Y68729667D01*
X24341669Y68729667D02*
X24389288Y68777286D01*
X24389288Y68777286D02*
X24484526Y68824905D01*
X24484526Y68824905D02*
X24722621Y68824905D01*
X24722621Y68824905D02*
X24817859Y68777286D01*
X24817859Y68777286D02*
X24865479Y68729667D01*
X24865479Y68729667D02*
X24913098Y68634429D01*
X24913098Y68634429D02*
X24913098Y68396334D01*
X24913098Y68396334D02*
X24865479Y68301096D01*
X24865479Y68301096D02*
X24817859Y68253477D01*
X25220057Y81062381D02*
X25172438Y80967143D01*
X25172438Y80967143D02*
X25077200Y80871905D01*
X25077200Y80871905D02*
X24934342Y80729048D01*
X24934342Y80729048D02*
X24886723Y80633810D01*
X24886723Y80633810D02*
X24886723Y80538572D01*
X25124819Y80586191D02*
X25077200Y80490953D01*
X25077200Y80490953D02*
X24981961Y80395715D01*
X24981961Y80395715D02*
X24791485Y80348096D01*
X24791485Y80348096D02*
X24458152Y80348096D01*
X24458152Y80348096D02*
X24267676Y80395715D01*
X24267676Y80395715D02*
X24172438Y80490953D01*
X24172438Y80490953D02*
X24124819Y80586191D01*
X24124819Y80586191D02*
X24124819Y80776667D01*
X24124819Y80776667D02*
X24172438Y80871905D01*
X24172438Y80871905D02*
X24267676Y80967143D01*
X24267676Y80967143D02*
X24458152Y81014762D01*
X24458152Y81014762D02*
X24791485Y81014762D01*
X24791485Y81014762D02*
X24981961Y80967143D01*
X24981961Y80967143D02*
X25077200Y80871905D01*
X25077200Y80871905D02*
X25124819Y80776667D01*
X25124819Y80776667D02*
X25124819Y80586191D01*
X25124819Y81490953D02*
X25124819Y81681429D01*
X25124819Y81681429D02*
X25077200Y81776667D01*
X25077200Y81776667D02*
X25029580Y81824286D01*
X25029580Y81824286D02*
X24886723Y81919524D01*
X24886723Y81919524D02*
X24696247Y81967143D01*
X24696247Y81967143D02*
X24315295Y81967143D01*
X24315295Y81967143D02*
X24220057Y81919524D01*
X24220057Y81919524D02*
X24172438Y81871905D01*
X24172438Y81871905D02*
X24124819Y81776667D01*
X24124819Y81776667D02*
X24124819Y81586191D01*
X24124819Y81586191D02*
X24172438Y81490953D01*
X24172438Y81490953D02*
X24220057Y81443334D01*
X24220057Y81443334D02*
X24315295Y81395715D01*
X24315295Y81395715D02*
X24553390Y81395715D01*
X24553390Y81395715D02*
X24648628Y81443334D01*
X24648628Y81443334D02*
X24696247Y81490953D01*
X24696247Y81490953D02*
X24743866Y81586191D01*
X24743866Y81586191D02*
X24743866Y81776667D01*
X24743866Y81776667D02*
X24696247Y81871905D01*
X24696247Y81871905D02*
X24648628Y81919524D01*
X24648628Y81919524D02*
X24553390Y81967143D01*
X25124819Y82919524D02*
X25124819Y82348096D01*
X25124819Y82633810D02*
X24124819Y82633810D01*
X24124819Y82633810D02*
X24267676Y82538572D01*
X24267676Y82538572D02*
X24362914Y82443334D01*
X24362914Y82443334D02*
X24410533Y82348096D01*
X24124819Y83252858D02*
X24124819Y83871905D01*
X24124819Y83871905D02*
X24505771Y83538572D01*
X24505771Y83538572D02*
X24505771Y83681429D01*
X24505771Y83681429D02*
X24553390Y83776667D01*
X24553390Y83776667D02*
X24601009Y83824286D01*
X24601009Y83824286D02*
X24696247Y83871905D01*
X24696247Y83871905D02*
X24934342Y83871905D01*
X24934342Y83871905D02*
X25029580Y83824286D01*
X25029580Y83824286D02*
X25077200Y83776667D01*
X25077200Y83776667D02*
X25124819Y83681429D01*
X25124819Y83681429D02*
X25124819Y83395715D01*
X25124819Y83395715D02*
X25077200Y83300477D01*
X25077200Y83300477D02*
X25029580Y83252858D01*
X14770057Y35052381D02*
X14722438Y34957143D01*
X14722438Y34957143D02*
X14627200Y34861905D01*
X14627200Y34861905D02*
X14484342Y34719048D01*
X14484342Y34719048D02*
X14436723Y34623810D01*
X14436723Y34623810D02*
X14436723Y34528572D01*
X14674819Y34576191D02*
X14627200Y34480953D01*
X14627200Y34480953D02*
X14531961Y34385715D01*
X14531961Y34385715D02*
X14341485Y34338096D01*
X14341485Y34338096D02*
X14008152Y34338096D01*
X14008152Y34338096D02*
X13817676Y34385715D01*
X13817676Y34385715D02*
X13722438Y34480953D01*
X13722438Y34480953D02*
X13674819Y34576191D01*
X13674819Y34576191D02*
X13674819Y34766667D01*
X13674819Y34766667D02*
X13722438Y34861905D01*
X13722438Y34861905D02*
X13817676Y34957143D01*
X13817676Y34957143D02*
X14008152Y35004762D01*
X14008152Y35004762D02*
X14341485Y35004762D01*
X14341485Y35004762D02*
X14531961Y34957143D01*
X14531961Y34957143D02*
X14627200Y34861905D01*
X14627200Y34861905D02*
X14674819Y34766667D01*
X14674819Y34766667D02*
X14674819Y34576191D01*
X14674819Y35480953D02*
X14674819Y35671429D01*
X14674819Y35671429D02*
X14627200Y35766667D01*
X14627200Y35766667D02*
X14579580Y35814286D01*
X14579580Y35814286D02*
X14436723Y35909524D01*
X14436723Y35909524D02*
X14246247Y35957143D01*
X14246247Y35957143D02*
X13865295Y35957143D01*
X13865295Y35957143D02*
X13770057Y35909524D01*
X13770057Y35909524D02*
X13722438Y35861905D01*
X13722438Y35861905D02*
X13674819Y35766667D01*
X13674819Y35766667D02*
X13674819Y35576191D01*
X13674819Y35576191D02*
X13722438Y35480953D01*
X13722438Y35480953D02*
X13770057Y35433334D01*
X13770057Y35433334D02*
X13865295Y35385715D01*
X13865295Y35385715D02*
X14103390Y35385715D01*
X14103390Y35385715D02*
X14198628Y35433334D01*
X14198628Y35433334D02*
X14246247Y35480953D01*
X14246247Y35480953D02*
X14293866Y35576191D01*
X14293866Y35576191D02*
X14293866Y35766667D01*
X14293866Y35766667D02*
X14246247Y35861905D01*
X14246247Y35861905D02*
X14198628Y35909524D01*
X14198628Y35909524D02*
X14103390Y35957143D01*
X14674819Y36909524D02*
X14674819Y36338096D01*
X14674819Y36623810D02*
X13674819Y36623810D01*
X13674819Y36623810D02*
X13817676Y36528572D01*
X13817676Y36528572D02*
X13912914Y36433334D01*
X13912914Y36433334D02*
X13960533Y36338096D01*
X13770057Y37290477D02*
X13722438Y37338096D01*
X13722438Y37338096D02*
X13674819Y37433334D01*
X13674819Y37433334D02*
X13674819Y37671429D01*
X13674819Y37671429D02*
X13722438Y37766667D01*
X13722438Y37766667D02*
X13770057Y37814286D01*
X13770057Y37814286D02*
X13865295Y37861905D01*
X13865295Y37861905D02*
X13960533Y37861905D01*
X13960533Y37861905D02*
X14103390Y37814286D01*
X14103390Y37814286D02*
X14674819Y37242858D01*
X14674819Y37242858D02*
X14674819Y37861905D01*
X123524819Y68575334D02*
X123524819Y68099144D01*
X123524819Y68099144D02*
X122524819Y68099144D01*
X122620057Y68861049D02*
X122572438Y68908668D01*
X122572438Y68908668D02*
X122524819Y69003906D01*
X122524819Y69003906D02*
X122524819Y69242001D01*
X122524819Y69242001D02*
X122572438Y69337239D01*
X122572438Y69337239D02*
X122620057Y69384858D01*
X122620057Y69384858D02*
X122715295Y69432477D01*
X122715295Y69432477D02*
X122810533Y69432477D01*
X122810533Y69432477D02*
X122953390Y69384858D01*
X122953390Y69384858D02*
X123524819Y68813430D01*
X123524819Y68813430D02*
X123524819Y69432477D01*
X25341778Y50199381D02*
X25294159Y50104143D01*
X25294159Y50104143D02*
X25198921Y50008905D01*
X25198921Y50008905D02*
X25056063Y49866048D01*
X25056063Y49866048D02*
X25008444Y49770810D01*
X25008444Y49770810D02*
X25008444Y49675572D01*
X25246540Y49723191D02*
X25198921Y49627953D01*
X25198921Y49627953D02*
X25103682Y49532715D01*
X25103682Y49532715D02*
X24913206Y49485096D01*
X24913206Y49485096D02*
X24579873Y49485096D01*
X24579873Y49485096D02*
X24389397Y49532715D01*
X24389397Y49532715D02*
X24294159Y49627953D01*
X24294159Y49627953D02*
X24246540Y49723191D01*
X24246540Y49723191D02*
X24246540Y49913667D01*
X24246540Y49913667D02*
X24294159Y50008905D01*
X24294159Y50008905D02*
X24389397Y50104143D01*
X24389397Y50104143D02*
X24579873Y50151762D01*
X24579873Y50151762D02*
X24913206Y50151762D01*
X24913206Y50151762D02*
X25103682Y50104143D01*
X25103682Y50104143D02*
X25198921Y50008905D01*
X25198921Y50008905D02*
X25246540Y49913667D01*
X25246540Y49913667D02*
X25246540Y49723191D01*
X25246540Y50627953D02*
X25246540Y50818429D01*
X25246540Y50818429D02*
X25198921Y50913667D01*
X25198921Y50913667D02*
X25151301Y50961286D01*
X25151301Y50961286D02*
X25008444Y51056524D01*
X25008444Y51056524D02*
X24817968Y51104143D01*
X24817968Y51104143D02*
X24437016Y51104143D01*
X24437016Y51104143D02*
X24341778Y51056524D01*
X24341778Y51056524D02*
X24294159Y51008905D01*
X24294159Y51008905D02*
X24246540Y50913667D01*
X24246540Y50913667D02*
X24246540Y50723191D01*
X24246540Y50723191D02*
X24294159Y50627953D01*
X24294159Y50627953D02*
X24341778Y50580334D01*
X24341778Y50580334D02*
X24437016Y50532715D01*
X24437016Y50532715D02*
X24675111Y50532715D01*
X24675111Y50532715D02*
X24770349Y50580334D01*
X24770349Y50580334D02*
X24817968Y50627953D01*
X24817968Y50627953D02*
X24865587Y50723191D01*
X24865587Y50723191D02*
X24865587Y50913667D01*
X24865587Y50913667D02*
X24817968Y51008905D01*
X24817968Y51008905D02*
X24770349Y51056524D01*
X24770349Y51056524D02*
X24675111Y51104143D01*
X24246540Y51723191D02*
X24246540Y51818429D01*
X24246540Y51818429D02*
X24294159Y51913667D01*
X24294159Y51913667D02*
X24341778Y51961286D01*
X24341778Y51961286D02*
X24437016Y52008905D01*
X24437016Y52008905D02*
X24627492Y52056524D01*
X24627492Y52056524D02*
X24865587Y52056524D01*
X24865587Y52056524D02*
X25056063Y52008905D01*
X25056063Y52008905D02*
X25151301Y51961286D01*
X25151301Y51961286D02*
X25198921Y51913667D01*
X25198921Y51913667D02*
X25246540Y51818429D01*
X25246540Y51818429D02*
X25246540Y51723191D01*
X25246540Y51723191D02*
X25198921Y51627953D01*
X25198921Y51627953D02*
X25151301Y51580334D01*
X25151301Y51580334D02*
X25056063Y51532715D01*
X25056063Y51532715D02*
X24865587Y51485096D01*
X24865587Y51485096D02*
X24627492Y51485096D01*
X24627492Y51485096D02*
X24437016Y51532715D01*
X24437016Y51532715D02*
X24341778Y51580334D01*
X24341778Y51580334D02*
X24294159Y51627953D01*
X24294159Y51627953D02*
X24246540Y51723191D01*
X24246540Y52961286D02*
X24246540Y52485096D01*
X24246540Y52485096D02*
X24722730Y52437477D01*
X24722730Y52437477D02*
X24675111Y52485096D01*
X24675111Y52485096D02*
X24627492Y52580334D01*
X24627492Y52580334D02*
X24627492Y52818429D01*
X24627492Y52818429D02*
X24675111Y52913667D01*
X24675111Y52913667D02*
X24722730Y52961286D01*
X24722730Y52961286D02*
X24817968Y53008905D01*
X24817968Y53008905D02*
X25056063Y53008905D01*
X25056063Y53008905D02*
X25151301Y52961286D01*
X25151301Y52961286D02*
X25198921Y52913667D01*
X25198921Y52913667D02*
X25246540Y52818429D01*
X25246540Y52818429D02*
X25246540Y52580334D01*
X25246540Y52580334D02*
X25198921Y52485096D01*
X25198921Y52485096D02*
X25151301Y52437477D01*
X25130057Y35152381D02*
X25082438Y35057143D01*
X25082438Y35057143D02*
X24987200Y34961905D01*
X24987200Y34961905D02*
X24844342Y34819048D01*
X24844342Y34819048D02*
X24796723Y34723810D01*
X24796723Y34723810D02*
X24796723Y34628572D01*
X25034819Y34676191D02*
X24987200Y34580953D01*
X24987200Y34580953D02*
X24891961Y34485715D01*
X24891961Y34485715D02*
X24701485Y34438096D01*
X24701485Y34438096D02*
X24368152Y34438096D01*
X24368152Y34438096D02*
X24177676Y34485715D01*
X24177676Y34485715D02*
X24082438Y34580953D01*
X24082438Y34580953D02*
X24034819Y34676191D01*
X24034819Y34676191D02*
X24034819Y34866667D01*
X24034819Y34866667D02*
X24082438Y34961905D01*
X24082438Y34961905D02*
X24177676Y35057143D01*
X24177676Y35057143D02*
X24368152Y35104762D01*
X24368152Y35104762D02*
X24701485Y35104762D01*
X24701485Y35104762D02*
X24891961Y35057143D01*
X24891961Y35057143D02*
X24987200Y34961905D01*
X24987200Y34961905D02*
X25034819Y34866667D01*
X25034819Y34866667D02*
X25034819Y34676191D01*
X25034819Y35580953D02*
X25034819Y35771429D01*
X25034819Y35771429D02*
X24987200Y35866667D01*
X24987200Y35866667D02*
X24939580Y35914286D01*
X24939580Y35914286D02*
X24796723Y36009524D01*
X24796723Y36009524D02*
X24606247Y36057143D01*
X24606247Y36057143D02*
X24225295Y36057143D01*
X24225295Y36057143D02*
X24130057Y36009524D01*
X24130057Y36009524D02*
X24082438Y35961905D01*
X24082438Y35961905D02*
X24034819Y35866667D01*
X24034819Y35866667D02*
X24034819Y35676191D01*
X24034819Y35676191D02*
X24082438Y35580953D01*
X24082438Y35580953D02*
X24130057Y35533334D01*
X24130057Y35533334D02*
X24225295Y35485715D01*
X24225295Y35485715D02*
X24463390Y35485715D01*
X24463390Y35485715D02*
X24558628Y35533334D01*
X24558628Y35533334D02*
X24606247Y35580953D01*
X24606247Y35580953D02*
X24653866Y35676191D01*
X24653866Y35676191D02*
X24653866Y35866667D01*
X24653866Y35866667D02*
X24606247Y35961905D01*
X24606247Y35961905D02*
X24558628Y36009524D01*
X24558628Y36009524D02*
X24463390Y36057143D01*
X25034819Y37009524D02*
X25034819Y36438096D01*
X25034819Y36723810D02*
X24034819Y36723810D01*
X24034819Y36723810D02*
X24177676Y36628572D01*
X24177676Y36628572D02*
X24272914Y36533334D01*
X24272914Y36533334D02*
X24320533Y36438096D01*
X24368152Y37866667D02*
X25034819Y37866667D01*
X23987200Y37628572D02*
X24701485Y37390477D01*
X24701485Y37390477D02*
X24701485Y38009524D01*
D11*
X88585508Y86107763D02*
X87765508Y86107763D01*
X87765508Y86107763D02*
X87765508Y86303001D01*
X87765508Y86303001D02*
X87804556Y86420144D01*
X87804556Y86420144D02*
X87882651Y86498239D01*
X87882651Y86498239D02*
X87960746Y86537286D01*
X87960746Y86537286D02*
X88116937Y86576334D01*
X88116937Y86576334D02*
X88234080Y86576334D01*
X88234080Y86576334D02*
X88390270Y86537286D01*
X88390270Y86537286D02*
X88468365Y86498239D01*
X88468365Y86498239D02*
X88546461Y86420144D01*
X88546461Y86420144D02*
X88585508Y86303001D01*
X88585508Y86303001D02*
X88585508Y86107763D01*
X87843603Y86888715D02*
X87804556Y86927763D01*
X87804556Y86927763D02*
X87765508Y87005858D01*
X87765508Y87005858D02*
X87765508Y87201096D01*
X87765508Y87201096D02*
X87804556Y87279191D01*
X87804556Y87279191D02*
X87843603Y87318239D01*
X87843603Y87318239D02*
X87921699Y87357286D01*
X87921699Y87357286D02*
X87999794Y87357286D01*
X87999794Y87357286D02*
X88116937Y87318239D01*
X88116937Y87318239D02*
X88585508Y86849667D01*
X88585508Y86849667D02*
X88585508Y87357286D01*
X61943126Y54686415D02*
X61143126Y54686415D01*
X61143126Y54686415D02*
X61143126Y54876891D01*
X61143126Y54876891D02*
X61181221Y54991177D01*
X61181221Y54991177D02*
X61257411Y55067367D01*
X61257411Y55067367D02*
X61333602Y55105462D01*
X61333602Y55105462D02*
X61485983Y55143558D01*
X61485983Y55143558D02*
X61600269Y55143558D01*
X61600269Y55143558D02*
X61752650Y55105462D01*
X61752650Y55105462D02*
X61828840Y55067367D01*
X61828840Y55067367D02*
X61905031Y54991177D01*
X61905031Y54991177D02*
X61943126Y54876891D01*
X61943126Y54876891D02*
X61943126Y54686415D01*
X61943126Y55905462D02*
X61943126Y55448319D01*
X61943126Y55676891D02*
X61143126Y55676891D01*
X61143126Y55676891D02*
X61257411Y55600700D01*
X61257411Y55600700D02*
X61333602Y55524510D01*
X61333602Y55524510D02*
X61371697Y55448319D01*
X61143126Y56400701D02*
X61143126Y56476891D01*
X61143126Y56476891D02*
X61181221Y56553082D01*
X61181221Y56553082D02*
X61219316Y56591177D01*
X61219316Y56591177D02*
X61295507Y56629272D01*
X61295507Y56629272D02*
X61447888Y56667367D01*
X61447888Y56667367D02*
X61638364Y56667367D01*
X61638364Y56667367D02*
X61790745Y56629272D01*
X61790745Y56629272D02*
X61866935Y56591177D01*
X61866935Y56591177D02*
X61905031Y56553082D01*
X61905031Y56553082D02*
X61943126Y56476891D01*
X61943126Y56476891D02*
X61943126Y56400701D01*
X61943126Y56400701D02*
X61905031Y56324510D01*
X61905031Y56324510D02*
X61866935Y56286415D01*
X61866935Y56286415D02*
X61790745Y56248320D01*
X61790745Y56248320D02*
X61638364Y56210224D01*
X61638364Y56210224D02*
X61447888Y56210224D01*
X61447888Y56210224D02*
X61295507Y56248320D01*
X61295507Y56248320D02*
X61219316Y56286415D01*
X61219316Y56286415D02*
X61181221Y56324510D01*
X61181221Y56324510D02*
X61143126Y56400701D01*
X125060417Y68580466D02*
X125021370Y68619514D01*
X125021370Y68619514D02*
X124982322Y68736657D01*
X124982322Y68736657D02*
X124982322Y68814752D01*
X124982322Y68814752D02*
X125021370Y68931895D01*
X125021370Y68931895D02*
X125099465Y69009990D01*
X125099465Y69009990D02*
X125177560Y69049038D01*
X125177560Y69049038D02*
X125333751Y69088086D01*
X125333751Y69088086D02*
X125450894Y69088086D01*
X125450894Y69088086D02*
X125607085Y69049038D01*
X125607085Y69049038D02*
X125685180Y69009990D01*
X125685180Y69009990D02*
X125763275Y68931895D01*
X125763275Y68931895D02*
X125802323Y68814752D01*
X125802323Y68814752D02*
X125802323Y68736657D01*
X125802323Y68736657D02*
X125763275Y68619514D01*
X125763275Y68619514D02*
X125724228Y68580466D01*
X124982322Y67799513D02*
X124982322Y68268085D01*
X124982322Y68033799D02*
X125802323Y68033799D01*
X125802323Y68033799D02*
X125685180Y68111894D01*
X125685180Y68111894D02*
X125607085Y68189989D01*
X125607085Y68189989D02*
X125568037Y68268085D01*
D10*
X120744819Y68970334D02*
X120744819Y68494144D01*
X120744819Y68494144D02*
X119744819Y68494144D01*
X120744819Y69827477D02*
X120744819Y69256049D01*
X120744819Y69541763D02*
X119744819Y69541763D01*
X119744819Y69541763D02*
X119887676Y69446525D01*
X119887676Y69446525D02*
X119982914Y69351287D01*
X119982914Y69351287D02*
X120030533Y69256049D01*
D11*
X113452092Y36282015D02*
X113178759Y36672491D01*
X112983521Y36282015D02*
X112983521Y37102015D01*
X112983521Y37102015D02*
X113295902Y37102015D01*
X113295902Y37102015D02*
X113373997Y37062967D01*
X113373997Y37062967D02*
X113413044Y37023920D01*
X113413044Y37023920D02*
X113452092Y36945824D01*
X113452092Y36945824D02*
X113452092Y36828682D01*
X113452092Y36828682D02*
X113413044Y36750586D01*
X113413044Y36750586D02*
X113373997Y36711539D01*
X113373997Y36711539D02*
X113295902Y36672491D01*
X113295902Y36672491D02*
X112983521Y36672491D01*
X114233044Y36282015D02*
X113764473Y36282015D01*
X113998759Y36282015D02*
X113998759Y37102015D01*
X113998759Y37102015D02*
X113920663Y36984872D01*
X113920663Y36984872D02*
X113842568Y36906777D01*
X113842568Y36906777D02*
X113764473Y36867729D01*
X114935901Y37102015D02*
X114779711Y37102015D01*
X114779711Y37102015D02*
X114701615Y37062967D01*
X114701615Y37062967D02*
X114662568Y37023920D01*
X114662568Y37023920D02*
X114584473Y36906777D01*
X114584473Y36906777D02*
X114545425Y36750586D01*
X114545425Y36750586D02*
X114545425Y36438205D01*
X114545425Y36438205D02*
X114584473Y36360110D01*
X114584473Y36360110D02*
X114623520Y36321062D01*
X114623520Y36321062D02*
X114701615Y36282015D01*
X114701615Y36282015D02*
X114857806Y36282015D01*
X114857806Y36282015D02*
X114935901Y36321062D01*
X114935901Y36321062D02*
X114974949Y36360110D01*
X114974949Y36360110D02*
X115013996Y36438205D01*
X115013996Y36438205D02*
X115013996Y36633443D01*
X115013996Y36633443D02*
X114974949Y36711539D01*
X114974949Y36711539D02*
X114935901Y36750586D01*
X114935901Y36750586D02*
X114857806Y36789634D01*
X114857806Y36789634D02*
X114701615Y36789634D01*
X114701615Y36789634D02*
X114623520Y36750586D01*
X114623520Y36750586D02*
X114584473Y36711539D01*
X114584473Y36711539D02*
X114545425Y36633443D01*
X114610533Y62309424D02*
X114571485Y62270376D01*
X114571485Y62270376D02*
X114454342Y62231329D01*
X114454342Y62231329D02*
X114376247Y62231329D01*
X114376247Y62231329D02*
X114259104Y62270376D01*
X114259104Y62270376D02*
X114181009Y62348472D01*
X114181009Y62348472D02*
X114141961Y62426567D01*
X114141961Y62426567D02*
X114102913Y62582758D01*
X114102913Y62582758D02*
X114102913Y62699901D01*
X114102913Y62699901D02*
X114141961Y62856091D01*
X114141961Y62856091D02*
X114181009Y62934187D01*
X114181009Y62934187D02*
X114259104Y63012282D01*
X114259104Y63012282D02*
X114376247Y63051330D01*
X114376247Y63051330D02*
X114454342Y63051330D01*
X114454342Y63051330D02*
X114571485Y63012282D01*
X114571485Y63012282D02*
X114610533Y62973234D01*
X115352439Y63051330D02*
X114961962Y63051330D01*
X114961962Y63051330D02*
X114922914Y62660853D01*
X114922914Y62660853D02*
X114961962Y62699901D01*
X114961962Y62699901D02*
X115040057Y62738948D01*
X115040057Y62738948D02*
X115235296Y62738948D01*
X115235296Y62738948D02*
X115313391Y62699901D01*
X115313391Y62699901D02*
X115352439Y62660853D01*
X115352439Y62660853D02*
X115391486Y62582758D01*
X115391486Y62582758D02*
X115391486Y62387519D01*
X115391486Y62387519D02*
X115352439Y62309424D01*
X115352439Y62309424D02*
X115313391Y62270376D01*
X115313391Y62270376D02*
X115235296Y62231329D01*
X115235296Y62231329D02*
X115040057Y62231329D01*
X115040057Y62231329D02*
X114961962Y62270376D01*
X114961962Y62270376D02*
X114922914Y62309424D01*
D10*
X14648336Y65915381D02*
X14600717Y65820143D01*
X14600717Y65820143D02*
X14505479Y65724905D01*
X14505479Y65724905D02*
X14362621Y65582048D01*
X14362621Y65582048D02*
X14315002Y65486810D01*
X14315002Y65486810D02*
X14315002Y65391572D01*
X14553098Y65439191D02*
X14505479Y65343953D01*
X14505479Y65343953D02*
X14410240Y65248715D01*
X14410240Y65248715D02*
X14219764Y65201096D01*
X14219764Y65201096D02*
X13886431Y65201096D01*
X13886431Y65201096D02*
X13695955Y65248715D01*
X13695955Y65248715D02*
X13600717Y65343953D01*
X13600717Y65343953D02*
X13553098Y65439191D01*
X13553098Y65439191D02*
X13553098Y65629667D01*
X13553098Y65629667D02*
X13600717Y65724905D01*
X13600717Y65724905D02*
X13695955Y65820143D01*
X13695955Y65820143D02*
X13886431Y65867762D01*
X13886431Y65867762D02*
X14219764Y65867762D01*
X14219764Y65867762D02*
X14410240Y65820143D01*
X14410240Y65820143D02*
X14505479Y65724905D01*
X14505479Y65724905D02*
X14553098Y65629667D01*
X14553098Y65629667D02*
X14553098Y65439191D01*
X14553098Y66343953D02*
X14553098Y66534429D01*
X14553098Y66534429D02*
X14505479Y66629667D01*
X14505479Y66629667D02*
X14457859Y66677286D01*
X14457859Y66677286D02*
X14315002Y66772524D01*
X14315002Y66772524D02*
X14124526Y66820143D01*
X14124526Y66820143D02*
X13743574Y66820143D01*
X13743574Y66820143D02*
X13648336Y66772524D01*
X13648336Y66772524D02*
X13600717Y66724905D01*
X13600717Y66724905D02*
X13553098Y66629667D01*
X13553098Y66629667D02*
X13553098Y66439191D01*
X13553098Y66439191D02*
X13600717Y66343953D01*
X13600717Y66343953D02*
X13648336Y66296334D01*
X13648336Y66296334D02*
X13743574Y66248715D01*
X13743574Y66248715D02*
X13981669Y66248715D01*
X13981669Y66248715D02*
X14076907Y66296334D01*
X14076907Y66296334D02*
X14124526Y66343953D01*
X14124526Y66343953D02*
X14172145Y66439191D01*
X14172145Y66439191D02*
X14172145Y66629667D01*
X14172145Y66629667D02*
X14124526Y66724905D01*
X14124526Y66724905D02*
X14076907Y66772524D01*
X14076907Y66772524D02*
X13981669Y66820143D01*
X14553098Y67772524D02*
X14553098Y67201096D01*
X14553098Y67486810D02*
X13553098Y67486810D01*
X13553098Y67486810D02*
X13695955Y67391572D01*
X13695955Y67391572D02*
X13791193Y67296334D01*
X13791193Y67296334D02*
X13838812Y67201096D01*
X14553098Y68724905D02*
X14553098Y68153477D01*
X14553098Y68439191D02*
X13553098Y68439191D01*
X13553098Y68439191D02*
X13695955Y68343953D01*
X13695955Y68343953D02*
X13791193Y68248715D01*
X13791193Y68248715D02*
X13838812Y68153477D01*
D12*
X55654143Y87124222D02*
X55400143Y87124222D01*
X55400143Y86725079D02*
X55400143Y87487079D01*
X55400143Y87487079D02*
X55763000Y87487079D01*
X56452429Y86725079D02*
X56017000Y86725079D01*
X56234715Y86725079D02*
X56234715Y87487079D01*
X56234715Y87487079D02*
X56162143Y87378222D01*
X56162143Y87378222D02*
X56089572Y87305650D01*
X56089572Y87305650D02*
X56017000Y87269364D01*
X56924143Y87487079D02*
X56996714Y87487079D01*
X56996714Y87487079D02*
X57069286Y87450793D01*
X57069286Y87450793D02*
X57105572Y87414507D01*
X57105572Y87414507D02*
X57141857Y87341936D01*
X57141857Y87341936D02*
X57178143Y87196793D01*
X57178143Y87196793D02*
X57178143Y87015364D01*
X57178143Y87015364D02*
X57141857Y86870222D01*
X57141857Y86870222D02*
X57105572Y86797650D01*
X57105572Y86797650D02*
X57069286Y86761364D01*
X57069286Y86761364D02*
X56996714Y86725079D01*
X56996714Y86725079D02*
X56924143Y86725079D01*
X56924143Y86725079D02*
X56851572Y86761364D01*
X56851572Y86761364D02*
X56815286Y86797650D01*
X56815286Y86797650D02*
X56779000Y86870222D01*
X56779000Y86870222D02*
X56742714Y87015364D01*
X56742714Y87015364D02*
X56742714Y87196793D01*
X56742714Y87196793D02*
X56779000Y87341936D01*
X56779000Y87341936D02*
X56815286Y87414507D01*
X56815286Y87414507D02*
X56851572Y87450793D01*
X56851572Y87450793D02*
X56924143Y87487079D01*
D10*
X116229819Y64770406D02*
X115229819Y64770406D01*
X115229819Y64770406D02*
X115229819Y65008501D01*
X115229819Y65008501D02*
X115277438Y65151358D01*
X115277438Y65151358D02*
X115372676Y65246596D01*
X115372676Y65246596D02*
X115467914Y65294215D01*
X115467914Y65294215D02*
X115658390Y65341834D01*
X115658390Y65341834D02*
X115801247Y65341834D01*
X115801247Y65341834D02*
X115991723Y65294215D01*
X115991723Y65294215D02*
X116086961Y65246596D01*
X116086961Y65246596D02*
X116182200Y65151358D01*
X116182200Y65151358D02*
X116229819Y65008501D01*
X116229819Y65008501D02*
X116229819Y64770406D01*
X116229819Y66294215D02*
X116229819Y65722787D01*
X116229819Y66008501D02*
X115229819Y66008501D01*
X115229819Y66008501D02*
X115372676Y65913263D01*
X115372676Y65913263D02*
X115467914Y65818025D01*
X115467914Y65818025D02*
X115515533Y65722787D01*
D11*
X38109907Y9081986D02*
X38383240Y8691510D01*
X38578478Y9081986D02*
X38578478Y8261986D01*
X38578478Y8261986D02*
X38266097Y8261986D01*
X38266097Y8261986D02*
X38188002Y8301034D01*
X38188002Y8301034D02*
X38148955Y8340081D01*
X38148955Y8340081D02*
X38109907Y8418177D01*
X38109907Y8418177D02*
X38109907Y8535319D01*
X38109907Y8535319D02*
X38148955Y8613415D01*
X38148955Y8613415D02*
X38188002Y8652462D01*
X38188002Y8652462D02*
X38266097Y8691510D01*
X38266097Y8691510D02*
X38578478Y8691510D01*
X37328955Y9081986D02*
X37797526Y9081986D01*
X37563240Y9081986D02*
X37563240Y8261986D01*
X37563240Y8261986D02*
X37641336Y8379129D01*
X37641336Y8379129D02*
X37719431Y8457224D01*
X37719431Y8457224D02*
X37797526Y8496272D01*
X37055622Y8261986D02*
X36508955Y8261986D01*
X36508955Y8261986D02*
X36860384Y9081986D01*
D13*
G04 #@! TO.C,Q906*
X4488279Y70173000D02*
X4488279Y63753000D01*
X4488279Y63753000D02*
X4758279Y63753000D01*
X11388279Y70173000D02*
X11388279Y63753000D01*
X11388279Y63753000D02*
X11118279Y63753000D01*
X4798279Y62023000D02*
X4328279Y61683000D01*
X4328279Y62363000D01*
X4798279Y62023000D01*
G36*
X4798279Y62023000D02*
G01*
X4328279Y61683000D01*
X4328279Y62363000D01*
X4798279Y62023000D01*
G37*
G04 #@! TO.C,Q903*
X15360000Y85120000D02*
X15360000Y78700000D01*
X15360000Y78700000D02*
X15630000Y78700000D01*
X22260000Y85120000D02*
X22260000Y78700000D01*
X22260000Y78700000D02*
X21990000Y78700000D01*
X15670000Y76970000D02*
X15200000Y76630000D01*
X15200000Y77310000D01*
X15670000Y76970000D01*
G36*
X15670000Y76970000D02*
G01*
X15200000Y76630000D01*
X15200000Y77310000D01*
X15670000Y76970000D01*
G37*
G04 #@! TO.C,Q901*
X4610000Y39310000D02*
X4610000Y32890000D01*
X4610000Y32890000D02*
X4880000Y32890000D01*
X11510000Y39310000D02*
X11510000Y32890000D01*
X11510000Y32890000D02*
X11240000Y32890000D01*
X4920000Y31160000D02*
X4450000Y30820000D01*
X4450000Y31500000D01*
X4920000Y31160000D01*
G36*
X4920000Y31160000D02*
G01*
X4450000Y30820000D01*
X4450000Y31500000D01*
X4920000Y31160000D01*
G37*
D14*
G04 #@! TO.C,G\u002A\u002A\u002A*
G36*
X71479119Y2926781D02*
G01*
X71464054Y2911715D01*
X71448989Y2926781D01*
X71464054Y2941846D01*
X71479119Y2926781D01*
G37*
G36*
X73196557Y4764740D02*
G01*
X73181492Y4749675D01*
X73166427Y4764740D01*
X73181492Y4779805D01*
X73196557Y4764740D01*
G37*
G36*
X73347210Y4071739D02*
G01*
X73332144Y4056674D01*
X73317079Y4071739D01*
X73332144Y4086804D01*
X73347210Y4071739D01*
G37*
G36*
X73377340Y6421917D02*
G01*
X73362275Y6406852D01*
X73347210Y6421917D01*
X73362275Y6436982D01*
X73377340Y6421917D01*
G37*
G36*
X71529337Y2961933D02*
G01*
X71532943Y2926175D01*
X71529337Y2921759D01*
X71511424Y2925895D01*
X71509250Y2941846D01*
X71520274Y2966647D01*
X71529337Y2961933D01*
G37*
G36*
X71982139Y6270319D02*
G01*
X71964946Y6248165D01*
X71939612Y6229124D01*
X71945934Y6259315D01*
X71948079Y6265031D01*
X71971948Y6301927D01*
X71985519Y6302192D01*
X71982139Y6270319D01*
G37*
G36*
X73091100Y4790701D02*
G01*
X73130745Y4769315D01*
X73136296Y4761517D01*
X73111692Y4750984D01*
X73091100Y4749675D01*
X73050996Y4765443D01*
X73045905Y4778860D01*
X73067991Y4795438D01*
X73091100Y4790701D01*
G37*
G36*
X78341005Y2885878D02*
G01*
X78348870Y2853664D01*
X78329019Y2802151D01*
X78286400Y2791193D01*
X78238380Y2807428D01*
X78234018Y2843576D01*
X78262027Y2892343D01*
X78305456Y2907125D01*
X78341005Y2885878D01*
G37*
G36*
X79395572Y2885878D02*
G01*
X79403437Y2853664D01*
X79383586Y2802151D01*
X79340967Y2791193D01*
X79292947Y2807428D01*
X79288585Y2843576D01*
X79316594Y2892343D01*
X79360023Y2907125D01*
X79395572Y2885878D01*
G37*
G36*
X80873663Y2890919D02*
G01*
X80876828Y2828856D01*
X80873784Y2752662D01*
X80859151Y2731498D01*
X80841160Y2753530D01*
X80839776Y2796696D01*
X80851444Y2851454D01*
X80866717Y2897266D01*
X80873663Y2890919D01*
G37*
G36*
X78251320Y4260055D02*
G01*
X78285482Y4227011D01*
X78298259Y4181676D01*
X78307643Y4067541D01*
X78279115Y3997764D01*
X78210303Y3968039D01*
X78179638Y3966282D01*
X78077696Y3966282D01*
X78077696Y4116935D01*
X78077696Y4267587D01*
X78179386Y4267587D01*
X78251320Y4260055D01*
G37*
G36*
X82996238Y5436876D02*
G01*
X83089893Y5418364D01*
X83134462Y5373571D01*
X83136780Y5292412D01*
X83126647Y5244445D01*
X83105036Y5196354D01*
X83059878Y5175506D01*
X82988391Y5171502D01*
X82868443Y5171502D01*
X82868443Y5308821D01*
X82868443Y5446141D01*
X82996238Y5436876D01*
G37*
G36*
X77893544Y2898732D02*
G01*
X77917655Y2854443D01*
X77926645Y2777308D01*
X77918879Y2693214D01*
X77908755Y2658070D01*
X77875063Y2610342D01*
X77839687Y2614410D01*
X77813686Y2663175D01*
X77806983Y2723400D01*
X77817165Y2826182D01*
X77843771Y2889340D01*
X77882356Y2903870D01*
X77893544Y2898732D01*
G37*
G36*
X80323196Y2897786D02*
G01*
X80333684Y2847596D01*
X80331601Y2770951D01*
X80316483Y2680082D01*
X80289613Y2625005D01*
X80257951Y2613676D01*
X80228731Y2653327D01*
X80219142Y2722469D01*
X80229502Y2803149D01*
X80254083Y2873134D01*
X80287156Y2910189D01*
X80295303Y2911715D01*
X80323196Y2897786D01*
G37*
G36*
X82040788Y2885801D02*
G01*
X82054132Y2821771D01*
X82052168Y2740198D01*
X82034085Y2661654D01*
X82023730Y2638560D01*
X81983706Y2586933D01*
X81953246Y2592587D01*
X81936429Y2652792D01*
X81934398Y2698338D01*
X81943296Y2822237D01*
X81970884Y2892073D01*
X82012948Y2911715D01*
X82040788Y2885801D01*
G37*
G36*
X83097102Y2885903D02*
G01*
X83109324Y2819963D01*
X83101123Y2731138D01*
X83080102Y2657568D01*
X83043214Y2593931D01*
X83005840Y2586363D01*
X82976831Y2628702D01*
X82970720Y2692647D01*
X82984689Y2774043D01*
X83011947Y2851200D01*
X83045702Y2902429D01*
X83065453Y2911715D01*
X83097102Y2885903D01*
G37*
G36*
X79759203Y4139533D02*
G01*
X79749913Y4058809D01*
X79727463Y4020235D01*
X79676578Y4005739D01*
X79643404Y4002511D01*
X79566624Y4002068D01*
X79518361Y4012754D01*
X79515350Y4015066D01*
X79501395Y4056770D01*
X79494126Y4132672D01*
X79493829Y4152087D01*
X79493829Y4267587D01*
X79631148Y4267587D01*
X79768468Y4267587D01*
X79759203Y4139533D01*
G37*
G36*
X77392227Y5436876D02*
G01*
X77472429Y5428372D01*
X77509331Y5407047D01*
X77519749Y5355860D01*
X77520282Y5307089D01*
X77516683Y5229515D01*
X77495623Y5193454D01*
X77441704Y5180191D01*
X77413748Y5177600D01*
X77336968Y5177157D01*
X77288705Y5187843D01*
X77285694Y5190155D01*
X77271826Y5231782D01*
X77264511Y5307886D01*
X77264173Y5328908D01*
X77264173Y5446141D01*
X77392227Y5436876D01*
G37*
G36*
X73427995Y3980825D02*
G01*
X73505622Y3944438D01*
X73587991Y3884190D01*
X73623852Y3834958D01*
X73617362Y3776566D01*
X73565681Y3698888D01*
X73522246Y3649912D01*
X73454041Y3560578D01*
X73431591Y3481438D01*
X73434033Y3446531D01*
X73425453Y3424671D01*
X73397822Y3446160D01*
X73391547Y3455453D01*
X73383964Y3501903D01*
X73386723Y3584261D01*
X73392149Y3632986D01*
X73399028Y3736860D01*
X73385718Y3793494D01*
X73379721Y3799093D01*
X73353919Y3843723D01*
X73348704Y3911199D01*
X73364621Y3968488D01*
X73376717Y3980963D01*
X73427995Y3980825D01*
G37*
G36*
X73286568Y4758505D02*
G01*
X73327759Y4735430D01*
X73330027Y4716119D01*
X73331219Y4690051D01*
X73337899Y4688467D01*
X73381995Y4661814D01*
X73421204Y4603129D01*
X73441025Y4539464D01*
X73435533Y4506317D01*
X73410767Y4480664D01*
X73404166Y4486033D01*
X73396851Y4535511D01*
X73396172Y4541190D01*
X73371023Y4583799D01*
X73339677Y4612306D01*
X73296856Y4659523D01*
X73286949Y4688892D01*
X73277960Y4711788D01*
X73242109Y4689709D01*
X73241753Y4689414D01*
X73204314Y4669246D01*
X73196557Y4685725D01*
X73218583Y4717874D01*
X73228466Y4719545D01*
X73247317Y4737590D01*
X73243489Y4746865D01*
X73253085Y4762308D01*
X73286568Y4758505D01*
G37*
G36*
X73097657Y4700369D02*
G01*
X73146886Y4667563D01*
X73150195Y4623096D01*
X73149191Y4584015D01*
X73177521Y4573052D01*
X73242878Y4582180D01*
X73319918Y4592414D01*
X73342242Y4580148D01*
X73312836Y4540246D01*
X73283680Y4512053D01*
X73220151Y4452867D01*
X73283680Y4384676D01*
X73347210Y4316485D01*
X73347210Y4382428D01*
X73357904Y4436920D01*
X73394427Y4441862D01*
X73451819Y4407520D01*
X73481624Y4380660D01*
X73484278Y4351146D01*
X73455617Y4303462D01*
X73407340Y4241802D01*
X73343679Y4171356D01*
X73289226Y4126075D01*
X73266841Y4116935D01*
X73231301Y4092709D01*
X73226688Y4071739D01*
X73215580Y4032536D01*
X73178865Y4038568D01*
X73111451Y4091078D01*
X73098325Y4103089D01*
X73043404Y4169341D01*
X73016362Y4232026D01*
X73015774Y4239736D01*
X72998798Y4312478D01*
X72957733Y4385668D01*
X72907371Y4437110D01*
X72876722Y4448370D01*
X72838901Y4430937D01*
X72834991Y4418240D01*
X72810748Y4391143D01*
X72792005Y4388109D01*
X72750392Y4414318D01*
X72733448Y4484842D01*
X72739739Y4563048D01*
X72751362Y4602553D01*
X72778141Y4620374D01*
X72835991Y4621007D01*
X72914153Y4612305D01*
X73018029Y4604753D01*
X73070447Y4613900D01*
X73076035Y4623170D01*
X73052230Y4660571D01*
X73038372Y4667713D01*
X73010734Y4687746D01*
X73028137Y4702864D01*
X73075458Y4704737D01*
X73097657Y4700369D01*
G37*
G36*
X85188491Y4132000D02*
G01*
X85188491Y1314800D01*
X77686000Y1314800D01*
X70183509Y1314800D01*
X70183509Y2420238D01*
X71339165Y2420238D01*
X71343913Y2388868D01*
X71367316Y2319700D01*
X71402475Y2229511D01*
X71442492Y2135077D01*
X71480468Y2053177D01*
X71509505Y2000586D01*
X71514331Y1994242D01*
X71536214Y1941312D01*
X71539380Y1911383D01*
X71554047Y1865807D01*
X71571289Y1857148D01*
X71589284Y1838689D01*
X71584576Y1827018D01*
X71586965Y1799253D01*
X71597863Y1796887D01*
X71628629Y1809334D01*
X71629772Y1813818D01*
X71621128Y1841073D01*
X71593855Y1905956D01*
X71545941Y2012991D01*
X71475373Y2166699D01*
X71412044Y2303146D01*
X71374630Y2376121D01*
X71346882Y2416897D01*
X71339165Y2420238D01*
X70183509Y2420238D01*
X70183509Y2444693D01*
X70997032Y2444693D01*
X71012097Y2429628D01*
X71027162Y2444693D01*
X71012097Y2459758D01*
X70997032Y2444693D01*
X70183509Y2444693D01*
X70183509Y2565215D01*
X70936771Y2565215D01*
X70951836Y2550149D01*
X70966901Y2565215D01*
X70951836Y2580280D01*
X70936771Y2565215D01*
X70183509Y2565215D01*
X70183509Y2747005D01*
X71209588Y2747005D01*
X71217905Y2703273D01*
X71240474Y2634125D01*
X71269575Y2559127D01*
X71297489Y2497846D01*
X71316495Y2469847D01*
X71318807Y2470185D01*
X71315088Y2502197D01*
X71292886Y2571721D01*
X71270904Y2629041D01*
X71237847Y2705030D01*
X71215472Y2746025D01*
X71209588Y2747005D01*
X70183509Y2747005D01*
X70183509Y2806259D01*
X70816249Y2806259D01*
X70831314Y2791193D01*
X70846379Y2806259D01*
X70831314Y2821324D01*
X70816249Y2806259D01*
X70183509Y2806259D01*
X70183509Y2869030D01*
X71150063Y2869030D01*
X71155602Y2829951D01*
X71165888Y2829484D01*
X71173081Y2869811D01*
X71168267Y2887234D01*
X71154888Y2898647D01*
X71150063Y2869030D01*
X70183509Y2869030D01*
X70183509Y2941846D01*
X70755988Y2941846D01*
X70767012Y2917045D01*
X70776075Y2921759D01*
X70779681Y2957517D01*
X70776075Y2961933D01*
X70758162Y2957797D01*
X70755988Y2941846D01*
X70183509Y2941846D01*
X70183509Y2987042D01*
X71117554Y2987042D01*
X71133322Y2946937D01*
X71146738Y2941846D01*
X71163317Y2963932D01*
X71160057Y2979836D01*
X71403059Y2979836D01*
X71403070Y2950345D01*
X71418634Y2897547D01*
X71451599Y2799398D01*
X71498012Y2666897D01*
X71553921Y2511044D01*
X71615372Y2342838D01*
X71678413Y2173278D01*
X71739089Y2013364D01*
X71749937Y1985203D01*
X71845960Y1736626D01*
X72142849Y1736626D01*
X72285270Y1733428D01*
X72391312Y1724507D01*
X72451019Y1710873D01*
X72459595Y1704498D01*
X72473073Y1654390D01*
X72479386Y1575179D01*
X72479452Y1566488D01*
X72479452Y1460607D01*
X72783044Y1758872D01*
X73527950Y1758872D01*
X73556686Y1757468D01*
X73637418Y1757368D01*
X73761901Y1758481D01*
X73921886Y1760718D01*
X74109125Y1763986D01*
X74247999Y1766757D01*
X74476360Y1771859D01*
X74652291Y1776903D01*
X74783617Y1782633D01*
X74878164Y1789795D01*
X74943756Y1799134D01*
X74988220Y1811396D01*
X75019380Y1827327D01*
X75038672Y1842083D01*
X75158243Y1966140D01*
X75234257Y2100912D01*
X75262897Y2233779D01*
X75305691Y2233779D01*
X75320756Y2218714D01*
X75335822Y2233779D01*
X75320756Y2248845D01*
X75305691Y2233779D01*
X75262897Y2233779D01*
X75266941Y2252540D01*
X75262667Y2324171D01*
X75365952Y2324171D01*
X75381017Y2309106D01*
X75396083Y2324171D01*
X75381017Y2339236D01*
X75365952Y2324171D01*
X75262667Y2324171D01*
X75261003Y2352065D01*
X77719337Y2352065D01*
X77736217Y2329193D01*
X77794018Y2309771D01*
X77873344Y2328724D01*
X77916322Y2353196D01*
X77956481Y2398226D01*
X77982992Y2474903D01*
X77999956Y2586708D01*
X78009828Y2672081D01*
X78137556Y2672081D01*
X78154982Y2586975D01*
X78174113Y2556176D01*
X78228736Y2527376D01*
X78296943Y2520087D01*
X78354954Y2533261D01*
X78379001Y2565215D01*
X78358547Y2593601D01*
X78533464Y2593601D01*
X78542355Y2540387D01*
X78564949Y2520699D01*
X78572451Y2520019D01*
X78600134Y2541593D01*
X78621306Y2610768D01*
X78636383Y2717369D01*
X78650749Y2825399D01*
X78667429Y2884307D01*
X78690586Y2905202D01*
X78706575Y2904733D01*
X78733661Y2888582D01*
X78746642Y2845471D01*
X78748179Y2762016D01*
X78745828Y2707382D01*
X78743095Y2601628D01*
X78750386Y2543665D01*
X78769951Y2521527D01*
X78781093Y2520019D01*
X78809247Y2538201D01*
X78821999Y2575227D01*
X78955729Y2575227D01*
X78962858Y2532167D01*
X78988628Y2520066D01*
X78991408Y2520019D01*
X79025505Y2542164D01*
X79048705Y2613546D01*
X79056416Y2663139D01*
X79057602Y2672081D01*
X79192123Y2672081D01*
X79209549Y2586975D01*
X79228681Y2556176D01*
X79283303Y2527376D01*
X79351510Y2520087D01*
X79409521Y2533261D01*
X79433568Y2565215D01*
X79413700Y2592788D01*
X79588142Y2592788D01*
X79597135Y2539498D01*
X79619789Y2520448D01*
X79625524Y2520019D01*
X79654836Y2546981D01*
X79675061Y2621270D01*
X79915656Y2621270D01*
X79925792Y2549382D01*
X79950718Y2518215D01*
X79982208Y2536996D01*
X79985785Y2542617D01*
X79995133Y2581832D01*
X80007233Y2664060D01*
X80011824Y2704188D01*
X80127241Y2704188D01*
X80135590Y2599552D01*
X80144120Y2569602D01*
X80181145Y2543762D01*
X80252080Y2527636D01*
X80331185Y2523493D01*
X80392717Y2533603D01*
X80409811Y2546175D01*
X80415639Y2572422D01*
X80705195Y2572422D01*
X80710504Y2534527D01*
X80731115Y2520703D01*
X80740478Y2520019D01*
X80781455Y2544941D01*
X80789440Y2577056D01*
X80808814Y2628876D01*
X80851157Y2657901D01*
X80891951Y2648508D01*
X80907384Y2606222D01*
X80909962Y2575258D01*
X80932163Y2528821D01*
X80959450Y2520019D01*
X80986073Y2527912D01*
X80997725Y2560325D01*
X80996536Y2630362D01*
X80993024Y2668161D01*
X81121207Y2668161D01*
X81125691Y2583123D01*
X81149916Y2540487D01*
X81209014Y2526209D01*
X81274937Y2525507D01*
X81355506Y2533238D01*
X81394367Y2559438D01*
X81405849Y2591369D01*
X81416379Y2656625D01*
X81422467Y2703009D01*
X81561336Y2703009D01*
X81564343Y2606161D01*
X81569066Y2550149D01*
X81597210Y2524909D01*
X81654868Y2518877D01*
X81715220Y2529864D01*
X81751447Y2555682D01*
X81753615Y2565215D01*
X81728172Y2601936D01*
X81689840Y2610410D01*
X81644110Y2621438D01*
X81641095Y2665498D01*
X81642931Y2672931D01*
X81844007Y2672931D01*
X81866534Y2584032D01*
X81922927Y2530948D01*
X81996398Y2519349D01*
X82053710Y2546977D01*
X82244859Y2546977D01*
X82267284Y2520851D01*
X82276310Y2520019D01*
X82323487Y2544447D01*
X82337936Y2567679D01*
X82350811Y2630531D01*
X82356225Y2715171D01*
X82356225Y2715867D01*
X82367042Y2834227D01*
X82400045Y2898210D01*
X82438285Y2911715D01*
X82462705Y2901103D01*
X82474183Y2861235D01*
X82474748Y2780069D01*
X82471296Y2715867D01*
X82467922Y2599509D01*
X82476734Y2536345D01*
X82494693Y2520019D01*
X82537165Y2547794D01*
X82562354Y2624647D01*
X82567550Y2695734D01*
X82578609Y2810780D01*
X82607911Y2886084D01*
X82649489Y2911715D01*
X82673211Y2902270D01*
X82683149Y2865736D01*
X82680823Y2789817D01*
X82673707Y2715867D01*
X82664397Y2608748D01*
X82666363Y2548763D01*
X82681147Y2523575D01*
X82698159Y2520019D01*
X82726480Y2547287D01*
X82751411Y2617640D01*
X82769675Y2713903D01*
X82769964Y2717551D01*
X82898574Y2717551D01*
X82902139Y2624765D01*
X82911266Y2558611D01*
X82918661Y2540106D01*
X82973436Y2520432D01*
X83051001Y2525362D01*
X83121065Y2550971D01*
X83142887Y2569154D01*
X83167083Y2628624D01*
X83181764Y2725777D01*
X83183099Y2758536D01*
X83320705Y2758536D01*
X83324291Y2653815D01*
X83331882Y2574199D01*
X83340268Y2542617D01*
X83380515Y2520685D01*
X83439483Y2521816D01*
X83488375Y2541966D01*
X83501183Y2565215D01*
X83481579Y2600919D01*
X83463520Y2602878D01*
X83437862Y2623990D01*
X83599676Y2623990D01*
X83600503Y2557331D01*
X83612558Y2526652D01*
X83633450Y2520019D01*
X84105935Y2520019D01*
X84240451Y2520019D01*
X84329430Y2526026D01*
X84369721Y2546418D01*
X84374968Y2565215D01*
X84349848Y2602022D01*
X84314707Y2610410D01*
X84274977Y2613213D01*
X84259622Y2629422D01*
X84269587Y2670740D01*
X84305818Y2748870D01*
X84329772Y2796826D01*
X84371404Y2884352D01*
X84398760Y2950760D01*
X84405098Y2974452D01*
X84378362Y2991771D01*
X84311573Y3001403D01*
X84284576Y3002107D01*
X84200774Y2994644D01*
X84166242Y2969904D01*
X84164054Y2956911D01*
X84189174Y2920104D01*
X84224315Y2911715D01*
X84277180Y2897418D01*
X84275577Y2858672D01*
X84256361Y2834883D01*
X84228872Y2792079D01*
X84190014Y2714605D01*
X84167041Y2663139D01*
X84105935Y2520019D01*
X83633450Y2520019D01*
X83662955Y2538965D01*
X83684470Y2601627D01*
X83687071Y2618888D01*
X83925328Y2618888D01*
X83925955Y2553211D01*
X83937198Y2526192D01*
X83955968Y2525786D01*
X83985275Y2565414D01*
X84010736Y2661544D01*
X84025199Y2756601D01*
X84035785Y2865210D01*
X84038637Y2949207D01*
X84033261Y2991938D01*
X84032230Y2993322D01*
X83998778Y2999119D01*
X83969984Y2946832D01*
X83946622Y2838516D01*
X83934219Y2733728D01*
X83925328Y2618888D01*
X83687071Y2618888D01*
X83699474Y2701216D01*
X83714117Y2804243D01*
X83733207Y2862364D01*
X83763804Y2890880D01*
X83791362Y2900331D01*
X83852388Y2928659D01*
X83859767Y2960653D01*
X83817983Y2984101D01*
X83758879Y2988799D01*
X83685654Y2982669D01*
X83644023Y2972453D01*
X83642279Y2971052D01*
X83633411Y2936229D01*
X83621865Y2857572D01*
X83609980Y2751298D01*
X83608738Y2738465D01*
X83599676Y2623990D01*
X83437862Y2623990D01*
X83437116Y2624604D01*
X83420732Y2703524D01*
X83416750Y2753530D01*
X83413846Y2846005D01*
X83422223Y2893287D01*
X83446791Y2910109D01*
X83469478Y2911715D01*
X83519789Y2930188D01*
X83531314Y2956911D01*
X83507195Y2996857D01*
X83486118Y3002107D01*
X83446172Y3026225D01*
X83440922Y3047303D01*
X83423872Y3087162D01*
X83386132Y3087006D01*
X83347823Y3051161D01*
X83335811Y3024705D01*
X83326282Y2963844D01*
X83321307Y2868500D01*
X83320705Y2758536D01*
X83183099Y2758536D01*
X83184239Y2786490D01*
X83182218Y2883619D01*
X83170265Y2938134D01*
X83140817Y2967632D01*
X83098801Y2985324D01*
X83013125Y2991512D01*
X82949482Y2944135D01*
X82910473Y2846669D01*
X82898574Y2717551D01*
X82769964Y2717551D01*
X82777993Y2818900D01*
X82773319Y2913840D01*
X82764677Y2950691D01*
X82742939Y2972556D01*
X82695029Y2983416D01*
X82607871Y2987255D01*
X82530318Y2987847D01*
X82297649Y2988718D01*
X82280416Y2852292D01*
X82265936Y2742672D01*
X82251343Y2639581D01*
X82248078Y2617943D01*
X82244859Y2546977D01*
X82053710Y2546977D01*
X82070162Y2554908D01*
X82098407Y2586984D01*
X82129322Y2665555D01*
X82144545Y2779257D01*
X82145312Y2812389D01*
X82142362Y2906369D01*
X82128901Y2957051D01*
X82098007Y2981289D01*
X82072792Y2989030D01*
X81975439Y2989390D01*
X81903968Y2936562D01*
X81859717Y2832392D01*
X81844022Y2678729D01*
X81844007Y2672931D01*
X81642931Y2672931D01*
X81644233Y2678204D01*
X81658859Y2763636D01*
X81662812Y2825342D01*
X81682949Y2895968D01*
X81723485Y2920446D01*
X81771740Y2947849D01*
X81781322Y2981721D01*
X81748453Y3001593D01*
X81738550Y3002107D01*
X81698604Y3026225D01*
X81693354Y3047303D01*
X81669236Y3087249D01*
X81648159Y3092498D01*
X81608212Y3068380D01*
X81602963Y3047303D01*
X81590709Y3007152D01*
X81580365Y3002107D01*
X81571806Y2974846D01*
X81565495Y2904486D01*
X81561863Y2808162D01*
X81561336Y2703009D01*
X81422467Y2703009D01*
X81429397Y2755804D01*
X81437829Y2828856D01*
X81445849Y2929088D01*
X81440971Y2982456D01*
X81421428Y3001323D01*
X81413049Y3002107D01*
X81376550Y2973956D01*
X81349139Y2896819D01*
X81333891Y2781670D01*
X81331788Y2712101D01*
X81324850Y2641498D01*
X81297069Y2613595D01*
X81268017Y2610410D01*
X81234226Y2614327D01*
X81217331Y2635027D01*
X81214396Y2685938D01*
X81222488Y2780484D01*
X81225220Y2806259D01*
X81234445Y2913972D01*
X81232191Y2974274D01*
X81217067Y2999164D01*
X81202542Y3002107D01*
X81168616Y2973795D01*
X81142126Y2895733D01*
X81125584Y2778230D01*
X81121207Y2668161D01*
X80993024Y2668161D01*
X80989580Y2705222D01*
X80978831Y2827748D01*
X80971802Y2945612D01*
X80970223Y3006527D01*
X80964449Y3084084D01*
X80953440Y3100482D01*
X83964164Y3100482D01*
X83974047Y3081636D01*
X84021948Y3062051D01*
X84063817Y3080059D01*
X84073663Y3107563D01*
X84050456Y3147530D01*
X84030245Y3152759D01*
X83980927Y3136079D01*
X83964164Y3100482D01*
X80953440Y3100482D01*
X80942077Y3117406D01*
X80912896Y3122629D01*
X80877633Y3109350D01*
X80845499Y3062566D01*
X80810480Y2971853D01*
X80791841Y2912814D01*
X80744788Y2753338D01*
X80716264Y2642616D01*
X80705195Y2572422D01*
X80415639Y2572422D01*
X80418125Y2583620D01*
X80429405Y2664149D01*
X80441297Y2770819D01*
X80442013Y2778029D01*
X80462989Y2990843D01*
X80333324Y2988942D01*
X80244741Y2981032D01*
X80193843Y2953947D01*
X80165558Y2911715D01*
X80137923Y2819295D01*
X80127241Y2704188D01*
X80011824Y2704188D01*
X80019614Y2772279D01*
X80020752Y2783661D01*
X80030152Y2898510D01*
X80029406Y2965402D01*
X80017307Y2995975D01*
X79998135Y3002107D01*
X79967183Y2973914D01*
X79941489Y2896958D01*
X79923531Y2782672D01*
X79915784Y2642489D01*
X79915656Y2621270D01*
X79675061Y2621270D01*
X79677355Y2629697D01*
X79687258Y2700598D01*
X79701734Y2803082D01*
X79720630Y2860849D01*
X79751274Y2889375D01*
X79781541Y2899712D01*
X79845414Y2928538D01*
X79855883Y2961054D01*
X79817856Y2985744D01*
X79742405Y2991536D01*
X79675076Y2984287D01*
X79639150Y2962824D01*
X79620859Y2910943D01*
X79609458Y2835061D01*
X79592390Y2688561D01*
X79588142Y2592788D01*
X79413700Y2592788D01*
X79407375Y2601565D01*
X79358242Y2610410D01*
X79299174Y2624534D01*
X79282915Y2670671D01*
X79294712Y2712205D01*
X79340764Y2728963D01*
X79388372Y2730932D01*
X79459597Y2736463D01*
X79488771Y2761773D01*
X79493829Y2808239D01*
X79475404Y2915952D01*
X79426677Y2981425D01*
X79357470Y2999213D01*
X79277605Y2963873D01*
X79252785Y2941846D01*
X79215244Y2873558D01*
X79194522Y2775622D01*
X79192123Y2672081D01*
X79057602Y2672081D01*
X79071086Y2773747D01*
X79085742Y2877464D01*
X79089758Y2904183D01*
X79092955Y2975205D01*
X79070480Y3001304D01*
X79061655Y3002107D01*
X79038911Y2994840D01*
X79020558Y2966513D01*
X79003794Y2907341D01*
X78985819Y2807537D01*
X78964645Y2663139D01*
X78955729Y2575227D01*
X78821999Y2575227D01*
X78830061Y2598637D01*
X78846519Y2710163D01*
X78847073Y2715283D01*
X78858327Y2846697D01*
X78854300Y2929239D01*
X78829514Y2973497D01*
X78778490Y2990058D01*
X78704906Y2989998D01*
X78574849Y2983398D01*
X78554891Y2834567D01*
X78537800Y2688831D01*
X78533464Y2593601D01*
X78358547Y2593601D01*
X78352808Y2601565D01*
X78303675Y2610410D01*
X78244775Y2624994D01*
X78228348Y2652383D01*
X78255559Y2699336D01*
X78328193Y2726720D01*
X78381465Y2730932D01*
X78426735Y2749416D01*
X78439262Y2808239D01*
X78420837Y2915952D01*
X78372110Y2981425D01*
X78302903Y2999213D01*
X78223038Y2963873D01*
X78198218Y2941846D01*
X78160677Y2873558D01*
X78139955Y2775622D01*
X78137556Y2672081D01*
X78009828Y2672081D01*
X78014011Y2708250D01*
X78028579Y2823166D01*
X78037297Y2885009D01*
X78053953Y2993889D01*
X77928240Y2993889D01*
X77823801Y2978336D01*
X77757656Y2927324D01*
X77725288Y2834330D01*
X77721993Y2696010D01*
X77729336Y2602979D01*
X77743359Y2555307D01*
X77772757Y2538125D01*
X77815331Y2536371D01*
X77875676Y2528723D01*
X77892281Y2495177D01*
X77890658Y2476110D01*
X77857747Y2423064D01*
X77798989Y2405028D01*
X77730515Y2386016D01*
X77719337Y2352065D01*
X75261003Y2352065D01*
X75256522Y2427168D01*
X75228297Y2535084D01*
X75486474Y2535084D01*
X75501539Y2520019D01*
X75516605Y2535084D01*
X75501539Y2550149D01*
X75486474Y2535084D01*
X75228297Y2535084D01*
X75204655Y2625476D01*
X75546735Y2625476D01*
X75561800Y2610410D01*
X75565048Y2613658D01*
X77057630Y2613658D01*
X77059478Y2551357D01*
X77073497Y2524377D01*
X77091524Y2520019D01*
X77128075Y2548195D01*
X77131748Y2561321D01*
X77269646Y2561321D01*
X77282188Y2526076D01*
X77305355Y2520019D01*
X77345032Y2548090D01*
X77367841Y2617943D01*
X77382281Y2719891D01*
X77391804Y2806001D01*
X77415944Y2882246D01*
X77456858Y2906976D01*
X77486958Y2907805D01*
X77502220Y2887401D01*
X77505367Y2833320D01*
X77499121Y2733114D01*
X77497991Y2718918D01*
X77491894Y2607666D01*
X77496819Y2545322D01*
X77514062Y2521325D01*
X77522386Y2520019D01*
X77543326Y2527789D01*
X77560442Y2557967D01*
X77576707Y2620855D01*
X77595094Y2726756D01*
X77609223Y2821003D01*
X77606224Y2916844D01*
X77560200Y2972812D01*
X77466836Y2993535D01*
X77448049Y2993889D01*
X77370526Y2990056D01*
X77333201Y2967185D01*
X77316041Y2908223D01*
X77311323Y2877476D01*
X77294741Y2764236D01*
X77277604Y2647441D01*
X77276590Y2640541D01*
X77269646Y2561321D01*
X77131748Y2561321D01*
X77152014Y2633748D01*
X77154092Y2648074D01*
X77177640Y2827560D01*
X77192299Y2955795D01*
X77198271Y3041099D01*
X77195756Y3091792D01*
X77188776Y3107563D01*
X79011741Y3107563D01*
X79032660Y3073717D01*
X79075044Y3070407D01*
X79081405Y3075634D01*
X79984438Y3075634D01*
X80007852Y3063883D01*
X80042706Y3093175D01*
X80067054Y3139655D01*
X80088691Y3200827D01*
X80096439Y3230047D01*
X80074202Y3243022D01*
X80031849Y3239279D01*
X80005917Y3222639D01*
X80005636Y3220553D01*
X79998200Y3176122D01*
X79987056Y3130161D01*
X79984438Y3075634D01*
X79081405Y3075634D01*
X79108334Y3097763D01*
X79111257Y3107151D01*
X79091815Y3136911D01*
X79064469Y3147023D01*
X79019660Y3135272D01*
X79011741Y3107563D01*
X77188776Y3107563D01*
X77184956Y3116194D01*
X77166070Y3122626D01*
X77165541Y3122629D01*
X77139977Y3113160D01*
X77119617Y3078983D01*
X77102313Y3011443D01*
X77085919Y2901885D01*
X77068285Y2741654D01*
X77066459Y2723400D01*
X77057630Y2613658D01*
X75565048Y2613658D01*
X75576866Y2625476D01*
X75561800Y2640541D01*
X75546735Y2625476D01*
X75204655Y2625476D01*
X75203226Y2630938D01*
X75186492Y2672633D01*
X75584253Y2672633D01*
X75588374Y2670671D01*
X75615871Y2691883D01*
X75622061Y2700802D01*
X75629739Y2728971D01*
X75625618Y2730932D01*
X75598121Y2709721D01*
X75591931Y2700802D01*
X75584253Y2672633D01*
X75186492Y2672633D01*
X75144954Y2776128D01*
X75185169Y2776128D01*
X75200234Y2761063D01*
X75215300Y2776128D01*
X75637127Y2776128D01*
X75652192Y2761063D01*
X75667257Y2776128D01*
X75652192Y2791193D01*
X75637127Y2776128D01*
X75215300Y2776128D01*
X75200234Y2791193D01*
X75185169Y2776128D01*
X75144954Y2776128D01*
X75108675Y2866520D01*
X75305691Y2866520D01*
X75320756Y2851454D01*
X75335822Y2866520D01*
X75320756Y2881585D01*
X75305691Y2866520D01*
X75108675Y2866520D01*
X75107282Y2869991D01*
X75080974Y2926781D01*
X75727518Y2926781D01*
X75742583Y2911715D01*
X75757648Y2926781D01*
X75742583Y2941846D01*
X75727518Y2926781D01*
X75080974Y2926781D01*
X75078945Y2931161D01*
X75066763Y2956911D01*
X75365952Y2956911D01*
X75381017Y2941846D01*
X75396083Y2956911D01*
X75381017Y2971976D01*
X75365952Y2956911D01*
X75066763Y2956911D01*
X75002621Y3092498D01*
X74265307Y3092498D01*
X74061701Y3091510D01*
X73879640Y3088733D01*
X73727278Y3084446D01*
X73612770Y3078930D01*
X73544270Y3072465D01*
X73527992Y3067178D01*
X73541614Y3032417D01*
X73578795Y2955845D01*
X73634014Y2848430D01*
X73701749Y2721141D01*
X73708701Y2708290D01*
X73889409Y2374721D01*
X73708701Y2070387D01*
X73638117Y1950946D01*
X73580434Y1852258D01*
X73541700Y1784740D01*
X73527950Y1758872D01*
X72783044Y1758872D01*
X72815406Y1790666D01*
X72941889Y1914648D01*
X73063048Y2032912D01*
X73167883Y2134754D01*
X73245395Y2209471D01*
X73267058Y2230097D01*
X73382755Y2339471D01*
X73261646Y2482473D01*
X73197067Y2554578D01*
X73100418Y2657279D01*
X72982745Y2779071D01*
X72855094Y2908450D01*
X72796794Y2966621D01*
X72453051Y3307766D01*
X72462703Y3154936D01*
X72472354Y3002107D01*
X71968204Y2998537D01*
X71798187Y2997608D01*
X71648216Y2997307D01*
X71529114Y2997615D01*
X71451708Y2998512D01*
X71427935Y2999503D01*
X71403059Y2979836D01*
X71160057Y2979836D01*
X71158580Y2987042D01*
X71137194Y3026686D01*
X71129395Y3032237D01*
X71118862Y3007633D01*
X71117554Y2987042D01*
X70183509Y2987042D01*
X70183509Y3089443D01*
X70674132Y3089443D01*
X70680454Y3059252D01*
X70682599Y3053536D01*
X70706468Y3016640D01*
X70720038Y3016375D01*
X70716658Y3048249D01*
X70699466Y3070403D01*
X70674132Y3089443D01*
X70183509Y3089443D01*
X70183509Y3641101D01*
X70425998Y3641101D01*
X70429973Y3582077D01*
X70445980Y3525832D01*
X70471781Y3466176D01*
X70484630Y3439378D01*
X70542237Y3343185D01*
X70609784Y3261296D01*
X70637789Y3236669D01*
X70691388Y3190169D01*
X70712613Y3157566D01*
X70711821Y3154424D01*
X70725765Y3136533D01*
X70750667Y3131568D01*
X70803634Y3123975D01*
X70896770Y3107604D01*
X71011215Y3085793D01*
X71027162Y3082635D01*
X71159859Y3059599D01*
X71290301Y3042465D01*
X71390005Y3034957D01*
X71526869Y3032237D01*
X71890559Y3672510D01*
X72185312Y4191421D01*
X72516720Y4191421D01*
X72518857Y4007174D01*
X72566171Y3828505D01*
X72659759Y3665479D01*
X72800717Y3528161D01*
X72801253Y3527768D01*
X72989014Y3424612D01*
X73187908Y3379984D01*
X73393057Y3394319D01*
X73580018Y3458473D01*
X73739032Y3565103D01*
X73859339Y3708843D01*
X73879234Y3751485D01*
X74284397Y3751485D01*
X74424361Y3833508D01*
X74503028Y3874136D01*
X74557903Y3892193D01*
X74573742Y3888179D01*
X74607285Y3813369D01*
X74656391Y3728558D01*
X74710769Y3648570D01*
X74760132Y3588229D01*
X74794193Y3562357D01*
X74799329Y3563140D01*
X74818734Y3565412D01*
X74811962Y3549996D01*
X74807424Y3514550D01*
X74826442Y3453170D01*
X74872089Y3359062D01*
X74947438Y3225434D01*
X74995162Y3145088D01*
X75099309Y2971699D01*
X75149223Y3032237D01*
X75465945Y3032237D01*
X75487841Y3054824D01*
X75538421Y3116412D01*
X75610280Y3207742D01*
X75696013Y3319555D01*
X75700904Y3326010D01*
X75788306Y3439894D01*
X75863439Y3534927D01*
X75869310Y3542018D01*
X78650175Y3542018D01*
X78898752Y3550770D01*
X79021227Y3556269D01*
X79095974Y3564644D01*
X79135520Y3579609D01*
X79152393Y3604878D01*
X79156956Y3627314D01*
X79157756Y3665937D01*
X79136896Y3686196D01*
X79080694Y3693957D01*
X78998771Y3695108D01*
X78830958Y3695108D01*
X78830958Y3800565D01*
X78830958Y3906021D01*
X78981611Y3906021D01*
X79071021Y3908464D01*
X79115626Y3920927D01*
X79130836Y3951117D01*
X79132263Y3981348D01*
X79130637Y3996413D01*
X79328051Y3996413D01*
X79328764Y3845084D01*
X79330761Y3715546D01*
X79333755Y3619669D01*
X79337460Y3569325D01*
X79338427Y3565330D01*
X79372514Y3549637D01*
X79413813Y3550265D01*
X79454453Y3566001D01*
X79477984Y3608811D01*
X79492196Y3694235D01*
X79493829Y3709912D01*
X79513758Y3817801D01*
X79546446Y3867261D01*
X79592451Y3858294D01*
X79652329Y3790906D01*
X79701281Y3711666D01*
X79762829Y3613177D01*
X79813094Y3560859D01*
X79862104Y3544516D01*
X79865696Y3544456D01*
X79930596Y3551800D01*
X79952499Y3579576D01*
X79932364Y3636398D01*
X79884336Y3711902D01*
X79833858Y3788867D01*
X79801523Y3845083D01*
X79795134Y3861918D01*
X79816416Y3892810D01*
X79867885Y3939498D01*
X79870460Y3941535D01*
X79921261Y3996165D01*
X79942806Y4068734D01*
X79943561Y4085308D01*
X80186830Y4085308D01*
X80190330Y3893764D01*
X80204102Y3754061D01*
X80233050Y3658018D01*
X80282081Y3597453D01*
X80356099Y3564187D01*
X80460012Y3550036D01*
X80509053Y3547951D01*
X80622000Y3560098D01*
X80712158Y3610601D01*
X80719660Y3616910D01*
X80756033Y3650847D01*
X80780527Y3686590D01*
X80795999Y3736677D01*
X80805308Y3813648D01*
X80811312Y3930042D01*
X80814659Y4028887D01*
X81302263Y4028887D01*
X81306449Y3892657D01*
X81323309Y3770085D01*
X81348431Y3692057D01*
X81400533Y3620741D01*
X81460738Y3575220D01*
X81461421Y3574941D01*
X81561875Y3552653D01*
X81688034Y3547784D01*
X81807901Y3560382D01*
X81858492Y3574366D01*
X81900092Y3593825D01*
X81922785Y3622491D01*
X81931177Y3675777D01*
X81929871Y3769096D01*
X81928247Y3807877D01*
X81925832Y3863026D01*
X82119752Y3863026D01*
X82120322Y3732989D01*
X82123260Y3635801D01*
X82128346Y3584304D01*
X82129167Y3581599D01*
X82167576Y3552812D01*
X82212970Y3549875D01*
X82243972Y3557741D01*
X82264280Y3578306D01*
X82276709Y3622902D01*
X82284072Y3702860D01*
X82289180Y3829512D01*
X82290160Y3860826D01*
X82299422Y4162131D01*
X82428486Y3860826D01*
X82485854Y3728507D01*
X82527416Y3641642D01*
X82560893Y3590208D01*
X82594007Y3564180D01*
X82634479Y3553537D01*
X82667801Y3550169D01*
X82778052Y3540818D01*
X82778052Y3959442D01*
X82776904Y4112208D01*
X82773756Y4242496D01*
X82769047Y4338897D01*
X82764473Y4378997D01*
X82928704Y4378997D01*
X82936742Y4334899D01*
X82958248Y4247108D01*
X82989311Y4129543D01*
X83026019Y3996120D01*
X83064461Y3860757D01*
X83100725Y3737372D01*
X83130900Y3639883D01*
X83151073Y3582208D01*
X83154862Y3574296D01*
X83197994Y3551487D01*
X83268421Y3545400D01*
X83335598Y3555859D01*
X83366183Y3575535D01*
X83385236Y3621312D01*
X83414031Y3708092D01*
X83449055Y3823214D01*
X83486795Y3954014D01*
X83523740Y4087830D01*
X83556377Y4212000D01*
X83581194Y4313862D01*
X83594679Y4380752D01*
X83595015Y4400541D01*
X83553617Y4407456D01*
X83502294Y4407322D01*
X83468822Y4401417D01*
X83443132Y4381169D01*
X83420564Y4336252D01*
X83396461Y4256340D01*
X83366164Y4131109D01*
X83354284Y4079272D01*
X83323007Y3949083D01*
X83294656Y3843881D01*
X83272640Y3775560D01*
X83261433Y3755369D01*
X83247296Y3782744D01*
X83225542Y3856001D01*
X83199903Y3961838D01*
X83187813Y4017891D01*
X83153007Y4179480D01*
X83124664Y4290907D01*
X83098600Y4361326D01*
X83070630Y4399887D01*
X83036570Y4415743D01*
X83004776Y4418240D01*
X82947361Y4404902D01*
X82928704Y4378997D01*
X82764473Y4378997D01*
X82763218Y4390003D01*
X82761242Y4394876D01*
X82721976Y4401895D01*
X82683943Y4395867D01*
X82655771Y4383961D01*
X82638692Y4358274D01*
X82630664Y4306868D01*
X82629645Y4217804D01*
X82632959Y4097772D01*
X82635546Y3975766D01*
X82634674Y3880305D01*
X82630617Y3824545D01*
X82627069Y3815562D01*
X82609650Y3841478D01*
X82574259Y3911664D01*
X82526342Y4014863D01*
X82480515Y4118549D01*
X82349355Y4421468D01*
X82239801Y4412321D01*
X82130246Y4403174D01*
X82121769Y4013072D01*
X82119752Y3863026D01*
X81925832Y3863026D01*
X81919333Y4011478D01*
X81776213Y4020662D01*
X81689067Y4023110D01*
X81646534Y4012299D01*
X81633510Y3983036D01*
X81633093Y3971447D01*
X81658882Y3916337D01*
X81693354Y3897291D01*
X81739434Y3864853D01*
X81753600Y3791828D01*
X81753615Y3788320D01*
X81747915Y3725517D01*
X81718547Y3699924D01*
X81649219Y3695108D01*
X81570708Y3706739D01*
X81520242Y3747774D01*
X81492648Y3827430D01*
X81482756Y3954920D01*
X81482441Y3992280D01*
X81490721Y4126764D01*
X81521056Y4211073D01*
X81581686Y4253687D01*
X81680855Y4263086D01*
X81741285Y4258632D01*
X81833391Y4251335D01*
X81882151Y4257530D01*
X81903911Y4282427D01*
X81911677Y4312967D01*
X81908994Y4364310D01*
X81871542Y4396476D01*
X81790858Y4413107D01*
X81667873Y4417828D01*
X81527174Y4397208D01*
X81412038Y4339546D01*
X81337415Y4252540D01*
X81334356Y4246125D01*
X81311362Y4154726D01*
X81302263Y4028887D01*
X80814659Y4028887D01*
X80814853Y4034627D01*
X80825813Y4379891D01*
X80748074Y4394752D01*
X80684530Y4400533D01*
X80654561Y4393839D01*
X80647968Y4358911D01*
X80642727Y4277225D01*
X80639498Y4162282D01*
X80638787Y4070407D01*
X80635840Y3910352D01*
X80624324Y3801726D01*
X80600226Y3735871D01*
X80559534Y3704125D01*
X80498235Y3697831D01*
X80467359Y3700463D01*
X80382678Y3710173D01*
X80374061Y4040501D01*
X80368075Y4197731D01*
X80357519Y4304339D01*
X80338962Y4369950D01*
X80308971Y4404192D01*
X80264114Y4416692D01*
X80239558Y4417778D01*
X80216389Y4412162D01*
X80201147Y4388046D01*
X80192216Y4335254D01*
X80187984Y4243611D01*
X80186837Y4102942D01*
X80186830Y4085308D01*
X79943561Y4085308D01*
X79945786Y4134187D01*
X79929994Y4254890D01*
X79879019Y4339347D01*
X79787463Y4390984D01*
X79649931Y4413228D01*
X79507639Y4412398D01*
X79328111Y4403174D01*
X79328051Y3996413D01*
X79130637Y3996413D01*
X79127460Y4025844D01*
X79102835Y4048172D01*
X79043066Y4055899D01*
X78979701Y4056674D01*
X78827140Y4056674D01*
X78836582Y4154598D01*
X78845332Y4212585D01*
X78867979Y4241485D01*
X78921077Y4251422D01*
X78996676Y4252522D01*
X79086086Y4254964D01*
X79130691Y4267428D01*
X79145901Y4297618D01*
X79147328Y4327848D01*
X79144820Y4364774D01*
X79129225Y4387186D01*
X79088434Y4398827D01*
X79010339Y4403438D01*
X78898752Y4404667D01*
X78650175Y4406160D01*
X78650175Y3974089D01*
X78650175Y3542018D01*
X75869310Y3542018D01*
X75878766Y3553440D01*
X77896913Y3553440D01*
X77979772Y3556480D01*
X78033125Y3564798D01*
X78059194Y3596050D01*
X78070453Y3667517D01*
X78071713Y3683831D01*
X78080136Y3760037D01*
X78102199Y3798500D01*
X78155132Y3815663D01*
X78218208Y3823631D01*
X78349060Y3854805D01*
X78431828Y3917910D01*
X78454472Y3974089D01*
X78473154Y4020439D01*
X78480981Y4120137D01*
X78475760Y4220598D01*
X78454218Y4285435D01*
X78407533Y4338817D01*
X78398180Y4347017D01*
X78342503Y4386435D01*
X78278259Y4408190D01*
X78185772Y4417082D01*
X78106146Y4418240D01*
X77896913Y4418240D01*
X77896913Y3985840D01*
X77896913Y3553440D01*
X75878766Y3553440D01*
X75918478Y3601409D01*
X75945600Y3629642D01*
X75945964Y3629825D01*
X75966962Y3664523D01*
X75968562Y3680043D01*
X75990382Y3724619D01*
X76003212Y3731767D01*
X76027120Y3764994D01*
X76024880Y3782263D01*
X76003592Y3777050D01*
X75957538Y3730303D01*
X75894905Y3650940D01*
X75862175Y3605061D01*
X75790601Y3502872D01*
X75729438Y3417612D01*
X75688691Y3363152D01*
X75680890Y3353695D01*
X75643312Y3306204D01*
X75593069Y3236046D01*
X75540394Y3158530D01*
X75495523Y3088959D01*
X75468690Y3042641D01*
X75465945Y3032237D01*
X75149223Y3032237D01*
X75205006Y3099892D01*
X75289113Y3201037D01*
X75383300Y3313079D01*
X75426213Y3363673D01*
X75515053Y3469777D01*
X75609279Y3585007D01*
X75649199Y3634847D01*
X75720904Y3723548D01*
X75787449Y3802992D01*
X75817423Y3837151D01*
X75861017Y3893791D01*
X75878170Y3932564D01*
X75901832Y3967586D01*
X75913209Y3972940D01*
X75916124Y3985840D01*
X75920294Y4004297D01*
X75899698Y4076856D01*
X75855594Y4180663D01*
X75792152Y4305763D01*
X75723351Y4426039D01*
X75655107Y4539295D01*
X75755164Y4622826D01*
X75855221Y4706357D01*
X75286684Y4868193D01*
X75109534Y4918745D01*
X74951428Y4964103D01*
X74821835Y5001531D01*
X74730222Y5028292D01*
X74686057Y5041652D01*
X74684484Y5042192D01*
X74663386Y5019037D01*
X74630750Y4942591D01*
X74588553Y4818292D01*
X74538773Y4651576D01*
X74526581Y4608244D01*
X74477602Y4432807D01*
X74428862Y4258999D01*
X74385151Y4103841D01*
X74351256Y3984359D01*
X74343370Y3956808D01*
X74284397Y3751485D01*
X73879234Y3751485D01*
X73938619Y3878767D01*
X73974554Y4063952D01*
X73964824Y4253473D01*
X73907110Y4436405D01*
X73817956Y4579351D01*
X73784548Y4614351D01*
X73750916Y4617133D01*
X73693441Y4587875D01*
X73680716Y4580388D01*
X73618723Y4531887D01*
X73588385Y4484866D01*
X73587792Y4479537D01*
X73580573Y4449901D01*
X73563572Y4466866D01*
X73542067Y4518688D01*
X73521339Y4593620D01*
X73510385Y4651751D01*
X73489354Y4734855D01*
X73460639Y4777273D01*
X73451756Y4779805D01*
X73405603Y4803609D01*
X73397210Y4817469D01*
X73376080Y4836809D01*
X73347210Y4809936D01*
X73315126Y4782579D01*
X73297209Y4802403D01*
X73256244Y4830472D01*
X73176184Y4838021D01*
X73074248Y4825984D01*
X72967654Y4795297D01*
X72938013Y4782899D01*
X72770407Y4676985D01*
X72643592Y4536391D01*
X72558664Y4371181D01*
X72516720Y4191421D01*
X72185312Y4191421D01*
X72254248Y4312783D01*
X71904347Y4331295D01*
X71761299Y4338990D01*
X71637557Y4345880D01*
X71547212Y4351167D01*
X71506085Y4353893D01*
X71471058Y4380883D01*
X71415925Y4451235D01*
X71348145Y4554726D01*
X71299838Y4636686D01*
X71232828Y4753622D01*
X71175579Y4851026D01*
X71135246Y4916869D01*
X71120420Y4938284D01*
X71098217Y4922816D01*
X71053661Y4863786D01*
X70993211Y4770562D01*
X70923323Y4652511D01*
X70923058Y4652044D01*
X70780146Y4400246D01*
X70664932Y4194557D01*
X70575178Y4028787D01*
X70508645Y3896747D01*
X70463096Y3792245D01*
X70436293Y3709093D01*
X70425998Y3641101D01*
X70183509Y3641101D01*
X70183509Y4132000D01*
X70183509Y5956971D01*
X71387059Y5956971D01*
X71407197Y5873074D01*
X71422558Y5813733D01*
X71450566Y5709801D01*
X71487566Y5574698D01*
X71529899Y5421846D01*
X71540892Y5382415D01*
X71585406Y5222531D01*
X71626957Y5072502D01*
X71661391Y4947382D01*
X71684554Y4862223D01*
X71687470Y4851305D01*
X71720490Y4726957D01*
X72330353Y4903995D01*
X72513511Y4957231D01*
X72677557Y5005039D01*
X72813487Y5044785D01*
X72912291Y5073832D01*
X72964963Y5089546D01*
X72970463Y5091280D01*
X72968004Y5110074D01*
X72923140Y5143251D01*
X72910318Y5150477D01*
X72837984Y5189986D01*
X72792258Y5223153D01*
X72773220Y5261024D01*
X72780953Y5314644D01*
X72815538Y5395057D01*
X72877057Y5513308D01*
X72913509Y5581731D01*
X72982246Y5708263D01*
X73042364Y5813835D01*
X73087601Y5887798D01*
X73111694Y5919500D01*
X73112278Y5919805D01*
X73123593Y5948826D01*
X73119640Y5957468D01*
X73124591Y5983337D01*
X73134518Y5985025D01*
X73162512Y6009524D01*
X73166427Y6031999D01*
X73151973Y6063294D01*
X73136641Y6060564D01*
X73119673Y6065484D01*
X73125361Y6090380D01*
X73132865Y6108063D01*
X73142022Y6116733D01*
X73156418Y6111377D01*
X73179639Y6086980D01*
X73215272Y6038526D01*
X73266903Y5961002D01*
X73338119Y5849392D01*
X73432505Y5698683D01*
X73553649Y5503859D01*
X73611753Y5410277D01*
X73996655Y4790333D01*
X74181106Y5111606D01*
X76253297Y5111606D01*
X76275834Y4979079D01*
X76319681Y4862158D01*
X76379025Y4782338D01*
X76381826Y4780074D01*
X76472373Y4738598D01*
X76595328Y4719587D01*
X76726532Y4724737D01*
X76825319Y4748929D01*
X76865849Y4768519D01*
X76889008Y4798678D01*
X76899623Y4854461D01*
X76902521Y4950923D01*
X76902607Y4989973D01*
X76902607Y5201632D01*
X76751955Y5201632D01*
X76661329Y5198320D01*
X76616150Y5184614D01*
X76601792Y5154861D01*
X76601302Y5143402D01*
X76626558Y5088060D01*
X76661563Y5066045D01*
X76709639Y5026455D01*
X76721824Y4958558D01*
X76715639Y4898950D01*
X76684887Y4874662D01*
X76617427Y4870197D01*
X76538124Y4882184D01*
X76487461Y4924241D01*
X76460228Y5005515D01*
X76451209Y5135152D01*
X76451111Y5161988D01*
X76455917Y5289447D01*
X76476236Y5367985D01*
X76522150Y5408696D01*
X76603740Y5422675D01*
X76687822Y5422486D01*
X76789735Y5422177D01*
X76846747Y5431495D01*
X76873976Y5454680D01*
X76882318Y5477057D01*
X76882184Y5480339D01*
X77100607Y5480339D01*
X77101928Y5423720D01*
X77103864Y5322047D01*
X77106138Y5190521D01*
X77108140Y5066045D01*
X77113520Y4719545D01*
X77188847Y4719545D01*
X77233552Y4724429D01*
X77255854Y4749356D01*
X77263459Y4809737D01*
X77264173Y4870197D01*
X77266821Y4959800D01*
X77279516Y5004508D01*
X77309381Y5019615D01*
X77334349Y5020849D01*
X77383620Y5007455D01*
X77427695Y4959343D01*
X77475086Y4870197D01*
X77519733Y4782745D01*
X77557986Y4737691D01*
X77605406Y4721314D01*
X77645954Y4719545D01*
X77957174Y4719545D01*
X78198218Y4719545D01*
X78620045Y4719545D01*
X78876154Y4719545D01*
X79000174Y4720236D01*
X79075864Y4724650D01*
X79115155Y4736296D01*
X79129978Y4758683D01*
X79132263Y4794871D01*
X79127961Y4838012D01*
X79105225Y4860475D01*
X79049308Y4868963D01*
X78966545Y4870197D01*
X78800828Y4870197D01*
X78800828Y4975654D01*
X78800828Y5081110D01*
X78951480Y5081110D01*
X79040891Y5083553D01*
X79085496Y5096016D01*
X79100705Y5126206D01*
X79102132Y5156437D01*
X79100870Y5167992D01*
X79287741Y5167992D01*
X79288071Y5018200D01*
X79290468Y4890186D01*
X79294552Y4795991D01*
X79299943Y4747659D01*
X79301116Y4744603D01*
X79339801Y4725655D01*
X79394256Y4719545D01*
X79471909Y4719545D01*
X79456937Y5005784D01*
X79452365Y5128663D01*
X79452307Y5225138D01*
X79456577Y5282163D01*
X79461009Y5292024D01*
X79480235Y5266203D01*
X79516894Y5196569D01*
X79565072Y5094861D01*
X79601418Y5013317D01*
X79657229Y4887049D01*
X79697704Y4805740D01*
X79731268Y4758969D01*
X79766345Y4736316D01*
X79811359Y4727361D01*
X79834285Y4725258D01*
X79945786Y4715907D01*
X79945786Y4719545D01*
X80458004Y4719545D01*
X80714113Y4719545D01*
X81151006Y4719545D01*
X81226332Y4719545D01*
X81301658Y4719545D01*
X81301804Y5028382D01*
X81301950Y5337219D01*
X81437391Y5036874D01*
X81492099Y4914829D01*
X81536219Y4815020D01*
X81564697Y4748970D01*
X81572832Y4728037D01*
X81599598Y4722716D01*
X81666452Y4719759D01*
X81693354Y4719545D01*
X81813876Y4719545D01*
X82024790Y4719545D01*
X82265834Y4719545D01*
X82385398Y4720387D01*
X82456992Y4725422D01*
X82492909Y4738408D01*
X82505436Y4763108D01*
X82506877Y4793296D01*
X82501439Y4836697D01*
X82475139Y4860189D01*
X82412998Y4871617D01*
X82348692Y4876155D01*
X82256694Y4883417D01*
X82209762Y4897786D01*
X82192752Y4928787D01*
X82190507Y4975654D01*
X82194592Y5030460D01*
X82217442Y5058473D01*
X82274956Y5070753D01*
X82333627Y5075229D01*
X82420508Y5084016D01*
X82462767Y5101731D01*
X82476046Y5137430D01*
X82476106Y5139203D01*
X82687660Y5139203D01*
X82687660Y4719545D01*
X82778052Y4719545D01*
X82831561Y4722836D01*
X82858245Y4743073D01*
X82867428Y4795801D01*
X82868443Y4870197D01*
X82871615Y4960558D01*
X82885081Y5005624D01*
X82914764Y5020204D01*
X82928713Y5020849D01*
X82983834Y4994621D01*
X83046696Y4913765D01*
X83071833Y4870631D01*
X83123813Y4783797D01*
X83166881Y4738602D01*
X83217123Y4721854D01*
X83255566Y4719979D01*
X83356449Y4719545D01*
X83291603Y4817469D01*
X83224548Y4922533D01*
X83190259Y4992912D01*
X83186406Y5042908D01*
X83210656Y5086820D01*
X83242180Y5120673D01*
X83254522Y5138090D01*
X83504313Y5138090D01*
X83522875Y4991342D01*
X83566979Y4862534D01*
X83634090Y4769884D01*
X83644623Y4761254D01*
X83707521Y4737768D01*
X83807567Y4724034D01*
X83922257Y4721266D01*
X84029086Y4730677D01*
X84066130Y4738535D01*
X84101054Y4752807D01*
X84121379Y4781516D01*
X84131003Y4838495D01*
X84133822Y4937575D01*
X84133924Y4979168D01*
X84133924Y5201632D01*
X83997391Y5201632D01*
X83899665Y5193488D01*
X83850005Y5166930D01*
X83842348Y5153396D01*
X83846910Y5104540D01*
X83882154Y5068322D01*
X83925715Y5067717D01*
X83925730Y5067726D01*
X83942556Y5051941D01*
X83957216Y5000930D01*
X83965294Y4939685D01*
X83962375Y4893198D01*
X83957991Y4885091D01*
X83920566Y4874944D01*
X83849437Y4870238D01*
X83841917Y4870197D01*
X83765637Y4880411D01*
X83723138Y4921211D01*
X83708723Y4953056D01*
X83694132Y5024128D01*
X83688345Y5124183D01*
X83690670Y5232744D01*
X83700412Y5329333D01*
X83716881Y5393473D01*
X83723988Y5404349D01*
X83764384Y5416595D01*
X83845971Y5425014D01*
X83933024Y5427581D01*
X84036021Y5429685D01*
X84093346Y5439218D01*
X84119533Y5461072D01*
X84128209Y5493286D01*
X84126257Y5534276D01*
X84110047Y5547464D01*
X84254446Y5547464D01*
X84267110Y5515277D01*
X84300982Y5442510D01*
X84349882Y5342261D01*
X84374968Y5292024D01*
X84438819Y5156479D01*
X84476069Y5051167D01*
X84492774Y4955679D01*
X84495490Y4885931D01*
X84496990Y4790952D01*
X84506854Y4741429D01*
X84533122Y4722562D01*
X84583837Y4719545D01*
X84585881Y4719545D01*
X84638254Y4722515D01*
X84665081Y4741494D01*
X84674905Y4791586D01*
X84676272Y4879323D01*
X84683577Y4980145D01*
X84709254Y5083163D01*
X84758954Y5207543D01*
X84796794Y5288326D01*
X84849601Y5398827D01*
X84890647Y5487204D01*
X84914059Y5540681D01*
X84917316Y5550374D01*
X84891162Y5559531D01*
X84830599Y5563198D01*
X84781046Y5557624D01*
X84745432Y5532262D01*
X84712694Y5474153D01*
X84676272Y5382415D01*
X84638765Y5289434D01*
X84607221Y5224188D01*
X84589587Y5201632D01*
X84569785Y5227443D01*
X84536755Y5294875D01*
X84500409Y5382415D01*
X84459431Y5481202D01*
X84426116Y5535666D01*
X84389198Y5558695D01*
X84342377Y5563198D01*
X84279931Y5558514D01*
X84254446Y5547464D01*
X84110047Y5547464D01*
X84096184Y5558743D01*
X84023990Y5575770D01*
X83993719Y5580531D01*
X83827133Y5584427D01*
X83689023Y5544721D01*
X83587387Y5464467D01*
X83553959Y5412546D01*
X83513829Y5284564D01*
X83504313Y5138090D01*
X83254522Y5138090D01*
X83301562Y5204475D01*
X83320299Y5308784D01*
X83320401Y5319611D01*
X83296538Y5442167D01*
X83225376Y5527856D01*
X83107550Y5576324D01*
X82943696Y5587222D01*
X82850250Y5579176D01*
X82687660Y5558862D01*
X82687660Y5139203D01*
X82476106Y5139203D01*
X82476747Y5158087D01*
X82471712Y5201623D01*
X82446414Y5223477D01*
X82385566Y5231028D01*
X82324093Y5231763D01*
X82234411Y5233595D01*
X82190547Y5244665D01*
X82178061Y5273330D01*
X82180973Y5314622D01*
X82191423Y5363313D01*
X82219002Y5389378D01*
X82279780Y5401628D01*
X82348692Y5406588D01*
X82441109Y5414444D01*
X82488247Y5429420D01*
X82505085Y5459362D01*
X82506877Y5489447D01*
X82504124Y5526029D01*
X82487669Y5547935D01*
X82445463Y5558862D01*
X82445224Y5558924D01*
X82364497Y5562757D01*
X82265834Y5563198D01*
X82024790Y5563198D01*
X82024790Y5141371D01*
X82024790Y4719545D01*
X81813876Y4719545D01*
X81813876Y5141371D01*
X81813876Y5563198D01*
X81719891Y5563198D01*
X81625905Y5563198D01*
X81638425Y5276959D01*
X81641922Y5154050D01*
X81641092Y5057563D01*
X81636244Y5000553D01*
X81631674Y4990719D01*
X81613100Y5016836D01*
X81578222Y5087336D01*
X81532591Y5190447D01*
X81496723Y5276959D01*
X81381042Y5563198D01*
X81266024Y5563198D01*
X81151006Y5563198D01*
X81151006Y5141371D01*
X81151006Y4719545D01*
X80714113Y4719545D01*
X80838133Y4720236D01*
X80913824Y4724650D01*
X80953115Y4736296D01*
X80967937Y4758683D01*
X80970223Y4794871D01*
X80965921Y4838012D01*
X80943185Y4860475D01*
X80887268Y4868963D01*
X80804505Y4870197D01*
X80638787Y4870197D01*
X80638787Y4975654D01*
X80638787Y5081110D01*
X80789440Y5081110D01*
X80878850Y5083553D01*
X80923455Y5096016D01*
X80938665Y5126206D01*
X80939381Y5141371D01*
X80940092Y5156437D01*
X80935208Y5201142D01*
X80910281Y5223444D01*
X80849900Y5231049D01*
X80789440Y5231763D01*
X80700257Y5233738D01*
X80655785Y5245880D01*
X80640479Y5277517D01*
X80638787Y5322154D01*
X80641570Y5373830D01*
X80659806Y5400726D01*
X80708329Y5410935D01*
X80801971Y5412546D01*
X80804505Y5412546D01*
X80899415Y5414501D01*
X80948834Y5424836D01*
X80967508Y5450253D01*
X80970223Y5487872D01*
X80967871Y5524348D01*
X80952863Y5546610D01*
X80913267Y5558166D01*
X80837153Y5562526D01*
X80714113Y5563198D01*
X80458004Y5563198D01*
X80458004Y5141371D01*
X80458004Y4719545D01*
X79945786Y4719545D01*
X79945786Y5139552D01*
X79945786Y5141371D01*
X79945786Y5563198D01*
X79871551Y5563198D01*
X79837410Y5560912D01*
X79815357Y5546622D01*
X79802239Y5509176D01*
X79794902Y5437425D01*
X79790190Y5320219D01*
X79788692Y5270303D01*
X79780068Y4977409D01*
X79658449Y5262771D01*
X79536829Y5548133D01*
X79413341Y5557228D01*
X79289853Y5566324D01*
X79287741Y5167992D01*
X79100870Y5167992D01*
X79097248Y5201142D01*
X79072321Y5223444D01*
X79011940Y5231049D01*
X78951480Y5231763D01*
X78862297Y5233738D01*
X78817825Y5245880D01*
X78802519Y5277517D01*
X78800828Y5322154D01*
X78803610Y5373830D01*
X78821847Y5400726D01*
X78870370Y5410935D01*
X78964011Y5412546D01*
X78966545Y5412546D01*
X79061455Y5414501D01*
X79110874Y5424836D01*
X79129548Y5450253D01*
X79132263Y5487872D01*
X79129911Y5524348D01*
X79114903Y5546610D01*
X79075307Y5558166D01*
X78999193Y5562526D01*
X78876154Y5563198D01*
X78620045Y5563198D01*
X78620045Y5141371D01*
X78620045Y4719545D01*
X78198218Y4719545D01*
X78317782Y4720387D01*
X78389377Y4725422D01*
X78425293Y4738408D01*
X78437820Y4763108D01*
X78439262Y4793296D01*
X78433823Y4836697D01*
X78407523Y4860189D01*
X78345382Y4871617D01*
X78281077Y4876155D01*
X78189078Y4883417D01*
X78142147Y4897786D01*
X78125137Y4928787D01*
X78122892Y4975654D01*
X78126976Y5030460D01*
X78149826Y5058473D01*
X78207340Y5070753D01*
X78266011Y5075229D01*
X78352989Y5084103D01*
X78395290Y5101926D01*
X78408497Y5137540D01*
X78408626Y5141371D01*
X78409131Y5156437D01*
X78402587Y5200628D01*
X78372564Y5223842D01*
X78303479Y5234921D01*
X78266011Y5237645D01*
X78179216Y5246349D01*
X78136993Y5263969D01*
X78123654Y5299768D01*
X78122892Y5322154D01*
X78128080Y5366428D01*
X78153651Y5390330D01*
X78214615Y5401874D01*
X78281077Y5406588D01*
X78373493Y5414444D01*
X78420631Y5429420D01*
X78437469Y5459362D01*
X78439262Y5489447D01*
X78436508Y5526029D01*
X78420054Y5547935D01*
X78377608Y5558924D01*
X78296881Y5562757D01*
X78198218Y5563198D01*
X77957174Y5563198D01*
X77957174Y5141371D01*
X77957174Y4719545D01*
X77645954Y4719545D01*
X77713631Y4723239D01*
X77745830Y4732264D01*
X77746261Y4733563D01*
X77731427Y4764625D01*
X77693155Y4830066D01*
X77655869Y4890115D01*
X77596713Y4987958D01*
X77570669Y5046290D01*
X77575324Y5074279D01*
X77605582Y5081110D01*
X77656696Y5107961D01*
X77675262Y5141371D01*
X77694922Y5176750D01*
X77716390Y5269832D01*
X77717228Y5369563D01*
X77693564Y5458299D01*
X77689915Y5465490D01*
X77623574Y5530200D01*
X77514586Y5571428D01*
X77377199Y5585560D01*
X77257781Y5575158D01*
X77164396Y5555982D01*
X77116892Y5533834D01*
X77101142Y5500191D01*
X77100607Y5480339D01*
X76882184Y5480339D01*
X76880265Y5527276D01*
X76837887Y5558885D01*
X76748313Y5574795D01*
X76643527Y5578178D01*
X76494233Y5564991D01*
X76388357Y5519904D01*
X76316825Y5434923D01*
X76270568Y5302050D01*
X76257886Y5238245D01*
X76253297Y5111606D01*
X74181106Y5111606D01*
X74191681Y5130025D01*
X74284333Y5284278D01*
X74361731Y5398607D01*
X74419986Y5467592D01*
X74446970Y5485916D01*
X74502369Y5492983D01*
X74601330Y5498582D01*
X74727155Y5501929D01*
X74801006Y5502526D01*
X74925760Y5504058D01*
X75024206Y5507850D01*
X75083425Y5513257D01*
X75094778Y5517191D01*
X75079842Y5547453D01*
X75039986Y5615943D01*
X74982637Y5710048D01*
X74957300Y5750702D01*
X74798027Y6004771D01*
X74666794Y6212709D01*
X74559238Y6379194D01*
X74470998Y6508902D01*
X74397711Y6606513D01*
X74335017Y6676704D01*
X74278554Y6724153D01*
X74223959Y6753538D01*
X74166872Y6769537D01*
X74102930Y6776827D01*
X74027772Y6780087D01*
X73996457Y6781200D01*
X73900042Y6781465D01*
X73835651Y6775000D01*
X73817303Y6763448D01*
X73807689Y6741721D01*
X73786516Y6738287D01*
X73744372Y6717941D01*
X73675016Y6664109D01*
X73592092Y6587600D01*
X73576175Y6571643D01*
X73493561Y6493774D01*
X73429995Y6445616D01*
X73395098Y6434253D01*
X73392674Y6436547D01*
X73356302Y6454692D01*
X73344636Y6450457D01*
X73329708Y6413878D01*
X73333735Y6404278D01*
X73369989Y6389144D01*
X73379422Y6393073D01*
X73404942Y6399720D01*
X73394779Y6364836D01*
X73348041Y6286026D01*
X73328140Y6255553D01*
X73276282Y6178812D01*
X73246423Y6144482D01*
X73227440Y6144633D01*
X73208745Y6170463D01*
X73205270Y6190983D01*
X73229565Y6180698D01*
X73254330Y6171761D01*
X73248509Y6181841D01*
X73202106Y6206172D01*
X73158118Y6216296D01*
X73092321Y6225916D01*
X72992248Y6241631D01*
X72910318Y6254973D01*
X72702180Y6287583D01*
X72496905Y6316456D01*
X72311832Y6339333D01*
X72164296Y6353951D01*
X72135166Y6356059D01*
X72046755Y6365550D01*
X71985451Y6379083D01*
X71972119Y6385897D01*
X71942552Y6376639D01*
X71891065Y6314605D01*
X71819482Y6202407D01*
X71729624Y6042656D01*
X71719891Y6024517D01*
X71620202Y5838030D01*
X71503630Y5897500D01*
X71387059Y5956971D01*
X70183509Y5956971D01*
X70183509Y6487200D01*
X73086079Y6487200D01*
X73090215Y6469287D01*
X73106166Y6467113D01*
X73130966Y6478137D01*
X73126253Y6487200D01*
X73090495Y6490806D01*
X73086079Y6487200D01*
X70183509Y6487200D01*
X70183509Y6566927D01*
X72074378Y6566927D01*
X72083060Y6553720D01*
X72141649Y6540334D01*
X72239804Y6527846D01*
X72367184Y6517330D01*
X72513448Y6509862D01*
X72654208Y6506622D01*
X72819926Y6505144D01*
X72728930Y6517330D01*
X72845035Y6517330D01*
X72849171Y6499418D01*
X72865122Y6497243D01*
X72889923Y6508267D01*
X72885209Y6517330D01*
X72849451Y6520936D01*
X72845035Y6517330D01*
X72728930Y6517330D01*
X72639143Y6529354D01*
X72434237Y6555545D01*
X72281960Y6571886D01*
X72175566Y6578825D01*
X72108307Y6576813D01*
X72074378Y6566927D01*
X70183509Y6566927D01*
X70183509Y6775621D01*
X72998712Y6775621D01*
X73028329Y6770796D01*
X73067408Y6776336D01*
X73067595Y6780454D01*
X73164582Y6780454D01*
X73206245Y6775699D01*
X73226688Y6775408D01*
X73281505Y6778549D01*
X73285580Y6783483D01*
X73558123Y6783483D01*
X73573188Y6768418D01*
X73580391Y6775621D01*
X73661583Y6775621D01*
X73691199Y6770796D01*
X73730279Y6776336D01*
X73730746Y6786621D01*
X73690419Y6793814D01*
X73672995Y6789000D01*
X73661583Y6775621D01*
X73580391Y6775621D01*
X73588253Y6783483D01*
X73573188Y6798548D01*
X73558123Y6783483D01*
X73285580Y6783483D01*
X73287965Y6786370D01*
X73279416Y6789187D01*
X73202998Y6793873D01*
X73173959Y6789187D01*
X73164582Y6780454D01*
X73067595Y6780454D01*
X73067875Y6786621D01*
X73027548Y6793814D01*
X73010125Y6789000D01*
X72998712Y6775621D01*
X70183509Y6775621D01*
X70183509Y6949200D01*
X77686000Y6949200D01*
X85188491Y6949200D01*
X85188491Y4132000D01*
G37*
D13*
G04 #@! TO.C,Q902*
X4700000Y85220000D02*
X4700000Y78800000D01*
X4700000Y78800000D02*
X4970000Y78800000D01*
X11600000Y85220000D02*
X11600000Y78800000D01*
X11600000Y78800000D02*
X11330000Y78800000D01*
X5010000Y77070000D02*
X4540000Y76730000D01*
X4540000Y77410000D01*
X5010000Y77070000D01*
G36*
X5010000Y77070000D02*
G01*
X4540000Y76730000D01*
X4540000Y77410000D01*
X5010000Y77070000D01*
G37*
D15*
G04 #@! TO.C,R13*
X67423000Y61000553D02*
X67023000Y61000563D01*
X67424056Y61746388D02*
X67024057Y61746399D01*
D16*
G04 #@! TO.C,D11*
X63782908Y59533546D02*
X63782908Y59058545D01*
X63982903Y59283551D02*
X63557902Y59283551D01*
X64070093Y60318548D02*
X63770094Y60078548D01*
X64070093Y58298547D02*
X63770094Y58538546D01*
X65150094Y60318548D02*
X64070093Y60318548D01*
X65150094Y58298547D02*
X64070096Y58298547D01*
X67690094Y60318548D02*
X66720095Y60318548D01*
X67690094Y60318548D02*
X67690094Y58298547D01*
X67690094Y58298547D02*
X66720095Y58298547D01*
X67960098Y59833550D02*
X67960098Y58858553D01*
D15*
G04 #@! TO.C,R14*
X70444944Y52349636D02*
X70844943Y52349625D01*
X70446000Y53095471D02*
X70846000Y53095461D01*
D16*
G04 #@! TO.C,M4*
X36449400Y23066001D02*
X36449400Y15715622D01*
X36449400Y15715622D02*
X36699021Y15466001D01*
X36699021Y15466001D02*
X46899021Y15466001D01*
X36699399Y23316001D02*
X36449400Y23066001D01*
X36699399Y23316001D02*
X49761080Y23316001D01*
X46899021Y15466001D02*
X48774018Y15466001D01*
X48774018Y16466002D02*
X48774018Y15466001D01*
X49524019Y17216003D02*
X48774018Y16466002D01*
X49524019Y17216003D02*
X50120371Y17216003D01*
X49761080Y23316001D02*
X50120371Y22956710D01*
X50120371Y22956710D02*
X50120371Y17216003D01*
D11*
G04 #@! TO.C,D4*
X51828000Y82329000D02*
X51828000Y81629000D01*
X51828000Y81979000D02*
X51528000Y81979000D01*
X52528000Y82329000D02*
X52528000Y81629000D01*
X52528000Y81979000D02*
X51828000Y82329000D01*
X52528000Y81979000D02*
X51828000Y81629000D01*
X52728000Y81979000D02*
X52528000Y81979000D01*
D13*
X54428000Y82979000D02*
X50528000Y82979000D01*
X54428000Y80979000D02*
X50528000Y80979000D01*
X54428000Y80979000D02*
X54428000Y82979000D01*
D16*
G04 #@! TO.C,C2*
X113395000Y68520007D02*
X113395000Y69269992D01*
G04 #@! TO.C,M2*
X96890784Y87249758D02*
X96890784Y72249758D01*
X96890784Y87249758D02*
X98190784Y87249758D01*
X96890784Y72249758D02*
X101990784Y72249758D01*
X106490784Y87249758D02*
X100090784Y87249758D01*
X106490784Y72849758D02*
X106490784Y87249758D01*
D13*
G04 #@! TO.C,Q9*
X40516000Y85909000D02*
X40516000Y85639000D01*
X40516000Y79009000D02*
X40516000Y79279000D01*
X46936000Y85909000D02*
X40516000Y85909000D01*
X46936000Y79009000D02*
X40516000Y79009000D01*
X38786000Y85599000D02*
X38446000Y86069000D01*
X39126000Y86069000D01*
X38786000Y85599000D01*
G36*
X38786000Y85599000D02*
G01*
X38446000Y86069000D01*
X39126000Y86069000D01*
X38786000Y85599000D01*
G37*
D16*
G04 #@! TO.C,D14*
X107598718Y36043999D02*
X107598718Y35568998D01*
X107798713Y35794004D02*
X107373712Y35794004D01*
X107885903Y36829001D02*
X107585904Y36589001D01*
X107885903Y34809000D02*
X107585904Y35048999D01*
X108965904Y36829001D02*
X107885903Y36829001D01*
X108965904Y34809000D02*
X107885906Y34809000D01*
X111505904Y36829001D02*
X110535905Y36829001D01*
X111505904Y36829001D02*
X111505904Y34809000D01*
X111505904Y34809000D02*
X110535905Y34809000D01*
X111775908Y36344003D02*
X111775908Y35369006D01*
D15*
G04 #@! TO.C,R12*
X38153088Y82654056D02*
X38153077Y82254057D01*
X38898923Y82653000D02*
X38898913Y82253000D01*
G04 #@! TO.C,R19*
X39029088Y65572056D02*
X39029077Y65172057D01*
X39774923Y65571000D02*
X39774913Y65171000D01*
G04 #@! TO.C,R11*
X38210088Y74473056D02*
X38210077Y74073057D01*
X38955923Y74472000D02*
X38955913Y74072000D01*
D13*
G04 #@! TO.C,Q14*
X40516000Y77714000D02*
X40516000Y77444000D01*
X40516000Y70814000D02*
X40516000Y71084000D01*
X46936000Y77714000D02*
X40516000Y77714000D01*
X46936000Y70814000D02*
X40516000Y70814000D01*
X38786000Y77404000D02*
X38446000Y77874000D01*
X39126000Y77874000D01*
X38786000Y77404000D01*
G36*
X38786000Y77404000D02*
G01*
X38446000Y77874000D01*
X39126000Y77874000D01*
X38786000Y77404000D01*
G37*
D10*
G04 #@! TO.C,J4*
X40458000Y11628000D02*
X48258000Y11628000D01*
X40458000Y11028000D02*
X40458000Y11628000D01*
X40458000Y8128000D02*
X40458000Y7528000D01*
X40458000Y7528000D02*
X48258000Y7528000D01*
X42258000Y7228000D02*
X43258000Y7228000D01*
X48258000Y11628000D02*
X48258000Y11028000D01*
X48258000Y7528000D02*
X48258000Y8128000D01*
D16*
G04 #@! TO.C,M3*
X92180000Y86959000D02*
X92180000Y77859000D01*
X92180000Y86959000D02*
X93180002Y86959000D01*
X95280003Y86959000D02*
X95280003Y77859000D01*
D11*
G04 #@! TO.C,D5*
X52247000Y76221000D02*
X52247000Y75521000D01*
X52247000Y75871000D02*
X51947000Y75871000D01*
X52947000Y76221000D02*
X52947000Y75521000D01*
X52947000Y75871000D02*
X52247000Y76221000D01*
X52947000Y75871000D02*
X52247000Y75521000D01*
X53147000Y75871000D02*
X52947000Y75871000D01*
D13*
X54847000Y76871000D02*
X50947000Y76871000D01*
X54847000Y74871000D02*
X50947000Y74871000D01*
X54847000Y74871000D02*
X54847000Y76871000D01*
G04 #@! TO.C,U2*
X119973000Y65944000D02*
X118023000Y65944000D01*
X119973000Y65944000D02*
X121923000Y65944000D01*
X119973000Y60824000D02*
X118023000Y60824000D01*
X119973000Y60824000D02*
X121923000Y60824000D01*
X117273000Y65849000D02*
X117033000Y66179000D01*
X117513000Y66179000D01*
X117273000Y65849000D01*
G36*
X117273000Y65849000D02*
G01*
X117033000Y66179000D01*
X117513000Y66179000D01*
X117273000Y65849000D01*
G37*
D15*
G04 #@! TO.C,R15*
X113660944Y37305088D02*
X114060943Y37305077D01*
X113662000Y38050923D02*
X114062000Y38050913D01*
D11*
G04 #@! TO.C,D3*
X52991000Y65989000D02*
X52991000Y65289000D01*
X52991000Y65639000D02*
X52691000Y65639000D01*
X53691000Y65989000D02*
X53691000Y65289000D01*
X53691000Y65639000D02*
X52991000Y65989000D01*
X53691000Y65639000D02*
X52991000Y65289000D01*
X53891000Y65639000D02*
X53691000Y65639000D01*
D13*
X55591000Y66639000D02*
X51691000Y66639000D01*
X55591000Y64639000D02*
X51691000Y64639000D01*
X55591000Y64639000D02*
X55591000Y66639000D01*
G04 #@! TO.C,Q11*
X41183000Y68788000D02*
X41183000Y68518000D01*
X41183000Y61888000D02*
X41183000Y62158000D01*
X47603000Y68788000D02*
X41183000Y68788000D01*
X47603000Y61888000D02*
X41183000Y61888000D01*
X39453000Y68478000D02*
X39113000Y68948000D01*
X39793000Y68948000D01*
X39453000Y68478000D01*
G36*
X39453000Y68478000D02*
G01*
X39113000Y68948000D01*
X39793000Y68948000D01*
X39453000Y68478000D01*
G37*
D16*
G04 #@! TO.C,M7*
X45349999Y50356999D02*
X45349999Y40156999D01*
X45349999Y40156999D02*
X45349999Y38282002D01*
X45599620Y50606620D02*
X45349999Y50356999D01*
X46350000Y38282002D02*
X45349999Y38282002D01*
X47100001Y37532001D02*
X46350000Y38282002D01*
X47100001Y37532001D02*
X47100001Y36935649D01*
X52840708Y36935649D02*
X47100001Y36935649D01*
X52949999Y50606620D02*
X45599620Y50606620D01*
X53199999Y50356621D02*
X52949999Y50606620D01*
X53199999Y50356621D02*
X53199999Y37294940D01*
X53199999Y37294940D02*
X52840708Y36935649D01*
D10*
G04 #@! TO.C,D9*
X63459003Y57608548D02*
X66387001Y57608548D01*
X63459003Y57262548D02*
X63586003Y57262548D01*
X63459003Y57162543D02*
X63459003Y57608548D01*
X63459003Y56754548D02*
X63587000Y56754548D01*
X63459003Y56433553D02*
X63459003Y56854553D01*
X63459003Y56433553D02*
X66387000Y56433553D01*
X63587000Y57162543D02*
X63587000Y57608548D01*
X63587000Y56458548D02*
X63586003Y56854553D01*
D11*
X64587000Y57008548D02*
X64787000Y57008548D01*
X64787000Y57008548D02*
X65487000Y57358548D01*
X64787000Y57008548D02*
X65487000Y56658548D01*
X64787000Y56658548D02*
X64787000Y57358548D01*
X65487000Y57008548D02*
X65787000Y57008548D01*
X65487000Y56658548D02*
X65487000Y57358548D01*
D16*
G04 #@! TO.C,D13*
X106387813Y39528999D02*
X106387813Y39053998D01*
X106587808Y39279004D02*
X106162807Y39279004D01*
X106674998Y40314001D02*
X106374999Y40074001D01*
X106674998Y38294000D02*
X106374999Y38533999D01*
X107754999Y40314001D02*
X106674998Y40314001D01*
X107754999Y38294000D02*
X106675001Y38294000D01*
X110294999Y40314001D02*
X109325000Y40314001D01*
X110294999Y40314001D02*
X110294999Y38294000D01*
X110294999Y38294000D02*
X109325000Y38294000D01*
X110565003Y39829003D02*
X110565003Y38854006D01*
D13*
G04 #@! TO.C,Q916*
X36360000Y39330000D02*
X36360000Y32910000D01*
X36360000Y32910000D02*
X36630000Y32910000D01*
X43260000Y39330000D02*
X43260000Y32910000D01*
X43260000Y32910000D02*
X42990000Y32910000D01*
X36670000Y31180000D02*
X36200000Y30840000D01*
X36200000Y31520000D01*
X36670000Y31180000D01*
G36*
X36670000Y31180000D02*
G01*
X36200000Y30840000D01*
X36200000Y31520000D01*
X36670000Y31180000D01*
G37*
G04 #@! TO.C,Q904*
X4821721Y54357000D02*
X4821721Y47937000D01*
X4821721Y47937000D02*
X5091721Y47937000D01*
X11721721Y54357000D02*
X11721721Y47937000D01*
X11721721Y47937000D02*
X11451721Y47937000D01*
X5131721Y46207000D02*
X4661721Y45867000D01*
X4661721Y46547000D01*
X5131721Y46207000D01*
G36*
X5131721Y46207000D02*
G01*
X4661721Y45867000D01*
X4661721Y46547000D01*
X5131721Y46207000D01*
G37*
D16*
G04 #@! TO.C,D12*
X68433718Y55150547D02*
X68433718Y54675546D01*
X68633713Y54900552D02*
X68208712Y54900552D01*
X68720903Y55935549D02*
X68420904Y55695549D01*
X68720903Y53915548D02*
X68420904Y54155547D01*
X69800904Y55935549D02*
X68720903Y55935549D01*
X69800904Y53915548D02*
X68720906Y53915548D01*
X72340904Y55935549D02*
X71370905Y55935549D01*
X72340904Y55935549D02*
X72340904Y53915548D01*
X72340904Y53915548D02*
X71370905Y53915548D01*
X72610908Y55450551D02*
X72610908Y54475554D01*
G04 #@! TO.C,M9*
X59005002Y49905003D02*
X59004999Y10005004D01*
X60304999Y10005004D02*
X59004999Y10005004D01*
X101105002Y49905003D02*
X59005002Y49905003D01*
X101105002Y49905003D02*
X101105002Y10005004D01*
X101105002Y10005004D02*
X60304999Y10005004D01*
G04 #@! TO.C,C3*
X116794986Y69216000D02*
X116045001Y69216000D01*
G04 #@! TO.C,C4*
X114476000Y59646986D02*
X114476000Y58897001D01*
D15*
G04 #@! TO.C,R9*
X105444160Y103865056D02*
X105444149Y103465057D01*
X106189995Y103864000D02*
X106189985Y103464000D01*
G04 #@! TO.C,M5*
D16*
X109141000Y99863000D02*
X123041000Y99863000D01*
X123041000Y72363000D01*
X109141000Y72363000D01*
X109141000Y99863000D01*
D13*
G04 #@! TO.C,Q12*
X108210000Y107117000D02*
X108210000Y106847000D01*
X108210000Y100217000D02*
X108210000Y100487000D01*
X114630000Y107117000D02*
X108210000Y107117000D01*
X114630000Y100217000D02*
X108210000Y100217000D01*
X106480000Y106807000D02*
X106140000Y107277000D01*
X106820000Y107277000D01*
X106480000Y106807000D01*
G36*
X106480000Y106807000D02*
G01*
X106140000Y107277000D01*
X106820000Y107277000D01*
X106480000Y106807000D01*
G37*
G04 #@! TO.C,Q915*
X25508279Y70173000D02*
X25508279Y63753000D01*
X25508279Y63753000D02*
X25778279Y63753000D01*
X32408279Y70173000D02*
X32408279Y63753000D01*
X32408279Y63753000D02*
X32138279Y63753000D01*
X25818279Y62023000D02*
X25348279Y61683000D01*
X25348279Y62363000D01*
X25818279Y62023000D01*
G36*
X25818279Y62023000D02*
G01*
X25348279Y61683000D01*
X25348279Y62363000D01*
X25818279Y62023000D01*
G37*
G04 #@! TO.C,Q913*
X25720000Y85220000D02*
X25720000Y78800000D01*
X25720000Y78800000D02*
X25990000Y78800000D01*
X32620000Y85220000D02*
X32620000Y78800000D01*
X32620000Y78800000D02*
X32350000Y78800000D01*
X26030000Y77070000D02*
X25560000Y76730000D01*
X25560000Y77410000D01*
X26030000Y77070000D01*
G36*
X26030000Y77070000D02*
G01*
X25560000Y76730000D01*
X25560000Y77410000D01*
X26030000Y77070000D01*
G37*
G04 #@! TO.C,Q912*
X15270000Y39210000D02*
X15270000Y32790000D01*
X15270000Y32790000D02*
X15540000Y32790000D01*
X22170000Y39210000D02*
X22170000Y32790000D01*
X22170000Y32790000D02*
X21900000Y32790000D01*
X15580000Y31060000D02*
X15110000Y30720000D01*
X15110000Y31400000D01*
X15580000Y31060000D01*
G36*
X15580000Y31060000D02*
G01*
X15110000Y30720000D01*
X15110000Y31400000D01*
X15580000Y31060000D01*
G37*
G04 #@! TO.C,L2*
X121329000Y68997779D02*
X121329000Y68672221D01*
X122349000Y68997779D02*
X122349000Y68672221D01*
G04 #@! TO.C,Q905*
X25841721Y54357000D02*
X25841721Y47937000D01*
X25841721Y47937000D02*
X26111721Y47937000D01*
X32741721Y54357000D02*
X32741721Y47937000D01*
X32741721Y47937000D02*
X32471721Y47937000D01*
X26151721Y46207000D02*
X25681721Y45867000D01*
X25681721Y46547000D01*
X26151721Y46207000D01*
G36*
X26151721Y46207000D02*
G01*
X25681721Y45867000D01*
X25681721Y46547000D01*
X26151721Y46207000D01*
G37*
G04 #@! TO.C,Q914*
X25630000Y39310000D02*
X25630000Y32890000D01*
X25630000Y32890000D02*
X25900000Y32890000D01*
X32530000Y39310000D02*
X32530000Y32890000D01*
X32530000Y32890000D02*
X32260000Y32890000D01*
X25940000Y31160000D02*
X25470000Y30820000D01*
X25470000Y31500000D01*
X25940000Y31160000D01*
G36*
X25940000Y31160000D02*
G01*
X25470000Y30820000D01*
X25470000Y31500000D01*
X25940000Y31160000D01*
G37*
G04 #@! TO.C,D2*
X89215000Y84463000D02*
X89215000Y88363000D01*
X89215000Y84463000D02*
X91215000Y84463000D01*
D11*
X90215000Y87063000D02*
X90215000Y87363000D01*
X90215000Y86363000D02*
X89865000Y87063000D01*
X90215000Y86363000D02*
X90565000Y87063000D01*
X90215000Y86163000D02*
X90215000Y86363000D01*
X90565000Y87063000D02*
X89865000Y87063000D01*
X90565000Y86363000D02*
X89865000Y86363000D01*
D13*
X91215000Y84463000D02*
X91215000Y88363000D01*
D10*
G04 #@! TO.C,D10*
X63597003Y55525548D02*
X66525001Y55525548D01*
X63597003Y55179548D02*
X63724003Y55179548D01*
X63597003Y55079543D02*
X63597003Y55525548D01*
X63597003Y54671548D02*
X63725000Y54671548D01*
X63597003Y54350553D02*
X63597003Y54771553D01*
X63597003Y54350553D02*
X66525000Y54350553D01*
X63725000Y55079543D02*
X63725000Y55525548D01*
X63725000Y54375548D02*
X63724003Y54771553D01*
D11*
X64725000Y54925548D02*
X64925000Y54925548D01*
X64925000Y54925548D02*
X65625000Y55275548D01*
X64925000Y54925548D02*
X65625000Y54575548D01*
X64925000Y54575548D02*
X64925000Y55275548D01*
X65625000Y54925548D02*
X65925000Y54925548D01*
X65625000Y54575548D02*
X65625000Y55275548D01*
D16*
G04 #@! TO.C,C1*
X124482986Y68647999D02*
X123733001Y68647999D01*
D13*
G04 #@! TO.C,L1*
X118350000Y69299779D02*
X118350000Y68974221D01*
X119370000Y69299779D02*
X119370000Y68974221D01*
D15*
G04 #@! TO.C,R16*
X113710944Y35148160D02*
X114110943Y35148149D01*
X113712000Y35893995D02*
X114112000Y35893985D01*
D16*
G04 #@! TO.C,C5*
X114543000Y61731992D02*
X114543000Y60982007D01*
G04 #@! TO.C,M1*
X60380254Y79122598D02*
X60380254Y82322601D01*
X60380254Y67022598D02*
X60380254Y77422600D01*
X60380254Y65122598D02*
X60380254Y65422598D01*
X60380254Y65122598D02*
X75780254Y65122598D01*
X61880254Y85722596D02*
X77180253Y85722598D01*
X77180251Y79022600D02*
X77180251Y83822600D01*
X77180251Y72822598D02*
X77180251Y75522598D01*
X77180251Y70122600D02*
X77180251Y71222603D01*
X77180251Y66572598D02*
X77180256Y68122598D01*
X77180253Y85422600D02*
X77180253Y85722598D01*
D13*
G04 #@! TO.C,Q911*
X15148279Y70073000D02*
X15148279Y63653000D01*
X15148279Y63653000D02*
X15418279Y63653000D01*
X22048279Y70073000D02*
X22048279Y63653000D01*
X22048279Y63653000D02*
X21778279Y63653000D01*
X15458279Y61923000D02*
X14988279Y61583000D01*
X14988279Y62263000D01*
X15458279Y61923000D01*
G36*
X15458279Y61923000D02*
G01*
X14988279Y61583000D01*
X14988279Y62263000D01*
X15458279Y61923000D01*
G37*
G04 #@! TO.C,F10*
X55271000Y85470990D02*
X55271000Y80620990D01*
X57271000Y85470990D02*
X57271000Y80620990D01*
X55271000Y85520990D02*
G75*
G02*
X57271000Y85520990I1000000J0D01*
G01*
X57271000Y80620990D02*
G75*
G02*
X55271000Y80620990I-1000000J0D01*
G01*
G04 #@! TO.C,D1*
X111815000Y65508500D02*
X111815000Y66158500D01*
X111815000Y65508500D02*
X111815000Y64858500D01*
X114935000Y65508500D02*
X114935000Y66158500D01*
X114935000Y65508500D02*
X114935000Y64858500D01*
X115215000Y66431000D02*
X114885000Y66671000D01*
X115215000Y66911000D01*
X115215000Y66431000D01*
G36*
X115215000Y66431000D02*
G01*
X114885000Y66671000D01*
X115215000Y66911000D01*
X115215000Y66431000D01*
G37*
D16*
G04 #@! TO.C,M6*
X118300660Y37606495D02*
X118300660Y26706501D01*
X118300660Y26706501D02*
X125186989Y26706501D01*
X118300663Y37606497D02*
X118300660Y37606495D01*
X118300663Y37606497D02*
X119175657Y37606497D01*
X119450661Y37881501D02*
X119175657Y37606497D01*
X119450661Y37881501D02*
X125148142Y37881501D01*
X125148142Y37881501D02*
X125186989Y26706501D01*
D15*
G04 #@! TO.C,R17*
X37850000Y9470005D02*
X37450000Y9470015D01*
X37851056Y10215840D02*
X37451057Y10215851D01*
G04 #@! TD*
M02*
