M48
; DRILL file {KiCad 8.0.9-8.0.9-0~ubuntu24.04.1} date 2026-01-28T02:09:29+0000
; FORMAT={2:4/ absolute / inch / suppress leading zeros}
; #@! TF.CreationDate,2026-01-28T02:09:29+00:00
; #@! TF.GenerationSoftware,Kicad,Pcbnew,8.0.9-8.0.9-0~ubuntu24.04.1
; #@! TF.FileFunction,MixedPlating,1,4
FMAT,2
INCH,TZ
; #@! TA.AperFunction,Plated,PTH,ComponentDrill
T1C0.0118
; #@! TA.AperFunction,Plated,PTH,ComponentDrill
T2C0.0453
; #@! TA.AperFunction,Plated,PTH,ComponentDrill
T3C0.0866
; #@! TA.AperFunction,Plated,PTH,ComponentDrill
T4C0.1575
; #@! TA.AperFunction,Plated,PTH,ViaDrill
T5C0.1969
%
G90
G05
T1
X15535Y10169
X15535Y9776
X15535Y20563
X15535Y20169
X15535Y19776
X15535Y19382
X15535Y18988
X15535Y18594
X15535Y15051
X15535Y24343
X15535Y18201
X15535Y17807
X15535Y17413
X15535Y17020
X15535Y16626
X15535Y16232
X15535Y15839
X15535Y15445
X15535Y12689
X15693Y8791
X16638Y8791
X17110Y8791
X17583Y8791
X17898Y24343
X18055Y8791
X18213Y24343
X18528Y24343
X18528Y8791
X19000Y8791
X19472Y8791
X19945Y8791
X20417Y8791
X20890Y8791
X21362Y8791
X21598Y24343
X21835Y8791
X21913Y24343
X22228Y24343
X22307Y8791
X22543Y24343
X22780Y8791
X22858Y24343
X23252Y8791
X23724Y8791
X24197Y8791
X24669Y8791
X25024Y24343
X25142Y8791
X25339Y24343
X25614Y8791
X25654Y24343
X25969Y24343
X26087Y8791
X26283Y24343
X26559Y8791
X26598Y24343
X26913Y24343
X27032Y8791
X27228Y24343
X27504Y8791
X27543Y24343
X27858Y24343
X27976Y8791
X28173Y24343
X28449Y8791
X28488Y24343
X28803Y24343
X28921Y8791
X29118Y24343
X29394Y8791
X29433Y24343
X29748Y24343
X29827Y8791
X30063Y24343
X30299Y8791
X30378Y24343
X30693Y24343
X30772Y8791
X31008Y24343
X31244Y8791
X31323Y24343
X31638Y24343
X31717Y8791
X31953Y21744
X31953Y21429
X31953Y19854
X31953Y19539
X31953Y19224
X31953Y17965
X31953Y17650
X31953Y14185
X31953Y9972
X31953Y24343
X31953Y23319
X31953Y23004
X31953Y22689
X31953Y22374
X31953Y22059
X31953Y21114
X31953Y20799
X31953Y20484
X31953Y20169
X31953Y18909
X31953Y18594
X31953Y18280
X31953Y17335
X31953Y17020
X31953Y16705
X31953Y16390
X31953Y16075
X31953Y15760
X31953Y15445
X31953Y15130
X31953Y14815
X31953Y14500
X31953Y13870
X31953Y13555
X31953Y13240
X31953Y12925
X31953Y12610
X31953Y9657
T2
X19346Y40730
X19346Y39746
X19346Y38762
X19346Y37778
X20802Y40730
X20802Y39746
X20802Y38762
X20802Y37778
X22180Y40730
X22180Y39746
X22180Y38762
X22180Y37778
X23164Y40730
X23164Y39746
X23164Y38762
X23164Y37778
X24149Y40730
X24149Y39746
X24149Y38762
X24149Y37778
X25133Y40730
X25133Y39746
X25133Y38762
X25133Y37778
X26117Y40730
X26117Y39746
X26117Y38762
X26117Y37778
X27101Y40730
X27101Y39746
X27101Y38762
X27101Y37778
X28086Y40730
X28086Y39746
X28086Y38762
X28086Y37778
X29070Y40730
X29070Y39746
X29070Y38762
X29070Y37778
X30054Y40730
X30054Y39746
X30054Y38762
X30054Y37778
X31038Y40730
X31038Y39746
X31038Y38762
X31038Y37778
T3
X16806Y37345
X33578Y37345
T4
X15192Y38860
X35192Y38860
T5
X4572Y4242
X45887Y4214
M30
