M48
INCH,TZ
T01C0.011800
T02C0.019700
T03C0.029550
T04C0.032000
T05C0.039200
T06C0.044300
T07C0.086600
T08C0.157500
T09C0.196900
%
T01
X17963Y17837
X17963Y17070
X17963Y16046
X18478Y17581
X18656Y16942
X18685Y15879
X18685Y16607
X18691Y15131
X18770Y16263
X20295Y15013
X47077Y11922
X47284Y12266
X47579Y11804
X48977Y11833
X2705Y24236
X2788Y30160
X2836Y18009
X2853Y12186
X6949Y12046
X6982Y23994
X6985Y30121
X7161Y8963
X7443Y11728
X7793Y8451
X7859Y1988
X8381Y7913
X8644Y2046
X8924Y6297
X8998Y8904
X9050Y12781
X9474Y2019
X9802Y5780
X10243Y2006
X10297Y7149
X10754Y7683
X10963Y3208
X10971Y8477
X10980Y24236
X11028Y12085
X11064Y30160
X11083Y2015
X11112Y18009
X11345Y10845
X11536Y11635
X11544Y4538
X11731Y3048
X12451Y6890
X12667Y5137
X12697Y2826
X13023Y7979
X13494Y12346
X13617Y7353
X13944Y6527
X14809Y11451
X15253Y12093
X18864Y20816
X19155Y11049
X19745Y9527
X20067Y4985
X21001Y5846
X21039Y5317
X22479Y14773
X22568Y6301
X22697Y7939
X22979Y4528
X23440Y31763
X24935Y2902
X24994Y3501
X26151Y24164
X29674Y21543
X30822Y32206
X31096Y27483
X31294Y3700
X31852Y33476
X35518Y33489
X36528Y24226
X38569Y3593
X39616Y34574
X40086Y24833
X40109Y5920
X41589Y13670
X41659Y40498
X42309Y15474
X43347Y23948
X43666Y9708
X44402Y40814
X44636Y25422
X44938Y12272
X45844Y27561
X46179Y12363
X46191Y11104
X46259Y25704
X46259Y25204
X46795Y27529
X46977Y28161
X47968Y27410
X47968Y26790
X48208Y25204
X48208Y24704
X48208Y24204
X48643Y32944
X48871Y27338
X49096Y42393
X49595Y42448
X16437Y6197
X16693Y6713
X17204Y6197
X17332Y6890
X17667Y6920
X18011Y7004
X18228Y6197
X18395Y6920
X19143Y6926
X19261Y8530
X23309Y18703
X23309Y15750
X23309Y15435
X23309Y15120
X23309Y14805
X23309Y14490
X23309Y13860
X23309Y13545
X23309Y13230
X23309Y12915
X23309Y12600
X23309Y12285
X23309Y11970
X23309Y11656
X23309Y11341
X23309Y11026
X23309Y10081
X23309Y9766
X23309Y9451
X23309Y8191
X23309Y7876
X23309Y7561
X23309Y7246
X23309Y6301
X23309Y5986
X23309Y5671
X23309Y5356
X23309Y5041
X23309Y4018
X23309Y18388
X23309Y14175
X23309Y10711
X23309Y10396
X23309Y9136
X23309Y8821
X23309Y8506
X23309Y6931
X23309Y6616
X23545Y19569
X23624Y4018
X23939Y4018
X24018Y19569
X24254Y4018
X24490Y19569
X24569Y4018
X24884Y4018
X24963Y19569
X25199Y4018
X25435Y19569
X25514Y4018
X25829Y4018
X25868Y19569
X26144Y4018
X26341Y19569
X26459Y4018
X26774Y4018
X26813Y19569
X27089Y4018
X27285Y19569
X27404Y4018
X27719Y4018
X27758Y19569
X28033Y4018
X28230Y19569
X28348Y4018
X28663Y4018
X28703Y19569
X28978Y4018
X29175Y19569
X29293Y4018
X29608Y4018
X29648Y19569
X29923Y4018
X30120Y19569
X30238Y4018
X30307Y27410
X30307Y27017
X30593Y19569
X31065Y19569
X31537Y19569
X32010Y19569
X32404Y4018
X32482Y19569
X32719Y4018
X32955Y19569
X33033Y4018
X33348Y4018
X33427Y19569
X33663Y4018
X33900Y19569
X34372Y19569
X34844Y19569
X35317Y19569
X35789Y19569
X36262Y19569
X36528Y30732
X36734Y19569
X36734Y4018
X36902Y30732
X36921Y34157
X37049Y4018
X37207Y19569
X37276Y34157
X37276Y30732
X37364Y4018
X37679Y19569
X38152Y19569
X38624Y19569
X38831Y34242
X39225Y34242
X39569Y19569
X39726Y15671
X39726Y12915
X39726Y12522
X39726Y12128
X39726Y11734
X39726Y11341
X39726Y10947
X39726Y10553
X39726Y10159
X39726Y4018
X39726Y13309
X39726Y9766
X39726Y9372
X39726Y8978
X39726Y8585
X39726Y8191
X39726Y7797
X39726Y18585
X39726Y18191
X40351Y28563
X40823Y28563
X41296Y28563
X41768Y28563
X43638Y28670
X44032Y28670
X44426Y28670
X45323Y28670
X45723Y28670
X46650Y39139
X47044Y39139
X47437Y39139
X47831Y39139
X24825Y25782
X24553Y26418
X24767Y26803
X24126Y27232
X24086Y27568
X24283Y28158
X24559Y28414
X24677Y28945
X24283Y29241
X24086Y28749
X24086Y29930
X24086Y31505
X24559Y31485
X25670Y31777
X26717Y31752
X27039Y31464
X28092Y31389
X29204Y31505
X29992Y31505
X28874Y30495
X28934Y29249
X29401Y29339
X29569Y28859
X29992Y29142
X29570Y27974
X30266Y27802
X30307Y27410
X30307Y27016
X29625Y27110
X29315Y26621
X29702Y26304
X29305Y25874
X28916Y26253
X28841Y26977
X28889Y27410
X27573Y26425
X27573Y25796
X26654Y25782
X25799Y25782
X26022Y26424
X26606Y27449
X26999Y28896
X26252Y28945
X26685Y29455
X27274Y30453
X28220Y32410
X29152Y32477
X29204Y32882
X29992Y32686
X29598Y32095
X27124Y33235
X27166Y33641
X26337Y33225
X26270Y32881
X25976Y33158
X24635Y32899
X25044Y32264
X24204Y32031
X39977Y34252
X41623Y34225
X40794Y34203
X38270Y33481
X39027Y33472
X39829Y33435
X41635Y33398
X40135Y33366
X41607Y33050
X39785Y32998
X38398Y32963
X40095Y32835
X38264Y32658
X41798Y32602
X39005Y32514
X39898Y32510
X41326Y32360
X40277Y32314
X40292Y31949
X40693Y31701
X39887Y31569
X40213Y31516
X39495Y31506
X38412Y31486
X38784Y31436
X39134Y31396
X39792Y31175
X38264Y30866
X39839Y30797
X40263Y30483
X39977Y30364
X39473Y30266
X40936Y30244
X38424Y30201
X40233Y30178
X41607Y30109
X41548Y29813
X40278Y29630
X41777Y29618
X38904Y29291
X38896Y28815
X38727Y28573
X39140Y28563
X38245Y28547
X39225Y34242
X38831Y34242
X41768Y28563
X41296Y28563
X40824Y28563
X40351Y28563
X36381Y34151
X36634Y33999
X36921Y34157
X37276Y34157
X36942Y33155
X36837Y32881
X37050Y32638
X36537Y33188
X37277Y31709
X37276Y30732
X36902Y30732
X36528Y30732
X16693Y6713
X16437Y6197
X17205Y6197
X17333Y6890
X17667Y6919
X18012Y7004
X18396Y6919
X19144Y6925
X18228Y6197
X19262Y8530
X46099Y28607
X43169Y28682
X44839Y28726
X48205Y28726
X48015Y28959
X46735Y29015
X46424Y29015
X43401Y29169
X44992Y29397
X44294Y29489
X46922Y29552
X47855Y29689
X48127Y29981
X43087Y30084
X43724Y30130
X44101Y30172
X45408Y30247
X46645Y30251
X48166Y30527
X46080Y30608
X47369Y30733
X45420Y30793
X44373Y30802
X46130Y30911
X48205Y31009
X43082Y31806
X47398Y31974
X45593Y32264
X44654Y32494
X46154Y32495
X45361Y32496
X45118Y32702
X48304Y32722
X45459Y32780
X44082Y33087
X46217Y33295
X44133Y33384
X48274Y33509
X44780Y33525
X44127Y33694
X47560Y33712
X46178Y33785
X45178Y33844
X44503Y33997
X47477Y34001
X46744Y34302
X43778Y34320
X43477Y34328
X48284Y34700
X43646Y34907
X43061Y34932
X43945Y34941
X43280Y35198
X44922Y35336
X45769Y35382
X46282Y35452
X47182Y35452
X47483Y35452
X47784Y35452
X48085Y35452
X46690Y35456
X45154Y35832
X45371Y36088
X48326Y38163
X46577Y38380
X43324Y38420
X43737Y38568
X46670Y38667
X44318Y38706
X44593Y38706
X44869Y38706
X43757Y38883
X48333Y38903
X44318Y39011
X44593Y39011
X43343Y39208
X43638Y28670
X44032Y28670
X44426Y28670
X45324Y28670
X45724Y28670
X46650Y39139
X47044Y39139
X47438Y39139
X47831Y39139
X47284Y12266
X47077Y11922
X47579Y11803
X48977Y11833
X18479Y17581
X17963Y17837
X17963Y17069
X18656Y16941
X18685Y16607
X18770Y16262
X18685Y15878
X18691Y15130
X17963Y16046
X20296Y15012
X39568Y19569
X39645Y19170
X39726Y18585
X39726Y18191
X38968Y17931
X38254Y17915
X37970Y17892
X37364Y18073
X37049Y18073
X36483Y17885
X36057Y17885
X35474Y18073
X35159Y18073
X34590Y17903
X34305Y17894
X33617Y18095
X33233Y18095
X32722Y17869
X32280Y17885
X31694Y18073
X31379Y18073
X30799Y17976
X30415Y17915
X29805Y18073
X29490Y18073
X28860Y17915
X28545Y17915
X27915Y18073
X27600Y18073
X26970Y17915
X26655Y17915
X26025Y18073
X25789Y17837
X25513Y16970
X25198Y17089
X25001Y17364
X24647Y17364
X24559Y16439
X25061Y16419
X24998Y16141
X25100Y15297
X24726Y15159
X24622Y14884
X24519Y15396
X24798Y14070
X24806Y13573
X25120Y13545
X25080Y13152
X25198Y12364
X25793Y12288
X26183Y12246
X26517Y12235
X26261Y12522
X26009Y12682
X25846Y11818
X25830Y11431
X26075Y11271
X25689Y11026
X25779Y10318
X25710Y10041
X25828Y9175
X26025Y8821
X25798Y8260
X25777Y7876
X24976Y8172
X24653Y8393
X24270Y8417
X24691Y6957
X24740Y6307
X24521Y6124
X25083Y5709
X25807Y5516
X26183Y5829
X26427Y5681
X26576Y5002
X26852Y5120
X25630Y4913
X25352Y5039
X25208Y4520
X24893Y4419
X24270Y4975
X28179Y4985
X28477Y4935
X28423Y5574
X28084Y5784
X27487Y6459
X27679Y6695
X27915Y6931
X28742Y7167
X29361Y7271
X29332Y6931
X29642Y7359
X29844Y7561
X29687Y8506
X29253Y8530
X28427Y8270
X28112Y8270
X27968Y8686
X27324Y8585
X27285Y7876
X27057Y7705
X26734Y8348
X26734Y9293
X27679Y9608
X27994Y9608
X27915Y10175
X27994Y11144
X27600Y11144
X27322Y10667
X26608Y10558
X26744Y11315
X26730Y11692
X27797Y11774
X27718Y12493
X27403Y12482
X28291Y12567
X28072Y13348
X27757Y13427
X27127Y13309
X26881Y13454
X26587Y13702
X26950Y14175
X27344Y14175
X27994Y14490
X28309Y14487
X28624Y14490
X29253Y14354
X29520Y14165
X29411Y13624
X29198Y13388
X29048Y13793
X30041Y13624
X29962Y13348
X30828Y13309
X30907Y13663
X30907Y14490
X30592Y14487
X30277Y14451
X30001Y14884
X30001Y15199
X29992Y15484
X29765Y16026
X29175Y16026
X28801Y15789
X28801Y15159
X29234Y15297
X27777Y15435
X27782Y15145
X26950Y15297
X26517Y15159
X26517Y15789
X26891Y16026
X27482Y16026
X28053Y16774
X28560Y16872
X28845Y16872
X30449Y16872
X30735Y16872
X31008Y16788
X31084Y15789
X31458Y16026
X32009Y16026
X32344Y15435
X32349Y15145
X32540Y14475
X32875Y14487
X33190Y14490
X33368Y15159
X33801Y15297
X33702Y16026
X33368Y15789
X33130Y16756
X32625Y16911
X32339Y16872
X33872Y16516
X34229Y16872
X34514Y16872
X34529Y16222
X34579Y15521
X34598Y14844
X34585Y14549
X34598Y14190
X34608Y13703
X34568Y13270
X34948Y13142
X35233Y13122
X35395Y13624
X35257Y14057
X35755Y13946
X36175Y13846
X36200Y13561
X36694Y13545
X37031Y13662
X37430Y13379
X37108Y13033
X36616Y12947
X36549Y12464
X36583Y12128
X36537Y11744
X36537Y11459
X36537Y10907
X36576Y10159
X36379Y9648
X36458Y9372
X36434Y8910
X36470Y8330
X36498Y7561
X36891Y7463
X36901Y7123
X37757Y6892
X37738Y7482
X37684Y8230
X38072Y8309
X38466Y8313
X39116Y8317
X39726Y8191
X39726Y8585
X39726Y8978
X39726Y9372
X39726Y9766
X39726Y10159
X39726Y10553
X39726Y10947
X39726Y11341
X39726Y11734
X39726Y12128
X39726Y12522
X39726Y12915
X39726Y13309
X39490Y13545
X38950Y13378
X38958Y13860
X38683Y13998
X38321Y13958
X38053Y14059
X37393Y14264
X37380Y14549
X37393Y14844
X37364Y15199
X37845Y15056
X38347Y15049
X38190Y15474
X38307Y15800
X37919Y15828
X38250Y16222
X38289Y16774
X38008Y16872
X37246Y16803
X36773Y16803
X36404Y16872
X36119Y16872
X35710Y16813
X35356Y16852
X35769Y16222
X35710Y15789
X35395Y15474
X35533Y15081
X34903Y15081
X35029Y15914
X36773Y15789
X37009Y16222
X36233Y15192
X36192Y14909
X36261Y14333
X35730Y12876
X35659Y11631
X35700Y11026
X35722Y10612
X35690Y10100
X35700Y9530
X35700Y8821
X35700Y8191
X35759Y7527
X34856Y7418
X34832Y6804
X34628Y6603
X34185Y6675
X34135Y7089
X34135Y7374
X34135Y8195
X34149Y8584
X34672Y8585
X34672Y8870
X34386Y8889
X34175Y9136
X34253Y9490
X34140Y9943
X33234Y9936
X32951Y9827
X33072Y9569
X33321Y9252
X33309Y10356
X33161Y11138
X33072Y11537
X33259Y11882
X33545Y12797
X34074Y12813
X34217Y12557
X34253Y13555
X33899Y13848
X33819Y14158
X33151Y13624
X32666Y13610
X32679Y13325
X32518Y12344
X32110Y12301
X32049Y12580
X31773Y12285
X31124Y12261
X31133Y12546
X30690Y12187
X30459Y12403
X29972Y11870
X30865Y11577
X31348Y11573
X31084Y11213
X30750Y10711
X30277Y10238
X31183Y10199
X31655Y9018
X31970Y9057
X32249Y9555
X32718Y9992
X32246Y11183
X34096Y10986
X34332Y11577
X34647Y11518
X35057Y11454
X34933Y12069
X34844Y9470
X33319Y8003
X33309Y7561
X33387Y6931
X33379Y6646
X33247Y6172
X33319Y5895
X33190Y5396
X33643Y4811
X32875Y4256
X32079Y4143
X31754Y4188
X31466Y4146
X31147Y4149
X30833Y4155
X31222Y5041
X31842Y5012
X32128Y5012
X32413Y5002
X32268Y6007
X32206Y6301
X32551Y6813
X32403Y7561
X32561Y8073
X31655Y8152
X31300Y8240
X31025Y8506
X31222Y7364
X31675Y7640
X30513Y6931
X30986Y6459
X30986Y5521
X30592Y5317
X30252Y4918
X29303Y5000
X30120Y6262
X29805Y9715
X29293Y9597
X29071Y9778
X28851Y9597
X28673Y9820
X28820Y10986
X29332Y11183
X29450Y10474
X31535Y13397
X31773Y13742
X31911Y14175
X31616Y14175
X31517Y15297
X31084Y15159
X31301Y19372
X31064Y19569
X30828Y19372
X30592Y19569
X30356Y19372
X30120Y19569
X29883Y19372
X29647Y19569
X29411Y19372
X29175Y19569
X28938Y19372
X28702Y19569
X28466Y19372
X28230Y19569
X27994Y19372
X27757Y19569
X27521Y19372
X27285Y19569
X27049Y19372
X26812Y19569
X26576Y19372
X26340Y19569
X26104Y19372
X25868Y19569
X25435Y19569
X25198Y19372
X24962Y19569
X24726Y19372
X24490Y19569
X24253Y19372
X24557Y18665
X25030Y18665
X26064Y16813
X26670Y16872
X26955Y16872
X26340Y14490
X26025Y14487
X25710Y14490
X25424Y14545
X24322Y11528
X26616Y7167
X26575Y6885
X34056Y6298
X34380Y5967
X34305Y5691
X34629Y5826
X35021Y5376
X35289Y5492
X35579Y5653
X35879Y5666
X35828Y5947
X35592Y6577
X35217Y6842
X35088Y4992
X35759Y5148
X36511Y5455
X36880Y5300
X36899Y5595
X36749Y5999
X37078Y5986
X37572Y5787
X38435Y5989
X38844Y6080
X38781Y5514
X39627Y5435
X39647Y5829
X39057Y4549
X39017Y4096
X37935Y4096
X37295Y4893
X36555Y4796
X35535Y4254
X34529Y4372
X38574Y6932
X38742Y7167
X38917Y7745
X39313Y7758
X39726Y7797
X38600Y9190
X38328Y9530
X38160Y10291
X37354Y10317
X37354Y11026
X37354Y11734
X37354Y12443
X37789Y12827
X38104Y12596
X38604Y13132
X39598Y14224
X38988Y14844
X39313Y15514
X39726Y15671
X39490Y16222
X39687Y16813
X39135Y17010
X39372Y17492
X38736Y16677
X38860Y15888
X39135Y18978
X39092Y19538
X38860Y19372
X38624Y19569
X38387Y19372
X38151Y19569
X37915Y19372
X37679Y19569
X37442Y19372
X37206Y19569
X36970Y19372
X36734Y19569
X36498Y19372
X36261Y19569
X36025Y19372
X35789Y19569
X35553Y19372
X35316Y19569
X35080Y19372
X34844Y19569
X34608Y19372
X34372Y19569
X34135Y19372
X33899Y19569
X33663Y19372
X33427Y19569
X33190Y19372
X32954Y19569
X32718Y19372
X32482Y19569
X32246Y19372
X32009Y19569
X31773Y19372
X31537Y19569
X37875Y8998
X24175Y8841
X23988Y8625
X23309Y8506
X23309Y8191
X23309Y7876
X23309Y7561
X23309Y7246
X23309Y6931
X23309Y6616
X23309Y6301
X23309Y5986
X23309Y5671
X23309Y5356
X23309Y5041
X23387Y4726
X23710Y5041
X23582Y5871
X23547Y7089
X23547Y8033
X24164Y7691
X24137Y9606
X23309Y9451
X23309Y9136
X23309Y8821
X23309Y9766
X23309Y10081
X23309Y10396
X23309Y10711
X23309Y11026
X23309Y11341
X23309Y11656
X23309Y11970
X23309Y12285
X23309Y12600
X23309Y12915
X23309Y13230
X23309Y13545
X23309Y13860
X23309Y14175
X23309Y14490
X23309Y14805
X23309Y15120
X23309Y15435
X23309Y15750
X24137Y15875
X24135Y16577
X23820Y16734
X23675Y16488
X23702Y17049
X23584Y17364
X23505Y17640
X23505Y18033
X23309Y18388
X23309Y18703
X23653Y18673
X24115Y18672
X24017Y19569
X23781Y19372
X23545Y19569
X23348Y19254
X23820Y15199
X24160Y15144
X23592Y12250
X23919Y10661
X24214Y10661
X23938Y4018
X23624Y4018
X23309Y4018
X24253Y4018
X24568Y4018
X24883Y4018
X25198Y4018
X25513Y4018
X25828Y4018
X26143Y4018
X26458Y4018
X26773Y4018
X27088Y4018
X27403Y4018
X27718Y4018
X28033Y4018
X28348Y4018
X28663Y4018
X28978Y4018
X29293Y4018
X29608Y4018
X29923Y4018
X30238Y4018
X32403Y4018
X32718Y4018
X33033Y4018
X33348Y4018
X33663Y4018
X35799Y4044
X36734Y4018
X37049Y4018
X37364Y4018
X39726Y4018
T02
X15270Y31567
X15270Y28340
X15533Y24826
X27349Y41786
T03
X2362Y27604
X2401Y26891
X2401Y26041
X2409Y15453
X2449Y14740
X2449Y13890
X2484Y32815
X2484Y31965
X2493Y21377
X2532Y20664
X2532Y19814
X2586Y33528
X3098Y27604
X3129Y26044
X3133Y26915
X3146Y15453
X3177Y13894
X3181Y33528
X3181Y14764
X3213Y31969
X3217Y32839
X3229Y21377
X3261Y19818
X3264Y20688
X3877Y27615
X3877Y26033
X3893Y26883
X3925Y15465
X3925Y13882
X3941Y14732
X3961Y33539
X3961Y31957
X3976Y32807
X3989Y20656
X4009Y21389
X4009Y19806
X6558Y27564
X6598Y26852
X6598Y26001
X6606Y15413
X6642Y33488
X6646Y14701
X6646Y13850
X6681Y32776
X6681Y31925
X7295Y27564
X7326Y26005
X7330Y26875
X7343Y15413
X7374Y13854
X7378Y33488
X7378Y14724
X7409Y31929
X7413Y32799
X8074Y27576
X8074Y25993
X8090Y26844
X8122Y15425
X8122Y13843
X8138Y14693
X8157Y33500
X8157Y31917
X8173Y32768
X10637Y27604
X10676Y26891
X10676Y26041
X10685Y15453
X10720Y33528
X10724Y14740
X10724Y13890
X10760Y32815
X10760Y31965
X10768Y21377
X10808Y20664
X10808Y19814
X11373Y27604
X11405Y26044
X11409Y26915
X11421Y15453
X11453Y13894
X11457Y33528
X11457Y14764
X11488Y31969
X11492Y32839
X11505Y21377
X11536Y19818
X11540Y20688
X12153Y27615
X12153Y26033
X12169Y26883
X12201Y15465
X12201Y13882
X12217Y14732
X12236Y33539
X12236Y31957
X12252Y32807
X12284Y21389
X12284Y19806
X12300Y20656
X14949Y15453
X14949Y14748
X14949Y13898
X15646Y15461
X15677Y13902
X15681Y14772
X16425Y15472
X16425Y13890
X16441Y14740
X16834Y3436
X17149Y4125
X17464Y3436
X17779Y4125
X18094Y3436
X16027Y4037G85X16027Y3525
X18901Y4037G85X18901Y3525
T04
X22154Y33670
X22154Y31741
X33860Y13467
X32167Y13585
X30435Y13545
X28545Y13585
X27403Y13585
X26222Y13585
X25710Y13112
T05
X1144Y10824
X1340Y4387
X1912Y35608
X2461Y22985
X2589Y29054
X7040Y28820
X7190Y17500
X7202Y22260
X8306Y35327
X11071Y38953
X11649Y22866
X11662Y28921
X11709Y39988
X12575Y39980
X13441Y40077
X13443Y11168
X14126Y41024
X15073Y35719
X16467Y40981
X16641Y10231
X17750Y32464
X17750Y29238
X18013Y25724
X18201Y40969
X21000Y41598
X22051Y41850
X22981Y41892
X23887Y41866
X24771Y41968
X31302Y24725
X38914Y21970
X39350Y39830
X41644Y36848
X46150Y41092
X47233Y20666
X48096Y8704
X24028Y33493
X24028Y32765
X24028Y30816
X24028Y26072
X30130Y33316
X30130Y30796
X30130Y30048
X30130Y28355
X30130Y25895
X24027Y26071
X24027Y30816
X30130Y30796
X30130Y30048
X30130Y28355
X30130Y25894
X30130Y33316
X24027Y33493
X24027Y32764
X47320Y35993
X46138Y36781
X47320Y37568
X47398Y28867
X46998Y30867
X47798Y30867
X39411Y4333
X36269Y5093
X36269Y4293
X34269Y4693
T06
X19346Y40730
X19346Y39746
X19346Y38762
X19346Y37778
X20802Y40730
X20802Y39746
X20802Y38762
X20802Y37778
X22180Y40730
X22180Y39746
X22180Y38762
X22180Y37778
X23164Y40730
X23164Y39746
X23164Y38762
X23164Y37778
X24149Y40730
X24149Y39746
X24149Y38762
X24149Y37778
X25133Y40730
X25133Y39746
X25133Y38762
X25133Y37778
X26117Y40730
X26117Y39746
X26117Y38762
X26117Y37778
X27101Y40730
X27101Y39746
X27101Y38762
X27101Y37778
X28086Y40730
X28086Y39746
X28086Y38762
X28086Y37778
X29070Y40730
X29070Y39746
X29070Y38762
X29070Y37778
X30054Y40730
X30054Y39746
X30054Y38762
X30054Y37778
X31038Y40730
X31038Y39746
X31038Y38762
X31038Y37778
X43511Y35816
X43511Y36816
X43511Y37816
T07
X16806Y37345
X33578Y37345
T08
X15192Y38860
X35192Y38860
T09
X4592Y3551
X46017Y4083
M30
