G75*
G70*
%OFA0B0*%
%FSLAX25Y25*%
%IPPOS*%
%LPD*%
%AMOC8*
5,1,8,0,0,1.08239X$1,22.5*
%
%ADD10C,0.15748*%
%ADD11C,0.08661*%
%ADD12C,0.06299*%
%ADD13C,0.02362*%
%ADD14C,0.04724*%
%ADD15R,0.00787X0.09055*%
%ADD16R,0.00787X0.21260*%
%ADD17R,0.00787X0.33858*%
%ADD18R,0.00787X0.19685*%
%ADD19R,0.05512X0.00787*%
%ADD20R,0.19685X0.00787*%
%ADD21R,0.26772X0.00787*%
%ADD22R,0.17717X0.00787*%
%ADD23R,0.00787X0.06299*%
%ADD24R,0.00787X0.22441*%
%ADD25R,0.00787X0.07874*%
%ADD26C,0.39370*%
X0000000Y0000000D02*
%LPD*%
G01*
D10*
X0151920Y0388604D03*
D11*
X0168061Y0373446D03*
X0335778Y0373446D03*
D10*
X0351920Y0388604D03*
D12*
X0193455Y0407305D03*
X0193455Y0397462D03*
X0193455Y0387620D03*
X0193455Y0377777D03*
X0208022Y0407305D03*
X0208022Y0397462D03*
X0208022Y0387620D03*
X0208022Y0377777D03*
X0221802Y0407305D03*
X0221802Y0397462D03*
X0221802Y0387620D03*
X0221802Y0377777D03*
X0231644Y0407305D03*
X0231644Y0397462D03*
X0231644Y0387620D03*
X0231644Y0377777D03*
X0241487Y0407305D03*
X0241487Y0397462D03*
X0241487Y0387620D03*
X0241487Y0377777D03*
X0251329Y0407305D03*
X0251329Y0397462D03*
X0251329Y0387620D03*
X0251329Y0377777D03*
X0261172Y0407305D03*
X0261172Y0397462D03*
X0261172Y0387620D03*
X0261172Y0377777D03*
X0271014Y0407305D03*
X0271014Y0397462D03*
X0271014Y0387620D03*
X0271014Y0377777D03*
X0280857Y0407305D03*
X0280857Y0397462D03*
X0280857Y0387620D03*
X0280857Y0377777D03*
X0290699Y0407305D03*
X0290699Y0397462D03*
X0290699Y0387620D03*
X0290699Y0377777D03*
X0300542Y0407305D03*
X0300542Y0397462D03*
X0300542Y0387620D03*
X0300542Y0377777D03*
X0310384Y0407305D03*
X0310384Y0397462D03*
X0310384Y0387620D03*
X0310384Y0377777D03*
D13*
X0319528Y0233189D03*
X0319528Y0230039D03*
X0319528Y0226890D03*
X0319528Y0223740D03*
X0319528Y0220591D03*
X0319528Y0217441D03*
X0319528Y0214291D03*
X0319528Y0211142D03*
X0319528Y0207992D03*
X0319528Y0204842D03*
X0319528Y0201693D03*
X0319528Y0198543D03*
X0319528Y0195394D03*
X0319528Y0192244D03*
D14*
X0319528Y0189094D03*
D13*
X0319528Y0185945D03*
X0319528Y0182795D03*
X0319528Y0179646D03*
X0319528Y0176496D03*
X0319528Y0173346D03*
X0319528Y0170197D03*
X0319528Y0167047D03*
X0319528Y0163898D03*
X0319528Y0160748D03*
X0319528Y0157598D03*
X0319528Y0154449D03*
X0319528Y0151299D03*
X0319528Y0148150D03*
X0319528Y0145000D03*
X0319528Y0141850D03*
X0319528Y0138701D03*
X0319528Y0135551D03*
X0319528Y0132402D03*
X0319528Y0129252D03*
X0319528Y0126102D03*
X0319528Y0099724D03*
X0319528Y0096575D03*
D15*
X0154567Y0091260D03*
D16*
X0154567Y0114291D03*
D17*
X0154567Y0224528D03*
D18*
X0154567Y0138701D03*
D19*
X0161654Y0087126D03*
D20*
X0167165Y0244213D03*
D21*
X0200630Y0244213D03*
D22*
X0239409Y0244213D03*
D23*
X0320315Y0238307D03*
D24*
X0320315Y0112913D03*
D25*
X0320315Y0090669D03*
D13*
X0319528Y0243425D03*
X0316378Y0243425D03*
X0313228Y0243425D03*
X0310079Y0243425D03*
X0306929Y0243425D03*
X0303780Y0243425D03*
X0300630Y0243425D03*
X0297480Y0243425D03*
X0294331Y0243425D03*
X0291181Y0243425D03*
X0288032Y0243425D03*
X0284882Y0243425D03*
X0281732Y0243425D03*
X0278583Y0243425D03*
X0275433Y0243425D03*
X0272283Y0243425D03*
X0269134Y0243425D03*
X0265984Y0243425D03*
X0262835Y0243425D03*
X0259685Y0243425D03*
X0256535Y0243425D03*
X0253386Y0243425D03*
X0250236Y0243425D03*
X0228583Y0243425D03*
X0225433Y0243425D03*
X0222283Y0243425D03*
X0219134Y0243425D03*
X0215984Y0243425D03*
X0185276Y0243425D03*
X0182126Y0243425D03*
X0178976Y0243425D03*
X0155354Y0243425D03*
X0317165Y0087913D03*
X0312441Y0087913D03*
X0307717Y0087913D03*
X0302992Y0087913D03*
X0298268Y0087913D03*
X0293937Y0087913D03*
X0289213Y0087913D03*
X0284488Y0087913D03*
X0279764Y0087913D03*
X0275039Y0087913D03*
X0270315Y0087913D03*
X0265591Y0087913D03*
X0260866Y0087913D03*
X0256142Y0087913D03*
X0251417Y0087913D03*
X0246693Y0087913D03*
X0241969Y0087913D03*
X0237244Y0087913D03*
X0232520Y0087913D03*
X0227795Y0087913D03*
X0223071Y0087913D03*
X0218346Y0087913D03*
X0213622Y0087913D03*
X0208898Y0087913D03*
X0204173Y0087913D03*
X0199449Y0087913D03*
X0194724Y0087913D03*
X0190000Y0087913D03*
X0185276Y0087913D03*
X0180551Y0087913D03*
X0175827Y0087913D03*
X0171102Y0087913D03*
X0166378Y0087913D03*
X0156929Y0087913D03*
X0155354Y0097756D03*
X0155354Y0101693D03*
X0155354Y0126890D03*
X0155354Y0150512D03*
X0155354Y0154449D03*
X0155354Y0158386D03*
X0155354Y0162323D03*
X0155354Y0166260D03*
X0155354Y0170197D03*
X0155354Y0174134D03*
X0155354Y0178071D03*
X0155354Y0182008D03*
X0155354Y0185945D03*
X0155354Y0189882D03*
X0155354Y0193819D03*
X0155354Y0197756D03*
X0155354Y0201693D03*
X0155354Y0205630D03*
D26*
X0458867Y0042140D03*
X0045717Y0042416D03*
X0154173Y0086732D02*
G01*
G75*
G36*
X0248482Y0243819D02*
X0248464Y0243777D01*
X0248464Y0243073D01*
X0248734Y0242421D01*
X0249233Y0241923D01*
X0249884Y0241653D01*
X0250588Y0241653D01*
X0251240Y0241923D01*
X0251296Y0241980D01*
X0251811Y0242367D01*
X0252325Y0241980D01*
X0252382Y0241923D01*
X0253033Y0241653D01*
X0253738Y0241653D01*
X0254389Y0241923D01*
X0254446Y0241980D01*
X0254960Y0242367D01*
X0255475Y0241980D01*
X0255532Y0241923D01*
X0256183Y0241653D01*
X0256888Y0241653D01*
X0257539Y0241923D01*
X0257596Y0241980D01*
X0258110Y0242367D01*
X0258624Y0241980D01*
X0258681Y0241923D01*
X0259332Y0241653D01*
X0260037Y0241653D01*
X0260688Y0241923D01*
X0260745Y0241980D01*
X0261260Y0242367D01*
X0261774Y0241980D01*
X0261831Y0241923D01*
X0262482Y0241653D01*
X0263187Y0241653D01*
X0263838Y0241923D01*
X0263895Y0241980D01*
X0264409Y0242367D01*
X0264924Y0241980D01*
X0264981Y0241923D01*
X0265632Y0241653D01*
X0266336Y0241653D01*
X0266988Y0241923D01*
X0267045Y0241980D01*
X0267559Y0242367D01*
X0268073Y0241980D01*
X0268130Y0241923D01*
X0268781Y0241653D01*
X0269486Y0241653D01*
X0270137Y0241923D01*
X0270194Y0241980D01*
X0270708Y0242367D01*
X0271223Y0241980D01*
X0271280Y0241923D01*
X0271931Y0241653D01*
X0272636Y0241653D01*
X0273287Y0241923D01*
X0273344Y0241980D01*
X0273858Y0242367D01*
X0274373Y0241980D01*
X0274429Y0241923D01*
X0275080Y0241653D01*
X0275785Y0241653D01*
X0276436Y0241923D01*
X0276493Y0241980D01*
X0277008Y0242367D01*
X0277522Y0241980D01*
X0277579Y0241923D01*
X0278230Y0241653D01*
X0278935Y0241653D01*
X0279586Y0241923D01*
X0279643Y0241980D01*
X0280157Y0242367D01*
X0280672Y0241980D01*
X0280729Y0241923D01*
X0281380Y0241653D01*
X0282084Y0241653D01*
X0282736Y0241923D01*
X0282793Y0241980D01*
X0283307Y0242367D01*
X0283821Y0241980D01*
X0283878Y0241923D01*
X0284529Y0241653D01*
X0285234Y0241653D01*
X0285885Y0241923D01*
X0285942Y0241980D01*
X0286456Y0242367D01*
X0286971Y0241980D01*
X0287028Y0241923D01*
X0287679Y0241653D01*
X0288384Y0241653D01*
X0289035Y0241923D01*
X0289092Y0241980D01*
X0289606Y0242367D01*
X0290121Y0241980D01*
X0290177Y0241923D01*
X0290828Y0241653D01*
X0291533Y0241653D01*
X0292185Y0241923D01*
X0292241Y0241980D01*
X0292756Y0242367D01*
X0293270Y0241980D01*
X0293327Y0241923D01*
X0293978Y0241653D01*
X0294683Y0241653D01*
X0295334Y0241923D01*
X0295391Y0241980D01*
X0295905Y0242367D01*
X0296420Y0241980D01*
X0296477Y0241923D01*
X0297128Y0241653D01*
X0297832Y0241653D01*
X0298484Y0241923D01*
X0298541Y0241980D01*
X0299055Y0242367D01*
X0299569Y0241980D01*
X0299626Y0241923D01*
X0300277Y0241653D01*
X0300982Y0241653D01*
X0301633Y0241923D01*
X0301690Y0241980D01*
X0302204Y0242367D01*
X0302719Y0241980D01*
X0302776Y0241923D01*
X0302915Y0241865D01*
X0302915Y0241013D01*
X0302685Y0240918D01*
X0302186Y0240420D01*
X0302171Y0240383D01*
X0301541Y0239913D01*
X0301237Y0240030D01*
X0300883Y0240177D01*
X0300178Y0240177D01*
X0299526Y0239907D01*
X0299028Y0239409D01*
X0298758Y0238758D01*
X0298758Y0238053D01*
X0299028Y0237402D01*
X0299526Y0236903D01*
X0300178Y0236634D01*
X0300883Y0236634D01*
X0301534Y0236903D01*
X0302032Y0237402D01*
X0302047Y0237438D01*
X0302677Y0237908D01*
X0302981Y0237791D01*
X0303336Y0237644D01*
X0304040Y0237644D01*
X0304692Y0237914D01*
X0305190Y0238412D01*
X0305460Y0239064D01*
X0305460Y0239768D01*
X0305190Y0240420D01*
X0304692Y0240918D01*
X0304553Y0240975D01*
X0304553Y0241828D01*
X0304783Y0241923D01*
X0304840Y0241980D01*
X0305354Y0242367D01*
X0305869Y0241980D01*
X0305925Y0241923D01*
X0306576Y0241653D01*
X0307281Y0241653D01*
X0307933Y0241923D01*
X0307989Y0241980D01*
X0308504Y0242367D01*
X0309018Y0241980D01*
X0309075Y0241923D01*
X0309726Y0241653D01*
X0310431Y0241653D01*
X0311082Y0241923D01*
X0311139Y0241980D01*
X0311653Y0242367D01*
X0312168Y0241980D01*
X0312225Y0241923D01*
X0312876Y0241653D01*
X0313580Y0241653D01*
X0314232Y0241923D01*
X0314289Y0241980D01*
X0314803Y0242367D01*
X0315317Y0241980D01*
X0315374Y0241923D01*
X0316025Y0241653D01*
X0316730Y0241653D01*
X0317381Y0241923D01*
X0317438Y0241980D01*
X0317952Y0242367D01*
X0318467Y0241980D01*
X0318524Y0241923D01*
X0319175Y0241653D01*
X0319880Y0241653D01*
X0319921Y0241670D01*
X0320708Y0241144D01*
X0320708Y0235469D01*
X0319921Y0234943D01*
X0319880Y0234960D01*
X0319175Y0234960D01*
X0318524Y0234691D01*
X0318025Y0234192D01*
X0317948Y0234006D01*
X0317096Y0234006D01*
X0317019Y0234192D01*
X0316520Y0234691D01*
X0315869Y0234960D01*
X0315164Y0234960D01*
X0314513Y0234691D01*
X0314015Y0234192D01*
X0313745Y0233541D01*
X0313745Y0232836D01*
X0314015Y0232185D01*
X0314513Y0231687D01*
X0315164Y0231417D01*
X0315869Y0231417D01*
X0316520Y0231687D01*
X0317019Y0232185D01*
X0317096Y0232372D01*
X0317948Y0232372D01*
X0318025Y0232185D01*
X0318082Y0232128D01*
X0318469Y0231614D01*
X0318082Y0231100D01*
X0318025Y0231043D01*
X0317756Y0230391D01*
X0317756Y0229687D01*
X0318025Y0229036D01*
X0318082Y0228979D01*
X0318469Y0228464D01*
X0318082Y0227950D01*
X0318025Y0227893D01*
X0317756Y0227242D01*
X0317756Y0226537D01*
X0318025Y0225886D01*
X0318082Y0225829D01*
X0318469Y0225315D01*
X0318082Y0224800D01*
X0318025Y0224743D01*
X0317756Y0224092D01*
X0317756Y0223387D01*
X0318025Y0222736D01*
X0318082Y0222680D01*
X0318469Y0222165D01*
X0318082Y0221651D01*
X0318025Y0221594D01*
X0317756Y0220943D01*
X0317756Y0220238D01*
X0318025Y0219587D01*
X0318082Y0219530D01*
X0318469Y0219015D01*
X0318082Y0218501D01*
X0318025Y0218444D01*
X0317756Y0217793D01*
X0317756Y0217088D01*
X0318025Y0216437D01*
X0318082Y0216380D01*
X0318469Y0215866D01*
X0318082Y0215352D01*
X0318025Y0215295D01*
X0317756Y0214643D01*
X0317514Y0214482D01*
X0317499Y0214488D01*
X0316794Y0214488D01*
X0316143Y0214218D01*
X0315645Y0213720D01*
X0315375Y0213069D01*
X0315375Y0212364D01*
X0315645Y0211713D01*
X0316143Y0211214D01*
X0316794Y0210945D01*
X0317499Y0210945D01*
X0317514Y0210951D01*
X0317756Y0210789D01*
X0318025Y0210138D01*
X0318082Y0210081D01*
X0318469Y0209567D01*
X0318082Y0209052D01*
X0318025Y0208995D01*
X0317756Y0208344D01*
X0317756Y0207639D01*
X0318025Y0206988D01*
X0318082Y0206932D01*
X0318469Y0206417D01*
X0318082Y0205903D01*
X0318025Y0205846D01*
X0317939Y0205637D01*
X0317499Y0205039D01*
X0316794Y0205039D01*
X0316143Y0204769D01*
X0315645Y0204271D01*
X0315375Y0203620D01*
X0315375Y0202915D01*
X0315645Y0202264D01*
X0316143Y0201765D01*
X0316794Y0201496D01*
X0317499Y0201496D01*
X0317514Y0201502D01*
X0317756Y0201340D01*
X0318025Y0200689D01*
X0318082Y0200632D01*
X0318469Y0200118D01*
X0318082Y0199604D01*
X0318025Y0199547D01*
X0317756Y0198895D01*
X0317756Y0198191D01*
X0318025Y0197540D01*
X0318082Y0197483D01*
X0318469Y0196968D01*
X0318082Y0196454D01*
X0318025Y0196397D01*
X0317756Y0195746D01*
X0317756Y0195041D01*
X0318025Y0194390D01*
X0318082Y0194333D01*
X0318469Y0193819D01*
X0318082Y0193304D01*
X0318025Y0193247D01*
X0317756Y0192596D01*
X0317756Y0191891D01*
X0318025Y0191240D01*
X0318082Y0191183D01*
X0318469Y0190669D01*
X0318082Y0190155D01*
X0318025Y0190098D01*
X0317756Y0189447D01*
X0317756Y0188742D01*
X0318025Y0188091D01*
X0318082Y0188034D01*
X0318469Y0187519D01*
X0318082Y0187005D01*
X0318025Y0186948D01*
X0317756Y0186297D01*
X0317756Y0185592D01*
X0318025Y0184941D01*
X0318082Y0184884D01*
X0318469Y0184370D01*
X0318082Y0183855D01*
X0318025Y0183799D01*
X0317756Y0183147D01*
X0317756Y0182443D01*
X0318025Y0181792D01*
X0318082Y0181735D01*
X0318469Y0181220D01*
X0318082Y0180706D01*
X0318025Y0180649D01*
X0317756Y0179998D01*
X0317756Y0179293D01*
X0318025Y0178642D01*
X0318082Y0178585D01*
X0318469Y0178071D01*
X0318082Y0177556D01*
X0318025Y0177499D01*
X0317756Y0176848D01*
X0317756Y0176143D01*
X0318025Y0175492D01*
X0318082Y0175435D01*
X0318469Y0174921D01*
X0318082Y0174407D01*
X0318025Y0174350D01*
X0317756Y0173699D01*
X0317756Y0172994D01*
X0318025Y0172343D01*
X0318082Y0172286D01*
X0318469Y0171771D01*
X0318082Y0171257D01*
X0318025Y0171200D01*
X0317756Y0170549D01*
X0317756Y0169844D01*
X0318025Y0169193D01*
X0318082Y0169136D01*
X0318469Y0168622D01*
X0318082Y0168107D01*
X0318025Y0168050D01*
X0317756Y0167399D01*
X0317756Y0166695D01*
X0318025Y0166043D01*
X0318082Y0165987D01*
X0318469Y0165472D01*
X0318082Y0164958D01*
X0318025Y0164901D01*
X0317756Y0164250D01*
X0317756Y0163545D01*
X0317814Y0163404D01*
X0317212Y0162801D01*
X0317047Y0162869D01*
X0316342Y0162869D01*
X0315691Y0162599D01*
X0315193Y0162101D01*
X0314923Y0161450D01*
X0314923Y0160745D01*
X0315193Y0160094D01*
X0315691Y0159596D01*
X0316342Y0159326D01*
X0317047Y0159326D01*
X0318009Y0158877D01*
X0318044Y0158774D01*
X0318036Y0158612D01*
X0318025Y0158602D01*
X0317756Y0157951D01*
X0317756Y0157246D01*
X0318025Y0156595D01*
X0318082Y0156538D01*
X0318469Y0156023D01*
X0318082Y0155509D01*
X0318025Y0155452D01*
X0317756Y0154801D01*
X0317756Y0154096D01*
X0318025Y0153445D01*
X0318082Y0153388D01*
X0318469Y0152874D01*
X0318082Y0152359D01*
X0318025Y0152302D01*
X0317756Y0151651D01*
X0317756Y0150946D01*
X0318025Y0150295D01*
X0318082Y0150239D01*
X0318469Y0149724D01*
X0318082Y0149210D01*
X0318025Y0149153D01*
X0317756Y0148502D01*
X0317756Y0147797D01*
X0318025Y0147146D01*
X0318082Y0147089D01*
X0318469Y0146574D01*
X0318082Y0146060D01*
X0318025Y0146003D01*
X0317756Y0145352D01*
X0317756Y0144647D01*
X0318025Y0143996D01*
X0318082Y0143939D01*
X0318469Y0143425D01*
X0318082Y0142910D01*
X0318025Y0142854D01*
X0317756Y0142203D01*
X0317756Y0141498D01*
X0318025Y0140847D01*
X0318082Y0140790D01*
X0318469Y0140275D01*
X0318082Y0139761D01*
X0318025Y0139704D01*
X0317756Y0139053D01*
X0317756Y0138348D01*
X0318025Y0137697D01*
X0318082Y0137640D01*
X0318469Y0137126D01*
X0318082Y0136611D01*
X0318025Y0136555D01*
X0317756Y0135903D01*
X0317756Y0135199D01*
X0318025Y0134547D01*
X0318082Y0134490D01*
X0318469Y0133976D01*
X0318082Y0133462D01*
X0318025Y0133405D01*
X0317756Y0132754D01*
X0317756Y0132049D01*
X0318025Y0131398D01*
X0318082Y0131341D01*
X0318469Y0130826D01*
X0318082Y0130312D01*
X0318025Y0130255D01*
X0317756Y0129604D01*
X0317756Y0128899D01*
X0318025Y0128248D01*
X0318082Y0128191D01*
X0318469Y0127677D01*
X0318082Y0127163D01*
X0318025Y0127106D01*
X0317756Y0126454D01*
X0317756Y0125750D01*
X0318025Y0125098D01*
X0318524Y0124600D01*
X0319175Y0124330D01*
X0319880Y0124330D01*
X0319921Y0124347D01*
X0320708Y0123821D01*
X0320708Y0102005D01*
X0319921Y0101479D01*
X0319880Y0101496D01*
X0319175Y0101496D01*
X0318524Y0101226D01*
X0318025Y0100728D01*
X0317756Y0100077D01*
X0317756Y0099372D01*
X0318025Y0098721D01*
X0318032Y0098714D01*
X0318023Y0098573D01*
X0317980Y0098533D01*
X0317091Y0098377D01*
X0316440Y0098647D01*
X0315735Y0098647D01*
X0315084Y0098377D01*
X0314586Y0097879D01*
X0314316Y0097228D01*
X0314316Y0096523D01*
X0314586Y0095872D01*
X0315084Y0095373D01*
X0315735Y0095103D01*
X0316440Y0095103D01*
X0317091Y0095373D01*
X0317207Y0095489D01*
X0317986Y0095567D01*
X0318172Y0095425D01*
X0318524Y0095073D01*
X0319175Y0094803D01*
X0319880Y0094803D01*
X0319921Y0094820D01*
X0320708Y0094294D01*
X0320708Y0088701D01*
X0318757Y0088701D01*
X0318667Y0088917D01*
X0318169Y0089415D01*
X0317518Y0089685D01*
X0316813Y0089685D01*
X0316162Y0089415D01*
X0315663Y0088917D01*
X0315574Y0088701D01*
X0314032Y0088701D01*
X0313943Y0088917D01*
X0313444Y0089415D01*
X0312793Y0089685D01*
X0312088Y0089685D01*
X0311437Y0089415D01*
X0310939Y0088917D01*
X0310849Y0088701D01*
X0309308Y0088701D01*
X0309218Y0088917D01*
X0308720Y0089415D01*
X0308069Y0089685D01*
X0307364Y0089685D01*
X0306713Y0089415D01*
X0306214Y0088917D01*
X0306125Y0088701D01*
X0304583Y0088701D01*
X0304494Y0088917D01*
X0303995Y0089415D01*
X0303344Y0089685D01*
X0302640Y0089685D01*
X0301988Y0089415D01*
X0301490Y0088917D01*
X0301401Y0088701D01*
X0299859Y0088701D01*
X0299769Y0088917D01*
X0299271Y0089415D01*
X0298620Y0089685D01*
X0297915Y0089685D01*
X0297264Y0089415D01*
X0296766Y0088917D01*
X0296676Y0088701D01*
X0295528Y0088701D01*
X0295439Y0088917D01*
X0294940Y0089415D01*
X0294289Y0089685D01*
X0293584Y0089685D01*
X0293346Y0089844D01*
X0293346Y0090234D01*
X0293077Y0090885D01*
X0292578Y0091383D01*
X0291927Y0091653D01*
X0291222Y0091653D01*
X0290571Y0091383D01*
X0290073Y0090885D01*
X0289803Y0090234D01*
X0289803Y0089844D01*
X0289565Y0089685D01*
X0288860Y0089685D01*
X0288622Y0089844D01*
X0288622Y0090234D01*
X0288352Y0090885D01*
X0287854Y0091383D01*
X0287203Y0091653D01*
X0286498Y0091653D01*
X0285847Y0091383D01*
X0285348Y0090885D01*
X0285151Y0090409D01*
X0284863Y0089736D01*
X0284114Y0089736D01*
X0283825Y0090409D01*
X0283628Y0090885D01*
X0283129Y0091383D01*
X0282478Y0091653D01*
X0281773Y0091653D01*
X0281122Y0091383D01*
X0280624Y0090885D01*
X0280354Y0090234D01*
X0280354Y0089844D01*
X0280116Y0089685D01*
X0279411Y0089685D01*
X0279173Y0089844D01*
X0279173Y0090234D01*
X0278903Y0090885D01*
X0278405Y0091383D01*
X0277754Y0091653D01*
X0277049Y0091653D01*
X0276398Y0091383D01*
X0275900Y0090885D01*
X0275630Y0090234D01*
X0275630Y0089844D01*
X0275392Y0089685D01*
X0274687Y0089685D01*
X0274449Y0089844D01*
X0274449Y0090234D01*
X0274179Y0090885D01*
X0273681Y0091383D01*
X0273029Y0091653D01*
X0272325Y0091653D01*
X0271673Y0091383D01*
X0271175Y0090885D01*
X0270978Y0090409D01*
X0270689Y0089736D01*
X0269940Y0089736D01*
X0269652Y0090409D01*
X0269454Y0090885D01*
X0268956Y0091383D01*
X0268305Y0091653D01*
X0267600Y0091653D01*
X0266949Y0091383D01*
X0266451Y0090885D01*
X0266181Y0090234D01*
X0266181Y0089844D01*
X0265943Y0089685D01*
X0265238Y0089685D01*
X0265000Y0089844D01*
X0265000Y0090234D01*
X0264730Y0090885D01*
X0264232Y0091383D01*
X0263581Y0091653D01*
X0262876Y0091653D01*
X0262225Y0091383D01*
X0261726Y0090885D01*
X0261456Y0090234D01*
X0261456Y0089844D01*
X0261218Y0089685D01*
X0260514Y0089685D01*
X0260275Y0089844D01*
X0260275Y0090234D01*
X0260006Y0090885D01*
X0259507Y0091383D01*
X0258856Y0091653D01*
X0258151Y0091653D01*
X0257500Y0091383D01*
X0257002Y0090885D01*
X0256732Y0090234D01*
X0256732Y0089844D01*
X0256494Y0089685D01*
X0255789Y0089685D01*
X0255551Y0089844D01*
X0255551Y0090234D01*
X0255281Y0090885D01*
X0254783Y0091383D01*
X0254132Y0091653D01*
X0253427Y0091653D01*
X0252776Y0091383D01*
X0252277Y0090885D01*
X0252008Y0090234D01*
X0252008Y0089844D01*
X0251770Y0089685D01*
X0251065Y0089685D01*
X0250827Y0089844D01*
X0250827Y0090234D01*
X0250557Y0090885D01*
X0250058Y0091383D01*
X0249407Y0091653D01*
X0248702Y0091653D01*
X0248051Y0091383D01*
X0247553Y0090885D01*
X0247283Y0090234D01*
X0247283Y0089844D01*
X0247045Y0089685D01*
X0246340Y0089685D01*
X0246102Y0089844D01*
X0246102Y0090234D01*
X0245832Y0090885D01*
X0245334Y0091383D01*
X0244683Y0091653D01*
X0243978Y0091653D01*
X0243327Y0091383D01*
X0242829Y0090885D01*
X0242559Y0090234D01*
X0242559Y0089844D01*
X0242321Y0089685D01*
X0241616Y0089685D01*
X0241378Y0089844D01*
X0241378Y0090234D01*
X0241108Y0090885D01*
X0240610Y0091383D01*
X0239959Y0091653D01*
X0239254Y0091653D01*
X0238603Y0091383D01*
X0238104Y0090885D01*
X0237835Y0090234D01*
X0237835Y0089844D01*
X0237596Y0089685D01*
X0236891Y0089685D01*
X0236653Y0089844D01*
X0236653Y0090234D01*
X0236384Y0090885D01*
X0235885Y0091383D01*
X0235234Y0091653D01*
X0234529Y0091653D01*
X0233878Y0091383D01*
X0233380Y0090885D01*
X0233110Y0090234D01*
X0233110Y0089844D01*
X0232872Y0089685D01*
X0232167Y0089685D01*
X0231929Y0089844D01*
X0231929Y0090234D01*
X0231659Y0090885D01*
X0231161Y0091383D01*
X0230510Y0091653D01*
X0229805Y0091653D01*
X0229154Y0091383D01*
X0228655Y0090885D01*
X0228458Y0090409D01*
X0228170Y0089736D01*
X0227421Y0089736D01*
X0227132Y0090409D01*
X0226935Y0090885D01*
X0226436Y0091383D01*
X0225785Y0091653D01*
X0225080Y0091653D01*
X0224429Y0091383D01*
X0223931Y0090885D01*
X0223661Y0090234D01*
X0223661Y0089844D01*
X0223423Y0089685D01*
X0222718Y0089685D01*
X0222480Y0089844D01*
X0222480Y0090234D01*
X0222210Y0090885D01*
X0221712Y0091383D01*
X0221061Y0091653D01*
X0220356Y0091653D01*
X0219705Y0091383D01*
X0219207Y0090885D01*
X0219009Y0090409D01*
X0218721Y0089736D01*
X0217972Y0089736D01*
X0217684Y0090409D01*
X0217486Y0090885D01*
X0216988Y0091383D01*
X0216337Y0091653D01*
X0215632Y0091653D01*
X0214981Y0091383D01*
X0214482Y0090885D01*
X0214212Y0090234D01*
X0214212Y0089844D01*
X0213974Y0089685D01*
X0213269Y0089685D01*
X0213031Y0089844D01*
X0213031Y0090234D01*
X0212762Y0090885D01*
X0212263Y0091383D01*
X0211612Y0091653D01*
X0210907Y0091653D01*
X0210256Y0091383D01*
X0209758Y0090885D01*
X0209488Y0090234D01*
X0209488Y0089844D01*
X0209250Y0089685D01*
X0208545Y0089685D01*
X0208307Y0089844D01*
X0208307Y0090234D01*
X0208037Y0090885D01*
X0207539Y0091383D01*
X0206888Y0091653D01*
X0206183Y0091653D01*
X0205532Y0091383D01*
X0205033Y0090885D01*
X0204836Y0090409D01*
X0204548Y0089736D01*
X0203799Y0089736D01*
X0203510Y0090409D01*
X0203313Y0090885D01*
X0202814Y0091383D01*
X0202163Y0091653D01*
X0201458Y0091653D01*
X0200807Y0091383D01*
X0200309Y0090885D01*
X0200039Y0090234D01*
X0200039Y0089844D01*
X0199801Y0089685D01*
X0199096Y0089685D01*
X0198858Y0089844D01*
X0198858Y0090234D01*
X0198588Y0090885D01*
X0198090Y0091383D01*
X0197439Y0091653D01*
X0196734Y0091653D01*
X0196083Y0091383D01*
X0195585Y0090885D01*
X0195315Y0090234D01*
X0195315Y0089844D01*
X0195077Y0089685D01*
X0194372Y0089685D01*
X0194134Y0089844D01*
X0194134Y0090234D01*
X0193864Y0090885D01*
X0193366Y0091383D01*
X0192714Y0091653D01*
X0192010Y0091653D01*
X0191358Y0091383D01*
X0190860Y0090885D01*
X0190590Y0090234D01*
X0190590Y0089844D01*
X0190352Y0089685D01*
X0189647Y0089685D01*
X0189409Y0089844D01*
X0189409Y0090234D01*
X0189139Y0090885D01*
X0188641Y0091383D01*
X0187990Y0091653D01*
X0187285Y0091653D01*
X0186634Y0091383D01*
X0186136Y0090885D01*
X0185866Y0090234D01*
X0185866Y0089844D01*
X0185628Y0089685D01*
X0184923Y0089685D01*
X0184685Y0089844D01*
X0184685Y0090234D01*
X0184415Y0090885D01*
X0183917Y0091383D01*
X0183266Y0091653D01*
X0182561Y0091653D01*
X0181910Y0091383D01*
X0181411Y0090885D01*
X0181142Y0090234D01*
X0181142Y0089844D01*
X0180903Y0089685D01*
X0180199Y0089685D01*
X0179960Y0089844D01*
X0179960Y0090234D01*
X0179691Y0090885D01*
X0179192Y0091383D01*
X0178541Y0091653D01*
X0177836Y0091653D01*
X0177185Y0091383D01*
X0176687Y0090885D01*
X0176417Y0090234D01*
X0176133Y0090018D01*
X0175237Y0090237D01*
X0175164Y0090409D01*
X0174966Y0090885D01*
X0174468Y0091383D01*
X0173817Y0091653D01*
X0173112Y0091653D01*
X0172461Y0091383D01*
X0171962Y0090885D01*
X0171765Y0090409D01*
X0171521Y0089840D01*
X0171280Y0089797D01*
X0170512Y0090234D01*
X0170242Y0090885D01*
X0169744Y0091383D01*
X0169092Y0091653D01*
X0168387Y0091653D01*
X0167736Y0091383D01*
X0167238Y0090885D01*
X0166968Y0090234D01*
X0166968Y0089844D01*
X0166730Y0089685D01*
X0166025Y0089685D01*
X0165787Y0089844D01*
X0165787Y0090234D01*
X0165517Y0090885D01*
X0165019Y0091383D01*
X0164368Y0091653D01*
X0163663Y0091653D01*
X0163012Y0091383D01*
X0162514Y0090885D01*
X0162244Y0090234D01*
X0162244Y0089529D01*
X0162514Y0088878D01*
X0163012Y0088380D01*
X0163663Y0088110D01*
X0164368Y0088110D01*
X0164409Y0088082D01*
X0164409Y0086732D01*
X0159210Y0086732D01*
X0158683Y0087520D01*
X0158701Y0087561D01*
X0158701Y0088266D01*
X0158431Y0088917D01*
X0157933Y0089415D01*
X0157281Y0089685D01*
X0156576Y0089685D01*
X0155925Y0089415D01*
X0155427Y0088917D01*
X0155157Y0088266D01*
X0155157Y0087962D01*
X0154482Y0087375D01*
X0154430Y0087360D01*
X0154173Y0087438D01*
X0154173Y0095475D01*
X0154960Y0096001D01*
X0155002Y0095984D01*
X0155707Y0095984D01*
X0156358Y0096254D01*
X0156856Y0096752D01*
X0157126Y0097403D01*
X0157126Y0098108D01*
X0156856Y0098759D01*
X0156358Y0099258D01*
X0156260Y0099298D01*
X0156260Y0100150D01*
X0156358Y0100191D01*
X0156856Y0100689D01*
X0157126Y0101340D01*
X0157126Y0102045D01*
X0156856Y0102696D01*
X0156358Y0103195D01*
X0155707Y0103464D01*
X0155002Y0103464D01*
X0154960Y0103447D01*
X0154173Y0103973D01*
X0154173Y0124609D01*
X0154960Y0125135D01*
X0155002Y0125118D01*
X0155707Y0125118D01*
X0156358Y0125388D01*
X0156856Y0125886D01*
X0157126Y0126537D01*
X0157126Y0127242D01*
X0156856Y0127893D01*
X0156358Y0128391D01*
X0155707Y0128661D01*
X0155002Y0128661D01*
X0154960Y0128644D01*
X0154173Y0129170D01*
X0154173Y0140614D01*
X0154960Y0140771D01*
X0155132Y0140357D01*
X0155630Y0139859D01*
X0156281Y0139589D01*
X0156986Y0139589D01*
X0157637Y0139859D01*
X0158136Y0140357D01*
X0158405Y0141008D01*
X0158405Y0141713D01*
X0158136Y0142364D01*
X0157637Y0142862D01*
X0156986Y0143132D01*
X0156281Y0143132D01*
X0155630Y0142862D01*
X0155132Y0142364D01*
X0154960Y0141951D01*
X0154173Y0142107D01*
X0154173Y0148231D01*
X0154960Y0148757D01*
X0155002Y0148740D01*
X0155707Y0148740D01*
X0156358Y0149010D01*
X0156856Y0149508D01*
X0157126Y0150159D01*
X0157126Y0150864D01*
X0156856Y0151515D01*
X0156358Y0152013D01*
X0156260Y0152054D01*
X0156260Y0152906D01*
X0156358Y0152947D01*
X0156856Y0153445D01*
X0157126Y0154096D01*
X0157126Y0154801D01*
X0156856Y0155452D01*
X0156358Y0155950D01*
X0156260Y0155991D01*
X0156260Y0156843D01*
X0156358Y0156884D01*
X0156856Y0157382D01*
X0157126Y0158033D01*
X0157126Y0158738D01*
X0156856Y0159389D01*
X0156358Y0159887D01*
X0156260Y0159928D01*
X0156260Y0160780D01*
X0156358Y0160821D01*
X0156856Y0161319D01*
X0157126Y0161970D01*
X0157126Y0162675D01*
X0156856Y0163326D01*
X0156358Y0163824D01*
X0156260Y0163865D01*
X0156260Y0164717D01*
X0156358Y0164758D01*
X0156856Y0165256D01*
X0157126Y0165907D01*
X0157126Y0166612D01*
X0156856Y0167263D01*
X0156358Y0167761D01*
X0156260Y0167802D01*
X0156260Y0168654D01*
X0156358Y0168695D01*
X0156856Y0169193D01*
X0157126Y0169844D01*
X0157126Y0170549D01*
X0156856Y0171200D01*
X0156358Y0171698D01*
X0156260Y0171739D01*
X0156260Y0172591D01*
X0156358Y0172632D01*
X0156856Y0173130D01*
X0157126Y0173781D01*
X0157126Y0174486D01*
X0156856Y0175137D01*
X0156358Y0175635D01*
X0156260Y0175676D01*
X0156260Y0176528D01*
X0156358Y0176569D01*
X0156856Y0177067D01*
X0157126Y0177718D01*
X0157126Y0178423D01*
X0156856Y0179074D01*
X0156358Y0179572D01*
X0156260Y0179613D01*
X0156260Y0180465D01*
X0156358Y0180506D01*
X0156856Y0181004D01*
X0157126Y0181655D01*
X0157126Y0182360D01*
X0156856Y0183011D01*
X0156358Y0183509D01*
X0156260Y0183550D01*
X0156260Y0184402D01*
X0156358Y0184443D01*
X0156856Y0184941D01*
X0157126Y0185592D01*
X0157126Y0186297D01*
X0156856Y0186948D01*
X0156358Y0187447D01*
X0156260Y0187487D01*
X0156260Y0188339D01*
X0156358Y0188380D01*
X0156856Y0188878D01*
X0157126Y0189529D01*
X0157126Y0190234D01*
X0156856Y0190885D01*
X0156358Y0191383D01*
X0156260Y0191424D01*
X0156260Y0192276D01*
X0156358Y0192317D01*
X0156856Y0192815D01*
X0157126Y0193466D01*
X0157126Y0194171D01*
X0156856Y0194822D01*
X0156358Y0195321D01*
X0156260Y0195361D01*
X0156260Y0196213D01*
X0156358Y0196254D01*
X0156856Y0196752D01*
X0157126Y0197403D01*
X0157126Y0198108D01*
X0156856Y0198759D01*
X0156358Y0199257D01*
X0156260Y0199298D01*
X0156260Y0200150D01*
X0156358Y0200191D01*
X0156856Y0200689D01*
X0157126Y0201340D01*
X0157126Y0202045D01*
X0156856Y0202696D01*
X0156358Y0203195D01*
X0156260Y0203235D01*
X0156260Y0204087D01*
X0156358Y0204128D01*
X0156856Y0204626D01*
X0157077Y0205158D01*
X0157499Y0205257D01*
X0157896Y0205237D01*
X0157986Y0205020D01*
X0158484Y0204521D01*
X0159136Y0204252D01*
X0159840Y0204252D01*
X0160491Y0204521D01*
X0160990Y0205020D01*
X0161260Y0205671D01*
X0161260Y0206376D01*
X0160990Y0207027D01*
X0160491Y0207525D01*
X0159840Y0207795D01*
X0159136Y0207795D01*
X0158484Y0207525D01*
X0157986Y0207027D01*
X0157766Y0206495D01*
X0157343Y0206396D01*
X0156946Y0206417D01*
X0156856Y0206633D01*
X0156358Y0207131D01*
X0155707Y0207401D01*
X0155002Y0207401D01*
X0154960Y0207384D01*
X0154173Y0207910D01*
X0154173Y0240430D01*
X0154960Y0240970D01*
X0155194Y0240880D01*
X0155198Y0240866D01*
X0155157Y0240716D01*
X0155157Y0239835D01*
X0155385Y0238984D01*
X0155826Y0238221D01*
X0156449Y0237597D01*
X0157212Y0237157D01*
X0158063Y0236929D01*
X0158944Y0236929D01*
X0159795Y0237157D01*
X0160018Y0237285D01*
X0160545Y0237106D01*
X0161043Y0236608D01*
X0161695Y0236338D01*
X0162399Y0236338D01*
X0163051Y0236608D01*
X0163549Y0237106D01*
X0163819Y0237757D01*
X0163819Y0238462D01*
X0163549Y0239114D01*
X0163051Y0239612D01*
X0162399Y0239882D01*
X0161850Y0239882D01*
X0161850Y0240716D01*
X0161622Y0241567D01*
X0161182Y0242330D01*
X0160558Y0242953D01*
X0159795Y0243394D01*
X0158944Y0243622D01*
X0158063Y0243622D01*
X0157913Y0243582D01*
X0157899Y0243585D01*
X0157809Y0243819D01*
X0158349Y0244606D01*
X0176696Y0244606D01*
X0177222Y0243819D01*
X0177204Y0243777D01*
X0177204Y0243073D01*
X0177474Y0242421D01*
X0177973Y0241923D01*
X0178624Y0241653D01*
X0179329Y0241653D01*
X0179980Y0241923D01*
X0180037Y0241980D01*
X0180551Y0242367D01*
X0181065Y0241980D01*
X0181122Y0241923D01*
X0181773Y0241653D01*
X0182478Y0241653D01*
X0183129Y0241923D01*
X0183186Y0241980D01*
X0183701Y0242367D01*
X0184215Y0241980D01*
X0184272Y0241923D01*
X0184923Y0241653D01*
X0185628Y0241653D01*
X0186279Y0241923D01*
X0186399Y0241895D01*
X0186987Y0241059D01*
X0186987Y0240287D01*
X0187187Y0239540D01*
X0187573Y0238871D01*
X0188119Y0238325D01*
X0188788Y0237939D01*
X0189535Y0237739D01*
X0190307Y0237739D01*
X0191054Y0237939D01*
X0191723Y0238325D01*
X0192269Y0238871D01*
X0192655Y0239540D01*
X0192855Y0240287D01*
X0192855Y0241059D01*
X0192655Y0241805D01*
X0192269Y0242475D01*
X0191723Y0243021D01*
X0191054Y0243407D01*
X0190307Y0243607D01*
X0189535Y0243607D01*
X0188788Y0243407D01*
X0188119Y0243021D01*
X0187707Y0242609D01*
X0187040Y0243055D01*
X0187047Y0243073D01*
X0187047Y0243777D01*
X0187030Y0243819D01*
X0187556Y0244606D01*
X0213703Y0244606D01*
X0214230Y0243819D01*
X0214212Y0243777D01*
X0214212Y0243073D01*
X0214482Y0242421D01*
X0214981Y0241923D01*
X0215632Y0241653D01*
X0216337Y0241653D01*
X0216988Y0241923D01*
X0217044Y0241980D01*
X0217559Y0242367D01*
X0218073Y0241980D01*
X0218130Y0241923D01*
X0218781Y0241653D01*
X0219486Y0241653D01*
X0220137Y0241923D01*
X0220194Y0241980D01*
X0220709Y0242367D01*
X0221223Y0241980D01*
X0221280Y0241923D01*
X0221931Y0241653D01*
X0222092Y0241411D01*
X0222086Y0241397D01*
X0222086Y0240692D01*
X0222356Y0240041D01*
X0222855Y0239542D01*
X0223506Y0239273D01*
X0224211Y0239273D01*
X0224862Y0239542D01*
X0225360Y0240041D01*
X0225630Y0240692D01*
X0225630Y0241397D01*
X0226227Y0241836D01*
X0226436Y0241923D01*
X0226493Y0241980D01*
X0227008Y0242367D01*
X0227522Y0241980D01*
X0227579Y0241923D01*
X0228230Y0241653D01*
X0228935Y0241653D01*
X0229586Y0241923D01*
X0230084Y0242421D01*
X0230354Y0243073D01*
X0230354Y0243777D01*
X0230337Y0243819D01*
X0230863Y0244606D01*
X0237210Y0244606D01*
X0237366Y0243819D01*
X0236953Y0243647D01*
X0236454Y0243149D01*
X0236198Y0243098D01*
X0236073Y0243223D01*
X0235421Y0243493D01*
X0234717Y0243493D01*
X0234066Y0243223D01*
X0233567Y0242725D01*
X0233297Y0242073D01*
X0233297Y0241369D01*
X0233567Y0240718D01*
X0234066Y0240219D01*
X0234717Y0239949D01*
X0235421Y0239949D01*
X0236073Y0240219D01*
X0236571Y0240718D01*
X0236828Y0240768D01*
X0236953Y0240643D01*
X0237604Y0240374D01*
X0238309Y0240374D01*
X0238960Y0240643D01*
X0239458Y0241142D01*
X0239728Y0241793D01*
X0239728Y0242498D01*
X0239458Y0243149D01*
X0238960Y0243647D01*
X0238546Y0243819D01*
X0238703Y0244606D01*
X0243918Y0244606D01*
X0243926Y0243822D01*
X0243858Y0243794D01*
X0243275Y0243552D01*
X0242776Y0243054D01*
X0242507Y0242403D01*
X0242507Y0241698D01*
X0242776Y0241047D01*
X0243275Y0240548D01*
X0243926Y0240279D01*
X0244631Y0240279D01*
X0245282Y0240548D01*
X0245780Y0241047D01*
X0246050Y0241698D01*
X0246050Y0242403D01*
X0245780Y0243054D01*
X0245282Y0243552D01*
X0244699Y0243794D01*
X0244631Y0243822D01*
X0244639Y0244606D01*
X0247955Y0244606D01*
X0248482Y0243819D01*
D02*
G37*
%LPC*%
G36*
X0207675Y0241653D02*
X0206970Y0241653D01*
X0206319Y0241384D01*
X0205821Y0240885D01*
X0205551Y0240234D01*
X0205551Y0239529D01*
X0205821Y0238878D01*
X0206319Y0238380D01*
X0206553Y0238283D01*
X0206987Y0237956D01*
X0207057Y0237323D01*
X0206987Y0237059D01*
X0206987Y0236287D01*
X0207187Y0235540D01*
X0207573Y0234871D01*
X0208119Y0234325D01*
X0208788Y0233939D01*
X0209535Y0233739D01*
X0210307Y0233739D01*
X0211054Y0233939D01*
X0211723Y0234325D01*
X0212269Y0234871D01*
X0212655Y0235540D01*
X0212855Y0236287D01*
X0212855Y0237059D01*
X0212655Y0237806D01*
X0212269Y0238475D01*
X0211723Y0239021D01*
X0211054Y0239407D01*
X0210307Y0239607D01*
X0209822Y0239607D01*
X0209535Y0239607D01*
X0209094Y0240234D01*
X0208824Y0240885D01*
X0208326Y0241384D01*
X0207675Y0241653D01*
D02*
G37*
G36*
X0216533Y0237263D02*
X0215828Y0237263D01*
X0215177Y0236994D01*
X0214679Y0236495D01*
X0214409Y0235844D01*
X0214409Y0235139D01*
X0214679Y0234488D01*
X0215177Y0233990D01*
X0215828Y0233720D01*
X0216533Y0233720D01*
X0217184Y0233990D01*
X0217683Y0234488D01*
X0217952Y0235139D01*
X0217952Y0235844D01*
X0217683Y0236495D01*
X0217184Y0236994D01*
X0216533Y0237263D01*
D02*
G37*
G36*
X0180013Y0236441D02*
X0179309Y0236441D01*
X0178658Y0236171D01*
X0178159Y0235673D01*
X0177890Y0235022D01*
X0177890Y0234317D01*
X0178159Y0233665D01*
X0178658Y0233167D01*
X0179309Y0232897D01*
X0180013Y0232897D01*
X0180665Y0233167D01*
X0181163Y0233665D01*
X0181433Y0234317D01*
X0181433Y0235022D01*
X0181163Y0235673D01*
X0180665Y0236171D01*
X0180013Y0236441D01*
D02*
G37*
G36*
X0268191Y0236028D02*
X0267487Y0236028D01*
X0266835Y0235758D01*
X0266337Y0235260D01*
X0266067Y0234609D01*
X0266067Y0233904D01*
X0266337Y0233253D01*
X0266835Y0232754D01*
X0267487Y0232485D01*
X0268191Y0232485D01*
X0268843Y0232754D01*
X0269341Y0233253D01*
X0269611Y0233904D01*
X0269611Y0234609D01*
X0269341Y0235260D01*
X0268843Y0235758D01*
X0268191Y0236028D01*
D02*
G37*
G36*
X0259937Y0235371D02*
X0259232Y0235371D01*
X0258581Y0235101D01*
X0258083Y0234603D01*
X0257813Y0233951D01*
X0257813Y0233247D01*
X0258083Y0232595D01*
X0258581Y0232097D01*
X0259232Y0231827D01*
X0259937Y0231827D01*
X0260588Y0232097D01*
X0261086Y0232595D01*
X0261356Y0233247D01*
X0261356Y0233951D01*
X0261086Y0234603D01*
X0260588Y0235101D01*
X0259937Y0235371D01*
D02*
G37*
G36*
X0228837Y0235354D02*
X0228133Y0235354D01*
X0227481Y0235084D01*
X0226983Y0234586D01*
X0226713Y0233935D01*
X0226713Y0233230D01*
X0226983Y0232579D01*
X0227481Y0232081D01*
X0228133Y0231811D01*
X0228837Y0231811D01*
X0229489Y0232081D01*
X0229862Y0232454D01*
X0230334Y0231982D01*
X0230985Y0231712D01*
X0231690Y0231712D01*
X0232341Y0231982D01*
X0232840Y0232480D01*
X0233109Y0233132D01*
X0233109Y0233836D01*
X0232840Y0234488D01*
X0232341Y0234986D01*
X0231690Y0235256D01*
X0230985Y0235256D01*
X0230334Y0234986D01*
X0229961Y0234612D01*
X0229489Y0235084D01*
X0228837Y0235354D01*
D02*
G37*
G36*
X0296668Y0236239D02*
X0295963Y0236239D01*
X0295312Y0235970D01*
X0294813Y0235471D01*
X0294544Y0234820D01*
X0294544Y0234115D01*
X0294813Y0233464D01*
X0295312Y0232966D01*
X0295963Y0232696D01*
X0296668Y0232696D01*
X0297325Y0232863D01*
X0297595Y0232211D01*
X0298093Y0231713D01*
X0298745Y0231443D01*
X0299449Y0231443D01*
X0300101Y0231713D01*
X0300599Y0232211D01*
X0300869Y0232863D01*
X0300869Y0233567D01*
X0300599Y0234219D01*
X0300101Y0234717D01*
X0299449Y0234987D01*
X0298745Y0234987D01*
X0298087Y0234820D01*
X0297817Y0235471D01*
X0297319Y0235970D01*
X0296668Y0236239D01*
D02*
G37*
G36*
X0240746Y0234960D02*
X0240041Y0234960D01*
X0239390Y0234691D01*
X0238892Y0234192D01*
X0238622Y0233541D01*
X0238622Y0232836D01*
X0238892Y0232185D01*
X0239390Y0231687D01*
X0240041Y0231417D01*
X0240746Y0231417D01*
X0241397Y0231687D01*
X0241895Y0232185D01*
X0242165Y0232836D01*
X0242165Y0233541D01*
X0241895Y0234192D01*
X0241397Y0234691D01*
X0240746Y0234960D01*
D02*
G37*
G36*
X0287203Y0235354D02*
X0286498Y0235354D01*
X0285847Y0235084D01*
X0285348Y0234586D01*
X0284447Y0234173D01*
X0283742Y0234173D01*
X0283091Y0233903D01*
X0282592Y0233405D01*
X0282323Y0232754D01*
X0282323Y0232049D01*
X0282592Y0231398D01*
X0283091Y0230899D01*
X0283742Y0230630D01*
X0284447Y0230630D01*
X0285098Y0230899D01*
X0285596Y0231398D01*
X0286498Y0231811D01*
X0287203Y0231811D01*
X0287854Y0232081D01*
X0288352Y0232579D01*
X0288622Y0233230D01*
X0288622Y0233935D01*
X0288352Y0234586D01*
X0287854Y0235084D01*
X0287203Y0235354D01*
D02*
G37*
G36*
X0187420Y0237410D02*
X0186715Y0237410D01*
X0186064Y0237140D01*
X0185566Y0236642D01*
X0185296Y0235991D01*
X0185296Y0235286D01*
X0185566Y0234635D01*
X0186064Y0234136D01*
X0186474Y0233966D01*
X0186715Y0233867D01*
X0186992Y0233079D01*
X0186987Y0233059D01*
X0186987Y0232287D01*
X0187167Y0231614D01*
X0187164Y0231493D01*
X0186778Y0230673D01*
X0186498Y0230557D01*
X0185999Y0230058D01*
X0185730Y0229407D01*
X0185730Y0229086D01*
X0184942Y0228834D01*
X0184622Y0229153D01*
X0183971Y0229423D01*
X0183266Y0229423D01*
X0182615Y0229153D01*
X0182117Y0228655D01*
X0181847Y0228004D01*
X0181847Y0227299D01*
X0182117Y0226648D01*
X0182495Y0226270D01*
X0182615Y0226150D01*
X0182266Y0225503D01*
X0182194Y0225510D01*
X0182183Y0225511D01*
X0182131Y0225511D01*
X0181478Y0225511D01*
X0180827Y0225242D01*
X0180328Y0224743D01*
X0180059Y0224092D01*
X0180059Y0223387D01*
X0180328Y0222736D01*
X0180827Y0222238D01*
X0181478Y0221968D01*
X0182183Y0221968D01*
X0182834Y0222238D01*
X0182900Y0222304D01*
X0183546Y0222582D01*
X0183928Y0222304D01*
X0184117Y0222115D01*
X0184768Y0221845D01*
X0185473Y0221845D01*
X0186124Y0222115D01*
X0186623Y0222613D01*
X0186892Y0223264D01*
X0186892Y0223969D01*
X0186623Y0224620D01*
X0186124Y0225119D01*
X0185473Y0225388D01*
X0184950Y0225388D01*
X0184768Y0225388D01*
X0184550Y0226085D01*
X0184615Y0226143D01*
X0184622Y0226150D01*
X0184661Y0226188D01*
X0185121Y0226648D01*
X0185391Y0227299D01*
X0185391Y0227621D01*
X0186178Y0227873D01*
X0186498Y0227553D01*
X0187149Y0227283D01*
X0187854Y0227283D01*
X0188505Y0227553D01*
X0189003Y0228051D01*
X0189273Y0228703D01*
X0189273Y0228994D01*
X0189447Y0229488D01*
X0189988Y0229739D01*
X0190307Y0229739D01*
X0191054Y0229939D01*
X0191723Y0230325D01*
X0192269Y0230871D01*
X0192561Y0231377D01*
X0193106Y0231433D01*
X0193421Y0231357D01*
X0193519Y0231122D01*
X0194017Y0230624D01*
X0194668Y0230354D01*
X0195373Y0230354D01*
X0196024Y0230624D01*
X0196523Y0231122D01*
X0196792Y0231773D01*
X0196792Y0232478D01*
X0196523Y0233129D01*
X0196024Y0233628D01*
X0195373Y0233897D01*
X0194668Y0233897D01*
X0194017Y0233628D01*
X0193610Y0233221D01*
X0193134Y0233258D01*
X0192770Y0233379D01*
X0192655Y0233805D01*
X0192269Y0234475D01*
X0191723Y0235021D01*
X0191054Y0235407D01*
X0190307Y0235607D01*
X0189535Y0235607D01*
X0189390Y0235568D01*
X0188839Y0235991D01*
X0188569Y0236642D01*
X0188071Y0237140D01*
X0187420Y0237410D01*
D02*
G37*
G36*
X0202088Y0235453D02*
X0201383Y0235453D01*
X0200732Y0235183D01*
X0200234Y0234684D01*
X0199964Y0234033D01*
X0199964Y0233328D01*
X0200234Y0232677D01*
X0200732Y0232179D01*
X0201066Y0232041D01*
X0201140Y0231885D01*
X0201235Y0231182D01*
X0200899Y0230846D01*
X0200641Y0230223D01*
X0200075Y0230458D01*
X0199370Y0230458D01*
X0198719Y0230188D01*
X0198220Y0229689D01*
X0197950Y0229038D01*
X0197174Y0228839D01*
X0196469Y0228839D01*
X0195818Y0228570D01*
X0195797Y0228549D01*
X0194826Y0228441D01*
X0194175Y0228710D01*
X0193470Y0228710D01*
X0192819Y0228441D01*
X0192320Y0227942D01*
X0192051Y0227291D01*
X0192051Y0226586D01*
X0192320Y0225935D01*
X0192819Y0225437D01*
X0193470Y0225167D01*
X0194175Y0225167D01*
X0194826Y0225437D01*
X0195324Y0225935D01*
X0195428Y0225956D01*
X0195818Y0225566D01*
X0196469Y0225296D01*
X0197174Y0225296D01*
X0197825Y0225566D01*
X0198324Y0226064D01*
X0198593Y0226715D01*
X0199370Y0226914D01*
X0200075Y0226914D01*
X0200726Y0227184D01*
X0201224Y0227682D01*
X0201482Y0228305D01*
X0202049Y0228071D01*
X0202754Y0228071D01*
X0203405Y0228340D01*
X0203903Y0228839D01*
X0204173Y0229490D01*
X0204173Y0230195D01*
X0203903Y0230846D01*
X0203405Y0231344D01*
X0203071Y0231482D01*
X0202997Y0231638D01*
X0202902Y0232341D01*
X0203238Y0232677D01*
X0203507Y0233328D01*
X0203507Y0234033D01*
X0203238Y0234684D01*
X0202739Y0235183D01*
X0202088Y0235453D01*
D02*
G37*
G36*
X0247045Y0232204D02*
X0246340Y0232204D01*
X0245689Y0231935D01*
X0245191Y0231436D01*
X0244921Y0230785D01*
X0244921Y0230080D01*
X0245191Y0229429D01*
X0245689Y0228931D01*
X0246340Y0228661D01*
X0247045Y0228661D01*
X0247696Y0228931D01*
X0248195Y0229429D01*
X0248464Y0230080D01*
X0248464Y0230785D01*
X0248195Y0231436D01*
X0247696Y0231935D01*
X0247045Y0232204D01*
D02*
G37*
G36*
X0221061Y0231417D02*
X0220356Y0231417D01*
X0219705Y0231147D01*
X0219207Y0230649D01*
X0218937Y0229998D01*
X0218937Y0229293D01*
X0219207Y0228642D01*
X0219705Y0228143D01*
X0220356Y0227874D01*
X0221061Y0227874D01*
X0221712Y0228143D01*
X0222210Y0228642D01*
X0222480Y0229293D01*
X0222480Y0229998D01*
X0222210Y0230649D01*
X0221712Y0231147D01*
X0221061Y0231417D01*
D02*
G37*
G36*
X0243105Y0230167D02*
X0242400Y0230167D01*
X0241749Y0229898D01*
X0241251Y0229399D01*
X0240981Y0228748D01*
X0240981Y0228043D01*
X0241251Y0227392D01*
X0241749Y0226894D01*
X0242400Y0226624D01*
X0243105Y0226624D01*
X0243756Y0226894D01*
X0244255Y0227392D01*
X0244524Y0228043D01*
X0244524Y0228748D01*
X0244255Y0229399D01*
X0243756Y0229898D01*
X0243105Y0230167D01*
D02*
G37*
G36*
X0302133Y0228286D02*
X0301428Y0228286D01*
X0300777Y0228016D01*
X0300279Y0227518D01*
X0300009Y0226867D01*
X0300009Y0226162D01*
X0300279Y0225511D01*
X0300777Y0225012D01*
X0301428Y0224743D01*
X0302133Y0224743D01*
X0302784Y0225012D01*
X0303282Y0225511D01*
X0303552Y0226162D01*
X0303552Y0226867D01*
X0303282Y0227518D01*
X0302784Y0228016D01*
X0302133Y0228286D01*
D02*
G37*
G36*
X0268733Y0229634D02*
X0268028Y0229634D01*
X0267377Y0229364D01*
X0266879Y0228866D01*
X0266609Y0228215D01*
X0266609Y0227510D01*
X0266879Y0226859D01*
X0267377Y0226361D01*
X0268028Y0226091D01*
X0268733Y0226091D01*
X0269273Y0226314D01*
X0269382Y0226284D01*
X0269680Y0226122D01*
X0270000Y0225863D01*
X0270000Y0225405D01*
X0270270Y0224754D01*
X0270768Y0224256D01*
X0271419Y0223986D01*
X0272124Y0223986D01*
X0272775Y0224256D01*
X0273274Y0224754D01*
X0273543Y0225405D01*
X0273543Y0226110D01*
X0273274Y0226761D01*
X0272775Y0227259D01*
X0272124Y0227529D01*
X0271419Y0227529D01*
X0270880Y0227306D01*
X0270771Y0227336D01*
X0270473Y0227498D01*
X0270152Y0227757D01*
X0270152Y0228215D01*
X0269882Y0228866D01*
X0269384Y0229364D01*
X0268733Y0229634D01*
D02*
G37*
G36*
X0177250Y0227504D02*
X0176545Y0227504D01*
X0175894Y0227234D01*
X0175396Y0226736D01*
X0175126Y0226085D01*
X0175126Y0225380D01*
X0175396Y0224729D01*
X0175894Y0224231D01*
X0176545Y0223961D01*
X0177250Y0223961D01*
X0177901Y0224231D01*
X0178400Y0224729D01*
X0178669Y0225380D01*
X0178669Y0226085D01*
X0178400Y0226736D01*
X0177901Y0227234D01*
X0177250Y0227504D01*
D02*
G37*
G36*
X0168612Y0225483D02*
X0167907Y0225483D01*
X0167256Y0225213D01*
X0166758Y0224715D01*
X0166488Y0224064D01*
X0166488Y0223888D01*
X0165701Y0223731D01*
X0165671Y0223803D01*
X0165173Y0224301D01*
X0164522Y0224571D01*
X0163817Y0224571D01*
X0163165Y0224301D01*
X0162667Y0223803D01*
X0162397Y0223151D01*
X0162397Y0222447D01*
X0162667Y0221796D01*
X0163165Y0221297D01*
X0163817Y0221027D01*
X0164522Y0221027D01*
X0165173Y0221297D01*
X0165671Y0221796D01*
X0165941Y0222447D01*
X0165941Y0222622D01*
X0166728Y0222779D01*
X0166758Y0222708D01*
X0167256Y0222209D01*
X0167907Y0221939D01*
X0168612Y0221939D01*
X0169263Y0222209D01*
X0169762Y0222708D01*
X0170031Y0223359D01*
X0170031Y0224064D01*
X0169762Y0224715D01*
X0169263Y0225213D01*
X0168612Y0225483D01*
D02*
G37*
G36*
X0288697Y0228563D02*
X0287992Y0228563D01*
X0287341Y0228293D01*
X0286842Y0227795D01*
X0286573Y0227143D01*
X0286573Y0226439D01*
X0286842Y0225788D01*
X0287341Y0225289D01*
X0287992Y0225019D01*
X0288697Y0225019D01*
X0289250Y0224396D01*
X0289285Y0224311D01*
X0289784Y0223813D01*
X0290435Y0223543D01*
X0291140Y0223543D01*
X0291791Y0223813D01*
X0292289Y0224311D01*
X0292559Y0224962D01*
X0292559Y0225667D01*
X0292289Y0226318D01*
X0291791Y0226817D01*
X0291140Y0227086D01*
X0290435Y0227086D01*
X0289881Y0227710D01*
X0289846Y0227795D01*
X0289348Y0228293D01*
X0288697Y0228563D01*
D02*
G37*
G36*
X0209911Y0228463D02*
X0209206Y0228463D01*
X0208555Y0228193D01*
X0208056Y0227695D01*
X0207787Y0227044D01*
X0207787Y0226339D01*
X0207806Y0226291D01*
X0207806Y0225439D01*
X0207308Y0224940D01*
X0207038Y0224289D01*
X0207038Y0223584D01*
X0207308Y0222933D01*
X0207806Y0222435D01*
X0208457Y0222165D01*
X0209162Y0222165D01*
X0209813Y0222435D01*
X0210312Y0222933D01*
X0210582Y0223584D01*
X0210582Y0224289D01*
X0210562Y0224337D01*
X0210562Y0225189D01*
X0211060Y0225688D01*
X0211330Y0226339D01*
X0211330Y0227044D01*
X0211060Y0227695D01*
X0210562Y0228193D01*
X0209911Y0228463D01*
D02*
G37*
G36*
X0220491Y0223658D02*
X0219787Y0223658D01*
X0219135Y0223389D01*
X0218637Y0222890D01*
X0218367Y0222239D01*
X0218367Y0221534D01*
X0218637Y0220883D01*
X0219135Y0220385D01*
X0219787Y0220115D01*
X0220491Y0220115D01*
X0221143Y0220385D01*
X0221641Y0220883D01*
X0221911Y0221534D01*
X0221911Y0222239D01*
X0221641Y0222890D01*
X0221143Y0223389D01*
X0220491Y0223658D01*
D02*
G37*
G36*
X0251770Y0222756D02*
X0251065Y0222756D01*
X0250414Y0222486D01*
X0249915Y0221988D01*
X0249646Y0221336D01*
X0249646Y0220632D01*
X0249915Y0219980D01*
X0250414Y0219482D01*
X0251065Y0219212D01*
X0251770Y0219212D01*
X0252421Y0219482D01*
X0252919Y0219980D01*
X0253189Y0220632D01*
X0253189Y0221336D01*
X0252919Y0221988D01*
X0252421Y0222486D01*
X0251770Y0222756D01*
D02*
G37*
G36*
X0212409Y0222396D02*
X0211704Y0222396D01*
X0211053Y0222126D01*
X0210554Y0221628D01*
X0210284Y0220977D01*
X0210284Y0220272D01*
X0210554Y0219621D01*
X0211053Y0219122D01*
X0211704Y0218853D01*
X0212409Y0218853D01*
X0213060Y0219122D01*
X0213558Y0219621D01*
X0213828Y0220272D01*
X0213828Y0220977D01*
X0213558Y0221628D01*
X0213060Y0222126D01*
X0212409Y0222396D01*
D02*
G37*
G36*
X0230903Y0222362D02*
X0230199Y0222362D01*
X0229547Y0222092D01*
X0229049Y0221594D01*
X0228779Y0220943D01*
X0228779Y0220238D01*
X0229049Y0219587D01*
X0229547Y0219088D01*
X0230199Y0218819D01*
X0230903Y0218819D01*
X0231554Y0219088D01*
X0232053Y0219587D01*
X0232323Y0220238D01*
X0232323Y0220943D01*
X0232053Y0221594D01*
X0231554Y0222092D01*
X0230903Y0222362D01*
D02*
G37*
G36*
X0307755Y0224134D02*
X0307050Y0224134D01*
X0306399Y0223864D01*
X0305901Y0223366D01*
X0305631Y0222714D01*
X0305631Y0222351D01*
X0305563Y0222305D01*
X0304858Y0222305D01*
X0304207Y0222036D01*
X0303709Y0221537D01*
X0303439Y0220886D01*
X0303439Y0220181D01*
X0303709Y0219530D01*
X0304207Y0219032D01*
X0304858Y0218762D01*
X0305563Y0218762D01*
X0306214Y0219032D01*
X0306713Y0219530D01*
X0306982Y0220181D01*
X0306982Y0220545D01*
X0307050Y0220590D01*
X0307755Y0220590D01*
X0308406Y0220860D01*
X0308905Y0221358D01*
X0309174Y0222009D01*
X0309174Y0222714D01*
X0308905Y0223366D01*
X0308406Y0223864D01*
X0307755Y0224134D01*
D02*
G37*
G36*
X0204643Y0217335D02*
X0203938Y0217335D01*
X0203287Y0217065D01*
X0202788Y0216567D01*
X0202714Y0216388D01*
X0202409Y0216308D01*
X0201827Y0216304D01*
X0201447Y0216684D01*
X0200796Y0216954D01*
X0200091Y0216954D01*
X0199440Y0216684D01*
X0198942Y0216186D01*
X0198672Y0215535D01*
X0198672Y0214830D01*
X0198942Y0214179D01*
X0199440Y0213680D01*
X0200091Y0213411D01*
X0200796Y0213411D01*
X0201447Y0213680D01*
X0201945Y0214179D01*
X0202020Y0214358D01*
X0202324Y0214438D01*
X0202907Y0214442D01*
X0203287Y0214062D01*
X0203938Y0213792D01*
X0204643Y0213792D01*
X0205294Y0214062D01*
X0205792Y0214560D01*
X0206062Y0215211D01*
X0206062Y0215916D01*
X0205792Y0216567D01*
X0205294Y0217065D01*
X0204643Y0217335D01*
D02*
G37*
G36*
X0197045Y0219606D02*
X0196340Y0219606D01*
X0195689Y0219336D01*
X0195191Y0218838D01*
X0194921Y0218187D01*
X0194921Y0217482D01*
X0195191Y0216831D01*
X0195689Y0216332D01*
X0196340Y0216063D01*
X0197045Y0216063D01*
X0197696Y0216332D01*
X0198195Y0216831D01*
X0198464Y0217482D01*
X0198464Y0218187D01*
X0198195Y0218838D01*
X0197696Y0219336D01*
X0197045Y0219606D01*
D02*
G37*
G36*
X0278098Y0220787D02*
X0277393Y0220787D01*
X0276742Y0220517D01*
X0276244Y0220019D01*
X0275974Y0219368D01*
X0275974Y0218663D01*
X0275258Y0218335D01*
X0274823Y0218155D01*
X0274325Y0217657D01*
X0274055Y0217006D01*
X0274055Y0216301D01*
X0274325Y0215650D01*
X0274823Y0215151D01*
X0275474Y0214882D01*
X0276179Y0214882D01*
X0276830Y0215151D01*
X0277328Y0215650D01*
X0277598Y0216301D01*
X0277598Y0217006D01*
X0278315Y0217334D01*
X0278749Y0217514D01*
X0279248Y0218012D01*
X0279518Y0218663D01*
X0279518Y0219368D01*
X0279248Y0220019D01*
X0278749Y0220517D01*
X0278098Y0220787D01*
D02*
G37*
G36*
X0175391Y0216456D02*
X0174687Y0216456D01*
X0174036Y0216187D01*
X0173537Y0215688D01*
X0173267Y0215037D01*
X0173267Y0214332D01*
X0173537Y0213681D01*
X0174036Y0213183D01*
X0174687Y0212913D01*
X0175391Y0212913D01*
X0176043Y0213183D01*
X0176541Y0213681D01*
X0176811Y0214332D01*
X0176811Y0215037D01*
X0176541Y0215688D01*
X0176043Y0216187D01*
X0175391Y0216456D01*
D02*
G37*
G36*
X0219176Y0218916D02*
X0218471Y0218916D01*
X0217820Y0218646D01*
X0217322Y0218148D01*
X0217052Y0217497D01*
X0217052Y0216792D01*
X0217322Y0216141D01*
X0217703Y0215759D01*
X0217238Y0215295D01*
X0216968Y0214643D01*
X0216968Y0213939D01*
X0217238Y0213288D01*
X0217736Y0212789D01*
X0218387Y0212519D01*
X0219092Y0212519D01*
X0219743Y0212789D01*
X0220242Y0213288D01*
X0220512Y0213939D01*
X0220512Y0214643D01*
X0220242Y0215295D01*
X0219861Y0215676D01*
X0220326Y0216141D01*
X0220595Y0216792D01*
X0220595Y0217497D01*
X0220326Y0218148D01*
X0219827Y0218646D01*
X0219176Y0218916D01*
D02*
G37*
G36*
X0167222Y0216052D02*
X0166517Y0216052D01*
X0165866Y0215782D01*
X0165368Y0215283D01*
X0165098Y0214632D01*
X0165098Y0213927D01*
X0165368Y0213276D01*
X0165866Y0212778D01*
X0166517Y0212508D01*
X0167222Y0212508D01*
X0167873Y0212778D01*
X0168372Y0213276D01*
X0168642Y0213927D01*
X0168642Y0214632D01*
X0168372Y0215283D01*
X0167873Y0215782D01*
X0167222Y0216052D01*
D02*
G37*
G36*
X0306053Y0215804D02*
X0305348Y0215804D01*
X0304697Y0215535D01*
X0304199Y0215036D01*
X0303929Y0214385D01*
X0303929Y0213680D01*
X0304199Y0213029D01*
X0304697Y0212531D01*
X0305348Y0212261D01*
X0306053Y0212261D01*
X0306705Y0212531D01*
X0307203Y0213029D01*
X0307473Y0213680D01*
X0307473Y0214385D01*
X0307203Y0215036D01*
X0306705Y0215535D01*
X0306053Y0215804D01*
D02*
G37*
G36*
X0259353Y0212667D02*
X0258648Y0212667D01*
X0257997Y0212397D01*
X0257499Y0211899D01*
X0257352Y0211543D01*
X0257195Y0211512D01*
X0256544Y0211782D01*
X0255839Y0211782D01*
X0255188Y0211512D01*
X0254689Y0211014D01*
X0254420Y0210363D01*
X0254420Y0209763D01*
X0253821Y0209763D01*
X0253170Y0209494D01*
X0252671Y0208995D01*
X0252401Y0208344D01*
X0252401Y0207639D01*
X0252671Y0206988D01*
X0253170Y0206490D01*
X0253821Y0206220D01*
X0254525Y0206220D01*
X0255177Y0206490D01*
X0255675Y0206988D01*
X0255945Y0207639D01*
X0255945Y0208239D01*
X0256544Y0208239D01*
X0257195Y0208508D01*
X0257693Y0209007D01*
X0257841Y0209362D01*
X0257997Y0209393D01*
X0258648Y0209124D01*
X0259353Y0209124D01*
X0260005Y0209393D01*
X0260503Y0209892D01*
X0260773Y0210543D01*
X0260773Y0211248D01*
X0260503Y0211899D01*
X0260005Y0212397D01*
X0259353Y0212667D01*
D02*
G37*
G36*
X0286809Y0213701D02*
X0286104Y0213701D01*
X0285453Y0213431D01*
X0284954Y0212932D01*
X0284685Y0212281D01*
X0284685Y0211577D01*
X0284954Y0210925D01*
X0285453Y0210427D01*
X0286104Y0210157D01*
X0286809Y0210157D01*
X0287460Y0210427D01*
X0287958Y0210925D01*
X0288228Y0211577D01*
X0288228Y0212281D01*
X0287958Y0212932D01*
X0287460Y0213431D01*
X0286809Y0213701D01*
D02*
G37*
G36*
X0211612Y0214488D02*
X0210907Y0214488D01*
X0210256Y0214218D01*
X0209758Y0213720D01*
X0209488Y0213069D01*
X0209488Y0212364D01*
X0209758Y0211713D01*
X0210181Y0211289D01*
X0209758Y0210866D01*
X0209488Y0210214D01*
X0209488Y0209510D01*
X0209758Y0208858D01*
X0210256Y0208360D01*
X0210907Y0208090D01*
X0211612Y0208090D01*
X0212263Y0208360D01*
X0212762Y0208858D01*
X0213031Y0209510D01*
X0213031Y0210214D01*
X0212762Y0210866D01*
X0212338Y0211289D01*
X0212762Y0211713D01*
X0213031Y0212364D01*
X0213031Y0213069D01*
X0212762Y0213720D01*
X0212263Y0214218D01*
X0211612Y0214488D01*
D02*
G37*
G36*
X0204408Y0211194D02*
X0203704Y0211194D01*
X0203053Y0210924D01*
X0202554Y0210426D01*
X0202285Y0209775D01*
X0202285Y0209070D01*
X0202554Y0208419D01*
X0203053Y0207920D01*
X0203704Y0207651D01*
X0204408Y0207651D01*
X0205060Y0207920D01*
X0205558Y0208419D01*
X0205828Y0209070D01*
X0205828Y0209775D01*
X0205558Y0210426D01*
X0205060Y0210924D01*
X0204408Y0211194D01*
D02*
G37*
G36*
X0195372Y0210100D02*
X0194667Y0210100D01*
X0194016Y0209831D01*
X0193517Y0209332D01*
X0193248Y0208681D01*
X0193248Y0207976D01*
X0193517Y0207325D01*
X0194016Y0206827D01*
X0194667Y0206557D01*
X0195372Y0206557D01*
X0196023Y0206827D01*
X0196521Y0207325D01*
X0196791Y0207976D01*
X0196791Y0208681D01*
X0196521Y0209332D01*
X0196023Y0209831D01*
X0195372Y0210100D01*
D02*
G37*
G36*
X0183955Y0214140D02*
X0183250Y0214140D01*
X0182599Y0213870D01*
X0182100Y0213371D01*
X0181830Y0212720D01*
X0181830Y0212016D01*
X0182100Y0211364D01*
X0182327Y0211137D01*
X0182553Y0210735D01*
X0182340Y0210121D01*
X0182199Y0209980D01*
X0181929Y0209329D01*
X0181929Y0208624D01*
X0182199Y0207972D01*
X0182697Y0207474D01*
X0183348Y0207204D01*
X0184053Y0207204D01*
X0184704Y0207474D01*
X0185079Y0207849D01*
X0185697Y0207711D01*
X0185875Y0207617D01*
X0186136Y0206988D01*
X0186634Y0206490D01*
X0187285Y0206220D01*
X0187990Y0206220D01*
X0188641Y0206490D01*
X0189139Y0206988D01*
X0189409Y0207639D01*
X0189409Y0208344D01*
X0189139Y0208995D01*
X0188641Y0209494D01*
X0187990Y0209763D01*
X0187285Y0209763D01*
X0186634Y0209494D01*
X0186260Y0209119D01*
X0185641Y0209257D01*
X0185463Y0209351D01*
X0185202Y0209980D01*
X0184975Y0210207D01*
X0184750Y0210609D01*
X0184963Y0211223D01*
X0185104Y0211364D01*
X0185374Y0212016D01*
X0185374Y0212720D01*
X0185104Y0213371D01*
X0184606Y0213870D01*
X0183955Y0214140D01*
D02*
G37*
G36*
X0236218Y0208976D02*
X0235513Y0208976D01*
X0234862Y0208706D01*
X0234364Y0208208D01*
X0234094Y0207557D01*
X0234094Y0206852D01*
X0234364Y0206201D01*
X0234862Y0205703D01*
X0235513Y0205433D01*
X0236218Y0205433D01*
X0236869Y0205703D01*
X0237368Y0206201D01*
X0237638Y0206852D01*
X0237638Y0207557D01*
X0237368Y0208208D01*
X0236869Y0208706D01*
X0236218Y0208976D01*
D02*
G37*
G36*
X0311321Y0208465D02*
X0310616Y0208465D01*
X0309965Y0208196D01*
X0309467Y0207697D01*
X0309197Y0207046D01*
X0309197Y0206341D01*
X0309467Y0205690D01*
X0309965Y0205192D01*
X0310616Y0204922D01*
X0311321Y0204922D01*
X0311972Y0205192D01*
X0312470Y0205690D01*
X0312740Y0206341D01*
X0312740Y0207046D01*
X0312470Y0207697D01*
X0311972Y0208196D01*
X0311321Y0208465D01*
D02*
G37*
G36*
X0295197Y0206614D02*
X0294492Y0206614D01*
X0293841Y0206344D01*
X0293343Y0205846D01*
X0293073Y0205195D01*
X0293073Y0204490D01*
X0293343Y0203839D01*
X0293841Y0203340D01*
X0294492Y0203071D01*
X0295197Y0203071D01*
X0295848Y0203340D01*
X0296347Y0203839D01*
X0296616Y0204490D01*
X0296616Y0205195D01*
X0296347Y0205846D01*
X0295848Y0206344D01*
X0295197Y0206614D01*
D02*
G37*
G36*
X0282399Y0208327D02*
X0281695Y0208327D01*
X0281044Y0208057D01*
X0280545Y0207558D01*
X0280275Y0206907D01*
X0280275Y0206721D01*
X0280116Y0206614D01*
X0279411Y0206614D01*
X0278760Y0206344D01*
X0278262Y0205846D01*
X0277992Y0205195D01*
X0277992Y0204490D01*
X0278262Y0203839D01*
X0278760Y0203340D01*
X0279411Y0203071D01*
X0280116Y0203071D01*
X0280767Y0203340D01*
X0281266Y0203839D01*
X0281535Y0204490D01*
X0281535Y0204677D01*
X0281695Y0204783D01*
X0282399Y0204783D01*
X0283051Y0205053D01*
X0283549Y0205551D01*
X0283819Y0206203D01*
X0283819Y0206907D01*
X0283549Y0207558D01*
X0283051Y0208057D01*
X0282399Y0208327D01*
D02*
G37*
G36*
X0271848Y0202677D02*
X0271144Y0202677D01*
X0270492Y0202407D01*
X0270435Y0202350D01*
X0269921Y0201964D01*
X0269407Y0202350D01*
X0269350Y0202407D01*
X0268699Y0202677D01*
X0267994Y0202677D01*
X0267343Y0202407D01*
X0266844Y0201909D01*
X0266575Y0201258D01*
X0266575Y0200553D01*
X0266844Y0199902D01*
X0267343Y0199403D01*
X0267994Y0199134D01*
X0268699Y0199134D01*
X0269350Y0199403D01*
X0269407Y0199460D01*
X0269921Y0199847D01*
X0270435Y0199460D01*
X0270492Y0199403D01*
X0271144Y0199134D01*
X0271848Y0199134D01*
X0272499Y0199403D01*
X0272998Y0199902D01*
X0273268Y0200553D01*
X0273268Y0201258D01*
X0272998Y0201909D01*
X0272499Y0202407D01*
X0271848Y0202677D01*
D02*
G37*
G36*
X0176130Y0203071D02*
X0175425Y0203071D01*
X0174774Y0202801D01*
X0174275Y0202302D01*
X0174087Y0201848D01*
X0173898Y0201758D01*
X0173474Y0201669D01*
X0173229Y0201677D01*
X0172893Y0202013D01*
X0172242Y0202283D01*
X0171537Y0202283D01*
X0170886Y0202013D01*
X0170388Y0201515D01*
X0170118Y0200864D01*
X0170118Y0200159D01*
X0170388Y0199508D01*
X0170886Y0199010D01*
X0171537Y0198740D01*
X0172242Y0198740D01*
X0172893Y0199010D01*
X0173391Y0199508D01*
X0173580Y0199962D01*
X0173769Y0200053D01*
X0174193Y0200141D01*
X0174438Y0200133D01*
X0174774Y0199797D01*
X0175425Y0199527D01*
X0176130Y0199527D01*
X0176781Y0199797D01*
X0177279Y0200295D01*
X0177549Y0200947D01*
X0177549Y0201651D01*
X0177279Y0202302D01*
X0176781Y0202801D01*
X0176130Y0203071D01*
D02*
G37*
G36*
X0195962Y0203462D02*
X0195258Y0203462D01*
X0194606Y0203192D01*
X0194108Y0202694D01*
X0193838Y0202043D01*
X0193838Y0201338D01*
X0194108Y0200687D01*
X0194606Y0200188D01*
X0195258Y0199919D01*
X0195962Y0199919D01*
X0196614Y0200188D01*
X0197112Y0200687D01*
X0197382Y0201338D01*
X0197382Y0202043D01*
X0197112Y0202694D01*
X0196614Y0203192D01*
X0195962Y0203462D01*
D02*
G37*
G36*
X0236415Y0203858D02*
X0235710Y0203858D01*
X0235059Y0203588D01*
X0234561Y0203090D01*
X0234291Y0202439D01*
X0234291Y0201734D01*
X0234561Y0201083D01*
X0235059Y0200584D01*
X0235710Y0200315D01*
X0236415Y0200315D01*
X0237066Y0200584D01*
X0237111Y0200629D01*
X0238016Y0200421D01*
X0238108Y0200200D01*
X0238606Y0199701D01*
X0239257Y0199432D01*
X0239962Y0199432D01*
X0240613Y0199701D01*
X0241112Y0200200D01*
X0241381Y0200851D01*
X0241381Y0201556D01*
X0241112Y0202207D01*
X0240613Y0202705D01*
X0239962Y0202975D01*
X0239257Y0202975D01*
X0238606Y0202705D01*
X0238562Y0202661D01*
X0237656Y0202869D01*
X0237565Y0203090D01*
X0237066Y0203588D01*
X0236415Y0203858D01*
D02*
G37*
G36*
X0161809Y0202207D02*
X0161104Y0202207D01*
X0160453Y0201937D01*
X0159955Y0201439D01*
X0159685Y0200787D01*
X0159685Y0200082D01*
X0159955Y0199431D01*
X0160453Y0198933D01*
X0161104Y0198663D01*
X0161809Y0198663D01*
X0162460Y0198933D01*
X0162958Y0199431D01*
X0163228Y0200082D01*
X0163228Y0200787D01*
X0162958Y0201439D01*
X0162460Y0201937D01*
X0161809Y0202207D01*
D02*
G37*
G36*
X0188269Y0202070D02*
X0187564Y0202070D01*
X0186913Y0201800D01*
X0186414Y0201302D01*
X0186145Y0200651D01*
X0186145Y0199946D01*
X0186414Y0199295D01*
X0186913Y0198796D01*
X0187564Y0198527D01*
X0188269Y0198527D01*
X0188920Y0198796D01*
X0189418Y0199295D01*
X0189688Y0199946D01*
X0189688Y0200651D01*
X0189418Y0201302D01*
X0188920Y0201800D01*
X0188269Y0202070D01*
D02*
G37*
G36*
X0256100Y0200315D02*
X0255395Y0200315D01*
X0254744Y0200045D01*
X0254246Y0199547D01*
X0253976Y0198895D01*
X0253976Y0198191D01*
X0254246Y0197540D01*
X0254744Y0197041D01*
X0255395Y0196771D01*
X0256100Y0196771D01*
X0256751Y0197041D01*
X0257250Y0197540D01*
X0257520Y0198191D01*
X0257520Y0198895D01*
X0257250Y0199547D01*
X0256751Y0200045D01*
X0256100Y0200315D01*
D02*
G37*
G36*
X0260431Y0200069D02*
X0259726Y0200069D01*
X0259075Y0199799D01*
X0258577Y0199301D01*
X0258307Y0198649D01*
X0258307Y0197945D01*
X0258577Y0197293D01*
X0259075Y0196795D01*
X0259726Y0196525D01*
X0260431Y0196525D01*
X0261082Y0196795D01*
X0261580Y0197293D01*
X0261850Y0197945D01*
X0261850Y0198649D01*
X0261580Y0199301D01*
X0261082Y0199799D01*
X0260431Y0200069D01*
D02*
G37*
G36*
X0211473Y0199536D02*
X0210768Y0199536D01*
X0210117Y0199266D01*
X0209618Y0198768D01*
X0209349Y0198116D01*
X0209349Y0197412D01*
X0209440Y0197191D01*
X0209329Y0196959D01*
X0208883Y0196479D01*
X0208396Y0196479D01*
X0208005Y0196317D01*
X0207938Y0196366D01*
X0207480Y0196953D01*
X0207667Y0197403D01*
X0207667Y0198108D01*
X0207397Y0198759D01*
X0206899Y0199257D01*
X0206248Y0199527D01*
X0205543Y0199527D01*
X0204892Y0199257D01*
X0204394Y0198759D01*
X0204124Y0198108D01*
X0204124Y0197403D01*
X0204394Y0196752D01*
X0204817Y0196329D01*
X0204394Y0195905D01*
X0204124Y0195254D01*
X0204124Y0194549D01*
X0204394Y0193898D01*
X0204892Y0193399D01*
X0205543Y0193130D01*
X0206248Y0193130D01*
X0206899Y0193399D01*
X0207736Y0193214D01*
X0207744Y0193206D01*
X0208385Y0192941D01*
X0208412Y0192928D01*
X0209094Y0192596D01*
X0209094Y0191891D01*
X0209364Y0191240D01*
X0209411Y0191194D01*
X0209226Y0190265D01*
X0209075Y0190203D01*
X0208577Y0189704D01*
X0208307Y0189053D01*
X0208307Y0188348D01*
X0208577Y0187697D01*
X0209075Y0187199D01*
X0209726Y0186929D01*
X0210431Y0186929D01*
X0211082Y0187199D01*
X0211580Y0187697D01*
X0211850Y0188348D01*
X0211850Y0189053D01*
X0211580Y0189704D01*
X0211534Y0189751D01*
X0211719Y0190679D01*
X0211869Y0190742D01*
X0212368Y0191240D01*
X0212638Y0191891D01*
X0212638Y0192596D01*
X0212368Y0193247D01*
X0211869Y0193746D01*
X0211229Y0194011D01*
X0211202Y0194024D01*
X0210520Y0194355D01*
X0210520Y0195060D01*
X0210428Y0195281D01*
X0210539Y0195513D01*
X0210986Y0195992D01*
X0211473Y0195992D01*
X0212124Y0196262D01*
X0212622Y0196760D01*
X0212892Y0197412D01*
X0212892Y0198116D01*
X0212622Y0198768D01*
X0212124Y0199266D01*
X0211473Y0199536D01*
D02*
G37*
G36*
X0236415Y0195197D02*
X0235710Y0195197D01*
X0235059Y0194927D01*
X0234561Y0194428D01*
X0233776Y0194592D01*
X0233266Y0194803D01*
X0232561Y0194803D01*
X0231910Y0194533D01*
X0231411Y0194035D01*
X0231141Y0193384D01*
X0231141Y0192679D01*
X0231411Y0192028D01*
X0231910Y0191529D01*
X0232561Y0191260D01*
X0233266Y0191260D01*
X0233917Y0191529D01*
X0234415Y0192028D01*
X0235200Y0191865D01*
X0235710Y0191653D01*
X0236415Y0191653D01*
X0237066Y0191923D01*
X0237565Y0192421D01*
X0237834Y0193073D01*
X0237834Y0193777D01*
X0237565Y0194428D01*
X0237066Y0194927D01*
X0236415Y0195197D01*
D02*
G37*
G36*
X0195962Y0197167D02*
X0195258Y0197167D01*
X0194606Y0196897D01*
X0194108Y0196399D01*
X0193838Y0195748D01*
X0193838Y0195043D01*
X0194108Y0194392D01*
X0194606Y0193894D01*
X0195258Y0193624D01*
X0195962Y0193624D01*
X0196614Y0193894D01*
X0197112Y0194392D01*
X0197382Y0195043D01*
X0197382Y0195748D01*
X0197112Y0196399D01*
X0196614Y0196897D01*
X0195962Y0197167D01*
D02*
G37*
G36*
X0306431Y0201447D02*
X0305726Y0201447D01*
X0305075Y0201177D01*
X0304577Y0200679D01*
X0304307Y0200028D01*
X0304307Y0199323D01*
X0304577Y0198672D01*
X0305075Y0198173D01*
X0305726Y0197903D01*
X0306431Y0197903D01*
X0307082Y0198173D01*
X0307496Y0198587D01*
X0307986Y0198598D01*
X0308373Y0198527D01*
X0308415Y0198425D01*
X0308914Y0197927D01*
X0309565Y0197657D01*
X0310270Y0197657D01*
X0310421Y0196930D01*
X0309862Y0196699D01*
X0309364Y0196200D01*
X0309094Y0195549D01*
X0309094Y0194844D01*
X0309364Y0194193D01*
X0309862Y0193695D01*
X0310514Y0193425D01*
X0311218Y0193425D01*
X0311869Y0193695D01*
X0312368Y0194193D01*
X0312638Y0194844D01*
X0312638Y0195549D01*
X0312659Y0195581D01*
X0313088Y0195581D01*
X0313739Y0195851D01*
X0314238Y0196349D01*
X0314508Y0197001D01*
X0314508Y0197705D01*
X0314238Y0198357D01*
X0313739Y0198855D01*
X0313088Y0199125D01*
X0312384Y0199125D01*
X0311689Y0199689D01*
X0311689Y0199781D01*
X0311419Y0200432D01*
X0310921Y0200931D01*
X0310270Y0201201D01*
X0309565Y0201201D01*
X0308914Y0200931D01*
X0308500Y0200517D01*
X0308010Y0200506D01*
X0307623Y0200577D01*
X0307581Y0200679D01*
X0307082Y0201177D01*
X0306431Y0201447D01*
D02*
G37*
G36*
X0188622Y0196273D02*
X0187917Y0196273D01*
X0187266Y0196004D01*
X0186767Y0195505D01*
X0186498Y0194854D01*
X0186498Y0194149D01*
X0186767Y0193498D01*
X0187266Y0193000D01*
X0187917Y0192730D01*
X0188622Y0192730D01*
X0189273Y0193000D01*
X0189771Y0193498D01*
X0190041Y0194149D01*
X0190041Y0194854D01*
X0189771Y0195505D01*
X0189273Y0196004D01*
X0188622Y0196273D01*
D02*
G37*
G36*
X0292714Y0197165D02*
X0292010Y0197165D01*
X0291358Y0196895D01*
X0290860Y0196397D01*
X0290590Y0195746D01*
X0290590Y0195041D01*
X0290860Y0194390D01*
X0291358Y0193891D01*
X0292010Y0193622D01*
X0292483Y0193622D01*
X0292862Y0192927D01*
X0292869Y0192894D01*
X0292829Y0192854D01*
X0292559Y0192203D01*
X0292559Y0191498D01*
X0292829Y0190847D01*
X0293327Y0190348D01*
X0293978Y0190079D01*
X0294683Y0190079D01*
X0295334Y0190348D01*
X0295832Y0190847D01*
X0296102Y0191498D01*
X0296102Y0192203D01*
X0295832Y0192854D01*
X0295334Y0193352D01*
X0294683Y0193622D01*
X0294209Y0193622D01*
X0293830Y0194316D01*
X0293823Y0194349D01*
X0293864Y0194390D01*
X0294134Y0195041D01*
X0294134Y0195746D01*
X0293864Y0196397D01*
X0293365Y0196895D01*
X0292714Y0197165D01*
D02*
G37*
G36*
X0166964Y0193470D02*
X0166259Y0193470D01*
X0165608Y0193200D01*
X0165109Y0192702D01*
X0164840Y0192051D01*
X0164840Y0191346D01*
X0165109Y0190695D01*
X0165608Y0190197D01*
X0166259Y0189927D01*
X0166964Y0189927D01*
X0167615Y0190197D01*
X0168113Y0190695D01*
X0168383Y0191346D01*
X0168383Y0192051D01*
X0168113Y0192702D01*
X0167615Y0193200D01*
X0166964Y0193470D01*
D02*
G37*
G36*
X0276179Y0189291D02*
X0275474Y0189291D01*
X0274823Y0189021D01*
X0274766Y0188965D01*
X0274252Y0188578D01*
X0273737Y0188965D01*
X0273681Y0189021D01*
X0273029Y0189291D01*
X0272324Y0189291D01*
X0271673Y0189021D01*
X0271175Y0188523D01*
X0270905Y0187872D01*
X0270905Y0187167D01*
X0271175Y0186516D01*
X0271673Y0186018D01*
X0272324Y0185748D01*
X0273029Y0185748D01*
X0273681Y0186018D01*
X0273737Y0186074D01*
X0274252Y0186461D01*
X0274766Y0186074D01*
X0274823Y0186018D01*
X0275474Y0185748D01*
X0276179Y0185748D01*
X0276830Y0186018D01*
X0277328Y0186516D01*
X0277598Y0187167D01*
X0277598Y0187872D01*
X0277328Y0188523D01*
X0276830Y0189021D01*
X0276179Y0189291D01*
D02*
G37*
G36*
X0264459Y0189401D02*
X0263754Y0189401D01*
X0263103Y0189132D01*
X0262605Y0188633D01*
X0262335Y0187982D01*
X0262335Y0187647D01*
X0262252Y0187591D01*
X0261547Y0187591D01*
X0261456Y0187652D01*
X0261456Y0187982D01*
X0261187Y0188633D01*
X0260688Y0189132D01*
X0260037Y0189401D01*
X0259332Y0189401D01*
X0258681Y0189132D01*
X0258183Y0188633D01*
X0257913Y0187982D01*
X0257913Y0187277D01*
X0258183Y0186626D01*
X0258681Y0186128D01*
X0259332Y0185858D01*
X0260037Y0185858D01*
X0260128Y0185798D01*
X0260128Y0185467D01*
X0260398Y0184816D01*
X0260896Y0184318D01*
X0261547Y0184048D01*
X0262252Y0184048D01*
X0262903Y0184318D01*
X0263401Y0184816D01*
X0264231Y0184762D01*
X0264384Y0184394D01*
X0264882Y0183896D01*
X0265533Y0183626D01*
X0266238Y0183626D01*
X0266889Y0183896D01*
X0267388Y0184394D01*
X0267657Y0185045D01*
X0267657Y0185750D01*
X0267388Y0186401D01*
X0266889Y0186900D01*
X0266238Y0187169D01*
X0266180Y0187169D01*
X0265878Y0187277D01*
X0265878Y0187982D01*
X0265608Y0188633D01*
X0265110Y0189132D01*
X0264459Y0189401D01*
D02*
G37*
G36*
X0204525Y0190669D02*
X0203821Y0190669D01*
X0203169Y0190399D01*
X0202671Y0189901D01*
X0202401Y0189250D01*
X0202401Y0188545D01*
X0202671Y0187894D01*
X0203169Y0187395D01*
X0203821Y0187126D01*
X0204525Y0187126D01*
X0205177Y0187395D01*
X0205675Y0187894D01*
X0205945Y0188545D01*
X0205945Y0189250D01*
X0205675Y0189901D01*
X0205177Y0190399D01*
X0204525Y0190669D01*
D02*
G37*
G36*
X0195962Y0190079D02*
X0195258Y0190079D01*
X0194606Y0189809D01*
X0194108Y0189310D01*
X0193838Y0188659D01*
X0193838Y0187954D01*
X0194108Y0187303D01*
X0194606Y0186805D01*
X0195258Y0186535D01*
X0195962Y0186535D01*
X0196614Y0186805D01*
X0197112Y0187303D01*
X0197382Y0187954D01*
X0197382Y0188659D01*
X0197112Y0189310D01*
X0196614Y0189809D01*
X0195962Y0190079D01*
D02*
G37*
G36*
X0230474Y0189828D02*
X0229769Y0189828D01*
X0229118Y0189559D01*
X0228619Y0189060D01*
X0228349Y0188409D01*
X0228349Y0187704D01*
X0228619Y0187053D01*
X0229118Y0186555D01*
X0229769Y0186285D01*
X0230474Y0186285D01*
X0231125Y0186555D01*
X0231623Y0187053D01*
X0231893Y0187704D01*
X0231893Y0188409D01*
X0231623Y0189060D01*
X0231125Y0189559D01*
X0230474Y0189828D01*
D02*
G37*
G36*
X0311592Y0189311D02*
X0310887Y0189311D01*
X0310236Y0189042D01*
X0309737Y0188543D01*
X0309468Y0187892D01*
X0309468Y0187187D01*
X0309737Y0186536D01*
X0310236Y0186038D01*
X0310887Y0185768D01*
X0311592Y0185768D01*
X0312243Y0186038D01*
X0312741Y0186536D01*
X0313011Y0187187D01*
X0313011Y0187892D01*
X0312741Y0188543D01*
X0312243Y0189042D01*
X0311592Y0189311D01*
D02*
G37*
G36*
X0188384Y0191653D02*
X0187679Y0191653D01*
X0187028Y0191383D01*
X0186529Y0190885D01*
X0186260Y0190234D01*
X0186260Y0189529D01*
X0186529Y0188878D01*
X0187028Y0188380D01*
X0187062Y0187513D01*
X0187047Y0187478D01*
X0187047Y0186773D01*
X0187317Y0186122D01*
X0187815Y0185624D01*
X0188466Y0185354D01*
X0189171Y0185354D01*
X0189822Y0185624D01*
X0190321Y0186122D01*
X0190590Y0186773D01*
X0190590Y0187478D01*
X0190321Y0188129D01*
X0189822Y0188628D01*
X0189788Y0189494D01*
X0189803Y0189529D01*
X0189803Y0190234D01*
X0189533Y0190885D01*
X0189035Y0191383D01*
X0188384Y0191653D01*
D02*
G37*
G36*
X0254919Y0188220D02*
X0254214Y0188220D01*
X0253563Y0187950D01*
X0253065Y0187452D01*
X0252795Y0186801D01*
X0252795Y0186096D01*
X0253065Y0185445D01*
X0253563Y0184947D01*
X0254214Y0184677D01*
X0254919Y0184677D01*
X0255570Y0184947D01*
X0256069Y0185445D01*
X0256338Y0186096D01*
X0256338Y0186801D01*
X0256069Y0187452D01*
X0255570Y0187950D01*
X0254919Y0188220D01*
D02*
G37*
G36*
X0219756Y0192849D02*
X0219051Y0192849D01*
X0218400Y0192580D01*
X0217901Y0192081D01*
X0217632Y0191430D01*
X0217632Y0190725D01*
X0217901Y0190074D01*
X0218400Y0189576D01*
X0219051Y0189306D01*
X0219756Y0189306D01*
X0220287Y0188674D01*
X0220118Y0188266D01*
X0220118Y0187561D01*
X0220388Y0186910D01*
X0220492Y0186806D01*
X0220165Y0186018D01*
X0219921Y0186018D01*
X0219269Y0185748D01*
X0218771Y0185250D01*
X0218501Y0184599D01*
X0218501Y0183894D01*
X0218771Y0183243D01*
X0219269Y0182745D01*
X0219561Y0182624D01*
X0219623Y0182598D01*
X0219466Y0181811D01*
X0219411Y0181811D01*
X0219175Y0181811D01*
X0218524Y0181541D01*
X0218025Y0181043D01*
X0217756Y0180392D01*
X0217756Y0179687D01*
X0218025Y0179036D01*
X0218524Y0178537D01*
X0219175Y0178268D01*
X0219880Y0178268D01*
X0220531Y0178537D01*
X0221029Y0179036D01*
X0221299Y0179687D01*
X0221299Y0180392D01*
X0221029Y0181043D01*
X0220531Y0181541D01*
X0220239Y0181662D01*
X0220178Y0181687D01*
X0220334Y0182475D01*
X0220389Y0182475D01*
X0220625Y0182475D01*
X0221277Y0182745D01*
X0221775Y0183243D01*
X0222010Y0183810D01*
X0222099Y0183828D01*
X0222750Y0183558D01*
X0223455Y0183558D01*
X0223851Y0182870D01*
X0223931Y0182677D01*
X0224429Y0182179D01*
X0225080Y0181909D01*
X0225785Y0181909D01*
X0226436Y0182179D01*
X0226935Y0182677D01*
X0227205Y0183328D01*
X0227205Y0184033D01*
X0226935Y0184684D01*
X0226436Y0185183D01*
X0225785Y0185453D01*
X0225080Y0185453D01*
X0224684Y0186141D01*
X0224605Y0186333D01*
X0224106Y0186831D01*
X0223469Y0187096D01*
X0223661Y0187561D01*
X0223661Y0188266D01*
X0223391Y0188917D01*
X0222893Y0189415D01*
X0222242Y0189685D01*
X0221537Y0189685D01*
X0221006Y0190317D01*
X0221175Y0190725D01*
X0221175Y0191430D01*
X0220905Y0192081D01*
X0220407Y0192580D01*
X0219756Y0192849D01*
D02*
G37*
G36*
X0295865Y0184961D02*
X0295160Y0184961D01*
X0294509Y0184691D01*
X0294010Y0184193D01*
X0293740Y0183542D01*
X0293740Y0182837D01*
X0294010Y0182186D01*
X0294509Y0181687D01*
X0295160Y0181418D01*
X0295865Y0181418D01*
X0296516Y0181687D01*
X0297014Y0182186D01*
X0297284Y0182837D01*
X0297284Y0183542D01*
X0297014Y0184193D01*
X0296516Y0184691D01*
X0295865Y0184961D01*
D02*
G37*
G36*
X0286889Y0179797D02*
X0286185Y0179797D01*
X0285533Y0179527D01*
X0285035Y0179029D01*
X0284765Y0178377D01*
X0284765Y0177673D01*
X0285035Y0177021D01*
X0285533Y0176523D01*
X0286185Y0176253D01*
X0286889Y0176253D01*
X0287541Y0176523D01*
X0288039Y0177021D01*
X0288309Y0177673D01*
X0288309Y0178377D01*
X0288039Y0179029D01*
X0287541Y0179527D01*
X0286889Y0179797D01*
D02*
G37*
G36*
X0195743Y0179252D02*
X0195038Y0179252D01*
X0194387Y0178982D01*
X0193888Y0178484D01*
X0193618Y0177832D01*
X0193618Y0177128D01*
X0193888Y0176477D01*
X0194387Y0175978D01*
X0195038Y0175708D01*
X0195743Y0175708D01*
X0196394Y0175978D01*
X0196892Y0176477D01*
X0197162Y0177128D01*
X0197162Y0177832D01*
X0196892Y0178484D01*
X0196394Y0178982D01*
X0195743Y0179252D01*
D02*
G37*
G36*
X0313777Y0178760D02*
X0313073Y0178760D01*
X0312421Y0178490D01*
X0311923Y0177991D01*
X0311653Y0177340D01*
X0311653Y0176635D01*
X0311923Y0175984D01*
X0312421Y0175486D01*
X0313073Y0175216D01*
X0313777Y0175216D01*
X0314429Y0175486D01*
X0314927Y0175984D01*
X0315197Y0176635D01*
X0315197Y0177340D01*
X0314927Y0177991D01*
X0314429Y0178490D01*
X0313777Y0178760D01*
D02*
G37*
G36*
X0279748Y0178707D02*
X0279043Y0178707D01*
X0278392Y0178437D01*
X0277893Y0177939D01*
X0277624Y0177288D01*
X0277624Y0176583D01*
X0277893Y0175932D01*
X0278392Y0175433D01*
X0279043Y0175164D01*
X0279748Y0175164D01*
X0280399Y0175433D01*
X0280897Y0175932D01*
X0281167Y0176583D01*
X0281167Y0177288D01*
X0280897Y0177939D01*
X0280399Y0178437D01*
X0279748Y0178707D01*
D02*
G37*
G36*
X0276966Y0173937D02*
X0276262Y0173937D01*
X0275610Y0173667D01*
X0275112Y0173169D01*
X0275072Y0173071D01*
X0274219Y0173071D01*
X0274179Y0173169D01*
X0273681Y0173667D01*
X0273029Y0173937D01*
X0272324Y0173937D01*
X0271673Y0173667D01*
X0271175Y0173169D01*
X0270905Y0172518D01*
X0270905Y0171813D01*
X0271175Y0171162D01*
X0271673Y0170663D01*
X0272324Y0170394D01*
X0273029Y0170394D01*
X0273681Y0170663D01*
X0274179Y0171162D01*
X0274219Y0171259D01*
X0275072Y0171259D01*
X0275112Y0171162D01*
X0275610Y0170663D01*
X0276262Y0170394D01*
X0276966Y0170394D01*
X0277617Y0170663D01*
X0278116Y0171162D01*
X0278386Y0171813D01*
X0278386Y0172518D01*
X0278116Y0173169D01*
X0277617Y0173667D01*
X0276966Y0173937D01*
D02*
G37*
G36*
X0187596Y0176299D02*
X0186892Y0176299D01*
X0186240Y0176029D01*
X0185742Y0175531D01*
X0185472Y0174880D01*
X0185472Y0174175D01*
X0185742Y0173524D01*
X0186240Y0173025D01*
X0186892Y0172756D01*
X0187596Y0172756D01*
X0188247Y0173025D01*
X0188746Y0173524D01*
X0189016Y0174175D01*
X0189016Y0174880D01*
X0188746Y0175531D01*
X0188247Y0176029D01*
X0187596Y0176299D01*
D02*
G37*
G36*
X0264762Y0175511D02*
X0264057Y0175511D01*
X0263406Y0175242D01*
X0262907Y0174743D01*
X0262638Y0174092D01*
X0262638Y0173387D01*
X0262907Y0172736D01*
X0263406Y0172238D01*
X0264057Y0171968D01*
X0264762Y0171968D01*
X0265413Y0172238D01*
X0265911Y0172736D01*
X0266181Y0173387D01*
X0266181Y0174092D01*
X0265911Y0174743D01*
X0265413Y0175242D01*
X0264762Y0175511D01*
D02*
G37*
G36*
X0212006Y0175511D02*
X0211301Y0175511D01*
X0210650Y0175242D01*
X0210151Y0174743D01*
X0209882Y0174092D01*
X0209882Y0173387D01*
X0210151Y0172736D01*
X0210650Y0172238D01*
X0211301Y0171968D01*
X0212006Y0171968D01*
X0212657Y0172238D01*
X0213155Y0172736D01*
X0213425Y0173387D01*
X0213425Y0174092D01*
X0213155Y0174743D01*
X0212657Y0175242D01*
X0212006Y0175511D01*
D02*
G37*
G36*
X0296071Y0175118D02*
X0295366Y0175118D01*
X0294715Y0174848D01*
X0294216Y0174350D01*
X0293947Y0173699D01*
X0293947Y0172994D01*
X0294216Y0172343D01*
X0294605Y0171954D01*
X0294557Y0171549D01*
X0294342Y0171148D01*
X0293918Y0171119D01*
X0293443Y0171707D01*
X0293365Y0171896D01*
X0292867Y0172394D01*
X0292215Y0172664D01*
X0291511Y0172664D01*
X0290860Y0172394D01*
X0290361Y0171896D01*
X0290091Y0171245D01*
X0290091Y0170540D01*
X0290361Y0169889D01*
X0290860Y0169390D01*
X0291511Y0169121D01*
X0292215Y0169121D01*
X0292731Y0168482D01*
X0292810Y0168293D01*
X0293308Y0167795D01*
X0293248Y0166967D01*
X0293146Y0166925D01*
X0292648Y0166426D01*
X0292378Y0165775D01*
X0292378Y0165070D01*
X0292648Y0164419D01*
X0293146Y0163921D01*
X0293797Y0163651D01*
X0294502Y0163651D01*
X0295153Y0163921D01*
X0295651Y0164419D01*
X0295921Y0165070D01*
X0295921Y0165775D01*
X0295651Y0166426D01*
X0295153Y0166925D01*
X0295213Y0167752D01*
X0295315Y0167795D01*
X0295813Y0168293D01*
X0296083Y0168944D01*
X0296083Y0169649D01*
X0295813Y0170300D01*
X0295344Y0170769D01*
X0295316Y0170798D01*
X0295315Y0170798D01*
X0295275Y0170825D01*
X0295400Y0171574D01*
X0295589Y0171574D01*
X0296071Y0171574D01*
X0296722Y0171844D01*
X0297220Y0172343D01*
X0297490Y0172994D01*
X0297490Y0173699D01*
X0297220Y0174350D01*
X0296722Y0174848D01*
X0296071Y0175118D01*
D02*
G37*
G36*
X0202392Y0170835D02*
X0201688Y0170835D01*
X0201036Y0170565D01*
X0200538Y0170067D01*
X0200268Y0169416D01*
X0200268Y0168711D01*
X0200538Y0168060D01*
X0201036Y0167562D01*
X0201688Y0167292D01*
X0202392Y0167292D01*
X0203044Y0167562D01*
X0203542Y0168060D01*
X0203812Y0168711D01*
X0203812Y0169416D01*
X0203542Y0170067D01*
X0203044Y0170565D01*
X0202392Y0170835D01*
D02*
G37*
G36*
X0239483Y0169646D02*
X0238778Y0169646D01*
X0238127Y0169377D01*
X0237629Y0168878D01*
X0237359Y0168227D01*
X0237359Y0167522D01*
X0237629Y0166871D01*
X0238127Y0166373D01*
X0238778Y0166103D01*
X0239483Y0166103D01*
X0240135Y0166373D01*
X0240633Y0166871D01*
X0240903Y0167522D01*
X0240903Y0168227D01*
X0240633Y0168878D01*
X0240135Y0169377D01*
X0239483Y0169646D01*
D02*
G37*
G36*
X0242124Y0173248D02*
X0241419Y0173248D01*
X0240768Y0172978D01*
X0240270Y0172480D01*
X0240000Y0171829D01*
X0240000Y0171124D01*
X0240270Y0170473D01*
X0240768Y0169974D01*
X0241419Y0169704D01*
X0242124Y0169704D01*
X0242284Y0169771D01*
X0242729Y0169103D01*
X0242464Y0168838D01*
X0242195Y0168187D01*
X0242195Y0167482D01*
X0242464Y0166831D01*
X0242963Y0166333D01*
X0243614Y0166063D01*
X0244319Y0166063D01*
X0244970Y0166333D01*
X0245468Y0166831D01*
X0245738Y0167482D01*
X0245738Y0168187D01*
X0245468Y0168838D01*
X0244970Y0169336D01*
X0244319Y0169606D01*
X0243614Y0169606D01*
X0243454Y0169540D01*
X0243008Y0170208D01*
X0243273Y0170473D01*
X0243543Y0171124D01*
X0243543Y0171829D01*
X0243273Y0172480D01*
X0242775Y0172978D01*
X0242124Y0173248D01*
D02*
G37*
G36*
X0209644Y0169606D02*
X0208939Y0169606D01*
X0208288Y0169336D01*
X0207789Y0168838D01*
X0207520Y0168187D01*
X0207520Y0167482D01*
X0207789Y0166831D01*
X0208288Y0166333D01*
X0208939Y0166063D01*
X0209644Y0166063D01*
X0210295Y0166333D01*
X0210793Y0166831D01*
X0211063Y0167482D01*
X0211063Y0168187D01*
X0210793Y0168838D01*
X0210295Y0169336D01*
X0209644Y0169606D01*
D02*
G37*
G36*
X0285526Y0172219D02*
X0284821Y0172219D01*
X0284170Y0171949D01*
X0283672Y0171451D01*
X0283402Y0170800D01*
X0283402Y0170095D01*
X0283672Y0169444D01*
X0284170Y0168946D01*
X0284206Y0168745D01*
X0284203Y0168080D01*
X0283810Y0167686D01*
X0283540Y0167035D01*
X0283540Y0166330D01*
X0283810Y0165679D01*
X0284308Y0165181D01*
X0284959Y0164911D01*
X0285664Y0164911D01*
X0286315Y0165181D01*
X0286813Y0165679D01*
X0287083Y0166330D01*
X0287083Y0167035D01*
X0286813Y0167686D01*
X0286315Y0168184D01*
X0286279Y0168385D01*
X0286282Y0169050D01*
X0286676Y0169444D01*
X0286945Y0170095D01*
X0286945Y0170800D01*
X0286676Y0171451D01*
X0286177Y0171949D01*
X0285526Y0172219D01*
D02*
G37*
G36*
X0274998Y0167638D02*
X0274293Y0167638D01*
X0273642Y0167368D01*
X0273144Y0166869D01*
X0272874Y0166218D01*
X0272874Y0165513D01*
X0273144Y0164862D01*
X0273642Y0164364D01*
X0274293Y0164094D01*
X0274998Y0164094D01*
X0275649Y0164364D01*
X0276147Y0164862D01*
X0276417Y0165513D01*
X0276417Y0166218D01*
X0276147Y0166869D01*
X0275649Y0167368D01*
X0274998Y0167638D01*
D02*
G37*
G36*
X0253242Y0166676D02*
X0252537Y0166676D01*
X0251886Y0166406D01*
X0251387Y0165908D01*
X0251118Y0165257D01*
X0251118Y0164552D01*
X0251387Y0163901D01*
X0251886Y0163402D01*
X0252537Y0163133D01*
X0253242Y0163133D01*
X0253893Y0163402D01*
X0254391Y0163901D01*
X0254661Y0164552D01*
X0254661Y0165257D01*
X0254391Y0165908D01*
X0253893Y0166406D01*
X0253242Y0166676D01*
D02*
G37*
G36*
X0222242Y0170000D02*
X0221537Y0170000D01*
X0220886Y0169730D01*
X0220388Y0169232D01*
X0220118Y0168581D01*
X0220118Y0167876D01*
X0220339Y0167342D01*
X0220153Y0166870D01*
X0219944Y0166555D01*
X0219667Y0166555D01*
X0219016Y0166285D01*
X0218518Y0165787D01*
X0218248Y0165136D01*
X0218248Y0164431D01*
X0218518Y0163780D01*
X0219016Y0163281D01*
X0219667Y0163011D01*
X0220372Y0163011D01*
X0221023Y0163281D01*
X0221521Y0163780D01*
X0221791Y0164431D01*
X0221791Y0165136D01*
X0221570Y0165669D01*
X0221756Y0166141D01*
X0221965Y0166457D01*
X0222242Y0166457D01*
X0222893Y0166726D01*
X0223391Y0167225D01*
X0223661Y0167876D01*
X0223661Y0168581D01*
X0223391Y0169232D01*
X0222893Y0169730D01*
X0222242Y0170000D01*
D02*
G37*
G36*
X0235234Y0162519D02*
X0234529Y0162519D01*
X0233878Y0162250D01*
X0233634Y0162006D01*
X0233291Y0161779D01*
X0232625Y0161986D01*
X0232516Y0162095D01*
X0231865Y0162365D01*
X0231160Y0162365D01*
X0230509Y0162095D01*
X0230010Y0161597D01*
X0229808Y0161108D01*
X0229216Y0161004D01*
X0228988Y0161030D01*
X0228934Y0161161D01*
X0228435Y0161659D01*
X0227784Y0161929D01*
X0227079Y0161929D01*
X0226428Y0161659D01*
X0225930Y0161161D01*
X0225660Y0160510D01*
X0225660Y0159805D01*
X0225930Y0159154D01*
X0226428Y0158655D01*
X0227079Y0158385D01*
X0227784Y0158385D01*
X0228435Y0158655D01*
X0228934Y0159154D01*
X0229136Y0159643D01*
X0229728Y0159746D01*
X0229956Y0159721D01*
X0230010Y0159590D01*
X0230509Y0159092D01*
X0230405Y0158282D01*
X0230353Y0158158D01*
X0230353Y0157453D01*
X0230623Y0156802D01*
X0231121Y0156304D01*
X0231772Y0156034D01*
X0232477Y0156034D01*
X0233128Y0156304D01*
X0233627Y0156802D01*
X0233896Y0157453D01*
X0233896Y0158158D01*
X0233782Y0158433D01*
X0234385Y0159036D01*
X0234529Y0158976D01*
X0235234Y0158976D01*
X0235885Y0159246D01*
X0236384Y0159744D01*
X0236653Y0160395D01*
X0236653Y0161100D01*
X0236384Y0161751D01*
X0235885Y0162250D01*
X0235234Y0162519D01*
D02*
G37*
G36*
X0187596Y0170787D02*
X0186892Y0170787D01*
X0186240Y0170517D01*
X0185742Y0170019D01*
X0185472Y0169368D01*
X0185472Y0168663D01*
X0185742Y0168012D01*
X0186166Y0167588D01*
X0185742Y0167165D01*
X0185472Y0166514D01*
X0185472Y0165809D01*
X0185742Y0165158D01*
X0186093Y0164807D01*
X0186073Y0164163D01*
X0185988Y0163911D01*
X0185778Y0163824D01*
X0185280Y0163326D01*
X0185010Y0162675D01*
X0185010Y0161970D01*
X0185280Y0161319D01*
X0185778Y0160821D01*
X0186429Y0160551D01*
X0187134Y0160551D01*
X0187785Y0160821D01*
X0188284Y0161319D01*
X0188553Y0161970D01*
X0188553Y0162675D01*
X0188284Y0163326D01*
X0187933Y0163677D01*
X0187953Y0164320D01*
X0188038Y0164572D01*
X0188247Y0164659D01*
X0188746Y0165158D01*
X0189016Y0165809D01*
X0189016Y0166514D01*
X0188746Y0167165D01*
X0188322Y0167588D01*
X0188746Y0168012D01*
X0189016Y0168663D01*
X0189016Y0169368D01*
X0188746Y0170019D01*
X0188247Y0170517D01*
X0187596Y0170787D01*
D02*
G37*
G36*
X0246061Y0163504D02*
X0245356Y0163504D01*
X0244705Y0163234D01*
X0244207Y0162736D01*
X0243937Y0162084D01*
X0243937Y0161380D01*
X0244207Y0160728D01*
X0244705Y0160230D01*
X0245356Y0159960D01*
X0246061Y0159960D01*
X0246712Y0160230D01*
X0247210Y0160728D01*
X0247480Y0161380D01*
X0247480Y0162084D01*
X0247210Y0162736D01*
X0246712Y0163234D01*
X0246061Y0163504D01*
D02*
G37*
G36*
X0278935Y0160551D02*
X0278230Y0160551D01*
X0277579Y0160281D01*
X0277468Y0160171D01*
X0277062Y0159794D01*
X0276439Y0160171D01*
X0276436Y0160174D01*
X0275785Y0160444D01*
X0275080Y0160444D01*
X0274429Y0160174D01*
X0273931Y0159675D01*
X0273661Y0159024D01*
X0273661Y0158319D01*
X0273931Y0157668D01*
X0274429Y0157170D01*
X0275080Y0156900D01*
X0275785Y0156900D01*
X0276436Y0157170D01*
X0276547Y0157280D01*
X0276953Y0157657D01*
X0277576Y0157280D01*
X0277579Y0157277D01*
X0278230Y0157008D01*
X0278935Y0157008D01*
X0279586Y0157277D01*
X0280084Y0157776D01*
X0280354Y0158427D01*
X0280354Y0159132D01*
X0280084Y0159783D01*
X0279586Y0160281D01*
X0278935Y0160551D01*
D02*
G37*
G36*
X0287795Y0163029D02*
X0287090Y0163029D01*
X0286439Y0162759D01*
X0285941Y0162260D01*
X0285671Y0161609D01*
X0285671Y0160905D01*
X0285941Y0160253D01*
X0286439Y0159755D01*
X0287090Y0159485D01*
X0287685Y0159485D01*
X0288024Y0159165D01*
X0288265Y0158828D01*
X0288228Y0158738D01*
X0288228Y0158033D01*
X0288498Y0157382D01*
X0288996Y0156884D01*
X0289647Y0156614D01*
X0290352Y0156614D01*
X0290426Y0156644D01*
X0290752Y0156427D01*
X0291021Y0155776D01*
X0291520Y0155277D01*
X0292171Y0155008D01*
X0292876Y0155008D01*
X0293136Y0155115D01*
X0293582Y0154448D01*
X0293306Y0154172D01*
X0292943Y0153544D01*
X0292756Y0152843D01*
X0292756Y0152117D01*
X0292943Y0151416D01*
X0293306Y0150788D01*
X0293819Y0150275D01*
X0294448Y0149912D01*
X0295149Y0149724D01*
X0295874Y0149724D01*
X0296575Y0149912D01*
X0297204Y0150275D01*
X0297717Y0150788D01*
X0298080Y0151416D01*
X0298268Y0152117D01*
X0298268Y0152843D01*
X0298080Y0153544D01*
X0297717Y0154172D01*
X0297204Y0154685D01*
X0296575Y0155048D01*
X0295874Y0155236D01*
X0295149Y0155236D01*
X0294448Y0155048D01*
X0294361Y0154998D01*
X0293878Y0155628D01*
X0294025Y0155776D01*
X0294295Y0156427D01*
X0294295Y0157132D01*
X0294025Y0157783D01*
X0293527Y0158281D01*
X0292876Y0158551D01*
X0292171Y0158551D01*
X0292097Y0158520D01*
X0291771Y0158738D01*
X0291502Y0159389D01*
X0291530Y0159532D01*
X0291791Y0159640D01*
X0292193Y0160042D01*
X0292718Y0160048D01*
X0293073Y0159974D01*
X0293178Y0159722D01*
X0293676Y0159224D01*
X0294327Y0158954D01*
X0295032Y0158954D01*
X0295683Y0159224D01*
X0296181Y0159722D01*
X0296451Y0160373D01*
X0296451Y0161078D01*
X0296181Y0161729D01*
X0295683Y0162227D01*
X0295032Y0162497D01*
X0294327Y0162497D01*
X0293676Y0162227D01*
X0293274Y0161825D01*
X0292748Y0161819D01*
X0292393Y0161893D01*
X0292289Y0162145D01*
X0291791Y0162643D01*
X0291140Y0162913D01*
X0290435Y0162913D01*
X0289784Y0162643D01*
X0289681Y0162541D01*
X0289045Y0162299D01*
X0288658Y0162547D01*
X0288446Y0162759D01*
X0287795Y0163029D01*
D02*
G37*
G36*
X0300982Y0161732D02*
X0300277Y0161732D01*
X0299626Y0161462D01*
X0299128Y0160964D01*
X0298858Y0160313D01*
X0298858Y0159608D01*
X0299128Y0158957D01*
X0299626Y0158459D01*
X0300277Y0158189D01*
X0300982Y0158189D01*
X0301633Y0158459D01*
X0302132Y0158957D01*
X0302401Y0159608D01*
X0302401Y0160313D01*
X0302132Y0160964D01*
X0301633Y0161462D01*
X0300982Y0161732D01*
D02*
G37*
G36*
X0241730Y0162766D02*
X0241025Y0162766D01*
X0240374Y0162496D01*
X0239876Y0161998D01*
X0239606Y0161347D01*
X0239606Y0160642D01*
X0239876Y0159991D01*
X0240249Y0159617D01*
X0239777Y0159145D01*
X0239508Y0158494D01*
X0239508Y0157789D01*
X0239777Y0157138D01*
X0240276Y0156639D01*
X0240927Y0156370D01*
X0241632Y0156370D01*
X0242283Y0156639D01*
X0242781Y0157138D01*
X0243051Y0157789D01*
X0243051Y0158494D01*
X0242781Y0159145D01*
X0242408Y0159518D01*
X0242880Y0159991D01*
X0243149Y0160642D01*
X0243149Y0161347D01*
X0242880Y0161998D01*
X0242381Y0162496D01*
X0241730Y0162766D01*
D02*
G37*
G36*
X0217518Y0157401D02*
X0216813Y0157401D01*
X0216162Y0157132D01*
X0215663Y0156633D01*
X0215394Y0155982D01*
X0215394Y0155277D01*
X0215663Y0154626D01*
X0216162Y0154128D01*
X0216813Y0153858D01*
X0217518Y0153858D01*
X0218169Y0154128D01*
X0218667Y0154626D01*
X0218937Y0155277D01*
X0218937Y0155982D01*
X0218667Y0156633D01*
X0218169Y0157132D01*
X0217518Y0157401D01*
D02*
G37*
G36*
X0210800Y0159806D02*
X0210095Y0159806D01*
X0209444Y0159536D01*
X0208946Y0159038D01*
X0208676Y0158386D01*
X0208676Y0157682D01*
X0208946Y0157030D01*
X0209444Y0156532D01*
X0209529Y0156497D01*
X0210103Y0155824D01*
X0210103Y0155119D01*
X0210373Y0154468D01*
X0210871Y0153970D01*
X0211522Y0153700D01*
X0212227Y0153700D01*
X0212878Y0153970D01*
X0213376Y0154468D01*
X0213646Y0155119D01*
X0213646Y0155824D01*
X0213376Y0156475D01*
X0212878Y0156974D01*
X0212793Y0157009D01*
X0212219Y0157682D01*
X0212219Y0158386D01*
X0211949Y0159038D01*
X0211451Y0159536D01*
X0210800Y0159806D01*
D02*
G37*
G36*
X0175078Y0157106D02*
X0174373Y0157106D01*
X0173722Y0156836D01*
X0173224Y0156338D01*
X0172954Y0155687D01*
X0172954Y0154982D01*
X0173224Y0154331D01*
X0173722Y0153832D01*
X0174373Y0153563D01*
X0175078Y0153563D01*
X0175729Y0153832D01*
X0176228Y0154331D01*
X0176497Y0154982D01*
X0176497Y0155687D01*
X0176228Y0156338D01*
X0175729Y0156836D01*
X0175078Y0157106D01*
D02*
G37*
G36*
X0195667Y0156614D02*
X0194962Y0156614D01*
X0194311Y0156344D01*
X0193813Y0155846D01*
X0193543Y0155195D01*
X0193543Y0154490D01*
X0193813Y0153839D01*
X0194311Y0153340D01*
X0194962Y0153071D01*
X0195667Y0153071D01*
X0196318Y0153340D01*
X0196817Y0153839D01*
X0197086Y0154490D01*
X0197086Y0155195D01*
X0196817Y0155846D01*
X0196318Y0156344D01*
X0195667Y0156614D01*
D02*
G37*
G36*
X0186809Y0155907D02*
X0186104Y0155907D01*
X0185453Y0155638D01*
X0184954Y0155139D01*
X0184685Y0154488D01*
X0184685Y0153783D01*
X0184954Y0153132D01*
X0185453Y0152634D01*
X0186104Y0152364D01*
X0186809Y0152364D01*
X0187460Y0152634D01*
X0187958Y0153132D01*
X0188228Y0153783D01*
X0188228Y0154488D01*
X0187958Y0155139D01*
X0187460Y0155638D01*
X0186809Y0155907D01*
D02*
G37*
G36*
X0181888Y0155039D02*
X0181183Y0155039D01*
X0180532Y0154769D01*
X0180033Y0154271D01*
X0179764Y0153620D01*
X0179764Y0152915D01*
X0180033Y0152264D01*
X0180532Y0151766D01*
X0181183Y0151496D01*
X0181888Y0151496D01*
X0182539Y0151766D01*
X0183037Y0152264D01*
X0183307Y0152915D01*
X0183307Y0153620D01*
X0183037Y0154271D01*
X0182539Y0154769D01*
X0181888Y0155039D01*
D02*
G37*
G36*
X0166927Y0154055D02*
X0166222Y0154055D01*
X0165571Y0153785D01*
X0165073Y0153287D01*
X0164803Y0152636D01*
X0164803Y0151931D01*
X0164927Y0151632D01*
X0164259Y0151186D01*
X0164117Y0151328D01*
X0163465Y0151598D01*
X0162761Y0151598D01*
X0162110Y0151328D01*
X0161611Y0150830D01*
X0161341Y0150179D01*
X0161341Y0149474D01*
X0161611Y0148823D01*
X0162110Y0148325D01*
X0162761Y0148055D01*
X0163465Y0148055D01*
X0164117Y0148325D01*
X0164615Y0148823D01*
X0164885Y0149474D01*
X0164885Y0150179D01*
X0164761Y0150478D01*
X0165428Y0150924D01*
X0165571Y0150781D01*
X0166222Y0150511D01*
X0166927Y0150511D01*
X0167578Y0150781D01*
X0168077Y0151280D01*
X0168346Y0151931D01*
X0168346Y0152636D01*
X0168077Y0153287D01*
X0167578Y0153785D01*
X0166927Y0154055D01*
D02*
G37*
G36*
X0281691Y0152283D02*
X0280986Y0152283D01*
X0280335Y0152013D01*
X0279836Y0151515D01*
X0279567Y0150864D01*
X0279065Y0150479D01*
X0278945Y0150511D01*
X0278220Y0150511D01*
X0277519Y0150324D01*
X0277421Y0150267D01*
X0276541Y0150334D01*
X0276043Y0150832D01*
X0275392Y0151102D01*
X0274687Y0151102D01*
X0274260Y0150925D01*
X0274036Y0150832D01*
X0273392Y0151121D01*
X0272893Y0151620D01*
X0272242Y0151890D01*
X0271537Y0151890D01*
X0270886Y0151620D01*
X0270388Y0151121D01*
X0270118Y0150470D01*
X0270118Y0149765D01*
X0270173Y0149633D01*
X0269477Y0149290D01*
X0269425Y0149354D01*
X0269370Y0149448D01*
X0268857Y0149961D01*
X0268229Y0150324D01*
X0267528Y0150512D01*
X0266802Y0150512D01*
X0266101Y0150324D01*
X0265473Y0149961D01*
X0264960Y0149448D01*
X0264597Y0148819D01*
X0264409Y0148119D01*
X0264409Y0147393D01*
X0264597Y0146692D01*
X0264960Y0146064D01*
X0265473Y0145550D01*
X0266101Y0145188D01*
X0266802Y0145000D01*
X0267528Y0145000D01*
X0268229Y0145188D01*
X0268857Y0145550D01*
X0269370Y0146064D01*
X0269733Y0146692D01*
X0269921Y0147393D01*
X0269921Y0148119D01*
X0269798Y0148576D01*
X0269762Y0148711D01*
X0269887Y0148791D01*
X0270499Y0149003D01*
X0270547Y0148955D01*
X0270886Y0148616D01*
X0271537Y0148346D01*
X0272242Y0148346D01*
X0272669Y0148523D01*
X0272893Y0148616D01*
X0273537Y0148327D01*
X0274036Y0147829D01*
X0274687Y0147559D01*
X0275392Y0147559D01*
X0275949Y0146937D01*
X0276014Y0146692D01*
X0276377Y0146064D01*
X0276890Y0145550D01*
X0277519Y0145187D01*
X0278220Y0145000D01*
X0278945Y0145000D01*
X0279646Y0145187D01*
X0280275Y0145550D01*
X0280788Y0146064D01*
X0281151Y0146692D01*
X0281338Y0147393D01*
X0281338Y0147966D01*
X0281542Y0148100D01*
X0282297Y0148062D01*
X0282795Y0147563D01*
X0283447Y0147293D01*
X0284151Y0147293D01*
X0284803Y0147563D01*
X0285301Y0148062D01*
X0285571Y0148713D01*
X0285571Y0149417D01*
X0285301Y0150069D01*
X0284803Y0150567D01*
X0284151Y0150837D01*
X0283447Y0150837D01*
X0282868Y0151449D01*
X0282840Y0151515D01*
X0282342Y0152013D01*
X0281691Y0152283D01*
D02*
G37*
G36*
X0186021Y0149921D02*
X0185317Y0149921D01*
X0184665Y0149651D01*
X0184167Y0149153D01*
X0184047Y0148863D01*
X0183409Y0148539D01*
X0183134Y0148560D01*
X0182657Y0148757D01*
X0181953Y0148757D01*
X0181301Y0148488D01*
X0180803Y0147989D01*
X0180533Y0147338D01*
X0180533Y0146633D01*
X0180803Y0145982D01*
X0181301Y0145484D01*
X0181953Y0145214D01*
X0182657Y0145214D01*
X0183309Y0145484D01*
X0183807Y0145982D01*
X0183927Y0146272D01*
X0184565Y0146596D01*
X0184840Y0146575D01*
X0185317Y0146378D01*
X0186021Y0146378D01*
X0186673Y0146647D01*
X0187171Y0147146D01*
X0187441Y0147797D01*
X0187441Y0148502D01*
X0187171Y0149153D01*
X0186673Y0149651D01*
X0186021Y0149921D01*
D02*
G37*
G36*
X0203483Y0153957D02*
X0202778Y0153957D01*
X0202127Y0153687D01*
X0201628Y0153188D01*
X0201359Y0152537D01*
X0201359Y0151832D01*
X0201628Y0151181D01*
X0202127Y0150683D01*
X0202778Y0150413D01*
X0203483Y0150413D01*
X0204134Y0150683D01*
X0204370Y0150919D01*
X0205157Y0150593D01*
X0205157Y0150553D01*
X0205427Y0149902D01*
X0205925Y0149403D01*
X0206576Y0149134D01*
X0207281Y0149134D01*
X0207410Y0149187D01*
X0208076Y0148611D01*
X0208068Y0148576D01*
X0207266Y0148190D01*
X0206888Y0148346D01*
X0206183Y0148346D01*
X0205532Y0148076D01*
X0205033Y0147578D01*
X0204764Y0146927D01*
X0204764Y0146222D01*
X0205033Y0145571D01*
X0205532Y0145073D01*
X0206183Y0144803D01*
X0206888Y0144803D01*
X0207539Y0145073D01*
X0208037Y0145571D01*
X0208307Y0146222D01*
X0209075Y0146549D01*
X0209726Y0146279D01*
X0210431Y0146279D01*
X0211082Y0146549D01*
X0211124Y0146591D01*
X0211651Y0146557D01*
X0212032Y0146372D01*
X0212070Y0146260D01*
X0212075Y0146019D01*
X0211848Y0145471D01*
X0211848Y0144766D01*
X0212117Y0144115D01*
X0212616Y0143617D01*
X0212785Y0142695D01*
X0212651Y0142371D01*
X0212651Y0141667D01*
X0212921Y0141015D01*
X0213419Y0140517D01*
X0214070Y0140247D01*
X0214775Y0140247D01*
X0215426Y0140517D01*
X0215924Y0141015D01*
X0216194Y0141667D01*
X0216194Y0142371D01*
X0215924Y0143023D01*
X0215426Y0143521D01*
X0215257Y0144443D01*
X0215391Y0144766D01*
X0215391Y0145471D01*
X0215322Y0145638D01*
X0215151Y0146154D01*
X0215656Y0146701D01*
X0215708Y0146732D01*
X0216221Y0147245D01*
X0216584Y0147873D01*
X0216771Y0148574D01*
X0216771Y0149300D01*
X0216584Y0150001D01*
X0216221Y0150629D01*
X0215708Y0151142D01*
X0215079Y0151505D01*
X0214378Y0151693D01*
X0213653Y0151693D01*
X0212952Y0151505D01*
X0212323Y0151142D01*
X0211810Y0150629D01*
X0211535Y0150152D01*
X0211413Y0149991D01*
X0210569Y0149765D01*
X0210431Y0149822D01*
X0209726Y0149822D01*
X0209136Y0149578D01*
X0208935Y0149692D01*
X0208516Y0150108D01*
X0208701Y0150553D01*
X0208701Y0151258D01*
X0208431Y0151909D01*
X0207932Y0152407D01*
X0207281Y0152677D01*
X0206576Y0152677D01*
X0205925Y0152407D01*
X0205689Y0152171D01*
X0204902Y0152497D01*
X0204902Y0152537D01*
X0204632Y0153188D01*
X0204134Y0153687D01*
X0203483Y0153957D01*
D02*
G37*
G36*
X0178665Y0151586D02*
X0177960Y0151586D01*
X0177309Y0151316D01*
X0176811Y0150818D01*
X0176541Y0150167D01*
X0176541Y0149462D01*
X0176811Y0148811D01*
X0177309Y0148312D01*
X0177960Y0148043D01*
X0178665Y0148043D01*
X0179316Y0148312D01*
X0179815Y0148811D01*
X0180085Y0149462D01*
X0180085Y0150167D01*
X0179815Y0150818D01*
X0179316Y0151316D01*
X0178665Y0151586D01*
D02*
G37*
G36*
X0226179Y0152126D02*
X0225474Y0152126D01*
X0224823Y0151856D01*
X0224325Y0151358D01*
X0224055Y0150707D01*
X0224055Y0150002D01*
X0224325Y0149351D01*
X0224813Y0148862D01*
X0224455Y0148503D01*
X0224185Y0147852D01*
X0224185Y0147147D01*
X0224455Y0146496D01*
X0224953Y0145998D01*
X0225605Y0145728D01*
X0226309Y0145728D01*
X0226960Y0145998D01*
X0227459Y0146496D01*
X0227553Y0146723D01*
X0228318Y0146694D01*
X0228386Y0146676D01*
X0228739Y0146064D01*
X0229253Y0145550D01*
X0229881Y0145187D01*
X0230582Y0145000D01*
X0231308Y0145000D01*
X0232008Y0145187D01*
X0232424Y0145427D01*
X0233117Y0145310D01*
X0233379Y0145179D01*
X0233380Y0145177D01*
X0233878Y0144679D01*
X0234529Y0144409D01*
X0235234Y0144409D01*
X0235885Y0144679D01*
X0236384Y0145177D01*
X0236653Y0145828D01*
X0236653Y0146533D01*
X0236384Y0147184D01*
X0236307Y0147261D01*
X0236753Y0147928D01*
X0236915Y0147861D01*
X0237620Y0147861D01*
X0238271Y0148131D01*
X0238770Y0148629D01*
X0239039Y0149280D01*
X0239039Y0149985D01*
X0238770Y0150636D01*
X0238271Y0151135D01*
X0237620Y0151404D01*
X0236915Y0151404D01*
X0236264Y0151135D01*
X0235766Y0150636D01*
X0235496Y0149985D01*
X0235496Y0149280D01*
X0235766Y0148629D01*
X0235842Y0148553D01*
X0235396Y0147885D01*
X0235234Y0147953D01*
X0234529Y0147953D01*
X0234488Y0147935D01*
X0234284Y0147983D01*
X0233618Y0148427D01*
X0233513Y0148819D01*
X0233150Y0149448D01*
X0232637Y0149961D01*
X0232008Y0150324D01*
X0231308Y0150511D01*
X0230582Y0150511D01*
X0229881Y0150324D01*
X0229253Y0149961D01*
X0228739Y0149448D01*
X0228377Y0148819D01*
X0228310Y0148572D01*
X0227571Y0148489D01*
X0227068Y0149090D01*
X0227328Y0149351D01*
X0227598Y0150002D01*
X0227598Y0150707D01*
X0227328Y0151358D01*
X0226830Y0151856D01*
X0226179Y0152126D01*
D02*
G37*
G36*
X0301770Y0149921D02*
X0301065Y0149921D01*
X0300414Y0149651D01*
X0299915Y0149153D01*
X0299646Y0148502D01*
X0299646Y0147797D01*
X0299915Y0147146D01*
X0300414Y0146647D01*
X0301065Y0146378D01*
X0301770Y0146378D01*
X0302311Y0146602D01*
X0303051Y0146872D01*
X0303550Y0146374D01*
X0304201Y0146104D01*
X0304906Y0146104D01*
X0305557Y0146374D01*
X0306055Y0146872D01*
X0306325Y0147523D01*
X0306325Y0148228D01*
X0306055Y0148879D01*
X0305557Y0149378D01*
X0304906Y0149647D01*
X0304201Y0149647D01*
X0303659Y0149423D01*
X0302919Y0149153D01*
X0302421Y0149651D01*
X0301770Y0149921D01*
D02*
G37*
G36*
X0244683Y0152283D02*
X0243978Y0152283D01*
X0243327Y0152013D01*
X0242829Y0151515D01*
X0242559Y0150864D01*
X0242559Y0150159D01*
X0242829Y0149508D01*
X0242875Y0149462D01*
X0242690Y0148533D01*
X0242540Y0148470D01*
X0242041Y0147972D01*
X0241772Y0147321D01*
X0241772Y0146616D01*
X0242041Y0145965D01*
X0242540Y0145466D01*
X0243191Y0145197D01*
X0243896Y0145197D01*
X0244547Y0145466D01*
X0245045Y0145965D01*
X0245209Y0146360D01*
X0246019Y0146488D01*
X0246047Y0146483D01*
X0246062Y0146457D01*
X0246575Y0145944D01*
X0247204Y0145581D01*
X0247905Y0145393D01*
X0248630Y0145393D01*
X0249331Y0145581D01*
X0249960Y0145944D01*
X0250024Y0146008D01*
X0250641Y0146326D01*
X0251066Y0145995D01*
X0251201Y0145860D01*
X0251852Y0145590D01*
X0252557Y0145590D01*
X0253208Y0145860D01*
X0253706Y0146358D01*
X0253976Y0147010D01*
X0253976Y0147714D01*
X0253706Y0148365D01*
X0253735Y0148508D01*
X0253995Y0148616D01*
X0254494Y0149114D01*
X0254764Y0149765D01*
X0254764Y0150470D01*
X0254494Y0151121D01*
X0253995Y0151620D01*
X0253344Y0151890D01*
X0252639Y0151890D01*
X0251988Y0151620D01*
X0251490Y0151121D01*
X0251220Y0150470D01*
X0251220Y0150122D01*
X0250614Y0149894D01*
X0250433Y0149881D01*
X0249960Y0150355D01*
X0249331Y0150717D01*
X0248630Y0150905D01*
X0247905Y0150905D01*
X0247204Y0150717D01*
X0246889Y0150536D01*
X0246176Y0150833D01*
X0246123Y0150877D01*
X0246073Y0150934D01*
X0245832Y0151515D01*
X0245334Y0152013D01*
X0244683Y0152283D01*
D02*
G37*
G36*
X0199014Y0149134D02*
X0198309Y0149134D01*
X0197658Y0148864D01*
X0197159Y0148365D01*
X0196890Y0147714D01*
X0196890Y0147009D01*
X0197159Y0146358D01*
X0197658Y0145860D01*
X0198309Y0145590D01*
X0199014Y0145590D01*
X0199665Y0145860D01*
X0200163Y0146358D01*
X0200433Y0147009D01*
X0200433Y0147714D01*
X0200163Y0148365D01*
X0199665Y0148864D01*
X0199014Y0149134D01*
D02*
G37*
G36*
X0290756Y0150511D02*
X0290031Y0150511D01*
X0289330Y0150324D01*
X0288701Y0149961D01*
X0288188Y0149448D01*
X0287825Y0148819D01*
X0287638Y0148118D01*
X0287638Y0147393D01*
X0287825Y0146692D01*
X0288188Y0146064D01*
X0288701Y0145550D01*
X0289330Y0145187D01*
X0290031Y0145000D01*
X0290756Y0145000D01*
X0291457Y0145187D01*
X0292086Y0145550D01*
X0292599Y0146064D01*
X0292962Y0146692D01*
X0293149Y0147393D01*
X0293149Y0148118D01*
X0292962Y0148819D01*
X0292599Y0149448D01*
X0292086Y0149961D01*
X0291457Y0150324D01*
X0290756Y0150511D01*
D02*
G37*
G36*
X0260985Y0151496D02*
X0260280Y0151496D01*
X0259629Y0151226D01*
X0259130Y0150728D01*
X0258861Y0150077D01*
X0258861Y0149861D01*
X0258858Y0149371D01*
X0258151Y0149134D01*
X0257500Y0148864D01*
X0257002Y0148365D01*
X0256732Y0147714D01*
X0256732Y0147010D01*
X0257002Y0146358D01*
X0257500Y0145860D01*
X0258151Y0145590D01*
X0258856Y0145590D01*
X0259507Y0145860D01*
X0259572Y0145925D01*
X0260359Y0145599D01*
X0260359Y0145319D01*
X0260629Y0144668D01*
X0261127Y0144169D01*
X0261779Y0143900D01*
X0262483Y0143900D01*
X0263134Y0144169D01*
X0263633Y0144668D01*
X0263903Y0145319D01*
X0263903Y0146024D01*
X0263633Y0146675D01*
X0263134Y0147173D01*
X0262483Y0147443D01*
X0261779Y0147443D01*
X0261511Y0148170D01*
X0261636Y0148222D01*
X0262134Y0148721D01*
X0262404Y0149372D01*
X0262404Y0150077D01*
X0262134Y0150728D01*
X0261636Y0151226D01*
X0260985Y0151496D01*
D02*
G37*
G36*
X0236809Y0143622D02*
X0236104Y0143622D01*
X0235453Y0143352D01*
X0234980Y0142879D01*
X0234507Y0143352D01*
X0233856Y0143622D01*
X0233151Y0143622D01*
X0232500Y0143352D01*
X0232002Y0142854D01*
X0231732Y0142203D01*
X0231732Y0141498D01*
X0232002Y0140847D01*
X0232500Y0140348D01*
X0233151Y0140079D01*
X0233856Y0140079D01*
X0234507Y0140348D01*
X0234980Y0140821D01*
X0235453Y0140348D01*
X0236104Y0140079D01*
X0236809Y0140079D01*
X0237460Y0140348D01*
X0237958Y0140847D01*
X0238228Y0141498D01*
X0238228Y0142203D01*
X0237958Y0142854D01*
X0237460Y0143352D01*
X0236809Y0143622D01*
D02*
G37*
G36*
X0190963Y0149761D02*
X0190258Y0149761D01*
X0189607Y0149491D01*
X0189109Y0148993D01*
X0188839Y0148341D01*
X0188839Y0147637D01*
X0189109Y0146985D01*
X0189607Y0146487D01*
X0189624Y0146405D01*
X0189362Y0146143D01*
X0189093Y0145492D01*
X0189093Y0144787D01*
X0189362Y0144136D01*
X0189861Y0143638D01*
X0190512Y0143368D01*
X0191217Y0143368D01*
X0191868Y0143638D01*
X0192366Y0144136D01*
X0192508Y0144480D01*
X0193296Y0144323D01*
X0193296Y0143790D01*
X0193566Y0143139D01*
X0194064Y0142641D01*
X0194715Y0142371D01*
X0195420Y0142371D01*
X0196071Y0142641D01*
X0196569Y0143139D01*
X0196839Y0143790D01*
X0196839Y0144495D01*
X0196569Y0145146D01*
X0196071Y0145645D01*
X0195420Y0145914D01*
X0194715Y0145914D01*
X0194064Y0145645D01*
X0193566Y0145146D01*
X0193423Y0144803D01*
X0192636Y0144960D01*
X0192636Y0145492D01*
X0192366Y0146143D01*
X0191868Y0146642D01*
X0191851Y0146724D01*
X0192113Y0146985D01*
X0192382Y0147637D01*
X0192382Y0148341D01*
X0192113Y0148993D01*
X0191614Y0149491D01*
X0190963Y0149761D01*
D02*
G37*
G36*
X0200392Y0144803D02*
X0199687Y0144803D01*
X0199036Y0144533D01*
X0198537Y0144035D01*
X0198267Y0143384D01*
X0198267Y0142679D01*
X0198537Y0142028D01*
X0199036Y0141529D01*
X0199687Y0141260D01*
X0200392Y0141260D01*
X0201043Y0141529D01*
X0201541Y0142028D01*
X0201811Y0142679D01*
X0201811Y0143384D01*
X0201541Y0144035D01*
X0201043Y0144533D01*
X0200392Y0144803D01*
D02*
G37*
G36*
X0163384Y0146771D02*
X0162679Y0146771D01*
X0162028Y0146502D01*
X0161529Y0146003D01*
X0161260Y0145352D01*
X0161260Y0144647D01*
X0161529Y0143996D01*
X0162028Y0143498D01*
X0162679Y0143228D01*
X0163384Y0143228D01*
X0163812Y0143405D01*
X0164016Y0143269D01*
X0164285Y0142618D01*
X0164784Y0142120D01*
X0165435Y0141850D01*
X0166140Y0141850D01*
X0166791Y0142120D01*
X0167282Y0142611D01*
X0167294Y0142619D01*
X0168189Y0142733D01*
X0168401Y0142522D01*
X0169052Y0142252D01*
X0169757Y0142252D01*
X0170376Y0142509D01*
X0170584Y0142006D01*
X0171083Y0141508D01*
X0171734Y0141238D01*
X0172439Y0141238D01*
X0173090Y0141508D01*
X0173588Y0142006D01*
X0173858Y0142658D01*
X0173858Y0143362D01*
X0173588Y0144014D01*
X0173090Y0144512D01*
X0172439Y0144782D01*
X0171734Y0144782D01*
X0171114Y0144525D01*
X0170906Y0145027D01*
X0170408Y0145525D01*
X0169757Y0145795D01*
X0169052Y0145795D01*
X0168401Y0145525D01*
X0167909Y0145034D01*
X0167898Y0145026D01*
X0167002Y0144912D01*
X0166791Y0145124D01*
X0166140Y0145393D01*
X0165435Y0145393D01*
X0165007Y0145216D01*
X0164803Y0145352D01*
X0164533Y0146003D01*
X0164035Y0146502D01*
X0163384Y0146771D01*
D02*
G37*
G36*
X0304987Y0144671D02*
X0304282Y0144671D01*
X0303631Y0144401D01*
X0303132Y0143903D01*
X0302863Y0143252D01*
X0302863Y0142547D01*
X0303132Y0141896D01*
X0303631Y0141397D01*
X0304282Y0141128D01*
X0304987Y0141128D01*
X0305638Y0141397D01*
X0306136Y0141896D01*
X0306406Y0142547D01*
X0306406Y0143252D01*
X0306136Y0143903D01*
X0305638Y0144401D01*
X0304987Y0144671D01*
D02*
G37*
G36*
X0250195Y0140866D02*
X0249490Y0140866D01*
X0248839Y0140596D01*
X0248340Y0140098D01*
X0247566Y0140286D01*
X0247045Y0140502D01*
X0246340Y0140502D01*
X0245689Y0140232D01*
X0245618Y0140160D01*
X0245133Y0139774D01*
X0244589Y0140160D01*
X0244547Y0140202D01*
X0243896Y0140472D01*
X0243191Y0140472D01*
X0242540Y0140202D01*
X0242041Y0139704D01*
X0241772Y0139053D01*
X0241772Y0138348D01*
X0242041Y0137697D01*
X0242540Y0137199D01*
X0243191Y0136929D01*
X0243896Y0136929D01*
X0244547Y0137199D01*
X0244618Y0137270D01*
X0245103Y0137656D01*
X0245647Y0137270D01*
X0245689Y0137228D01*
X0246340Y0136958D01*
X0247045Y0136958D01*
X0247696Y0137228D01*
X0248195Y0137726D01*
X0248969Y0137538D01*
X0249490Y0137323D01*
X0250195Y0137323D01*
X0250846Y0137592D01*
X0251344Y0138091D01*
X0251614Y0138742D01*
X0251614Y0139447D01*
X0251344Y0140098D01*
X0250846Y0140596D01*
X0250195Y0140866D01*
D02*
G37*
G36*
X0279525Y0143622D02*
X0278821Y0143622D01*
X0278169Y0143352D01*
X0277671Y0142854D01*
X0277401Y0142203D01*
X0277401Y0141498D01*
X0277671Y0140847D01*
X0278169Y0140348D01*
X0278821Y0140079D01*
X0279525Y0140079D01*
X0280177Y0140348D01*
X0280675Y0140847D01*
X0280715Y0140944D01*
X0281568Y0140944D01*
X0281608Y0140847D01*
X0282107Y0140348D01*
X0282758Y0140079D01*
X0283462Y0140079D01*
X0284114Y0140348D01*
X0284612Y0140847D01*
X0284882Y0141498D01*
X0284882Y0142203D01*
X0284612Y0142854D01*
X0284114Y0143352D01*
X0283462Y0143622D01*
X0282758Y0143622D01*
X0282107Y0143352D01*
X0281608Y0142854D01*
X0281568Y0142756D01*
X0280715Y0142756D01*
X0280675Y0142854D01*
X0280177Y0143352D01*
X0279525Y0143622D01*
D02*
G37*
G36*
X0227568Y0140624D02*
X0226863Y0140624D01*
X0226212Y0140355D01*
X0225990Y0140133D01*
X0225611Y0139893D01*
X0224971Y0140122D01*
X0224862Y0140232D01*
X0224211Y0140502D01*
X0223506Y0140502D01*
X0222855Y0140232D01*
X0222783Y0140160D01*
X0222299Y0139774D01*
X0221754Y0140160D01*
X0221712Y0140202D01*
X0221061Y0140472D01*
X0220356Y0140472D01*
X0219705Y0140202D01*
X0219207Y0139704D01*
X0218937Y0139053D01*
X0218937Y0138348D01*
X0219207Y0137697D01*
X0219705Y0137199D01*
X0220356Y0136929D01*
X0221061Y0136929D01*
X0221712Y0137199D01*
X0221784Y0137270D01*
X0222268Y0137656D01*
X0222812Y0137270D01*
X0222855Y0137228D01*
X0223506Y0136958D01*
X0224211Y0136958D01*
X0224862Y0137228D01*
X0225084Y0137450D01*
X0225462Y0137690D01*
X0226102Y0137460D01*
X0226212Y0137351D01*
X0226863Y0137081D01*
X0227568Y0137081D01*
X0228219Y0137351D01*
X0228717Y0137849D01*
X0228987Y0138500D01*
X0228987Y0139205D01*
X0228717Y0139856D01*
X0228219Y0140355D01*
X0227568Y0140624D01*
D02*
G37*
G36*
X0292714Y0140502D02*
X0292010Y0140502D01*
X0291358Y0140232D01*
X0291287Y0140160D01*
X0290802Y0139774D01*
X0290258Y0140160D01*
X0290216Y0140202D01*
X0289565Y0140472D01*
X0288860Y0140472D01*
X0288209Y0140202D01*
X0287710Y0139704D01*
X0287441Y0139053D01*
X0287441Y0138348D01*
X0287710Y0137697D01*
X0288209Y0137199D01*
X0288860Y0136929D01*
X0289565Y0136929D01*
X0290216Y0137199D01*
X0290288Y0137270D01*
X0290772Y0137656D01*
X0291316Y0137270D01*
X0291358Y0137228D01*
X0292010Y0136958D01*
X0292714Y0136958D01*
X0293366Y0137228D01*
X0293408Y0137270D01*
X0293952Y0137656D01*
X0294436Y0137270D01*
X0294508Y0137199D01*
X0295159Y0136929D01*
X0295864Y0136929D01*
X0296071Y0137015D01*
X0296869Y0137144D01*
X0297367Y0136646D01*
X0298019Y0136376D01*
X0298724Y0136376D01*
X0299375Y0136646D01*
X0299873Y0137144D01*
X0300143Y0137796D01*
X0300143Y0138500D01*
X0299873Y0139152D01*
X0299375Y0139650D01*
X0298724Y0139920D01*
X0298019Y0139920D01*
X0297812Y0139834D01*
X0297014Y0139704D01*
X0296515Y0140202D01*
X0295864Y0140472D01*
X0295159Y0140472D01*
X0294508Y0140202D01*
X0294466Y0140160D01*
X0293922Y0139774D01*
X0293437Y0140160D01*
X0293366Y0140232D01*
X0292714Y0140502D01*
D02*
G37*
G36*
X0269880Y0140502D02*
X0269175Y0140502D01*
X0268524Y0140232D01*
X0268452Y0140160D01*
X0267968Y0139774D01*
X0267423Y0140160D01*
X0267381Y0140202D01*
X0266730Y0140472D01*
X0266025Y0140472D01*
X0265374Y0140202D01*
X0264876Y0139704D01*
X0264606Y0139053D01*
X0264606Y0138348D01*
X0264876Y0137697D01*
X0265374Y0137199D01*
X0266025Y0136929D01*
X0266730Y0136929D01*
X0267381Y0137199D01*
X0267453Y0137270D01*
X0267937Y0137656D01*
X0268482Y0137270D01*
X0268524Y0137228D01*
X0269175Y0136958D01*
X0269880Y0136958D01*
X0270531Y0137228D01*
X0270573Y0137270D01*
X0271118Y0137656D01*
X0271602Y0137270D01*
X0271673Y0137199D01*
X0272324Y0136929D01*
X0273029Y0136929D01*
X0273681Y0137199D01*
X0274179Y0137697D01*
X0274449Y0138348D01*
X0274449Y0139053D01*
X0274179Y0139704D01*
X0273681Y0140202D01*
X0273029Y0140472D01*
X0272324Y0140472D01*
X0271673Y0140202D01*
X0271631Y0140160D01*
X0271087Y0139774D01*
X0270602Y0140160D01*
X0270531Y0140232D01*
X0269880Y0140502D01*
D02*
G37*
G36*
X0190352Y0142047D02*
X0189647Y0142047D01*
X0188996Y0141777D01*
X0188498Y0141279D01*
X0188228Y0140628D01*
X0188228Y0139923D01*
X0188498Y0139272D01*
X0188996Y0138773D01*
X0189647Y0138504D01*
X0190352Y0138504D01*
X0191003Y0138773D01*
X0191502Y0139272D01*
X0191771Y0139923D01*
X0191771Y0140628D01*
X0191502Y0141279D01*
X0191003Y0141777D01*
X0190352Y0142047D01*
D02*
G37*
G36*
X0257766Y0143722D02*
X0257061Y0143722D01*
X0256410Y0143452D01*
X0255912Y0142954D01*
X0255642Y0142303D01*
X0255642Y0141598D01*
X0255912Y0140947D01*
X0256410Y0140448D01*
X0257061Y0140179D01*
X0257766Y0140179D01*
X0258316Y0139811D01*
X0258316Y0139714D01*
X0258586Y0139063D01*
X0259084Y0138565D01*
X0259735Y0138295D01*
X0260440Y0138295D01*
X0261091Y0138565D01*
X0261590Y0139063D01*
X0261859Y0139714D01*
X0261859Y0140419D01*
X0261590Y0141070D01*
X0261091Y0141569D01*
X0260440Y0141838D01*
X0259735Y0141838D01*
X0259185Y0142206D01*
X0259185Y0142303D01*
X0258916Y0142954D01*
X0258417Y0143452D01*
X0257766Y0143722D01*
D02*
G37*
G36*
X0206983Y0143479D02*
X0206278Y0143479D01*
X0205627Y0143209D01*
X0205128Y0142711D01*
X0204859Y0142059D01*
X0204859Y0141355D01*
X0205128Y0140703D01*
X0205482Y0140350D01*
X0205606Y0140018D01*
X0205536Y0139390D01*
X0205260Y0139113D01*
X0204990Y0138462D01*
X0204990Y0137758D01*
X0205260Y0137106D01*
X0205643Y0136723D01*
X0205630Y0136659D01*
X0205132Y0136161D01*
X0204862Y0135510D01*
X0204862Y0135035D01*
X0204368Y0134581D01*
X0204144Y0134480D01*
X0203935Y0134567D01*
X0203230Y0134567D01*
X0202579Y0134297D01*
X0202081Y0133799D01*
X0201811Y0133147D01*
X0201811Y0132443D01*
X0202081Y0131791D01*
X0202579Y0131293D01*
X0203230Y0131023D01*
X0203935Y0131023D01*
X0204586Y0131293D01*
X0205084Y0131791D01*
X0205354Y0132443D01*
X0205354Y0132917D01*
X0205848Y0133371D01*
X0206072Y0133472D01*
X0206281Y0133386D01*
X0206986Y0133386D01*
X0207637Y0133655D01*
X0208136Y0134154D01*
X0208405Y0134805D01*
X0208405Y0135510D01*
X0208136Y0136161D01*
X0207752Y0136544D01*
X0207765Y0136608D01*
X0208263Y0137106D01*
X0208533Y0137758D01*
X0208533Y0138462D01*
X0208263Y0139113D01*
X0207910Y0139467D01*
X0207786Y0139799D01*
X0207856Y0140427D01*
X0208132Y0140703D01*
X0208402Y0141355D01*
X0208402Y0142059D01*
X0208132Y0142711D01*
X0207634Y0143209D01*
X0206983Y0143479D01*
D02*
G37*
G36*
X0163088Y0136929D02*
X0162384Y0136929D01*
X0161732Y0136659D01*
X0161234Y0136161D01*
X0160964Y0135510D01*
X0160964Y0134805D01*
X0161234Y0134154D01*
X0161732Y0133655D01*
X0162384Y0133386D01*
X0163088Y0133386D01*
X0163740Y0133655D01*
X0164238Y0134154D01*
X0164508Y0134805D01*
X0164508Y0135510D01*
X0164238Y0136161D01*
X0163740Y0136659D01*
X0163088Y0136929D01*
D02*
G37*
G36*
X0305706Y0133779D02*
X0305002Y0133779D01*
X0304351Y0133510D01*
X0303852Y0133011D01*
X0303582Y0132360D01*
X0303582Y0132280D01*
X0302795Y0131954D01*
X0302618Y0132132D01*
X0301966Y0132401D01*
X0301262Y0132401D01*
X0300610Y0132132D01*
X0300112Y0131633D01*
X0299842Y0130982D01*
X0299842Y0130277D01*
X0300112Y0129626D01*
X0300610Y0129128D01*
X0301262Y0128858D01*
X0301966Y0128858D01*
X0302618Y0129128D01*
X0303116Y0129626D01*
X0303386Y0130277D01*
X0303386Y0130357D01*
X0304173Y0130683D01*
X0304351Y0130506D01*
X0305002Y0130236D01*
X0305649Y0129998D01*
X0305649Y0129293D01*
X0305919Y0128642D01*
X0306417Y0128144D01*
X0307069Y0127874D01*
X0307773Y0127874D01*
X0308425Y0128144D01*
X0308923Y0128642D01*
X0309193Y0129293D01*
X0309193Y0129998D01*
X0308923Y0130649D01*
X0308425Y0131147D01*
X0307773Y0131417D01*
X0307126Y0131655D01*
X0307126Y0132360D01*
X0306856Y0133011D01*
X0306358Y0133510D01*
X0305706Y0133779D01*
D02*
G37*
G36*
X0169500Y0134888D02*
X0168795Y0134888D01*
X0168144Y0134618D01*
X0167645Y0134120D01*
X0167376Y0133469D01*
X0167376Y0132764D01*
X0167645Y0132113D01*
X0168144Y0131615D01*
X0168795Y0131345D01*
X0169500Y0131345D01*
X0170151Y0131615D01*
X0170649Y0132113D01*
X0170919Y0132764D01*
X0170919Y0133469D01*
X0170649Y0134120D01*
X0170151Y0134618D01*
X0169500Y0134888D01*
D02*
G37*
G36*
X0174513Y0134818D02*
X0173808Y0134818D01*
X0173157Y0134548D01*
X0172658Y0134050D01*
X0172389Y0133399D01*
X0172389Y0132694D01*
X0172658Y0132043D01*
X0173157Y0131545D01*
X0173808Y0131275D01*
X0174513Y0131275D01*
X0175164Y0131545D01*
X0175662Y0132043D01*
X0175932Y0132694D01*
X0175932Y0133399D01*
X0175662Y0134050D01*
X0175164Y0134548D01*
X0174513Y0134818D01*
D02*
G37*
G36*
X0219289Y0133779D02*
X0218584Y0133779D01*
X0217933Y0133509D01*
X0217435Y0133011D01*
X0217165Y0132360D01*
X0217165Y0131655D01*
X0217435Y0131004D01*
X0217933Y0130506D01*
X0218584Y0130236D01*
X0219289Y0130236D01*
X0219940Y0130506D01*
X0220439Y0131004D01*
X0220709Y0131655D01*
X0220709Y0132360D01*
X0220439Y0133011D01*
X0219940Y0133509D01*
X0219289Y0133779D01*
D02*
G37*
G36*
X0287793Y0133779D02*
X0287088Y0133779D01*
X0286437Y0133509D01*
X0285939Y0133011D01*
X0285669Y0132360D01*
X0285669Y0131655D01*
X0285939Y0131004D01*
X0286437Y0130506D01*
X0287088Y0130236D01*
X0287793Y0130236D01*
X0288444Y0130506D01*
X0288943Y0131004D01*
X0289212Y0131655D01*
X0289212Y0132360D01*
X0288943Y0133011D01*
X0288444Y0133509D01*
X0287793Y0133779D01*
D02*
G37*
G36*
X0264958Y0133779D02*
X0264254Y0133779D01*
X0263603Y0133509D01*
X0263104Y0133011D01*
X0262834Y0132360D01*
X0262834Y0131655D01*
X0263104Y0131004D01*
X0263603Y0130506D01*
X0264254Y0130236D01*
X0264958Y0130236D01*
X0265610Y0130506D01*
X0266108Y0131004D01*
X0266378Y0131655D01*
X0266378Y0132360D01*
X0266108Y0133011D01*
X0265610Y0133509D01*
X0264958Y0133779D01*
D02*
G37*
G36*
X0242124Y0133779D02*
X0241419Y0133779D01*
X0240768Y0133509D01*
X0240270Y0133011D01*
X0240000Y0132360D01*
X0240000Y0131655D01*
X0240270Y0131004D01*
X0240768Y0130506D01*
X0241419Y0130236D01*
X0242124Y0130236D01*
X0242775Y0130506D01*
X0243273Y0131004D01*
X0243543Y0131655D01*
X0243543Y0132360D01*
X0243273Y0133011D01*
X0242775Y0133509D01*
X0242124Y0133779D01*
D02*
G37*
G36*
X0191044Y0136285D02*
X0190340Y0136285D01*
X0189688Y0136015D01*
X0189190Y0135517D01*
X0188920Y0134866D01*
X0188920Y0134161D01*
X0189016Y0133930D01*
X0189275Y0133185D01*
X0188777Y0132686D01*
X0188507Y0132035D01*
X0188507Y0131330D01*
X0188777Y0130679D01*
X0189275Y0130181D01*
X0189926Y0129911D01*
X0190631Y0129911D01*
X0191282Y0130181D01*
X0191781Y0130679D01*
X0192050Y0131330D01*
X0192050Y0132035D01*
X0191955Y0132266D01*
X0191696Y0133011D01*
X0192194Y0133509D01*
X0192464Y0134161D01*
X0192464Y0134866D01*
X0192194Y0135517D01*
X0191696Y0136015D01*
X0191044Y0136285D01*
D02*
G37*
G36*
X0311369Y0133938D02*
X0310664Y0133938D01*
X0310013Y0133668D01*
X0309514Y0133170D01*
X0309245Y0132519D01*
X0309245Y0131814D01*
X0309514Y0131163D01*
X0310013Y0130664D01*
X0310664Y0130395D01*
X0311369Y0130395D01*
X0312020Y0130664D01*
X0312029Y0130673D01*
X0312907Y0130610D01*
X0313406Y0130112D01*
X0314057Y0129842D01*
X0314762Y0129842D01*
X0315413Y0130112D01*
X0315911Y0130610D01*
X0316181Y0131262D01*
X0316181Y0131966D01*
X0315911Y0132618D01*
X0315413Y0133116D01*
X0314762Y0133386D01*
X0314057Y0133386D01*
X0313406Y0133116D01*
X0313397Y0133107D01*
X0312518Y0133170D01*
X0312020Y0133668D01*
X0311369Y0133938D01*
D02*
G37*
G36*
X0179033Y0142733D02*
X0178329Y0142733D01*
X0177677Y0142463D01*
X0177179Y0141965D01*
X0176909Y0141314D01*
X0176909Y0140609D01*
X0177179Y0139958D01*
X0177665Y0139472D01*
X0177307Y0139113D01*
X0177037Y0138462D01*
X0177037Y0137758D01*
X0177307Y0137106D01*
X0177259Y0136240D01*
X0177179Y0136161D01*
X0176909Y0135510D01*
X0176909Y0134805D01*
X0177179Y0134154D01*
X0177580Y0133752D01*
X0177677Y0133596D01*
X0177665Y0132808D01*
X0177474Y0132618D01*
X0177204Y0131966D01*
X0177204Y0131262D01*
X0177474Y0130610D01*
X0177973Y0130112D01*
X0178624Y0129842D01*
X0179329Y0129842D01*
X0179980Y0130112D01*
X0180478Y0130610D01*
X0180748Y0131262D01*
X0180748Y0131966D01*
X0180478Y0132618D01*
X0180077Y0133019D01*
X0179981Y0133175D01*
X0179992Y0133963D01*
X0180183Y0134154D01*
X0180453Y0134805D01*
X0180453Y0135510D01*
X0180183Y0136161D01*
X0180231Y0137027D01*
X0180311Y0137106D01*
X0180581Y0137758D01*
X0180581Y0138462D01*
X0180311Y0139113D01*
X0179825Y0139600D01*
X0180183Y0139958D01*
X0180453Y0140609D01*
X0180453Y0141314D01*
X0180183Y0141965D01*
X0179685Y0142463D01*
X0179033Y0142733D01*
D02*
G37*
G36*
X0260628Y0132401D02*
X0259923Y0132401D01*
X0259272Y0132132D01*
X0258774Y0131633D01*
X0258504Y0130982D01*
X0258504Y0130277D01*
X0258774Y0129626D01*
X0259272Y0129128D01*
X0259923Y0128858D01*
X0260628Y0128858D01*
X0261279Y0129128D01*
X0261777Y0129626D01*
X0262047Y0130277D01*
X0262047Y0130982D01*
X0261777Y0131633D01*
X0261279Y0132132D01*
X0260628Y0132401D01*
D02*
G37*
G36*
X0237793Y0132401D02*
X0237088Y0132401D01*
X0236437Y0132132D01*
X0235939Y0131633D01*
X0235669Y0130982D01*
X0235669Y0130277D01*
X0235939Y0129626D01*
X0236437Y0129128D01*
X0237088Y0128858D01*
X0237793Y0128858D01*
X0238444Y0129128D01*
X0238943Y0129626D01*
X0239212Y0130277D01*
X0239212Y0130982D01*
X0238943Y0131633D01*
X0238444Y0132132D01*
X0237793Y0132401D01*
D02*
G37*
G36*
X0283462Y0132401D02*
X0282758Y0132401D01*
X0282107Y0132132D01*
X0281608Y0131633D01*
X0281338Y0130982D01*
X0281338Y0130277D01*
X0281608Y0129626D01*
X0282107Y0129128D01*
X0282758Y0128858D01*
X0283462Y0128858D01*
X0284114Y0129128D01*
X0284612Y0129626D01*
X0284882Y0130277D01*
X0284882Y0130982D01*
X0284612Y0131633D01*
X0284114Y0132132D01*
X0283462Y0132401D01*
D02*
G37*
G36*
X0214959Y0132401D02*
X0214254Y0132401D01*
X0213603Y0132132D01*
X0213104Y0131633D01*
X0212835Y0130982D01*
X0212835Y0130277D01*
X0213104Y0129626D01*
X0213603Y0129128D01*
X0214254Y0128858D01*
X0214959Y0128858D01*
X0215610Y0129128D01*
X0216108Y0129626D01*
X0216378Y0130277D01*
X0216378Y0130982D01*
X0216108Y0131633D01*
X0215610Y0132132D01*
X0214959Y0132401D01*
D02*
G37*
G36*
X0275146Y0133927D02*
X0274441Y0133927D01*
X0273790Y0133657D01*
X0273291Y0133159D01*
X0273022Y0132508D01*
X0273022Y0131803D01*
X0273291Y0131152D01*
X0273764Y0130679D01*
X0273340Y0130255D01*
X0273071Y0129604D01*
X0273071Y0128899D01*
X0273340Y0128248D01*
X0273839Y0127750D01*
X0274490Y0127480D01*
X0275195Y0127480D01*
X0275846Y0127750D01*
X0276344Y0128248D01*
X0276614Y0128899D01*
X0276614Y0129604D01*
X0276344Y0130255D01*
X0275871Y0130728D01*
X0276295Y0131152D01*
X0276565Y0131803D01*
X0276565Y0132508D01*
X0276295Y0133159D01*
X0275797Y0133657D01*
X0275146Y0133927D01*
D02*
G37*
G36*
X0229476Y0133927D02*
X0228771Y0133927D01*
X0228120Y0133657D01*
X0227622Y0133159D01*
X0227352Y0132508D01*
X0227352Y0131803D01*
X0227622Y0131152D01*
X0228095Y0130679D01*
X0227671Y0130255D01*
X0227401Y0129604D01*
X0227401Y0128899D01*
X0227671Y0128248D01*
X0228170Y0127750D01*
X0228821Y0127480D01*
X0229525Y0127480D01*
X0230177Y0127750D01*
X0230675Y0128248D01*
X0230945Y0128899D01*
X0230945Y0129604D01*
X0230675Y0130255D01*
X0230202Y0130728D01*
X0230626Y0131152D01*
X0230896Y0131803D01*
X0230896Y0132508D01*
X0230626Y0133159D01*
X0230127Y0133657D01*
X0229476Y0133927D01*
D02*
G37*
G36*
X0197636Y0134567D02*
X0196931Y0134567D01*
X0196280Y0134297D01*
X0195781Y0133799D01*
X0195512Y0133147D01*
X0195512Y0132443D01*
X0195781Y0131791D01*
X0196280Y0131293D01*
X0196931Y0131023D01*
X0197292Y0131023D01*
X0197403Y0130822D01*
X0197534Y0130236D01*
X0197159Y0129862D01*
X0196890Y0129210D01*
X0196890Y0128506D01*
X0197159Y0127854D01*
X0197658Y0127356D01*
X0198309Y0127086D01*
X0199014Y0127086D01*
X0199665Y0127356D01*
X0200163Y0127854D01*
X0200433Y0128506D01*
X0200433Y0129210D01*
X0200163Y0129862D01*
X0199665Y0130360D01*
X0199014Y0130630D01*
X0198652Y0130630D01*
X0198541Y0130831D01*
X0198411Y0131417D01*
X0198785Y0131791D01*
X0199055Y0132443D01*
X0199055Y0133147D01*
X0198785Y0133799D01*
X0198287Y0134297D01*
X0197636Y0134567D01*
D02*
G37*
G36*
X0252951Y0136535D02*
X0252246Y0136535D01*
X0251595Y0136266D01*
X0251096Y0135767D01*
X0250827Y0135116D01*
X0250827Y0134411D01*
X0251096Y0133760D01*
X0251153Y0133703D01*
X0251540Y0133189D01*
X0251153Y0132674D01*
X0251096Y0132618D01*
X0250827Y0131966D01*
X0250827Y0131262D01*
X0251096Y0130610D01*
X0251568Y0130138D01*
X0251195Y0129765D01*
X0250925Y0129114D01*
X0250925Y0128409D01*
X0251195Y0127758D01*
X0251693Y0127259D01*
X0252344Y0126990D01*
X0253049Y0126990D01*
X0253700Y0127259D01*
X0254199Y0127758D01*
X0254468Y0128409D01*
X0254468Y0129114D01*
X0254199Y0129765D01*
X0253727Y0130237D01*
X0254100Y0130610D01*
X0254370Y0131262D01*
X0254370Y0131966D01*
X0254100Y0132618D01*
X0254043Y0132674D01*
X0253657Y0133189D01*
X0254043Y0133703D01*
X0254100Y0133760D01*
X0254370Y0134411D01*
X0254370Y0135116D01*
X0254100Y0135767D01*
X0253602Y0136266D01*
X0252951Y0136535D01*
D02*
G37*
G36*
X0159840Y0130236D02*
X0159136Y0130236D01*
X0158484Y0129966D01*
X0157986Y0129468D01*
X0157716Y0128817D01*
X0157716Y0128112D01*
X0157986Y0127461D01*
X0158484Y0126962D01*
X0159136Y0126693D01*
X0159840Y0126693D01*
X0160492Y0126962D01*
X0160990Y0127461D01*
X0161260Y0128112D01*
X0161260Y0128817D01*
X0160990Y0129468D01*
X0160492Y0129966D01*
X0159840Y0130236D01*
D02*
G37*
G36*
X0207171Y0130160D02*
X0206466Y0130160D01*
X0205815Y0129890D01*
X0205316Y0129392D01*
X0205047Y0128741D01*
X0205047Y0128036D01*
X0205316Y0127385D01*
X0205815Y0126886D01*
X0206466Y0126617D01*
X0207171Y0126617D01*
X0207822Y0126886D01*
X0208320Y0127385D01*
X0208590Y0128036D01*
X0208590Y0128741D01*
X0208320Y0129392D01*
X0207822Y0129890D01*
X0207171Y0130160D01*
D02*
G37*
G36*
X0219289Y0127480D02*
X0218584Y0127480D01*
X0217933Y0127210D01*
X0217435Y0126712D01*
X0217165Y0126061D01*
X0217165Y0125390D01*
X0216806Y0125050D01*
X0216509Y0124883D01*
X0215943Y0125118D01*
X0215238Y0125118D01*
X0214587Y0124848D01*
X0214088Y0124350D01*
X0213819Y0123699D01*
X0213819Y0122994D01*
X0214088Y0122343D01*
X0214587Y0121844D01*
X0215238Y0121575D01*
X0215943Y0121575D01*
X0216594Y0121844D01*
X0217092Y0122343D01*
X0217362Y0122994D01*
X0217362Y0123664D01*
X0217721Y0124005D01*
X0218019Y0124171D01*
X0218584Y0123937D01*
X0219289Y0123937D01*
X0219940Y0124207D01*
X0220439Y0124705D01*
X0220709Y0125356D01*
X0220709Y0126061D01*
X0220439Y0126712D01*
X0219940Y0127210D01*
X0219289Y0127480D01*
D02*
G37*
G36*
X0195864Y0127480D02*
X0195159Y0127480D01*
X0194508Y0127210D01*
X0194010Y0126712D01*
X0193740Y0126061D01*
X0193740Y0125356D01*
X0194010Y0124705D01*
X0194508Y0124207D01*
X0195159Y0123937D01*
X0195864Y0123937D01*
X0196515Y0124207D01*
X0197013Y0124705D01*
X0197283Y0125356D01*
X0197283Y0126061D01*
X0197013Y0126712D01*
X0196515Y0127210D01*
X0195864Y0127480D01*
D02*
G37*
G36*
X0185234Y0127480D02*
X0184529Y0127480D01*
X0183878Y0127210D01*
X0183380Y0126712D01*
X0183110Y0126061D01*
X0183110Y0125356D01*
X0183380Y0124705D01*
X0183878Y0124207D01*
X0184529Y0123937D01*
X0185234Y0123937D01*
X0185885Y0124207D01*
X0186384Y0124705D01*
X0186653Y0125356D01*
X0186653Y0126061D01*
X0186384Y0126712D01*
X0185885Y0127210D01*
X0185234Y0127480D01*
D02*
G37*
G36*
X0287793Y0127480D02*
X0287088Y0127480D01*
X0286437Y0127210D01*
X0285939Y0126712D01*
X0285669Y0126061D01*
X0285669Y0125356D01*
X0285939Y0124705D01*
X0286437Y0124207D01*
X0287088Y0123937D01*
X0287793Y0123937D01*
X0288444Y0124207D01*
X0288943Y0124705D01*
X0289212Y0125356D01*
X0289212Y0126061D01*
X0288943Y0126712D01*
X0288444Y0127210D01*
X0287793Y0127480D01*
D02*
G37*
G36*
X0264958Y0127480D02*
X0264254Y0127480D01*
X0263603Y0127210D01*
X0263104Y0126712D01*
X0262834Y0126061D01*
X0262834Y0125356D01*
X0263104Y0124705D01*
X0263603Y0124207D01*
X0264254Y0123937D01*
X0264958Y0123937D01*
X0265610Y0124207D01*
X0266108Y0124705D01*
X0266378Y0125356D01*
X0266378Y0126061D01*
X0266108Y0126712D01*
X0265610Y0127210D01*
X0264958Y0127480D01*
D02*
G37*
G36*
X0242124Y0127480D02*
X0241419Y0127480D01*
X0240768Y0127210D01*
X0240270Y0126712D01*
X0240000Y0126061D01*
X0240000Y0125356D01*
X0240270Y0124705D01*
X0240768Y0124207D01*
X0241419Y0123937D01*
X0242124Y0123937D01*
X0242775Y0124207D01*
X0243273Y0124705D01*
X0243543Y0125356D01*
X0243543Y0126061D01*
X0243273Y0126712D01*
X0242775Y0127210D01*
X0242124Y0127480D01*
D02*
G37*
G36*
X0171061Y0130630D02*
X0170356Y0130630D01*
X0169705Y0130360D01*
X0169206Y0129862D01*
X0168937Y0129210D01*
X0168937Y0128506D01*
X0169095Y0128123D01*
X0169141Y0127759D01*
X0168754Y0127194D01*
X0168538Y0127105D01*
X0168040Y0126606D01*
X0167770Y0125955D01*
X0167770Y0125250D01*
X0168040Y0124599D01*
X0168538Y0124101D01*
X0169190Y0123831D01*
X0169354Y0123831D01*
X0169510Y0123044D01*
X0169114Y0122880D01*
X0168616Y0122381D01*
X0168346Y0121730D01*
X0168346Y0121025D01*
X0168616Y0120374D01*
X0169114Y0119876D01*
X0169766Y0119606D01*
X0170470Y0119606D01*
X0171122Y0119876D01*
X0171620Y0120374D01*
X0171890Y0121025D01*
X0171890Y0121730D01*
X0171620Y0122381D01*
X0171122Y0122880D01*
X0170470Y0123149D01*
X0170306Y0123149D01*
X0170149Y0123937D01*
X0170545Y0124101D01*
X0170984Y0124539D01*
X0171383Y0124556D01*
X0171854Y0124497D01*
X0171925Y0124323D01*
X0172424Y0123825D01*
X0173075Y0123555D01*
X0173780Y0123555D01*
X0174431Y0123825D01*
X0174929Y0124323D01*
X0175199Y0124974D01*
X0175199Y0125679D01*
X0174929Y0126330D01*
X0174431Y0126829D01*
X0173780Y0127098D01*
X0173075Y0127098D01*
X0172424Y0126829D01*
X0171727Y0126870D01*
X0171712Y0127356D01*
X0172210Y0127854D01*
X0172480Y0128506D01*
X0172480Y0129210D01*
X0172210Y0129862D01*
X0171712Y0130360D01*
X0171061Y0130630D01*
D02*
G37*
G36*
X0164368Y0126496D02*
X0163663Y0126496D01*
X0163012Y0126226D01*
X0162514Y0125728D01*
X0162244Y0125076D01*
X0162244Y0124372D01*
X0162514Y0123721D01*
X0163012Y0123222D01*
X0163663Y0122952D01*
X0164368Y0122952D01*
X0165019Y0123222D01*
X0165517Y0123721D01*
X0165787Y0124372D01*
X0165787Y0125076D01*
X0165517Y0125728D01*
X0165019Y0126226D01*
X0164368Y0126496D01*
D02*
G37*
G36*
X0202671Y0126237D02*
X0201966Y0126237D01*
X0201315Y0125967D01*
X0200817Y0125469D01*
X0200547Y0124817D01*
X0200547Y0124113D01*
X0200817Y0123462D01*
X0201315Y0122963D01*
X0201966Y0122693D01*
X0202671Y0122693D01*
X0203322Y0122963D01*
X0203821Y0123462D01*
X0204091Y0124113D01*
X0204091Y0124817D01*
X0203821Y0125469D01*
X0203322Y0125967D01*
X0202671Y0126237D01*
D02*
G37*
G36*
X0284053Y0125118D02*
X0283348Y0125118D01*
X0282697Y0124848D01*
X0282199Y0124350D01*
X0281929Y0123699D01*
X0281929Y0122994D01*
X0282199Y0122343D01*
X0282697Y0121844D01*
X0283348Y0121575D01*
X0284053Y0121575D01*
X0284704Y0121844D01*
X0285202Y0122343D01*
X0285472Y0122994D01*
X0285472Y0123699D01*
X0285202Y0124350D01*
X0284704Y0124848D01*
X0284053Y0125118D01*
D02*
G37*
G36*
X0278148Y0125118D02*
X0277443Y0125118D01*
X0276791Y0124848D01*
X0276293Y0124350D01*
X0276023Y0123699D01*
X0276023Y0122994D01*
X0276293Y0122343D01*
X0276791Y0121844D01*
X0277443Y0121575D01*
X0278148Y0121575D01*
X0278799Y0121844D01*
X0279297Y0122343D01*
X0279567Y0122994D01*
X0279567Y0123699D01*
X0279297Y0124350D01*
X0278799Y0124848D01*
X0278148Y0125118D01*
D02*
G37*
G36*
X0261218Y0125118D02*
X0260514Y0125118D01*
X0259862Y0124848D01*
X0259364Y0124350D01*
X0259094Y0123699D01*
X0259094Y0122994D01*
X0259364Y0122343D01*
X0259862Y0121844D01*
X0260514Y0121575D01*
X0261218Y0121575D01*
X0261869Y0121844D01*
X0262368Y0122343D01*
X0262638Y0122994D01*
X0262638Y0123699D01*
X0262368Y0124350D01*
X0261869Y0124848D01*
X0261218Y0125118D01*
D02*
G37*
G36*
X0255313Y0125118D02*
X0254608Y0125118D01*
X0253957Y0124848D01*
X0253459Y0124350D01*
X0253189Y0123699D01*
X0253189Y0122994D01*
X0253459Y0122343D01*
X0253957Y0121844D01*
X0254608Y0121575D01*
X0255313Y0121575D01*
X0255964Y0121844D01*
X0256462Y0122343D01*
X0256732Y0122994D01*
X0256732Y0123699D01*
X0256462Y0124350D01*
X0255964Y0124848D01*
X0255313Y0125118D01*
D02*
G37*
G36*
X0238384Y0125118D02*
X0237679Y0125118D01*
X0237028Y0124848D01*
X0236529Y0124350D01*
X0236260Y0123699D01*
X0236260Y0122994D01*
X0236529Y0122343D01*
X0237028Y0121844D01*
X0237679Y0121575D01*
X0238384Y0121575D01*
X0239035Y0121844D01*
X0239533Y0122343D01*
X0239803Y0122994D01*
X0239803Y0123699D01*
X0239533Y0124350D01*
X0239035Y0124848D01*
X0238384Y0125118D01*
D02*
G37*
G36*
X0232872Y0125118D02*
X0232167Y0125118D01*
X0231516Y0124848D01*
X0231018Y0124350D01*
X0230748Y0123699D01*
X0230748Y0122994D01*
X0231018Y0122343D01*
X0231516Y0121844D01*
X0232167Y0121575D01*
X0232872Y0121575D01*
X0233523Y0121844D01*
X0234021Y0122343D01*
X0234291Y0122994D01*
X0234291Y0123699D01*
X0234021Y0124350D01*
X0233523Y0124848D01*
X0232872Y0125118D01*
D02*
G37*
G36*
X0207675Y0123149D02*
X0206970Y0123149D01*
X0206319Y0122880D01*
X0205821Y0122381D01*
X0205551Y0121730D01*
X0205551Y0121025D01*
X0205821Y0120374D01*
X0206319Y0119876D01*
X0206970Y0119606D01*
X0207675Y0119606D01*
X0208326Y0119876D01*
X0208825Y0120374D01*
X0209094Y0121025D01*
X0209094Y0121730D01*
X0208825Y0122381D01*
X0208326Y0122880D01*
X0207675Y0123149D01*
D02*
G37*
G36*
X0195273Y0123149D02*
X0194569Y0123149D01*
X0193917Y0122880D01*
X0193419Y0122381D01*
X0193149Y0121730D01*
X0193149Y0121025D01*
X0193419Y0120374D01*
X0193917Y0119876D01*
X0194569Y0119606D01*
X0195273Y0119606D01*
X0195925Y0119876D01*
X0196423Y0120374D01*
X0196693Y0121025D01*
X0196693Y0121730D01*
X0196423Y0122381D01*
X0195925Y0122880D01*
X0195273Y0123149D01*
D02*
G37*
G36*
X0182872Y0123149D02*
X0182167Y0123149D01*
X0181516Y0122880D01*
X0181018Y0122381D01*
X0180748Y0121730D01*
X0180748Y0121025D01*
X0181018Y0120374D01*
X0181516Y0119876D01*
X0182167Y0119606D01*
X0182872Y0119606D01*
X0183523Y0119876D01*
X0184021Y0120374D01*
X0184291Y0121025D01*
X0184291Y0121730D01*
X0184021Y0122381D01*
X0183523Y0122880D01*
X0182872Y0123149D01*
D02*
G37*
G36*
X0158069Y0123149D02*
X0157364Y0123149D01*
X0156713Y0122880D01*
X0156214Y0122381D01*
X0155945Y0121730D01*
X0155945Y0121025D01*
X0156214Y0120374D01*
X0156713Y0119876D01*
X0157364Y0119606D01*
X0158069Y0119606D01*
X0158720Y0119876D01*
X0159218Y0120374D01*
X0159488Y0121025D01*
X0159488Y0121730D01*
X0159218Y0122381D01*
X0158720Y0122880D01*
X0158069Y0123149D01*
D02*
G37*
G36*
X0302981Y0123967D02*
X0302276Y0123967D01*
X0301625Y0123697D01*
X0301126Y0123199D01*
X0300857Y0122548D01*
X0300857Y0121843D01*
X0300906Y0121723D01*
X0301004Y0120911D01*
X0300506Y0120413D01*
X0300236Y0119762D01*
X0300236Y0119057D01*
X0300506Y0118406D01*
X0301004Y0117907D01*
X0301655Y0117638D01*
X0302360Y0117638D01*
X0303011Y0117907D01*
X0303510Y0118406D01*
X0303779Y0119057D01*
X0303779Y0119762D01*
X0303730Y0119881D01*
X0303632Y0120693D01*
X0304130Y0121192D01*
X0304400Y0121843D01*
X0304400Y0122548D01*
X0304130Y0123199D01*
X0303632Y0123697D01*
X0302981Y0123967D01*
D02*
G37*
G36*
X0307380Y0120984D02*
X0306675Y0120984D01*
X0306024Y0120714D01*
X0305525Y0120216D01*
X0305256Y0119565D01*
X0305256Y0118860D01*
X0305525Y0118209D01*
X0306024Y0117710D01*
X0306675Y0117441D01*
X0307380Y0117441D01*
X0308031Y0117710D01*
X0308529Y0118209D01*
X0308799Y0118860D01*
X0308799Y0119565D01*
X0308529Y0120216D01*
X0308031Y0120714D01*
X0307380Y0120984D01*
D02*
G37*
G36*
X0316212Y0120490D02*
X0315507Y0120490D01*
X0314856Y0120220D01*
X0314357Y0119722D01*
X0314088Y0119071D01*
X0314088Y0118366D01*
X0314357Y0117715D01*
X0314856Y0117216D01*
X0315507Y0116947D01*
X0316212Y0116947D01*
X0316863Y0117216D01*
X0317361Y0117715D01*
X0317631Y0118366D01*
X0317631Y0119071D01*
X0317361Y0119722D01*
X0316863Y0120220D01*
X0316212Y0120490D01*
D02*
G37*
G36*
X0214243Y0120214D02*
X0213538Y0120214D01*
X0212887Y0119944D01*
X0212388Y0119445D01*
X0212119Y0118794D01*
X0212119Y0118089D01*
X0212388Y0117438D01*
X0212887Y0116940D01*
X0213538Y0116670D01*
X0214243Y0116670D01*
X0214894Y0116940D01*
X0215392Y0117438D01*
X0215662Y0118089D01*
X0215662Y0118794D01*
X0215392Y0119445D01*
X0214894Y0119944D01*
X0214243Y0120214D01*
D02*
G37*
G36*
X0311612Y0119606D02*
X0310907Y0119606D01*
X0310256Y0119336D01*
X0309758Y0118838D01*
X0309488Y0118187D01*
X0309488Y0117482D01*
X0309758Y0116831D01*
X0310256Y0116333D01*
X0310907Y0116063D01*
X0311612Y0116063D01*
X0312263Y0116333D01*
X0312762Y0116831D01*
X0313031Y0117482D01*
X0313031Y0118187D01*
X0312762Y0118838D01*
X0312263Y0119336D01*
X0311612Y0119606D01*
D02*
G37*
G36*
X0195864Y0117244D02*
X0195159Y0117244D01*
X0194508Y0116974D01*
X0194010Y0116476D01*
X0193773Y0115905D01*
X0193500Y0115825D01*
X0192953Y0115826D01*
X0192929Y0115885D01*
X0192431Y0116383D01*
X0191779Y0116653D01*
X0191075Y0116653D01*
X0190423Y0116383D01*
X0189925Y0115885D01*
X0189655Y0115234D01*
X0189655Y0114529D01*
X0189925Y0113878D01*
X0190423Y0113380D01*
X0191075Y0113110D01*
X0191779Y0113110D01*
X0192431Y0113380D01*
X0192929Y0113878D01*
X0193166Y0114449D01*
X0193439Y0114529D01*
X0193985Y0114527D01*
X0194010Y0114469D01*
X0194508Y0113970D01*
X0195159Y0113701D01*
X0195864Y0113701D01*
X0196515Y0113970D01*
X0196677Y0114132D01*
X0197532Y0114076D01*
X0197613Y0114015D01*
X0198051Y0113577D01*
X0198703Y0113307D01*
X0199407Y0113307D01*
X0200059Y0113577D01*
X0200557Y0114075D01*
X0200827Y0114726D01*
X0200827Y0115431D01*
X0200557Y0116082D01*
X0200059Y0116580D01*
X0199407Y0116850D01*
X0198703Y0116850D01*
X0198051Y0116580D01*
X0197889Y0116419D01*
X0197035Y0116474D01*
X0196954Y0116536D01*
X0196515Y0116974D01*
X0195864Y0117244D01*
D02*
G37*
G36*
X0165610Y0118606D02*
X0164905Y0118606D01*
X0164254Y0118336D01*
X0163755Y0117838D01*
X0163486Y0117187D01*
X0163486Y0116482D01*
X0163755Y0115831D01*
X0164254Y0115332D01*
X0164905Y0115062D01*
X0165610Y0115062D01*
X0166261Y0115332D01*
X0166759Y0115831D01*
X0167029Y0116482D01*
X0167029Y0117187D01*
X0166759Y0117838D01*
X0166261Y0118336D01*
X0165610Y0118606D01*
D02*
G37*
G36*
X0221663Y0117811D02*
X0220958Y0117811D01*
X0220307Y0117541D01*
X0219808Y0117043D01*
X0219539Y0116392D01*
X0219539Y0115687D01*
X0219808Y0115036D01*
X0220307Y0114537D01*
X0220958Y0114268D01*
X0221663Y0114268D01*
X0222314Y0114537D01*
X0222812Y0115036D01*
X0223082Y0115687D01*
X0223082Y0116392D01*
X0222812Y0117043D01*
X0222314Y0117541D01*
X0221663Y0117811D01*
D02*
G37*
G36*
X0272439Y0117638D02*
X0271734Y0117638D01*
X0271083Y0117368D01*
X0270584Y0116870D01*
X0270315Y0116218D01*
X0270315Y0115514D01*
X0270584Y0114862D01*
X0271083Y0114364D01*
X0271734Y0114094D01*
X0272439Y0114094D01*
X0273090Y0114364D01*
X0273588Y0114862D01*
X0273858Y0115514D01*
X0273858Y0116218D01*
X0273588Y0116870D01*
X0273090Y0117368D01*
X0272439Y0117638D01*
D02*
G37*
G36*
X0242885Y0117489D02*
X0242180Y0117489D01*
X0241529Y0117219D01*
X0241031Y0116721D01*
X0240761Y0116070D01*
X0240761Y0115365D01*
X0241031Y0114714D01*
X0241529Y0114215D01*
X0242180Y0113946D01*
X0242885Y0113946D01*
X0243536Y0114215D01*
X0244035Y0114714D01*
X0244304Y0115365D01*
X0244304Y0116070D01*
X0244035Y0116721D01*
X0243536Y0117219D01*
X0242885Y0117489D01*
D02*
G37*
G36*
X0185234Y0117342D02*
X0184529Y0117342D01*
X0183878Y0117073D01*
X0183380Y0116574D01*
X0183110Y0115923D01*
X0183110Y0115218D01*
X0183380Y0114567D01*
X0183878Y0114069D01*
X0184529Y0113799D01*
X0185234Y0113799D01*
X0185885Y0114069D01*
X0186384Y0114567D01*
X0186653Y0115218D01*
X0186653Y0115923D01*
X0186384Y0116574D01*
X0185885Y0117073D01*
X0185234Y0117342D01*
D02*
G37*
G36*
X0180510Y0117342D02*
X0179805Y0117342D01*
X0179154Y0117073D01*
X0178655Y0116574D01*
X0178386Y0115923D01*
X0178386Y0115218D01*
X0178655Y0114567D01*
X0179154Y0114069D01*
X0179805Y0113799D01*
X0180510Y0113799D01*
X0181161Y0114069D01*
X0181659Y0114567D01*
X0181929Y0115218D01*
X0181929Y0115923D01*
X0181659Y0116574D01*
X0181161Y0117073D01*
X0180510Y0117342D01*
D02*
G37*
G36*
X0292321Y0117244D02*
X0291616Y0117244D01*
X0290965Y0116974D01*
X0290466Y0116476D01*
X0290197Y0115825D01*
X0290197Y0115120D01*
X0290466Y0114469D01*
X0290965Y0113970D01*
X0291616Y0113701D01*
X0292321Y0113701D01*
X0292972Y0113970D01*
X0293470Y0114469D01*
X0293740Y0115120D01*
X0293740Y0115825D01*
X0293470Y0116476D01*
X0292972Y0116974D01*
X0292321Y0117244D01*
D02*
G37*
G36*
X0286268Y0116653D02*
X0285563Y0116653D01*
X0284912Y0116383D01*
X0284413Y0115885D01*
X0284144Y0115234D01*
X0284144Y0114529D01*
X0284413Y0113878D01*
X0284912Y0113380D01*
X0285563Y0113110D01*
X0286268Y0113110D01*
X0286919Y0113380D01*
X0287417Y0113878D01*
X0287687Y0114529D01*
X0287687Y0115234D01*
X0287417Y0115885D01*
X0286919Y0116383D01*
X0286268Y0116653D01*
D02*
G37*
G36*
X0267370Y0116653D02*
X0266665Y0116653D01*
X0266014Y0116383D01*
X0265516Y0115885D01*
X0265246Y0115234D01*
X0265246Y0114529D01*
X0265516Y0113878D01*
X0266014Y0113380D01*
X0266665Y0113110D01*
X0267370Y0113110D01*
X0268021Y0113380D01*
X0268520Y0113878D01*
X0268789Y0114529D01*
X0268789Y0115234D01*
X0268520Y0115885D01*
X0268021Y0116383D01*
X0267370Y0116653D01*
D02*
G37*
G36*
X0248472Y0116653D02*
X0247767Y0116653D01*
X0247116Y0116383D01*
X0246618Y0115885D01*
X0246348Y0115234D01*
X0246348Y0114529D01*
X0246618Y0113878D01*
X0247116Y0113380D01*
X0247767Y0113110D01*
X0248472Y0113110D01*
X0249123Y0113380D01*
X0249622Y0113878D01*
X0249892Y0114529D01*
X0249892Y0115234D01*
X0249622Y0115885D01*
X0249123Y0116383D01*
X0248472Y0116653D01*
D02*
G37*
G36*
X0229575Y0116653D02*
X0228870Y0116653D01*
X0228219Y0116383D01*
X0227720Y0115885D01*
X0227451Y0115234D01*
X0227451Y0114529D01*
X0227720Y0113878D01*
X0228219Y0113380D01*
X0228870Y0113110D01*
X0229575Y0113110D01*
X0230226Y0113380D01*
X0230724Y0113878D01*
X0230994Y0114529D01*
X0230994Y0115234D01*
X0230724Y0115885D01*
X0230226Y0116383D01*
X0229575Y0116653D01*
D02*
G37*
G36*
X0210677Y0116653D02*
X0209972Y0116653D01*
X0209321Y0116383D01*
X0208823Y0115885D01*
X0208553Y0115234D01*
X0208553Y0114529D01*
X0208823Y0113878D01*
X0209321Y0113380D01*
X0209972Y0113110D01*
X0210677Y0113110D01*
X0211328Y0113380D01*
X0211826Y0113878D01*
X0212096Y0114529D01*
X0212096Y0115234D01*
X0211826Y0115885D01*
X0211328Y0116383D01*
X0210677Y0116653D01*
D02*
G37*
G36*
X0172882Y0116653D02*
X0172177Y0116653D01*
X0171526Y0116383D01*
X0171027Y0115885D01*
X0170758Y0115234D01*
X0170758Y0114529D01*
X0171027Y0113878D01*
X0171526Y0113380D01*
X0172177Y0113110D01*
X0172882Y0113110D01*
X0173533Y0113380D01*
X0174031Y0113878D01*
X0174301Y0114529D01*
X0174301Y0115234D01*
X0174031Y0115885D01*
X0173533Y0116383D01*
X0172882Y0116653D01*
D02*
G37*
G36*
X0297832Y0115669D02*
X0297128Y0115669D01*
X0296477Y0115399D01*
X0295978Y0114901D01*
X0295708Y0114250D01*
X0295708Y0113545D01*
X0295978Y0112894D01*
X0296477Y0112396D01*
X0297128Y0112126D01*
X0297832Y0112126D01*
X0298484Y0112396D01*
X0298982Y0112894D01*
X0299252Y0113545D01*
X0299252Y0114250D01*
X0298982Y0114901D01*
X0298484Y0115399D01*
X0297832Y0115669D01*
D02*
G37*
G36*
X0161612Y0115275D02*
X0160907Y0115275D01*
X0160256Y0115006D01*
X0159758Y0114507D01*
X0159488Y0113856D01*
X0159488Y0113151D01*
X0159758Y0112500D01*
X0160256Y0112002D01*
X0160907Y0111732D01*
X0161612Y0111732D01*
X0162263Y0112002D01*
X0162762Y0112500D01*
X0163031Y0113151D01*
X0163031Y0113856D01*
X0162762Y0114507D01*
X0162263Y0115006D01*
X0161612Y0115275D01*
D02*
G37*
G36*
X0306494Y0111732D02*
X0305789Y0111732D01*
X0305138Y0111462D01*
X0304861Y0111185D01*
X0304370Y0111042D01*
X0303879Y0111185D01*
X0303602Y0111462D01*
X0302951Y0111732D01*
X0302246Y0111732D01*
X0301595Y0111462D01*
X0301096Y0110964D01*
X0300827Y0110313D01*
X0300827Y0109608D01*
X0301096Y0108957D01*
X0301595Y0108458D01*
X0302246Y0108189D01*
X0302951Y0108189D01*
X0303602Y0108458D01*
X0303879Y0108736D01*
X0304370Y0108878D01*
X0304861Y0108736D01*
X0305138Y0108458D01*
X0305789Y0108189D01*
X0306494Y0108189D01*
X0307145Y0108458D01*
X0307644Y0108957D01*
X0307913Y0109608D01*
X0307913Y0110313D01*
X0307644Y0110964D01*
X0307145Y0111462D01*
X0306494Y0111732D01*
D02*
G37*
G36*
X0159250Y0110452D02*
X0158545Y0110452D01*
X0157894Y0110183D01*
X0157396Y0109684D01*
X0157126Y0109033D01*
X0157126Y0108328D01*
X0157396Y0107677D01*
X0157894Y0107179D01*
X0158545Y0106909D01*
X0159250Y0106909D01*
X0159901Y0107179D01*
X0160399Y0107677D01*
X0160669Y0108328D01*
X0160669Y0109033D01*
X0160399Y0109684D01*
X0159901Y0110183D01*
X0159250Y0110452D01*
D02*
G37*
G36*
X0173266Y0106456D02*
X0172561Y0106456D01*
X0171910Y0106187D01*
X0171865Y0106142D01*
X0171072Y0105950D01*
X0170770Y0106076D01*
X0170421Y0106220D01*
X0169716Y0106220D01*
X0169065Y0105950D01*
X0168567Y0105452D01*
X0168297Y0104801D01*
X0168297Y0104096D01*
X0168567Y0103445D01*
X0169065Y0102947D01*
X0169716Y0102677D01*
X0170421Y0102677D01*
X0171072Y0102947D01*
X0171117Y0102991D01*
X0171910Y0103183D01*
X0172212Y0103058D01*
X0172561Y0102913D01*
X0173266Y0102913D01*
X0173917Y0103183D01*
X0174415Y0103681D01*
X0174685Y0104332D01*
X0174685Y0105037D01*
X0174415Y0105688D01*
X0173917Y0106187D01*
X0173266Y0106456D01*
D02*
G37*
G36*
X0209918Y0106433D02*
X0209213Y0106433D01*
X0208562Y0106163D01*
X0208096Y0105698D01*
X0207716Y0106078D01*
X0207065Y0106348D01*
X0206360Y0106348D01*
X0205709Y0106078D01*
X0205210Y0105580D01*
X0204941Y0104929D01*
X0204941Y0104224D01*
X0205210Y0103573D01*
X0205709Y0103074D01*
X0206360Y0102805D01*
X0207065Y0102805D01*
X0207716Y0103074D01*
X0208181Y0103540D01*
X0208562Y0103160D01*
X0209213Y0102890D01*
X0209918Y0102890D01*
X0210569Y0103160D01*
X0211067Y0103658D01*
X0211337Y0104309D01*
X0211337Y0105014D01*
X0211067Y0105665D01*
X0210569Y0106163D01*
X0209918Y0106433D01*
D02*
G37*
G36*
X0286415Y0106220D02*
X0285710Y0106220D01*
X0285059Y0105950D01*
X0285002Y0105894D01*
X0284488Y0105507D01*
X0283974Y0105894D01*
X0283917Y0105950D01*
X0283266Y0106220D01*
X0282561Y0106220D01*
X0281910Y0105950D01*
X0281411Y0105452D01*
X0281142Y0104801D01*
X0281142Y0104096D01*
X0281411Y0103445D01*
X0281910Y0102947D01*
X0282561Y0102677D01*
X0283266Y0102677D01*
X0283917Y0102947D01*
X0283974Y0103003D01*
X0284488Y0103390D01*
X0285002Y0103003D01*
X0285059Y0102947D01*
X0285710Y0102677D01*
X0286415Y0102677D01*
X0287066Y0102947D01*
X0287565Y0103445D01*
X0287834Y0104096D01*
X0287834Y0104801D01*
X0287565Y0105452D01*
X0287066Y0105950D01*
X0286415Y0106220D01*
D02*
G37*
G36*
X0267518Y0106220D02*
X0266813Y0106220D01*
X0266162Y0105950D01*
X0266105Y0105894D01*
X0265590Y0105507D01*
X0265076Y0105894D01*
X0265019Y0105950D01*
X0264368Y0106220D01*
X0263663Y0106220D01*
X0263012Y0105950D01*
X0262514Y0105452D01*
X0262244Y0104801D01*
X0262244Y0104096D01*
X0262514Y0103445D01*
X0263012Y0102947D01*
X0263663Y0102677D01*
X0264368Y0102677D01*
X0265019Y0102947D01*
X0265076Y0103003D01*
X0265590Y0103390D01*
X0266105Y0103003D01*
X0266162Y0102947D01*
X0266813Y0102677D01*
X0267518Y0102677D01*
X0268169Y0102947D01*
X0268667Y0103445D01*
X0268937Y0104096D01*
X0268937Y0104801D01*
X0268667Y0105452D01*
X0268169Y0105950D01*
X0267518Y0106220D01*
D02*
G37*
G36*
X0315943Y0114882D02*
X0315238Y0114882D01*
X0314587Y0114612D01*
X0314088Y0114114D01*
X0313819Y0113462D01*
X0313819Y0112758D01*
X0314088Y0112106D01*
X0314587Y0111608D01*
X0314738Y0111546D01*
X0315191Y0111049D01*
X0315119Y0110600D01*
X0315000Y0110313D01*
X0315000Y0109608D01*
X0315270Y0108957D01*
X0315768Y0108458D01*
X0316029Y0108351D01*
X0316057Y0108208D01*
X0315787Y0107557D01*
X0315787Y0106852D01*
X0316057Y0106201D01*
X0316555Y0105703D01*
X0317206Y0105433D01*
X0317911Y0105433D01*
X0318562Y0105703D01*
X0319061Y0106201D01*
X0319330Y0106852D01*
X0319330Y0107557D01*
X0319061Y0108208D01*
X0318562Y0108706D01*
X0318302Y0108814D01*
X0318273Y0108957D01*
X0318543Y0109608D01*
X0318543Y0110313D01*
X0318273Y0110964D01*
X0317775Y0111462D01*
X0317624Y0111525D01*
X0317170Y0112021D01*
X0317243Y0112470D01*
X0317362Y0112758D01*
X0317362Y0113462D01*
X0317092Y0114114D01*
X0316594Y0114612D01*
X0315943Y0114882D01*
D02*
G37*
G36*
X0192400Y0106522D02*
X0191695Y0106522D01*
X0191044Y0106252D01*
X0190546Y0105754D01*
X0190308Y0105179D01*
X0189914Y0105139D01*
X0189520Y0105179D01*
X0189282Y0105754D01*
X0188784Y0106252D01*
X0188133Y0106522D01*
X0187428Y0106522D01*
X0186777Y0106252D01*
X0186278Y0105754D01*
X0186009Y0105103D01*
X0186009Y0104398D01*
X0186278Y0103747D01*
X0186777Y0103248D01*
X0187428Y0102979D01*
X0188133Y0102979D01*
X0188784Y0103248D01*
X0189282Y0103747D01*
X0189520Y0104321D01*
X0189914Y0104361D01*
X0190308Y0104321D01*
X0190546Y0103747D01*
X0191044Y0103248D01*
X0191695Y0102979D01*
X0192400Y0102979D01*
X0193051Y0103248D01*
X0193550Y0103747D01*
X0193819Y0104398D01*
X0193819Y0105103D01*
X0193550Y0105754D01*
X0193051Y0106252D01*
X0192400Y0106522D01*
D02*
G37*
G36*
X0248817Y0106220D02*
X0248112Y0106220D01*
X0247461Y0105950D01*
X0246962Y0105452D01*
X0246842Y0105161D01*
X0246649Y0105076D01*
X0245965Y0105008D01*
X0245629Y0105344D01*
X0244978Y0105614D01*
X0244273Y0105614D01*
X0243622Y0105344D01*
X0243124Y0104846D01*
X0242854Y0104195D01*
X0242854Y0103490D01*
X0243124Y0102839D01*
X0243622Y0102340D01*
X0244273Y0102071D01*
X0244978Y0102071D01*
X0245629Y0102340D01*
X0246128Y0102839D01*
X0246248Y0103130D01*
X0246441Y0103215D01*
X0247125Y0103283D01*
X0247461Y0102947D01*
X0248112Y0102677D01*
X0248817Y0102677D01*
X0249468Y0102947D01*
X0249966Y0103445D01*
X0250236Y0104096D01*
X0250236Y0104801D01*
X0249966Y0105452D01*
X0249468Y0105950D01*
X0248817Y0106220D01*
D02*
G37*
G36*
X0239171Y0104645D02*
X0238466Y0104645D01*
X0237815Y0104376D01*
X0237758Y0104319D01*
X0237244Y0103932D01*
X0236729Y0104319D01*
X0236673Y0104376D01*
X0236022Y0104645D01*
X0235317Y0104645D01*
X0234666Y0104376D01*
X0234167Y0103877D01*
X0233898Y0103226D01*
X0233898Y0102521D01*
X0234167Y0101870D01*
X0234666Y0101372D01*
X0235317Y0101102D01*
X0236022Y0101102D01*
X0236673Y0101372D01*
X0236729Y0101429D01*
X0237244Y0101815D01*
X0237758Y0101429D01*
X0237815Y0101372D01*
X0238466Y0101102D01*
X0239171Y0101102D01*
X0239822Y0101372D01*
X0240321Y0101870D01*
X0240590Y0102521D01*
X0240590Y0103226D01*
X0240321Y0103877D01*
X0239822Y0104376D01*
X0239171Y0104645D01*
D02*
G37*
G36*
X0201376Y0104645D02*
X0200671Y0104645D01*
X0200020Y0104376D01*
X0199963Y0104319D01*
X0199449Y0103932D01*
X0198934Y0104319D01*
X0198877Y0104376D01*
X0198226Y0104645D01*
X0197521Y0104645D01*
X0196870Y0104376D01*
X0196372Y0103877D01*
X0196102Y0103226D01*
X0196102Y0102521D01*
X0196372Y0101870D01*
X0196870Y0101372D01*
X0197521Y0101102D01*
X0198226Y0101102D01*
X0198877Y0101372D01*
X0198934Y0101429D01*
X0199449Y0101815D01*
X0199963Y0101429D01*
X0200020Y0101372D01*
X0200671Y0101102D01*
X0201376Y0101102D01*
X0202027Y0101372D01*
X0202525Y0101870D01*
X0202795Y0102521D01*
X0202795Y0103226D01*
X0202525Y0103877D01*
X0202027Y0104376D01*
X0201376Y0104645D01*
D02*
G37*
G36*
X0276966Y0104645D02*
X0276262Y0104645D01*
X0275611Y0104376D01*
X0275554Y0104319D01*
X0275039Y0103932D01*
X0274525Y0104319D01*
X0274468Y0104376D01*
X0273817Y0104645D01*
X0273112Y0104645D01*
X0272461Y0104376D01*
X0271962Y0103877D01*
X0271693Y0103226D01*
X0271693Y0102521D01*
X0271962Y0101870D01*
X0272461Y0101372D01*
X0273112Y0101102D01*
X0273817Y0101102D01*
X0274468Y0101372D01*
X0274525Y0101429D01*
X0275039Y0101815D01*
X0275554Y0101429D01*
X0275611Y0101372D01*
X0276262Y0101102D01*
X0276966Y0101102D01*
X0277618Y0101372D01*
X0278116Y0101870D01*
X0278386Y0102521D01*
X0278386Y0103226D01*
X0278116Y0103877D01*
X0277618Y0104376D01*
X0276966Y0104645D01*
D02*
G37*
G36*
X0258069Y0104645D02*
X0257364Y0104645D01*
X0256713Y0104376D01*
X0256656Y0104319D01*
X0256142Y0103932D01*
X0255627Y0104319D01*
X0255570Y0104376D01*
X0254919Y0104645D01*
X0254214Y0104645D01*
X0253563Y0104376D01*
X0253065Y0103877D01*
X0252795Y0103226D01*
X0252795Y0102521D01*
X0253065Y0101870D01*
X0253563Y0101372D01*
X0254214Y0101102D01*
X0254919Y0101102D01*
X0255570Y0101372D01*
X0255627Y0101429D01*
X0256142Y0101815D01*
X0256656Y0101429D01*
X0256713Y0101372D01*
X0257364Y0101102D01*
X0258069Y0101102D01*
X0258720Y0101372D01*
X0259218Y0101870D01*
X0259488Y0102521D01*
X0259488Y0103226D01*
X0259218Y0103877D01*
X0258720Y0104376D01*
X0258069Y0104645D01*
D02*
G37*
G36*
X0182478Y0104645D02*
X0181773Y0104645D01*
X0181122Y0104376D01*
X0181065Y0104319D01*
X0180551Y0103932D01*
X0180037Y0104319D01*
X0179980Y0104376D01*
X0179329Y0104645D01*
X0178624Y0104645D01*
X0177973Y0104376D01*
X0177474Y0103877D01*
X0177204Y0103226D01*
X0177204Y0102521D01*
X0177474Y0101870D01*
X0177973Y0101372D01*
X0178624Y0101102D01*
X0179329Y0101102D01*
X0179980Y0101372D01*
X0180037Y0101429D01*
X0180551Y0101815D01*
X0181065Y0101429D01*
X0181122Y0101372D01*
X0181773Y0101102D01*
X0182478Y0101102D01*
X0183129Y0101372D01*
X0183628Y0101870D01*
X0183897Y0102521D01*
X0183897Y0103226D01*
X0183628Y0103877D01*
X0183129Y0104376D01*
X0182478Y0104645D01*
D02*
G37*
G36*
X0220632Y0104419D02*
X0219927Y0104419D01*
X0219276Y0104149D01*
X0218778Y0103651D01*
X0217943Y0103651D01*
X0217444Y0104149D01*
X0216793Y0104419D01*
X0216088Y0104419D01*
X0215437Y0104149D01*
X0214939Y0103651D01*
X0214669Y0103000D01*
X0214669Y0102295D01*
X0214939Y0101644D01*
X0215437Y0101145D01*
X0216088Y0100876D01*
X0216793Y0100876D01*
X0217444Y0101145D01*
X0217943Y0101644D01*
X0218778Y0101644D01*
X0219276Y0101145D01*
X0219927Y0100876D01*
X0220632Y0100876D01*
X0221283Y0101145D01*
X0221781Y0101644D01*
X0222051Y0102295D01*
X0222051Y0103000D01*
X0221781Y0103651D01*
X0221283Y0104149D01*
X0220632Y0104419D01*
D02*
G37*
G36*
X0225743Y0106688D02*
X0225038Y0106688D01*
X0224387Y0106419D01*
X0223889Y0105920D01*
X0223619Y0105269D01*
X0223619Y0104564D01*
X0223889Y0103913D01*
X0224387Y0103415D01*
X0225038Y0103145D01*
X0225743Y0103145D01*
X0226394Y0103415D01*
X0226893Y0103913D01*
X0227162Y0104564D01*
X0227162Y0105269D01*
X0226893Y0105920D01*
X0226394Y0106419D01*
X0225743Y0106688D01*
D02*
G37*
G36*
X0230164Y0106519D02*
X0229460Y0106519D01*
X0228808Y0106250D01*
X0228310Y0105751D01*
X0228040Y0105100D01*
X0228040Y0104395D01*
X0228310Y0103744D01*
X0228808Y0103246D01*
X0229460Y0102976D01*
X0230164Y0102976D01*
X0230816Y0103246D01*
X0231314Y0103744D01*
X0231584Y0104395D01*
X0231584Y0105100D01*
X0231314Y0105751D01*
X0230816Y0106250D01*
X0230164Y0106519D01*
D02*
G37*
G36*
X0163285Y0106068D02*
X0162580Y0106068D01*
X0161929Y0105798D01*
X0161431Y0105300D01*
X0161161Y0104649D01*
X0161161Y0103944D01*
X0161431Y0103293D01*
X0161929Y0102795D01*
X0162580Y0102525D01*
X0163285Y0102525D01*
X0163936Y0102795D01*
X0164435Y0103293D01*
X0164704Y0103944D01*
X0164704Y0104649D01*
X0164435Y0105300D01*
X0163936Y0105798D01*
X0163285Y0106068D01*
D02*
G37*
G36*
X0295077Y0107008D02*
X0294372Y0107008D01*
X0293721Y0106738D01*
X0293222Y0106240D01*
X0292952Y0105588D01*
X0292952Y0105373D01*
X0292773Y0104825D01*
X0292225Y0104645D01*
X0292010Y0104645D01*
X0291359Y0104376D01*
X0290860Y0103877D01*
X0290590Y0103226D01*
X0290590Y0102521D01*
X0290860Y0101870D01*
X0291359Y0101372D01*
X0292010Y0101102D01*
X0292714Y0101102D01*
X0293366Y0101372D01*
X0293864Y0101870D01*
X0294134Y0102521D01*
X0294134Y0102737D01*
X0294313Y0103285D01*
X0294861Y0103464D01*
X0295077Y0103464D01*
X0295728Y0103734D01*
X0296226Y0104232D01*
X0296496Y0104884D01*
X0296496Y0105588D01*
X0296226Y0106240D01*
X0295728Y0106738D01*
X0295077Y0107008D01*
D02*
G37*
G36*
X0307392Y0098720D02*
X0306687Y0098720D01*
X0306036Y0098451D01*
X0305538Y0097952D01*
X0305268Y0097301D01*
X0305268Y0096597D01*
X0305538Y0095945D01*
X0306036Y0095447D01*
X0306687Y0095177D01*
X0307392Y0095177D01*
X0308043Y0095447D01*
X0308542Y0095945D01*
X0308811Y0096597D01*
X0308811Y0097301D01*
X0308542Y0097952D01*
X0308043Y0098451D01*
X0307392Y0098720D01*
D02*
G37*
G36*
X0302668Y0098720D02*
X0301963Y0098720D01*
X0301312Y0098451D01*
X0300813Y0097952D01*
X0300544Y0097301D01*
X0300544Y0096597D01*
X0300813Y0095945D01*
X0301312Y0095447D01*
X0301963Y0095177D01*
X0302668Y0095177D01*
X0303319Y0095447D01*
X0303817Y0095945D01*
X0304087Y0096597D01*
X0304087Y0097301D01*
X0303817Y0097952D01*
X0303319Y0098451D01*
X0302668Y0098720D01*
D02*
G37*
G36*
X0311818Y0098657D02*
X0311113Y0098657D01*
X0310462Y0098388D01*
X0309964Y0097889D01*
X0309694Y0097238D01*
X0309694Y0096533D01*
X0309964Y0095882D01*
X0310462Y0095384D01*
X0311113Y0095114D01*
X0311818Y0095114D01*
X0312469Y0095384D01*
X0312968Y0095882D01*
X0313237Y0096533D01*
X0313237Y0097238D01*
X0312968Y0097889D01*
X0312469Y0098388D01*
X0311818Y0098657D01*
D02*
G37*
G36*
X0161614Y0095590D02*
X0160909Y0095590D01*
X0160258Y0095321D01*
X0159760Y0094822D01*
X0159490Y0094171D01*
X0159490Y0093466D01*
X0159760Y0092815D01*
X0160258Y0092317D01*
X0160909Y0092047D01*
X0161614Y0092047D01*
X0162266Y0092317D01*
X0162764Y0092815D01*
X0163034Y0093466D01*
X0163034Y0094171D01*
X0162764Y0094822D01*
X0162266Y0095321D01*
X0161614Y0095590D01*
D02*
G37*
%LPD*%
D16*
X0154567Y0114291D02*
D03*
D15*
X0154567Y0091260D02*
D03*
D18*
X0154567Y0138700D02*
D03*
D25*
X0320315Y0090669D02*
D03*
D20*
X0167165Y0244212D02*
D03*
D21*
X0200630Y0244212D02*
D03*
D22*
X0239409Y0244212D02*
D03*
D24*
X0320315Y0112913D02*
D03*
D23*
X0320315Y0238307D02*
D03*
D19*
X0161653Y0087126D02*
D03*
D17*
X0154567Y0224527D02*
D03*
D13*
X0203288Y0162913D02*
D03*
X0169331Y0188307D02*
D03*
X0175236Y0208779D02*
D03*
X0173858Y0193622D02*
D03*
X0194330Y0224130D02*
D03*
X0211260Y0201655D02*
D03*
X0219527Y0207992D02*
D03*
X0219420Y0203575D02*
D03*
X0157716Y0148149D02*
D03*
X0171013Y0180689D02*
D03*
X0226368Y0114488D02*
D03*
X0183816Y0230600D02*
D03*
X0210768Y0216850D02*
D03*
X0242360Y0198541D02*
D03*
X0249842Y0181220D02*
D03*
X0245118Y0176496D02*
D03*
X0310472Y0176988D02*
D03*
X0273464Y0181856D02*
D03*
X0294546Y0228446D02*
D03*
X0270819Y0233757D02*
D03*
X0309912Y0233851D02*
D03*
X0316789Y0224891D02*
D03*
X0286860Y0214755D02*
D03*
X0300629Y0112716D02*
D03*
X0285275Y0200118D02*
D03*
X0285275Y0190669D02*
D03*
X0279370Y0197755D02*
D03*
X0273464Y0214291D02*
D03*
X0265196Y0211929D02*
D03*
X0259291Y0214291D02*
D03*
X0258110Y0178858D02*
D03*
X0259291Y0171771D02*
D03*
X0247480Y0214291D02*
D03*
X0242755Y0219015D02*
D03*
X0164803Y0228464D02*
D03*
X0302852Y0201878D02*
D03*
X0227106Y0215472D02*
D03*
X0169724Y0115866D02*
D03*
X0155748Y0115472D02*
D03*
X0197261Y0241063D02*
D03*
X0228583Y0207992D02*
D03*
X0240394Y0209960D02*
D03*
X0194619Y0243166D02*
D03*
X0229935Y0223531D02*
D03*
X0162441Y0242638D02*
D03*
X0165197Y0211929D02*
D03*
X0156142Y0225315D02*
D03*
X0156338Y0229252D02*
D03*
X0196026Y0167289D02*
D03*
X0294628Y0201004D02*
D03*
X0230157Y0171771D02*
D03*
X0240787Y0181614D02*
D03*
X0309390Y0168327D02*
D03*
X0227008Y0202874D02*
D03*
X0221102Y0147362D02*
D03*
X0248027Y0159572D02*
D03*
X0269706Y0157927D02*
D03*
X0156165Y0091900D02*
D03*
X0161691Y0088225D02*
D03*
X0241144Y0242110D02*
D03*
X0272937Y0196739D02*
D03*
X0219425Y0224650D02*
D03*
X0250097Y0234425D02*
D03*
X0264163Y0114882D02*
D03*
X0234192Y0233484D02*
D03*
X0195708Y0182598D02*
D03*
X0231818Y0242174D02*
D03*
X0173267Y0242638D02*
D03*
X0319134Y0091063D02*
D03*
X0318740Y0236338D02*
D03*
X0171568Y0157639D02*
D03*
X0286740Y0146578D02*
D03*
X0301811Y0152086D02*
D03*
X0179075Y0173346D02*
D03*
X0221004Y0172221D02*
D03*
X0211208Y0184173D02*
D03*
X0294819Y0180418D02*
D03*
X0311247Y0124855D02*
D03*
X0314409Y0116260D02*
D03*
X0306397Y0134763D02*
D03*
X0206141Y0168425D02*
D03*
X0206337Y0217574D02*
D03*
X0206324Y0225339D02*
D03*
X0163446Y0206151D02*
D03*
X0167953Y0200474D02*
D03*
X0200283Y0152382D02*
D03*
X0195610Y0173346D02*
D03*
X0179075Y0180433D02*
D03*
X0179075Y0166260D02*
D03*
X0179075Y0159173D02*
D03*
X0187123Y0158959D02*
D03*
X0186850Y0182008D02*
D03*
X0317559Y0103267D02*
D03*
X0310078Y0089882D02*
D03*
X0300630Y0089882D02*
D03*
X0305354Y0089882D02*
D03*
X0314803Y0089882D02*
D03*
X0283061Y0114882D02*
D03*
X0245266Y0114882D02*
D03*
X0207470Y0114882D02*
D03*
X0188573Y0114882D02*
D03*
M02*
