G75*
G70*
%OFA0B0*%
%FSLAX25Y25*%
%IPPOS*%
%LPD*%
%AMOC8*
5,1,8,0,0,1.08239X$1,22.5*
%
%ADD10C,0.15748*%
%ADD11C,0.08661*%
%ADD12C,0.06299*%
%ADD13C,0.02362*%
%ADD14C,0.04724*%
%ADD15R,0.00787X0.09055*%
%ADD16R,0.00787X0.21260*%
%ADD17R,0.00787X0.33858*%
%ADD18R,0.00787X0.19685*%
%ADD19R,0.05512X0.00787*%
%ADD20R,0.19685X0.00787*%
%ADD21R,0.26772X0.00787*%
%ADD22R,0.17717X0.00787*%
%ADD23R,0.00787X0.06299*%
%ADD24R,0.00787X0.22441*%
%ADD25R,0.00787X0.07874*%
%ADD26C,0.39370*%
%ADD33C,0.00787*%
%ADD35C,0.01968*%
%ADD61C,0.00492*%
%ADD62C,0.01575*%
%ADD63C,0.01181*%
%ADD65C,0.04331*%
X0000000Y0000000D02*
%LPD*%
G01*
D10*
X0151920Y0388604D03*
D11*
X0168061Y0373446D03*
X0335778Y0373446D03*
D10*
X0351920Y0388604D03*
D12*
X0193455Y0407305D03*
X0193455Y0397462D03*
X0193455Y0387620D03*
X0193455Y0377777D03*
X0208022Y0407305D03*
X0208022Y0397462D03*
X0208022Y0387620D03*
X0208022Y0377777D03*
X0221802Y0407305D03*
X0221802Y0397462D03*
X0221802Y0387620D03*
X0221802Y0377777D03*
X0231644Y0407305D03*
X0231644Y0397462D03*
X0231644Y0387620D03*
X0231644Y0377777D03*
X0241487Y0407305D03*
X0241487Y0397462D03*
X0241487Y0387620D03*
X0241487Y0377777D03*
X0251329Y0407305D03*
X0251329Y0397462D03*
X0251329Y0387620D03*
X0251329Y0377777D03*
X0261172Y0407305D03*
X0261172Y0397462D03*
X0261172Y0387620D03*
X0261172Y0377777D03*
X0271014Y0407305D03*
X0271014Y0397462D03*
X0271014Y0387620D03*
X0271014Y0377777D03*
X0280857Y0407305D03*
X0280857Y0397462D03*
X0280857Y0387620D03*
X0280857Y0377777D03*
X0290699Y0407305D03*
X0290699Y0397462D03*
X0290699Y0387620D03*
X0290699Y0377777D03*
X0300542Y0407305D03*
X0300542Y0397462D03*
X0300542Y0387620D03*
X0300542Y0377777D03*
X0310384Y0407305D03*
X0310384Y0397462D03*
X0310384Y0387620D03*
X0310384Y0377777D03*
D13*
X0319528Y0233189D03*
X0319528Y0230039D03*
X0319528Y0226890D03*
X0319528Y0223740D03*
X0319528Y0220591D03*
X0319528Y0217441D03*
X0319528Y0214291D03*
X0319528Y0211142D03*
X0319528Y0207992D03*
X0319528Y0204842D03*
X0319528Y0201693D03*
X0319528Y0198543D03*
X0319528Y0195394D03*
X0319528Y0192244D03*
D14*
X0319528Y0189094D03*
D13*
X0319528Y0185945D03*
X0319528Y0182795D03*
X0319528Y0179646D03*
X0319528Y0176496D03*
X0319528Y0173346D03*
X0319528Y0170197D03*
X0319528Y0167047D03*
X0319528Y0163898D03*
X0319528Y0160748D03*
X0319528Y0157598D03*
X0319528Y0154449D03*
X0319528Y0151299D03*
X0319528Y0148150D03*
X0319528Y0145000D03*
X0319528Y0141850D03*
X0319528Y0138701D03*
X0319528Y0135551D03*
X0319528Y0132402D03*
X0319528Y0129252D03*
X0319528Y0126102D03*
X0319528Y0099724D03*
X0319528Y0096575D03*
D15*
X0154567Y0091260D03*
D16*
X0154567Y0114291D03*
D17*
X0154567Y0224528D03*
D18*
X0154567Y0138701D03*
D19*
X0161654Y0087126D03*
D20*
X0167165Y0244213D03*
D21*
X0200630Y0244213D03*
D22*
X0239409Y0244213D03*
D23*
X0320315Y0238307D03*
D24*
X0320315Y0112913D03*
D25*
X0320315Y0090669D03*
D13*
X0319528Y0243425D03*
X0316378Y0243425D03*
X0313228Y0243425D03*
X0310079Y0243425D03*
X0306929Y0243425D03*
X0303780Y0243425D03*
X0300630Y0243425D03*
X0297480Y0243425D03*
X0294331Y0243425D03*
X0291181Y0243425D03*
X0288032Y0243425D03*
X0284882Y0243425D03*
X0281732Y0243425D03*
X0278583Y0243425D03*
X0275433Y0243425D03*
X0272283Y0243425D03*
X0269134Y0243425D03*
X0265984Y0243425D03*
X0262835Y0243425D03*
X0259685Y0243425D03*
X0256535Y0243425D03*
X0253386Y0243425D03*
X0250236Y0243425D03*
X0228583Y0243425D03*
X0225433Y0243425D03*
X0222283Y0243425D03*
X0219134Y0243425D03*
X0215984Y0243425D03*
X0185276Y0243425D03*
X0182126Y0243425D03*
X0178976Y0243425D03*
X0155354Y0243425D03*
X0317165Y0087913D03*
X0312441Y0087913D03*
X0307717Y0087913D03*
X0302992Y0087913D03*
X0298268Y0087913D03*
X0293937Y0087913D03*
X0289213Y0087913D03*
X0284488Y0087913D03*
X0279764Y0087913D03*
X0275039Y0087913D03*
X0270315Y0087913D03*
X0265591Y0087913D03*
X0260866Y0087913D03*
X0256142Y0087913D03*
X0251417Y0087913D03*
X0246693Y0087913D03*
X0241969Y0087913D03*
X0237244Y0087913D03*
X0232520Y0087913D03*
X0227795Y0087913D03*
X0223071Y0087913D03*
X0218346Y0087913D03*
X0213622Y0087913D03*
X0208898Y0087913D03*
X0204173Y0087913D03*
X0199449Y0087913D03*
X0194724Y0087913D03*
X0190000Y0087913D03*
X0185276Y0087913D03*
X0180551Y0087913D03*
X0175827Y0087913D03*
X0171102Y0087913D03*
X0166378Y0087913D03*
X0156929Y0087913D03*
X0155354Y0097756D03*
X0155354Y0101693D03*
X0155354Y0126890D03*
X0155354Y0150512D03*
X0155354Y0154449D03*
X0155354Y0158386D03*
X0155354Y0162323D03*
X0155354Y0166260D03*
X0155354Y0170197D03*
X0155354Y0174134D03*
X0155354Y0178071D03*
X0155354Y0182008D03*
X0155354Y0185945D03*
X0155354Y0189882D03*
X0155354Y0193819D03*
X0155354Y0197756D03*
X0155354Y0201693D03*
X0155354Y0205630D03*
D26*
X0458867Y0042140D03*
X0045717Y0042416D03*
X0154173Y0086732D02*
G01*
G75*
G36*
X0243926Y0243822D02*
X0243275Y0243552D01*
X0242776Y0243054D01*
X0242507Y0242403D01*
X0242507Y0241698D01*
X0242776Y0241047D01*
X0243275Y0240548D01*
X0243926Y0240279D01*
X0244631Y0240279D01*
X0245282Y0240548D01*
X0245286Y0240553D01*
X0245464Y0240517D01*
X0265764Y0240517D01*
X0267268Y0239013D01*
X0266018Y0237763D01*
X0266018Y0237763D01*
X0262144Y0233888D01*
X0261871Y0233910D01*
X0261279Y0234138D01*
X0261086Y0234603D01*
X0260588Y0235101D01*
X0259937Y0235371D01*
X0259800Y0235371D01*
X0256863Y0238307D01*
X0256407Y0238612D01*
X0255870Y0238719D01*
X0228171Y0238719D01*
X0225963Y0240926D01*
X0226183Y0241818D01*
X0226436Y0241923D01*
X0226493Y0241980D01*
X0227008Y0242367D01*
X0227522Y0241980D01*
X0227579Y0241923D01*
X0228230Y0241653D01*
X0228935Y0241653D01*
X0229586Y0241923D01*
X0230084Y0242421D01*
X0230354Y0243073D01*
X0230354Y0243777D01*
X0230337Y0243819D01*
X0230863Y0244606D01*
X0237210Y0244606D01*
X0237366Y0243819D01*
X0236953Y0243647D01*
X0236454Y0243149D01*
X0236198Y0243098D01*
X0236073Y0243223D01*
X0235421Y0243493D01*
X0234717Y0243493D01*
X0234066Y0243223D01*
X0233567Y0242725D01*
X0233297Y0242073D01*
X0233297Y0241369D01*
X0233567Y0240718D01*
X0234066Y0240219D01*
X0234717Y0239949D01*
X0235421Y0239949D01*
X0236073Y0240219D01*
X0236571Y0240718D01*
X0236828Y0240768D01*
X0236953Y0240643D01*
X0237604Y0240374D01*
X0238309Y0240374D01*
X0238960Y0240643D01*
X0239458Y0241142D01*
X0239728Y0241793D01*
X0239728Y0242498D01*
X0239458Y0243149D01*
X0238960Y0243647D01*
X0238546Y0243819D01*
X0238703Y0244606D01*
X0243918Y0244606D01*
X0243926Y0243822D01*
D02*
G37*
G36*
X0318467Y0241980D02*
X0318524Y0241923D01*
X0319175Y0241653D01*
X0319880Y0241653D01*
X0319921Y0241670D01*
X0320708Y0241144D01*
X0320708Y0235469D01*
X0319921Y0234943D01*
X0319880Y0234960D01*
X0319175Y0234960D01*
X0318524Y0234691D01*
X0318025Y0234192D01*
X0317948Y0234006D01*
X0317096Y0234006D01*
X0317019Y0234192D01*
X0316520Y0234691D01*
X0315869Y0234960D01*
X0315164Y0234960D01*
X0314513Y0234691D01*
X0314015Y0234192D01*
X0313745Y0233541D01*
X0313745Y0232836D01*
X0314015Y0232185D01*
X0314513Y0231687D01*
X0315164Y0231417D01*
X0315436Y0231417D01*
X0315762Y0230630D01*
X0311947Y0226814D01*
X0311159Y0227140D01*
X0311159Y0228230D01*
X0311094Y0228557D01*
X0310909Y0228834D01*
X0307782Y0231961D01*
X0307782Y0241861D01*
X0307933Y0241923D01*
X0307989Y0241980D01*
X0308504Y0242367D01*
X0309018Y0241980D01*
X0309075Y0241923D01*
X0309726Y0241653D01*
X0310431Y0241653D01*
X0311082Y0241923D01*
X0311139Y0241980D01*
X0311653Y0242367D01*
X0312168Y0241980D01*
X0312225Y0241923D01*
X0312876Y0241653D01*
X0313580Y0241653D01*
X0314232Y0241923D01*
X0314289Y0241980D01*
X0314803Y0242367D01*
X0315317Y0241980D01*
X0315374Y0241923D01*
X0316025Y0241653D01*
X0316730Y0241653D01*
X0317381Y0241923D01*
X0317438Y0241980D01*
X0317952Y0242367D01*
X0318467Y0241980D01*
D02*
G37*
G36*
X0214230Y0243819D02*
X0214212Y0243777D01*
X0214212Y0243073D01*
X0214482Y0242421D01*
X0214899Y0242004D01*
X0214844Y0241623D01*
X0214658Y0241217D01*
X0212473Y0241217D01*
X0210302Y0243388D01*
X0210025Y0243573D01*
X0209698Y0243638D01*
X0205680Y0243638D01*
X0205354Y0243573D01*
X0205077Y0243388D01*
X0195524Y0233835D01*
X0195373Y0233897D01*
X0194668Y0233897D01*
X0193890Y0234317D01*
X0193705Y0234593D01*
X0191088Y0237210D01*
X0191319Y0238092D01*
X0191723Y0238325D01*
X0192269Y0238871D01*
X0192655Y0239540D01*
X0192855Y0240287D01*
X0192855Y0241059D01*
X0192655Y0241805D01*
X0192269Y0242475D01*
X0191723Y0243021D01*
X0191054Y0243407D01*
X0190307Y0243607D01*
X0189535Y0243607D01*
X0188788Y0243407D01*
X0188119Y0243021D01*
X0187707Y0242609D01*
X0187040Y0243055D01*
X0187047Y0243073D01*
X0187047Y0243777D01*
X0187030Y0243819D01*
X0187556Y0244606D01*
X0213703Y0244606D01*
X0214230Y0243819D01*
D02*
G37*
G36*
X0177222Y0243819D02*
X0177204Y0243777D01*
X0177204Y0243073D01*
X0177474Y0242421D01*
X0177973Y0241923D01*
X0178624Y0241653D01*
X0179329Y0241653D01*
X0179980Y0241923D01*
X0180037Y0241980D01*
X0180551Y0242367D01*
X0181065Y0241980D01*
X0181122Y0241923D01*
X0181356Y0241826D01*
X0181570Y0240926D01*
X0167657Y0227012D01*
X0167472Y0226736D01*
X0167407Y0226409D01*
X0167407Y0225275D01*
X0167256Y0225213D01*
X0166758Y0224715D01*
X0166488Y0224064D01*
X0166488Y0223888D01*
X0165701Y0223731D01*
X0165671Y0223803D01*
X0165173Y0224301D01*
X0164522Y0224571D01*
X0163817Y0224571D01*
X0163165Y0224301D01*
X0162667Y0223803D01*
X0162397Y0223151D01*
X0162397Y0222447D01*
X0162667Y0221796D01*
X0163165Y0221297D01*
X0163817Y0221027D01*
X0164522Y0221027D01*
X0165173Y0221297D01*
X0165671Y0221796D01*
X0165941Y0222447D01*
X0165941Y0222622D01*
X0166728Y0222779D01*
X0166758Y0222708D01*
X0167256Y0222209D01*
X0167907Y0221939D01*
X0168612Y0221939D01*
X0169263Y0222209D01*
X0169762Y0222708D01*
X0170031Y0223359D01*
X0170031Y0224064D01*
X0169762Y0224715D01*
X0169263Y0225213D01*
X0169113Y0225275D01*
X0169113Y0226056D01*
X0172245Y0229188D01*
X0173032Y0228862D01*
X0173032Y0218767D01*
X0173139Y0218229D01*
X0173444Y0217773D01*
X0174136Y0217081D01*
X0174036Y0216187D01*
X0173537Y0215688D01*
X0173267Y0215037D01*
X0173267Y0214332D01*
X0173537Y0213681D01*
X0174036Y0213183D01*
X0174687Y0212913D01*
X0175391Y0212913D01*
X0176043Y0213183D01*
X0176541Y0213681D01*
X0177435Y0213782D01*
X0178359Y0212858D01*
X0178359Y0205026D01*
X0177631Y0204725D01*
X0168579Y0213777D01*
X0168642Y0213927D01*
X0168642Y0214632D01*
X0168372Y0215283D01*
X0167873Y0215782D01*
X0167222Y0216052D01*
X0166517Y0216052D01*
X0165866Y0215782D01*
X0165368Y0215283D01*
X0165098Y0214632D01*
X0165098Y0213927D01*
X0165368Y0213276D01*
X0165866Y0212778D01*
X0166517Y0212508D01*
X0167222Y0212508D01*
X0167373Y0212571D01*
X0176085Y0203858D01*
X0175759Y0203071D01*
X0175425Y0203071D01*
X0174774Y0202801D01*
X0174275Y0202302D01*
X0174087Y0201848D01*
X0173898Y0201758D01*
X0173474Y0201669D01*
X0173229Y0201677D01*
X0172893Y0202013D01*
X0172242Y0202283D01*
X0171537Y0202283D01*
X0170886Y0202013D01*
X0170388Y0201515D01*
X0170118Y0200864D01*
X0170118Y0200159D01*
X0170388Y0199508D01*
X0170886Y0199010D01*
X0171287Y0198844D01*
X0174910Y0195221D01*
X0174910Y0192007D01*
X0166235Y0183333D01*
X0165887Y0182812D01*
X0165765Y0182197D01*
X0165765Y0182197D01*
X0165765Y0153865D01*
X0165571Y0153785D01*
X0165073Y0153287D01*
X0164803Y0152636D01*
X0164803Y0151931D01*
X0164927Y0151632D01*
X0164259Y0151186D01*
X0164117Y0151328D01*
X0163465Y0151598D01*
X0162761Y0151598D01*
X0162110Y0151328D01*
X0161611Y0150830D01*
X0161341Y0150179D01*
X0161341Y0149474D01*
X0161611Y0148823D01*
X0161922Y0148512D01*
X0161916Y0148144D01*
X0161849Y0147764D01*
X0161783Y0147622D01*
X0161633Y0147522D01*
X0160214Y0146103D01*
X0160029Y0145826D01*
X0159964Y0145499D01*
X0159964Y0134362D01*
X0160029Y0134036D01*
X0160214Y0133759D01*
X0167843Y0126130D01*
X0167770Y0125955D01*
X0167770Y0125250D01*
X0168040Y0124599D01*
X0168538Y0124101D01*
X0169190Y0123831D01*
X0169354Y0123831D01*
X0169510Y0123044D01*
X0169114Y0122880D01*
X0168616Y0122381D01*
X0168346Y0121730D01*
X0168346Y0121025D01*
X0168616Y0120374D01*
X0169114Y0119876D01*
X0169766Y0119606D01*
X0169903Y0119606D01*
X0171124Y0118384D01*
X0171124Y0115982D01*
X0171027Y0115885D01*
X0170758Y0115234D01*
X0170758Y0114529D01*
X0171027Y0113878D01*
X0171526Y0113380D01*
X0171637Y0112481D01*
X0168746Y0109590D01*
X0168018Y0109891D01*
X0168018Y0115680D01*
X0168192Y0115940D01*
X0168257Y0116267D01*
X0168257Y0117402D01*
X0168192Y0117728D01*
X0168007Y0118005D01*
X0166655Y0119357D01*
X0166655Y0119357D01*
X0164868Y0121143D01*
X0164868Y0123160D01*
X0165019Y0123222D01*
X0165517Y0123721D01*
X0165787Y0124372D01*
X0165787Y0125076D01*
X0165517Y0125728D01*
X0165019Y0126226D01*
X0164368Y0126496D01*
X0163663Y0126496D01*
X0163012Y0126226D01*
X0162514Y0125728D01*
X0162244Y0125076D01*
X0162244Y0124372D01*
X0162514Y0123721D01*
X0163012Y0123222D01*
X0163163Y0123160D01*
X0163163Y0120790D01*
X0163227Y0120464D01*
X0163412Y0120187D01*
X0164365Y0119234D01*
X0164254Y0118336D01*
X0163755Y0117838D01*
X0163729Y0117773D01*
X0162800Y0117588D01*
X0160489Y0119899D01*
X0160489Y0125270D01*
X0160424Y0125597D01*
X0160239Y0125873D01*
X0160145Y0125967D01*
X0160330Y0126895D01*
X0160492Y0126962D01*
X0160990Y0127461D01*
X0161260Y0128112D01*
X0161260Y0128817D01*
X0160990Y0129468D01*
X0160492Y0129966D01*
X0159840Y0130236D01*
X0159136Y0130236D01*
X0159012Y0130185D01*
X0158225Y0130711D01*
X0158225Y0140137D01*
X0158166Y0140431D01*
X0158405Y0141008D01*
X0158405Y0141713D01*
X0158136Y0142364D01*
X0157637Y0142862D01*
X0156986Y0143132D01*
X0156281Y0143132D01*
X0155630Y0142862D01*
X0155132Y0142364D01*
X0154960Y0141951D01*
X0154173Y0142107D01*
X0154173Y0148231D01*
X0154960Y0148757D01*
X0155002Y0148740D01*
X0155707Y0148740D01*
X0156358Y0149010D01*
X0156856Y0149508D01*
X0157126Y0150159D01*
X0157126Y0150864D01*
X0156856Y0151515D01*
X0156358Y0152013D01*
X0156260Y0152054D01*
X0156260Y0152906D01*
X0156358Y0152947D01*
X0156856Y0153445D01*
X0157126Y0154096D01*
X0157126Y0154801D01*
X0156856Y0155452D01*
X0156358Y0155950D01*
X0156260Y0155991D01*
X0156260Y0156843D01*
X0156358Y0156884D01*
X0156856Y0157382D01*
X0157126Y0158033D01*
X0157126Y0158738D01*
X0156856Y0159389D01*
X0156358Y0159887D01*
X0156260Y0159928D01*
X0156260Y0160780D01*
X0156358Y0160821D01*
X0156856Y0161319D01*
X0157126Y0161970D01*
X0157126Y0162675D01*
X0156856Y0163326D01*
X0156358Y0163824D01*
X0156260Y0163865D01*
X0156260Y0164717D01*
X0156358Y0164758D01*
X0156856Y0165256D01*
X0157126Y0165907D01*
X0157126Y0166612D01*
X0156856Y0167263D01*
X0156358Y0167761D01*
X0156260Y0167802D01*
X0156260Y0168654D01*
X0156358Y0168695D01*
X0156856Y0169193D01*
X0157126Y0169844D01*
X0157126Y0170549D01*
X0156856Y0171200D01*
X0156358Y0171698D01*
X0156260Y0171739D01*
X0156260Y0172591D01*
X0156358Y0172632D01*
X0156856Y0173130D01*
X0157126Y0173781D01*
X0157126Y0174486D01*
X0156856Y0175137D01*
X0156358Y0175635D01*
X0156260Y0175676D01*
X0156260Y0176528D01*
X0156358Y0176569D01*
X0156856Y0177067D01*
X0157126Y0177718D01*
X0157126Y0178423D01*
X0156856Y0179074D01*
X0156358Y0179572D01*
X0156260Y0179613D01*
X0156260Y0180465D01*
X0156358Y0180506D01*
X0156856Y0181004D01*
X0157126Y0181655D01*
X0157126Y0182360D01*
X0156856Y0183011D01*
X0156358Y0183509D01*
X0156260Y0183550D01*
X0156260Y0184402D01*
X0156358Y0184443D01*
X0156856Y0184941D01*
X0157126Y0185592D01*
X0157126Y0186297D01*
X0156856Y0186948D01*
X0156358Y0187447D01*
X0156260Y0187487D01*
X0156260Y0188339D01*
X0156358Y0188380D01*
X0156856Y0188878D01*
X0157126Y0189529D01*
X0157126Y0190234D01*
X0156856Y0190885D01*
X0156358Y0191383D01*
X0156260Y0191424D01*
X0156260Y0192276D01*
X0156358Y0192317D01*
X0156856Y0192815D01*
X0157126Y0193466D01*
X0157126Y0194171D01*
X0156856Y0194822D01*
X0156358Y0195321D01*
X0156260Y0195361D01*
X0156260Y0196213D01*
X0156358Y0196254D01*
X0156856Y0196752D01*
X0157126Y0197403D01*
X0157913Y0197714D01*
X0164387Y0191240D01*
X0164713Y0191023D01*
X0164997Y0190966D01*
X0165109Y0190695D01*
X0165608Y0190197D01*
X0166259Y0189927D01*
X0166964Y0189927D01*
X0167615Y0190197D01*
X0168113Y0190695D01*
X0168383Y0191346D01*
X0168383Y0192051D01*
X0168113Y0192702D01*
X0167615Y0193200D01*
X0166964Y0193470D01*
X0166259Y0193470D01*
X0165608Y0193200D01*
X0165437Y0193029D01*
X0160337Y0198129D01*
X0160783Y0198796D01*
X0161104Y0198663D01*
X0161809Y0198663D01*
X0162460Y0198933D01*
X0162958Y0199431D01*
X0163228Y0200082D01*
X0163228Y0200787D01*
X0162958Y0201439D01*
X0162460Y0201937D01*
X0161809Y0202207D01*
X0161104Y0202207D01*
X0160453Y0201937D01*
X0159955Y0201439D01*
X0159685Y0200787D01*
X0159685Y0200082D01*
X0159818Y0199762D01*
X0159150Y0199316D01*
X0157126Y0201340D01*
X0157126Y0201340D01*
X0157126Y0202045D01*
X0156856Y0202696D01*
X0156358Y0203195D01*
X0156260Y0203235D01*
X0156260Y0204087D01*
X0156358Y0204128D01*
X0156856Y0204626D01*
X0157077Y0205158D01*
X0157499Y0205257D01*
X0157896Y0205237D01*
X0157986Y0205020D01*
X0158484Y0204521D01*
X0159136Y0204252D01*
X0159840Y0204252D01*
X0160491Y0204521D01*
X0160990Y0205020D01*
X0161260Y0205671D01*
X0161260Y0206376D01*
X0160990Y0207027D01*
X0160491Y0207525D01*
X0159840Y0207795D01*
X0159136Y0207795D01*
X0158484Y0207525D01*
X0157986Y0207027D01*
X0157766Y0206495D01*
X0157343Y0206396D01*
X0156946Y0206417D01*
X0156856Y0206633D01*
X0156358Y0207131D01*
X0155707Y0207401D01*
X0155002Y0207401D01*
X0154960Y0207384D01*
X0154173Y0207910D01*
X0154173Y0240430D01*
X0154960Y0240970D01*
X0155194Y0240880D01*
X0155198Y0240866D01*
X0155157Y0240716D01*
X0155157Y0239835D01*
X0155385Y0238984D01*
X0155826Y0238221D01*
X0156449Y0237597D01*
X0157212Y0237157D01*
X0158063Y0236929D01*
X0158944Y0236929D01*
X0159795Y0237157D01*
X0160018Y0237285D01*
X0160545Y0237106D01*
X0161043Y0236608D01*
X0161695Y0236338D01*
X0162399Y0236338D01*
X0163051Y0236608D01*
X0163549Y0237106D01*
X0163819Y0237757D01*
X0163819Y0238462D01*
X0163549Y0239114D01*
X0163051Y0239612D01*
X0162399Y0239882D01*
X0161850Y0239882D01*
X0161850Y0240716D01*
X0161622Y0241567D01*
X0161182Y0242330D01*
X0160558Y0242953D01*
X0159795Y0243394D01*
X0158944Y0243622D01*
X0158063Y0243622D01*
X0157913Y0243582D01*
X0157899Y0243585D01*
X0157809Y0243819D01*
X0158349Y0244606D01*
X0176696Y0244606D01*
X0177222Y0243819D01*
D02*
G37*
G36*
X0283742Y0234173D02*
X0283091Y0233903D01*
X0282592Y0233405D01*
X0282323Y0232754D01*
X0282323Y0232615D01*
X0269816Y0232615D01*
X0269623Y0232874D01*
X0269403Y0233402D01*
X0269611Y0233904D01*
X0269611Y0234041D01*
X0270530Y0234960D01*
X0283741Y0234960D01*
X0283742Y0234173D01*
D02*
G37*
G36*
X0257813Y0233384D02*
X0257813Y0233247D01*
X0258083Y0232595D01*
X0258581Y0232097D01*
X0259046Y0231904D01*
X0259273Y0231313D01*
X0259295Y0231040D01*
X0255512Y0227257D01*
X0245051Y0227257D01*
X0244524Y0228043D01*
X0244524Y0228748D01*
X0244255Y0229399D01*
X0243756Y0229898D01*
X0243105Y0230167D01*
X0242400Y0230167D01*
X0241749Y0229898D01*
X0241251Y0229399D01*
X0241095Y0229023D01*
X0240356Y0228784D01*
X0240212Y0228792D01*
X0239589Y0229416D01*
X0239312Y0229601D01*
X0238986Y0229666D01*
X0229197Y0229666D01*
X0227742Y0231120D01*
X0228081Y0231719D01*
X0228165Y0231811D01*
X0228837Y0231811D01*
X0229489Y0232081D01*
X0229862Y0232454D01*
X0230334Y0231982D01*
X0230985Y0231712D01*
X0231690Y0231712D01*
X0232341Y0231982D01*
X0232840Y0232480D01*
X0233109Y0233132D01*
X0233109Y0233836D01*
X0232840Y0234488D01*
X0232341Y0234986D01*
X0232014Y0235121D01*
X0232171Y0235909D01*
X0255288Y0235909D01*
X0257813Y0233384D01*
D02*
G37*
G36*
X0294544Y0234820D02*
X0294544Y0234115D01*
X0294813Y0233464D01*
X0295312Y0232966D01*
X0295612Y0232841D01*
X0295612Y0224915D01*
X0292595Y0221899D01*
X0292411Y0221622D01*
X0292346Y0221295D01*
X0292346Y0218434D01*
X0287377Y0213465D01*
X0286809Y0213701D01*
X0286104Y0213701D01*
X0285453Y0213431D01*
X0284954Y0212932D01*
X0284685Y0212281D01*
X0284685Y0211577D01*
X0284954Y0210925D01*
X0285453Y0210427D01*
X0286104Y0210157D01*
X0286809Y0210157D01*
X0287460Y0210427D01*
X0287958Y0210925D01*
X0288228Y0211577D01*
X0288228Y0211904D01*
X0292592Y0216267D01*
X0293319Y0215966D01*
X0293319Y0205789D01*
X0293073Y0205195D01*
X0293073Y0205058D01*
X0290778Y0202763D01*
X0290473Y0202307D01*
X0290367Y0201769D01*
X0290367Y0196197D01*
X0290473Y0195659D01*
X0290590Y0195484D01*
X0290590Y0195041D01*
X0290860Y0194390D01*
X0291358Y0193891D01*
X0292010Y0193622D01*
X0292483Y0193622D01*
X0292862Y0192927D01*
X0292869Y0192894D01*
X0292829Y0192854D01*
X0292559Y0192203D01*
X0292559Y0191498D01*
X0292829Y0190847D01*
X0293327Y0190348D01*
X0293978Y0190079D01*
X0294683Y0190079D01*
X0294993Y0190207D01*
X0295780Y0189765D01*
X0295780Y0185444D01*
X0295297Y0184961D01*
X0295160Y0184961D01*
X0294509Y0184691D01*
X0294412Y0184595D01*
X0288194Y0184595D01*
X0287656Y0184488D01*
X0287201Y0184183D01*
X0281441Y0178424D01*
X0281249Y0178253D01*
X0280427Y0178409D01*
X0280399Y0178437D01*
X0279748Y0178707D01*
X0279043Y0178707D01*
X0278329Y0179263D01*
X0278329Y0185870D01*
X0278264Y0186196D01*
X0278079Y0186473D01*
X0277536Y0187017D01*
X0277598Y0187167D01*
X0277598Y0187872D01*
X0277328Y0188523D01*
X0276830Y0189021D01*
X0276179Y0189291D01*
X0275474Y0189291D01*
X0274823Y0189021D01*
X0274766Y0188965D01*
X0274252Y0188578D01*
X0273737Y0188965D01*
X0273681Y0189021D01*
X0273029Y0189291D01*
X0272324Y0189291D01*
X0271673Y0189021D01*
X0271175Y0188523D01*
X0270905Y0187872D01*
X0270905Y0187167D01*
X0271175Y0186516D01*
X0271673Y0186018D01*
X0272324Y0185748D01*
X0273029Y0185748D01*
X0273180Y0185810D01*
X0275639Y0183351D01*
X0275639Y0175641D01*
X0275704Y0175315D01*
X0275889Y0175038D01*
X0276220Y0174707D01*
X0276228Y0174558D01*
X0275989Y0173824D01*
X0275610Y0173667D01*
X0275112Y0173169D01*
X0275072Y0173071D01*
X0274219Y0173071D01*
X0274179Y0173169D01*
X0273681Y0173667D01*
X0273029Y0173937D01*
X0272324Y0173937D01*
X0271673Y0173667D01*
X0271175Y0173169D01*
X0270905Y0172518D01*
X0270905Y0171813D01*
X0271082Y0171386D01*
X0271003Y0171268D01*
X0270938Y0170942D01*
X0270938Y0154479D01*
X0268383Y0151924D01*
X0268198Y0151647D01*
X0268133Y0151321D01*
X0268133Y0151165D01*
X0267528Y0150512D01*
X0266802Y0150512D01*
X0266101Y0150324D01*
X0265473Y0149961D01*
X0264960Y0149448D01*
X0264597Y0148819D01*
X0264409Y0148119D01*
X0264409Y0147393D01*
X0264597Y0146692D01*
X0264960Y0146064D01*
X0265473Y0145550D01*
X0266101Y0145188D01*
X0266802Y0145000D01*
X0267528Y0145000D01*
X0268229Y0145188D01*
X0268418Y0145297D01*
X0272455Y0141260D01*
X0272399Y0140924D01*
X0272186Y0140415D01*
X0271673Y0140202D01*
X0271631Y0140160D01*
X0271087Y0139774D01*
X0270602Y0140160D01*
X0270531Y0140232D01*
X0269880Y0140502D01*
X0269175Y0140502D01*
X0268524Y0140232D01*
X0268452Y0140160D01*
X0267968Y0139774D01*
X0267423Y0140160D01*
X0267381Y0140202D01*
X0266730Y0140472D01*
X0266025Y0140472D01*
X0265616Y0140303D01*
X0264973Y0140615D01*
X0264828Y0140764D01*
X0264828Y0143827D01*
X0264764Y0144153D01*
X0264579Y0144430D01*
X0263840Y0145168D01*
X0263903Y0145319D01*
X0263903Y0146024D01*
X0263633Y0146675D01*
X0263134Y0147173D01*
X0262483Y0147443D01*
X0261779Y0147443D01*
X0261511Y0148170D01*
X0261636Y0148222D01*
X0262134Y0148721D01*
X0262404Y0149372D01*
X0262404Y0150077D01*
X0262134Y0150728D01*
X0261636Y0151226D01*
X0260985Y0151496D01*
X0260280Y0151496D01*
X0259629Y0151226D01*
X0259130Y0150728D01*
X0258861Y0150077D01*
X0258861Y0149861D01*
X0258858Y0149371D01*
X0258151Y0149134D01*
X0257500Y0148864D01*
X0256749Y0149226D01*
X0256749Y0183807D01*
X0257476Y0184108D01*
X0259989Y0181596D01*
X0260266Y0181411D01*
X0260592Y0181346D01*
X0267211Y0181346D01*
X0267537Y0181411D01*
X0267814Y0181596D01*
X0269688Y0183469D01*
X0269873Y0183746D01*
X0269937Y0184073D01*
X0269937Y0188568D01*
X0269873Y0188894D01*
X0269688Y0189171D01*
X0261991Y0196867D01*
X0261725Y0197144D01*
X0261806Y0197837D01*
X0261850Y0197945D01*
X0261850Y0198649D01*
X0261580Y0199301D01*
X0261082Y0199799D01*
X0260431Y0200069D01*
X0259726Y0200069D01*
X0259075Y0199799D01*
X0258577Y0199301D01*
X0258307Y0198649D01*
X0258307Y0198553D01*
X0258117Y0198257D01*
X0257732Y0198065D01*
X0257520Y0198191D01*
X0257520Y0198895D01*
X0257250Y0199547D01*
X0256751Y0200045D01*
X0256100Y0200315D01*
X0255395Y0200315D01*
X0254744Y0200045D01*
X0254246Y0199547D01*
X0253976Y0198895D01*
X0253976Y0198191D01*
X0254095Y0197905D01*
X0253640Y0197117D01*
X0247705Y0197117D01*
X0240508Y0204314D01*
X0240508Y0206155D01*
X0242916Y0208562D01*
X0243101Y0208839D01*
X0243166Y0209165D01*
X0243166Y0210755D01*
X0243101Y0211082D01*
X0242916Y0211359D01*
X0233081Y0221193D01*
X0232804Y0221378D01*
X0232478Y0221443D01*
X0232115Y0221443D01*
X0232053Y0221594D01*
X0231554Y0222092D01*
X0230903Y0222362D01*
X0230199Y0222362D01*
X0229547Y0222092D01*
X0229049Y0221594D01*
X0228888Y0221206D01*
X0228171Y0220968D01*
X0228005Y0220975D01*
X0221696Y0227284D01*
X0221712Y0228143D01*
X0222210Y0228642D01*
X0222301Y0228860D01*
X0223208Y0229066D01*
X0227017Y0225257D01*
X0227294Y0225072D01*
X0227620Y0225007D01*
X0237409Y0225007D01*
X0239568Y0222848D01*
X0239845Y0222663D01*
X0240171Y0222598D01*
X0249412Y0222598D01*
X0249593Y0222378D01*
X0249842Y0221811D01*
X0249646Y0221336D01*
X0249646Y0220632D01*
X0249915Y0219980D01*
X0250414Y0219482D01*
X0251065Y0219212D01*
X0251770Y0219212D01*
X0252421Y0219482D01*
X0252919Y0219980D01*
X0253189Y0220632D01*
X0253189Y0221336D01*
X0252992Y0221811D01*
X0253241Y0222378D01*
X0253422Y0222598D01*
X0257088Y0222598D01*
X0257415Y0222663D01*
X0257691Y0222848D01*
X0264768Y0229924D01*
X0266828Y0229924D01*
X0267150Y0229137D01*
X0266879Y0228866D01*
X0266609Y0228215D01*
X0266609Y0227510D01*
X0266879Y0226859D01*
X0267377Y0226361D01*
X0268028Y0226091D01*
X0268733Y0226091D01*
X0269273Y0226314D01*
X0269382Y0226284D01*
X0269680Y0226122D01*
X0270000Y0225863D01*
X0270000Y0225405D01*
X0270270Y0224754D01*
X0270768Y0224256D01*
X0271419Y0223986D01*
X0272124Y0223986D01*
X0272775Y0224256D01*
X0273274Y0224754D01*
X0273543Y0225405D01*
X0273543Y0226110D01*
X0273274Y0226761D01*
X0272775Y0227259D01*
X0272124Y0227529D01*
X0271419Y0227529D01*
X0270880Y0227306D01*
X0270771Y0227336D01*
X0270473Y0227498D01*
X0270152Y0227757D01*
X0270152Y0228215D01*
X0269882Y0228866D01*
X0269612Y0229137D01*
X0269933Y0229924D01*
X0282651Y0229924D01*
X0282696Y0229879D01*
X0282973Y0229694D01*
X0283299Y0229629D01*
X0284889Y0229629D01*
X0285216Y0229694D01*
X0285492Y0229879D01*
X0287158Y0231545D01*
X0287343Y0231821D01*
X0287353Y0231873D01*
X0287854Y0232081D01*
X0288352Y0232579D01*
X0288622Y0233230D01*
X0288622Y0233935D01*
X0288523Y0234173D01*
X0289007Y0234960D01*
X0294450Y0234960D01*
X0294544Y0234820D01*
D02*
G37*
G36*
X0207187Y0235540D02*
X0207573Y0234871D01*
X0208119Y0234325D01*
X0208788Y0233939D01*
X0209535Y0233739D01*
X0210307Y0233739D01*
X0211054Y0233939D01*
X0211461Y0234174D01*
X0212248Y0233815D01*
X0212248Y0227107D01*
X0212117Y0227021D01*
X0211958Y0227026D01*
X0211198Y0227360D01*
X0211060Y0227695D01*
X0210562Y0228193D01*
X0209911Y0228463D01*
X0209206Y0228463D01*
X0208555Y0228193D01*
X0208056Y0227695D01*
X0207787Y0227044D01*
X0207787Y0226339D01*
X0207806Y0226291D01*
X0207806Y0225439D01*
X0207308Y0224940D01*
X0207038Y0224289D01*
X0207038Y0223584D01*
X0207308Y0222933D01*
X0207806Y0222435D01*
X0208129Y0222301D01*
X0207972Y0221514D01*
X0206709Y0221514D01*
X0206383Y0221449D01*
X0206106Y0221264D01*
X0203687Y0218845D01*
X0203502Y0218568D01*
X0203437Y0218242D01*
X0203437Y0217128D01*
X0203287Y0217065D01*
X0202788Y0216567D01*
X0202714Y0216388D01*
X0202409Y0216308D01*
X0201827Y0216304D01*
X0201447Y0216684D01*
X0200796Y0216954D01*
X0200091Y0216954D01*
X0199440Y0216684D01*
X0198942Y0216186D01*
X0198848Y0215961D01*
X0197956Y0215666D01*
X0197931Y0216567D01*
X0198195Y0216831D01*
X0198464Y0217482D01*
X0198464Y0217619D01*
X0204856Y0224011D01*
X0205161Y0224467D01*
X0205268Y0225005D01*
X0205268Y0227242D01*
X0205855Y0227830D01*
X0206160Y0228285D01*
X0206267Y0228823D01*
X0206267Y0235931D01*
X0207054Y0236035D01*
X0207187Y0235540D01*
D02*
G37*
G36*
X0184115Y0240545D02*
X0184558Y0240388D01*
X0184672Y0240218D01*
X0186699Y0238191D01*
X0186703Y0237993D01*
X0186469Y0237308D01*
X0186064Y0237140D01*
X0185566Y0236642D01*
X0185296Y0235991D01*
X0185296Y0235286D01*
X0185566Y0234635D01*
X0185888Y0234313D01*
X0185888Y0231362D01*
X0184979Y0230453D01*
X0184794Y0230176D01*
X0184750Y0229953D01*
X0184590Y0229772D01*
X0183971Y0229423D01*
X0183266Y0229423D01*
X0182615Y0229153D01*
X0182117Y0228655D01*
X0182055Y0228505D01*
X0181636Y0228505D01*
X0181309Y0228440D01*
X0181033Y0228255D01*
X0179329Y0226551D01*
X0178400Y0226736D01*
X0178400Y0226736D01*
X0177901Y0227234D01*
X0177250Y0227504D01*
X0176545Y0227504D01*
X0175842Y0228065D01*
X0175842Y0228863D01*
X0179876Y0232897D01*
X0180013Y0232897D01*
X0180665Y0233167D01*
X0181163Y0233665D01*
X0181433Y0234317D01*
X0181433Y0235022D01*
X0181163Y0235673D01*
X0180665Y0236171D01*
X0180436Y0236266D01*
X0180225Y0237168D01*
X0183662Y0240606D01*
X0184115Y0240545D01*
D02*
G37*
G36*
X0215828Y0233720D02*
X0216249Y0233720D01*
X0216763Y0233206D01*
X0216763Y0229185D01*
X0216763Y0229185D01*
X0216855Y0228724D01*
X0217116Y0228333D01*
X0219387Y0226063D01*
X0219387Y0226063D01*
X0219763Y0225811D01*
X0221579Y0223995D01*
X0221143Y0223389D01*
X0220491Y0223658D01*
X0219787Y0223658D01*
X0219135Y0223389D01*
X0218637Y0222890D01*
X0218367Y0222239D01*
X0218367Y0221534D01*
X0218637Y0220883D01*
X0219135Y0220385D01*
X0219787Y0220115D01*
X0220491Y0220115D01*
X0220642Y0220178D01*
X0223792Y0217027D01*
X0223792Y0214942D01*
X0223857Y0214616D01*
X0224042Y0214339D01*
X0231025Y0207357D01*
X0231025Y0206271D01*
X0231090Y0205945D01*
X0231274Y0205668D01*
X0234354Y0202589D01*
X0234291Y0202439D01*
X0234291Y0201734D01*
X0234327Y0201648D01*
X0233926Y0200769D01*
X0233869Y0200750D01*
X0233433Y0200790D01*
X0221290Y0212934D01*
X0220964Y0213151D01*
X0220512Y0213939D01*
X0220512Y0214643D01*
X0220242Y0215295D01*
X0219861Y0215676D01*
X0220326Y0216141D01*
X0220595Y0216792D01*
X0220595Y0217497D01*
X0220326Y0218148D01*
X0219827Y0218646D01*
X0219176Y0218916D01*
X0218471Y0218916D01*
X0217820Y0218646D01*
X0217322Y0218148D01*
X0217052Y0217497D01*
X0217052Y0216792D01*
X0217322Y0216141D01*
X0217480Y0215982D01*
X0217084Y0215293D01*
X0216330Y0215197D01*
X0216034Y0215493D01*
X0215709Y0215710D01*
X0215325Y0215787D01*
X0210403Y0215787D01*
X0210020Y0215710D01*
X0209694Y0215493D01*
X0208320Y0214119D01*
X0206380Y0214119D01*
X0205936Y0214906D01*
X0206062Y0215211D01*
X0206062Y0215916D01*
X0205792Y0216567D01*
X0205294Y0217065D01*
X0205143Y0217128D01*
X0205143Y0217888D01*
X0207063Y0219808D01*
X0209054Y0219808D01*
X0209381Y0219873D01*
X0209557Y0219991D01*
X0209923Y0219968D01*
X0210490Y0219776D01*
X0210554Y0219621D01*
X0211053Y0219122D01*
X0211704Y0218853D01*
X0212409Y0218853D01*
X0213060Y0219122D01*
X0213558Y0219621D01*
X0213828Y0220272D01*
X0213828Y0220977D01*
X0213558Y0221628D01*
X0213060Y0222126D01*
X0212904Y0222191D01*
X0212719Y0223120D01*
X0214689Y0225089D01*
X0214874Y0225366D01*
X0214939Y0225692D01*
X0214939Y0233236D01*
X0215726Y0233763D01*
X0215828Y0233720D01*
D02*
G37*
G36*
X0232678Y0219183D02*
X0241460Y0210402D01*
X0241460Y0209519D01*
X0240258Y0208317D01*
X0239531Y0208619D01*
X0239531Y0208951D01*
X0239439Y0209411D01*
X0239178Y0209802D01*
X0239178Y0209802D01*
X0230936Y0218045D01*
X0230929Y0218211D01*
X0231166Y0218928D01*
X0231554Y0219088D01*
X0232053Y0219587D01*
X0232678Y0219183D01*
D02*
G37*
G36*
X0235811Y0209763D02*
X0235513Y0208976D01*
X0234862Y0208706D01*
X0234364Y0208208D01*
X0234094Y0207557D01*
X0234094Y0206852D01*
X0234364Y0206201D01*
X0234862Y0205703D01*
X0235513Y0205433D01*
X0236218Y0205433D01*
X0236242Y0205442D01*
X0236895Y0205013D01*
X0236911Y0204440D01*
X0236296Y0203858D01*
X0235710Y0203858D01*
X0235560Y0203796D01*
X0232731Y0206625D01*
X0232731Y0207710D01*
X0232666Y0208036D01*
X0232481Y0208313D01*
X0225498Y0215295D01*
X0225498Y0217380D01*
X0225433Y0217707D01*
X0225249Y0217983D01*
X0221848Y0221384D01*
X0221911Y0221534D01*
X0221911Y0222239D01*
X0221641Y0222890D01*
X0222248Y0223327D01*
X0235811Y0209763D01*
D02*
G37*
G36*
X0309453Y0215664D02*
X0309453Y0210236D01*
X0308446Y0209229D01*
X0308261Y0208952D01*
X0308196Y0208626D01*
X0308196Y0205899D01*
X0308261Y0205572D01*
X0308446Y0205295D01*
X0310437Y0203304D01*
X0310437Y0201313D01*
X0310270Y0201201D01*
X0309565Y0201201D01*
X0308914Y0200931D01*
X0308500Y0200517D01*
X0308010Y0200506D01*
X0307623Y0200577D01*
X0307581Y0200679D01*
X0307082Y0201177D01*
X0306431Y0201447D01*
X0305726Y0201447D01*
X0305075Y0201177D01*
X0304577Y0200679D01*
X0304307Y0200028D01*
X0303520Y0199723D01*
X0301801Y0201442D01*
X0301801Y0207862D01*
X0306304Y0212365D01*
X0306705Y0212531D01*
X0307203Y0213029D01*
X0307473Y0213680D01*
X0307473Y0214385D01*
X0307832Y0215164D01*
X0308109Y0215349D01*
X0308726Y0215966D01*
X0309453Y0215664D01*
D02*
G37*
G36*
X0217174Y0211515D02*
X0217500Y0211297D01*
X0217884Y0211221D01*
X0220165Y0211221D01*
X0231508Y0199877D01*
X0231207Y0199150D01*
X0221899Y0199150D01*
X0213158Y0207891D01*
X0213008Y0207991D01*
X0212780Y0208736D01*
X0212765Y0208838D01*
X0212778Y0208899D01*
X0213031Y0209510D01*
X0213031Y0210214D01*
X0212762Y0210866D01*
X0212338Y0211289D01*
X0212762Y0211713D01*
X0213031Y0212364D01*
X0213031Y0213069D01*
X0213589Y0213780D01*
X0214909Y0213780D01*
X0217174Y0211515D01*
D02*
G37*
G36*
X0218601Y0195859D02*
X0218300Y0195132D01*
X0215740Y0195132D01*
X0212892Y0197979D01*
X0212892Y0198116D01*
X0212622Y0198768D01*
X0212124Y0199266D01*
X0211473Y0199536D01*
X0211336Y0199536D01*
X0209662Y0201210D01*
X0209206Y0201514D01*
X0208668Y0201621D01*
X0206359Y0201621D01*
X0206058Y0202349D01*
X0206861Y0203153D01*
X0211308Y0203153D01*
X0218601Y0195859D01*
D02*
G37*
G36*
X0240967Y0190028D02*
X0241244Y0189844D01*
X0241570Y0189779D01*
X0251134Y0189779D01*
X0251435Y0189051D01*
X0228500Y0166117D01*
X0227713Y0166443D01*
X0227713Y0178751D01*
X0230724Y0181762D01*
X0230909Y0182039D01*
X0230974Y0182365D01*
X0230974Y0186492D01*
X0231125Y0186555D01*
X0231623Y0187053D01*
X0231893Y0187704D01*
X0231893Y0188409D01*
X0231623Y0189060D01*
X0231125Y0189559D01*
X0230474Y0189828D01*
X0229769Y0189828D01*
X0229200Y0189593D01*
X0228813Y0189735D01*
X0228413Y0189967D01*
X0228413Y0191491D01*
X0229200Y0191912D01*
X0229242Y0191884D01*
X0229780Y0191777D01*
X0231662Y0191777D01*
X0231910Y0191529D01*
X0232561Y0191260D01*
X0233266Y0191260D01*
X0233917Y0191529D01*
X0234415Y0192028D01*
X0235200Y0191865D01*
X0235710Y0191653D01*
X0236415Y0191653D01*
X0237066Y0191923D01*
X0237513Y0192369D01*
X0237602Y0192426D01*
X0238463Y0192533D01*
X0240967Y0190028D01*
D02*
G37*
G36*
X0303093Y0215345D02*
X0297869Y0210122D01*
X0297684Y0209845D01*
X0297620Y0209519D01*
X0297620Y0200058D01*
X0297684Y0199732D01*
X0297869Y0199455D01*
X0309468Y0187857D01*
X0309468Y0187187D01*
X0309737Y0186536D01*
X0310236Y0186038D01*
X0310887Y0185768D01*
X0311592Y0185768D01*
X0312243Y0186038D01*
X0312741Y0186536D01*
X0313011Y0187187D01*
X0313011Y0187892D01*
X0312741Y0188543D01*
X0312243Y0189042D01*
X0311592Y0189311D01*
X0310887Y0189311D01*
X0310560Y0189176D01*
X0306873Y0192863D01*
X0307175Y0193591D01*
X0310113Y0193591D01*
X0310514Y0193425D01*
X0311218Y0193425D01*
X0311869Y0193695D01*
X0312368Y0194193D01*
X0312638Y0194844D01*
X0312638Y0194934D01*
X0313064Y0195142D01*
X0313802Y0194647D01*
X0313802Y0181163D01*
X0312399Y0179760D01*
X0309677Y0179760D01*
X0309351Y0179695D01*
X0309074Y0179510D01*
X0307950Y0178386D01*
X0307798Y0178159D01*
X0292598Y0178159D01*
X0292272Y0178094D01*
X0291995Y0177909D01*
X0286648Y0172562D01*
X0286637Y0172546D01*
X0286433Y0172281D01*
X0285638Y0172173D01*
X0285526Y0172219D01*
X0284821Y0172219D01*
X0284453Y0172067D01*
X0283752Y0172429D01*
X0283665Y0172528D01*
X0283665Y0176572D01*
X0284266Y0177124D01*
X0285035Y0177021D01*
X0285533Y0176523D01*
X0286185Y0176253D01*
X0286889Y0176253D01*
X0287541Y0176523D01*
X0288039Y0177021D01*
X0288309Y0177673D01*
X0288309Y0178377D01*
X0288039Y0179029D01*
X0287541Y0179527D01*
X0287420Y0180429D01*
X0288776Y0181785D01*
X0294411Y0181785D01*
X0294509Y0181687D01*
X0295160Y0181418D01*
X0295865Y0181418D01*
X0296516Y0181687D01*
X0297014Y0182186D01*
X0297284Y0182837D01*
X0297284Y0182974D01*
X0298178Y0183868D01*
X0298483Y0184324D01*
X0298590Y0184862D01*
X0298590Y0193720D01*
X0298483Y0194258D01*
X0298178Y0194714D01*
X0296505Y0196387D01*
X0296049Y0196691D01*
X0295512Y0196798D01*
X0293462Y0196798D01*
X0293365Y0196895D01*
X0293176Y0196974D01*
X0293176Y0201187D01*
X0295060Y0203071D01*
X0295197Y0203071D01*
X0295848Y0203340D01*
X0296347Y0203839D01*
X0296616Y0204490D01*
X0296616Y0205195D01*
X0296347Y0205846D01*
X0296129Y0206063D01*
X0296129Y0216073D01*
X0302791Y0216073D01*
X0303093Y0215345D01*
D02*
G37*
G36*
X0186260Y0189557D02*
X0186260Y0189529D01*
X0186529Y0188878D01*
X0187028Y0188380D01*
X0187062Y0187513D01*
X0187047Y0187478D01*
X0187047Y0186773D01*
X0187317Y0186122D01*
X0187815Y0185624D01*
X0188466Y0185354D01*
X0189171Y0185354D01*
X0189787Y0184943D01*
X0189787Y0178276D01*
X0187747Y0176237D01*
X0187596Y0176299D01*
X0186892Y0176299D01*
X0186240Y0176029D01*
X0186079Y0175868D01*
X0185292Y0176194D01*
X0185292Y0189262D01*
X0186079Y0189680D01*
X0186260Y0189557D01*
D02*
G37*
G36*
X0202030Y0195936D02*
X0202030Y0193882D01*
X0202137Y0193344D01*
X0202441Y0192889D01*
X0202768Y0192562D01*
X0202768Y0189998D01*
X0202671Y0189901D01*
X0202401Y0189250D01*
X0202401Y0188545D01*
X0202671Y0187894D01*
X0203169Y0187395D01*
X0203821Y0187126D01*
X0204525Y0187126D01*
X0205177Y0187395D01*
X0205675Y0187894D01*
X0205945Y0188545D01*
X0205945Y0189250D01*
X0205675Y0189901D01*
X0205578Y0189998D01*
X0205578Y0193130D01*
X0206248Y0193130D01*
X0206371Y0193181D01*
X0207159Y0192655D01*
X0207159Y0173363D01*
X0203810Y0170014D01*
X0203542Y0170067D01*
X0203044Y0170565D01*
X0202893Y0170628D01*
X0202893Y0173545D01*
X0202828Y0173871D01*
X0202643Y0174148D01*
X0194642Y0182149D01*
X0194642Y0186124D01*
X0195258Y0186535D01*
X0195962Y0186535D01*
X0196614Y0186805D01*
X0197112Y0187303D01*
X0197382Y0187954D01*
X0197382Y0188659D01*
X0197112Y0189310D01*
X0196614Y0189809D01*
X0196463Y0189871D01*
X0196463Y0191398D01*
X0201302Y0196238D01*
X0202030Y0195936D01*
D02*
G37*
G36*
X0209347Y0172084D02*
X0211588Y0169843D01*
X0211588Y0168977D01*
X0210800Y0168821D01*
X0210793Y0168838D01*
X0210295Y0169336D01*
X0209644Y0169606D01*
X0208939Y0169606D01*
X0208288Y0169336D01*
X0207789Y0168838D01*
X0207520Y0168187D01*
X0207520Y0167482D01*
X0207789Y0166831D01*
X0208288Y0166333D01*
X0208939Y0166063D01*
X0209644Y0166063D01*
X0210295Y0166333D01*
X0210793Y0166831D01*
X0210800Y0166848D01*
X0211588Y0166692D01*
X0211588Y0160332D01*
X0210800Y0159806D01*
X0210800Y0159806D01*
X0210095Y0159806D01*
X0209444Y0159536D01*
X0209347Y0159439D01*
X0192638Y0159439D01*
X0192311Y0160226D01*
X0193112Y0161027D01*
X0197571Y0161027D01*
X0197897Y0161092D01*
X0198174Y0161277D01*
X0204562Y0167665D01*
X0204747Y0167942D01*
X0204812Y0168269D01*
X0204812Y0168604D01*
X0208314Y0172105D01*
X0208952Y0172258D01*
X0209347Y0172084D01*
D02*
G37*
G36*
X0222750Y0183558D02*
X0222990Y0183558D01*
X0223316Y0182771D01*
X0223206Y0182660D01*
X0223021Y0182383D01*
X0222956Y0182057D01*
X0222956Y0170556D01*
X0222242Y0170000D01*
X0221537Y0170000D01*
X0220886Y0169730D01*
X0220388Y0169232D01*
X0220118Y0168581D01*
X0220118Y0167876D01*
X0220182Y0167721D01*
X0219867Y0166915D01*
X0219811Y0166842D01*
X0219527Y0166818D01*
X0218843Y0167403D01*
X0218843Y0177553D01*
X0219175Y0178268D01*
X0219880Y0178268D01*
X0220531Y0178537D01*
X0221029Y0179036D01*
X0221299Y0179687D01*
X0221299Y0180392D01*
X0221029Y0181043D01*
X0220531Y0181541D01*
X0220178Y0181687D01*
X0220334Y0182475D01*
X0220625Y0182475D01*
X0221277Y0182745D01*
X0221775Y0183243D01*
X0222010Y0183810D01*
X0222099Y0183828D01*
X0222750Y0183558D01*
D02*
G37*
G36*
X0253065Y0185445D02*
X0253563Y0184947D01*
X0254214Y0184677D01*
X0254919Y0184677D01*
X0255043Y0183950D01*
X0255043Y0166285D01*
X0254897Y0166201D01*
X0254255Y0166044D01*
X0253893Y0166406D01*
X0253242Y0166676D01*
X0252537Y0166676D01*
X0251886Y0166406D01*
X0251387Y0165908D01*
X0251118Y0165257D01*
X0251118Y0164552D01*
X0251387Y0163901D01*
X0251886Y0163402D01*
X0252537Y0163133D01*
X0253242Y0163133D01*
X0253392Y0163195D01*
X0254058Y0162529D01*
X0254058Y0152446D01*
X0253344Y0151890D01*
X0252639Y0151890D01*
X0251988Y0151620D01*
X0251490Y0151121D01*
X0251220Y0150470D01*
X0251220Y0150122D01*
X0250614Y0149894D01*
X0250433Y0149881D01*
X0249960Y0150355D01*
X0249331Y0150717D01*
X0248630Y0150905D01*
X0247905Y0150905D01*
X0247204Y0150717D01*
X0246889Y0150536D01*
X0246176Y0150833D01*
X0246123Y0150877D01*
X0246073Y0150934D01*
X0245832Y0151515D01*
X0245334Y0152013D01*
X0244683Y0152283D01*
X0243978Y0152283D01*
X0243264Y0152840D01*
X0243264Y0156206D01*
X0244195Y0157137D01*
X0244380Y0157414D01*
X0244445Y0157740D01*
X0244445Y0159485D01*
X0245233Y0160011D01*
X0245356Y0159960D01*
X0246061Y0159960D01*
X0246712Y0160230D01*
X0247210Y0160728D01*
X0247480Y0161380D01*
X0247480Y0162084D01*
X0247210Y0162736D01*
X0246712Y0163234D01*
X0246061Y0163504D01*
X0245356Y0163504D01*
X0245233Y0163453D01*
X0244445Y0163979D01*
X0244445Y0166115D01*
X0244970Y0166333D01*
X0245468Y0166831D01*
X0245738Y0167482D01*
X0245738Y0168187D01*
X0245468Y0168838D01*
X0244970Y0169336D01*
X0244319Y0169606D01*
X0243614Y0169606D01*
X0243454Y0169540D01*
X0243008Y0170208D01*
X0243273Y0170473D01*
X0243543Y0171124D01*
X0243543Y0171829D01*
X0243273Y0172480D01*
X0242775Y0172978D01*
X0242124Y0173248D01*
X0241419Y0173248D01*
X0240768Y0172978D01*
X0240270Y0172480D01*
X0240000Y0171829D01*
X0240000Y0171124D01*
X0240270Y0170473D01*
X0240147Y0170160D01*
X0239483Y0169646D01*
X0238778Y0169646D01*
X0238127Y0169377D01*
X0237629Y0168878D01*
X0237359Y0168227D01*
X0237359Y0167522D01*
X0237629Y0166871D01*
X0238127Y0166373D01*
X0238278Y0166310D01*
X0238278Y0151984D01*
X0237620Y0151404D01*
X0236915Y0151404D01*
X0236264Y0151135D01*
X0235766Y0150636D01*
X0235496Y0149985D01*
X0235496Y0149280D01*
X0235766Y0148629D01*
X0235842Y0148553D01*
X0235396Y0147885D01*
X0235234Y0147953D01*
X0234529Y0147953D01*
X0234488Y0147935D01*
X0234284Y0147983D01*
X0233618Y0148427D01*
X0233513Y0148819D01*
X0233150Y0149448D01*
X0232637Y0149961D01*
X0232008Y0150324D01*
X0231308Y0150511D01*
X0230582Y0150511D01*
X0229881Y0150324D01*
X0229386Y0150038D01*
X0228918Y0150196D01*
X0228599Y0150421D01*
X0228599Y0151149D01*
X0228534Y0151476D01*
X0228349Y0151752D01*
X0226366Y0153736D01*
X0226366Y0157829D01*
X0227080Y0158385D01*
X0227784Y0158385D01*
X0228435Y0158655D01*
X0228934Y0159154D01*
X0229136Y0159643D01*
X0229728Y0159746D01*
X0229956Y0159721D01*
X0230010Y0159590D01*
X0230509Y0159092D01*
X0230405Y0158282D01*
X0230353Y0158158D01*
X0230353Y0157453D01*
X0230623Y0156802D01*
X0231121Y0156304D01*
X0231772Y0156034D01*
X0232477Y0156034D01*
X0233128Y0156304D01*
X0233627Y0156802D01*
X0233896Y0157453D01*
X0233896Y0158158D01*
X0233782Y0158433D01*
X0234385Y0159036D01*
X0234529Y0158976D01*
X0235234Y0158976D01*
X0235885Y0159246D01*
X0236384Y0159744D01*
X0236653Y0160395D01*
X0236653Y0161100D01*
X0236384Y0161751D01*
X0235885Y0162250D01*
X0235512Y0162404D01*
X0235273Y0163148D01*
X0235281Y0163287D01*
X0235651Y0163657D01*
X0235836Y0163934D01*
X0235901Y0164261D01*
X0235901Y0169291D01*
X0252166Y0185556D01*
X0253065Y0185445D01*
D02*
G37*
G36*
X0317540Y0174996D02*
X0317699Y0174823D01*
X0317952Y0174173D01*
X0317756Y0173699D01*
X0317756Y0172994D01*
X0318025Y0172343D01*
X0318082Y0172286D01*
X0318469Y0171771D01*
X0318082Y0171257D01*
X0318025Y0171200D01*
X0317756Y0170549D01*
X0317756Y0169844D01*
X0318025Y0169193D01*
X0318082Y0169136D01*
X0318469Y0168622D01*
X0318082Y0168107D01*
X0318025Y0168050D01*
X0317756Y0167399D01*
X0317756Y0166695D01*
X0318025Y0166043D01*
X0318082Y0165987D01*
X0318469Y0165472D01*
X0318082Y0164958D01*
X0318025Y0164901D01*
X0317756Y0164250D01*
X0317756Y0163545D01*
X0317814Y0163404D01*
X0317212Y0162801D01*
X0317047Y0162869D01*
X0316342Y0162869D01*
X0315691Y0162599D01*
X0315193Y0162101D01*
X0314923Y0161450D01*
X0314923Y0160745D01*
X0315193Y0160094D01*
X0315691Y0159596D01*
X0316342Y0159326D01*
X0317047Y0159326D01*
X0318009Y0158877D01*
X0318044Y0158774D01*
X0318036Y0158612D01*
X0318025Y0158602D01*
X0317756Y0157951D01*
X0317756Y0157246D01*
X0318025Y0156595D01*
X0318082Y0156538D01*
X0318469Y0156023D01*
X0318082Y0155509D01*
X0318025Y0155452D01*
X0317756Y0154801D01*
X0317756Y0154096D01*
X0318025Y0153445D01*
X0318082Y0153388D01*
X0318469Y0152874D01*
X0318082Y0152359D01*
X0318025Y0152302D01*
X0317756Y0151651D01*
X0317756Y0150946D01*
X0318025Y0150295D01*
X0318082Y0150239D01*
X0318469Y0149724D01*
X0318082Y0149210D01*
X0318025Y0149153D01*
X0317928Y0148919D01*
X0317028Y0148705D01*
X0309128Y0156606D01*
X0309128Y0160790D01*
X0309063Y0161116D01*
X0308878Y0161393D01*
X0298516Y0171755D01*
X0298842Y0172542D01*
X0314628Y0172542D01*
X0314954Y0172607D01*
X0315231Y0172792D01*
X0317442Y0175004D01*
X0317540Y0174996D01*
D02*
G37*
G36*
X0193627Y0177854D02*
X0193618Y0177832D01*
X0193618Y0177128D01*
X0193888Y0176477D01*
X0194387Y0175978D01*
X0195038Y0175708D01*
X0195743Y0175708D01*
X0196394Y0175978D01*
X0196892Y0176477D01*
X0197790Y0176588D01*
X0201187Y0173191D01*
X0201187Y0170628D01*
X0201036Y0170565D01*
X0200538Y0170067D01*
X0200268Y0169416D01*
X0200268Y0168711D01*
X0200538Y0168060D01*
X0201036Y0167562D01*
X0201148Y0166663D01*
X0197217Y0162733D01*
X0192758Y0162733D01*
X0192432Y0162668D01*
X0192155Y0162483D01*
X0187565Y0157892D01*
X0186646Y0157892D01*
X0186319Y0157828D01*
X0186043Y0157643D01*
X0185035Y0156635D01*
X0184307Y0156936D01*
X0184307Y0161609D01*
X0185095Y0161766D01*
X0185280Y0161319D01*
X0185778Y0160821D01*
X0186429Y0160551D01*
X0187134Y0160551D01*
X0187785Y0160821D01*
X0188284Y0161319D01*
X0188553Y0161970D01*
X0188553Y0162675D01*
X0188284Y0163326D01*
X0187933Y0163677D01*
X0187953Y0164320D01*
X0188038Y0164572D01*
X0188247Y0164659D01*
X0188746Y0165158D01*
X0189016Y0165809D01*
X0189016Y0166514D01*
X0188746Y0167165D01*
X0188322Y0167588D01*
X0188746Y0168012D01*
X0189016Y0168663D01*
X0189016Y0169368D01*
X0188953Y0169519D01*
X0192227Y0172792D01*
X0192412Y0173069D01*
X0192477Y0173395D01*
X0192477Y0177950D01*
X0193222Y0178259D01*
X0193627Y0177854D01*
D02*
G37*
G36*
X0180562Y0182384D02*
X0180562Y0156512D01*
X0179731Y0155681D01*
X0179003Y0155983D01*
X0179003Y0156357D01*
X0178896Y0156894D01*
X0178592Y0157350D01*
X0178019Y0157923D01*
X0178019Y0180870D01*
X0179834Y0182685D01*
X0180562Y0182384D01*
D02*
G37*
G36*
X0178359Y0188514D02*
X0178359Y0185184D01*
X0175621Y0182446D01*
X0175316Y0181990D01*
X0175209Y0181452D01*
X0175209Y0157833D01*
X0175115Y0157312D01*
X0174453Y0157106D01*
X0174373Y0157106D01*
X0173722Y0156836D01*
X0173224Y0156338D01*
X0172954Y0155687D01*
X0172954Y0154982D01*
X0173224Y0154331D01*
X0173722Y0153832D01*
X0173873Y0153770D01*
X0173873Y0148748D01*
X0170612Y0148748D01*
X0170002Y0149245D01*
X0169946Y0149520D01*
X0169946Y0181131D01*
X0177631Y0188816D01*
X0178359Y0188514D01*
D02*
G37*
G36*
X0306437Y0159991D02*
X0306437Y0154087D01*
X0306502Y0153761D01*
X0306687Y0153484D01*
X0310711Y0149460D01*
X0310377Y0148780D01*
X0310329Y0148729D01*
X0306118Y0148729D01*
X0306055Y0148879D01*
X0305557Y0149378D01*
X0304906Y0149647D01*
X0304201Y0149647D01*
X0303659Y0149423D01*
X0302919Y0149153D01*
X0302421Y0149651D01*
X0301770Y0149921D01*
X0301065Y0149921D01*
X0300351Y0150478D01*
X0300351Y0154538D01*
X0303152Y0157340D01*
X0303337Y0157616D01*
X0303402Y0157943D01*
X0303402Y0161913D01*
X0304189Y0162239D01*
X0306437Y0159991D01*
D02*
G37*
G36*
X0287614Y0152627D02*
X0287941Y0152562D01*
X0288487Y0152562D01*
X0289788Y0151262D01*
X0289552Y0150383D01*
X0289330Y0150324D01*
X0288701Y0149961D01*
X0288188Y0149448D01*
X0287825Y0148819D01*
X0287638Y0148118D01*
X0287638Y0147393D01*
X0287825Y0146692D01*
X0288188Y0146064D01*
X0288701Y0145550D01*
X0289330Y0145187D01*
X0289458Y0144382D01*
X0289307Y0144016D01*
X0289030Y0143831D01*
X0286610Y0141410D01*
X0285882Y0141712D01*
X0285882Y0142645D01*
X0285817Y0142971D01*
X0285674Y0143186D01*
X0285674Y0147019D01*
X0286322Y0147667D01*
X0286506Y0147944D01*
X0286571Y0148270D01*
X0286571Y0152550D01*
X0287014Y0152733D01*
X0287359Y0152798D01*
X0287614Y0152627D01*
D02*
G37*
G36*
X0238071Y0140972D02*
X0238769Y0140753D01*
X0238704Y0140427D01*
X0238704Y0132876D01*
X0237917Y0132350D01*
X0237793Y0132401D01*
X0237088Y0132401D01*
X0236437Y0132132D01*
X0235939Y0131633D01*
X0235669Y0130982D01*
X0235669Y0130277D01*
X0235939Y0129626D01*
X0236437Y0129128D01*
X0237088Y0128858D01*
X0237793Y0128858D01*
X0237917Y0128909D01*
X0238704Y0128383D01*
X0238704Y0127923D01*
X0238769Y0127597D01*
X0238954Y0127320D01*
X0240062Y0126211D01*
X0240000Y0126061D01*
X0240000Y0125356D01*
X0240270Y0124705D01*
X0240524Y0124450D01*
X0240501Y0123611D01*
X0240365Y0123628D01*
X0239711Y0123920D01*
X0239533Y0124350D01*
X0239035Y0124848D01*
X0238384Y0125118D01*
X0237679Y0125118D01*
X0237028Y0124848D01*
X0236529Y0124350D01*
X0236260Y0123699D01*
X0236260Y0122994D01*
X0236529Y0122343D01*
X0237028Y0121844D01*
X0237679Y0121575D01*
X0238032Y0121575D01*
X0238358Y0120787D01*
X0231667Y0114095D01*
X0231015Y0114516D01*
X0230994Y0114536D01*
X0230994Y0115234D01*
X0230724Y0115885D01*
X0230226Y0116383D01*
X0229575Y0116653D01*
X0228870Y0116653D01*
X0228219Y0116383D01*
X0227720Y0115885D01*
X0227451Y0115234D01*
X0227451Y0114529D01*
X0227720Y0113878D01*
X0228219Y0113380D01*
X0228870Y0113110D01*
X0229567Y0113110D01*
X0229588Y0113089D01*
X0230008Y0112437D01*
X0226798Y0109227D01*
X0226613Y0108950D01*
X0226548Y0108624D01*
X0226548Y0107483D01*
X0225834Y0107031D01*
X0225302Y0107303D01*
X0225302Y0135733D01*
X0226712Y0137143D01*
X0226863Y0137081D01*
X0227568Y0137081D01*
X0228281Y0136525D01*
X0228281Y0133724D01*
X0228120Y0133657D01*
X0227622Y0133159D01*
X0227352Y0132508D01*
X0227352Y0131803D01*
X0227622Y0131152D01*
X0228095Y0130679D01*
X0227671Y0130255D01*
X0227401Y0129604D01*
X0227401Y0128899D01*
X0227671Y0128248D01*
X0228170Y0127750D01*
X0228821Y0127480D01*
X0229525Y0127480D01*
X0230177Y0127750D01*
X0230675Y0128248D01*
X0230945Y0128899D01*
X0230945Y0129604D01*
X0230882Y0129755D01*
X0231646Y0130519D01*
X0231831Y0130795D01*
X0231896Y0131122D01*
X0231896Y0139839D01*
X0232108Y0140017D01*
X0232683Y0140272D01*
X0233151Y0140079D01*
X0233856Y0140079D01*
X0234507Y0140348D01*
X0234980Y0140821D01*
X0235453Y0140348D01*
X0236104Y0140079D01*
X0236809Y0140079D01*
X0237460Y0140348D01*
X0237958Y0140847D01*
X0238015Y0140983D01*
X0238071Y0140972D01*
D02*
G37*
G36*
X0303716Y0137113D02*
X0303993Y0136928D01*
X0304319Y0136863D01*
X0310668Y0136863D01*
X0313517Y0134014D01*
X0313406Y0133116D01*
X0313397Y0133107D01*
X0312518Y0133170D01*
X0312020Y0133668D01*
X0311369Y0133938D01*
X0310664Y0133938D01*
X0310013Y0133668D01*
X0309514Y0133170D01*
X0309245Y0132519D01*
X0309245Y0131814D01*
X0309514Y0131163D01*
X0310013Y0130664D01*
X0310664Y0130395D01*
X0311369Y0130395D01*
X0312020Y0130664D01*
X0312029Y0130673D01*
X0312907Y0130610D01*
X0313406Y0130112D01*
X0314057Y0129842D01*
X0314762Y0129842D01*
X0315540Y0129410D01*
X0315725Y0129133D01*
X0317946Y0126913D01*
X0317756Y0126454D01*
X0317756Y0125750D01*
X0318025Y0125098D01*
X0318524Y0124600D01*
X0319175Y0124330D01*
X0319880Y0124330D01*
X0319921Y0124347D01*
X0320708Y0123821D01*
X0320708Y0102005D01*
X0319921Y0101479D01*
X0319880Y0101496D01*
X0319175Y0101496D01*
X0318524Y0101226D01*
X0318025Y0100728D01*
X0317756Y0100077D01*
X0317756Y0099372D01*
X0318025Y0098721D01*
X0318032Y0098714D01*
X0318023Y0098573D01*
X0317980Y0098533D01*
X0317091Y0098377D01*
X0316440Y0098647D01*
X0315735Y0098647D01*
X0315084Y0098377D01*
X0314586Y0097879D01*
X0314316Y0097228D01*
X0314316Y0097071D01*
X0313602Y0096346D01*
X0313384Y0096347D01*
X0313237Y0096533D01*
X0313237Y0097238D01*
X0312968Y0097889D01*
X0312469Y0098388D01*
X0311818Y0098657D01*
X0311113Y0098657D01*
X0310462Y0098388D01*
X0309964Y0097889D01*
X0309694Y0097238D01*
X0309694Y0097113D01*
X0309337Y0096778D01*
X0308811Y0097058D01*
X0308811Y0097301D01*
X0308542Y0097952D01*
X0308043Y0098451D01*
X0307392Y0098720D01*
X0306687Y0098720D01*
X0306036Y0098451D01*
X0305538Y0097952D01*
X0305268Y0097301D01*
X0305268Y0096597D01*
X0305155Y0096433D01*
X0304807Y0096433D01*
X0304087Y0097174D01*
X0304087Y0097301D01*
X0303817Y0097952D01*
X0303319Y0098451D01*
X0302668Y0098720D01*
X0301963Y0098720D01*
X0301312Y0098451D01*
X0300876Y0098015D01*
X0300757Y0097946D01*
X0300343Y0097901D01*
X0299649Y0098536D01*
X0299649Y0101916D01*
X0299649Y0101916D01*
X0299527Y0102531D01*
X0299179Y0103052D01*
X0299179Y0103052D01*
X0296716Y0105515D01*
X0297038Y0106292D01*
X0297052Y0106302D01*
X0306051Y0106302D01*
X0306377Y0106367D01*
X0306654Y0106552D01*
X0308664Y0108562D01*
X0308849Y0108839D01*
X0308914Y0109165D01*
X0308914Y0116811D01*
X0309701Y0116967D01*
X0309758Y0116831D01*
X0310256Y0116333D01*
X0310907Y0116063D01*
X0311612Y0116063D01*
X0312263Y0116333D01*
X0312762Y0116831D01*
X0313031Y0117482D01*
X0313031Y0118187D01*
X0312762Y0118838D01*
X0312263Y0119336D01*
X0311612Y0119606D01*
X0310907Y0119606D01*
X0310256Y0119336D01*
X0309758Y0118838D01*
X0308914Y0118859D01*
X0308799Y0118956D01*
X0308799Y0119565D01*
X0308529Y0120216D01*
X0308434Y0120311D01*
X0308760Y0121099D01*
X0312272Y0121099D01*
X0314150Y0119221D01*
X0314088Y0119071D01*
X0314088Y0118366D01*
X0314357Y0117715D01*
X0314856Y0117216D01*
X0315507Y0116947D01*
X0316212Y0116947D01*
X0316863Y0117216D01*
X0317361Y0117715D01*
X0317631Y0118366D01*
X0317631Y0119071D01*
X0317361Y0119722D01*
X0316863Y0120220D01*
X0316212Y0120490D01*
X0315507Y0120490D01*
X0315356Y0120427D01*
X0313229Y0122555D01*
X0312952Y0122740D01*
X0312626Y0122805D01*
X0307931Y0122805D01*
X0302506Y0128229D01*
X0302618Y0129128D01*
X0303116Y0129626D01*
X0303386Y0130277D01*
X0303386Y0130357D01*
X0304173Y0130683D01*
X0304351Y0130506D01*
X0305002Y0130236D01*
X0305649Y0129998D01*
X0305649Y0129293D01*
X0305919Y0128642D01*
X0306417Y0128144D01*
X0307069Y0127874D01*
X0307773Y0127874D01*
X0308425Y0128144D01*
X0308923Y0128642D01*
X0309193Y0129293D01*
X0309193Y0129998D01*
X0308923Y0130649D01*
X0308425Y0131147D01*
X0307773Y0131417D01*
X0307126Y0131655D01*
X0307126Y0132360D01*
X0306856Y0133011D01*
X0306358Y0133510D01*
X0305706Y0133779D01*
X0305002Y0133779D01*
X0304351Y0133510D01*
X0303852Y0133011D01*
X0303582Y0132360D01*
X0303582Y0132280D01*
X0302795Y0131954D01*
X0302618Y0132132D01*
X0301966Y0132401D01*
X0301262Y0132401D01*
X0300548Y0132958D01*
X0300548Y0133738D01*
X0300894Y0134084D01*
X0301078Y0134360D01*
X0301143Y0134687D01*
X0301143Y0138572D01*
X0301931Y0138898D01*
X0303716Y0137113D01*
D02*
G37*
G36*
X0155132Y0140357D02*
X0155630Y0139859D01*
X0156281Y0139589D01*
X0156519Y0139589D01*
X0156519Y0129177D01*
X0155731Y0128651D01*
X0155707Y0128661D01*
X0155002Y0128661D01*
X0154960Y0128644D01*
X0154173Y0129170D01*
X0154173Y0140614D01*
X0154960Y0140771D01*
X0155132Y0140357D01*
D02*
G37*
G36*
X0258316Y0139811D02*
X0258316Y0139714D01*
X0258586Y0139063D01*
X0259084Y0138565D01*
X0259735Y0138295D01*
X0260440Y0138295D01*
X0261091Y0138565D01*
X0261351Y0138824D01*
X0262138Y0138498D01*
X0262138Y0133623D01*
X0262203Y0133296D01*
X0262388Y0133019D01*
X0262897Y0132511D01*
X0262834Y0132360D01*
X0262834Y0131655D01*
X0263104Y0131004D01*
X0263603Y0130506D01*
X0264254Y0130236D01*
X0264958Y0130236D01*
X0265672Y0129679D01*
X0265672Y0127981D01*
X0265109Y0127418D01*
X0264958Y0127480D01*
X0264254Y0127480D01*
X0263603Y0127210D01*
X0263104Y0126712D01*
X0262834Y0126061D01*
X0262834Y0125356D01*
X0263104Y0124705D01*
X0263603Y0124207D01*
X0264254Y0123937D01*
X0264958Y0123937D01*
X0265610Y0124207D01*
X0266108Y0124705D01*
X0266378Y0125356D01*
X0266378Y0126061D01*
X0266315Y0126211D01*
X0267129Y0127025D01*
X0267297Y0127276D01*
X0267366Y0127291D01*
X0268084Y0127145D01*
X0268084Y0117210D01*
X0267370Y0116653D01*
X0266665Y0116653D01*
X0266014Y0116383D01*
X0265516Y0115885D01*
X0265246Y0115234D01*
X0265246Y0114529D01*
X0265516Y0113878D01*
X0266014Y0113380D01*
X0266665Y0113110D01*
X0267370Y0113110D01*
X0268084Y0112553D01*
X0268084Y0109723D01*
X0264519Y0106158D01*
X0264368Y0106220D01*
X0263663Y0106220D01*
X0263012Y0105950D01*
X0262514Y0105452D01*
X0262244Y0104801D01*
X0262244Y0104096D01*
X0261687Y0103382D01*
X0259423Y0103382D01*
X0259218Y0103877D01*
X0258720Y0104376D01*
X0258069Y0104645D01*
X0257364Y0104645D01*
X0256713Y0104376D01*
X0256656Y0104319D01*
X0256142Y0103932D01*
X0255627Y0104319D01*
X0255570Y0104376D01*
X0254919Y0104645D01*
X0254214Y0104645D01*
X0254042Y0104574D01*
X0253254Y0105096D01*
X0253254Y0121433D01*
X0253648Y0121663D01*
X0254042Y0121809D01*
X0254608Y0121575D01*
X0255313Y0121575D01*
X0255964Y0121844D01*
X0256462Y0122343D01*
X0256732Y0122994D01*
X0256732Y0123699D01*
X0256462Y0124350D01*
X0255964Y0124848D01*
X0255313Y0125118D01*
X0254608Y0125118D01*
X0254042Y0124883D01*
X0253648Y0125029D01*
X0253254Y0125259D01*
X0253254Y0126342D01*
X0253189Y0126669D01*
X0253700Y0127259D01*
X0254199Y0127758D01*
X0254468Y0128409D01*
X0254468Y0129114D01*
X0254406Y0129264D01*
X0256098Y0130956D01*
X0256282Y0131232D01*
X0256347Y0131559D01*
X0256347Y0133523D01*
X0256355Y0133561D01*
X0256355Y0138700D01*
X0256347Y0138737D01*
X0256347Y0139622D01*
X0257061Y0140179D01*
X0257766Y0140179D01*
X0258316Y0139811D01*
D02*
G37*
G36*
X0158783Y0124917D02*
X0158783Y0123706D01*
X0158069Y0123149D01*
X0157364Y0123149D01*
X0156713Y0122880D01*
X0156214Y0122381D01*
X0155945Y0121730D01*
X0155945Y0121025D01*
X0156214Y0120374D01*
X0156713Y0119876D01*
X0157364Y0119606D01*
X0158069Y0119606D01*
X0158848Y0119219D01*
X0159033Y0118943D01*
X0162014Y0115961D01*
X0161655Y0115349D01*
X0161586Y0115275D01*
X0160907Y0115275D01*
X0160256Y0115006D01*
X0159758Y0114507D01*
X0159488Y0113856D01*
X0159488Y0113151D01*
X0159758Y0112500D01*
X0159949Y0112309D01*
X0159949Y0111015D01*
X0159250Y0110452D01*
X0158545Y0110452D01*
X0157894Y0110183D01*
X0157396Y0109684D01*
X0157126Y0109033D01*
X0157126Y0108328D01*
X0157396Y0107677D01*
X0157700Y0107373D01*
X0157700Y0102716D01*
X0156913Y0102560D01*
X0156856Y0102696D01*
X0156358Y0103195D01*
X0155707Y0103464D01*
X0155002Y0103464D01*
X0154960Y0103447D01*
X0154173Y0103973D01*
X0154173Y0124609D01*
X0154960Y0125135D01*
X0155002Y0125118D01*
X0155707Y0125118D01*
X0156358Y0125388D01*
X0156856Y0125886D01*
X0157739Y0125960D01*
X0158783Y0124917D01*
D02*
G37*
G36*
X0297367Y0136646D02*
X0298019Y0136376D01*
X0298724Y0136376D01*
X0299437Y0135820D01*
X0299437Y0135040D01*
X0299092Y0134694D01*
X0298907Y0134417D01*
X0298842Y0134091D01*
X0298842Y0129835D01*
X0298907Y0129508D01*
X0299092Y0129232D01*
X0303874Y0124449D01*
X0303428Y0123782D01*
X0302981Y0123967D01*
X0302276Y0123967D01*
X0301625Y0123697D01*
X0301126Y0123199D01*
X0300857Y0122548D01*
X0300857Y0121843D01*
X0300906Y0121723D01*
X0301004Y0120911D01*
X0300506Y0120413D01*
X0300236Y0119762D01*
X0300236Y0119057D01*
X0300506Y0118406D01*
X0301004Y0117907D01*
X0301655Y0117638D01*
X0302360Y0117638D01*
X0302745Y0117797D01*
X0303425Y0117453D01*
X0303532Y0117336D01*
X0303532Y0112343D01*
X0302951Y0111732D01*
X0302246Y0111732D01*
X0301595Y0111462D01*
X0301096Y0110964D01*
X0300827Y0110313D01*
X0300827Y0109608D01*
X0301096Y0108957D01*
X0301257Y0108796D01*
X0300931Y0108008D01*
X0294657Y0108008D01*
X0294331Y0108796D01*
X0296115Y0110580D01*
X0296300Y0110857D01*
X0296365Y0111183D01*
X0296365Y0111590D01*
X0297128Y0112126D01*
X0297832Y0112126D01*
X0298484Y0112396D01*
X0298982Y0112894D01*
X0299252Y0113545D01*
X0299252Y0114250D01*
X0298982Y0114901D01*
X0298484Y0115399D01*
X0297832Y0115669D01*
X0297128Y0115669D01*
X0296365Y0116205D01*
X0296365Y0136535D01*
X0297152Y0136862D01*
X0297367Y0136646D01*
D02*
G37*
G36*
X0194614Y0117764D02*
X0194533Y0116984D01*
X0194508Y0116974D01*
X0194010Y0116476D01*
X0193773Y0115905D01*
X0193500Y0115825D01*
X0192953Y0115826D01*
X0192929Y0115885D01*
X0192431Y0116383D01*
X0191779Y0116653D01*
X0191075Y0116653D01*
X0190423Y0116383D01*
X0189925Y0115885D01*
X0189655Y0115234D01*
X0189655Y0114529D01*
X0189925Y0113878D01*
X0190423Y0113380D01*
X0191075Y0113110D01*
X0191779Y0113110D01*
X0192431Y0113380D01*
X0192929Y0113878D01*
X0193166Y0114449D01*
X0193439Y0114529D01*
X0193985Y0114527D01*
X0194010Y0114469D01*
X0194508Y0113970D01*
X0195159Y0113701D01*
X0195357Y0113701D01*
X0195683Y0112913D01*
X0189525Y0106755D01*
X0189473Y0106677D01*
X0189096Y0106444D01*
X0188515Y0106364D01*
X0188133Y0106522D01*
X0187428Y0106522D01*
X0187277Y0106459D01*
X0185735Y0108002D01*
X0185735Y0114006D01*
X0185885Y0114069D01*
X0186384Y0114567D01*
X0186653Y0115218D01*
X0186653Y0115923D01*
X0186384Y0116574D01*
X0185885Y0117073D01*
X0185883Y0117076D01*
X0185670Y0117959D01*
X0185735Y0118285D01*
X0185735Y0124144D01*
X0185885Y0124207D01*
X0186384Y0124705D01*
X0186435Y0124829D01*
X0187364Y0125014D01*
X0194614Y0117764D01*
D02*
G37*
G36*
X0278821Y0140079D02*
X0279525Y0140079D01*
X0279550Y0140089D01*
X0280338Y0139563D01*
X0280338Y0129244D01*
X0280403Y0128918D01*
X0280588Y0128641D01*
X0283330Y0125898D01*
X0283335Y0125704D01*
X0283100Y0125015D01*
X0282697Y0124848D01*
X0282199Y0124350D01*
X0281929Y0123699D01*
X0281929Y0122994D01*
X0282199Y0122343D01*
X0282697Y0121844D01*
X0283348Y0121575D01*
X0284053Y0121575D01*
X0284704Y0121844D01*
X0285202Y0122343D01*
X0285369Y0122746D01*
X0285588Y0122889D01*
X0286028Y0123027D01*
X0286260Y0123041D01*
X0286319Y0123001D01*
X0286646Y0122936D01*
X0288236Y0122936D01*
X0288562Y0123001D01*
X0288704Y0123096D01*
X0289491Y0122853D01*
X0289491Y0116950D01*
X0288315Y0115774D01*
X0287417Y0115885D01*
X0286919Y0116383D01*
X0286268Y0116653D01*
X0285563Y0116653D01*
X0284912Y0116383D01*
X0284413Y0115885D01*
X0284144Y0115234D01*
X0284144Y0114529D01*
X0284413Y0113878D01*
X0284912Y0113380D01*
X0285023Y0112481D01*
X0282310Y0109768D01*
X0282125Y0109492D01*
X0282060Y0109165D01*
X0282060Y0106013D01*
X0281910Y0105950D01*
X0281411Y0105452D01*
X0281142Y0104801D01*
X0281142Y0104096D01*
X0280585Y0103382D01*
X0278321Y0103382D01*
X0278116Y0103877D01*
X0277618Y0104376D01*
X0276966Y0104645D01*
X0276262Y0104645D01*
X0275611Y0104376D01*
X0275554Y0104319D01*
X0275039Y0103932D01*
X0274525Y0104319D01*
X0274468Y0104376D01*
X0273817Y0104645D01*
X0273788Y0104645D01*
X0273462Y0105433D01*
X0275593Y0107564D01*
X0275778Y0107841D01*
X0275843Y0108167D01*
X0275843Y0120316D01*
X0275778Y0120642D01*
X0275593Y0120919D01*
X0273727Y0122785D01*
X0273727Y0126944D01*
X0274490Y0127480D01*
X0275195Y0127480D01*
X0275846Y0127750D01*
X0276344Y0128248D01*
X0276614Y0128899D01*
X0276614Y0129604D01*
X0276552Y0129755D01*
X0277316Y0130519D01*
X0277501Y0130795D01*
X0277565Y0131122D01*
X0277565Y0139839D01*
X0277777Y0140017D01*
X0278353Y0140272D01*
X0278821Y0140079D01*
D02*
G37*
G36*
X0204219Y0121359D02*
X0204219Y0120914D01*
X0204284Y0120588D01*
X0204469Y0120311D01*
X0207088Y0117692D01*
X0207364Y0117507D01*
X0207691Y0117442D01*
X0208687Y0117442D01*
X0209359Y0116691D01*
X0209321Y0116383D01*
X0208823Y0115885D01*
X0208553Y0115234D01*
X0208553Y0114529D01*
X0208823Y0113878D01*
X0209321Y0113380D01*
X0209972Y0113110D01*
X0210677Y0113110D01*
X0211391Y0112553D01*
X0211391Y0106455D01*
X0210604Y0106129D01*
X0210569Y0106163D01*
X0209918Y0106433D01*
X0209213Y0106433D01*
X0209062Y0106371D01*
X0202811Y0112622D01*
X0202811Y0121653D01*
X0203599Y0121979D01*
X0204219Y0121359D01*
D02*
G37*
G36*
X0250026Y0127536D02*
X0250076Y0127462D01*
X0251548Y0125989D01*
X0251548Y0104615D01*
X0250804Y0103911D01*
X0250359Y0103938D01*
X0250236Y0104096D01*
X0250236Y0104801D01*
X0249966Y0105452D01*
X0249468Y0105950D01*
X0248817Y0106220D01*
X0248112Y0106220D01*
X0247961Y0106158D01*
X0243386Y0110734D01*
X0243386Y0114153D01*
X0243536Y0114215D01*
X0244035Y0114714D01*
X0244304Y0115365D01*
X0244304Y0116070D01*
X0244035Y0116721D01*
X0243536Y0117219D01*
X0242885Y0117489D01*
X0242180Y0117489D01*
X0241529Y0117219D01*
X0241031Y0116721D01*
X0240761Y0116070D01*
X0240761Y0115365D01*
X0241031Y0114714D01*
X0241529Y0114215D01*
X0241680Y0114153D01*
X0241680Y0110380D01*
X0241745Y0110054D01*
X0241930Y0109777D01*
X0244271Y0107436D01*
X0244088Y0106994D01*
X0243891Y0106702D01*
X0243598Y0106643D01*
X0243321Y0106458D01*
X0241045Y0104182D01*
X0240330Y0103881D01*
X0240004Y0104194D01*
X0239822Y0104376D01*
X0239171Y0104645D01*
X0238466Y0104645D01*
X0237815Y0104376D01*
X0237758Y0104319D01*
X0237244Y0103932D01*
X0236729Y0104319D01*
X0236673Y0104376D01*
X0236022Y0104645D01*
X0235317Y0104645D01*
X0234666Y0104376D01*
X0234167Y0103877D01*
X0233898Y0103226D01*
X0233898Y0102521D01*
X0233928Y0102447D01*
X0233402Y0101660D01*
X0228254Y0101660D01*
X0228254Y0102688D01*
X0228412Y0102847D01*
X0229042Y0103149D01*
X0229460Y0102976D01*
X0230164Y0102976D01*
X0230816Y0103246D01*
X0231314Y0103744D01*
X0231584Y0104395D01*
X0231584Y0105100D01*
X0231314Y0105751D01*
X0230816Y0106250D01*
X0230665Y0106312D01*
X0230665Y0109289D01*
X0249092Y0127717D01*
X0249315Y0127723D01*
X0250026Y0127536D01*
D02*
G37*
G36*
X0157700Y0096732D02*
X0157700Y0096528D01*
X0157765Y0096201D01*
X0157950Y0095925D01*
X0159553Y0094322D01*
X0159490Y0094171D01*
X0159490Y0093466D01*
X0159760Y0092815D01*
X0160258Y0092317D01*
X0160909Y0092047D01*
X0161614Y0092047D01*
X0161623Y0092050D01*
X0162410Y0091524D01*
X0162410Y0090635D01*
X0162244Y0090234D01*
X0162244Y0089529D01*
X0162514Y0088878D01*
X0163012Y0088380D01*
X0163663Y0088110D01*
X0164368Y0088110D01*
X0164409Y0088082D01*
X0164409Y0086732D01*
X0159210Y0086732D01*
X0158683Y0087520D01*
X0158701Y0087561D01*
X0158701Y0088266D01*
X0158431Y0088917D01*
X0157933Y0089415D01*
X0157281Y0089685D01*
X0156576Y0089685D01*
X0155925Y0089415D01*
X0155427Y0088917D01*
X0155157Y0088266D01*
X0155157Y0087962D01*
X0154482Y0087375D01*
X0154430Y0087360D01*
X0154173Y0087438D01*
X0154173Y0095475D01*
X0154960Y0096001D01*
X0155002Y0095984D01*
X0155707Y0095984D01*
X0156358Y0096254D01*
X0156856Y0096752D01*
X0156913Y0096888D01*
X0157700Y0096732D01*
D02*
G37*
G36*
X0300153Y0093082D02*
X0300153Y0093082D01*
X0300674Y0092734D01*
X0301288Y0092612D01*
X0301288Y0092612D01*
X0317189Y0092612D01*
X0317189Y0092612D01*
X0317803Y0092734D01*
X0318324Y0093082D01*
X0319921Y0094679D01*
X0320627Y0094387D01*
X0320708Y0094294D01*
X0320708Y0088701D01*
X0318757Y0088701D01*
X0318667Y0088917D01*
X0318169Y0089415D01*
X0317518Y0089685D01*
X0316813Y0089685D01*
X0316162Y0089415D01*
X0315663Y0088917D01*
X0315574Y0088701D01*
X0314032Y0088701D01*
X0313943Y0088917D01*
X0313444Y0089415D01*
X0312793Y0089685D01*
X0312088Y0089685D01*
X0311437Y0089415D01*
X0310939Y0088917D01*
X0310849Y0088701D01*
X0309308Y0088701D01*
X0309218Y0088917D01*
X0308720Y0089415D01*
X0308069Y0089685D01*
X0307364Y0089685D01*
X0306713Y0089415D01*
X0306214Y0088917D01*
X0306125Y0088701D01*
X0304583Y0088701D01*
X0304494Y0088917D01*
X0303995Y0089415D01*
X0303344Y0089685D01*
X0302640Y0089685D01*
X0301988Y0089415D01*
X0301490Y0088917D01*
X0301401Y0088701D01*
X0299859Y0088701D01*
X0299769Y0088917D01*
X0299271Y0089415D01*
X0298620Y0089685D01*
X0297915Y0089685D01*
X0297264Y0089415D01*
X0296766Y0088917D01*
X0296676Y0088701D01*
X0295528Y0088701D01*
X0295439Y0088917D01*
X0294940Y0089415D01*
X0294624Y0089546D01*
X0294376Y0090412D01*
X0296009Y0092045D01*
X0296009Y0092045D01*
X0296357Y0092566D01*
X0296479Y0093180D01*
X0296479Y0093627D01*
X0298044Y0095191D01*
X0300153Y0093082D01*
D02*
G37*
%LPC*%
G36*
X0240746Y0234960D02*
X0240041Y0234960D01*
X0239390Y0234691D01*
X0238892Y0234192D01*
X0238622Y0233541D01*
X0238622Y0232836D01*
X0238892Y0232185D01*
X0239390Y0231687D01*
X0240041Y0231417D01*
X0240746Y0231417D01*
X0241397Y0231687D01*
X0241895Y0232185D01*
X0242165Y0232836D01*
X0242165Y0233541D01*
X0241895Y0234192D01*
X0241397Y0234691D01*
X0240746Y0234960D01*
D02*
G37*
G36*
X0247045Y0232204D02*
X0246340Y0232204D01*
X0245689Y0231935D01*
X0245191Y0231436D01*
X0244921Y0230785D01*
X0244921Y0230080D01*
X0245191Y0229429D01*
X0245689Y0228931D01*
X0246340Y0228661D01*
X0247045Y0228661D01*
X0247696Y0228931D01*
X0248195Y0229429D01*
X0248464Y0230080D01*
X0248464Y0230785D01*
X0248195Y0231436D01*
X0247696Y0231935D01*
X0247045Y0232204D01*
D02*
G37*
G36*
X0288697Y0228563D02*
X0287992Y0228563D01*
X0287341Y0228293D01*
X0286842Y0227795D01*
X0286573Y0227143D01*
X0286573Y0226439D01*
X0286842Y0225788D01*
X0287341Y0225289D01*
X0287992Y0225019D01*
X0288697Y0225019D01*
X0289250Y0224396D01*
X0289285Y0224311D01*
X0289784Y0223813D01*
X0290435Y0223543D01*
X0291140Y0223543D01*
X0291791Y0223813D01*
X0292289Y0224311D01*
X0292559Y0224962D01*
X0292559Y0225667D01*
X0292289Y0226318D01*
X0291791Y0226817D01*
X0291140Y0227086D01*
X0290435Y0227086D01*
X0289881Y0227710D01*
X0289846Y0227795D01*
X0289348Y0228293D01*
X0288697Y0228563D01*
D02*
G37*
G36*
X0278098Y0220787D02*
X0277393Y0220787D01*
X0276742Y0220517D01*
X0276244Y0220019D01*
X0275974Y0219368D01*
X0275974Y0218663D01*
X0275258Y0218335D01*
X0274823Y0218155D01*
X0274325Y0217657D01*
X0274055Y0217006D01*
X0274055Y0216301D01*
X0274325Y0215650D01*
X0274823Y0215151D01*
X0275474Y0214882D01*
X0276179Y0214882D01*
X0276830Y0215151D01*
X0277328Y0215650D01*
X0277598Y0216301D01*
X0277598Y0217006D01*
X0278315Y0217334D01*
X0278749Y0217514D01*
X0279248Y0218012D01*
X0279518Y0218663D01*
X0279518Y0219368D01*
X0279248Y0220019D01*
X0278749Y0220517D01*
X0278098Y0220787D01*
D02*
G37*
G36*
X0259353Y0212667D02*
X0258648Y0212667D01*
X0257997Y0212397D01*
X0257499Y0211899D01*
X0257352Y0211543D01*
X0257195Y0211512D01*
X0256544Y0211782D01*
X0255839Y0211782D01*
X0255188Y0211512D01*
X0254689Y0211014D01*
X0254420Y0210363D01*
X0254420Y0209763D01*
X0253821Y0209763D01*
X0253170Y0209494D01*
X0252671Y0208995D01*
X0252401Y0208344D01*
X0252401Y0207639D01*
X0252671Y0206988D01*
X0253170Y0206490D01*
X0253821Y0206220D01*
X0254525Y0206220D01*
X0255177Y0206490D01*
X0255675Y0206988D01*
X0255945Y0207639D01*
X0255945Y0208239D01*
X0256544Y0208239D01*
X0257195Y0208508D01*
X0257693Y0209007D01*
X0257841Y0209362D01*
X0257997Y0209393D01*
X0258648Y0209124D01*
X0259353Y0209124D01*
X0260005Y0209393D01*
X0260503Y0209892D01*
X0260773Y0210543D01*
X0260773Y0211248D01*
X0260503Y0211899D01*
X0260005Y0212397D01*
X0259353Y0212667D01*
D02*
G37*
G36*
X0282399Y0208327D02*
X0281695Y0208327D01*
X0281044Y0208057D01*
X0280545Y0207558D01*
X0280275Y0206907D01*
X0280275Y0206721D01*
X0280116Y0206614D01*
X0279411Y0206614D01*
X0278760Y0206344D01*
X0278262Y0205846D01*
X0277992Y0205195D01*
X0277992Y0204490D01*
X0278262Y0203839D01*
X0278760Y0203340D01*
X0279411Y0203071D01*
X0280116Y0203071D01*
X0280767Y0203340D01*
X0281266Y0203839D01*
X0281535Y0204490D01*
X0281535Y0204677D01*
X0281695Y0204783D01*
X0282399Y0204783D01*
X0283051Y0205053D01*
X0283549Y0205551D01*
X0283819Y0206203D01*
X0283819Y0206907D01*
X0283549Y0207558D01*
X0283051Y0208057D01*
X0282399Y0208327D01*
D02*
G37*
G36*
X0271848Y0202677D02*
X0271144Y0202677D01*
X0270492Y0202407D01*
X0270435Y0202350D01*
X0269921Y0201964D01*
X0269407Y0202350D01*
X0269350Y0202407D01*
X0268699Y0202677D01*
X0267994Y0202677D01*
X0267343Y0202407D01*
X0266844Y0201909D01*
X0266575Y0201258D01*
X0266575Y0200553D01*
X0266844Y0199902D01*
X0267343Y0199403D01*
X0267994Y0199134D01*
X0268699Y0199134D01*
X0269350Y0199403D01*
X0269407Y0199460D01*
X0269921Y0199847D01*
X0270435Y0199460D01*
X0270492Y0199403D01*
X0271144Y0199134D01*
X0271848Y0199134D01*
X0272499Y0199403D01*
X0272998Y0199902D01*
X0273268Y0200553D01*
X0273268Y0201258D01*
X0272998Y0201909D01*
X0272499Y0202407D01*
X0271848Y0202677D01*
D02*
G37*
G36*
X0264762Y0175511D02*
X0264057Y0175511D01*
X0263406Y0175242D01*
X0262907Y0174743D01*
X0262638Y0174092D01*
X0262638Y0173387D01*
X0262907Y0172736D01*
X0263406Y0172238D01*
X0264057Y0171968D01*
X0264762Y0171968D01*
X0265413Y0172238D01*
X0265911Y0172736D01*
X0266181Y0173387D01*
X0266181Y0174092D01*
X0265911Y0174743D01*
X0265413Y0175242D01*
X0264762Y0175511D01*
D02*
G37*
G36*
X0232872Y0125118D02*
X0232167Y0125118D01*
X0231516Y0124848D01*
X0231018Y0124350D01*
X0230748Y0123699D01*
X0230748Y0122994D01*
X0231018Y0122343D01*
X0231516Y0121844D01*
X0232167Y0121575D01*
X0232872Y0121575D01*
X0233523Y0121844D01*
X0234021Y0122343D01*
X0234291Y0122994D01*
X0234291Y0123699D01*
X0234021Y0124350D01*
X0233523Y0124848D01*
X0232872Y0125118D01*
D02*
G37*
G36*
X0315943Y0114882D02*
X0315238Y0114882D01*
X0314587Y0114612D01*
X0314088Y0114114D01*
X0313819Y0113462D01*
X0313819Y0112758D01*
X0314088Y0112106D01*
X0314587Y0111608D01*
X0314738Y0111546D01*
X0315191Y0111049D01*
X0315119Y0110600D01*
X0315000Y0110313D01*
X0315000Y0109608D01*
X0315270Y0108957D01*
X0315768Y0108458D01*
X0316029Y0108351D01*
X0316057Y0108208D01*
X0315787Y0107557D01*
X0315787Y0106852D01*
X0316057Y0106201D01*
X0316555Y0105703D01*
X0317206Y0105433D01*
X0317911Y0105433D01*
X0318562Y0105703D01*
X0319061Y0106201D01*
X0319330Y0106852D01*
X0319330Y0107557D01*
X0319061Y0108208D01*
X0318562Y0108706D01*
X0318302Y0108814D01*
X0318273Y0108957D01*
X0318543Y0109608D01*
X0318543Y0110313D01*
X0318273Y0110964D01*
X0317775Y0111462D01*
X0317624Y0111525D01*
X0317170Y0112021D01*
X0317243Y0112470D01*
X0317362Y0112758D01*
X0317362Y0113462D01*
X0317092Y0114114D01*
X0316594Y0114612D01*
X0315943Y0114882D01*
D02*
G37*
G36*
X0260628Y0132401D02*
X0259923Y0132401D01*
X0259272Y0132132D01*
X0258774Y0131633D01*
X0258504Y0130982D01*
X0258504Y0130277D01*
X0258774Y0129626D01*
X0259272Y0129128D01*
X0259923Y0128858D01*
X0260628Y0128858D01*
X0261279Y0129128D01*
X0261777Y0129626D01*
X0262047Y0130277D01*
X0262047Y0130982D01*
X0261777Y0131633D01*
X0261279Y0132132D01*
X0260628Y0132401D01*
D02*
G37*
G36*
X0261218Y0125118D02*
X0260514Y0125118D01*
X0259862Y0124848D01*
X0259364Y0124350D01*
X0259094Y0123699D01*
X0259094Y0122994D01*
X0259364Y0122343D01*
X0259862Y0121844D01*
X0260514Y0121575D01*
X0261218Y0121575D01*
X0261869Y0121844D01*
X0262368Y0122343D01*
X0262638Y0122994D01*
X0262638Y0123699D01*
X0262368Y0124350D01*
X0261869Y0124848D01*
X0261218Y0125118D01*
D02*
G37*
G36*
X0278148Y0125118D02*
X0277443Y0125118D01*
X0276791Y0124848D01*
X0276293Y0124350D01*
X0276023Y0123699D01*
X0276023Y0122994D01*
X0276293Y0122343D01*
X0276791Y0121844D01*
X0277443Y0121575D01*
X0278148Y0121575D01*
X0278799Y0121844D01*
X0279297Y0122343D01*
X0279567Y0122994D01*
X0279567Y0123699D01*
X0279297Y0124350D01*
X0278799Y0124848D01*
X0278148Y0125118D01*
D02*
G37*
G36*
X0248472Y0116653D02*
X0247767Y0116653D01*
X0247116Y0116383D01*
X0246618Y0115885D01*
X0246348Y0115234D01*
X0246348Y0114529D01*
X0246618Y0113878D01*
X0247116Y0113380D01*
X0247767Y0113110D01*
X0248472Y0113110D01*
X0249123Y0113380D01*
X0249622Y0113878D01*
X0249892Y0114529D01*
X0249892Y0115234D01*
X0249622Y0115885D01*
X0249123Y0116383D01*
X0248472Y0116653D01*
D02*
G37*
%LPD*%
D33*
X0233376Y0199429D02*
X0238550Y0199429D01*
X0220580Y0212224D02*
X0233376Y0199429D01*
X0166360Y0191950D02*
X0166611Y0191698D01*
X0165097Y0191950D02*
X0166360Y0191950D01*
X0155354Y0201693D02*
X0165097Y0191950D01*
X0187867Y0189882D02*
X0188031Y0189882D01*
X0185716Y0192032D02*
X0187867Y0189882D01*
X0185716Y0192032D02*
X0185716Y0201022D01*
X0170370Y0104750D02*
X0170370Y0105783D01*
X0180157Y0115571D01*
X0170069Y0104449D02*
X0170370Y0104750D01*
X0185716Y0201022D02*
X0187077Y0202382D01*
X0187734Y0202382D02*
X0191673Y0206320D01*
X0185121Y0218032D02*
X0185121Y0223617D01*
X0210403Y0214783D02*
X0215325Y0214783D01*
X0194626Y0216978D02*
X0198489Y0213115D01*
X0187077Y0202382D02*
X0187734Y0202382D01*
X0191673Y0206320D02*
X0191673Y0211479D01*
X0202190Y0226560D02*
X0202190Y0229631D01*
X0194626Y0218996D02*
X0202190Y0226560D01*
X0194626Y0216978D02*
X0194626Y0218996D01*
X0202190Y0229631D02*
X0202401Y0229842D01*
X0208736Y0213115D02*
X0210403Y0214783D01*
X0198489Y0213115D02*
X0208736Y0213115D01*
X0215325Y0214783D02*
X0217884Y0212224D01*
X0220580Y0212224D01*
X0261335Y0194716D02*
X0267952Y0188099D01*
X0227432Y0163629D02*
X0253303Y0189500D01*
X0266742Y0183331D02*
X0267952Y0184541D01*
X0267952Y0188099D01*
X0255830Y0189500D02*
X0257618Y0187712D01*
X0261061Y0183331D02*
X0266742Y0183331D01*
X0257618Y0186773D02*
X0261061Y0183331D01*
X0238550Y0199429D02*
X0243262Y0194716D01*
X0253303Y0189500D02*
X0255830Y0189500D01*
X0257618Y0186773D02*
X0257618Y0187712D01*
X0243262Y0194716D02*
X0261335Y0194716D01*
X0227432Y0160157D02*
X0227432Y0163629D01*
X0185121Y0218032D02*
X0191673Y0211479D01*
D35*
X0166575Y0152283D02*
X0166575Y0152390D01*
X0167371Y0153186D01*
X0161260Y0113397D02*
X0161555Y0113102D01*
X0161260Y0113397D02*
X0161260Y0113504D01*
X0164016Y0089882D02*
X0164122Y0089882D01*
X0164811Y0090571D01*
X0167944Y0090571D01*
X0168558Y0089957D01*
X0168633Y0089957D01*
X0169535Y0090571D02*
X0172669Y0090571D01*
X0173282Y0089957D01*
X0173358Y0089957D01*
X0174260Y0090571D02*
X0177393Y0090571D01*
X0178007Y0089957D01*
X0178082Y0089957D01*
X0178984Y0090571D02*
X0182118Y0090571D01*
X0182731Y0089957D01*
X0182807Y0089957D01*
X0183709Y0090571D02*
X0186842Y0090571D01*
X0187456Y0089957D01*
X0187531Y0089957D01*
X0188433Y0090571D02*
X0191567Y0090571D01*
X0192180Y0089957D01*
X0192256Y0089957D01*
X0193158Y0090571D02*
X0196291Y0090571D01*
X0196904Y0089957D01*
X0196980Y0089957D01*
X0197882Y0090571D02*
X0201015Y0090571D01*
X0201629Y0089957D01*
X0201704Y0089957D01*
X0202606Y0090571D02*
X0205740Y0090571D01*
X0206353Y0089957D01*
X0206429Y0089957D01*
X0207331Y0090571D02*
X0210464Y0090571D01*
X0211078Y0089957D01*
X0211153Y0089957D01*
X0212055Y0090571D02*
X0215188Y0090571D01*
X0215802Y0089957D01*
X0215877Y0089957D01*
X0216780Y0090571D02*
X0219913Y0090571D01*
X0220527Y0089957D01*
X0220602Y0089957D01*
X0221504Y0090571D02*
X0224637Y0090571D01*
X0225251Y0089957D01*
X0225326Y0089957D01*
X0226228Y0090571D02*
X0229362Y0090571D01*
X0229975Y0089957D01*
X0230051Y0089957D01*
X0230953Y0090571D02*
X0234086Y0090571D01*
X0234700Y0089957D01*
X0234775Y0089957D01*
X0235677Y0090571D02*
X0238811Y0090571D01*
X0239424Y0089957D01*
X0239500Y0089957D01*
X0240402Y0090571D02*
X0243535Y0090571D01*
X0244149Y0089957D01*
X0244224Y0089957D01*
X0245126Y0090571D02*
X0248259Y0090571D01*
X0248873Y0089957D01*
X0248948Y0089957D01*
X0249851Y0090571D02*
X0252984Y0090571D01*
X0253597Y0089957D01*
X0253673Y0089957D01*
X0254575Y0090571D02*
X0257708Y0090571D01*
X0258322Y0089957D01*
X0258397Y0089957D01*
X0259299Y0090571D02*
X0262433Y0090571D01*
X0263046Y0089957D01*
X0263122Y0089957D01*
X0264024Y0090571D02*
X0267157Y0090571D01*
X0267771Y0089957D01*
X0267846Y0089957D01*
X0268748Y0090571D02*
X0271882Y0090571D01*
X0272495Y0089957D01*
X0272570Y0089957D01*
X0273472Y0090571D02*
X0276606Y0090571D01*
X0277220Y0089957D01*
X0277295Y0089957D01*
X0278197Y0090571D02*
X0281330Y0090571D01*
X0281944Y0089957D01*
X0282019Y0089957D01*
X0282921Y0090571D02*
X0286055Y0090571D01*
X0286668Y0089957D01*
X0286744Y0089957D01*
X0287646Y0090571D02*
X0290779Y0090571D01*
X0291468Y0089882D01*
X0291575Y0089882D01*
X0294874Y0093180D01*
X0294874Y0094292D01*
X0298044Y0097462D01*
X0294800Y0105161D02*
X0298044Y0101916D01*
X0298044Y0097462D02*
X0298044Y0101916D01*
X0319527Y0096556D02*
X0319527Y0096575D01*
X0317189Y0094218D02*
X0319527Y0096556D01*
X0301288Y0094218D02*
X0317189Y0094218D01*
X0298044Y0097462D02*
X0301288Y0094218D01*
X0173464Y0090063D02*
X0173571Y0089957D01*
X0235064Y0089957D02*
X0235677Y0090571D01*
X0263122Y0089957D02*
X0263228Y0090063D01*
X0187638Y0090063D02*
X0187744Y0089957D01*
X0164016Y0090571D02*
X0164016Y0095787D01*
X0201917Y0089957D02*
X0201993Y0089957D01*
X0187820Y0089957D02*
X0188433Y0090571D01*
X0201704Y0089957D02*
X0201811Y0090063D01*
X0178371Y0089957D02*
X0178984Y0090571D01*
X0239500Y0089957D02*
X0239606Y0090063D01*
X0173571Y0089957D02*
X0173646Y0089957D01*
X0178189Y0090063D02*
X0178295Y0089957D01*
X0272570Y0089957D02*
X0272677Y0090063D01*
X0192469Y0089957D02*
X0192544Y0089957D01*
X0192362Y0090063D02*
X0192469Y0089957D01*
X0178295Y0089957D02*
X0178371Y0089957D01*
X0282126Y0090063D02*
X0282232Y0089957D01*
X0168922Y0089957D02*
X0169535Y0090571D01*
X0160275Y0105397D02*
X0161555Y0106677D01*
X0239788Y0089957D02*
X0240402Y0090571D01*
X0183020Y0089957D02*
X0183095Y0089957D01*
X0182807Y0089957D02*
X0182913Y0090063D01*
X0277401Y0090063D02*
X0277508Y0089957D01*
X0258397Y0089957D02*
X0258504Y0090063D01*
X0258610Y0089957D02*
X0258686Y0089957D01*
X0160275Y0099527D02*
X0164016Y0095787D01*
X0182913Y0090063D02*
X0183020Y0089957D01*
X0168846Y0089957D02*
X0168922Y0089957D01*
X0286744Y0089957D02*
X0286850Y0090063D01*
X0201993Y0089957D02*
X0202606Y0090571D01*
X0282019Y0089957D02*
X0282126Y0090063D01*
X0282232Y0089957D02*
X0282308Y0089957D01*
X0272859Y0089957D02*
X0273472Y0090571D01*
X0168633Y0089957D02*
X0168740Y0090063D01*
X0253961Y0089957D02*
X0254575Y0090571D01*
X0225433Y0090063D02*
X0225539Y0089957D01*
X0215877Y0089957D02*
X0215984Y0090063D01*
X0173646Y0089957D02*
X0174260Y0090571D01*
X0168740Y0090063D02*
X0168846Y0089957D01*
X0234882Y0090063D02*
X0234988Y0089957D01*
X0216091Y0089957D02*
X0216166Y0089957D01*
X0187531Y0089957D02*
X0187638Y0090063D01*
X0258504Y0090063D02*
X0258610Y0089957D01*
X0187744Y0089957D02*
X0187820Y0089957D01*
X0253779Y0090063D02*
X0253886Y0089957D01*
X0183095Y0089957D02*
X0183709Y0090571D01*
X0173358Y0089957D02*
X0173464Y0090063D01*
X0244512Y0089957D02*
X0245126Y0090571D01*
X0178082Y0089957D02*
X0178189Y0090063D01*
X0161555Y0106677D02*
X0161555Y0113102D01*
X0258686Y0089957D02*
X0259299Y0090571D01*
X0160275Y0099527D02*
X0160275Y0105397D01*
X0272784Y0089957D02*
X0272859Y0089957D01*
X0216166Y0089957D02*
X0216780Y0090571D01*
X0192256Y0089957D02*
X0192362Y0090063D01*
X0272677Y0090063D02*
X0272784Y0089957D01*
X0192544Y0089957D02*
X0193158Y0090571D01*
X0267953Y0090063D02*
X0268059Y0089957D01*
X0234988Y0089957D02*
X0235064Y0089957D01*
X0197268Y0089957D02*
X0197882Y0090571D01*
X0197086Y0090063D02*
X0197193Y0089957D01*
X0197268Y0089957D01*
X0277583Y0089957D02*
X0278197Y0090571D01*
X0196980Y0089957D02*
X0197086Y0090063D01*
X0287032Y0089957D02*
X0287646Y0090571D01*
X0201811Y0090063D02*
X0201917Y0089957D01*
X0239606Y0090063D02*
X0239713Y0089957D01*
X0249055Y0090063D02*
X0249162Y0089957D01*
X0206429Y0089957D02*
X0206535Y0090063D01*
X0206642Y0089957D02*
X0206717Y0089957D01*
X0230051Y0089957D02*
X0230157Y0090063D01*
X0220890Y0089957D02*
X0221504Y0090571D01*
X0206535Y0090063D02*
X0206642Y0089957D01*
X0206717Y0089957D02*
X0207331Y0090571D01*
X0211260Y0090063D02*
X0211366Y0089957D01*
X0211442Y0089957D02*
X0212055Y0090571D01*
X0211366Y0089957D02*
X0211442Y0089957D01*
X0263228Y0090063D02*
X0263335Y0089957D01*
X0211153Y0089957D02*
X0211260Y0090063D01*
X0249162Y0089957D02*
X0249237Y0089957D01*
X0215984Y0090063D02*
X0216091Y0089957D01*
X0220602Y0089957D02*
X0220709Y0090063D01*
X0230157Y0090063D02*
X0230264Y0089957D01*
X0220815Y0089957D02*
X0220890Y0089957D01*
X0249237Y0089957D02*
X0249851Y0090571D01*
X0225326Y0089957D02*
X0225433Y0090063D01*
X0220709Y0090063D02*
X0220815Y0089957D01*
X0244224Y0089957D02*
X0244331Y0090063D01*
X0225539Y0089957D02*
X0225615Y0089957D01*
X0226228Y0090571D01*
X0230264Y0089957D02*
X0230339Y0089957D01*
X0230953Y0090571D01*
X0234775Y0089957D02*
X0234882Y0090063D01*
X0239713Y0089957D02*
X0239788Y0089957D01*
X0244437Y0089957D02*
X0244512Y0089957D01*
X0253886Y0089957D02*
X0253961Y0089957D01*
X0244331Y0090063D02*
X0244437Y0089957D01*
X0248948Y0089957D02*
X0249055Y0090063D01*
X0253673Y0089957D02*
X0253779Y0090063D01*
X0263335Y0089957D02*
X0263410Y0089957D01*
X0264024Y0090571D01*
X0268059Y0089957D02*
X0268134Y0089957D01*
X0268748Y0090571D01*
X0286957Y0089957D02*
X0287032Y0089957D01*
X0267846Y0089957D02*
X0267953Y0090063D01*
X0277508Y0089957D02*
X0277583Y0089957D01*
X0277295Y0089957D02*
X0277401Y0090063D01*
X0282308Y0089957D02*
X0282921Y0090571D01*
X0286850Y0090063D02*
X0286957Y0089957D01*
X0171890Y0200512D02*
X0176516Y0195886D01*
X0167371Y0182197D02*
X0176516Y0191342D01*
X0176516Y0195886D01*
X0167371Y0153186D02*
X0167371Y0182197D01*
X0300195Y0208527D02*
X0305701Y0214033D01*
X0300195Y0200777D02*
X0300195Y0208527D01*
X0305775Y0195197D02*
X0310866Y0195197D01*
X0300195Y0200777D02*
X0305775Y0195197D01*
D16*
X0154567Y0114291D02*
D03*
D15*
X0154567Y0091260D02*
D03*
D18*
X0154567Y0138700D02*
D03*
D25*
X0320315Y0090669D02*
D03*
D20*
X0167165Y0244212D02*
D03*
D21*
X0200630Y0244212D02*
D03*
D22*
X0239409Y0244212D02*
D03*
D24*
X0320315Y0112913D02*
D03*
D23*
X0320315Y0238307D02*
D03*
D19*
X0161653Y0087126D02*
D03*
D17*
X0154567Y0224527D02*
D03*
D61*
X0179567Y0151275D02*
X0179567Y0154311D01*
X0181415Y0156159D01*
X0179567Y0151275D02*
X0180232Y0150609D01*
X0213128Y0183378D02*
X0213128Y0193042D01*
X0208415Y0197756D02*
X0213128Y0193042D01*
X0209734Y0179984D02*
X0213128Y0183378D01*
X0217005Y0188896D02*
X0219188Y0191078D01*
X0217990Y0178502D02*
X0219527Y0180039D01*
X0217990Y0163988D02*
X0217990Y0178502D01*
X0217005Y0163581D02*
X0219084Y0161502D01*
X0217005Y0163581D02*
X0217005Y0188896D01*
X0217990Y0163988D02*
X0220069Y0161909D01*
X0224645Y0214942D02*
X0224645Y0217380D01*
X0231878Y0206271D02*
X0231878Y0207710D01*
X0224645Y0214942D02*
X0231878Y0207710D01*
X0191722Y0185923D02*
X0191722Y0186710D01*
X0191722Y0186711D01*
X0190738Y0186331D02*
X0190738Y0187118D01*
X0190640Y0186232D02*
X0190738Y0186331D01*
X0191722Y0203301D02*
X0194831Y0206409D01*
X0190640Y0177923D02*
X0190640Y0186232D01*
X0190738Y0187118D02*
X0190738Y0187118D01*
X0191624Y0173395D02*
X0191624Y0185825D01*
X0191722Y0185923D01*
X0158553Y0108336D02*
X0158897Y0108681D01*
X0238519Y0097736D02*
X0244626Y0103842D01*
X0190128Y0106152D02*
X0199055Y0115078D01*
X0190128Y0104384D02*
X0190128Y0106152D01*
X0186699Y0100954D02*
X0190128Y0104384D01*
X0168149Y0107787D02*
X0174449Y0114087D01*
X0174449Y0120696D01*
X0169542Y0125603D02*
X0174449Y0120696D01*
X0174726Y0147895D02*
X0174726Y0155334D01*
X0174726Y0147895D02*
X0179108Y0147895D01*
X0180232Y0149019D01*
X0185614Y0148149D02*
X0185669Y0148149D01*
X0183454Y0150309D02*
X0185614Y0148149D01*
X0197283Y0132795D02*
X0197283Y0137098D01*
X0191202Y0143179D02*
X0197283Y0137098D01*
X0184537Y0154931D02*
X0186646Y0157039D01*
X0211874Y0155472D02*
X0211874Y0155978D01*
X0212441Y0156544D01*
X0216821Y0127825D02*
X0218937Y0125708D01*
X0216821Y0127825D02*
X0216821Y0140311D01*
X0219084Y0149450D02*
X0219084Y0161502D01*
X0217805Y0139903D02*
X0219183Y0141281D01*
X0219183Y0148157D01*
X0220069Y0149043D01*
X0220069Y0161909D01*
X0218360Y0121982D02*
X0220856Y0124478D01*
X0220856Y0132803D01*
X0218789Y0134870D02*
X0220856Y0132803D01*
X0218789Y0134870D02*
X0218789Y0139495D01*
X0229124Y0132155D02*
X0229134Y0132166D01*
X0222086Y0150572D02*
X0224038Y0148620D01*
X0229173Y0129281D02*
X0229203Y0129281D01*
X0231043Y0131122D01*
X0231043Y0143551D01*
X0243543Y0146968D02*
X0243543Y0147419D01*
X0242411Y0148551D02*
X0243543Y0147419D01*
X0242411Y0148551D02*
X0242411Y0156559D01*
X0243592Y0157740D01*
X0270069Y0148031D02*
X0275580Y0142519D01*
X0269970Y0150913D02*
X0272776Y0153718D01*
X0252598Y0134763D02*
X0252746Y0134911D01*
X0252746Y0145189D01*
X0254911Y0147354D01*
X0254911Y0162882D01*
X0254510Y0145561D02*
X0255896Y0146947D01*
X0267165Y0147756D02*
X0267165Y0148220D01*
X0268986Y0150041D01*
X0268986Y0151321D01*
X0271791Y0154126D01*
X0267165Y0147756D02*
X0274596Y0140325D01*
X0274596Y0134673D02*
X0274596Y0140325D01*
X0272874Y0132950D02*
X0274596Y0134673D01*
X0272874Y0122432D02*
X0272874Y0132950D01*
X0272874Y0122432D02*
X0274990Y0120316D01*
X0274990Y0108167D02*
X0274990Y0120316D01*
X0271545Y0104722D02*
X0274990Y0108167D01*
X0271545Y0102079D02*
X0271545Y0104722D01*
X0271545Y0102079D02*
X0272669Y0100954D01*
X0287728Y0100954D01*
X0293929Y0107155D01*
X0306051Y0107155D01*
X0308061Y0109165D01*
X0278582Y0147756D02*
X0281191Y0145147D01*
X0281191Y0129244D02*
X0281191Y0145147D01*
X0281191Y0129244D02*
X0286646Y0123789D01*
X0288236Y0123789D01*
X0289360Y0124913D01*
X0289360Y0132803D01*
X0287293Y0134870D02*
X0289360Y0132803D01*
X0287293Y0134870D02*
X0287293Y0139495D01*
X0288447Y0140649D01*
X0298584Y0140649D01*
X0300290Y0138943D01*
X0300290Y0134687D02*
X0300290Y0138943D01*
X0299695Y0134091D02*
X0300290Y0134687D01*
X0299695Y0129835D02*
X0299695Y0134091D01*
X0285029Y0128120D02*
X0287441Y0125708D01*
X0285029Y0128120D02*
X0285029Y0142645D01*
X0284821Y0142854D02*
X0285029Y0142645D01*
X0284821Y0142854D02*
X0284821Y0147373D01*
X0285718Y0148270D01*
X0285718Y0154246D01*
X0281486Y0158478D02*
X0285718Y0154246D01*
X0287441Y0132008D02*
X0287441Y0132458D01*
X0286309Y0133590D02*
X0287441Y0132458D01*
X0286309Y0133590D02*
X0286309Y0139903D01*
X0293297Y0146553D02*
X0293297Y0148958D01*
X0288840Y0153415D02*
X0293297Y0148958D01*
X0287941Y0153415D02*
X0288840Y0153415D01*
X0282470Y0158886D02*
X0287941Y0153415D01*
X0293842Y0155384D02*
X0296714Y0155384D01*
X0292858Y0154399D02*
X0293842Y0155384D01*
X0288349Y0154399D02*
X0292858Y0154399D01*
X0283454Y0159294D02*
X0288349Y0154399D01*
X0294537Y0160868D02*
X0294679Y0160725D01*
X0294537Y0160868D02*
X0294537Y0162313D01*
X0300562Y0160028D02*
X0300630Y0159960D01*
X0300562Y0160028D02*
X0300562Y0161733D01*
X0317313Y0131466D02*
X0319527Y0129252D01*
X0299498Y0145321D02*
X0305750Y0139069D01*
X0307290Y0154087D02*
X0319527Y0141850D01*
X0307290Y0154087D02*
X0307290Y0160345D01*
X0308275Y0156252D02*
X0319527Y0145000D01*
X0308275Y0156252D02*
X0308275Y0160790D01*
X0310352Y0147876D02*
X0319527Y0138700D01*
X0304553Y0147876D02*
X0310352Y0147876D01*
X0310260Y0144819D02*
X0319527Y0135551D01*
X0304748Y0144819D02*
X0310260Y0144819D01*
X0301417Y0148149D02*
X0304748Y0144819D01*
X0309029Y0142899D02*
X0319527Y0132401D01*
X0304634Y0142899D02*
X0309029Y0142899D01*
X0255494Y0138707D02*
X0255502Y0138700D01*
X0255494Y0138707D02*
X0255494Y0144353D01*
X0258504Y0147362D01*
X0267165Y0104449D02*
X0272086Y0109370D01*
X0272086Y0115866D01*
X0184882Y0107649D02*
X0187780Y0104750D01*
X0184882Y0107649D02*
X0184882Y0115571D01*
X0195512Y0115472D02*
X0195512Y0118073D01*
X0182126Y0102874D02*
X0182126Y0115529D01*
X0184882Y0118285D01*
X0184882Y0125708D01*
X0243543Y0138701D02*
X0245856Y0141014D01*
X0250637Y0141014D01*
X0251762Y0139889D01*
X0251762Y0136641D02*
X0251762Y0139889D01*
X0250679Y0135559D02*
X0251762Y0136641D01*
X0246545Y0103653D02*
X0247669Y0102529D01*
X0229812Y0104748D02*
X0229812Y0109643D01*
X0249695Y0129525D01*
X0249695Y0138947D01*
X0249842Y0139094D01*
X0242533Y0110380D02*
X0248464Y0104449D01*
X0242533Y0110380D02*
X0242533Y0115717D01*
X0236752Y0100807D02*
X0238819Y0102874D01*
X0227401Y0100807D02*
X0236752Y0100807D01*
X0241624Y0141506D02*
X0248268Y0148149D01*
X0241624Y0134870D02*
X0241624Y0141506D01*
X0241624Y0134870D02*
X0243691Y0132803D01*
X0243691Y0124913D02*
X0243691Y0132803D01*
X0227401Y0108624D02*
X0243691Y0124913D01*
X0227401Y0100807D02*
X0227401Y0108624D01*
X0264606Y0125708D02*
X0266525Y0127628D01*
X0260212Y0142657D02*
X0260212Y0146466D01*
X0260632Y0146887D01*
X0260632Y0149724D01*
X0241772Y0132008D02*
X0241772Y0132458D01*
X0240639Y0133590D02*
X0241772Y0132458D01*
X0240639Y0133590D02*
X0240639Y0156996D01*
X0241279Y0157635D01*
X0241279Y0158141D01*
X0192048Y0104750D02*
X0196109Y0100689D01*
X0211091Y0100689D01*
X0214212Y0103810D01*
X0214212Y0118120D01*
X0213890Y0118442D02*
X0214212Y0118120D01*
X0224449Y0136086D02*
X0227215Y0138853D01*
X0219391Y0121621D02*
X0221840Y0124070D01*
X0203582Y0132795D02*
X0207913Y0132795D01*
X0217165Y0142047D01*
X0217165Y0155630D01*
X0197874Y0102874D02*
X0199793Y0104793D01*
X0203781Y0104793D01*
X0205917Y0102657D01*
X0210275Y0102657D01*
X0212244Y0104626D01*
X0212244Y0115677D01*
X0201023Y0102874D02*
X0201336Y0102874D01*
X0202537Y0101673D01*
X0210683Y0101673D01*
X0213228Y0104218D01*
X0200679Y0130736D02*
X0200679Y0135755D01*
X0206630Y0141707D01*
X0203355Y0130308D02*
X0207613Y0130308D01*
X0201663Y0132000D02*
X0203355Y0130308D01*
X0201663Y0132000D02*
X0201663Y0133590D01*
X0203230Y0135157D01*
X0207060Y0135157D01*
X0201958Y0112268D02*
X0209565Y0104661D01*
X0201958Y0112268D02*
X0201958Y0122111D01*
X0200129Y0123941D02*
X0201958Y0122111D01*
X0200129Y0123941D02*
X0200129Y0124676D01*
X0190692Y0134113D02*
X0200129Y0124676D01*
X0190692Y0134113D02*
X0190692Y0134513D01*
X0207060Y0135157D02*
X0207060Y0135583D01*
X0208681Y0137204D01*
X0208681Y0142371D01*
X0207425Y0143626D02*
X0208681Y0142371D01*
X0198120Y0142236D02*
X0199244Y0141112D01*
X0198120Y0142236D02*
X0198120Y0143826D01*
X0174160Y0133046D02*
X0174160Y0141556D01*
X0181535Y0148930D01*
X0181535Y0153267D01*
X0173427Y0125326D02*
X0173427Y0128207D01*
X0177064Y0131844D01*
X0177064Y0133540D01*
X0178681Y0135157D01*
X0200974Y0110314D02*
X0206712Y0104576D01*
X0200974Y0110314D02*
X0200974Y0118039D01*
X0195224Y0123789D02*
X0200974Y0118039D01*
X0194066Y0123789D02*
X0195224Y0123789D01*
X0187375Y0130480D02*
X0194066Y0123789D01*
X0187375Y0130480D02*
X0187375Y0137651D01*
X0190000Y0140275D01*
X0195067Y0144143D02*
X0195067Y0146482D01*
X0162736Y0135157D02*
X0166766Y0131127D01*
X0174955Y0131127D01*
X0176080Y0132252D01*
X0176080Y0141075D01*
X0177886Y0142881D01*
X0190795Y0142195D02*
X0191919Y0141070D01*
X0191919Y0138454D02*
X0191919Y0141070D01*
X0188359Y0134895D02*
X0191919Y0138454D01*
X0188359Y0130888D02*
X0188359Y0134895D01*
X0188359Y0130888D02*
X0193539Y0125708D01*
X0195512Y0125708D01*
X0276614Y0102874D02*
X0276958Y0102529D01*
X0286858Y0102529D01*
X0295512Y0111183D01*
X0295512Y0138701D01*
X0282913Y0104449D02*
X0282913Y0109165D01*
X0290344Y0116596D01*
X0290344Y0137118D01*
X0289212Y0138250D02*
X0290344Y0137118D01*
X0289212Y0138250D02*
X0289212Y0138701D01*
X0274842Y0129252D02*
X0276712Y0131122D01*
X0276712Y0142779D01*
X0275039Y0144452D02*
X0276712Y0142779D01*
X0275039Y0144452D02*
X0275039Y0149331D01*
X0257716Y0102874D02*
X0258061Y0102529D01*
X0267960Y0102529D01*
X0274006Y0108575D01*
X0274006Y0119908D01*
X0271890Y0122024D02*
X0274006Y0119908D01*
X0264016Y0104449D02*
X0268937Y0109370D01*
X0268937Y0136141D01*
X0266378Y0138701D02*
X0268937Y0136141D01*
X0302628Y0122195D02*
X0304385Y0120439D01*
X0304385Y0111717D02*
X0304385Y0120439D01*
X0304385Y0111717D02*
X0306142Y0109960D01*
X0160817Y0145499D02*
X0162236Y0146919D01*
X0237716Y0098720D02*
X0241144Y0102148D01*
X0167165Y0116028D02*
X0167404Y0116267D01*
X0252598Y0131614D02*
X0254510Y0133526D01*
X0165197Y0101862D02*
X0165197Y0113985D01*
X0218149Y0148515D02*
X0219084Y0149450D01*
X0263975Y0135353D02*
X0263975Y0143827D01*
X0187918Y0157039D02*
X0192758Y0161880D01*
X0156634Y0140876D02*
X0156634Y0141361D01*
X0165257Y0116535D02*
X0165257Y0116834D01*
X0165829Y0143622D02*
X0170102Y0147895D01*
X0164016Y0120790D02*
X0164016Y0124724D01*
X0200679Y0130736D02*
X0211971Y0119444D01*
X0184537Y0152824D02*
X0187588Y0149773D01*
X0207691Y0118295D02*
X0209625Y0118295D01*
X0181142Y0132443D02*
X0181142Y0138501D01*
X0157372Y0127534D02*
X0157372Y0140137D01*
X0160817Y0134362D02*
X0160817Y0145499D01*
X0192758Y0161880D02*
X0197571Y0161880D01*
X0241144Y0102148D02*
X0241144Y0103075D01*
X0170102Y0147895D02*
X0174726Y0147895D01*
X0181142Y0132443D02*
X0195512Y0118073D01*
X0217805Y0133182D02*
X0218926Y0132062D01*
X0158553Y0096528D02*
X0161262Y0093819D01*
X0254518Y0133968D02*
X0254518Y0137742D01*
X0217805Y0133182D02*
X0217805Y0139903D01*
X0166181Y0102269D02*
X0166181Y0115611D01*
X0221053Y0150213D02*
X0223053Y0148213D01*
X0272677Y0134145D02*
X0272677Y0138701D01*
X0255494Y0133553D02*
X0255502Y0133561D01*
X0158553Y0096528D02*
X0158553Y0108336D01*
X0157372Y0127534D02*
X0159636Y0125270D01*
X0247669Y0102529D02*
X0251270Y0102529D01*
X0167404Y0116267D02*
X0167404Y0117402D01*
X0209625Y0118295D02*
X0212244Y0115677D01*
X0169322Y0097736D02*
X0238519Y0097736D01*
X0168149Y0103112D02*
X0170307Y0100954D01*
X0216821Y0140311D02*
X0218149Y0141640D01*
X0266525Y0127628D02*
X0266525Y0132803D01*
X0189905Y0143179D02*
X0191202Y0143179D01*
X0165197Y0101862D02*
X0169322Y0097736D01*
X0252401Y0103661D02*
X0252401Y0126342D01*
X0180232Y0149019D02*
X0180232Y0150609D01*
X0167165Y0102677D02*
X0167165Y0116028D01*
X0211971Y0117342D02*
X0211971Y0119444D01*
X0187588Y0145495D02*
X0187588Y0149773D01*
X0205072Y0120914D02*
X0205072Y0121712D01*
X0178681Y0140961D02*
X0181142Y0138501D01*
X0159636Y0119546D02*
X0165197Y0113985D01*
X0170307Y0100954D02*
X0186699Y0100954D01*
X0260212Y0142657D02*
X0262991Y0139877D01*
X0187588Y0145495D02*
X0189905Y0143179D01*
X0218926Y0132019D02*
X0218926Y0132062D01*
X0199244Y0141112D02*
X0202078Y0141112D01*
X0246545Y0103653D02*
X0246545Y0104825D01*
X0164016Y0120790D02*
X0166052Y0118753D01*
X0165257Y0116535D02*
X0166181Y0115611D01*
X0166052Y0118753D02*
X0166052Y0118753D01*
X0254510Y0133526D02*
X0254510Y0133961D01*
X0160817Y0134362D02*
X0169542Y0125637D01*
X0218149Y0141640D02*
X0218149Y0148515D01*
X0262131Y0145671D02*
X0263975Y0143827D01*
X0184537Y0152824D02*
X0184537Y0154931D01*
X0169730Y0098720D02*
X0237716Y0098720D01*
X0166052Y0118753D02*
X0167404Y0117402D01*
X0263975Y0135353D02*
X0266525Y0132803D01*
X0168149Y0103112D02*
X0168149Y0107787D01*
X0241144Y0103075D02*
X0243925Y0105855D01*
X0216397Y0099704D02*
X0218360Y0101667D01*
X0225531Y0100807D02*
X0227401Y0100807D01*
X0166722Y0146919D02*
X0169093Y0149290D01*
X0166181Y0102269D02*
X0169730Y0098720D01*
X0170138Y0099704D02*
X0216397Y0099704D01*
X0198120Y0143826D02*
X0205199Y0150905D01*
X0221310Y0105028D02*
X0221310Y0116039D01*
X0169542Y0125603D02*
X0169542Y0125637D01*
X0262991Y0133623D02*
X0264606Y0132008D01*
X0186646Y0157039D02*
X0187918Y0157039D01*
X0165787Y0143622D02*
X0165829Y0143622D01*
X0243925Y0105855D02*
X0245515Y0105855D01*
X0223053Y0143760D02*
X0223053Y0148213D01*
X0262991Y0133623D02*
X0262991Y0139877D01*
X0254510Y0137749D02*
X0254518Y0137742D01*
X0224038Y0146574D02*
X0229134Y0141478D01*
X0229134Y0132166D02*
X0229134Y0141478D01*
X0219391Y0103910D02*
X0219391Y0121621D01*
X0278582Y0147756D02*
X0278582Y0150470D01*
X0224038Y0146574D02*
X0224038Y0148620D01*
X0214015Y0148937D02*
X0214015Y0149077D01*
X0227746Y0148425D02*
X0227746Y0151149D01*
X0206951Y0154301D02*
X0210396Y0150856D01*
X0227876Y0146718D02*
X0227876Y0148295D01*
X0212236Y0150856D02*
X0214015Y0149077D01*
X0227876Y0146718D02*
X0231043Y0143551D01*
X0193255Y0148068D02*
X0199488Y0154301D01*
X0239557Y0127923D02*
X0241772Y0125708D01*
X0239131Y0150093D02*
X0239557Y0149667D01*
X0239557Y0146029D02*
X0239557Y0149667D01*
X0197866Y0149281D02*
X0200227Y0149281D01*
X0201618Y0144611D02*
X0212605Y0144611D01*
X0299695Y0129835D02*
X0307577Y0121952D01*
X0275580Y0133449D02*
X0275580Y0142519D01*
X0195067Y0146482D02*
X0197866Y0149281D01*
X0200039Y0143031D02*
X0201618Y0144611D01*
X0307577Y0121952D02*
X0312626Y0121952D01*
X0269970Y0149225D02*
X0270069Y0149127D01*
X0200227Y0149281D02*
X0203130Y0152185D01*
X0213113Y0145119D02*
X0213619Y0145119D01*
X0278582Y0150470D02*
X0280502Y0152389D01*
X0274793Y0132155D02*
X0274793Y0132661D01*
X0212605Y0144611D02*
X0213113Y0145119D01*
X0319527Y0126102D02*
X0319527Y0126537D01*
X0270069Y0148031D02*
X0270069Y0149127D01*
X0296714Y0155384D02*
X0298415Y0153683D01*
X0269970Y0149225D02*
X0269970Y0150913D01*
X0304319Y0137716D02*
X0311021Y0137716D01*
X0274793Y0132661D02*
X0275580Y0133449D01*
X0298415Y0143620D02*
X0304319Y0137716D01*
X0207613Y0130308D02*
X0213671Y0124250D01*
X0221310Y0105028D02*
X0225531Y0100807D01*
X0216772Y0102978D02*
X0216772Y0118275D01*
X0221840Y0124070D02*
X0221840Y0133210D01*
X0307027Y0119023D02*
X0307027Y0119212D01*
X0220279Y0102647D02*
X0220279Y0103021D01*
X0307027Y0119023D02*
X0308061Y0117989D01*
X0220708Y0134342D02*
X0220708Y0138700D01*
X0308061Y0109165D02*
X0308061Y0117989D01*
X0219391Y0103910D02*
X0220279Y0103021D01*
X0312626Y0121952D02*
X0315859Y0118718D01*
X0220708Y0134342D02*
X0221840Y0133210D01*
X0289634Y0143228D02*
X0289972Y0143228D01*
X0293297Y0146553D01*
X0202319Y0124465D02*
X0205072Y0121712D01*
X0286309Y0139903D02*
X0289634Y0143228D01*
X0316328Y0129736D02*
X0319527Y0126537D01*
X0311021Y0137716D02*
X0316328Y0132409D01*
X0316328Y0129736D02*
X0316328Y0132409D01*
X0183997Y0142881D02*
X0184683Y0142195D01*
X0299498Y0154892D02*
X0302549Y0157943D01*
X0291968Y0110354D02*
X0291968Y0115472D01*
X0299498Y0145321D02*
X0299498Y0154892D01*
X0286063Y0104449D02*
X0291968Y0110354D01*
X0302549Y0157943D02*
X0302549Y0162372D01*
X0311060Y0139069D02*
X0317313Y0132817D01*
X0317313Y0131466D02*
X0317313Y0132817D01*
X0305750Y0139069D02*
X0311060Y0139069D01*
X0271890Y0122024D02*
X0271890Y0133358D01*
X0252697Y0128761D02*
X0255494Y0131559D01*
X0251270Y0102529D02*
X0252401Y0103661D01*
X0250679Y0128065D02*
X0250679Y0135559D01*
X0204592Y0143626D02*
X0207425Y0143626D01*
X0225391Y0104917D02*
X0225391Y0105423D01*
X0213671Y0121375D02*
X0216772Y0118275D01*
X0224449Y0106365D02*
X0224449Y0136086D01*
X0205199Y0150905D02*
X0206929Y0150905D01*
X0224449Y0106365D02*
X0225391Y0105423D01*
X0205072Y0120914D02*
X0207691Y0118295D01*
X0213228Y0104218D02*
X0213228Y0116084D01*
X0211971Y0117342D02*
X0213228Y0116084D01*
X0213671Y0121375D02*
X0213671Y0124250D01*
X0216441Y0102647D02*
X0216772Y0102978D01*
X0202078Y0141112D02*
X0204592Y0143626D01*
X0210396Y0150856D02*
X0212236Y0150856D01*
X0199488Y0154301D02*
X0206951Y0154301D01*
X0184683Y0142195D02*
X0190795Y0142195D01*
X0177886Y0142881D02*
X0183997Y0142881D01*
X0271890Y0133358D02*
X0272677Y0134145D01*
X0302628Y0122195D02*
X0302628Y0122195D01*
X0159636Y0119546D02*
X0159636Y0125270D01*
X0156634Y0140876D02*
X0157372Y0140137D01*
X0239655Y0140525D02*
X0239655Y0145931D01*
X0239557Y0146029D02*
X0239655Y0145931D01*
X0162236Y0146919D02*
X0166722Y0146919D01*
X0227746Y0148425D02*
X0227876Y0148295D01*
X0255494Y0131559D02*
X0255494Y0133553D01*
X0190611Y0147989D02*
X0190690Y0148068D01*
X0167165Y0102677D02*
X0170138Y0099704D01*
X0218360Y0101667D02*
X0218360Y0121982D01*
X0190690Y0148068D02*
X0193255Y0148068D01*
X0218789Y0139495D02*
X0223053Y0143760D01*
X0239557Y0140427D02*
X0239655Y0140525D01*
X0298415Y0143620D02*
X0298415Y0153683D01*
X0239557Y0127923D02*
X0239557Y0140427D01*
X0250679Y0128065D02*
X0252401Y0126342D01*
X0225512Y0153382D02*
X0227746Y0151149D01*
X0245515Y0105855D02*
X0246545Y0104825D01*
X0254510Y0137749D02*
X0254510Y0145561D01*
X0254510Y0133961D02*
X0254518Y0133968D01*
X0255502Y0133561D02*
X0255502Y0138700D01*
X0183454Y0150309D02*
X0183454Y0164258D01*
X0166870Y0214280D02*
X0178238Y0202912D01*
X0178238Y0190629D02*
X0178238Y0202912D01*
X0169093Y0181484D02*
X0178238Y0190629D01*
X0243592Y0157740D02*
X0243592Y0166611D01*
X0169093Y0149290D02*
X0169093Y0181484D01*
X0182470Y0165242D02*
X0182470Y0202825D01*
X0187638Y0207992D01*
X0183454Y0165650D02*
X0183454Y0201752D01*
X0178927Y0221048D02*
X0189557Y0210418D01*
X0179911Y0221456D02*
X0190541Y0210826D01*
X0184439Y0201345D02*
X0186608Y0203513D01*
X0187265Y0203513D01*
X0189557Y0207197D02*
X0189557Y0210418D01*
X0190541Y0206789D02*
X0190541Y0210826D01*
X0179911Y0221456D02*
X0179911Y0224535D01*
X0190738Y0203708D02*
X0192805Y0205775D01*
X0178927Y0221048D02*
X0178927Y0224943D01*
X0181415Y0210181D02*
X0183602Y0212368D01*
X0181415Y0156159D02*
X0181415Y0210181D01*
X0186858Y0204498D02*
X0189557Y0207197D01*
X0187501Y0217512D02*
X0187501Y0229055D01*
X0187265Y0203513D02*
X0190541Y0206789D01*
X0192805Y0205775D02*
X0192805Y0212208D01*
X0196939Y0207534D02*
X0196939Y0209466D01*
X0184439Y0168966D02*
X0184439Y0201345D01*
X0187501Y0217512D02*
X0192805Y0212208D01*
X0183454Y0201752D02*
X0186200Y0204498D01*
X0191722Y0201510D02*
X0191722Y0203301D01*
X0191427Y0227258D02*
X0193156Y0228987D01*
X0198907Y0206718D02*
X0198907Y0210281D01*
X0192411Y0225528D02*
X0193822Y0226939D01*
X0197923Y0207126D02*
X0197923Y0209874D01*
X0194831Y0206409D02*
X0195815Y0206409D01*
X0193494Y0215695D02*
X0193494Y0219464D01*
X0190738Y0187118D02*
X0190738Y0203708D01*
X0195815Y0206409D02*
X0196939Y0207534D01*
X0192706Y0200488D02*
X0192706Y0202893D01*
X0195238Y0205425D01*
X0196222Y0205425D01*
X0197923Y0207126D01*
X0193691Y0202485D02*
X0195646Y0204441D01*
X0196630Y0204441D01*
X0198907Y0206718D01*
X0200128Y0206208D02*
X0212243Y0206208D01*
X0195610Y0201690D02*
X0200128Y0206208D01*
X0192706Y0198056D02*
X0192706Y0200488D01*
X0193691Y0197648D02*
X0193691Y0200895D01*
X0193691Y0200895D02*
X0193691Y0202485D01*
X0192706Y0200488D02*
X0192706Y0200488D01*
X0193691Y0200895D02*
X0193691Y0200895D01*
X0191722Y0201510D02*
X0191722Y0201509D01*
X0191722Y0186711D02*
X0191722Y0201509D01*
X0192706Y0180164D02*
X0192706Y0187000D01*
X0193789Y0181795D02*
X0202040Y0173545D01*
X0193691Y0187407D02*
X0193789Y0187309D01*
X0193789Y0181795D02*
X0193789Y0187309D01*
X0192706Y0180164D02*
X0195390Y0177480D01*
X0193494Y0215695D02*
X0198907Y0210281D01*
X0192411Y0215386D02*
X0192411Y0225528D01*
X0193494Y0219464D02*
X0196822Y0222792D01*
X0191427Y0214978D02*
X0196939Y0209466D01*
X0191427Y0214978D02*
X0191427Y0227258D01*
X0187244Y0169016D02*
X0191624Y0173395D01*
X0187244Y0174527D02*
X0190640Y0177923D01*
X0192411Y0215386D02*
X0197923Y0209874D01*
X0192706Y0187000D02*
X0192706Y0187000D01*
X0186200Y0204498D02*
X0186858Y0204498D01*
X0193691Y0197648D02*
X0193691Y0197648D01*
X0193691Y0194601D02*
X0193691Y0197648D01*
X0193691Y0194601D02*
X0193691Y0194601D01*
X0193691Y0187407D02*
X0193691Y0189102D01*
X0193691Y0189102D01*
X0193691Y0194601D01*
X0195610Y0188307D02*
X0195610Y0191752D01*
X0201909Y0198051D02*
X0201909Y0199407D01*
X0195610Y0191752D02*
X0201909Y0198051D01*
X0201909Y0199407D02*
X0206508Y0204006D01*
X0205205Y0204990D02*
X0212069Y0204990D01*
X0195610Y0195395D02*
X0205205Y0204990D01*
X0212555Y0207288D02*
X0221545Y0198297D01*
X0206191Y0207288D02*
X0212555Y0207288D01*
X0204056Y0209422D02*
X0206191Y0207288D01*
X0212243Y0206208D02*
X0221138Y0197313D01*
X0206508Y0204006D02*
X0211661Y0204006D01*
X0205896Y0197756D02*
X0208415Y0197756D01*
X0208748Y0194513D02*
X0208748Y0194708D01*
X0209734Y0172903D02*
X0212441Y0170197D01*
X0212441Y0156544D02*
X0212441Y0170197D01*
X0220020Y0164593D02*
X0221053Y0163560D01*
X0221053Y0150213D02*
X0221053Y0163560D01*
X0220020Y0164593D02*
X0220020Y0164783D01*
X0209734Y0172903D02*
X0209734Y0179984D01*
X0222086Y0150572D02*
X0222086Y0165711D01*
X0223809Y0167433D01*
X0243609Y0167477D02*
X0243966Y0167834D01*
X0243609Y0166627D02*
X0243609Y0167477D01*
X0182470Y0165242D02*
X0183454Y0164258D01*
X0183454Y0165650D02*
X0186782Y0162323D01*
X0184439Y0168966D02*
X0187244Y0166161D01*
X0196822Y0222792D02*
X0196822Y0227068D01*
X0184399Y0225718D02*
X0185582Y0226900D01*
X0185582Y0229850D01*
X0178927Y0224943D02*
X0181636Y0227652D01*
X0183619Y0227652D01*
X0179911Y0224535D02*
X0181094Y0225718D01*
X0185582Y0229850D02*
X0186741Y0231008D01*
X0195021Y0232126D02*
X0205680Y0242785D01*
X0193156Y0228987D02*
X0199421Y0228987D01*
X0199722Y0228686D01*
X0195816Y0230206D02*
X0199816Y0234207D01*
X0194226Y0230206D02*
X0195816Y0230206D01*
X0192706Y0189510D02*
X0192706Y0189510D01*
X0192706Y0187000D02*
X0192706Y0189510D01*
X0192706Y0189510D02*
X0192706Y0194193D01*
X0192706Y0194193D02*
X0192706Y0194193D01*
X0192706Y0198056D02*
X0192706Y0198056D01*
X0192706Y0194193D02*
X0192706Y0198056D01*
X0211661Y0204006D02*
X0220322Y0195344D01*
X0212069Y0204990D02*
X0220730Y0196329D01*
X0239655Y0203961D02*
X0239655Y0206508D01*
X0260592Y0182199D02*
X0267211Y0182199D01*
X0269084Y0184073D02*
X0269084Y0188568D01*
X0261388Y0196264D02*
X0269084Y0188568D01*
X0236858Y0195344D02*
X0241570Y0190632D01*
X0237673Y0197313D02*
X0242386Y0192600D01*
X0259136Y0192600D01*
X0237265Y0196329D02*
X0241978Y0191616D01*
X0238081Y0198297D02*
X0242793Y0193584D01*
X0241978Y0191616D02*
X0258413Y0191616D01*
X0261899Y0188130D01*
X0260866Y0193584D02*
X0266026Y0188425D01*
X0247352Y0196264D02*
X0261388Y0196264D01*
X0239655Y0203961D02*
X0247352Y0196264D01*
X0266026Y0185538D02*
X0266026Y0188425D01*
X0267211Y0182199D02*
X0269084Y0184073D01*
X0256486Y0186305D02*
X0260592Y0182199D01*
X0253772Y0188368D02*
X0255362Y0188368D01*
X0255896Y0146947D02*
X0255896Y0185063D01*
X0254567Y0186392D02*
X0255896Y0185063D01*
X0255362Y0188368D02*
X0256486Y0187244D01*
X0235048Y0169644D02*
X0253772Y0188368D01*
X0254567Y0186392D02*
X0254567Y0186449D01*
X0256486Y0186305D02*
X0256486Y0187244D01*
X0241570Y0190632D02*
X0256683Y0190632D01*
X0235048Y0164261D02*
X0235048Y0169644D01*
X0225512Y0164568D02*
X0226860Y0165915D01*
X0226860Y0179104D01*
X0231512Y0160725D02*
X0235048Y0164261D01*
X0231512Y0160593D02*
X0231512Y0160725D01*
X0226860Y0179104D02*
X0230121Y0182365D01*
X0225512Y0153382D02*
X0225512Y0164568D01*
X0294628Y0168980D02*
X0295499Y0168980D01*
X0294312Y0169297D02*
X0294628Y0168980D01*
X0287251Y0169599D02*
X0287251Y0171959D01*
X0287251Y0169599D02*
X0294537Y0162313D01*
X0288425Y0170197D02*
X0292841Y0165781D01*
X0288425Y0170197D02*
X0288425Y0171561D01*
X0293792Y0165781D02*
X0294149Y0165423D01*
X0292841Y0165781D02*
X0293792Y0165781D01*
X0292598Y0177306D02*
X0308265Y0177306D01*
X0287251Y0171959D02*
X0292598Y0177306D01*
X0289458Y0170583D02*
X0289458Y0171202D01*
X0288425Y0171561D02*
X0293130Y0176265D01*
X0289458Y0171202D02*
X0293537Y0175281D01*
X0293130Y0176265D02*
X0296906Y0176265D01*
X0293537Y0175281D02*
X0296498Y0175281D01*
X0291863Y0170892D02*
X0292369Y0170892D01*
X0292919Y0171442D01*
X0294908Y0171442D01*
X0292664Y0167377D02*
X0294918Y0167377D01*
X0289458Y0170583D02*
X0292664Y0167377D01*
X0294918Y0167377D02*
X0300562Y0161733D01*
X0295499Y0168980D02*
X0295551Y0168928D01*
X0295993Y0168928D01*
X0302549Y0162372D01*
X0296208Y0171427D02*
X0307290Y0160345D01*
X0295718Y0173346D02*
X0308275Y0160790D01*
X0298383Y0173395D02*
X0314628Y0173395D01*
X0296498Y0175281D02*
X0298383Y0173395D01*
X0296906Y0176265D02*
X0298791Y0174380D01*
X0314220Y0174380D01*
X0294923Y0171427D02*
X0296208Y0171427D01*
X0294908Y0171442D02*
X0294923Y0171427D01*
X0313425Y0176988D02*
X0313931Y0176988D01*
X0314390Y0177447D01*
X0314573Y0177447D01*
X0315640Y0178514D01*
X0314655Y0180810D02*
X0314655Y0198869D01*
X0312752Y0178907D02*
X0314655Y0180810D01*
X0308265Y0177306D02*
X0308553Y0177594D01*
X0309677Y0178907D02*
X0312752Y0178907D01*
X0308553Y0177783D02*
X0309677Y0178907D01*
X0308553Y0177594D02*
X0308553Y0177783D01*
X0243592Y0166611D02*
X0243609Y0166627D01*
X0272677Y0171828D02*
X0272677Y0172165D01*
X0271791Y0170942D02*
X0272677Y0171828D01*
X0271791Y0154126D02*
X0271791Y0170942D01*
X0241378Y0170576D02*
X0241771Y0170970D01*
X0241378Y0160994D02*
X0241378Y0170576D01*
X0241771Y0170970D02*
X0241771Y0171476D01*
X0239131Y0150093D02*
X0239131Y0167875D01*
X0241378Y0160994D02*
X0241378Y0160994D01*
X0296465Y0224562D02*
X0296465Y0234318D01*
X0296315Y0234468D02*
X0296465Y0234318D01*
X0293199Y0221295D02*
X0296465Y0224562D01*
X0293693Y0238875D02*
X0295143Y0240325D01*
X0301325Y0240325D01*
X0294664Y0238454D02*
X0300482Y0238454D01*
X0301325Y0240325D02*
X0302096Y0239554D01*
X0303550Y0239554D01*
X0303688Y0239416D01*
X0293199Y0218080D02*
X0293199Y0221295D01*
X0294101Y0237891D02*
X0294664Y0238454D01*
X0268744Y0237891D02*
X0294101Y0237891D01*
X0268613Y0238875D02*
X0293693Y0238875D01*
X0286963Y0211929D02*
X0287532Y0212499D01*
X0287617Y0212499D02*
X0293199Y0218080D01*
X0286456Y0211929D02*
X0286963Y0211929D01*
X0287532Y0212499D02*
X0287617Y0212499D01*
X0312275Y0209306D02*
X0312275Y0225936D01*
X0312275Y0209306D02*
X0312888Y0208693D01*
X0313259Y0209714D02*
X0313872Y0209101D01*
X0313259Y0209714D02*
X0313259Y0225467D01*
X0306929Y0231608D02*
X0310306Y0228230D01*
X0315228Y0210529D02*
X0315228Y0219440D01*
X0315841Y0204676D02*
X0315841Y0209916D01*
X0314856Y0205083D02*
X0314856Y0209509D01*
X0314243Y0225059D02*
X0315994Y0226810D01*
X0314243Y0210122D02*
X0314243Y0225059D01*
X0315994Y0226810D02*
X0319448Y0226810D01*
X0315228Y0204062D02*
X0315841Y0204676D01*
X0313259Y0225467D02*
X0317831Y0230039D01*
X0315228Y0219440D02*
X0319527Y0223740D01*
X0309049Y0208626D02*
X0310306Y0209883D01*
X0315228Y0202472D02*
X0317608Y0200092D01*
X0315228Y0210529D02*
X0315841Y0209916D01*
X0310306Y0209883D02*
X0310306Y0228230D01*
X0314243Y0202065D02*
X0316624Y0199684D01*
X0314243Y0210122D02*
X0314856Y0209509D01*
X0306929Y0231608D02*
X0306929Y0243425D01*
X0305748Y0231396D02*
X0309322Y0227823D01*
X0309322Y0217768D02*
X0309322Y0227823D01*
X0305748Y0231396D02*
X0305748Y0240729D01*
X0307506Y0215952D02*
X0309322Y0217768D01*
X0305142Y0241335D02*
X0305748Y0240729D01*
X0304906Y0215952D02*
X0307506Y0215952D01*
X0296420Y0241335D02*
X0305142Y0241335D01*
X0294330Y0243425D02*
X0296420Y0241335D01*
X0317831Y0230039D02*
X0319527Y0230039D01*
X0312275Y0225936D02*
X0319527Y0233189D01*
X0319448Y0226810D02*
X0319527Y0226889D01*
X0309049Y0205899D02*
X0309049Y0208626D01*
X0298472Y0209519D02*
X0304906Y0215952D01*
X0298472Y0200058D02*
X0298472Y0209519D01*
X0298472Y0200058D02*
X0310991Y0187540D01*
X0311239Y0187540D01*
X0312888Y0205899D02*
X0312888Y0208693D01*
X0313872Y0205491D02*
X0313872Y0209101D01*
X0311290Y0200842D02*
X0312982Y0199150D01*
X0312736Y0197353D02*
X0312982Y0197599D01*
X0312982Y0199150D01*
X0312275Y0205285D02*
X0312888Y0205899D01*
X0314243Y0204470D02*
X0314856Y0205083D01*
X0311290Y0200842D02*
X0311290Y0203657D01*
X0315228Y0202472D02*
X0315228Y0204062D01*
X0309049Y0205899D02*
X0311290Y0203657D01*
X0314243Y0202065D02*
X0314243Y0204470D01*
X0313259Y0201657D02*
X0313259Y0204878D01*
X0312275Y0201249D02*
X0312275Y0205285D01*
X0313259Y0204878D02*
X0313872Y0205491D01*
X0312275Y0201249D02*
X0314655Y0198869D01*
X0313259Y0201657D02*
X0315640Y0199277D01*
X0223809Y0182057D02*
X0225433Y0183681D01*
X0223809Y0167433D02*
X0223809Y0182057D01*
X0256273Y0225419D02*
X0268744Y0237891D01*
X0256680Y0224435D02*
X0264007Y0231762D01*
X0240987Y0225419D02*
X0256273Y0225419D01*
X0240171Y0223451D02*
X0257088Y0223451D01*
X0264415Y0230777D01*
X0255865Y0226404D02*
X0266621Y0237160D01*
X0241394Y0226404D02*
X0255865Y0226404D01*
X0240579Y0224435D02*
X0256680Y0224435D01*
X0266621Y0237160D02*
X0268475Y0239013D01*
X0266621Y0237160D02*
X0266621Y0237160D01*
X0266117Y0241370D02*
X0268613Y0238875D01*
X0245464Y0241370D02*
X0266117Y0241370D01*
X0272776Y0163545D02*
X0274646Y0165415D01*
X0272776Y0153718D02*
X0272776Y0163545D01*
X0231878Y0206271D02*
X0236063Y0202086D01*
X0230551Y0220590D02*
X0232478Y0220590D01*
X0242313Y0210755D01*
X0242313Y0209165D02*
X0242313Y0210755D01*
X0239655Y0206508D02*
X0242313Y0209165D01*
X0220139Y0221887D02*
X0224645Y0217380D01*
X0199816Y0235090D02*
X0206528Y0241801D01*
X0185275Y0240821D02*
X0188870Y0237227D01*
X0185275Y0240821D02*
X0185275Y0243425D01*
X0314628Y0173395D02*
X0317608Y0176376D01*
X0314220Y0174380D02*
X0316624Y0176783D01*
X0316624Y0199684D01*
X0317608Y0176376D02*
X0317608Y0200092D01*
X0315640Y0178514D02*
X0315640Y0199277D01*
X0168260Y0226409D02*
X0185275Y0243425D01*
X0168260Y0223711D02*
X0168260Y0226409D01*
X0188870Y0237227D02*
X0189865Y0237227D01*
X0228436Y0227828D02*
X0238578Y0227828D01*
X0206528Y0241801D02*
X0209291Y0241801D01*
X0209698Y0242785D02*
X0212120Y0240364D01*
X0205680Y0242785D02*
X0209698Y0242785D01*
X0209291Y0241801D02*
X0211712Y0239380D01*
X0219321Y0239380D01*
X0212120Y0240364D02*
X0219729Y0240364D01*
X0199816Y0234207D02*
X0199816Y0235090D01*
X0204290Y0218242D02*
X0206709Y0220661D01*
X0210938Y0223937D02*
X0213101Y0226100D01*
X0208810Y0223937D02*
X0210938Y0223937D01*
X0214086Y0225692D02*
X0214086Y0236111D01*
X0213101Y0226100D02*
X0213101Y0236519D01*
X0218913Y0238395D02*
X0220455Y0236853D01*
X0215386Y0237411D02*
X0218506Y0237411D01*
X0214978Y0238395D02*
X0218913Y0238395D01*
X0219729Y0240364D02*
X0222424Y0237669D01*
X0219321Y0239380D02*
X0221439Y0237261D01*
X0218506Y0237411D02*
X0219471Y0236446D01*
X0214086Y0236111D02*
X0215386Y0237411D01*
X0213101Y0236519D02*
X0214978Y0238395D01*
X0219471Y0234009D02*
X0227620Y0225860D01*
X0221439Y0234824D02*
X0228436Y0227828D01*
X0222424Y0235232D02*
X0222424Y0237669D01*
X0222424Y0235232D02*
X0228843Y0228813D01*
X0220455Y0234417D02*
X0228028Y0226844D01*
X0189865Y0237227D02*
X0193101Y0233990D01*
X0219471Y0234009D02*
X0219471Y0236446D01*
X0228843Y0228813D02*
X0238986Y0228813D01*
X0228028Y0226844D02*
X0238170Y0226844D01*
X0221439Y0234824D02*
X0221439Y0237261D01*
X0227620Y0225860D02*
X0237763Y0225860D01*
X0220455Y0234417D02*
X0220455Y0236853D01*
X0186741Y0235312D02*
X0187068Y0235638D01*
X0181094Y0225718D02*
X0184399Y0225718D01*
X0238170Y0226844D02*
X0240579Y0224435D01*
X0238986Y0228813D02*
X0241394Y0226404D01*
X0237763Y0225860D02*
X0240171Y0223451D01*
X0238578Y0227828D02*
X0240987Y0225419D01*
X0193101Y0231331D02*
X0193101Y0233990D01*
X0193101Y0231331D02*
X0194226Y0230206D01*
X0186741Y0231008D02*
X0186741Y0235312D01*
X0264415Y0230777D02*
X0283004Y0230777D01*
X0264007Y0231762D02*
X0282949Y0231762D01*
X0244784Y0242050D02*
X0245464Y0241370D01*
X0202040Y0169064D02*
X0202040Y0173545D01*
X0208012Y0193776D02*
X0208748Y0194513D01*
X0208012Y0173009D02*
X0208012Y0193776D01*
X0230121Y0182365D02*
X0230121Y0188057D01*
X0219188Y0191078D02*
X0219403Y0191078D01*
X0277763Y0167685D02*
X0277763Y0171007D01*
X0280735Y0168889D02*
X0280735Y0175596D01*
X0279750Y0168481D02*
X0282470Y0165761D01*
X0279750Y0168481D02*
X0279750Y0173775D01*
X0278747Y0168092D02*
X0278747Y0173386D01*
X0278747Y0168092D02*
X0281486Y0165353D01*
X0277763Y0167685D02*
X0280502Y0164946D01*
X0280735Y0168889D02*
X0283454Y0166169D01*
X0274646Y0165415D02*
X0274646Y0165866D01*
X0276614Y0172156D02*
X0276614Y0172165D01*
X0276614Y0172156D02*
X0277763Y0171007D01*
X0265886Y0185398D02*
X0266026Y0185538D01*
X0272677Y0187519D02*
X0276492Y0183705D01*
X0221545Y0198297D02*
X0238081Y0198297D01*
X0276492Y0175641D02*
X0278747Y0173386D01*
X0277476Y0176049D02*
X0279750Y0173775D01*
X0279395Y0176935D02*
X0280735Y0175596D01*
X0281486Y0158478D02*
X0281486Y0165353D01*
X0280502Y0152389D02*
X0280502Y0164946D01*
X0244278Y0242050D02*
X0244784Y0242050D01*
X0282470Y0158886D02*
X0282470Y0165761D01*
X0283454Y0159294D02*
X0283454Y0166169D01*
X0204290Y0215563D02*
X0204290Y0218242D01*
X0206709Y0220661D02*
X0209054Y0220661D01*
X0276492Y0175641D02*
X0276492Y0183705D01*
X0277476Y0176049D02*
X0277476Y0185870D01*
X0275827Y0187519D02*
X0277476Y0185870D01*
X0221138Y0197313D02*
X0237673Y0197313D01*
X0220730Y0196329D02*
X0237265Y0196329D01*
X0220322Y0195344D02*
X0236858Y0195344D01*
X0259136Y0192600D02*
X0264106Y0187630D01*
X0242793Y0193584D02*
X0260866Y0193584D01*
X0256683Y0190632D02*
X0259685Y0187630D01*
X0283004Y0230777D02*
X0283299Y0230482D01*
X0284889Y0230482D01*
X0286555Y0233287D02*
X0286850Y0233582D01*
X0286555Y0232148D02*
X0286555Y0233287D01*
X0284889Y0230482D02*
X0286555Y0232148D01*
X0282949Y0231762D02*
X0283588Y0232401D01*
X0284094Y0232401D01*
X0261899Y0185820D02*
X0261899Y0188130D01*
X0197571Y0161880D02*
X0203959Y0168269D01*
X0203959Y0168957D01*
X0208012Y0173009D01*
X0209054Y0220661D02*
X0214086Y0225692D01*
X0252889Y0164904D02*
X0254911Y0162882D01*
D62*
X0177598Y0150742D02*
X0178313Y0150027D01*
X0176614Y0157341D02*
X0177598Y0156357D01*
X0177598Y0150742D02*
X0177598Y0156357D01*
X0178313Y0149814D02*
X0178313Y0150027D01*
X0215158Y0193727D02*
X0227008Y0193727D01*
X0208668Y0200216D02*
X0211120Y0197764D01*
X0211653Y0173740D02*
X0215158Y0177244D01*
X0211120Y0197764D02*
X0215158Y0193727D01*
X0215158Y0177244D02*
X0215158Y0193727D01*
X0204876Y0200216D02*
X0208668Y0200216D01*
X0292310Y0156779D02*
X0292523Y0156779D01*
X0291456Y0155925D02*
X0292310Y0156779D01*
X0288981Y0155925D02*
X0291456Y0155925D01*
X0284982Y0159924D02*
X0288981Y0155925D01*
X0225827Y0150354D02*
X0225827Y0150567D01*
X0223987Y0152407D02*
X0225827Y0150567D01*
X0212894Y0153011D02*
X0214335Y0154453D01*
X0196631Y0155967D02*
X0207442Y0155967D01*
X0170118Y0121378D02*
X0172529Y0118966D01*
X0195506Y0154842D02*
X0196631Y0155967D01*
X0195315Y0154842D02*
X0195506Y0154842D01*
X0172529Y0114882D02*
X0172529Y0118966D01*
X0207442Y0155967D02*
X0210398Y0153011D01*
X0212894Y0153011D01*
X0188066Y0154286D02*
X0191814Y0158034D01*
X0186607Y0154286D02*
X0188066Y0154286D01*
X0191814Y0158034D02*
X0210447Y0158034D01*
X0186456Y0154136D02*
X0186607Y0154286D01*
X0176614Y0157341D02*
X0176614Y0181452D01*
X0174437Y0229445D02*
X0179661Y0234669D01*
X0176614Y0181452D02*
X0179764Y0184602D01*
X0174437Y0218767D02*
X0179764Y0213440D01*
X0298826Y0224765D02*
X0298826Y0233270D01*
X0294724Y0204722D02*
X0294724Y0217478D01*
X0282260Y0169520D02*
X0285311Y0166469D01*
X0229235Y0193727D02*
X0229780Y0193182D01*
X0227008Y0193727D02*
X0229235Y0193727D01*
X0223987Y0152407D02*
X0223987Y0165454D01*
X0225335Y0179736D02*
X0227894Y0182295D01*
X0229780Y0193182D02*
X0232762Y0193182D01*
X0214335Y0154453D02*
X0214335Y0171058D01*
X0225335Y0166801D02*
X0225335Y0179736D01*
X0211653Y0173740D02*
X0214335Y0171058D01*
X0174437Y0218767D02*
X0174437Y0229445D01*
X0179764Y0184602D02*
X0179764Y0213440D01*
X0204862Y0228823D02*
X0204862Y0237331D01*
X0207323Y0239792D01*
X0196693Y0217834D02*
X0203863Y0225005D01*
X0269948Y0236365D02*
X0294733Y0236365D01*
X0267839Y0234256D02*
X0269948Y0236365D01*
X0294733Y0236365D02*
X0295296Y0236928D01*
X0299097Y0233215D02*
X0299097Y0233428D01*
X0298776Y0233749D02*
X0298776Y0235487D01*
X0295296Y0236928D02*
X0297334Y0236928D01*
X0298776Y0235487D01*
X0298776Y0233749D02*
X0299097Y0233428D01*
X0307796Y0218400D02*
X0307796Y0221755D01*
X0307403Y0222149D02*
X0307796Y0221755D01*
X0307403Y0222149D02*
X0307403Y0222362D01*
X0306874Y0217478D02*
X0307796Y0218400D01*
X0294724Y0217478D02*
X0306874Y0217478D01*
X0294724Y0217478D02*
X0294724Y0220664D01*
X0294724Y0204722D02*
X0294845Y0204842D01*
X0291771Y0201769D02*
X0294724Y0204722D01*
X0203435Y0193882D02*
X0204173Y0193144D01*
X0227894Y0182295D02*
X0227894Y0186804D01*
X0223987Y0165454D02*
X0225335Y0166801D01*
X0204173Y0188897D02*
X0204173Y0193144D01*
X0203435Y0193882D02*
X0203435Y0198775D01*
X0227008Y0187690D02*
X0227008Y0193727D01*
X0232762Y0193182D02*
X0232913Y0193031D01*
X0227589Y0237314D02*
X0255870Y0237314D01*
X0259585Y0233599D01*
X0294724Y0220664D02*
X0298826Y0224765D01*
X0295512Y0195393D02*
X0297185Y0193720D01*
X0295512Y0183189D02*
X0297185Y0184862D01*
X0297185Y0193720D01*
X0292362Y0195393D02*
X0295512Y0195393D01*
X0292362Y0195393D02*
X0292362Y0195606D01*
X0291771Y0196197D02*
X0292362Y0195606D01*
X0291771Y0196197D02*
X0291771Y0201769D01*
X0203435Y0198775D02*
X0204876Y0200216D01*
X0282260Y0169520D02*
X0282260Y0177256D01*
X0288194Y0183190D01*
X0203863Y0225005D02*
X0203863Y0227824D01*
X0207323Y0239792D02*
X0207323Y0239882D01*
X0288194Y0183190D02*
X0295512Y0183190D01*
X0284982Y0159924D02*
X0284982Y0166140D01*
X0227008Y0187690D02*
X0227894Y0186804D01*
X0223858Y0241044D02*
X0227589Y0237314D01*
X0284982Y0166140D02*
X0285311Y0166469D01*
X0203863Y0227824D02*
X0204862Y0228823D01*
D63*
X0238327Y0202578D02*
X0239610Y0201295D01*
X0239610Y0201203D02*
X0239610Y0201295D01*
X0220363Y0226914D02*
X0238327Y0208951D01*
X0238327Y0202578D02*
X0238327Y0208951D01*
X0217968Y0229185D02*
X0217968Y0233705D01*
X0220238Y0226914D02*
X0220363Y0226914D01*
X0217968Y0229185D02*
X0220238Y0226914D01*
X0216181Y0235492D02*
X0217968Y0233705D01*
D13*
X0319527Y0126102D02*
D03*
X0319527Y0129252D02*
D03*
X0319527Y0223740D02*
D03*
X0319527Y0226889D02*
D03*
X0319527Y0132401D02*
D03*
X0319527Y0230039D02*
D03*
X0319527Y0135551D02*
D03*
X0319527Y0233189D02*
D03*
X0319527Y0138700D02*
D03*
X0319527Y0141850D02*
D03*
X0319527Y0145000D02*
D03*
X0306929Y0243425D02*
D03*
X0294330Y0243425D02*
D03*
X0319527Y0096575D02*
D03*
X0185275Y0243425D02*
D03*
X0155354Y0201693D02*
D03*
X0166611Y0191698D02*
D03*
X0188031Y0189882D02*
D03*
X0178313Y0149814D02*
D03*
X0166575Y0152283D02*
D03*
X0165787Y0143622D02*
D03*
X0190611Y0147989D02*
D03*
X0185669Y0148149D02*
D03*
X0195315Y0154842D02*
D03*
X0197283Y0132795D02*
D03*
X0190000Y0140275D02*
D03*
X0195067Y0144143D02*
D03*
X0203288Y0162913D02*
D03*
X0169331Y0188307D02*
D03*
X0183602Y0212368D02*
D03*
X0175236Y0208779D02*
D03*
X0187638Y0207992D02*
D03*
X0195610Y0201690D02*
D03*
X0195610Y0195395D02*
D03*
X0173858Y0193622D02*
D03*
X0211260Y0201655D02*
D03*
X0208748Y0194708D02*
D03*
X0211120Y0197764D02*
D03*
X0219527Y0207992D02*
D03*
X0219420Y0203575D02*
D03*
X0204056Y0209422D02*
D03*
X0157716Y0148149D02*
D03*
X0252697Y0128761D02*
D03*
X0252598Y0131614D02*
D03*
X0252598Y0134763D02*
D03*
X0294724Y0105236D02*
D03*
X0170069Y0104449D02*
D03*
X0165257Y0116834D02*
D03*
X0244626Y0103842D02*
D03*
X0248464Y0104449D02*
D03*
X0210447Y0158034D02*
D03*
X0220020Y0164783D02*
D03*
X0211653Y0173740D02*
D03*
X0258504Y0147362D02*
D03*
X0243966Y0167834D02*
D03*
X0171013Y0180689D02*
D03*
X0174726Y0155334D02*
D03*
X0181535Y0153267D02*
D03*
X0186456Y0154136D02*
D03*
X0156634Y0141361D02*
D03*
X0226368Y0114488D02*
D03*
X0180157Y0115571D02*
D03*
X0183619Y0227652D02*
D03*
X0187501Y0229055D02*
D03*
X0183816Y0230600D02*
D03*
X0193822Y0226939D02*
D03*
X0195021Y0232126D02*
D03*
X0199722Y0228686D02*
D03*
X0196822Y0227068D02*
D03*
X0202401Y0229842D02*
D03*
X0210768Y0216850D02*
D03*
X0239610Y0201203D02*
D03*
X0254567Y0186449D02*
D03*
X0249842Y0181220D02*
D03*
X0245118Y0176496D02*
D03*
X0227432Y0160157D02*
D03*
X0231512Y0160593D02*
D03*
X0294312Y0169297D02*
D03*
X0291863Y0170892D02*
D03*
X0294149Y0165423D02*
D03*
X0295718Y0173346D02*
D03*
X0313425Y0176988D02*
D03*
X0273464Y0181856D02*
D03*
X0272677Y0172165D02*
D03*
X0241771Y0171476D02*
D03*
X0239131Y0167875D02*
D03*
X0206712Y0104576D02*
D03*
X0209565Y0104661D02*
D03*
X0294546Y0228446D02*
D03*
X0270819Y0233757D02*
D03*
X0300530Y0238405D02*
D03*
X0296315Y0234468D02*
D03*
X0299097Y0233215D02*
D03*
X0309912Y0233851D02*
D03*
X0307403Y0222362D02*
D03*
X0303688Y0239416D02*
D03*
X0305701Y0214033D02*
D03*
X0310866Y0195197D02*
D03*
X0286860Y0214755D02*
D03*
X0312736Y0197353D02*
D03*
X0259585Y0233599D02*
D03*
X0300629Y0112716D02*
D03*
X0285275Y0200118D02*
D03*
X0285275Y0190669D02*
D03*
X0279370Y0197755D02*
D03*
X0273464Y0214291D02*
D03*
X0265196Y0211929D02*
D03*
X0259291Y0214291D02*
D03*
X0258110Y0178858D02*
D03*
X0259291Y0171771D02*
D03*
X0247480Y0214291D02*
D03*
X0242755Y0219015D02*
D03*
X0164803Y0228464D02*
D03*
X0302852Y0201878D02*
D03*
X0227106Y0215472D02*
D03*
X0169724Y0115866D02*
D03*
X0155748Y0115472D02*
D03*
X0179661Y0234669D02*
D03*
X0164016Y0124724D02*
D03*
X0169542Y0125603D02*
D03*
X0170118Y0121378D02*
D03*
X0161260Y0113504D02*
D03*
X0220279Y0102647D02*
D03*
X0216441Y0102647D02*
D03*
X0225391Y0104917D02*
D03*
X0221310Y0116039D02*
D03*
X0220708Y0138700D02*
D03*
X0216181Y0235492D02*
D03*
X0207323Y0239882D02*
D03*
X0197261Y0241063D02*
D03*
X0220139Y0221887D02*
D03*
X0228583Y0207992D02*
D03*
X0240394Y0209960D02*
D03*
X0187068Y0235638D02*
D03*
X0171890Y0200512D02*
D03*
X0168260Y0223711D02*
D03*
X0185121Y0223617D02*
D03*
X0194619Y0243166D02*
D03*
X0229935Y0223531D02*
D03*
X0230551Y0220590D02*
D03*
X0162441Y0242638D02*
D03*
X0166870Y0214280D02*
D03*
X0165197Y0211929D02*
D03*
X0156142Y0225315D02*
D03*
X0156338Y0229252D02*
D03*
X0196026Y0167289D02*
D03*
X0294628Y0201004D02*
D03*
X0294845Y0204842D02*
D03*
X0286456Y0211929D02*
D03*
X0292362Y0195393D02*
D03*
X0204173Y0188897D02*
D03*
X0205896Y0197756D02*
D03*
X0195610Y0188307D02*
D03*
X0219403Y0191078D02*
D03*
X0225433Y0183681D02*
D03*
X0230157Y0171771D02*
D03*
X0230121Y0188057D02*
D03*
X0240787Y0181614D02*
D03*
X0274646Y0165866D02*
D03*
X0276614Y0172165D02*
D03*
X0265886Y0185398D02*
D03*
X0309390Y0168327D02*
D03*
X0311239Y0187540D02*
D03*
X0196693Y0217834D02*
D03*
X0272677Y0187519D02*
D03*
X0227008Y0202874D02*
D03*
X0211874Y0155472D02*
D03*
X0206929Y0150905D02*
D03*
X0243543Y0146968D02*
D03*
X0217165Y0155630D02*
D03*
X0248027Y0159572D02*
D03*
X0260632Y0149724D02*
D03*
X0269706Y0157927D02*
D03*
X0200039Y0143031D02*
D03*
X0156165Y0091900D02*
D03*
X0295512Y0183189D02*
D03*
X0161691Y0088225D02*
D03*
X0241144Y0242110D02*
D03*
X0244278Y0242050D02*
D03*
X0204290Y0215563D02*
D03*
X0275827Y0187519D02*
D03*
X0272937Y0196739D02*
D03*
X0219425Y0224650D02*
D03*
X0250097Y0234425D02*
D03*
X0264163Y0114882D02*
D03*
X0234192Y0233484D02*
D03*
X0195708Y0182598D02*
D03*
X0231818Y0242174D02*
D03*
X0173267Y0242638D02*
D03*
X0319134Y0091063D02*
D03*
X0318740Y0236338D02*
D03*
X0202040Y0169064D02*
D03*
X0171568Y0157639D02*
D03*
X0285311Y0166682D02*
D03*
X0300630Y0159960D02*
D03*
X0232913Y0193031D02*
D03*
X0236063Y0202086D02*
D03*
X0279395Y0176935D02*
D03*
X0304553Y0147876D02*
D03*
X0304634Y0142899D02*
D03*
X0286740Y0146578D02*
D03*
X0301811Y0152086D02*
D03*
X0301417Y0148149D02*
D03*
X0286850Y0233582D02*
D03*
X0284094Y0232401D02*
D03*
X0213619Y0145119D02*
D03*
X0186782Y0162323D02*
D03*
X0187244Y0166161D02*
D03*
X0264106Y0187630D02*
D03*
X0261899Y0185820D02*
D03*
X0259685Y0187630D02*
D03*
X0223858Y0241044D02*
D03*
X0187244Y0174527D02*
D03*
X0187244Y0169016D02*
D03*
X0195390Y0177480D02*
D03*
X0208810Y0223937D02*
D03*
X0179075Y0173346D02*
D03*
X0221004Y0172221D02*
D03*
X0219527Y0180039D02*
D03*
X0202319Y0124465D02*
D03*
X0213890Y0118442D02*
D03*
X0315859Y0118718D02*
D03*
X0307027Y0119212D02*
D03*
X0294679Y0160725D02*
D03*
X0294819Y0180418D02*
D03*
X0302628Y0122195D02*
D03*
X0311247Y0124855D02*
D03*
X0314409Y0116260D02*
D03*
X0306142Y0109960D02*
D03*
X0306397Y0134763D02*
D03*
X0292523Y0156779D02*
D03*
X0267839Y0234256D02*
D03*
X0206141Y0168425D02*
D03*
X0206634Y0135157D02*
D03*
X0206630Y0141707D02*
D03*
X0241378Y0160994D02*
D03*
X0252889Y0164904D02*
D03*
X0203130Y0152185D02*
D03*
X0225827Y0150354D02*
D03*
X0229812Y0104748D02*
D03*
X0275039Y0149331D02*
D03*
X0241279Y0158141D02*
D03*
X0262131Y0145671D02*
D03*
X0206337Y0217574D02*
D03*
X0206324Y0225339D02*
D03*
X0174160Y0133046D02*
D03*
X0163446Y0206151D02*
D03*
X0167953Y0200474D02*
D03*
X0195610Y0173346D02*
D03*
X0179075Y0180433D02*
D03*
X0179075Y0166260D02*
D03*
X0179075Y0159173D02*
D03*
X0187123Y0158959D02*
D03*
X0186850Y0182008D02*
D03*
X0158897Y0108681D02*
D03*
X0161262Y0093819D02*
D03*
X0192048Y0104750D02*
D03*
X0187780Y0104750D02*
D03*
X0184882Y0125708D02*
D03*
X0195512Y0115472D02*
D03*
X0199055Y0115078D02*
D03*
X0195512Y0125708D02*
D03*
X0173427Y0125326D02*
D03*
X0184882Y0115571D02*
D03*
X0162736Y0135157D02*
D03*
X0178681Y0140961D02*
D03*
X0178681Y0135157D02*
D03*
X0190692Y0134513D02*
D03*
X0227215Y0138853D02*
D03*
X0291968Y0115472D02*
D03*
X0229124Y0132155D02*
D03*
X0274793Y0132155D02*
D03*
X0317559Y0103267D02*
D03*
X0243543Y0138701D02*
D03*
X0249842Y0139094D02*
D03*
X0242533Y0115717D02*
D03*
X0272677Y0138701D02*
D03*
X0266378Y0138701D02*
D03*
X0272086Y0115866D02*
D03*
X0295512Y0138701D02*
D03*
X0289212Y0138701D02*
D03*
X0276614Y0102874D02*
D03*
X0310078Y0089882D02*
D03*
X0300630Y0089882D02*
D03*
X0305354Y0089882D02*
D03*
X0314803Y0089882D02*
D03*
X0203582Y0132795D02*
D03*
X0229173Y0129252D02*
D03*
X0218937Y0132008D02*
D03*
X0218937Y0125708D02*
D03*
X0241772Y0125708D02*
D03*
X0241772Y0132008D02*
D03*
X0274842Y0129252D02*
D03*
X0264606Y0132008D02*
D03*
X0264606Y0125708D02*
D03*
X0287441Y0132008D02*
D03*
X0287441Y0125708D02*
D03*
X0277401Y0089882D02*
D03*
X0282126Y0089882D02*
D03*
X0291575Y0089882D02*
D03*
X0286850Y0089882D02*
D03*
X0282913Y0104449D02*
D03*
X0286063Y0104449D02*
D03*
X0283061Y0114882D02*
D03*
X0258504Y0089882D02*
D03*
X0263228Y0089882D02*
D03*
X0272677Y0089882D02*
D03*
X0267953Y0089882D02*
D03*
X0264016Y0104449D02*
D03*
X0267165Y0104449D02*
D03*
X0257716Y0102874D02*
D03*
X0239606Y0089882D02*
D03*
X0244331Y0089882D02*
D03*
X0253779Y0089882D02*
D03*
X0249055Y0089882D02*
D03*
X0245266Y0114882D02*
D03*
X0238819Y0102874D02*
D03*
X0220709Y0089882D02*
D03*
X0225433Y0089882D02*
D03*
X0234882Y0089882D02*
D03*
X0230157Y0089882D02*
D03*
X0201811Y0089882D02*
D03*
X0206535Y0089882D02*
D03*
X0215984Y0089882D02*
D03*
X0211260Y0089882D02*
D03*
X0207470Y0114882D02*
D03*
X0201023Y0102874D02*
D03*
X0182913Y0089882D02*
D03*
X0187638Y0089882D02*
D03*
X0197086Y0089882D02*
D03*
X0192362Y0089882D02*
D03*
X0188573Y0114882D02*
D03*
X0197874Y0102874D02*
D03*
X0182126Y0102874D02*
D03*
X0172529Y0114882D02*
D03*
X0173464Y0089882D02*
D03*
X0178189Y0089882D02*
D03*
X0168740Y0089882D02*
D03*
X0164016Y0089882D02*
D03*
D65*
X0248268Y0148149D02*
D03*
X0278582Y0147756D02*
D03*
X0267165Y0147756D02*
D03*
X0214015Y0148937D02*
D03*
M02*
