M48
INCH,TZ
T01C0.011800
T02C0.023600
T03C0.031500
T04C0.039200
T05C0.045300
T06C0.086600
T07C0.157500
T08C0.196900
%
T01
X15535Y10169
X15535Y9776
X15535Y20563
X15535Y20169
X15535Y19776
X15535Y19382
X15535Y18988
X15535Y18594
X15535Y15051
X15535Y24343
X15535Y18201
X15535Y17807
X15535Y17413
X15535Y17020
X15535Y16626
X15535Y16232
X15535Y15839
X15535Y15445
X15535Y12689
X15693Y8791
X16638Y8791
X17110Y8791
X17583Y8791
X17898Y24343
X18055Y8791
X18213Y24343
X18528Y24343
X18528Y8791
X19000Y8791
X19472Y8791
X19945Y8791
X20417Y8791
X20890Y8791
X21362Y8791
X21598Y24343
X21835Y8791
X21913Y24343
X22228Y24343
X22307Y8791
X22543Y24343
X22780Y8791
X22858Y24343
X23252Y8791
X23724Y8791
X24197Y8791
X24669Y8791
X25024Y24343
X25142Y8791
X25339Y24343
X25614Y8791
X25654Y24343
X25969Y24343
X26087Y8791
X26283Y24343
X26559Y8791
X26598Y24343
X26913Y24343
X27032Y8791
X27228Y24343
X27504Y8791
X27543Y24343
X27858Y24343
X27976Y8791
X28173Y24343
X28449Y8791
X28488Y24343
X28803Y24343
X28921Y8791
X29118Y24343
X29394Y8791
X29433Y24343
X29748Y24343
X29827Y8791
X30063Y24343
X30299Y8791
X30378Y24343
X30693Y24343
X30772Y8791
X31008Y24343
X31244Y8791
X31323Y24343
X31638Y24343
X31717Y8791
X31953Y21744
X31953Y21429
X31953Y19854
X31953Y19539
X31953Y19224
X31953Y17965
X31953Y17650
X31953Y14185
X31953Y9972
X31953Y24343
X31953Y23319
X31953Y23004
X31953Y22689
X31953Y22374
X31953Y22059
X31953Y21114
X31953Y20799
X31953Y20484
X31953Y20169
X31953Y18594
X31953Y18280
X31953Y17335
X31953Y17020
X31953Y16705
X31953Y16390
X31953Y16075
X31953Y15760
X31953Y15445
X31953Y15130
X31953Y14815
X31953Y14500
X31953Y13870
X31953Y13555
X31953Y13240
X31953Y12925
X31953Y12610
X31953Y9657
X15693Y8791
X15616Y9190
X15535Y9775
X15535Y10169
X16293Y10429
X17007Y10445
X17291Y10468
X17897Y10287
X18212Y10287
X18778Y10475
X19204Y10475
X19787Y10287
X20102Y10287
X20671Y10457
X20956Y10466
X21644Y10265
X22028Y10265
X22539Y10491
X22981Y10475
X23567Y10287
X23882Y10287
X24462Y10384
X24846Y10445
X25456Y10287
X25771Y10287
X26401Y10445
X26716Y10445
X27346Y10287
X27661Y10287
X28291Y10445
X28606Y10445
X29236Y10287
X29472Y10523
X29748Y11390
X30063Y11271
X30260Y10996
X30614Y10996
X30702Y11921
X30200Y11941
X30263Y12219
X30161Y13063
X30535Y13201
X30639Y13476
X30742Y12964
X30463Y14290
X30455Y14787
X30141Y14815
X30181Y15208
X30063Y15996
X29468Y16072
X29078Y16114
X28744Y16125
X29000Y15838
X29252Y15678
X29415Y16542
X29431Y16929
X29186Y17089
X29572Y17334
X29482Y18042
X29551Y18319
X29433Y19185
X29236Y19539
X29463Y20100
X29484Y20484
X30285Y20188
X30608Y19967
X30991Y19943
X30570Y21403
X30521Y22053
X30740Y22236
X30178Y22651
X29454Y22844
X29078Y22531
X28834Y22679
X28685Y23358
X28409Y23240
X29631Y23447
X29909Y23321
X30053Y23840
X30368Y23941
X30991Y23385
X27082Y23375
X26784Y23425
X26838Y22786
X27177Y22576
X27774Y21901
X27582Y21665
X27346Y21429
X26519Y21193
X25900Y21089
X25929Y21429
X25619Y21001
X25417Y20799
X25574Y19854
X26008Y19830
X26834Y20090
X27149Y20090
X27293Y19674
X27937Y19775
X27976Y20484
X28204Y20655
X28527Y20012
X28527Y19067
X27582Y18752
X27267Y18752
X27346Y18185
X27267Y17216
X27661Y17216
X27939Y17693
X28653Y17802
X28517Y17045
X28531Y16668
X27464Y16586
X27543Y15867
X27858Y15878
X26970Y15793
X27189Y15012
X27504Y14933
X28134Y15051
X28380Y14906
X28674Y14658
X28311Y14185
X27917Y14185
X27267Y13870
X26952Y13873
X26637Y13870
X26008Y14006
X25741Y14195
X25850Y14736
X26063Y14972
X26213Y14567
X25220Y14736
X25299Y15012
X24433Y15051
X24354Y14697
X24354Y13870
X24669Y13873
X24984Y13909
X25260Y13476
X25260Y13161
X25269Y12876
X25496Y12334
X26086Y12334
X26460Y12571
X26460Y13201
X26027Y13063
X27484Y12925
X27479Y13215
X28311Y13063
X28744Y13201
X28744Y12571
X28370Y12334
X27779Y12334
X27208Y11586
X26701Y11488
X26416Y11488
X24812Y11488
X24526Y11488
X24253Y11572
X24177Y12571
X23803Y12334
X23252Y12334
X22917Y12925
X22912Y13215
X22721Y13885
X22386Y13873
X22071Y13870
X21893Y13201
X21460Y13063
X21559Y12334
X21893Y12571
X22131Y11604
X22636Y11449
X22922Y11488
X21389Y11844
X21032Y11488
X20747Y11488
X20732Y12138
X20682Y12839
X20663Y13516
X20676Y13811
X20663Y14170
X20653Y14657
X20693Y15090
X20313Y15218
X20028Y15238
X19866Y14736
X20004Y14303
X19506Y14414
X19086Y14514
X19061Y14799
X18567Y14815
X18230Y14698
X17831Y14981
X18153Y15327
X18645Y15413
X18712Y15896
X18678Y16232
X18724Y16616
X18724Y16901
X18724Y17453
X18685Y18201
X18882Y18712
X18803Y18988
X18827Y19450
X18791Y20030
X18763Y20799
X18370Y20897
X18360Y21237
X17504Y21468
X17523Y20878
X17577Y20130
X17189Y20051
X16795Y20047
X16145Y20043
X15535Y20169
X15535Y19775
X15535Y19382
X15535Y18988
X15535Y18594
X15535Y18201
X15535Y17807
X15535Y17413
X15535Y17019
X15535Y16626
X15535Y16232
X15535Y15838
X15535Y15445
X15535Y15051
X15771Y14815
X16311Y14982
X16303Y14500
X16578Y14362
X16940Y14402
X17208Y14301
X17868Y14096
X17881Y13811
X17868Y13516
X17897Y13161
X17416Y13304
X16914Y13311
X17071Y12886
X16954Y12560
X17342Y12532
X17011Y12138
X16972Y11586
X17253Y11488
X18015Y11557
X18488Y11557
X18857Y11488
X19142Y11488
X19551Y11547
X19905Y11508
X19492Y12138
X19551Y12571
X19866Y12886
X19728Y13279
X20358Y13279
X20232Y12446
X18488Y12571
X18252Y12138
X19028Y13168
X19069Y13451
X19000Y14027
X19531Y15484
X19602Y16729
X19561Y17334
X19539Y17748
X19571Y18260
X19561Y18830
X19561Y19539
X19561Y20169
X19502Y20833
X20405Y20942
X20429Y21556
X20633Y21757
X21076Y21685
X21126Y21271
X21126Y20986
X21126Y20165
X21112Y19776
X20589Y19775
X20589Y19490
X20875Y19471
X21086Y19224
X21008Y18870
X21121Y18417
X22027Y18424
X22310Y18533
X22189Y18791
X21940Y19108
X21952Y18004
X22100Y17222
X22189Y16823
X22002Y16478
X21716Y15563
X21187Y15547
X21044Y15803
X21008Y14805
X21362Y14512
X21442Y14202
X22110Y14736
X22595Y14750
X22582Y15035
X22743Y16016
X23151Y16059
X23212Y15780
X23488Y16075
X24137Y16099
X24128Y15814
X24571Y16173
X24802Y15957
X25289Y16490
X24396Y16783
X23913Y16787
X24177Y17147
X24511Y17649
X24984Y18122
X24078Y18161
X23606Y19342
X23291Y19303
X23012Y18805
X22543Y18368
X23015Y17177
X21165Y17374
X20929Y16783
X20614Y16842
X20204Y16906
X20328Y16291
X20417Y18890
X21942Y20357
X21952Y20799
X21874Y21429
X21882Y21714
X22014Y22188
X21942Y22465
X22071Y22964
X21618Y23549
X22386Y24104
X23182Y24217
X23507Y24172
X23795Y24214
X24114Y24211
X24428Y24205
X24039Y23319
X23419Y23348
X23133Y23348
X22848Y23358
X22993Y22353
X23055Y22059
X22710Y21547
X22858Y20799
X22700Y20287
X23606Y20208
X23961Y20120
X24236Y19854
X24039Y20996
X23586Y20720
X24748Y21429
X24275Y21901
X24275Y22839
X24669Y23043
X25009Y23442
X25958Y23360
X25141Y22098
X25456Y18645
X25968Y18763
X26190Y18582
X26410Y18763
X26588Y18540
X26441Y17374
X25929Y17177
X25811Y17886
X23726Y14963
X23488Y14618
X23350Y14185
X23645Y14185
X23744Y13063
X24177Y13201
X23960Y8988
X24197Y8791
X24433Y8988
X24669Y8791
X24905Y8988
X25141Y8791
X25378Y8988
X25614Y8791
X25850Y8988
X26086Y8791
X26323Y8988
X26559Y8791
X26795Y8988
X27031Y8791
X27267Y8988
X27504Y8791
X27740Y8988
X27976Y8791
X28212Y8988
X28449Y8791
X28685Y8988
X28921Y8791
X29157Y8988
X29393Y8791
X29826Y8791
X30063Y8988
X30299Y8791
X30535Y8988
X30771Y8791
X31008Y8988
X30704Y9695
X30231Y9695
X29197Y11547
X28591Y11488
X28306Y11488
X28921Y13870
X29236Y13873
X29551Y13870
X29837Y13815
X30939Y16832
X28645Y21193
X28686Y21475
X21205Y22062
X20881Y22393
X20956Y22669
X20632Y22534
X20240Y22984
X19972Y22868
X19682Y22707
X19382Y22694
X19433Y22413
X19669Y21783
X20044Y21518
X20173Y23368
X19502Y23212
X18750Y22905
X18381Y23060
X18362Y22765
X18512Y22361
X18183Y22374
X17689Y22573
X16826Y22371
X16417Y22280
X16480Y22846
X15634Y22925
X15614Y22531
X16204Y23811
X16244Y24264
X17326Y24264
X17966Y23467
X18706Y23564
X19726Y24106
X20732Y23988
X16687Y21428
X16519Y21193
X16344Y20615
X15948Y20602
X15535Y20563
X16661Y19170
X16933Y18830
X17101Y18069
X17907Y18043
X17907Y17334
X17907Y16626
X17907Y15917
X17472Y15533
X17157Y15764
X16657Y15228
X15663Y14136
X16273Y13516
X15948Y12846
X15535Y12689
X15771Y12138
X15574Y11547
X16126Y11350
X15889Y10868
X16525Y11683
X16401Y12472
X16126Y9382
X16169Y8822
X16401Y8988
X16637Y8791
X16874Y8988
X17110Y8791
X17346Y8988
X17582Y8791
X17819Y8988
X18055Y8791
X18291Y8988
X18527Y8791
X18763Y8988
X19000Y8791
X19236Y8988
X19472Y8791
X19708Y8988
X19945Y8791
X20181Y8988
X20417Y8791
X20653Y8988
X20889Y8791
X21126Y8988
X21362Y8791
X21598Y8988
X21834Y8791
X22071Y8988
X22307Y8791
X22543Y8988
X22779Y8791
X23015Y8988
X23252Y8791
X23488Y8988
X23724Y8791
X17386Y19362
X31086Y19519
X31273Y19735
X31952Y19854
X31952Y20169
X31952Y20484
X31952Y20799
X31952Y21114
X31952Y21429
X31952Y21744
X31952Y22059
X31952Y22374
X31952Y22689
X31952Y23004
X31952Y23319
X31874Y23634
X31551Y23319
X31679Y22489
X31714Y21271
X31714Y20327
X31097Y20669
X31124Y18754
X31952Y18909
X31952Y19224
X31952Y19539
X31952Y18594
X31952Y18279
X31952Y17964
X31952Y17649
X31952Y17334
X31952Y17019
X31952Y16704
X31952Y16390
X31952Y16075
X31952Y15760
X31952Y15445
X31952Y15130
X31952Y14815
X31952Y14500
X31952Y14185
X31952Y13870
X31952Y13555
X31952Y13240
X31952Y12925
X31952Y12610
X31124Y12485
X31126Y11783
X31441Y11626
X31586Y11872
X31559Y11311
X31677Y10996
X31756Y10720
X31756Y10327
X31952Y9972
X31952Y9657
X31608Y9687
X31146Y9688
X31244Y8791
X31480Y8988
X31716Y8791
X31913Y9106
X31441Y13161
X31101Y13216
X31669Y16110
X31342Y17699
X31047Y17699
X31323Y24342
X31637Y24342
X31952Y24342
X31008Y24342
X30693Y24342
X30378Y24342
X30063Y24342
X29748Y24342
X29433Y24342
X29118Y24342
X28803Y24342
X28488Y24342
X28173Y24342
X27858Y24342
X27543Y24342
X27228Y24342
X26913Y24342
X26598Y24342
X26283Y24342
X25968Y24342
X25653Y24342
X25338Y24342
X25023Y24342
X22858Y24342
X22543Y24342
X22228Y24342
X21913Y24342
X21598Y24342
X19462Y24316
X18527Y24342
X18212Y24342
X17897Y24342
X15535Y24342
T02
X31953Y18909
T03
X21401Y14893
X23094Y14775
X24826Y14815
X26716Y14775
X27858Y14775
X29039Y14775
X29551Y15248
T04
X15850Y24027
X18992Y23267
X18992Y24067
X20992Y23667
T05
X19346Y40730
X19346Y39746
X19346Y38762
X19346Y37778
X20802Y40730
X20802Y39746
X20802Y38762
X20802Y37778
X22180Y40730
X22180Y39746
X22180Y38762
X22180Y37778
X23164Y40730
X23164Y39746
X23164Y38762
X23164Y37778
X24149Y40730
X24149Y39746
X24149Y38762
X24149Y37778
X25133Y40730
X25133Y39746
X25133Y38762
X25133Y37778
X26117Y40730
X26117Y39746
X26117Y38762
X26117Y37778
X27101Y40730
X27101Y39746
X27101Y38762
X27101Y37778
X28086Y40730
X28086Y39746
X28086Y38762
X28086Y37778
X29070Y40730
X29070Y39746
X29070Y38762
X29070Y37778
X30054Y40730
X30054Y39746
X30054Y38762
X30054Y37778
X31038Y40730
X31038Y39746
X31038Y38762
X31038Y37778
T06
X16806Y37345
X33578Y37345
T07
X15192Y38860
X35192Y38860
T08
X4572Y4242
X45887Y4214
M30
