G04 #@! TF.GenerationSoftware,KiCad,Pcbnew,8.0.9-8.0.9-0~ubuntu24.04.1*
G04 #@! TF.CreationDate,2026-02-09T21:19:24+00:00*
G04 #@! TF.ProjectId,greenecu48,67726565-6e65-4637-9534-382e6b696361,rev?*
G04 #@! TF.SameCoordinates,Original*
G04 #@! TF.FileFunction,Legend,Bot*
G04 #@! TF.FilePolarity,Positive*
%FSLAX46Y46*%
G04 Gerber Fmt 4.6, Leading zero omitted, Abs format (unit mm)*
G04 Created by KiCad (PCBNEW 8.0.9-8.0.9-0~ubuntu24.04.1) date 2026-02-09 21:19:24*
%MOMM*%
%LPD*%
G01*
G04 APERTURE LIST*
%ADD10C,0.127000*%
%ADD11C,0.170000*%
%ADD12C,0.200000*%
%ADD13C,0.120000*%
%ADD14C,0.203200*%
G04 APERTURE END LIST*
D10*
X70901892Y95023553D02*
X71549511Y95023553D01*
X71549511Y95023553D02*
X71625701Y94999363D01*
X71625701Y94999363D02*
X71663797Y94975172D01*
X71663797Y94975172D02*
X71701892Y94926791D01*
X71701892Y94926791D02*
X71701892Y94830029D01*
X71701892Y94830029D02*
X71663797Y94781648D01*
X71663797Y94781648D02*
X71625701Y94757458D01*
X71625701Y94757458D02*
X71549511Y94733267D01*
X71549511Y94733267D02*
X70901892Y94733267D01*
X71663797Y94515554D02*
X71701892Y94442982D01*
X71701892Y94442982D02*
X71701892Y94322030D01*
X71701892Y94322030D02*
X71663797Y94273649D01*
X71663797Y94273649D02*
X71625701Y94249458D01*
X71625701Y94249458D02*
X71549511Y94225268D01*
X71549511Y94225268D02*
X71473320Y94225268D01*
X71473320Y94225268D02*
X71397130Y94249458D01*
X71397130Y94249458D02*
X71359035Y94273649D01*
X71359035Y94273649D02*
X71320939Y94322030D01*
X71320939Y94322030D02*
X71282844Y94418792D01*
X71282844Y94418792D02*
X71244749Y94467173D01*
X71244749Y94467173D02*
X71206654Y94491363D01*
X71206654Y94491363D02*
X71130463Y94515554D01*
X71130463Y94515554D02*
X71054273Y94515554D01*
X71054273Y94515554D02*
X70978082Y94491363D01*
X70978082Y94491363D02*
X70939987Y94467173D01*
X70939987Y94467173D02*
X70901892Y94418792D01*
X70901892Y94418792D02*
X70901892Y94297839D01*
X70901892Y94297839D02*
X70939987Y94225268D01*
X71282844Y93838220D02*
X71320939Y93765648D01*
X71320939Y93765648D02*
X71359035Y93741458D01*
X71359035Y93741458D02*
X71435225Y93717267D01*
X71435225Y93717267D02*
X71549511Y93717267D01*
X71549511Y93717267D02*
X71625701Y93741458D01*
X71625701Y93741458D02*
X71663797Y93765648D01*
X71663797Y93765648D02*
X71701892Y93814029D01*
X71701892Y93814029D02*
X71701892Y94007553D01*
X71701892Y94007553D02*
X70901892Y94007553D01*
X70901892Y94007553D02*
X70901892Y93838220D01*
X70901892Y93838220D02*
X70939987Y93789839D01*
X70939987Y93789839D02*
X70978082Y93765648D01*
X70978082Y93765648D02*
X71054273Y93741458D01*
X71054273Y93741458D02*
X71130463Y93741458D01*
X71130463Y93741458D02*
X71206654Y93765648D01*
X71206654Y93765648D02*
X71244749Y93789839D01*
X71244749Y93789839D02*
X71282844Y93838220D01*
X71282844Y93838220D02*
X71282844Y94007553D01*
X71397130Y93499553D02*
X71397130Y93112505D01*
X62201892Y106484887D02*
X62201892Y106726792D01*
X62201892Y106726792D02*
X61401892Y106726792D01*
X62163797Y106339745D02*
X62201892Y106267173D01*
X62201892Y106267173D02*
X62201892Y106146221D01*
X62201892Y106146221D02*
X62163797Y106097840D01*
X62163797Y106097840D02*
X62125701Y106073649D01*
X62125701Y106073649D02*
X62049511Y106049459D01*
X62049511Y106049459D02*
X61973320Y106049459D01*
X61973320Y106049459D02*
X61897130Y106073649D01*
X61897130Y106073649D02*
X61859035Y106097840D01*
X61859035Y106097840D02*
X61820939Y106146221D01*
X61820939Y106146221D02*
X61782844Y106242983D01*
X61782844Y106242983D02*
X61744749Y106291364D01*
X61744749Y106291364D02*
X61706654Y106315554D01*
X61706654Y106315554D02*
X61630463Y106339745D01*
X61630463Y106339745D02*
X61554273Y106339745D01*
X61554273Y106339745D02*
X61478082Y106315554D01*
X61478082Y106315554D02*
X61439987Y106291364D01*
X61439987Y106291364D02*
X61401892Y106242983D01*
X61401892Y106242983D02*
X61401892Y106122030D01*
X61401892Y106122030D02*
X61439987Y106049459D01*
X61401892Y105831744D02*
X62049511Y105831744D01*
X62049511Y105831744D02*
X62125701Y105807554D01*
X62125701Y105807554D02*
X62163797Y105783363D01*
X62163797Y105783363D02*
X62201892Y105734982D01*
X62201892Y105734982D02*
X62201892Y105638220D01*
X62201892Y105638220D02*
X62163797Y105589839D01*
X62163797Y105589839D02*
X62125701Y105565649D01*
X62125701Y105565649D02*
X62049511Y105541458D01*
X62049511Y105541458D02*
X61401892Y105541458D01*
X62278082Y105420506D02*
X62278082Y105033459D01*
X62201892Y104912506D02*
X61401892Y104912506D01*
X49581892Y109406506D02*
X48781892Y109406506D01*
X48819987Y108898506D02*
X48781892Y108946887D01*
X48781892Y108946887D02*
X48781892Y109019458D01*
X48781892Y109019458D02*
X48819987Y109092030D01*
X48819987Y109092030D02*
X48896177Y109140411D01*
X48896177Y109140411D02*
X48972368Y109164601D01*
X48972368Y109164601D02*
X49124749Y109188792D01*
X49124749Y109188792D02*
X49239035Y109188792D01*
X49239035Y109188792D02*
X49391416Y109164601D01*
X49391416Y109164601D02*
X49467606Y109140411D01*
X49467606Y109140411D02*
X49543797Y109092030D01*
X49543797Y109092030D02*
X49581892Y109019458D01*
X49581892Y109019458D02*
X49581892Y108971077D01*
X49581892Y108971077D02*
X49543797Y108898506D01*
X49543797Y108898506D02*
X49505701Y108874315D01*
X49505701Y108874315D02*
X49239035Y108874315D01*
X49239035Y108874315D02*
X49239035Y108971077D01*
X49581892Y108656601D02*
X48781892Y108656601D01*
X48781892Y108656601D02*
X49581892Y108366315D01*
X49581892Y108366315D02*
X48781892Y108366315D01*
X49581892Y107858316D02*
X49581892Y108148602D01*
X49581892Y108003459D02*
X48781892Y108003459D01*
X48781892Y108003459D02*
X48896177Y108051840D01*
X48896177Y108051840D02*
X48972368Y108100221D01*
X48972368Y108100221D02*
X49010463Y108148602D01*
X71342844Y92435268D02*
X71380939Y92362696D01*
X71380939Y92362696D02*
X71419035Y92338506D01*
X71419035Y92338506D02*
X71495225Y92314315D01*
X71495225Y92314315D02*
X71609511Y92314315D01*
X71609511Y92314315D02*
X71685701Y92338506D01*
X71685701Y92338506D02*
X71723797Y92362696D01*
X71723797Y92362696D02*
X71761892Y92411077D01*
X71761892Y92411077D02*
X71761892Y92604601D01*
X71761892Y92604601D02*
X70961892Y92604601D01*
X70961892Y92604601D02*
X70961892Y92435268D01*
X70961892Y92435268D02*
X70999987Y92386887D01*
X70999987Y92386887D02*
X71038082Y92362696D01*
X71038082Y92362696D02*
X71114273Y92338506D01*
X71114273Y92338506D02*
X71190463Y92338506D01*
X71190463Y92338506D02*
X71266654Y92362696D01*
X71266654Y92362696D02*
X71304749Y92386887D01*
X71304749Y92386887D02*
X71342844Y92435268D01*
X71342844Y92435268D02*
X71342844Y92604601D01*
X70961892Y92096601D02*
X71609511Y92096601D01*
X71609511Y92096601D02*
X71685701Y92072411D01*
X71685701Y92072411D02*
X71723797Y92048220D01*
X71723797Y92048220D02*
X71761892Y91999839D01*
X71761892Y91999839D02*
X71761892Y91903077D01*
X71761892Y91903077D02*
X71723797Y91854696D01*
X71723797Y91854696D02*
X71685701Y91830506D01*
X71685701Y91830506D02*
X71609511Y91806315D01*
X71609511Y91806315D02*
X70961892Y91806315D01*
X70961892Y91612792D02*
X70961892Y91274125D01*
X70961892Y91274125D02*
X71761892Y91612792D01*
X71761892Y91612792D02*
X71761892Y91274125D01*
X65941892Y95072031D02*
X65941892Y94781745D01*
X66741892Y94926888D02*
X65941892Y94926888D01*
X66741892Y94612411D02*
X65941892Y94612411D01*
X65941892Y94612411D02*
X65941892Y94418887D01*
X65941892Y94418887D02*
X65979987Y94370506D01*
X65979987Y94370506D02*
X66018082Y94346316D01*
X66018082Y94346316D02*
X66094273Y94322125D01*
X66094273Y94322125D02*
X66208558Y94322125D01*
X66208558Y94322125D02*
X66284749Y94346316D01*
X66284749Y94346316D02*
X66322844Y94370506D01*
X66322844Y94370506D02*
X66360939Y94418887D01*
X66360939Y94418887D02*
X66360939Y94612411D01*
X66703797Y94128602D02*
X66741892Y94056030D01*
X66741892Y94056030D02*
X66741892Y93935078D01*
X66741892Y93935078D02*
X66703797Y93886697D01*
X66703797Y93886697D02*
X66665701Y93862506D01*
X66665701Y93862506D02*
X66589511Y93838316D01*
X66589511Y93838316D02*
X66513320Y93838316D01*
X66513320Y93838316D02*
X66437130Y93862506D01*
X66437130Y93862506D02*
X66399035Y93886697D01*
X66399035Y93886697D02*
X66360939Y93935078D01*
X66360939Y93935078D02*
X66322844Y94031840D01*
X66322844Y94031840D02*
X66284749Y94080221D01*
X66284749Y94080221D02*
X66246654Y94104411D01*
X66246654Y94104411D02*
X66170463Y94128602D01*
X66170463Y94128602D02*
X66094273Y94128602D01*
X66094273Y94128602D02*
X66018082Y94104411D01*
X66018082Y94104411D02*
X65979987Y94080221D01*
X65979987Y94080221D02*
X65941892Y94031840D01*
X65941892Y94031840D02*
X65941892Y93910887D01*
X65941892Y93910887D02*
X65979987Y93838316D01*
X56711892Y92267555D02*
X56711892Y92557841D01*
X56711892Y92412698D02*
X55911892Y92412698D01*
X55911892Y92412698D02*
X56026177Y92461079D01*
X56026177Y92461079D02*
X56102368Y92509460D01*
X56102368Y92509460D02*
X56140463Y92557841D01*
X55988082Y92074031D02*
X55949987Y92049840D01*
X55949987Y92049840D02*
X55911892Y92001459D01*
X55911892Y92001459D02*
X55911892Y91880507D01*
X55911892Y91880507D02*
X55949987Y91832126D01*
X55949987Y91832126D02*
X55988082Y91807935D01*
X55988082Y91807935D02*
X56064273Y91783745D01*
X56064273Y91783745D02*
X56140463Y91783745D01*
X56140463Y91783745D02*
X56254749Y91807935D01*
X56254749Y91807935D02*
X56711892Y92098221D01*
X56711892Y92098221D02*
X56711892Y91783745D01*
X55911892Y91638602D02*
X56711892Y91469268D01*
X56711892Y91469268D02*
X55911892Y91299935D01*
X78922844Y94984220D02*
X78922844Y94814887D01*
X79341892Y94742315D02*
X79341892Y94984220D01*
X79341892Y94984220D02*
X78541892Y94984220D01*
X78541892Y94984220D02*
X78541892Y94742315D01*
X78579987Y94258506D02*
X78541892Y94306887D01*
X78541892Y94306887D02*
X78541892Y94379458D01*
X78541892Y94379458D02*
X78579987Y94452030D01*
X78579987Y94452030D02*
X78656177Y94500411D01*
X78656177Y94500411D02*
X78732368Y94524601D01*
X78732368Y94524601D02*
X78884749Y94548792D01*
X78884749Y94548792D02*
X78999035Y94548792D01*
X78999035Y94548792D02*
X79151416Y94524601D01*
X79151416Y94524601D02*
X79227606Y94500411D01*
X79227606Y94500411D02*
X79303797Y94452030D01*
X79303797Y94452030D02*
X79341892Y94379458D01*
X79341892Y94379458D02*
X79341892Y94331077D01*
X79341892Y94331077D02*
X79303797Y94258506D01*
X79303797Y94258506D02*
X79265701Y94234315D01*
X79265701Y94234315D02*
X78999035Y94234315D01*
X78999035Y94234315D02*
X78999035Y94331077D01*
X78541892Y94089173D02*
X78541892Y93798887D01*
X79341892Y93944030D02*
X78541892Y93944030D01*
X79037130Y93629553D02*
X79037130Y93242505D01*
X79341892Y93436029D02*
X78732368Y93436029D01*
X78339987Y106498125D02*
X78301892Y106546506D01*
X78301892Y106546506D02*
X78301892Y106619077D01*
X78301892Y106619077D02*
X78339987Y106691649D01*
X78339987Y106691649D02*
X78416177Y106740030D01*
X78416177Y106740030D02*
X78492368Y106764220D01*
X78492368Y106764220D02*
X78644749Y106788411D01*
X78644749Y106788411D02*
X78759035Y106788411D01*
X78759035Y106788411D02*
X78911416Y106764220D01*
X78911416Y106764220D02*
X78987606Y106740030D01*
X78987606Y106740030D02*
X79063797Y106691649D01*
X79063797Y106691649D02*
X79101892Y106619077D01*
X79101892Y106619077D02*
X79101892Y106570696D01*
X79101892Y106570696D02*
X79063797Y106498125D01*
X79063797Y106498125D02*
X79025701Y106473934D01*
X79025701Y106473934D02*
X78759035Y106473934D01*
X78759035Y106473934D02*
X78759035Y106570696D01*
X79101892Y106256220D02*
X78301892Y106256220D01*
X78301892Y106256220D02*
X79101892Y105965934D01*
X79101892Y105965934D02*
X78301892Y105965934D01*
X79101892Y105724030D02*
X78301892Y105724030D01*
X78301892Y105724030D02*
X78301892Y105603078D01*
X78301892Y105603078D02*
X78339987Y105530506D01*
X78339987Y105530506D02*
X78416177Y105482125D01*
X78416177Y105482125D02*
X78492368Y105457935D01*
X78492368Y105457935D02*
X78644749Y105433744D01*
X78644749Y105433744D02*
X78759035Y105433744D01*
X78759035Y105433744D02*
X78911416Y105457935D01*
X78911416Y105457935D02*
X78987606Y105482125D01*
X78987606Y105482125D02*
X79063797Y105530506D01*
X79063797Y105530506D02*
X79101892Y105603078D01*
X79101892Y105603078D02*
X79101892Y105724030D01*
X78873320Y105240221D02*
X78873320Y104998316D01*
X79101892Y105288602D02*
X78301892Y105119268D01*
X78301892Y105119268D02*
X79101892Y104949935D01*
X61721892Y94924601D02*
X60921892Y94924601D01*
X60921892Y94924601D02*
X61493320Y94755268D01*
X61493320Y94755268D02*
X60921892Y94585934D01*
X60921892Y94585934D02*
X61721892Y94585934D01*
X61493320Y94368221D02*
X61493320Y94126316D01*
X61721892Y94416602D02*
X60921892Y94247268D01*
X60921892Y94247268D02*
X61721892Y94077935D01*
X61721892Y93908601D02*
X60921892Y93908601D01*
X60921892Y93908601D02*
X60921892Y93715077D01*
X60921892Y93715077D02*
X60959987Y93666696D01*
X60959987Y93666696D02*
X60998082Y93642506D01*
X60998082Y93642506D02*
X61074273Y93618315D01*
X61074273Y93618315D02*
X61188558Y93618315D01*
X61188558Y93618315D02*
X61264749Y93642506D01*
X61264749Y93642506D02*
X61302844Y93666696D01*
X61302844Y93666696D02*
X61340939Y93715077D01*
X61340939Y93715077D02*
X61340939Y93908601D01*
X64221892Y109170982D02*
X64221892Y109412887D01*
X64221892Y109412887D02*
X63421892Y109412887D01*
X64183797Y109025840D02*
X64221892Y108953268D01*
X64221892Y108953268D02*
X64221892Y108832316D01*
X64221892Y108832316D02*
X64183797Y108783935D01*
X64183797Y108783935D02*
X64145701Y108759744D01*
X64145701Y108759744D02*
X64069511Y108735554D01*
X64069511Y108735554D02*
X63993320Y108735554D01*
X63993320Y108735554D02*
X63917130Y108759744D01*
X63917130Y108759744D02*
X63879035Y108783935D01*
X63879035Y108783935D02*
X63840939Y108832316D01*
X63840939Y108832316D02*
X63802844Y108929078D01*
X63802844Y108929078D02*
X63764749Y108977459D01*
X63764749Y108977459D02*
X63726654Y109001649D01*
X63726654Y109001649D02*
X63650463Y109025840D01*
X63650463Y109025840D02*
X63574273Y109025840D01*
X63574273Y109025840D02*
X63498082Y109001649D01*
X63498082Y109001649D02*
X63459987Y108977459D01*
X63459987Y108977459D02*
X63421892Y108929078D01*
X63421892Y108929078D02*
X63421892Y108808125D01*
X63421892Y108808125D02*
X63459987Y108735554D01*
X63421892Y108517839D02*
X64069511Y108517839D01*
X64069511Y108517839D02*
X64145701Y108493649D01*
X64145701Y108493649D02*
X64183797Y108469458D01*
X64183797Y108469458D02*
X64221892Y108421077D01*
X64221892Y108421077D02*
X64221892Y108324315D01*
X64221892Y108324315D02*
X64183797Y108275934D01*
X64183797Y108275934D02*
X64145701Y108251744D01*
X64145701Y108251744D02*
X64069511Y108227553D01*
X64069511Y108227553D02*
X63421892Y108227553D01*
X64298082Y108106601D02*
X64298082Y107719554D01*
X64221892Y107308315D02*
X63840939Y107477649D01*
X64221892Y107598601D02*
X63421892Y107598601D01*
X63421892Y107598601D02*
X63421892Y107405077D01*
X63421892Y107405077D02*
X63459987Y107356696D01*
X63459987Y107356696D02*
X63498082Y107332506D01*
X63498082Y107332506D02*
X63574273Y107308315D01*
X63574273Y107308315D02*
X63688558Y107308315D01*
X63688558Y107308315D02*
X63764749Y107332506D01*
X63764749Y107332506D02*
X63802844Y107356696D01*
X63802844Y107356696D02*
X63840939Y107405077D01*
X63840939Y107405077D02*
X63840939Y107598601D01*
X57011892Y109393935D02*
X56211892Y109393935D01*
X57011892Y109152030D02*
X56211892Y109152030D01*
X56211892Y109152030D02*
X57011892Y108861744D01*
X57011892Y108861744D02*
X56211892Y108861744D01*
X56630939Y108523078D02*
X57011892Y108523078D01*
X56211892Y108692412D02*
X56630939Y108523078D01*
X56630939Y108523078D02*
X56211892Y108353745D01*
X57011892Y107918316D02*
X57011892Y108208602D01*
X57011892Y108063459D02*
X56211892Y108063459D01*
X56211892Y108063459D02*
X56326177Y108111840D01*
X56326177Y108111840D02*
X56402368Y108160221D01*
X56402368Y108160221D02*
X56440463Y108208602D01*
X73289987Y106368125D02*
X73251892Y106416506D01*
X73251892Y106416506D02*
X73251892Y106489077D01*
X73251892Y106489077D02*
X73289987Y106561649D01*
X73289987Y106561649D02*
X73366177Y106610030D01*
X73366177Y106610030D02*
X73442368Y106634220D01*
X73442368Y106634220D02*
X73594749Y106658411D01*
X73594749Y106658411D02*
X73709035Y106658411D01*
X73709035Y106658411D02*
X73861416Y106634220D01*
X73861416Y106634220D02*
X73937606Y106610030D01*
X73937606Y106610030D02*
X74013797Y106561649D01*
X74013797Y106561649D02*
X74051892Y106489077D01*
X74051892Y106489077D02*
X74051892Y106440696D01*
X74051892Y106440696D02*
X74013797Y106368125D01*
X74013797Y106368125D02*
X73975701Y106343934D01*
X73975701Y106343934D02*
X73709035Y106343934D01*
X73709035Y106343934D02*
X73709035Y106440696D01*
X74051892Y106126220D02*
X73251892Y106126220D01*
X73251892Y106126220D02*
X74051892Y105835934D01*
X74051892Y105835934D02*
X73251892Y105835934D01*
X74051892Y105594030D02*
X73251892Y105594030D01*
X73251892Y105594030D02*
X73251892Y105473078D01*
X73251892Y105473078D02*
X73289987Y105400506D01*
X73289987Y105400506D02*
X73366177Y105352125D01*
X73366177Y105352125D02*
X73442368Y105327935D01*
X73442368Y105327935D02*
X73594749Y105303744D01*
X73594749Y105303744D02*
X73709035Y105303744D01*
X73709035Y105303744D02*
X73861416Y105327935D01*
X73861416Y105327935D02*
X73937606Y105352125D01*
X73937606Y105352125D02*
X74013797Y105400506D01*
X74013797Y105400506D02*
X74051892Y105473078D01*
X74051892Y105473078D02*
X74051892Y105594030D01*
X73823320Y105110221D02*
X73823320Y104868316D01*
X74051892Y105158602D02*
X73251892Y104989268D01*
X73251892Y104989268D02*
X74051892Y104819935D01*
X68251892Y106447935D02*
X68251892Y106689840D01*
X68251892Y106689840D02*
X68632844Y106714031D01*
X68632844Y106714031D02*
X68594749Y106689840D01*
X68594749Y106689840D02*
X68556654Y106641459D01*
X68556654Y106641459D02*
X68556654Y106520507D01*
X68556654Y106520507D02*
X68594749Y106472126D01*
X68594749Y106472126D02*
X68632844Y106447935D01*
X68632844Y106447935D02*
X68709035Y106423745D01*
X68709035Y106423745D02*
X68899511Y106423745D01*
X68899511Y106423745D02*
X68975701Y106447935D01*
X68975701Y106447935D02*
X69013797Y106472126D01*
X69013797Y106472126D02*
X69051892Y106520507D01*
X69051892Y106520507D02*
X69051892Y106641459D01*
X69051892Y106641459D02*
X69013797Y106689840D01*
X69013797Y106689840D02*
X68975701Y106714031D01*
X68251892Y106278602D02*
X69051892Y106109268D01*
X69051892Y106109268D02*
X68251892Y105939935D01*
X76422844Y92462316D02*
X76460939Y92389744D01*
X76460939Y92389744D02*
X76499035Y92365554D01*
X76499035Y92365554D02*
X76575225Y92341363D01*
X76575225Y92341363D02*
X76689511Y92341363D01*
X76689511Y92341363D02*
X76765701Y92365554D01*
X76765701Y92365554D02*
X76803797Y92389744D01*
X76803797Y92389744D02*
X76841892Y92438125D01*
X76841892Y92438125D02*
X76841892Y92631649D01*
X76841892Y92631649D02*
X76041892Y92631649D01*
X76041892Y92631649D02*
X76041892Y92462316D01*
X76041892Y92462316D02*
X76079987Y92413935D01*
X76079987Y92413935D02*
X76118082Y92389744D01*
X76118082Y92389744D02*
X76194273Y92365554D01*
X76194273Y92365554D02*
X76270463Y92365554D01*
X76270463Y92365554D02*
X76346654Y92389744D01*
X76346654Y92389744D02*
X76384749Y92413935D01*
X76384749Y92413935D02*
X76422844Y92462316D01*
X76422844Y92462316D02*
X76422844Y92631649D01*
X76041892Y92026887D02*
X76041892Y91930125D01*
X76041892Y91930125D02*
X76079987Y91881744D01*
X76079987Y91881744D02*
X76156177Y91833363D01*
X76156177Y91833363D02*
X76308558Y91809173D01*
X76308558Y91809173D02*
X76575225Y91809173D01*
X76575225Y91809173D02*
X76727606Y91833363D01*
X76727606Y91833363D02*
X76803797Y91881744D01*
X76803797Y91881744D02*
X76841892Y91930125D01*
X76841892Y91930125D02*
X76841892Y92026887D01*
X76841892Y92026887D02*
X76803797Y92075268D01*
X76803797Y92075268D02*
X76727606Y92123649D01*
X76727606Y92123649D02*
X76575225Y92147840D01*
X76575225Y92147840D02*
X76308558Y92147840D01*
X76308558Y92147840D02*
X76156177Y92123649D01*
X76156177Y92123649D02*
X76079987Y92075268D01*
X76079987Y92075268D02*
X76041892Y92026887D01*
X76803797Y91615650D02*
X76841892Y91543078D01*
X76841892Y91543078D02*
X76841892Y91422126D01*
X76841892Y91422126D02*
X76803797Y91373745D01*
X76803797Y91373745D02*
X76765701Y91349554D01*
X76765701Y91349554D02*
X76689511Y91325364D01*
X76689511Y91325364D02*
X76613320Y91325364D01*
X76613320Y91325364D02*
X76537130Y91349554D01*
X76537130Y91349554D02*
X76499035Y91373745D01*
X76499035Y91373745D02*
X76460939Y91422126D01*
X76460939Y91422126D02*
X76422844Y91518888D01*
X76422844Y91518888D02*
X76384749Y91567269D01*
X76384749Y91567269D02*
X76346654Y91591459D01*
X76346654Y91591459D02*
X76270463Y91615650D01*
X76270463Y91615650D02*
X76194273Y91615650D01*
X76194273Y91615650D02*
X76118082Y91591459D01*
X76118082Y91591459D02*
X76079987Y91567269D01*
X76079987Y91567269D02*
X76041892Y91518888D01*
X76041892Y91518888D02*
X76041892Y91397935D01*
X76041892Y91397935D02*
X76079987Y91325364D01*
X76041892Y91180221D02*
X76041892Y90889935D01*
X76841892Y91035078D02*
X76041892Y91035078D01*
X73401892Y92583553D02*
X74049511Y92583553D01*
X74049511Y92583553D02*
X74125701Y92559363D01*
X74125701Y92559363D02*
X74163797Y92535172D01*
X74163797Y92535172D02*
X74201892Y92486791D01*
X74201892Y92486791D02*
X74201892Y92390029D01*
X74201892Y92390029D02*
X74163797Y92341648D01*
X74163797Y92341648D02*
X74125701Y92317458D01*
X74125701Y92317458D02*
X74049511Y92293267D01*
X74049511Y92293267D02*
X73401892Y92293267D01*
X74163797Y92075554D02*
X74201892Y92002982D01*
X74201892Y92002982D02*
X74201892Y91882030D01*
X74201892Y91882030D02*
X74163797Y91833649D01*
X74163797Y91833649D02*
X74125701Y91809458D01*
X74125701Y91809458D02*
X74049511Y91785268D01*
X74049511Y91785268D02*
X73973320Y91785268D01*
X73973320Y91785268D02*
X73897130Y91809458D01*
X73897130Y91809458D02*
X73859035Y91833649D01*
X73859035Y91833649D02*
X73820939Y91882030D01*
X73820939Y91882030D02*
X73782844Y91978792D01*
X73782844Y91978792D02*
X73744749Y92027173D01*
X73744749Y92027173D02*
X73706654Y92051363D01*
X73706654Y92051363D02*
X73630463Y92075554D01*
X73630463Y92075554D02*
X73554273Y92075554D01*
X73554273Y92075554D02*
X73478082Y92051363D01*
X73478082Y92051363D02*
X73439987Y92027173D01*
X73439987Y92027173D02*
X73401892Y91978792D01*
X73401892Y91978792D02*
X73401892Y91857839D01*
X73401892Y91857839D02*
X73439987Y91785268D01*
X73782844Y91398220D02*
X73820939Y91325648D01*
X73820939Y91325648D02*
X73859035Y91301458D01*
X73859035Y91301458D02*
X73935225Y91277267D01*
X73935225Y91277267D02*
X74049511Y91277267D01*
X74049511Y91277267D02*
X74125701Y91301458D01*
X74125701Y91301458D02*
X74163797Y91325648D01*
X74163797Y91325648D02*
X74201892Y91374029D01*
X74201892Y91374029D02*
X74201892Y91567553D01*
X74201892Y91567553D02*
X73401892Y91567553D01*
X73401892Y91567553D02*
X73401892Y91398220D01*
X73401892Y91398220D02*
X73439987Y91349839D01*
X73439987Y91349839D02*
X73478082Y91325648D01*
X73478082Y91325648D02*
X73554273Y91301458D01*
X73554273Y91301458D02*
X73630463Y91301458D01*
X73630463Y91301458D02*
X73706654Y91325648D01*
X73706654Y91325648D02*
X73744749Y91349839D01*
X73744749Y91349839D02*
X73782844Y91398220D01*
X73782844Y91398220D02*
X73782844Y91567553D01*
X73897130Y91059553D02*
X73897130Y90672505D01*
X74201892Y90866029D02*
X73592368Y90866029D01*
X75849987Y109118125D02*
X75811892Y109166506D01*
X75811892Y109166506D02*
X75811892Y109239077D01*
X75811892Y109239077D02*
X75849987Y109311649D01*
X75849987Y109311649D02*
X75926177Y109360030D01*
X75926177Y109360030D02*
X76002368Y109384220D01*
X76002368Y109384220D02*
X76154749Y109408411D01*
X76154749Y109408411D02*
X76269035Y109408411D01*
X76269035Y109408411D02*
X76421416Y109384220D01*
X76421416Y109384220D02*
X76497606Y109360030D01*
X76497606Y109360030D02*
X76573797Y109311649D01*
X76573797Y109311649D02*
X76611892Y109239077D01*
X76611892Y109239077D02*
X76611892Y109190696D01*
X76611892Y109190696D02*
X76573797Y109118125D01*
X76573797Y109118125D02*
X76535701Y109093934D01*
X76535701Y109093934D02*
X76269035Y109093934D01*
X76269035Y109093934D02*
X76269035Y109190696D01*
X76611892Y108876220D02*
X75811892Y108876220D01*
X75811892Y108876220D02*
X76611892Y108585934D01*
X76611892Y108585934D02*
X75811892Y108585934D01*
X76611892Y108344030D02*
X75811892Y108344030D01*
X75811892Y108344030D02*
X75811892Y108223078D01*
X75811892Y108223078D02*
X75849987Y108150506D01*
X75849987Y108150506D02*
X75926177Y108102125D01*
X75926177Y108102125D02*
X76002368Y108077935D01*
X76002368Y108077935D02*
X76154749Y108053744D01*
X76154749Y108053744D02*
X76269035Y108053744D01*
X76269035Y108053744D02*
X76421416Y108077935D01*
X76421416Y108077935D02*
X76497606Y108102125D01*
X76497606Y108102125D02*
X76573797Y108150506D01*
X76573797Y108150506D02*
X76611892Y108223078D01*
X76611892Y108223078D02*
X76611892Y108344030D01*
X76383320Y107860221D02*
X76383320Y107618316D01*
X76611892Y107908602D02*
X75811892Y107739268D01*
X75811892Y107739268D02*
X76611892Y107569935D01*
X74215701Y94688124D02*
X74253797Y94712315D01*
X74253797Y94712315D02*
X74291892Y94784886D01*
X74291892Y94784886D02*
X74291892Y94833267D01*
X74291892Y94833267D02*
X74253797Y94905839D01*
X74253797Y94905839D02*
X74177606Y94954220D01*
X74177606Y94954220D02*
X74101416Y94978410D01*
X74101416Y94978410D02*
X73949035Y95002601D01*
X73949035Y95002601D02*
X73834749Y95002601D01*
X73834749Y95002601D02*
X73682368Y94978410D01*
X73682368Y94978410D02*
X73606177Y94954220D01*
X73606177Y94954220D02*
X73529987Y94905839D01*
X73529987Y94905839D02*
X73491892Y94833267D01*
X73491892Y94833267D02*
X73491892Y94784886D01*
X73491892Y94784886D02*
X73529987Y94712315D01*
X73529987Y94712315D02*
X73568082Y94688124D01*
X74063320Y94494601D02*
X74063320Y94252696D01*
X74291892Y94542982D02*
X73491892Y94373648D01*
X73491892Y94373648D02*
X74291892Y94204315D01*
X74291892Y94034981D02*
X73491892Y94034981D01*
X73491892Y94034981D02*
X74291892Y93744695D01*
X74291892Y93744695D02*
X73491892Y93744695D01*
X74291892Y93502791D02*
X73491892Y93502791D01*
X73872844Y93502791D02*
X73872844Y93212505D01*
X74291892Y93212505D02*
X73491892Y93212505D01*
X75969987Y106498125D02*
X75931892Y106546506D01*
X75931892Y106546506D02*
X75931892Y106619077D01*
X75931892Y106619077D02*
X75969987Y106691649D01*
X75969987Y106691649D02*
X76046177Y106740030D01*
X76046177Y106740030D02*
X76122368Y106764220D01*
X76122368Y106764220D02*
X76274749Y106788411D01*
X76274749Y106788411D02*
X76389035Y106788411D01*
X76389035Y106788411D02*
X76541416Y106764220D01*
X76541416Y106764220D02*
X76617606Y106740030D01*
X76617606Y106740030D02*
X76693797Y106691649D01*
X76693797Y106691649D02*
X76731892Y106619077D01*
X76731892Y106619077D02*
X76731892Y106570696D01*
X76731892Y106570696D02*
X76693797Y106498125D01*
X76693797Y106498125D02*
X76655701Y106473934D01*
X76655701Y106473934D02*
X76389035Y106473934D01*
X76389035Y106473934D02*
X76389035Y106570696D01*
X76731892Y106256220D02*
X75931892Y106256220D01*
X75931892Y106256220D02*
X76731892Y105965934D01*
X76731892Y105965934D02*
X75931892Y105965934D01*
X76731892Y105724030D02*
X75931892Y105724030D01*
X75931892Y105724030D02*
X75931892Y105603078D01*
X75931892Y105603078D02*
X75969987Y105530506D01*
X75969987Y105530506D02*
X76046177Y105482125D01*
X76046177Y105482125D02*
X76122368Y105457935D01*
X76122368Y105457935D02*
X76274749Y105433744D01*
X76274749Y105433744D02*
X76389035Y105433744D01*
X76389035Y105433744D02*
X76541416Y105457935D01*
X76541416Y105457935D02*
X76617606Y105482125D01*
X76617606Y105482125D02*
X76693797Y105530506D01*
X76693797Y105530506D02*
X76731892Y105603078D01*
X76731892Y105603078D02*
X76731892Y105724030D01*
X76503320Y105240221D02*
X76503320Y104998316D01*
X76731892Y105288602D02*
X75931892Y105119268D01*
X75931892Y105119268D02*
X76731892Y104949935D01*
X71415701Y106377172D02*
X71453797Y106401363D01*
X71453797Y106401363D02*
X71491892Y106473934D01*
X71491892Y106473934D02*
X71491892Y106522315D01*
X71491892Y106522315D02*
X71453797Y106594887D01*
X71453797Y106594887D02*
X71377606Y106643268D01*
X71377606Y106643268D02*
X71301416Y106667458D01*
X71301416Y106667458D02*
X71149035Y106691649D01*
X71149035Y106691649D02*
X71034749Y106691649D01*
X71034749Y106691649D02*
X70882368Y106667458D01*
X70882368Y106667458D02*
X70806177Y106643268D01*
X70806177Y106643268D02*
X70729987Y106594887D01*
X70729987Y106594887D02*
X70691892Y106522315D01*
X70691892Y106522315D02*
X70691892Y106473934D01*
X70691892Y106473934D02*
X70729987Y106401363D01*
X70729987Y106401363D02*
X70768082Y106377172D01*
X71263320Y106183649D02*
X71263320Y105941744D01*
X71491892Y106232030D02*
X70691892Y106062696D01*
X70691892Y106062696D02*
X71491892Y105893363D01*
X71491892Y105724029D02*
X70691892Y105724029D01*
X70691892Y105724029D02*
X71491892Y105433743D01*
X71491892Y105433743D02*
X70691892Y105433743D01*
X71491892Y104949934D02*
X71491892Y105191839D01*
X71491892Y105191839D02*
X70691892Y105191839D01*
X49481892Y94826506D02*
X48681892Y94826506D01*
X48719987Y94318506D02*
X48681892Y94366887D01*
X48681892Y94366887D02*
X48681892Y94439458D01*
X48681892Y94439458D02*
X48719987Y94512030D01*
X48719987Y94512030D02*
X48796177Y94560411D01*
X48796177Y94560411D02*
X48872368Y94584601D01*
X48872368Y94584601D02*
X49024749Y94608792D01*
X49024749Y94608792D02*
X49139035Y94608792D01*
X49139035Y94608792D02*
X49291416Y94584601D01*
X49291416Y94584601D02*
X49367606Y94560411D01*
X49367606Y94560411D02*
X49443797Y94512030D01*
X49443797Y94512030D02*
X49481892Y94439458D01*
X49481892Y94439458D02*
X49481892Y94391077D01*
X49481892Y94391077D02*
X49443797Y94318506D01*
X49443797Y94318506D02*
X49405701Y94294315D01*
X49405701Y94294315D02*
X49139035Y94294315D01*
X49139035Y94294315D02*
X49139035Y94391077D01*
X49481892Y94076601D02*
X48681892Y94076601D01*
X48681892Y94076601D02*
X49481892Y93786315D01*
X49481892Y93786315D02*
X48681892Y93786315D01*
X48681892Y93302506D02*
X48681892Y93544411D01*
X48681892Y93544411D02*
X49062844Y93568602D01*
X49062844Y93568602D02*
X49024749Y93544411D01*
X49024749Y93544411D02*
X48986654Y93496030D01*
X48986654Y93496030D02*
X48986654Y93375078D01*
X48986654Y93375078D02*
X49024749Y93326697D01*
X49024749Y93326697D02*
X49062844Y93302506D01*
X49062844Y93302506D02*
X49139035Y93278316D01*
X49139035Y93278316D02*
X49329511Y93278316D01*
X49329511Y93278316D02*
X49405701Y93302506D01*
X49405701Y93302506D02*
X49443797Y93326697D01*
X49443797Y93326697D02*
X49481892Y93375078D01*
X49481892Y93375078D02*
X49481892Y93496030D01*
X49481892Y93496030D02*
X49443797Y93544411D01*
X49443797Y93544411D02*
X49405701Y93568602D01*
X64271892Y94994983D02*
X63471892Y94994983D01*
X64043320Y94777269D02*
X64043320Y94535364D01*
X64271892Y94825650D02*
X63471892Y94656316D01*
X63471892Y94656316D02*
X64271892Y94486983D01*
X63471892Y94390221D02*
X63471892Y94099935D01*
X64271892Y94245078D02*
X63471892Y94245078D01*
X59321892Y94913935D02*
X58521892Y94913935D01*
X59321892Y94672030D02*
X58521892Y94672030D01*
X58521892Y94672030D02*
X59321892Y94381744D01*
X59321892Y94381744D02*
X58521892Y94381744D01*
X58940939Y94043078D02*
X59321892Y94043078D01*
X58521892Y94212412D02*
X58940939Y94043078D01*
X58940939Y94043078D02*
X58521892Y93873745D01*
X58521892Y93486697D02*
X58521892Y93583459D01*
X58521892Y93583459D02*
X58559987Y93631840D01*
X58559987Y93631840D02*
X58598082Y93656030D01*
X58598082Y93656030D02*
X58712368Y93704411D01*
X58712368Y93704411D02*
X58864749Y93728602D01*
X58864749Y93728602D02*
X59169511Y93728602D01*
X59169511Y93728602D02*
X59245701Y93704411D01*
X59245701Y93704411D02*
X59283797Y93680221D01*
X59283797Y93680221D02*
X59321892Y93631840D01*
X59321892Y93631840D02*
X59321892Y93535078D01*
X59321892Y93535078D02*
X59283797Y93486697D01*
X59283797Y93486697D02*
X59245701Y93462506D01*
X59245701Y93462506D02*
X59169511Y93438316D01*
X59169511Y93438316D02*
X58979035Y93438316D01*
X58979035Y93438316D02*
X58902844Y93462506D01*
X58902844Y93462506D02*
X58864749Y93486697D01*
X58864749Y93486697D02*
X58826654Y93535078D01*
X58826654Y93535078D02*
X58826654Y93631840D01*
X58826654Y93631840D02*
X58864749Y93680221D01*
X58864749Y93680221D02*
X58902844Y93704411D01*
X58902844Y93704411D02*
X58979035Y93728602D01*
X59381892Y109423935D02*
X58581892Y109423935D01*
X59381892Y109182030D02*
X58581892Y109182030D01*
X58581892Y109182030D02*
X59381892Y108891744D01*
X59381892Y108891744D02*
X58581892Y108891744D01*
X59000939Y108553078D02*
X59381892Y108553078D01*
X58581892Y108722412D02*
X59000939Y108553078D01*
X59000939Y108553078D02*
X58581892Y108383745D01*
X58658082Y108238602D02*
X58619987Y108214411D01*
X58619987Y108214411D02*
X58581892Y108166030D01*
X58581892Y108166030D02*
X58581892Y108045078D01*
X58581892Y108045078D02*
X58619987Y107996697D01*
X58619987Y107996697D02*
X58658082Y107972506D01*
X58658082Y107972506D02*
X58734273Y107948316D01*
X58734273Y107948316D02*
X58810463Y107948316D01*
X58810463Y107948316D02*
X58924749Y107972506D01*
X58924749Y107972506D02*
X59381892Y108262792D01*
X59381892Y108262792D02*
X59381892Y107948316D01*
X64035701Y92276601D02*
X64073797Y92300792D01*
X64073797Y92300792D02*
X64111892Y92373363D01*
X64111892Y92373363D02*
X64111892Y92421744D01*
X64111892Y92421744D02*
X64073797Y92494316D01*
X64073797Y92494316D02*
X63997606Y92542697D01*
X63997606Y92542697D02*
X63921416Y92566887D01*
X63921416Y92566887D02*
X63769035Y92591078D01*
X63769035Y92591078D02*
X63654749Y92591078D01*
X63654749Y92591078D02*
X63502368Y92566887D01*
X63502368Y92566887D02*
X63426177Y92542697D01*
X63426177Y92542697D02*
X63349987Y92494316D01*
X63349987Y92494316D02*
X63311892Y92421744D01*
X63311892Y92421744D02*
X63311892Y92373363D01*
X63311892Y92373363D02*
X63349987Y92300792D01*
X63349987Y92300792D02*
X63388082Y92276601D01*
X64111892Y91816982D02*
X64111892Y92058887D01*
X64111892Y92058887D02*
X63311892Y92058887D01*
X63311892Y91720221D02*
X63311892Y91429935D01*
X64111892Y91575078D02*
X63311892Y91575078D01*
X66651892Y109307077D02*
X66651892Y109548982D01*
X66651892Y109548982D02*
X65851892Y109548982D01*
X66613797Y109161935D02*
X66651892Y109089363D01*
X66651892Y109089363D02*
X66651892Y108968411D01*
X66651892Y108968411D02*
X66613797Y108920030D01*
X66613797Y108920030D02*
X66575701Y108895839D01*
X66575701Y108895839D02*
X66499511Y108871649D01*
X66499511Y108871649D02*
X66423320Y108871649D01*
X66423320Y108871649D02*
X66347130Y108895839D01*
X66347130Y108895839D02*
X66309035Y108920030D01*
X66309035Y108920030D02*
X66270939Y108968411D01*
X66270939Y108968411D02*
X66232844Y109065173D01*
X66232844Y109065173D02*
X66194749Y109113554D01*
X66194749Y109113554D02*
X66156654Y109137744D01*
X66156654Y109137744D02*
X66080463Y109161935D01*
X66080463Y109161935D02*
X66004273Y109161935D01*
X66004273Y109161935D02*
X65928082Y109137744D01*
X65928082Y109137744D02*
X65889987Y109113554D01*
X65889987Y109113554D02*
X65851892Y109065173D01*
X65851892Y109065173D02*
X65851892Y108944220D01*
X65851892Y108944220D02*
X65889987Y108871649D01*
X65851892Y108653934D02*
X66499511Y108653934D01*
X66499511Y108653934D02*
X66575701Y108629744D01*
X66575701Y108629744D02*
X66613797Y108605553D01*
X66613797Y108605553D02*
X66651892Y108557172D01*
X66651892Y108557172D02*
X66651892Y108460410D01*
X66651892Y108460410D02*
X66613797Y108412029D01*
X66613797Y108412029D02*
X66575701Y108387839D01*
X66575701Y108387839D02*
X66499511Y108363648D01*
X66499511Y108363648D02*
X65851892Y108363648D01*
X66728082Y108242696D02*
X66728082Y107855649D01*
X65851892Y107734696D02*
X66499511Y107734696D01*
X66499511Y107734696D02*
X66575701Y107710506D01*
X66575701Y107710506D02*
X66613797Y107686315D01*
X66613797Y107686315D02*
X66651892Y107637934D01*
X66651892Y107637934D02*
X66651892Y107541172D01*
X66651892Y107541172D02*
X66613797Y107492791D01*
X66613797Y107492791D02*
X66575701Y107468601D01*
X66575701Y107468601D02*
X66499511Y107444410D01*
X66499511Y107444410D02*
X65851892Y107444410D01*
X66651892Y107202506D02*
X65851892Y107202506D01*
X66545701Y106445267D02*
X66583797Y106469458D01*
X66583797Y106469458D02*
X66621892Y106542029D01*
X66621892Y106542029D02*
X66621892Y106590410D01*
X66621892Y106590410D02*
X66583797Y106662982D01*
X66583797Y106662982D02*
X66507606Y106711363D01*
X66507606Y106711363D02*
X66431416Y106735553D01*
X66431416Y106735553D02*
X66279035Y106759744D01*
X66279035Y106759744D02*
X66164749Y106759744D01*
X66164749Y106759744D02*
X66012368Y106735553D01*
X66012368Y106735553D02*
X65936177Y106711363D01*
X65936177Y106711363D02*
X65859987Y106662982D01*
X65859987Y106662982D02*
X65821892Y106590410D01*
X65821892Y106590410D02*
X65821892Y106542029D01*
X65821892Y106542029D02*
X65859987Y106469458D01*
X65859987Y106469458D02*
X65898082Y106445267D01*
X66621892Y106227553D02*
X65821892Y106227553D01*
X66621892Y105937267D02*
X66164749Y106154982D01*
X65821892Y105937267D02*
X66279035Y106227553D01*
X66317130Y105719553D02*
X66317130Y105332505D01*
X66621892Y105526029D02*
X66012368Y105526029D01*
X61535701Y92294315D02*
X61573797Y92318506D01*
X61573797Y92318506D02*
X61611892Y92391077D01*
X61611892Y92391077D02*
X61611892Y92439458D01*
X61611892Y92439458D02*
X61573797Y92512030D01*
X61573797Y92512030D02*
X61497606Y92560411D01*
X61497606Y92560411D02*
X61421416Y92584601D01*
X61421416Y92584601D02*
X61269035Y92608792D01*
X61269035Y92608792D02*
X61154749Y92608792D01*
X61154749Y92608792D02*
X61002368Y92584601D01*
X61002368Y92584601D02*
X60926177Y92560411D01*
X60926177Y92560411D02*
X60849987Y92512030D01*
X60849987Y92512030D02*
X60811892Y92439458D01*
X60811892Y92439458D02*
X60811892Y92391077D01*
X60811892Y92391077D02*
X60849987Y92318506D01*
X60849987Y92318506D02*
X60888082Y92294315D01*
X61383320Y92100792D02*
X61383320Y91858887D01*
X61611892Y92149173D02*
X60811892Y91979839D01*
X60811892Y91979839D02*
X61611892Y91810506D01*
X61611892Y91641172D02*
X60811892Y91641172D01*
X60811892Y91641172D02*
X61383320Y91471839D01*
X61383320Y91471839D02*
X60811892Y91302505D01*
X60811892Y91302505D02*
X61611892Y91302505D01*
X68885701Y109195267D02*
X68923797Y109219458D01*
X68923797Y109219458D02*
X68961892Y109292029D01*
X68961892Y109292029D02*
X68961892Y109340410D01*
X68961892Y109340410D02*
X68923797Y109412982D01*
X68923797Y109412982D02*
X68847606Y109461363D01*
X68847606Y109461363D02*
X68771416Y109485553D01*
X68771416Y109485553D02*
X68619035Y109509744D01*
X68619035Y109509744D02*
X68504749Y109509744D01*
X68504749Y109509744D02*
X68352368Y109485553D01*
X68352368Y109485553D02*
X68276177Y109461363D01*
X68276177Y109461363D02*
X68199987Y109412982D01*
X68199987Y109412982D02*
X68161892Y109340410D01*
X68161892Y109340410D02*
X68161892Y109292029D01*
X68161892Y109292029D02*
X68199987Y109219458D01*
X68199987Y109219458D02*
X68238082Y109195267D01*
X68961892Y108977553D02*
X68161892Y108977553D01*
X68961892Y108687267D02*
X68504749Y108904982D01*
X68161892Y108687267D02*
X68619035Y108977553D01*
X68657130Y108469553D02*
X68657130Y108082505D01*
X52371892Y106626506D02*
X51571892Y106626506D01*
X51609987Y106118506D02*
X51571892Y106166887D01*
X51571892Y106166887D02*
X51571892Y106239458D01*
X51571892Y106239458D02*
X51609987Y106312030D01*
X51609987Y106312030D02*
X51686177Y106360411D01*
X51686177Y106360411D02*
X51762368Y106384601D01*
X51762368Y106384601D02*
X51914749Y106408792D01*
X51914749Y106408792D02*
X52029035Y106408792D01*
X52029035Y106408792D02*
X52181416Y106384601D01*
X52181416Y106384601D02*
X52257606Y106360411D01*
X52257606Y106360411D02*
X52333797Y106312030D01*
X52333797Y106312030D02*
X52371892Y106239458D01*
X52371892Y106239458D02*
X52371892Y106191077D01*
X52371892Y106191077D02*
X52333797Y106118506D01*
X52333797Y106118506D02*
X52295701Y106094315D01*
X52295701Y106094315D02*
X52029035Y106094315D01*
X52029035Y106094315D02*
X52029035Y106191077D01*
X52371892Y105876601D02*
X51571892Y105876601D01*
X51571892Y105876601D02*
X52371892Y105586315D01*
X52371892Y105586315D02*
X51571892Y105586315D01*
X51838558Y105126697D02*
X52371892Y105126697D01*
X51533797Y105247649D02*
X52105225Y105368602D01*
X52105225Y105368602D02*
X52105225Y105054125D01*
X53391892Y109316506D02*
X52591892Y109316506D01*
X52629987Y108808506D02*
X52591892Y108856887D01*
X52591892Y108856887D02*
X52591892Y108929458D01*
X52591892Y108929458D02*
X52629987Y109002030D01*
X52629987Y109002030D02*
X52706177Y109050411D01*
X52706177Y109050411D02*
X52782368Y109074601D01*
X52782368Y109074601D02*
X52934749Y109098792D01*
X52934749Y109098792D02*
X53049035Y109098792D01*
X53049035Y109098792D02*
X53201416Y109074601D01*
X53201416Y109074601D02*
X53277606Y109050411D01*
X53277606Y109050411D02*
X53353797Y109002030D01*
X53353797Y109002030D02*
X53391892Y108929458D01*
X53391892Y108929458D02*
X53391892Y108881077D01*
X53391892Y108881077D02*
X53353797Y108808506D01*
X53353797Y108808506D02*
X53315701Y108784315D01*
X53315701Y108784315D02*
X53049035Y108784315D01*
X53049035Y108784315D02*
X53049035Y108881077D01*
X53391892Y108566601D02*
X52591892Y108566601D01*
X52591892Y108566601D02*
X53391892Y108276315D01*
X53391892Y108276315D02*
X52591892Y108276315D01*
X52668082Y108058602D02*
X52629987Y108034411D01*
X52629987Y108034411D02*
X52591892Y107986030D01*
X52591892Y107986030D02*
X52591892Y107865078D01*
X52591892Y107865078D02*
X52629987Y107816697D01*
X52629987Y107816697D02*
X52668082Y107792506D01*
X52668082Y107792506D02*
X52744273Y107768316D01*
X52744273Y107768316D02*
X52820463Y107768316D01*
X52820463Y107768316D02*
X52934749Y107792506D01*
X52934749Y107792506D02*
X53391892Y108082792D01*
X53391892Y108082792D02*
X53391892Y107768316D01*
X65801892Y92447172D02*
X65801892Y92350410D01*
X65801892Y92350410D02*
X65839987Y92302029D01*
X65839987Y92302029D02*
X65916177Y92253648D01*
X65916177Y92253648D02*
X66068558Y92229458D01*
X66068558Y92229458D02*
X66335225Y92229458D01*
X66335225Y92229458D02*
X66487606Y92253648D01*
X66487606Y92253648D02*
X66563797Y92302029D01*
X66563797Y92302029D02*
X66601892Y92350410D01*
X66601892Y92350410D02*
X66601892Y92447172D01*
X66601892Y92447172D02*
X66563797Y92495553D01*
X66563797Y92495553D02*
X66487606Y92543934D01*
X66487606Y92543934D02*
X66335225Y92568125D01*
X66335225Y92568125D02*
X66068558Y92568125D01*
X66068558Y92568125D02*
X65916177Y92543934D01*
X65916177Y92543934D02*
X65839987Y92495553D01*
X65839987Y92495553D02*
X65801892Y92447172D01*
X66601892Y92011744D02*
X65801892Y92011744D01*
X66601892Y91527934D02*
X66601892Y91769839D01*
X66601892Y91769839D02*
X65801892Y91769839D01*
X66601892Y91358601D02*
X65801892Y91358601D01*
X65801892Y91358601D02*
X65801892Y91165077D01*
X65801892Y91165077D02*
X65839987Y91116696D01*
X65839987Y91116696D02*
X65878082Y91092506D01*
X65878082Y91092506D02*
X65954273Y91068315D01*
X65954273Y91068315D02*
X66068558Y91068315D01*
X66068558Y91068315D02*
X66144749Y91092506D01*
X66144749Y91092506D02*
X66182844Y91116696D01*
X66182844Y91116696D02*
X66220939Y91165077D01*
X66220939Y91165077D02*
X66220939Y91358601D01*
X78902844Y92454697D02*
X78902844Y92624030D01*
X79321892Y92624030D02*
X78521892Y92624030D01*
X78521892Y92624030D02*
X78521892Y92382125D01*
X79321892Y92188601D02*
X78521892Y92188601D01*
X78521892Y92188601D02*
X78521892Y91995077D01*
X78521892Y91995077D02*
X78559987Y91946696D01*
X78559987Y91946696D02*
X78598082Y91922506D01*
X78598082Y91922506D02*
X78674273Y91898315D01*
X78674273Y91898315D02*
X78788558Y91898315D01*
X78788558Y91898315D02*
X78864749Y91922506D01*
X78864749Y91922506D02*
X78902844Y91946696D01*
X78902844Y91946696D02*
X78940939Y91995077D01*
X78940939Y91995077D02*
X78940939Y92188601D01*
X68401892Y94687935D02*
X68401892Y94929840D01*
X68401892Y94929840D02*
X68782844Y94954031D01*
X68782844Y94954031D02*
X68744749Y94929840D01*
X68744749Y94929840D02*
X68706654Y94881459D01*
X68706654Y94881459D02*
X68706654Y94760507D01*
X68706654Y94760507D02*
X68744749Y94712126D01*
X68744749Y94712126D02*
X68782844Y94687935D01*
X68782844Y94687935D02*
X68859035Y94663745D01*
X68859035Y94663745D02*
X69049511Y94663745D01*
X69049511Y94663745D02*
X69125701Y94687935D01*
X69125701Y94687935D02*
X69163797Y94712126D01*
X69163797Y94712126D02*
X69201892Y94760507D01*
X69201892Y94760507D02*
X69201892Y94881459D01*
X69201892Y94881459D02*
X69163797Y94929840D01*
X69163797Y94929840D02*
X69125701Y94954031D01*
X68401892Y94518602D02*
X69201892Y94349268D01*
X69201892Y94349268D02*
X68401892Y94179935D01*
X59801892Y106773935D02*
X59001892Y106773935D01*
X59801892Y106532030D02*
X59001892Y106532030D01*
X59001892Y106532030D02*
X59801892Y106241744D01*
X59801892Y106241744D02*
X59001892Y106241744D01*
X59420939Y105903078D02*
X59801892Y105903078D01*
X59001892Y106072412D02*
X59420939Y105903078D01*
X59420939Y105903078D02*
X59001892Y105733745D01*
X59268558Y105346697D02*
X59801892Y105346697D01*
X58963797Y105467649D02*
X59535225Y105588602D01*
X59535225Y105588602D02*
X59535225Y105274125D01*
X73189987Y109208125D02*
X73151892Y109256506D01*
X73151892Y109256506D02*
X73151892Y109329077D01*
X73151892Y109329077D02*
X73189987Y109401649D01*
X73189987Y109401649D02*
X73266177Y109450030D01*
X73266177Y109450030D02*
X73342368Y109474220D01*
X73342368Y109474220D02*
X73494749Y109498411D01*
X73494749Y109498411D02*
X73609035Y109498411D01*
X73609035Y109498411D02*
X73761416Y109474220D01*
X73761416Y109474220D02*
X73837606Y109450030D01*
X73837606Y109450030D02*
X73913797Y109401649D01*
X73913797Y109401649D02*
X73951892Y109329077D01*
X73951892Y109329077D02*
X73951892Y109280696D01*
X73951892Y109280696D02*
X73913797Y109208125D01*
X73913797Y109208125D02*
X73875701Y109183934D01*
X73875701Y109183934D02*
X73609035Y109183934D01*
X73609035Y109183934D02*
X73609035Y109280696D01*
X73951892Y108966220D02*
X73151892Y108966220D01*
X73151892Y108966220D02*
X73951892Y108675934D01*
X73951892Y108675934D02*
X73151892Y108675934D01*
X73951892Y108434030D02*
X73151892Y108434030D01*
X73151892Y108434030D02*
X73151892Y108313078D01*
X73151892Y108313078D02*
X73189987Y108240506D01*
X73189987Y108240506D02*
X73266177Y108192125D01*
X73266177Y108192125D02*
X73342368Y108167935D01*
X73342368Y108167935D02*
X73494749Y108143744D01*
X73494749Y108143744D02*
X73609035Y108143744D01*
X73609035Y108143744D02*
X73761416Y108167935D01*
X73761416Y108167935D02*
X73837606Y108192125D01*
X73837606Y108192125D02*
X73913797Y108240506D01*
X73913797Y108240506D02*
X73951892Y108313078D01*
X73951892Y108313078D02*
X73951892Y108434030D01*
X73723320Y107950221D02*
X73723320Y107708316D01*
X73951892Y107998602D02*
X73151892Y107829268D01*
X73151892Y107829268D02*
X73951892Y107659935D01*
X76352844Y95014220D02*
X76352844Y94844887D01*
X76771892Y94772315D02*
X76771892Y95014220D01*
X76771892Y95014220D02*
X75971892Y95014220D01*
X75971892Y95014220D02*
X75971892Y94772315D01*
X76009987Y94288506D02*
X75971892Y94336887D01*
X75971892Y94336887D02*
X75971892Y94409458D01*
X75971892Y94409458D02*
X76009987Y94482030D01*
X76009987Y94482030D02*
X76086177Y94530411D01*
X76086177Y94530411D02*
X76162368Y94554601D01*
X76162368Y94554601D02*
X76314749Y94578792D01*
X76314749Y94578792D02*
X76429035Y94578792D01*
X76429035Y94578792D02*
X76581416Y94554601D01*
X76581416Y94554601D02*
X76657606Y94530411D01*
X76657606Y94530411D02*
X76733797Y94482030D01*
X76733797Y94482030D02*
X76771892Y94409458D01*
X76771892Y94409458D02*
X76771892Y94361077D01*
X76771892Y94361077D02*
X76733797Y94288506D01*
X76733797Y94288506D02*
X76695701Y94264315D01*
X76695701Y94264315D02*
X76429035Y94264315D01*
X76429035Y94264315D02*
X76429035Y94361077D01*
X75971892Y94119173D02*
X75971892Y93828887D01*
X76771892Y93974030D02*
X75971892Y93974030D01*
X76467130Y93659553D02*
X76467130Y93272505D01*
X48659987Y92292696D02*
X48621892Y92341077D01*
X48621892Y92341077D02*
X48621892Y92413648D01*
X48621892Y92413648D02*
X48659987Y92486220D01*
X48659987Y92486220D02*
X48736177Y92534601D01*
X48736177Y92534601D02*
X48812368Y92558791D01*
X48812368Y92558791D02*
X48964749Y92582982D01*
X48964749Y92582982D02*
X49079035Y92582982D01*
X49079035Y92582982D02*
X49231416Y92558791D01*
X49231416Y92558791D02*
X49307606Y92534601D01*
X49307606Y92534601D02*
X49383797Y92486220D01*
X49383797Y92486220D02*
X49421892Y92413648D01*
X49421892Y92413648D02*
X49421892Y92365267D01*
X49421892Y92365267D02*
X49383797Y92292696D01*
X49383797Y92292696D02*
X49345701Y92268505D01*
X49345701Y92268505D02*
X49079035Y92268505D01*
X49079035Y92268505D02*
X49079035Y92365267D01*
X49421892Y92050791D02*
X48621892Y92050791D01*
X48621892Y92050791D02*
X49421892Y91760505D01*
X49421892Y91760505D02*
X48621892Y91760505D01*
X49421892Y91518601D02*
X48621892Y91518601D01*
X48621892Y91518601D02*
X48621892Y91397649D01*
X48621892Y91397649D02*
X48659987Y91325077D01*
X48659987Y91325077D02*
X48736177Y91276696D01*
X48736177Y91276696D02*
X48812368Y91252506D01*
X48812368Y91252506D02*
X48964749Y91228315D01*
X48964749Y91228315D02*
X49079035Y91228315D01*
X49079035Y91228315D02*
X49231416Y91252506D01*
X49231416Y91252506D02*
X49307606Y91276696D01*
X49307606Y91276696D02*
X49383797Y91325077D01*
X49383797Y91325077D02*
X49421892Y91397649D01*
X49421892Y91397649D02*
X49421892Y91518601D01*
X57431892Y106833935D02*
X56631892Y106833935D01*
X57431892Y106592030D02*
X56631892Y106592030D01*
X56631892Y106592030D02*
X57431892Y106301744D01*
X57431892Y106301744D02*
X56631892Y106301744D01*
X57050939Y105963078D02*
X57431892Y105963078D01*
X56631892Y106132412D02*
X57050939Y105963078D01*
X57050939Y105963078D02*
X56631892Y105793745D01*
X56631892Y105672792D02*
X56631892Y105358316D01*
X56631892Y105358316D02*
X56936654Y105527649D01*
X56936654Y105527649D02*
X56936654Y105455078D01*
X56936654Y105455078D02*
X56974749Y105406697D01*
X56974749Y105406697D02*
X57012844Y105382506D01*
X57012844Y105382506D02*
X57089035Y105358316D01*
X57089035Y105358316D02*
X57279511Y105358316D01*
X57279511Y105358316D02*
X57355701Y105382506D01*
X57355701Y105382506D02*
X57393797Y105406697D01*
X57393797Y105406697D02*
X57431892Y105455078D01*
X57431892Y105455078D02*
X57431892Y105600221D01*
X57431892Y105600221D02*
X57393797Y105648602D01*
X57393797Y105648602D02*
X57355701Y105672792D01*
X53281892Y94916506D02*
X52481892Y94916506D01*
X52519987Y94408506D02*
X52481892Y94456887D01*
X52481892Y94456887D02*
X52481892Y94529458D01*
X52481892Y94529458D02*
X52519987Y94602030D01*
X52519987Y94602030D02*
X52596177Y94650411D01*
X52596177Y94650411D02*
X52672368Y94674601D01*
X52672368Y94674601D02*
X52824749Y94698792D01*
X52824749Y94698792D02*
X52939035Y94698792D01*
X52939035Y94698792D02*
X53091416Y94674601D01*
X53091416Y94674601D02*
X53167606Y94650411D01*
X53167606Y94650411D02*
X53243797Y94602030D01*
X53243797Y94602030D02*
X53281892Y94529458D01*
X53281892Y94529458D02*
X53281892Y94481077D01*
X53281892Y94481077D02*
X53243797Y94408506D01*
X53243797Y94408506D02*
X53205701Y94384315D01*
X53205701Y94384315D02*
X52939035Y94384315D01*
X52939035Y94384315D02*
X52939035Y94481077D01*
X53281892Y94166601D02*
X52481892Y94166601D01*
X52481892Y94166601D02*
X53281892Y93876315D01*
X53281892Y93876315D02*
X52481892Y93876315D01*
X52481892Y93416697D02*
X52481892Y93513459D01*
X52481892Y93513459D02*
X52519987Y93561840D01*
X52519987Y93561840D02*
X52558082Y93586030D01*
X52558082Y93586030D02*
X52672368Y93634411D01*
X52672368Y93634411D02*
X52824749Y93658602D01*
X52824749Y93658602D02*
X53129511Y93658602D01*
X53129511Y93658602D02*
X53205701Y93634411D01*
X53205701Y93634411D02*
X53243797Y93610221D01*
X53243797Y93610221D02*
X53281892Y93561840D01*
X53281892Y93561840D02*
X53281892Y93465078D01*
X53281892Y93465078D02*
X53243797Y93416697D01*
X53243797Y93416697D02*
X53205701Y93392506D01*
X53205701Y93392506D02*
X53129511Y93368316D01*
X53129511Y93368316D02*
X52939035Y93368316D01*
X52939035Y93368316D02*
X52862844Y93392506D01*
X52862844Y93392506D02*
X52824749Y93416697D01*
X52824749Y93416697D02*
X52786654Y93465078D01*
X52786654Y93465078D02*
X52786654Y93561840D01*
X52786654Y93561840D02*
X52824749Y93610221D01*
X52824749Y93610221D02*
X52862844Y93634411D01*
X52862844Y93634411D02*
X52939035Y93658602D01*
X56731892Y94863935D02*
X55931892Y94863935D01*
X56731892Y94622030D02*
X55931892Y94622030D01*
X55931892Y94622030D02*
X56731892Y94331744D01*
X56731892Y94331744D02*
X55931892Y94331744D01*
X56350939Y93993078D02*
X56731892Y93993078D01*
X55931892Y94162412D02*
X56350939Y93993078D01*
X56350939Y93993078D02*
X55931892Y93823745D01*
X55931892Y93412506D02*
X55931892Y93654411D01*
X55931892Y93654411D02*
X56312844Y93678602D01*
X56312844Y93678602D02*
X56274749Y93654411D01*
X56274749Y93654411D02*
X56236654Y93606030D01*
X56236654Y93606030D02*
X56236654Y93485078D01*
X56236654Y93485078D02*
X56274749Y93436697D01*
X56274749Y93436697D02*
X56312844Y93412506D01*
X56312844Y93412506D02*
X56389035Y93388316D01*
X56389035Y93388316D02*
X56579511Y93388316D01*
X56579511Y93388316D02*
X56655701Y93412506D01*
X56655701Y93412506D02*
X56693797Y93436697D01*
X56693797Y93436697D02*
X56731892Y93485078D01*
X56731892Y93485078D02*
X56731892Y93606030D01*
X56731892Y93606030D02*
X56693797Y93654411D01*
X56693797Y93654411D02*
X56655701Y93678602D01*
X71461892Y109418791D02*
X70661892Y109418791D01*
X71461892Y109128505D02*
X71004749Y109346220D01*
X70661892Y109128505D02*
X71119035Y109418791D01*
X71461892Y108910791D02*
X70661892Y108910791D01*
X70661892Y108910791D02*
X71461892Y108620505D01*
X71461892Y108620505D02*
X70661892Y108620505D01*
X71461892Y108378601D02*
X70661892Y108378601D01*
X71461892Y108088315D02*
X71004749Y108306030D01*
X70661892Y108088315D02*
X71119035Y108378601D01*
X61751892Y109225172D02*
X61751892Y109467077D01*
X61751892Y109467077D02*
X60951892Y109467077D01*
X61713797Y109080030D02*
X61751892Y109007458D01*
X61751892Y109007458D02*
X61751892Y108886506D01*
X61751892Y108886506D02*
X61713797Y108838125D01*
X61713797Y108838125D02*
X61675701Y108813934D01*
X61675701Y108813934D02*
X61599511Y108789744D01*
X61599511Y108789744D02*
X61523320Y108789744D01*
X61523320Y108789744D02*
X61447130Y108813934D01*
X61447130Y108813934D02*
X61409035Y108838125D01*
X61409035Y108838125D02*
X61370939Y108886506D01*
X61370939Y108886506D02*
X61332844Y108983268D01*
X61332844Y108983268D02*
X61294749Y109031649D01*
X61294749Y109031649D02*
X61256654Y109055839D01*
X61256654Y109055839D02*
X61180463Y109080030D01*
X61180463Y109080030D02*
X61104273Y109080030D01*
X61104273Y109080030D02*
X61028082Y109055839D01*
X61028082Y109055839D02*
X60989987Y109031649D01*
X60989987Y109031649D02*
X60951892Y108983268D01*
X60951892Y108983268D02*
X60951892Y108862315D01*
X60951892Y108862315D02*
X60989987Y108789744D01*
X60951892Y108572029D02*
X61599511Y108572029D01*
X61599511Y108572029D02*
X61675701Y108547839D01*
X61675701Y108547839D02*
X61713797Y108523648D01*
X61713797Y108523648D02*
X61751892Y108475267D01*
X61751892Y108475267D02*
X61751892Y108378505D01*
X61751892Y108378505D02*
X61713797Y108330124D01*
X61713797Y108330124D02*
X61675701Y108305934D01*
X61675701Y108305934D02*
X61599511Y108281743D01*
X61599511Y108281743D02*
X60951892Y108281743D01*
X61828082Y108160791D02*
X61828082Y107773744D01*
X60951892Y107652791D02*
X61599511Y107652791D01*
X61599511Y107652791D02*
X61675701Y107628601D01*
X61675701Y107628601D02*
X61713797Y107604410D01*
X61713797Y107604410D02*
X61751892Y107556029D01*
X61751892Y107556029D02*
X61751892Y107459267D01*
X61751892Y107459267D02*
X61713797Y107410886D01*
X61713797Y107410886D02*
X61675701Y107386696D01*
X61675701Y107386696D02*
X61599511Y107362505D01*
X61599511Y107362505D02*
X60951892Y107362505D01*
X49581892Y106766506D02*
X48781892Y106766506D01*
X48819987Y106258506D02*
X48781892Y106306887D01*
X48781892Y106306887D02*
X48781892Y106379458D01*
X48781892Y106379458D02*
X48819987Y106452030D01*
X48819987Y106452030D02*
X48896177Y106500411D01*
X48896177Y106500411D02*
X48972368Y106524601D01*
X48972368Y106524601D02*
X49124749Y106548792D01*
X49124749Y106548792D02*
X49239035Y106548792D01*
X49239035Y106548792D02*
X49391416Y106524601D01*
X49391416Y106524601D02*
X49467606Y106500411D01*
X49467606Y106500411D02*
X49543797Y106452030D01*
X49543797Y106452030D02*
X49581892Y106379458D01*
X49581892Y106379458D02*
X49581892Y106331077D01*
X49581892Y106331077D02*
X49543797Y106258506D01*
X49543797Y106258506D02*
X49505701Y106234315D01*
X49505701Y106234315D02*
X49239035Y106234315D01*
X49239035Y106234315D02*
X49239035Y106331077D01*
X49581892Y106016601D02*
X48781892Y106016601D01*
X48781892Y106016601D02*
X49581892Y105726315D01*
X49581892Y105726315D02*
X48781892Y105726315D01*
X48781892Y105532792D02*
X48781892Y105218316D01*
X48781892Y105218316D02*
X49086654Y105387649D01*
X49086654Y105387649D02*
X49086654Y105315078D01*
X49086654Y105315078D02*
X49124749Y105266697D01*
X49124749Y105266697D02*
X49162844Y105242506D01*
X49162844Y105242506D02*
X49239035Y105218316D01*
X49239035Y105218316D02*
X49429511Y105218316D01*
X49429511Y105218316D02*
X49505701Y105242506D01*
X49505701Y105242506D02*
X49543797Y105266697D01*
X49543797Y105266697D02*
X49581892Y105315078D01*
X49581892Y105315078D02*
X49581892Y105460221D01*
X49581892Y105460221D02*
X49543797Y105508602D01*
X49543797Y105508602D02*
X49505701Y105532792D01*
X68361892Y92675840D02*
X68361892Y92385554D01*
X69161892Y92530697D02*
X68361892Y92530697D01*
X68933320Y92240411D02*
X68933320Y91998506D01*
X69161892Y92288792D02*
X68361892Y92119458D01*
X68361892Y92119458D02*
X69161892Y91950125D01*
X69085701Y91490505D02*
X69123797Y91514696D01*
X69123797Y91514696D02*
X69161892Y91587267D01*
X69161892Y91587267D02*
X69161892Y91635648D01*
X69161892Y91635648D02*
X69123797Y91708220D01*
X69123797Y91708220D02*
X69047606Y91756601D01*
X69047606Y91756601D02*
X68971416Y91780791D01*
X68971416Y91780791D02*
X68819035Y91804982D01*
X68819035Y91804982D02*
X68704749Y91804982D01*
X68704749Y91804982D02*
X68552368Y91780791D01*
X68552368Y91780791D02*
X68476177Y91756601D01*
X68476177Y91756601D02*
X68399987Y91708220D01*
X68399987Y91708220D02*
X68361892Y91635648D01*
X68361892Y91635648D02*
X68361892Y91587267D01*
X68361892Y91587267D02*
X68399987Y91514696D01*
X68399987Y91514696D02*
X68438082Y91490505D01*
X69161892Y91272791D02*
X68361892Y91272791D01*
X68742844Y91272791D02*
X68742844Y90982505D01*
X69161892Y90982505D02*
X68361892Y90982505D01*
X64281892Y106475172D02*
X64281892Y106717077D01*
X64281892Y106717077D02*
X63481892Y106717077D01*
X64243797Y106330030D02*
X64281892Y106257458D01*
X64281892Y106257458D02*
X64281892Y106136506D01*
X64281892Y106136506D02*
X64243797Y106088125D01*
X64243797Y106088125D02*
X64205701Y106063934D01*
X64205701Y106063934D02*
X64129511Y106039744D01*
X64129511Y106039744D02*
X64053320Y106039744D01*
X64053320Y106039744D02*
X63977130Y106063934D01*
X63977130Y106063934D02*
X63939035Y106088125D01*
X63939035Y106088125D02*
X63900939Y106136506D01*
X63900939Y106136506D02*
X63862844Y106233268D01*
X63862844Y106233268D02*
X63824749Y106281649D01*
X63824749Y106281649D02*
X63786654Y106305839D01*
X63786654Y106305839D02*
X63710463Y106330030D01*
X63710463Y106330030D02*
X63634273Y106330030D01*
X63634273Y106330030D02*
X63558082Y106305839D01*
X63558082Y106305839D02*
X63519987Y106281649D01*
X63519987Y106281649D02*
X63481892Y106233268D01*
X63481892Y106233268D02*
X63481892Y106112315D01*
X63481892Y106112315D02*
X63519987Y106039744D01*
X63481892Y105822029D02*
X64129511Y105822029D01*
X64129511Y105822029D02*
X64205701Y105797839D01*
X64205701Y105797839D02*
X64243797Y105773648D01*
X64243797Y105773648D02*
X64281892Y105725267D01*
X64281892Y105725267D02*
X64281892Y105628505D01*
X64281892Y105628505D02*
X64243797Y105580124D01*
X64243797Y105580124D02*
X64205701Y105555934D01*
X64205701Y105555934D02*
X64129511Y105531743D01*
X64129511Y105531743D02*
X63481892Y105531743D01*
X64358082Y105410791D02*
X64358082Y105023744D01*
X64281892Y104902791D02*
X63481892Y104902791D01*
X63862844Y104902791D02*
X63862844Y104612505D01*
X64281892Y104612505D02*
X63481892Y104612505D01*
X52469987Y92342696D02*
X52431892Y92391077D01*
X52431892Y92391077D02*
X52431892Y92463648D01*
X52431892Y92463648D02*
X52469987Y92536220D01*
X52469987Y92536220D02*
X52546177Y92584601D01*
X52546177Y92584601D02*
X52622368Y92608791D01*
X52622368Y92608791D02*
X52774749Y92632982D01*
X52774749Y92632982D02*
X52889035Y92632982D01*
X52889035Y92632982D02*
X53041416Y92608791D01*
X53041416Y92608791D02*
X53117606Y92584601D01*
X53117606Y92584601D02*
X53193797Y92536220D01*
X53193797Y92536220D02*
X53231892Y92463648D01*
X53231892Y92463648D02*
X53231892Y92415267D01*
X53231892Y92415267D02*
X53193797Y92342696D01*
X53193797Y92342696D02*
X53155701Y92318505D01*
X53155701Y92318505D02*
X52889035Y92318505D01*
X52889035Y92318505D02*
X52889035Y92415267D01*
X53231892Y92100791D02*
X52431892Y92100791D01*
X52431892Y92100791D02*
X53231892Y91810505D01*
X53231892Y91810505D02*
X52431892Y91810505D01*
X53231892Y91568601D02*
X52431892Y91568601D01*
X52431892Y91568601D02*
X52431892Y91447649D01*
X52431892Y91447649D02*
X52469987Y91375077D01*
X52469987Y91375077D02*
X52546177Y91326696D01*
X52546177Y91326696D02*
X52622368Y91302506D01*
X52622368Y91302506D02*
X52774749Y91278315D01*
X52774749Y91278315D02*
X52889035Y91278315D01*
X52889035Y91278315D02*
X53041416Y91302506D01*
X53041416Y91302506D02*
X53117606Y91326696D01*
X53117606Y91326696D02*
X53193797Y91375077D01*
X53193797Y91375077D02*
X53231892Y91447649D01*
X53231892Y91447649D02*
X53231892Y91568601D01*
X59181892Y92357555D02*
X59181892Y92647841D01*
X59181892Y92502698D02*
X58381892Y92502698D01*
X58381892Y92502698D02*
X58496177Y92551079D01*
X58496177Y92551079D02*
X58572368Y92599460D01*
X58572368Y92599460D02*
X58610463Y92647841D01*
X58458082Y92164031D02*
X58419987Y92139840D01*
X58419987Y92139840D02*
X58381892Y92091459D01*
X58381892Y92091459D02*
X58381892Y91970507D01*
X58381892Y91970507D02*
X58419987Y91922126D01*
X58419987Y91922126D02*
X58458082Y91897935D01*
X58458082Y91897935D02*
X58534273Y91873745D01*
X58534273Y91873745D02*
X58610463Y91873745D01*
X58610463Y91873745D02*
X58724749Y91897935D01*
X58724749Y91897935D02*
X59181892Y92188221D01*
X59181892Y92188221D02*
X59181892Y91873745D01*
X58381892Y91728602D02*
X59181892Y91559268D01*
X59181892Y91559268D02*
X58381892Y91389935D01*
X78219987Y109118125D02*
X78181892Y109166506D01*
X78181892Y109166506D02*
X78181892Y109239077D01*
X78181892Y109239077D02*
X78219987Y109311649D01*
X78219987Y109311649D02*
X78296177Y109360030D01*
X78296177Y109360030D02*
X78372368Y109384220D01*
X78372368Y109384220D02*
X78524749Y109408411D01*
X78524749Y109408411D02*
X78639035Y109408411D01*
X78639035Y109408411D02*
X78791416Y109384220D01*
X78791416Y109384220D02*
X78867606Y109360030D01*
X78867606Y109360030D02*
X78943797Y109311649D01*
X78943797Y109311649D02*
X78981892Y109239077D01*
X78981892Y109239077D02*
X78981892Y109190696D01*
X78981892Y109190696D02*
X78943797Y109118125D01*
X78943797Y109118125D02*
X78905701Y109093934D01*
X78905701Y109093934D02*
X78639035Y109093934D01*
X78639035Y109093934D02*
X78639035Y109190696D01*
X78981892Y108876220D02*
X78181892Y108876220D01*
X78181892Y108876220D02*
X78981892Y108585934D01*
X78981892Y108585934D02*
X78181892Y108585934D01*
X78981892Y108344030D02*
X78181892Y108344030D01*
X78181892Y108344030D02*
X78181892Y108223078D01*
X78181892Y108223078D02*
X78219987Y108150506D01*
X78219987Y108150506D02*
X78296177Y108102125D01*
X78296177Y108102125D02*
X78372368Y108077935D01*
X78372368Y108077935D02*
X78524749Y108053744D01*
X78524749Y108053744D02*
X78639035Y108053744D01*
X78639035Y108053744D02*
X78791416Y108077935D01*
X78791416Y108077935D02*
X78867606Y108102125D01*
X78867606Y108102125D02*
X78943797Y108150506D01*
X78943797Y108150506D02*
X78981892Y108223078D01*
X78981892Y108223078D02*
X78981892Y108344030D01*
X78753320Y107860221D02*
X78753320Y107618316D01*
X78981892Y107908602D02*
X78181892Y107739268D01*
X78181892Y107739268D02*
X78981892Y107569935D01*
X56887856Y87124222D02*
X57141856Y87124222D01*
X57141856Y86725079D02*
X57141856Y87487079D01*
X57141856Y87487079D02*
X56778999Y87487079D01*
X56089570Y86725079D02*
X56524999Y86725079D01*
X56307284Y86725079D02*
X56307284Y87487079D01*
X56307284Y87487079D02*
X56379856Y87378222D01*
X56379856Y87378222D02*
X56452427Y87305650D01*
X56452427Y87305650D02*
X56524999Y87269364D01*
X55617856Y87487079D02*
X55545285Y87487079D01*
X55545285Y87487079D02*
X55472713Y87450793D01*
X55472713Y87450793D02*
X55436428Y87414507D01*
X55436428Y87414507D02*
X55400142Y87341936D01*
X55400142Y87341936D02*
X55363856Y87196793D01*
X55363856Y87196793D02*
X55363856Y87015364D01*
X55363856Y87015364D02*
X55400142Y86870222D01*
X55400142Y86870222D02*
X55436428Y86797650D01*
X55436428Y86797650D02*
X55472713Y86761364D01*
X55472713Y86761364D02*
X55545285Y86725079D01*
X55545285Y86725079D02*
X55617856Y86725079D01*
X55617856Y86725079D02*
X55690428Y86761364D01*
X55690428Y86761364D02*
X55726713Y86797650D01*
X55726713Y86797650D02*
X55762999Y86870222D01*
X55762999Y86870222D02*
X55799285Y87015364D01*
X55799285Y87015364D02*
X55799285Y87196793D01*
X55799285Y87196793D02*
X55762999Y87341936D01*
X55762999Y87341936D02*
X55726713Y87414507D01*
X55726713Y87414507D02*
X55690428Y87450793D01*
X55690428Y87450793D02*
X55617856Y87487079D01*
D11*
X17813930Y60185881D02*
X17540597Y59795405D01*
X17345359Y60185881D02*
X17345359Y59365881D01*
X17345359Y59365881D02*
X17657740Y59365881D01*
X17657740Y59365881D02*
X17735835Y59404929D01*
X17735835Y59404929D02*
X17774882Y59443976D01*
X17774882Y59443976D02*
X17813930Y59522072D01*
X17813930Y59522072D02*
X17813930Y59639214D01*
X17813930Y59639214D02*
X17774882Y59717310D01*
X17774882Y59717310D02*
X17735835Y59756357D01*
X17735835Y59756357D02*
X17657740Y59795405D01*
X17657740Y59795405D02*
X17345359Y59795405D01*
X18204406Y60185881D02*
X18360597Y60185881D01*
X18360597Y60185881D02*
X18438692Y60146833D01*
X18438692Y60146833D02*
X18477740Y60107786D01*
X18477740Y60107786D02*
X18555835Y59990643D01*
X18555835Y59990643D02*
X18594882Y59834453D01*
X18594882Y59834453D02*
X18594882Y59522072D01*
X18594882Y59522072D02*
X18555835Y59443976D01*
X18555835Y59443976D02*
X18516787Y59404929D01*
X18516787Y59404929D02*
X18438692Y59365881D01*
X18438692Y59365881D02*
X18282501Y59365881D01*
X18282501Y59365881D02*
X18204406Y59404929D01*
X18204406Y59404929D02*
X18165359Y59443976D01*
X18165359Y59443976D02*
X18126311Y59522072D01*
X18126311Y59522072D02*
X18126311Y59717310D01*
X18126311Y59717310D02*
X18165359Y59795405D01*
X18165359Y59795405D02*
X18204406Y59834453D01*
X18204406Y59834453D02*
X18282501Y59873500D01*
X18282501Y59873500D02*
X18438692Y59873500D01*
X18438692Y59873500D02*
X18516787Y59834453D01*
X18516787Y59834453D02*
X18555835Y59795405D01*
X18555835Y59795405D02*
X18594882Y59717310D01*
X19375834Y60185881D02*
X18907263Y60185881D01*
X19141549Y60185881D02*
X19141549Y59365881D01*
X19141549Y59365881D02*
X19063453Y59483024D01*
X19063453Y59483024D02*
X18985358Y59561119D01*
X18985358Y59561119D02*
X18907263Y59600167D01*
X20156786Y60185881D02*
X19688215Y60185881D01*
X19922501Y60185881D02*
X19922501Y59365881D01*
X19922501Y59365881D02*
X19844405Y59483024D01*
X19844405Y59483024D02*
X19766310Y59561119D01*
X19766310Y59561119D02*
X19688215Y59600167D01*
X41712808Y11023349D02*
X41322332Y11296682D01*
X41712808Y11491920D02*
X40892808Y11491920D01*
X40892808Y11491920D02*
X40892808Y11179539D01*
X40892808Y11179539D02*
X40931856Y11101444D01*
X40931856Y11101444D02*
X40970903Y11062397D01*
X40970903Y11062397D02*
X41048999Y11023349D01*
X41048999Y11023349D02*
X41166141Y11023349D01*
X41166141Y11023349D02*
X41244237Y11062397D01*
X41244237Y11062397D02*
X41283284Y11101444D01*
X41283284Y11101444D02*
X41322332Y11179539D01*
X41322332Y11179539D02*
X41322332Y11491920D01*
X41166141Y10320492D02*
X41712808Y10320492D01*
X40853761Y10515730D02*
X41439475Y10710968D01*
X41439475Y10710968D02*
X41439475Y10203349D01*
X40892808Y9734778D02*
X40892808Y9656683D01*
X40892808Y9656683D02*
X40931856Y9578587D01*
X40931856Y9578587D02*
X40970903Y9539540D01*
X40970903Y9539540D02*
X41048999Y9500492D01*
X41048999Y9500492D02*
X41205189Y9461445D01*
X41205189Y9461445D02*
X41400427Y9461445D01*
X41400427Y9461445D02*
X41556618Y9500492D01*
X41556618Y9500492D02*
X41634713Y9539540D01*
X41634713Y9539540D02*
X41673761Y9578587D01*
X41673761Y9578587D02*
X41712808Y9656683D01*
X41712808Y9656683D02*
X41712808Y9734778D01*
X41712808Y9734778D02*
X41673761Y9812873D01*
X41673761Y9812873D02*
X41634713Y9851921D01*
X41634713Y9851921D02*
X41556618Y9890968D01*
X41556618Y9890968D02*
X41400427Y9930016D01*
X41400427Y9930016D02*
X41205189Y9930016D01*
X41205189Y9930016D02*
X41048999Y9890968D01*
X41048999Y9890968D02*
X40970903Y9851921D01*
X40970903Y9851921D02*
X40931856Y9812873D01*
X40931856Y9812873D02*
X40892808Y9734778D01*
X40892808Y9188112D02*
X40892808Y8680493D01*
X40892808Y8680493D02*
X41205189Y8953826D01*
X41205189Y8953826D02*
X41205189Y8836683D01*
X41205189Y8836683D02*
X41244237Y8758588D01*
X41244237Y8758588D02*
X41283284Y8719540D01*
X41283284Y8719540D02*
X41361380Y8680493D01*
X41361380Y8680493D02*
X41556618Y8680493D01*
X41556618Y8680493D02*
X41634713Y8719540D01*
X41634713Y8719540D02*
X41673761Y8758588D01*
X41673761Y8758588D02*
X41712808Y8836683D01*
X41712808Y8836683D02*
X41712808Y9070969D01*
X41712808Y9070969D02*
X41673761Y9149064D01*
X41673761Y9149064D02*
X41634713Y9188112D01*
X18025651Y75230809D02*
X17752318Y74840333D01*
X17557080Y75230809D02*
X17557080Y74410809D01*
X17557080Y74410809D02*
X17869461Y74410809D01*
X17869461Y74410809D02*
X17947556Y74449857D01*
X17947556Y74449857D02*
X17986603Y74488904D01*
X17986603Y74488904D02*
X18025651Y74567000D01*
X18025651Y74567000D02*
X18025651Y74684142D01*
X18025651Y74684142D02*
X17986603Y74762238D01*
X17986603Y74762238D02*
X17947556Y74801285D01*
X17947556Y74801285D02*
X17869461Y74840333D01*
X17869461Y74840333D02*
X17557080Y74840333D01*
X18416127Y75230809D02*
X18572318Y75230809D01*
X18572318Y75230809D02*
X18650413Y75191761D01*
X18650413Y75191761D02*
X18689461Y75152714D01*
X18689461Y75152714D02*
X18767556Y75035571D01*
X18767556Y75035571D02*
X18806603Y74879381D01*
X18806603Y74879381D02*
X18806603Y74567000D01*
X18806603Y74567000D02*
X18767556Y74488904D01*
X18767556Y74488904D02*
X18728508Y74449857D01*
X18728508Y74449857D02*
X18650413Y74410809D01*
X18650413Y74410809D02*
X18494222Y74410809D01*
X18494222Y74410809D02*
X18416127Y74449857D01*
X18416127Y74449857D02*
X18377080Y74488904D01*
X18377080Y74488904D02*
X18338032Y74567000D01*
X18338032Y74567000D02*
X18338032Y74762238D01*
X18338032Y74762238D02*
X18377080Y74840333D01*
X18377080Y74840333D02*
X18416127Y74879381D01*
X18416127Y74879381D02*
X18494222Y74918428D01*
X18494222Y74918428D02*
X18650413Y74918428D01*
X18650413Y74918428D02*
X18728508Y74879381D01*
X18728508Y74879381D02*
X18767556Y74840333D01*
X18767556Y74840333D02*
X18806603Y74762238D01*
X19314222Y74410809D02*
X19392317Y74410809D01*
X19392317Y74410809D02*
X19470413Y74449857D01*
X19470413Y74449857D02*
X19509460Y74488904D01*
X19509460Y74488904D02*
X19548508Y74567000D01*
X19548508Y74567000D02*
X19587555Y74723190D01*
X19587555Y74723190D02*
X19587555Y74918428D01*
X19587555Y74918428D02*
X19548508Y75074619D01*
X19548508Y75074619D02*
X19509460Y75152714D01*
X19509460Y75152714D02*
X19470413Y75191761D01*
X19470413Y75191761D02*
X19392317Y75230809D01*
X19392317Y75230809D02*
X19314222Y75230809D01*
X19314222Y75230809D02*
X19236127Y75191761D01*
X19236127Y75191761D02*
X19197079Y75152714D01*
X19197079Y75152714D02*
X19158032Y75074619D01*
X19158032Y75074619D02*
X19118984Y74918428D01*
X19118984Y74918428D02*
X19118984Y74723190D01*
X19118984Y74723190D02*
X19158032Y74567000D01*
X19158032Y74567000D02*
X19197079Y74488904D01*
X19197079Y74488904D02*
X19236127Y74449857D01*
X19236127Y74449857D02*
X19314222Y74410809D01*
X19860888Y74410809D02*
X20368507Y74410809D01*
X20368507Y74410809D02*
X20095174Y74723190D01*
X20095174Y74723190D02*
X20212317Y74723190D01*
X20212317Y74723190D02*
X20290412Y74762238D01*
X20290412Y74762238D02*
X20329460Y74801285D01*
X20329460Y74801285D02*
X20368507Y74879381D01*
X20368507Y74879381D02*
X20368507Y75074619D01*
X20368507Y75074619D02*
X20329460Y75152714D01*
X20329460Y75152714D02*
X20290412Y75191761D01*
X20290412Y75191761D02*
X20212317Y75230809D01*
X20212317Y75230809D02*
X19978031Y75230809D01*
X19978031Y75230809D02*
X19899936Y75191761D01*
X19899936Y75191761D02*
X19860888Y75152714D01*
X7153930Y60283809D02*
X6880597Y59893333D01*
X6685359Y60283809D02*
X6685359Y59463809D01*
X6685359Y59463809D02*
X6997740Y59463809D01*
X6997740Y59463809D02*
X7075835Y59502857D01*
X7075835Y59502857D02*
X7114882Y59541904D01*
X7114882Y59541904D02*
X7153930Y59620000D01*
X7153930Y59620000D02*
X7153930Y59737142D01*
X7153930Y59737142D02*
X7114882Y59815238D01*
X7114882Y59815238D02*
X7075835Y59854285D01*
X7075835Y59854285D02*
X6997740Y59893333D01*
X6997740Y59893333D02*
X6685359Y59893333D01*
X7544406Y60283809D02*
X7700597Y60283809D01*
X7700597Y60283809D02*
X7778692Y60244761D01*
X7778692Y60244761D02*
X7817740Y60205714D01*
X7817740Y60205714D02*
X7895835Y60088571D01*
X7895835Y60088571D02*
X7934882Y59932381D01*
X7934882Y59932381D02*
X7934882Y59620000D01*
X7934882Y59620000D02*
X7895835Y59541904D01*
X7895835Y59541904D02*
X7856787Y59502857D01*
X7856787Y59502857D02*
X7778692Y59463809D01*
X7778692Y59463809D02*
X7622501Y59463809D01*
X7622501Y59463809D02*
X7544406Y59502857D01*
X7544406Y59502857D02*
X7505359Y59541904D01*
X7505359Y59541904D02*
X7466311Y59620000D01*
X7466311Y59620000D02*
X7466311Y59815238D01*
X7466311Y59815238D02*
X7505359Y59893333D01*
X7505359Y59893333D02*
X7544406Y59932381D01*
X7544406Y59932381D02*
X7622501Y59971428D01*
X7622501Y59971428D02*
X7778692Y59971428D01*
X7778692Y59971428D02*
X7856787Y59932381D01*
X7856787Y59932381D02*
X7895835Y59893333D01*
X7895835Y59893333D02*
X7934882Y59815238D01*
X8442501Y59463809D02*
X8520596Y59463809D01*
X8520596Y59463809D02*
X8598692Y59502857D01*
X8598692Y59502857D02*
X8637739Y59541904D01*
X8637739Y59541904D02*
X8676787Y59620000D01*
X8676787Y59620000D02*
X8715834Y59776190D01*
X8715834Y59776190D02*
X8715834Y59971428D01*
X8715834Y59971428D02*
X8676787Y60127619D01*
X8676787Y60127619D02*
X8637739Y60205714D01*
X8637739Y60205714D02*
X8598692Y60244761D01*
X8598692Y60244761D02*
X8520596Y60283809D01*
X8520596Y60283809D02*
X8442501Y60283809D01*
X8442501Y60283809D02*
X8364406Y60244761D01*
X8364406Y60244761D02*
X8325358Y60205714D01*
X8325358Y60205714D02*
X8286311Y60127619D01*
X8286311Y60127619D02*
X8247263Y59971428D01*
X8247263Y59971428D02*
X8247263Y59776190D01*
X8247263Y59776190D02*
X8286311Y59620000D01*
X8286311Y59620000D02*
X8325358Y59541904D01*
X8325358Y59541904D02*
X8364406Y59502857D01*
X8364406Y59502857D02*
X8442501Y59463809D01*
X9418691Y59463809D02*
X9262501Y59463809D01*
X9262501Y59463809D02*
X9184405Y59502857D01*
X9184405Y59502857D02*
X9145358Y59541904D01*
X9145358Y59541904D02*
X9067263Y59659047D01*
X9067263Y59659047D02*
X9028215Y59815238D01*
X9028215Y59815238D02*
X9028215Y60127619D01*
X9028215Y60127619D02*
X9067263Y60205714D01*
X9067263Y60205714D02*
X9106310Y60244761D01*
X9106310Y60244761D02*
X9184405Y60283809D01*
X9184405Y60283809D02*
X9340596Y60283809D01*
X9340596Y60283809D02*
X9418691Y60244761D01*
X9418691Y60244761D02*
X9457739Y60205714D01*
X9457739Y60205714D02*
X9496786Y60127619D01*
X9496786Y60127619D02*
X9496786Y59932381D01*
X9496786Y59932381D02*
X9457739Y59854285D01*
X9457739Y59854285D02*
X9418691Y59815238D01*
X9418691Y59815238D02*
X9340596Y59776190D01*
X9340596Y59776190D02*
X9184405Y59776190D01*
X9184405Y59776190D02*
X9106310Y59815238D01*
X9106310Y59815238D02*
X9067263Y59854285D01*
X9067263Y59854285D02*
X9028215Y59932381D01*
X44846736Y11209349D02*
X44456260Y11482682D01*
X44846736Y11677920D02*
X44026736Y11677920D01*
X44026736Y11677920D02*
X44026736Y11365539D01*
X44026736Y11365539D02*
X44065784Y11287444D01*
X44065784Y11287444D02*
X44104831Y11248397D01*
X44104831Y11248397D02*
X44182927Y11209349D01*
X44182927Y11209349D02*
X44300069Y11209349D01*
X44300069Y11209349D02*
X44378165Y11248397D01*
X44378165Y11248397D02*
X44417212Y11287444D01*
X44417212Y11287444D02*
X44456260Y11365539D01*
X44456260Y11365539D02*
X44456260Y11677920D01*
X44300069Y10506492D02*
X44846736Y10506492D01*
X43987689Y10701730D02*
X44573403Y10896968D01*
X44573403Y10896968D02*
X44573403Y10389349D01*
X44026736Y9920778D02*
X44026736Y9842683D01*
X44026736Y9842683D02*
X44065784Y9764587D01*
X44065784Y9764587D02*
X44104831Y9725540D01*
X44104831Y9725540D02*
X44182927Y9686492D01*
X44182927Y9686492D02*
X44339117Y9647445D01*
X44339117Y9647445D02*
X44534355Y9647445D01*
X44534355Y9647445D02*
X44690546Y9686492D01*
X44690546Y9686492D02*
X44768641Y9725540D01*
X44768641Y9725540D02*
X44807689Y9764587D01*
X44807689Y9764587D02*
X44846736Y9842683D01*
X44846736Y9842683D02*
X44846736Y9920778D01*
X44846736Y9920778D02*
X44807689Y9998873D01*
X44807689Y9998873D02*
X44768641Y10037921D01*
X44768641Y10037921D02*
X44690546Y10076968D01*
X44690546Y10076968D02*
X44534355Y10116016D01*
X44534355Y10116016D02*
X44339117Y10116016D01*
X44339117Y10116016D02*
X44182927Y10076968D01*
X44182927Y10076968D02*
X44104831Y10037921D01*
X44104831Y10037921D02*
X44065784Y9998873D01*
X44065784Y9998873D02*
X44026736Y9920778D01*
X44026736Y8905540D02*
X44026736Y9296016D01*
X44026736Y9296016D02*
X44417212Y9335064D01*
X44417212Y9335064D02*
X44378165Y9296016D01*
X44378165Y9296016D02*
X44339117Y9217921D01*
X44339117Y9217921D02*
X44339117Y9022683D01*
X44339117Y9022683D02*
X44378165Y8944588D01*
X44378165Y8944588D02*
X44417212Y8905540D01*
X44417212Y8905540D02*
X44495308Y8866493D01*
X44495308Y8866493D02*
X44690546Y8866493D01*
X44690546Y8866493D02*
X44768641Y8905540D01*
X44768641Y8905540D02*
X44807689Y8944588D01*
X44807689Y8944588D02*
X44846736Y9022683D01*
X44846736Y9022683D02*
X44846736Y9217921D01*
X44846736Y9217921D02*
X44807689Y9296016D01*
X44807689Y9296016D02*
X44768641Y9335064D01*
X28461651Y75939809D02*
X28188318Y75549333D01*
X27993080Y75939809D02*
X27993080Y75119809D01*
X27993080Y75119809D02*
X28305461Y75119809D01*
X28305461Y75119809D02*
X28383556Y75158857D01*
X28383556Y75158857D02*
X28422603Y75197904D01*
X28422603Y75197904D02*
X28461651Y75276000D01*
X28461651Y75276000D02*
X28461651Y75393142D01*
X28461651Y75393142D02*
X28422603Y75471238D01*
X28422603Y75471238D02*
X28383556Y75510285D01*
X28383556Y75510285D02*
X28305461Y75549333D01*
X28305461Y75549333D02*
X27993080Y75549333D01*
X28852127Y75939809D02*
X29008318Y75939809D01*
X29008318Y75939809D02*
X29086413Y75900761D01*
X29086413Y75900761D02*
X29125461Y75861714D01*
X29125461Y75861714D02*
X29203556Y75744571D01*
X29203556Y75744571D02*
X29242603Y75588381D01*
X29242603Y75588381D02*
X29242603Y75276000D01*
X29242603Y75276000D02*
X29203556Y75197904D01*
X29203556Y75197904D02*
X29164508Y75158857D01*
X29164508Y75158857D02*
X29086413Y75119809D01*
X29086413Y75119809D02*
X28930222Y75119809D01*
X28930222Y75119809D02*
X28852127Y75158857D01*
X28852127Y75158857D02*
X28813080Y75197904D01*
X28813080Y75197904D02*
X28774032Y75276000D01*
X28774032Y75276000D02*
X28774032Y75471238D01*
X28774032Y75471238D02*
X28813080Y75549333D01*
X28813080Y75549333D02*
X28852127Y75588381D01*
X28852127Y75588381D02*
X28930222Y75627428D01*
X28930222Y75627428D02*
X29086413Y75627428D01*
X29086413Y75627428D02*
X29164508Y75588381D01*
X29164508Y75588381D02*
X29203556Y75549333D01*
X29203556Y75549333D02*
X29242603Y75471238D01*
X30023555Y75939809D02*
X29554984Y75939809D01*
X29789270Y75939809D02*
X29789270Y75119809D01*
X29789270Y75119809D02*
X29711174Y75236952D01*
X29711174Y75236952D02*
X29633079Y75315047D01*
X29633079Y75315047D02*
X29554984Y75354095D01*
X30296888Y75119809D02*
X30804507Y75119809D01*
X30804507Y75119809D02*
X30531174Y75432190D01*
X30531174Y75432190D02*
X30648317Y75432190D01*
X30648317Y75432190D02*
X30726412Y75471238D01*
X30726412Y75471238D02*
X30765460Y75510285D01*
X30765460Y75510285D02*
X30804507Y75588381D01*
X30804507Y75588381D02*
X30804507Y75783619D01*
X30804507Y75783619D02*
X30765460Y75861714D01*
X30765460Y75861714D02*
X30726412Y75900761D01*
X30726412Y75900761D02*
X30648317Y75939809D01*
X30648317Y75939809D02*
X30414031Y75939809D01*
X30414031Y75939809D02*
X30335936Y75900761D01*
X30335936Y75900761D02*
X30296888Y75861714D01*
X39025651Y29440809D02*
X38752318Y29050333D01*
X38557080Y29440809D02*
X38557080Y28620809D01*
X38557080Y28620809D02*
X38869461Y28620809D01*
X38869461Y28620809D02*
X38947556Y28659857D01*
X38947556Y28659857D02*
X38986603Y28698904D01*
X38986603Y28698904D02*
X39025651Y28777000D01*
X39025651Y28777000D02*
X39025651Y28894142D01*
X39025651Y28894142D02*
X38986603Y28972238D01*
X38986603Y28972238D02*
X38947556Y29011285D01*
X38947556Y29011285D02*
X38869461Y29050333D01*
X38869461Y29050333D02*
X38557080Y29050333D01*
X39416127Y29440809D02*
X39572318Y29440809D01*
X39572318Y29440809D02*
X39650413Y29401761D01*
X39650413Y29401761D02*
X39689461Y29362714D01*
X39689461Y29362714D02*
X39767556Y29245571D01*
X39767556Y29245571D02*
X39806603Y29089381D01*
X39806603Y29089381D02*
X39806603Y28777000D01*
X39806603Y28777000D02*
X39767556Y28698904D01*
X39767556Y28698904D02*
X39728508Y28659857D01*
X39728508Y28659857D02*
X39650413Y28620809D01*
X39650413Y28620809D02*
X39494222Y28620809D01*
X39494222Y28620809D02*
X39416127Y28659857D01*
X39416127Y28659857D02*
X39377080Y28698904D01*
X39377080Y28698904D02*
X39338032Y28777000D01*
X39338032Y28777000D02*
X39338032Y28972238D01*
X39338032Y28972238D02*
X39377080Y29050333D01*
X39377080Y29050333D02*
X39416127Y29089381D01*
X39416127Y29089381D02*
X39494222Y29128428D01*
X39494222Y29128428D02*
X39650413Y29128428D01*
X39650413Y29128428D02*
X39728508Y29089381D01*
X39728508Y29089381D02*
X39767556Y29050333D01*
X39767556Y29050333D02*
X39806603Y28972238D01*
X40587555Y29440809D02*
X40118984Y29440809D01*
X40353270Y29440809D02*
X40353270Y28620809D01*
X40353270Y28620809D02*
X40275174Y28737952D01*
X40275174Y28737952D02*
X40197079Y28816047D01*
X40197079Y28816047D02*
X40118984Y28855095D01*
X41290412Y28620809D02*
X41134222Y28620809D01*
X41134222Y28620809D02*
X41056126Y28659857D01*
X41056126Y28659857D02*
X41017079Y28698904D01*
X41017079Y28698904D02*
X40938984Y28816047D01*
X40938984Y28816047D02*
X40899936Y28972238D01*
X40899936Y28972238D02*
X40899936Y29284619D01*
X40899936Y29284619D02*
X40938984Y29362714D01*
X40938984Y29362714D02*
X40978031Y29401761D01*
X40978031Y29401761D02*
X41056126Y29440809D01*
X41056126Y29440809D02*
X41212317Y29440809D01*
X41212317Y29440809D02*
X41290412Y29401761D01*
X41290412Y29401761D02*
X41329460Y29362714D01*
X41329460Y29362714D02*
X41368507Y29284619D01*
X41368507Y29284619D02*
X41368507Y29089381D01*
X41368507Y29089381D02*
X41329460Y29011285D01*
X41329460Y29011285D02*
X41290412Y28972238D01*
X41290412Y28972238D02*
X41212317Y28933190D01*
X41212317Y28933190D02*
X41056126Y28933190D01*
X41056126Y28933190D02*
X40978031Y28972238D01*
X40978031Y28972238D02*
X40938984Y29011285D01*
X40938984Y29011285D02*
X40899936Y29089381D01*
X37779808Y11107349D02*
X37389332Y11380682D01*
X37779808Y11575920D02*
X36959808Y11575920D01*
X36959808Y11575920D02*
X36959808Y11263539D01*
X36959808Y11263539D02*
X36998856Y11185444D01*
X36998856Y11185444D02*
X37037903Y11146397D01*
X37037903Y11146397D02*
X37115999Y11107349D01*
X37115999Y11107349D02*
X37233141Y11107349D01*
X37233141Y11107349D02*
X37311237Y11146397D01*
X37311237Y11146397D02*
X37350284Y11185444D01*
X37350284Y11185444D02*
X37389332Y11263539D01*
X37389332Y11263539D02*
X37389332Y11575920D01*
X37233141Y10404492D02*
X37779808Y10404492D01*
X36920761Y10599730D02*
X37506475Y10794968D01*
X37506475Y10794968D02*
X37506475Y10287349D01*
X36959808Y9818778D02*
X36959808Y9740683D01*
X36959808Y9740683D02*
X36998856Y9662587D01*
X36998856Y9662587D02*
X37037903Y9623540D01*
X37037903Y9623540D02*
X37115999Y9584492D01*
X37115999Y9584492D02*
X37272189Y9545445D01*
X37272189Y9545445D02*
X37467427Y9545445D01*
X37467427Y9545445D02*
X37623618Y9584492D01*
X37623618Y9584492D02*
X37701713Y9623540D01*
X37701713Y9623540D02*
X37740761Y9662587D01*
X37740761Y9662587D02*
X37779808Y9740683D01*
X37779808Y9740683D02*
X37779808Y9818778D01*
X37779808Y9818778D02*
X37740761Y9896873D01*
X37740761Y9896873D02*
X37701713Y9935921D01*
X37701713Y9935921D02*
X37623618Y9974968D01*
X37623618Y9974968D02*
X37467427Y10014016D01*
X37467427Y10014016D02*
X37272189Y10014016D01*
X37272189Y10014016D02*
X37115999Y9974968D01*
X37115999Y9974968D02*
X37037903Y9935921D01*
X37037903Y9935921D02*
X36998856Y9896873D01*
X36998856Y9896873D02*
X36959808Y9818778D01*
X37037903Y9233064D02*
X36998856Y9194016D01*
X36998856Y9194016D02*
X36959808Y9115921D01*
X36959808Y9115921D02*
X36959808Y8920683D01*
X36959808Y8920683D02*
X36998856Y8842588D01*
X36998856Y8842588D02*
X37037903Y8803540D01*
X37037903Y8803540D02*
X37115999Y8764493D01*
X37115999Y8764493D02*
X37194094Y8764493D01*
X37194094Y8764493D02*
X37311237Y8803540D01*
X37311237Y8803540D02*
X37779808Y9272112D01*
X37779808Y9272112D02*
X37779808Y8764493D01*
X28652651Y44822809D02*
X28379318Y44432333D01*
X28184080Y44822809D02*
X28184080Y44002809D01*
X28184080Y44002809D02*
X28496461Y44002809D01*
X28496461Y44002809D02*
X28574556Y44041857D01*
X28574556Y44041857D02*
X28613603Y44080904D01*
X28613603Y44080904D02*
X28652651Y44159000D01*
X28652651Y44159000D02*
X28652651Y44276142D01*
X28652651Y44276142D02*
X28613603Y44354238D01*
X28613603Y44354238D02*
X28574556Y44393285D01*
X28574556Y44393285D02*
X28496461Y44432333D01*
X28496461Y44432333D02*
X28184080Y44432333D01*
X29043127Y44822809D02*
X29199318Y44822809D01*
X29199318Y44822809D02*
X29277413Y44783761D01*
X29277413Y44783761D02*
X29316461Y44744714D01*
X29316461Y44744714D02*
X29394556Y44627571D01*
X29394556Y44627571D02*
X29433603Y44471381D01*
X29433603Y44471381D02*
X29433603Y44159000D01*
X29433603Y44159000D02*
X29394556Y44080904D01*
X29394556Y44080904D02*
X29355508Y44041857D01*
X29355508Y44041857D02*
X29277413Y44002809D01*
X29277413Y44002809D02*
X29121222Y44002809D01*
X29121222Y44002809D02*
X29043127Y44041857D01*
X29043127Y44041857D02*
X29004080Y44080904D01*
X29004080Y44080904D02*
X28965032Y44159000D01*
X28965032Y44159000D02*
X28965032Y44354238D01*
X28965032Y44354238D02*
X29004080Y44432333D01*
X29004080Y44432333D02*
X29043127Y44471381D01*
X29043127Y44471381D02*
X29121222Y44510428D01*
X29121222Y44510428D02*
X29277413Y44510428D01*
X29277413Y44510428D02*
X29355508Y44471381D01*
X29355508Y44471381D02*
X29394556Y44432333D01*
X29394556Y44432333D02*
X29433603Y44354238D01*
X29941222Y44002809D02*
X30019317Y44002809D01*
X30019317Y44002809D02*
X30097413Y44041857D01*
X30097413Y44041857D02*
X30136460Y44080904D01*
X30136460Y44080904D02*
X30175508Y44159000D01*
X30175508Y44159000D02*
X30214555Y44315190D01*
X30214555Y44315190D02*
X30214555Y44510428D01*
X30214555Y44510428D02*
X30175508Y44666619D01*
X30175508Y44666619D02*
X30136460Y44744714D01*
X30136460Y44744714D02*
X30097413Y44783761D01*
X30097413Y44783761D02*
X30019317Y44822809D01*
X30019317Y44822809D02*
X29941222Y44822809D01*
X29941222Y44822809D02*
X29863127Y44783761D01*
X29863127Y44783761D02*
X29824079Y44744714D01*
X29824079Y44744714D02*
X29785032Y44666619D01*
X29785032Y44666619D02*
X29745984Y44510428D01*
X29745984Y44510428D02*
X29745984Y44315190D01*
X29745984Y44315190D02*
X29785032Y44159000D01*
X29785032Y44159000D02*
X29824079Y44080904D01*
X29824079Y44080904D02*
X29863127Y44041857D01*
X29863127Y44041857D02*
X29941222Y44002809D01*
X30956460Y44002809D02*
X30565984Y44002809D01*
X30565984Y44002809D02*
X30526936Y44393285D01*
X30526936Y44393285D02*
X30565984Y44354238D01*
X30565984Y44354238D02*
X30644079Y44315190D01*
X30644079Y44315190D02*
X30839317Y44315190D01*
X30839317Y44315190D02*
X30917412Y44354238D01*
X30917412Y44354238D02*
X30956460Y44393285D01*
X30956460Y44393285D02*
X30995507Y44471381D01*
X30995507Y44471381D02*
X30995507Y44666619D01*
X30995507Y44666619D02*
X30956460Y44744714D01*
X30956460Y44744714D02*
X30917412Y44783761D01*
X30917412Y44783761D02*
X30839317Y44822809D01*
X30839317Y44822809D02*
X30644079Y44822809D01*
X30644079Y44822809D02*
X30565984Y44783761D01*
X30565984Y44783761D02*
X30526936Y44744714D01*
X39188808Y11118349D02*
X38798332Y11391682D01*
X39188808Y11586920D02*
X38368808Y11586920D01*
X38368808Y11586920D02*
X38368808Y11274539D01*
X38368808Y11274539D02*
X38407856Y11196444D01*
X38407856Y11196444D02*
X38446903Y11157397D01*
X38446903Y11157397D02*
X38524999Y11118349D01*
X38524999Y11118349D02*
X38642141Y11118349D01*
X38642141Y11118349D02*
X38720237Y11157397D01*
X38720237Y11157397D02*
X38759284Y11196444D01*
X38759284Y11196444D02*
X38798332Y11274539D01*
X38798332Y11274539D02*
X38798332Y11586920D01*
X38642141Y10415492D02*
X39188808Y10415492D01*
X38329761Y10610730D02*
X38915475Y10805968D01*
X38915475Y10805968D02*
X38915475Y10298349D01*
X38368808Y9829778D02*
X38368808Y9751683D01*
X38368808Y9751683D02*
X38407856Y9673587D01*
X38407856Y9673587D02*
X38446903Y9634540D01*
X38446903Y9634540D02*
X38524999Y9595492D01*
X38524999Y9595492D02*
X38681189Y9556445D01*
X38681189Y9556445D02*
X38876427Y9556445D01*
X38876427Y9556445D02*
X39032618Y9595492D01*
X39032618Y9595492D02*
X39110713Y9634540D01*
X39110713Y9634540D02*
X39149761Y9673587D01*
X39149761Y9673587D02*
X39188808Y9751683D01*
X39188808Y9751683D02*
X39188808Y9829778D01*
X39188808Y9829778D02*
X39149761Y9907873D01*
X39149761Y9907873D02*
X39110713Y9946921D01*
X39110713Y9946921D02*
X39032618Y9985968D01*
X39032618Y9985968D02*
X38876427Y10025016D01*
X38876427Y10025016D02*
X38681189Y10025016D01*
X38681189Y10025016D02*
X38524999Y9985968D01*
X38524999Y9985968D02*
X38446903Y9946921D01*
X38446903Y9946921D02*
X38407856Y9907873D01*
X38407856Y9907873D02*
X38368808Y9829778D01*
X39188808Y8775493D02*
X39188808Y9244064D01*
X39188808Y9009778D02*
X38368808Y9009778D01*
X38368808Y9009778D02*
X38485951Y9087874D01*
X38485951Y9087874D02*
X38564046Y9165969D01*
X38564046Y9165969D02*
X38603094Y9244064D01*
X17935651Y29320809D02*
X17662318Y28930333D01*
X17467080Y29320809D02*
X17467080Y28500809D01*
X17467080Y28500809D02*
X17779461Y28500809D01*
X17779461Y28500809D02*
X17857556Y28539857D01*
X17857556Y28539857D02*
X17896603Y28578904D01*
X17896603Y28578904D02*
X17935651Y28657000D01*
X17935651Y28657000D02*
X17935651Y28774142D01*
X17935651Y28774142D02*
X17896603Y28852238D01*
X17896603Y28852238D02*
X17857556Y28891285D01*
X17857556Y28891285D02*
X17779461Y28930333D01*
X17779461Y28930333D02*
X17467080Y28930333D01*
X18326127Y29320809D02*
X18482318Y29320809D01*
X18482318Y29320809D02*
X18560413Y29281761D01*
X18560413Y29281761D02*
X18599461Y29242714D01*
X18599461Y29242714D02*
X18677556Y29125571D01*
X18677556Y29125571D02*
X18716603Y28969381D01*
X18716603Y28969381D02*
X18716603Y28657000D01*
X18716603Y28657000D02*
X18677556Y28578904D01*
X18677556Y28578904D02*
X18638508Y28539857D01*
X18638508Y28539857D02*
X18560413Y28500809D01*
X18560413Y28500809D02*
X18404222Y28500809D01*
X18404222Y28500809D02*
X18326127Y28539857D01*
X18326127Y28539857D02*
X18287080Y28578904D01*
X18287080Y28578904D02*
X18248032Y28657000D01*
X18248032Y28657000D02*
X18248032Y28852238D01*
X18248032Y28852238D02*
X18287080Y28930333D01*
X18287080Y28930333D02*
X18326127Y28969381D01*
X18326127Y28969381D02*
X18404222Y29008428D01*
X18404222Y29008428D02*
X18560413Y29008428D01*
X18560413Y29008428D02*
X18638508Y28969381D01*
X18638508Y28969381D02*
X18677556Y28930333D01*
X18677556Y28930333D02*
X18716603Y28852238D01*
X19497555Y29320809D02*
X19028984Y29320809D01*
X19263270Y29320809D02*
X19263270Y28500809D01*
X19263270Y28500809D02*
X19185174Y28617952D01*
X19185174Y28617952D02*
X19107079Y28696047D01*
X19107079Y28696047D02*
X19028984Y28735095D01*
X19809936Y28578904D02*
X19848984Y28539857D01*
X19848984Y28539857D02*
X19927079Y28500809D01*
X19927079Y28500809D02*
X20122317Y28500809D01*
X20122317Y28500809D02*
X20200412Y28539857D01*
X20200412Y28539857D02*
X20239460Y28578904D01*
X20239460Y28578904D02*
X20278507Y28657000D01*
X20278507Y28657000D02*
X20278507Y28735095D01*
X20278507Y28735095D02*
X20239460Y28852238D01*
X20239460Y28852238D02*
X19770888Y29320809D01*
X19770888Y29320809D02*
X20278507Y29320809D01*
X28295651Y29420809D02*
X28022318Y29030333D01*
X27827080Y29420809D02*
X27827080Y28600809D01*
X27827080Y28600809D02*
X28139461Y28600809D01*
X28139461Y28600809D02*
X28217556Y28639857D01*
X28217556Y28639857D02*
X28256603Y28678904D01*
X28256603Y28678904D02*
X28295651Y28757000D01*
X28295651Y28757000D02*
X28295651Y28874142D01*
X28295651Y28874142D02*
X28256603Y28952238D01*
X28256603Y28952238D02*
X28217556Y28991285D01*
X28217556Y28991285D02*
X28139461Y29030333D01*
X28139461Y29030333D02*
X27827080Y29030333D01*
X28686127Y29420809D02*
X28842318Y29420809D01*
X28842318Y29420809D02*
X28920413Y29381761D01*
X28920413Y29381761D02*
X28959461Y29342714D01*
X28959461Y29342714D02*
X29037556Y29225571D01*
X29037556Y29225571D02*
X29076603Y29069381D01*
X29076603Y29069381D02*
X29076603Y28757000D01*
X29076603Y28757000D02*
X29037556Y28678904D01*
X29037556Y28678904D02*
X28998508Y28639857D01*
X28998508Y28639857D02*
X28920413Y28600809D01*
X28920413Y28600809D02*
X28764222Y28600809D01*
X28764222Y28600809D02*
X28686127Y28639857D01*
X28686127Y28639857D02*
X28647080Y28678904D01*
X28647080Y28678904D02*
X28608032Y28757000D01*
X28608032Y28757000D02*
X28608032Y28952238D01*
X28608032Y28952238D02*
X28647080Y29030333D01*
X28647080Y29030333D02*
X28686127Y29069381D01*
X28686127Y29069381D02*
X28764222Y29108428D01*
X28764222Y29108428D02*
X28920413Y29108428D01*
X28920413Y29108428D02*
X28998508Y29069381D01*
X28998508Y29069381D02*
X29037556Y29030333D01*
X29037556Y29030333D02*
X29076603Y28952238D01*
X29857555Y29420809D02*
X29388984Y29420809D01*
X29623270Y29420809D02*
X29623270Y28600809D01*
X29623270Y28600809D02*
X29545174Y28717952D01*
X29545174Y28717952D02*
X29467079Y28796047D01*
X29467079Y28796047D02*
X29388984Y28835095D01*
X30560412Y28874142D02*
X30560412Y29420809D01*
X30365174Y28561761D02*
X30169936Y29147476D01*
X30169936Y29147476D02*
X30677555Y29147476D01*
X7365651Y75330809D02*
X7092318Y74940333D01*
X6897080Y75330809D02*
X6897080Y74510809D01*
X6897080Y74510809D02*
X7209461Y74510809D01*
X7209461Y74510809D02*
X7287556Y74549857D01*
X7287556Y74549857D02*
X7326603Y74588904D01*
X7326603Y74588904D02*
X7365651Y74667000D01*
X7365651Y74667000D02*
X7365651Y74784142D01*
X7365651Y74784142D02*
X7326603Y74862238D01*
X7326603Y74862238D02*
X7287556Y74901285D01*
X7287556Y74901285D02*
X7209461Y74940333D01*
X7209461Y74940333D02*
X6897080Y74940333D01*
X7756127Y75330809D02*
X7912318Y75330809D01*
X7912318Y75330809D02*
X7990413Y75291761D01*
X7990413Y75291761D02*
X8029461Y75252714D01*
X8029461Y75252714D02*
X8107556Y75135571D01*
X8107556Y75135571D02*
X8146603Y74979381D01*
X8146603Y74979381D02*
X8146603Y74667000D01*
X8146603Y74667000D02*
X8107556Y74588904D01*
X8107556Y74588904D02*
X8068508Y74549857D01*
X8068508Y74549857D02*
X7990413Y74510809D01*
X7990413Y74510809D02*
X7834222Y74510809D01*
X7834222Y74510809D02*
X7756127Y74549857D01*
X7756127Y74549857D02*
X7717080Y74588904D01*
X7717080Y74588904D02*
X7678032Y74667000D01*
X7678032Y74667000D02*
X7678032Y74862238D01*
X7678032Y74862238D02*
X7717080Y74940333D01*
X7717080Y74940333D02*
X7756127Y74979381D01*
X7756127Y74979381D02*
X7834222Y75018428D01*
X7834222Y75018428D02*
X7990413Y75018428D01*
X7990413Y75018428D02*
X8068508Y74979381D01*
X8068508Y74979381D02*
X8107556Y74940333D01*
X8107556Y74940333D02*
X8146603Y74862238D01*
X8654222Y74510809D02*
X8732317Y74510809D01*
X8732317Y74510809D02*
X8810413Y74549857D01*
X8810413Y74549857D02*
X8849460Y74588904D01*
X8849460Y74588904D02*
X8888508Y74667000D01*
X8888508Y74667000D02*
X8927555Y74823190D01*
X8927555Y74823190D02*
X8927555Y75018428D01*
X8927555Y75018428D02*
X8888508Y75174619D01*
X8888508Y75174619D02*
X8849460Y75252714D01*
X8849460Y75252714D02*
X8810413Y75291761D01*
X8810413Y75291761D02*
X8732317Y75330809D01*
X8732317Y75330809D02*
X8654222Y75330809D01*
X8654222Y75330809D02*
X8576127Y75291761D01*
X8576127Y75291761D02*
X8537079Y75252714D01*
X8537079Y75252714D02*
X8498032Y75174619D01*
X8498032Y75174619D02*
X8458984Y75018428D01*
X8458984Y75018428D02*
X8458984Y74823190D01*
X8458984Y74823190D02*
X8498032Y74667000D01*
X8498032Y74667000D02*
X8537079Y74588904D01*
X8537079Y74588904D02*
X8576127Y74549857D01*
X8576127Y74549857D02*
X8654222Y74510809D01*
X9239936Y74588904D02*
X9278984Y74549857D01*
X9278984Y74549857D02*
X9357079Y74510809D01*
X9357079Y74510809D02*
X9552317Y74510809D01*
X9552317Y74510809D02*
X9630412Y74549857D01*
X9630412Y74549857D02*
X9669460Y74588904D01*
X9669460Y74588904D02*
X9708507Y74667000D01*
X9708507Y74667000D02*
X9708507Y74745095D01*
X9708507Y74745095D02*
X9669460Y74862238D01*
X9669460Y74862238D02*
X9200888Y75330809D01*
X9200888Y75330809D02*
X9708507Y75330809D01*
X46367808Y11375349D02*
X45977332Y11648682D01*
X46367808Y11843920D02*
X45547808Y11843920D01*
X45547808Y11843920D02*
X45547808Y11531539D01*
X45547808Y11531539D02*
X45586856Y11453444D01*
X45586856Y11453444D02*
X45625903Y11414397D01*
X45625903Y11414397D02*
X45703999Y11375349D01*
X45703999Y11375349D02*
X45821141Y11375349D01*
X45821141Y11375349D02*
X45899237Y11414397D01*
X45899237Y11414397D02*
X45938284Y11453444D01*
X45938284Y11453444D02*
X45977332Y11531539D01*
X45977332Y11531539D02*
X45977332Y11843920D01*
X45821141Y10672492D02*
X46367808Y10672492D01*
X45508761Y10867730D02*
X46094475Y11062968D01*
X46094475Y11062968D02*
X46094475Y10555349D01*
X45547808Y10086778D02*
X45547808Y10008683D01*
X45547808Y10008683D02*
X45586856Y9930587D01*
X45586856Y9930587D02*
X45625903Y9891540D01*
X45625903Y9891540D02*
X45703999Y9852492D01*
X45703999Y9852492D02*
X45860189Y9813445D01*
X45860189Y9813445D02*
X46055427Y9813445D01*
X46055427Y9813445D02*
X46211618Y9852492D01*
X46211618Y9852492D02*
X46289713Y9891540D01*
X46289713Y9891540D02*
X46328761Y9930587D01*
X46328761Y9930587D02*
X46367808Y10008683D01*
X46367808Y10008683D02*
X46367808Y10086778D01*
X46367808Y10086778D02*
X46328761Y10164873D01*
X46328761Y10164873D02*
X46289713Y10203921D01*
X46289713Y10203921D02*
X46211618Y10242968D01*
X46211618Y10242968D02*
X46055427Y10282016D01*
X46055427Y10282016D02*
X45860189Y10282016D01*
X45860189Y10282016D02*
X45703999Y10242968D01*
X45703999Y10242968D02*
X45625903Y10203921D01*
X45625903Y10203921D02*
X45586856Y10164873D01*
X45586856Y10164873D02*
X45547808Y10086778D01*
X45547808Y9110588D02*
X45547808Y9266778D01*
X45547808Y9266778D02*
X45586856Y9344874D01*
X45586856Y9344874D02*
X45625903Y9383921D01*
X45625903Y9383921D02*
X45743046Y9462016D01*
X45743046Y9462016D02*
X45899237Y9501064D01*
X45899237Y9501064D02*
X46211618Y9501064D01*
X46211618Y9501064D02*
X46289713Y9462016D01*
X46289713Y9462016D02*
X46328761Y9422969D01*
X46328761Y9422969D02*
X46367808Y9344874D01*
X46367808Y9344874D02*
X46367808Y9188683D01*
X46367808Y9188683D02*
X46328761Y9110588D01*
X46328761Y9110588D02*
X46289713Y9071540D01*
X46289713Y9071540D02*
X46211618Y9032493D01*
X46211618Y9032493D02*
X46016380Y9032493D01*
X46016380Y9032493D02*
X45938284Y9071540D01*
X45938284Y9071540D02*
X45899237Y9110588D01*
X45899237Y9110588D02*
X45860189Y9188683D01*
X45860189Y9188683D02*
X45860189Y9344874D01*
X45860189Y9344874D02*
X45899237Y9422969D01*
X45899237Y9422969D02*
X45938284Y9462016D01*
X45938284Y9462016D02*
X46016380Y9501064D01*
X7487372Y44467809D02*
X7214039Y44077333D01*
X7018801Y44467809D02*
X7018801Y43647809D01*
X7018801Y43647809D02*
X7331182Y43647809D01*
X7331182Y43647809D02*
X7409277Y43686857D01*
X7409277Y43686857D02*
X7448324Y43725904D01*
X7448324Y43725904D02*
X7487372Y43804000D01*
X7487372Y43804000D02*
X7487372Y43921142D01*
X7487372Y43921142D02*
X7448324Y43999238D01*
X7448324Y43999238D02*
X7409277Y44038285D01*
X7409277Y44038285D02*
X7331182Y44077333D01*
X7331182Y44077333D02*
X7018801Y44077333D01*
X7877848Y44467809D02*
X8034039Y44467809D01*
X8034039Y44467809D02*
X8112134Y44428761D01*
X8112134Y44428761D02*
X8151182Y44389714D01*
X8151182Y44389714D02*
X8229277Y44272571D01*
X8229277Y44272571D02*
X8268324Y44116381D01*
X8268324Y44116381D02*
X8268324Y43804000D01*
X8268324Y43804000D02*
X8229277Y43725904D01*
X8229277Y43725904D02*
X8190229Y43686857D01*
X8190229Y43686857D02*
X8112134Y43647809D01*
X8112134Y43647809D02*
X7955943Y43647809D01*
X7955943Y43647809D02*
X7877848Y43686857D01*
X7877848Y43686857D02*
X7838801Y43725904D01*
X7838801Y43725904D02*
X7799753Y43804000D01*
X7799753Y43804000D02*
X7799753Y43999238D01*
X7799753Y43999238D02*
X7838801Y44077333D01*
X7838801Y44077333D02*
X7877848Y44116381D01*
X7877848Y44116381D02*
X7955943Y44155428D01*
X7955943Y44155428D02*
X8112134Y44155428D01*
X8112134Y44155428D02*
X8190229Y44116381D01*
X8190229Y44116381D02*
X8229277Y44077333D01*
X8229277Y44077333D02*
X8268324Y43999238D01*
X8775943Y43647809D02*
X8854038Y43647809D01*
X8854038Y43647809D02*
X8932134Y43686857D01*
X8932134Y43686857D02*
X8971181Y43725904D01*
X8971181Y43725904D02*
X9010229Y43804000D01*
X9010229Y43804000D02*
X9049276Y43960190D01*
X9049276Y43960190D02*
X9049276Y44155428D01*
X9049276Y44155428D02*
X9010229Y44311619D01*
X9010229Y44311619D02*
X8971181Y44389714D01*
X8971181Y44389714D02*
X8932134Y44428761D01*
X8932134Y44428761D02*
X8854038Y44467809D01*
X8854038Y44467809D02*
X8775943Y44467809D01*
X8775943Y44467809D02*
X8697848Y44428761D01*
X8697848Y44428761D02*
X8658800Y44389714D01*
X8658800Y44389714D02*
X8619753Y44311619D01*
X8619753Y44311619D02*
X8580705Y44155428D01*
X8580705Y44155428D02*
X8580705Y43960190D01*
X8580705Y43960190D02*
X8619753Y43804000D01*
X8619753Y43804000D02*
X8658800Y43725904D01*
X8658800Y43725904D02*
X8697848Y43686857D01*
X8697848Y43686857D02*
X8775943Y43647809D01*
X9752133Y43921142D02*
X9752133Y44467809D01*
X9556895Y43608761D02*
X9361657Y44194476D01*
X9361657Y44194476D02*
X9869276Y44194476D01*
X43424808Y11158349D02*
X43034332Y11431682D01*
X43424808Y11626920D02*
X42604808Y11626920D01*
X42604808Y11626920D02*
X42604808Y11314539D01*
X42604808Y11314539D02*
X42643856Y11236444D01*
X42643856Y11236444D02*
X42682903Y11197397D01*
X42682903Y11197397D02*
X42760999Y11158349D01*
X42760999Y11158349D02*
X42878141Y11158349D01*
X42878141Y11158349D02*
X42956237Y11197397D01*
X42956237Y11197397D02*
X42995284Y11236444D01*
X42995284Y11236444D02*
X43034332Y11314539D01*
X43034332Y11314539D02*
X43034332Y11626920D01*
X42878141Y10455492D02*
X43424808Y10455492D01*
X42565761Y10650730D02*
X43151475Y10845968D01*
X43151475Y10845968D02*
X43151475Y10338349D01*
X42604808Y9869778D02*
X42604808Y9791683D01*
X42604808Y9791683D02*
X42643856Y9713587D01*
X42643856Y9713587D02*
X42682903Y9674540D01*
X42682903Y9674540D02*
X42760999Y9635492D01*
X42760999Y9635492D02*
X42917189Y9596445D01*
X42917189Y9596445D02*
X43112427Y9596445D01*
X43112427Y9596445D02*
X43268618Y9635492D01*
X43268618Y9635492D02*
X43346713Y9674540D01*
X43346713Y9674540D02*
X43385761Y9713587D01*
X43385761Y9713587D02*
X43424808Y9791683D01*
X43424808Y9791683D02*
X43424808Y9869778D01*
X43424808Y9869778D02*
X43385761Y9947873D01*
X43385761Y9947873D02*
X43346713Y9986921D01*
X43346713Y9986921D02*
X43268618Y10025968D01*
X43268618Y10025968D02*
X43112427Y10065016D01*
X43112427Y10065016D02*
X42917189Y10065016D01*
X42917189Y10065016D02*
X42760999Y10025968D01*
X42760999Y10025968D02*
X42682903Y9986921D01*
X42682903Y9986921D02*
X42643856Y9947873D01*
X42643856Y9947873D02*
X42604808Y9869778D01*
X42878141Y8893588D02*
X43424808Y8893588D01*
X42565761Y9088826D02*
X43151475Y9284064D01*
X43151475Y9284064D02*
X43151475Y8776445D01*
X7275651Y29420809D02*
X7002318Y29030333D01*
X6807080Y29420809D02*
X6807080Y28600809D01*
X6807080Y28600809D02*
X7119461Y28600809D01*
X7119461Y28600809D02*
X7197556Y28639857D01*
X7197556Y28639857D02*
X7236603Y28678904D01*
X7236603Y28678904D02*
X7275651Y28757000D01*
X7275651Y28757000D02*
X7275651Y28874142D01*
X7275651Y28874142D02*
X7236603Y28952238D01*
X7236603Y28952238D02*
X7197556Y28991285D01*
X7197556Y28991285D02*
X7119461Y29030333D01*
X7119461Y29030333D02*
X6807080Y29030333D01*
X7666127Y29420809D02*
X7822318Y29420809D01*
X7822318Y29420809D02*
X7900413Y29381761D01*
X7900413Y29381761D02*
X7939461Y29342714D01*
X7939461Y29342714D02*
X8017556Y29225571D01*
X8017556Y29225571D02*
X8056603Y29069381D01*
X8056603Y29069381D02*
X8056603Y28757000D01*
X8056603Y28757000D02*
X8017556Y28678904D01*
X8017556Y28678904D02*
X7978508Y28639857D01*
X7978508Y28639857D02*
X7900413Y28600809D01*
X7900413Y28600809D02*
X7744222Y28600809D01*
X7744222Y28600809D02*
X7666127Y28639857D01*
X7666127Y28639857D02*
X7627080Y28678904D01*
X7627080Y28678904D02*
X7588032Y28757000D01*
X7588032Y28757000D02*
X7588032Y28952238D01*
X7588032Y28952238D02*
X7627080Y29030333D01*
X7627080Y29030333D02*
X7666127Y29069381D01*
X7666127Y29069381D02*
X7744222Y29108428D01*
X7744222Y29108428D02*
X7900413Y29108428D01*
X7900413Y29108428D02*
X7978508Y29069381D01*
X7978508Y29069381D02*
X8017556Y29030333D01*
X8017556Y29030333D02*
X8056603Y28952238D01*
X8564222Y28600809D02*
X8642317Y28600809D01*
X8642317Y28600809D02*
X8720413Y28639857D01*
X8720413Y28639857D02*
X8759460Y28678904D01*
X8759460Y28678904D02*
X8798508Y28757000D01*
X8798508Y28757000D02*
X8837555Y28913190D01*
X8837555Y28913190D02*
X8837555Y29108428D01*
X8837555Y29108428D02*
X8798508Y29264619D01*
X8798508Y29264619D02*
X8759460Y29342714D01*
X8759460Y29342714D02*
X8720413Y29381761D01*
X8720413Y29381761D02*
X8642317Y29420809D01*
X8642317Y29420809D02*
X8564222Y29420809D01*
X8564222Y29420809D02*
X8486127Y29381761D01*
X8486127Y29381761D02*
X8447079Y29342714D01*
X8447079Y29342714D02*
X8408032Y29264619D01*
X8408032Y29264619D02*
X8368984Y29108428D01*
X8368984Y29108428D02*
X8368984Y28913190D01*
X8368984Y28913190D02*
X8408032Y28757000D01*
X8408032Y28757000D02*
X8447079Y28678904D01*
X8447079Y28678904D02*
X8486127Y28639857D01*
X8486127Y28639857D02*
X8564222Y28600809D01*
X9618507Y29420809D02*
X9149936Y29420809D01*
X9384222Y29420809D02*
X9384222Y28600809D01*
X9384222Y28600809D02*
X9306126Y28717952D01*
X9306126Y28717952D02*
X9228031Y28796047D01*
X9228031Y28796047D02*
X9149936Y28835095D01*
X28162651Y60630809D02*
X27889318Y60240333D01*
X27694080Y60630809D02*
X27694080Y59810809D01*
X27694080Y59810809D02*
X28006461Y59810809D01*
X28006461Y59810809D02*
X28084556Y59849857D01*
X28084556Y59849857D02*
X28123603Y59888904D01*
X28123603Y59888904D02*
X28162651Y59967000D01*
X28162651Y59967000D02*
X28162651Y60084142D01*
X28162651Y60084142D02*
X28123603Y60162238D01*
X28123603Y60162238D02*
X28084556Y60201285D01*
X28084556Y60201285D02*
X28006461Y60240333D01*
X28006461Y60240333D02*
X27694080Y60240333D01*
X28553127Y60630809D02*
X28709318Y60630809D01*
X28709318Y60630809D02*
X28787413Y60591761D01*
X28787413Y60591761D02*
X28826461Y60552714D01*
X28826461Y60552714D02*
X28904556Y60435571D01*
X28904556Y60435571D02*
X28943603Y60279381D01*
X28943603Y60279381D02*
X28943603Y59967000D01*
X28943603Y59967000D02*
X28904556Y59888904D01*
X28904556Y59888904D02*
X28865508Y59849857D01*
X28865508Y59849857D02*
X28787413Y59810809D01*
X28787413Y59810809D02*
X28631222Y59810809D01*
X28631222Y59810809D02*
X28553127Y59849857D01*
X28553127Y59849857D02*
X28514080Y59888904D01*
X28514080Y59888904D02*
X28475032Y59967000D01*
X28475032Y59967000D02*
X28475032Y60162238D01*
X28475032Y60162238D02*
X28514080Y60240333D01*
X28514080Y60240333D02*
X28553127Y60279381D01*
X28553127Y60279381D02*
X28631222Y60318428D01*
X28631222Y60318428D02*
X28787413Y60318428D01*
X28787413Y60318428D02*
X28865508Y60279381D01*
X28865508Y60279381D02*
X28904556Y60240333D01*
X28904556Y60240333D02*
X28943603Y60162238D01*
X29724555Y60630809D02*
X29255984Y60630809D01*
X29490270Y60630809D02*
X29490270Y59810809D01*
X29490270Y59810809D02*
X29412174Y59927952D01*
X29412174Y59927952D02*
X29334079Y60006047D01*
X29334079Y60006047D02*
X29255984Y60045095D01*
X30466460Y59810809D02*
X30075984Y59810809D01*
X30075984Y59810809D02*
X30036936Y60201285D01*
X30036936Y60201285D02*
X30075984Y60162238D01*
X30075984Y60162238D02*
X30154079Y60123190D01*
X30154079Y60123190D02*
X30349317Y60123190D01*
X30349317Y60123190D02*
X30427412Y60162238D01*
X30427412Y60162238D02*
X30466460Y60201285D01*
X30466460Y60201285D02*
X30505507Y60279381D01*
X30505507Y60279381D02*
X30505507Y60474619D01*
X30505507Y60474619D02*
X30466460Y60552714D01*
X30466460Y60552714D02*
X30427412Y60591761D01*
X30427412Y60591761D02*
X30349317Y60630809D01*
X30349317Y60630809D02*
X30154079Y60630809D01*
X30154079Y60630809D02*
X30075984Y60591761D01*
X30075984Y60591761D02*
X30036936Y60552714D01*
D12*
G04 #@! TO.C,M4*
X36449400Y23066001D02*
X36449400Y15715620D01*
X36449400Y15715620D02*
X36699018Y15466001D01*
X36699018Y15466001D02*
X48774018Y15466001D01*
X36699399Y23316001D02*
X36449400Y23066001D01*
X36699399Y23316001D02*
X49761080Y23316001D01*
X48774018Y16466002D02*
X48774018Y15466001D01*
X49524019Y17216003D02*
X48774018Y16466002D01*
X49524019Y17216003D02*
X50122728Y17216003D01*
X49761080Y23316001D02*
X50122728Y22954353D01*
X50122728Y22954353D02*
X50122728Y17216003D01*
G04 #@! TO.C,M2*
X96890784Y87249758D02*
X96890784Y72249758D01*
X96890784Y87249758D02*
X98190784Y87249758D01*
X96890784Y72249758D02*
X101990784Y72249758D01*
X106490784Y87249758D02*
X100090784Y87249758D01*
X106490784Y72849758D02*
X106490784Y87249758D01*
G04 #@! TO.C,M3*
X92180000Y86959000D02*
X92180000Y77859000D01*
X92180000Y86959000D02*
X93180002Y86959000D01*
X95280003Y86959000D02*
X95280003Y77859000D01*
G04 #@! TO.C,M7*
X45349999Y50357002D02*
X45349999Y38282002D01*
X45599618Y50606620D02*
X45349999Y50357002D01*
X46350000Y38282002D02*
X45349999Y38282002D01*
X47100001Y37532001D02*
X46350000Y38282002D01*
X47100001Y37532001D02*
X47100001Y36933292D01*
X52838351Y36933292D02*
X47100001Y36933292D01*
X52949999Y50606620D02*
X45599618Y50606620D01*
X53199999Y50356621D02*
X52949999Y50606620D01*
X53199999Y50356621D02*
X53199999Y37294940D01*
X53199999Y37294940D02*
X52838351Y36933292D01*
G04 #@! TO.C,M9*
X59005002Y49905003D02*
X59004999Y10005004D01*
X60304999Y10005004D02*
X59004999Y10005004D01*
X101105002Y49905003D02*
X59005002Y49905003D01*
X101105002Y49905003D02*
X101105002Y10005004D01*
X101105002Y10005004D02*
X60304999Y10005004D01*
G04 #@! TO.C,M5*
X109141000Y99863000D02*
X123041000Y99863000D01*
X123041000Y72363000D01*
X109141000Y72363000D01*
X109141000Y99863000D01*
G04 #@! TO.C,M1*
X60380254Y79122598D02*
X60380254Y82322601D01*
X60380254Y67022598D02*
X60380254Y77422600D01*
X60380254Y65122598D02*
X60380254Y65422598D01*
X60380254Y65122598D02*
X75780254Y65122598D01*
X61880254Y85722596D02*
X77180253Y85722598D01*
X77180251Y79022600D02*
X77180251Y83822600D01*
X77180251Y72822598D02*
X77180251Y75522598D01*
X77180251Y70122600D02*
X77180251Y71222603D01*
X77180251Y66572598D02*
X77180256Y68122598D01*
X77180253Y85422600D02*
X77180253Y85722598D01*
D13*
G04 #@! TO.C,F10*
X55271000Y80670990D02*
X55271000Y85520990D01*
X57271000Y80670990D02*
X57271000Y85520990D01*
X55271000Y85520990D02*
G75*
G02*
X57271000Y85520990I1000000J0D01*
G01*
X57271000Y80620990D02*
G75*
G02*
X55271000Y80620990I-1000000J0D01*
G01*
D12*
G04 #@! TO.C,M6*
X118294460Y26706501D02*
X125187337Y26706501D01*
X118300663Y37550295D02*
X118300663Y26706501D01*
X118350663Y37606497D02*
X118300663Y37550295D01*
X118350663Y37606497D02*
X119175662Y37606497D01*
X119450668Y37881501D02*
X119175662Y37606497D01*
X119450668Y37881501D02*
X125148490Y37881501D01*
X125148490Y37881501D02*
X125187337Y26706501D01*
D14*
G04 #@! TO.C,R911*
X18857222Y62355923D02*
X18457223Y62355912D01*
X18858279Y61610087D02*
X18458279Y61610077D01*
G04 #@! TO.C,R403*
X41040015Y13107000D02*
X41040005Y13507000D01*
X41785851Y13108057D02*
X41785840Y13508056D01*
G04 #@! TO.C,R903*
X19068943Y77400851D02*
X18668944Y77400840D01*
X19070000Y76655015D02*
X18670000Y76655005D01*
G04 #@! TO.C,R906*
X8197222Y62453851D02*
X7797223Y62453840D01*
X8198279Y61708015D02*
X7798279Y61708005D01*
G04 #@! TO.C,R405*
X44244015Y13107000D02*
X44244005Y13507000D01*
X44989851Y13108057D02*
X44989840Y13508056D01*
G04 #@! TO.C,R913*
X29504943Y78109851D02*
X29104944Y78109840D01*
X29506000Y77364015D02*
X29106000Y77364005D01*
G04 #@! TO.C,R916*
X40068943Y31610851D02*
X39668944Y31610840D01*
X40070000Y30865015D02*
X39670000Y30865005D01*
G04 #@! TO.C,R402*
X37141015Y13107000D02*
X37141005Y13507000D01*
X37886851Y13108057D02*
X37886840Y13508056D01*
G04 #@! TO.C,R905*
X29695943Y46992851D02*
X29295944Y46992840D01*
X29697000Y46247015D02*
X29297000Y46247005D01*
G04 #@! TO.C,R401*
X38683015Y13107000D02*
X38683005Y13507000D01*
X39428851Y13108057D02*
X39428840Y13508056D01*
G04 #@! TO.C,R912*
X18978943Y31490851D02*
X18578944Y31490840D01*
X18980000Y30745015D02*
X18580000Y30745005D01*
G04 #@! TO.C,R914*
X29338943Y31590851D02*
X28938944Y31590840D01*
X29340000Y30845015D02*
X28940000Y30845005D01*
G04 #@! TO.C,R902*
X8408943Y77500851D02*
X8008944Y77500840D01*
X8410000Y76755015D02*
X8010000Y76755005D01*
G04 #@! TO.C,R406*
X45583015Y13259000D02*
X45583005Y13659000D01*
X46328851Y13260057D02*
X46328840Y13660056D01*
G04 #@! TO.C,R904*
X8530664Y46637851D02*
X8130665Y46637840D01*
X8531721Y45892015D02*
X8131721Y45892005D01*
G04 #@! TO.C,R404*
X42837015Y13107000D02*
X42837005Y13507000D01*
X43582851Y13108057D02*
X43582840Y13508056D01*
G04 #@! TO.C,R901*
X8318943Y31590851D02*
X7918944Y31590840D01*
X8320000Y30845015D02*
X7920000Y30845005D01*
G04 #@! TO.C,R915*
X29205943Y62800851D02*
X28805944Y62800840D01*
X29207000Y62055015D02*
X28807000Y62055005D01*
G04 #@! TD*
M02*
