G04 #@! TF.GenerationSoftware,KiCad,Pcbnew,8.0.9-8.0.9-0~ubuntu24.04.1*
G04 #@! TF.CreationDate,2026-01-28T03:30:08+00:00*
G04 #@! TF.ProjectId,greenecu48,67726565-6e65-4637-9534-382e6b696361,rev?*
G04 #@! TF.SameCoordinates,Original*
G04 #@! TF.FileFunction,Legend,Bot*
G04 #@! TF.FilePolarity,Positive*
%FSLAX46Y46*%
G04 Gerber Fmt 4.6, Leading zero omitted, Abs format (unit mm)*
G04 Created by KiCad (PCBNEW 8.0.9-8.0.9-0~ubuntu24.04.1) date 2026-01-28 03:30:08*
%MOMM*%
%LPD*%
G01*
G04 APERTURE LIST*
%ADD10C,0.150000*%
%ADD11C,0.130000*%
%ADD12C,0.101600*%
%ADD13C,0.127000*%
%ADD14C,0.200000*%
G04 APERTURE END LIST*
D10*
X53806458Y109168782D02*
X53806458Y109835449D01*
X53806458Y109740211D02*
X53854077Y109787830D01*
X53854077Y109787830D02*
X53949315Y109835449D01*
X53949315Y109835449D02*
X54092172Y109835449D01*
X54092172Y109835449D02*
X54187410Y109787830D01*
X54187410Y109787830D02*
X54235029Y109692592D01*
X54235029Y109692592D02*
X54235029Y109168782D01*
X54235029Y109692592D02*
X54282648Y109787830D01*
X54282648Y109787830D02*
X54377886Y109835449D01*
X54377886Y109835449D02*
X54520743Y109835449D01*
X54520743Y109835449D02*
X54615982Y109787830D01*
X54615982Y109787830D02*
X54663601Y109692592D01*
X54663601Y109692592D02*
X54663601Y109168782D01*
X55282648Y109168782D02*
X55187410Y109216401D01*
X55187410Y109216401D02*
X55139791Y109264021D01*
X55139791Y109264021D02*
X55092172Y109359259D01*
X55092172Y109359259D02*
X55092172Y109644973D01*
X55092172Y109644973D02*
X55139791Y109740211D01*
X55139791Y109740211D02*
X55187410Y109787830D01*
X55187410Y109787830D02*
X55282648Y109835449D01*
X55282648Y109835449D02*
X55425505Y109835449D01*
X55425505Y109835449D02*
X55520743Y109787830D01*
X55520743Y109787830D02*
X55568362Y109740211D01*
X55568362Y109740211D02*
X55615981Y109644973D01*
X55615981Y109644973D02*
X55615981Y109359259D01*
X55615981Y109359259D02*
X55568362Y109264021D01*
X55568362Y109264021D02*
X55520743Y109216401D01*
X55520743Y109216401D02*
X55425505Y109168782D01*
X55425505Y109168782D02*
X55282648Y109168782D01*
X56187410Y109168782D02*
X56092172Y109216401D01*
X56092172Y109216401D02*
X56044553Y109311640D01*
X56044553Y109311640D02*
X56044553Y110168782D01*
X56949315Y109216401D02*
X56854077Y109168782D01*
X56854077Y109168782D02*
X56663601Y109168782D01*
X56663601Y109168782D02*
X56568363Y109216401D01*
X56568363Y109216401D02*
X56520744Y109311640D01*
X56520744Y109311640D02*
X56520744Y109692592D01*
X56520744Y109692592D02*
X56568363Y109787830D01*
X56568363Y109787830D02*
X56663601Y109835449D01*
X56663601Y109835449D02*
X56854077Y109835449D01*
X56854077Y109835449D02*
X56949315Y109787830D01*
X56949315Y109787830D02*
X56996934Y109692592D01*
X56996934Y109692592D02*
X56996934Y109597354D01*
X56996934Y109597354D02*
X56520744Y109502116D01*
X57330268Y109168782D02*
X57854077Y109835449D01*
X57330268Y109835449D02*
X57854077Y109168782D01*
X57996935Y109073544D02*
X58758839Y109073544D01*
X59425506Y109835449D02*
X59425506Y109168782D01*
X59187411Y110216401D02*
X58949316Y109502116D01*
X58949316Y109502116D02*
X59568363Y109502116D01*
X60092173Y109740211D02*
X59996935Y109787830D01*
X59996935Y109787830D02*
X59949316Y109835449D01*
X59949316Y109835449D02*
X59901697Y109930687D01*
X59901697Y109930687D02*
X59901697Y109978306D01*
X59901697Y109978306D02*
X59949316Y110073544D01*
X59949316Y110073544D02*
X59996935Y110121163D01*
X59996935Y110121163D02*
X60092173Y110168782D01*
X60092173Y110168782D02*
X60282649Y110168782D01*
X60282649Y110168782D02*
X60377887Y110121163D01*
X60377887Y110121163D02*
X60425506Y110073544D01*
X60425506Y110073544D02*
X60473125Y109978306D01*
X60473125Y109978306D02*
X60473125Y109930687D01*
X60473125Y109930687D02*
X60425506Y109835449D01*
X60425506Y109835449D02*
X60377887Y109787830D01*
X60377887Y109787830D02*
X60282649Y109740211D01*
X60282649Y109740211D02*
X60092173Y109740211D01*
X60092173Y109740211D02*
X59996935Y109692592D01*
X59996935Y109692592D02*
X59949316Y109644973D01*
X59949316Y109644973D02*
X59901697Y109549735D01*
X59901697Y109549735D02*
X59901697Y109359259D01*
X59901697Y109359259D02*
X59949316Y109264021D01*
X59949316Y109264021D02*
X59996935Y109216401D01*
X59996935Y109216401D02*
X60092173Y109168782D01*
X60092173Y109168782D02*
X60282649Y109168782D01*
X60282649Y109168782D02*
X60377887Y109216401D01*
X60377887Y109216401D02*
X60425506Y109264021D01*
X60425506Y109264021D02*
X60473125Y109359259D01*
X60473125Y109359259D02*
X60473125Y109549735D01*
X60473125Y109549735D02*
X60425506Y109644973D01*
X60425506Y109644973D02*
X60377887Y109692592D01*
X60377887Y109692592D02*
X60282649Y109740211D01*
X60901697Y109835449D02*
X60901697Y108835449D01*
X60901697Y109787830D02*
X60996935Y109835449D01*
X60996935Y109835449D02*
X61187411Y109835449D01*
X61187411Y109835449D02*
X61282649Y109787830D01*
X61282649Y109787830D02*
X61330268Y109740211D01*
X61330268Y109740211D02*
X61377887Y109644973D01*
X61377887Y109644973D02*
X61377887Y109359259D01*
X61377887Y109359259D02*
X61330268Y109264021D01*
X61330268Y109264021D02*
X61282649Y109216401D01*
X61282649Y109216401D02*
X61187411Y109168782D01*
X61187411Y109168782D02*
X60996935Y109168782D01*
X60996935Y109168782D02*
X60901697Y109216401D01*
X61806459Y109168782D02*
X61806459Y109835449D01*
X61806459Y110168782D02*
X61758840Y110121163D01*
X61758840Y110121163D02*
X61806459Y110073544D01*
X61806459Y110073544D02*
X61854078Y110121163D01*
X61854078Y110121163D02*
X61806459Y110168782D01*
X61806459Y110168782D02*
X61806459Y110073544D01*
X62282649Y109835449D02*
X62282649Y109168782D01*
X62282649Y109740211D02*
X62330268Y109787830D01*
X62330268Y109787830D02*
X62425506Y109835449D01*
X62425506Y109835449D02*
X62568363Y109835449D01*
X62568363Y109835449D02*
X62663601Y109787830D01*
X62663601Y109787830D02*
X62711220Y109692592D01*
X62711220Y109692592D02*
X62711220Y109168782D01*
X62949316Y109073544D02*
X63711220Y109073544D01*
X63949316Y109168782D02*
X63949316Y110168782D01*
X63949316Y110168782D02*
X64282649Y109454497D01*
X64282649Y109454497D02*
X64615982Y110168782D01*
X64615982Y110168782D02*
X64615982Y109168782D01*
X65663601Y109168782D02*
X65330268Y109644973D01*
X65092173Y109168782D02*
X65092173Y110168782D01*
X65092173Y110168782D02*
X65473125Y110168782D01*
X65473125Y110168782D02*
X65568363Y110121163D01*
X65568363Y110121163D02*
X65615982Y110073544D01*
X65615982Y110073544D02*
X65663601Y109978306D01*
X65663601Y109978306D02*
X65663601Y109835449D01*
X65663601Y109835449D02*
X65615982Y109740211D01*
X65615982Y109740211D02*
X65568363Y109692592D01*
X65568363Y109692592D02*
X65473125Y109644973D01*
X65473125Y109644973D02*
X65092173Y109644973D01*
X66092173Y109692592D02*
X66425506Y109692592D01*
X66568363Y109168782D02*
X66092173Y109168782D01*
X66092173Y109168782D02*
X66092173Y110168782D01*
X66092173Y110168782D02*
X66568363Y110168782D01*
D11*
X80130830Y94585600D02*
X80130830Y94052266D01*
X80273687Y94890361D02*
X80416544Y94318933D01*
X80416544Y94318933D02*
X80045115Y94318933D01*
X79730829Y94509409D02*
X79787972Y94547504D01*
X79787972Y94547504D02*
X79816543Y94585600D01*
X79816543Y94585600D02*
X79845115Y94661790D01*
X79845115Y94661790D02*
X79845115Y94699885D01*
X79845115Y94699885D02*
X79816543Y94776076D01*
X79816543Y94776076D02*
X79787972Y94814171D01*
X79787972Y94814171D02*
X79730829Y94852266D01*
X79730829Y94852266D02*
X79616543Y94852266D01*
X79616543Y94852266D02*
X79559401Y94814171D01*
X79559401Y94814171D02*
X79530829Y94776076D01*
X79530829Y94776076D02*
X79502258Y94699885D01*
X79502258Y94699885D02*
X79502258Y94661790D01*
X79502258Y94661790D02*
X79530829Y94585600D01*
X79530829Y94585600D02*
X79559401Y94547504D01*
X79559401Y94547504D02*
X79616543Y94509409D01*
X79616543Y94509409D02*
X79730829Y94509409D01*
X79730829Y94509409D02*
X79787972Y94471314D01*
X79787972Y94471314D02*
X79816543Y94433219D01*
X79816543Y94433219D02*
X79845115Y94357028D01*
X79845115Y94357028D02*
X79845115Y94204647D01*
X79845115Y94204647D02*
X79816543Y94128457D01*
X79816543Y94128457D02*
X79787972Y94090361D01*
X79787972Y94090361D02*
X79730829Y94052266D01*
X79730829Y94052266D02*
X79616543Y94052266D01*
X79616543Y94052266D02*
X79559401Y94090361D01*
X79559401Y94090361D02*
X79530829Y94128457D01*
X79530829Y94128457D02*
X79502258Y94204647D01*
X79502258Y94204647D02*
X79502258Y94357028D01*
X79502258Y94357028D02*
X79530829Y94433219D01*
X79530829Y94433219D02*
X79559401Y94471314D01*
X79559401Y94471314D02*
X79616543Y94509409D01*
X46667831Y101607125D02*
X46629736Y101683315D01*
X46629736Y101683315D02*
X46629736Y101797601D01*
X46629736Y101797601D02*
X46667831Y101911887D01*
X46667831Y101911887D02*
X46744021Y101988077D01*
X46744021Y101988077D02*
X46820212Y102026172D01*
X46820212Y102026172D02*
X46972593Y102064268D01*
X46972593Y102064268D02*
X47086879Y102064268D01*
X47086879Y102064268D02*
X47239260Y102026172D01*
X47239260Y102026172D02*
X47315450Y101988077D01*
X47315450Y101988077D02*
X47391641Y101911887D01*
X47391641Y101911887D02*
X47429736Y101797601D01*
X47429736Y101797601D02*
X47429736Y101721410D01*
X47429736Y101721410D02*
X47391641Y101607125D01*
X47391641Y101607125D02*
X47353545Y101569029D01*
X47353545Y101569029D02*
X47086879Y101569029D01*
X47086879Y101569029D02*
X47086879Y101721410D01*
X47429736Y101226172D02*
X46629736Y101226172D01*
X46629736Y101226172D02*
X47429736Y100769029D01*
X47429736Y100769029D02*
X46629736Y100769029D01*
X47429736Y100388077D02*
X46629736Y100388077D01*
X46629736Y100388077D02*
X46629736Y100197601D01*
X46629736Y100197601D02*
X46667831Y100083315D01*
X46667831Y100083315D02*
X46744021Y100007125D01*
X46744021Y100007125D02*
X46820212Y99969030D01*
X46820212Y99969030D02*
X46972593Y99930934D01*
X46972593Y99930934D02*
X47086879Y99930934D01*
X47086879Y99930934D02*
X47239260Y99969030D01*
X47239260Y99969030D02*
X47315450Y100007125D01*
X47315450Y100007125D02*
X47391641Y100083315D01*
X47391641Y100083315D02*
X47429736Y100197601D01*
X47429736Y100197601D02*
X47429736Y100388077D01*
X71394664Y94661600D02*
X71394664Y94280647D01*
X71623236Y94737790D02*
X70823236Y94471123D01*
X70823236Y94471123D02*
X71623236Y94204457D01*
X70823236Y94052076D02*
X71623236Y93785409D01*
X71623236Y93785409D02*
X70823236Y93518743D01*
X71166093Y93137791D02*
X71127998Y93213981D01*
X71127998Y93213981D02*
X71089902Y93252076D01*
X71089902Y93252076D02*
X71013712Y93290172D01*
X71013712Y93290172D02*
X70975617Y93290172D01*
X70975617Y93290172D02*
X70899426Y93252076D01*
X70899426Y93252076D02*
X70861331Y93213981D01*
X70861331Y93213981D02*
X70823236Y93137791D01*
X70823236Y93137791D02*
X70823236Y92985410D01*
X70823236Y92985410D02*
X70861331Y92909219D01*
X70861331Y92909219D02*
X70899426Y92871124D01*
X70899426Y92871124D02*
X70975617Y92833029D01*
X70975617Y92833029D02*
X71013712Y92833029D01*
X71013712Y92833029D02*
X71089902Y92871124D01*
X71089902Y92871124D02*
X71127998Y92909219D01*
X71127998Y92909219D02*
X71166093Y92985410D01*
X71166093Y92985410D02*
X71166093Y93137791D01*
X71166093Y93137791D02*
X71204188Y93213981D01*
X71204188Y93213981D02*
X71242283Y93252076D01*
X71242283Y93252076D02*
X71318474Y93290172D01*
X71318474Y93290172D02*
X71470855Y93290172D01*
X71470855Y93290172D02*
X71547045Y93252076D01*
X71547045Y93252076D02*
X71585141Y93213981D01*
X71585141Y93213981D02*
X71623236Y93137791D01*
X71623236Y93137791D02*
X71623236Y92985410D01*
X71623236Y92985410D02*
X71585141Y92909219D01*
X71585141Y92909219D02*
X71547045Y92871124D01*
X71547045Y92871124D02*
X71470855Y92833029D01*
X71470855Y92833029D02*
X71318474Y92833029D01*
X71318474Y92833029D02*
X71242283Y92871124D01*
X71242283Y92871124D02*
X71204188Y92909219D01*
X71204188Y92909219D02*
X71166093Y92985410D01*
D12*
X65184984Y98933174D02*
X65184984Y98691269D01*
X65330127Y98981555D02*
X64822127Y98812221D01*
X64822127Y98812221D02*
X65330127Y98642888D01*
X64822127Y98546126D02*
X65330127Y98376792D01*
X65330127Y98376792D02*
X64822127Y98207459D01*
X65330127Y97772030D02*
X65330127Y98062316D01*
X65330127Y97917173D02*
X64822127Y97917173D01*
X64822127Y97917173D02*
X64894698Y97965554D01*
X64894698Y97965554D02*
X64943079Y98013935D01*
X64943079Y98013935D02*
X64967270Y98062316D01*
X75299627Y101657625D02*
X74791627Y101657625D01*
X75299627Y101415720D02*
X74791627Y101415720D01*
X74791627Y101415720D02*
X75299627Y101125434D01*
X75299627Y101125434D02*
X74791627Y101125434D01*
X74791627Y100738387D02*
X75154484Y100738387D01*
X75154484Y100738387D02*
X75227056Y100762578D01*
X75227056Y100762578D02*
X75275437Y100810959D01*
X75275437Y100810959D02*
X75299627Y100883530D01*
X75299627Y100883530D02*
X75299627Y100931911D01*
X74960960Y100278768D02*
X75299627Y100278768D01*
X74767437Y100399720D02*
X75130294Y100520673D01*
X75130294Y100520673D02*
X75130294Y100206196D01*
X57353317Y101382459D02*
X57329127Y101430840D01*
X57329127Y101430840D02*
X57329127Y101503411D01*
X57329127Y101503411D02*
X57353317Y101575983D01*
X57353317Y101575983D02*
X57401698Y101624364D01*
X57401698Y101624364D02*
X57450079Y101648554D01*
X57450079Y101648554D02*
X57546841Y101672745D01*
X57546841Y101672745D02*
X57619413Y101672745D01*
X57619413Y101672745D02*
X57716175Y101648554D01*
X57716175Y101648554D02*
X57764556Y101624364D01*
X57764556Y101624364D02*
X57812937Y101575983D01*
X57812937Y101575983D02*
X57837127Y101503411D01*
X57837127Y101503411D02*
X57837127Y101455030D01*
X57837127Y101455030D02*
X57812937Y101382459D01*
X57812937Y101382459D02*
X57788746Y101358268D01*
X57788746Y101358268D02*
X57619413Y101358268D01*
X57619413Y101358268D02*
X57619413Y101455030D01*
X57837127Y101140554D02*
X57329127Y101140554D01*
X57329127Y101140554D02*
X57329127Y100947030D01*
X57329127Y100947030D02*
X57353317Y100898649D01*
X57353317Y100898649D02*
X57377508Y100874459D01*
X57377508Y100874459D02*
X57425889Y100850268D01*
X57425889Y100850268D02*
X57498460Y100850268D01*
X57498460Y100850268D02*
X57546841Y100874459D01*
X57546841Y100874459D02*
X57571032Y100898649D01*
X57571032Y100898649D02*
X57595222Y100947030D01*
X57595222Y100947030D02*
X57595222Y101140554D01*
X57329127Y100390649D02*
X57329127Y100632554D01*
X57329127Y100632554D02*
X57571032Y100656745D01*
X57571032Y100656745D02*
X57546841Y100632554D01*
X57546841Y100632554D02*
X57522651Y100584173D01*
X57522651Y100584173D02*
X57522651Y100463221D01*
X57522651Y100463221D02*
X57546841Y100414840D01*
X57546841Y100414840D02*
X57571032Y100390649D01*
X57571032Y100390649D02*
X57619413Y100366459D01*
X57619413Y100366459D02*
X57740365Y100366459D01*
X57740365Y100366459D02*
X57788746Y100390649D01*
X57788746Y100390649D02*
X57812937Y100414840D01*
X57812937Y100414840D02*
X57837127Y100463221D01*
X57837127Y100463221D02*
X57837127Y100584173D01*
X57837127Y100584173D02*
X57812937Y100632554D01*
X57812937Y100632554D02*
X57788746Y100656745D01*
D13*
X57349153Y104347195D02*
X57349153Y104855195D01*
X56889534Y104685862D02*
X56889534Y104274624D01*
X56889534Y104274624D02*
X56913724Y104226243D01*
X56913724Y104226243D02*
X56937915Y104202052D01*
X56937915Y104202052D02*
X56986296Y104177862D01*
X56986296Y104177862D02*
X57058867Y104177862D01*
X57058867Y104177862D02*
X57107248Y104202052D01*
X56889534Y104371385D02*
X56937915Y104347195D01*
X56937915Y104347195D02*
X57034677Y104347195D01*
X57034677Y104347195D02*
X57083058Y104371385D01*
X57083058Y104371385D02*
X57107248Y104395576D01*
X57107248Y104395576D02*
X57131439Y104443957D01*
X57131439Y104443957D02*
X57131439Y104589100D01*
X57131439Y104589100D02*
X57107248Y104637481D01*
X57107248Y104637481D02*
X57083058Y104661671D01*
X57083058Y104661671D02*
X57034677Y104685862D01*
X57034677Y104685862D02*
X56937915Y104685862D01*
X56937915Y104685862D02*
X56889534Y104661671D01*
X56647629Y104685862D02*
X56647629Y104347195D01*
X56647629Y104637481D02*
X56623439Y104661671D01*
X56623439Y104661671D02*
X56575058Y104685862D01*
X56575058Y104685862D02*
X56502486Y104685862D01*
X56502486Y104685862D02*
X56454105Y104661671D01*
X56454105Y104661671D02*
X56429915Y104613290D01*
X56429915Y104613290D02*
X56429915Y104347195D01*
X55921915Y104347195D02*
X56212201Y104347195D01*
X56067058Y104347195D02*
X56067058Y104855195D01*
X56067058Y104855195D02*
X56115439Y104782624D01*
X56115439Y104782624D02*
X56163820Y104734243D01*
X56163820Y104734243D02*
X56212201Y104710052D01*
D10*
X47018420Y103256935D02*
X47732705Y103256935D01*
X47732705Y103256935D02*
X47875562Y103304554D01*
X47875562Y103304554D02*
X47970801Y103399792D01*
X47970801Y103399792D02*
X48018420Y103542649D01*
X48018420Y103542649D02*
X48018420Y103637887D01*
X47446991Y102637887D02*
X47399372Y102733125D01*
X47399372Y102733125D02*
X47351753Y102780744D01*
X47351753Y102780744D02*
X47256515Y102828363D01*
X47256515Y102828363D02*
X47208896Y102828363D01*
X47208896Y102828363D02*
X47113658Y102780744D01*
X47113658Y102780744D02*
X47066039Y102733125D01*
X47066039Y102733125D02*
X47018420Y102637887D01*
X47018420Y102637887D02*
X47018420Y102447411D01*
X47018420Y102447411D02*
X47066039Y102352173D01*
X47066039Y102352173D02*
X47113658Y102304554D01*
X47113658Y102304554D02*
X47208896Y102256935D01*
X47208896Y102256935D02*
X47256515Y102256935D01*
X47256515Y102256935D02*
X47351753Y102304554D01*
X47351753Y102304554D02*
X47399372Y102352173D01*
X47399372Y102352173D02*
X47446991Y102447411D01*
X47446991Y102447411D02*
X47446991Y102637887D01*
X47446991Y102637887D02*
X47494610Y102733125D01*
X47494610Y102733125D02*
X47542229Y102780744D01*
X47542229Y102780744D02*
X47637467Y102828363D01*
X47637467Y102828363D02*
X47827943Y102828363D01*
X47827943Y102828363D02*
X47923181Y102780744D01*
X47923181Y102780744D02*
X47970801Y102733125D01*
X47970801Y102733125D02*
X48018420Y102637887D01*
X48018420Y102637887D02*
X48018420Y102447411D01*
X48018420Y102447411D02*
X47970801Y102352173D01*
X47970801Y102352173D02*
X47923181Y102304554D01*
X47923181Y102304554D02*
X47827943Y102256935D01*
X47827943Y102256935D02*
X47637467Y102256935D01*
X47637467Y102256935D02*
X47542229Y102304554D01*
X47542229Y102304554D02*
X47494610Y102352173D01*
X47494610Y102352173D02*
X47446991Y102447411D01*
D11*
X74061664Y94661600D02*
X74061664Y94280647D01*
X74290236Y94737790D02*
X73490236Y94471123D01*
X73490236Y94471123D02*
X74290236Y94204457D01*
X73490236Y94052076D02*
X74290236Y93785409D01*
X74290236Y93785409D02*
X73490236Y93518743D01*
X74290236Y93213981D02*
X74290236Y93061600D01*
X74290236Y93061600D02*
X74252141Y92985410D01*
X74252141Y92985410D02*
X74214045Y92947314D01*
X74214045Y92947314D02*
X74099760Y92871124D01*
X74099760Y92871124D02*
X73947379Y92833029D01*
X73947379Y92833029D02*
X73642617Y92833029D01*
X73642617Y92833029D02*
X73566426Y92871124D01*
X73566426Y92871124D02*
X73528331Y92909219D01*
X73528331Y92909219D02*
X73490236Y92985410D01*
X73490236Y92985410D02*
X73490236Y93137791D01*
X73490236Y93137791D02*
X73528331Y93213981D01*
X73528331Y93213981D02*
X73566426Y93252076D01*
X73566426Y93252076D02*
X73642617Y93290172D01*
X73642617Y93290172D02*
X73833093Y93290172D01*
X73833093Y93290172D02*
X73909283Y93252076D01*
X73909283Y93252076D02*
X73947379Y93213981D01*
X73947379Y93213981D02*
X73985474Y93137791D01*
X73985474Y93137791D02*
X73985474Y92985410D01*
X73985474Y92985410D02*
X73947379Y92909219D01*
X73947379Y92909219D02*
X73909283Y92871124D01*
X73909283Y92871124D02*
X73833093Y92833029D01*
D12*
X77791246Y101938234D02*
X77815437Y101962425D01*
X77815437Y101962425D02*
X77839627Y102034996D01*
X77839627Y102034996D02*
X77839627Y102083377D01*
X77839627Y102083377D02*
X77815437Y102155949D01*
X77815437Y102155949D02*
X77767056Y102204330D01*
X77767056Y102204330D02*
X77718675Y102228520D01*
X77718675Y102228520D02*
X77621913Y102252711D01*
X77621913Y102252711D02*
X77549341Y102252711D01*
X77549341Y102252711D02*
X77452579Y102228520D01*
X77452579Y102228520D02*
X77404198Y102204330D01*
X77404198Y102204330D02*
X77355817Y102155949D01*
X77355817Y102155949D02*
X77331627Y102083377D01*
X77331627Y102083377D02*
X77331627Y102034996D01*
X77331627Y102034996D02*
X77355817Y101962425D01*
X77355817Y101962425D02*
X77380008Y101938234D01*
X77839627Y101430234D02*
X77597722Y101599568D01*
X77839627Y101720520D02*
X77331627Y101720520D01*
X77331627Y101720520D02*
X77331627Y101526996D01*
X77331627Y101526996D02*
X77355817Y101478615D01*
X77355817Y101478615D02*
X77380008Y101454425D01*
X77380008Y101454425D02*
X77428389Y101430234D01*
X77428389Y101430234D02*
X77500960Y101430234D01*
X77500960Y101430234D02*
X77549341Y101454425D01*
X77549341Y101454425D02*
X77573532Y101478615D01*
X77573532Y101478615D02*
X77597722Y101526996D01*
X77597722Y101526996D02*
X77597722Y101720520D01*
X77839627Y101212520D02*
X77331627Y101212520D01*
X77331627Y101212520D02*
X77839627Y100922234D01*
X77839627Y100922234D02*
X77331627Y100922234D01*
X77839627Y100680330D02*
X77331627Y100680330D01*
X77839627Y100390044D02*
X77549341Y100607759D01*
X77331627Y100390044D02*
X77621913Y100680330D01*
X77646103Y100172330D02*
X77646103Y99785282D01*
D11*
X83007257Y98043457D02*
X83045353Y98005361D01*
X83045353Y98005361D02*
X83159638Y97967266D01*
X83159638Y97967266D02*
X83235829Y97967266D01*
X83235829Y97967266D02*
X83350115Y98005361D01*
X83350115Y98005361D02*
X83426305Y98081552D01*
X83426305Y98081552D02*
X83464400Y98157742D01*
X83464400Y98157742D02*
X83502496Y98310123D01*
X83502496Y98310123D02*
X83502496Y98424409D01*
X83502496Y98424409D02*
X83464400Y98576790D01*
X83464400Y98576790D02*
X83426305Y98652981D01*
X83426305Y98652981D02*
X83350115Y98729171D01*
X83350115Y98729171D02*
X83235829Y98767266D01*
X83235829Y98767266D02*
X83159638Y98767266D01*
X83159638Y98767266D02*
X83045353Y98729171D01*
X83045353Y98729171D02*
X83007257Y98691076D01*
X82702496Y98195838D02*
X82321543Y98195838D01*
X82778686Y97967266D02*
X82512019Y98767266D01*
X82512019Y98767266D02*
X82245353Y97967266D01*
X81978686Y97967266D02*
X81978686Y98767266D01*
X81978686Y98767266D02*
X81521543Y97967266D01*
X81521543Y97967266D02*
X81521543Y98767266D01*
X80150115Y97967266D02*
X80531067Y97967266D01*
X80531067Y97967266D02*
X80531067Y98767266D01*
X73987736Y106456627D02*
X73187736Y106456627D01*
X73987736Y106170913D02*
X73187736Y106170913D01*
X73187736Y106170913D02*
X73987736Y105828056D01*
X73987736Y105828056D02*
X73187736Y105828056D01*
X73187736Y105370914D02*
X73759164Y105370914D01*
X73759164Y105370914D02*
X73873450Y105399485D01*
X73873450Y105399485D02*
X73949641Y105456628D01*
X73949641Y105456628D02*
X73987736Y105542342D01*
X73987736Y105542342D02*
X73987736Y105599485D01*
X73987736Y104770914D02*
X73987736Y105113771D01*
X73987736Y104942342D02*
X73187736Y104942342D01*
X73187736Y104942342D02*
X73302021Y104999485D01*
X73302021Y104999485D02*
X73378212Y105056628D01*
X73378212Y105056628D02*
X73416307Y105113771D01*
D13*
X51341492Y98866887D02*
X51341492Y99247839D01*
X51341492Y99247839D02*
X50541492Y99247839D01*
X51303397Y98638316D02*
X51341492Y98524030D01*
X51341492Y98524030D02*
X51341492Y98333554D01*
X51341492Y98333554D02*
X51303397Y98257363D01*
X51303397Y98257363D02*
X51265301Y98219268D01*
X51265301Y98219268D02*
X51189111Y98181173D01*
X51189111Y98181173D02*
X51112920Y98181173D01*
X51112920Y98181173D02*
X51036730Y98219268D01*
X51036730Y98219268D02*
X50998635Y98257363D01*
X50998635Y98257363D02*
X50960539Y98333554D01*
X50960539Y98333554D02*
X50922444Y98485935D01*
X50922444Y98485935D02*
X50884349Y98562125D01*
X50884349Y98562125D02*
X50846254Y98600220D01*
X50846254Y98600220D02*
X50770063Y98638316D01*
X50770063Y98638316D02*
X50693873Y98638316D01*
X50693873Y98638316D02*
X50617682Y98600220D01*
X50617682Y98600220D02*
X50579587Y98562125D01*
X50579587Y98562125D02*
X50541492Y98485935D01*
X50541492Y98485935D02*
X50541492Y98295458D01*
X50541492Y98295458D02*
X50579587Y98181173D01*
X51341492Y97419268D02*
X51341492Y97876411D01*
X51341492Y97647839D02*
X50541492Y97647839D01*
X50541492Y97647839D02*
X50655777Y97724030D01*
X50655777Y97724030D02*
X50731968Y97800220D01*
X50731968Y97800220D02*
X50770063Y97876411D01*
X59604915Y104831005D02*
X59653296Y104855195D01*
X59653296Y104855195D02*
X59725867Y104855195D01*
X59725867Y104855195D02*
X59798439Y104831005D01*
X59798439Y104831005D02*
X59846820Y104782624D01*
X59846820Y104782624D02*
X59871010Y104734243D01*
X59871010Y104734243D02*
X59895201Y104637481D01*
X59895201Y104637481D02*
X59895201Y104564909D01*
X59895201Y104564909D02*
X59871010Y104468147D01*
X59871010Y104468147D02*
X59846820Y104419766D01*
X59846820Y104419766D02*
X59798439Y104371385D01*
X59798439Y104371385D02*
X59725867Y104347195D01*
X59725867Y104347195D02*
X59677486Y104347195D01*
X59677486Y104347195D02*
X59604915Y104371385D01*
X59604915Y104371385D02*
X59580724Y104395576D01*
X59580724Y104395576D02*
X59580724Y104564909D01*
X59580724Y104564909D02*
X59677486Y104564909D01*
X59363010Y104347195D02*
X59363010Y104855195D01*
X59363010Y104855195D02*
X59169486Y104855195D01*
X59169486Y104855195D02*
X59121105Y104831005D01*
X59121105Y104831005D02*
X59096915Y104806814D01*
X59096915Y104806814D02*
X59072724Y104758433D01*
X59072724Y104758433D02*
X59072724Y104685862D01*
X59072724Y104685862D02*
X59096915Y104637481D01*
X59096915Y104637481D02*
X59121105Y104613290D01*
X59121105Y104613290D02*
X59169486Y104589100D01*
X59169486Y104589100D02*
X59363010Y104589100D01*
X58637296Y104855195D02*
X58734058Y104855195D01*
X58734058Y104855195D02*
X58782439Y104831005D01*
X58782439Y104831005D02*
X58806629Y104806814D01*
X58806629Y104806814D02*
X58855010Y104734243D01*
X58855010Y104734243D02*
X58879201Y104637481D01*
X58879201Y104637481D02*
X58879201Y104443957D01*
X58879201Y104443957D02*
X58855010Y104395576D01*
X58855010Y104395576D02*
X58830820Y104371385D01*
X58830820Y104371385D02*
X58782439Y104347195D01*
X58782439Y104347195D02*
X58685677Y104347195D01*
X58685677Y104347195D02*
X58637296Y104371385D01*
X58637296Y104371385D02*
X58613105Y104395576D01*
X58613105Y104395576D02*
X58588915Y104443957D01*
X58588915Y104443957D02*
X58588915Y104564909D01*
X58588915Y104564909D02*
X58613105Y104613290D01*
X58613105Y104613290D02*
X58637296Y104637481D01*
X58637296Y104637481D02*
X58685677Y104661671D01*
X58685677Y104661671D02*
X58782439Y104661671D01*
X58782439Y104661671D02*
X58830820Y104637481D01*
X58830820Y104637481D02*
X58855010Y104613290D01*
X58855010Y104613290D02*
X58879201Y104564909D01*
D12*
X72251627Y98754768D02*
X72251627Y98996673D01*
X72251627Y98996673D02*
X72493532Y99020864D01*
X72493532Y99020864D02*
X72469341Y98996673D01*
X72469341Y98996673D02*
X72445151Y98948292D01*
X72445151Y98948292D02*
X72445151Y98827340D01*
X72445151Y98827340D02*
X72469341Y98778959D01*
X72469341Y98778959D02*
X72493532Y98754768D01*
X72493532Y98754768D02*
X72541913Y98730578D01*
X72541913Y98730578D02*
X72662865Y98730578D01*
X72662865Y98730578D02*
X72711246Y98754768D01*
X72711246Y98754768D02*
X72735437Y98778959D01*
X72735437Y98778959D02*
X72759627Y98827340D01*
X72759627Y98827340D02*
X72759627Y98948292D01*
X72759627Y98948292D02*
X72735437Y98996673D01*
X72735437Y98996673D02*
X72711246Y99020864D01*
X72251627Y98585435D02*
X72759627Y98416101D01*
X72759627Y98416101D02*
X72251627Y98246768D01*
X72300008Y98101625D02*
X72275817Y98077434D01*
X72275817Y98077434D02*
X72251627Y98029053D01*
X72251627Y98029053D02*
X72251627Y97908101D01*
X72251627Y97908101D02*
X72275817Y97859720D01*
X72275817Y97859720D02*
X72300008Y97835529D01*
X72300008Y97835529D02*
X72348389Y97811339D01*
X72348389Y97811339D02*
X72396770Y97811339D01*
X72396770Y97811339D02*
X72469341Y97835529D01*
X72469341Y97835529D02*
X72759627Y98125815D01*
X72759627Y98125815D02*
X72759627Y97811339D01*
D11*
X63774664Y94661600D02*
X63774664Y94280647D01*
X64003236Y94737790D02*
X63203236Y94471123D01*
X63203236Y94471123D02*
X64003236Y94204457D01*
X63203236Y94052076D02*
X63203236Y93594933D01*
X64003236Y93823505D02*
X63203236Y93823505D01*
X63203236Y93404457D02*
X63203236Y92909219D01*
X63203236Y92909219D02*
X63507998Y93175885D01*
X63507998Y93175885D02*
X63507998Y93061600D01*
X63507998Y93061600D02*
X63546093Y92985409D01*
X63546093Y92985409D02*
X63584188Y92947314D01*
X63584188Y92947314D02*
X63660379Y92909219D01*
X63660379Y92909219D02*
X63850855Y92909219D01*
X63850855Y92909219D02*
X63927045Y92947314D01*
X63927045Y92947314D02*
X63965141Y92985409D01*
X63965141Y92985409D02*
X64003236Y93061600D01*
X64003236Y93061600D02*
X64003236Y93290171D01*
X64003236Y93290171D02*
X63965141Y93366362D01*
X63965141Y93366362D02*
X63927045Y93404457D01*
X53323927Y105872243D02*
X53781070Y105872243D01*
X53552498Y105872243D02*
X53552498Y106672243D01*
X53552498Y106672243D02*
X53628689Y106557958D01*
X53628689Y106557958D02*
X53704879Y106481767D01*
X53704879Y106481767D02*
X53781070Y106443672D01*
X53019165Y106596053D02*
X52981069Y106634148D01*
X52981069Y106634148D02*
X52904879Y106672243D01*
X52904879Y106672243D02*
X52714403Y106672243D01*
X52714403Y106672243D02*
X52638212Y106634148D01*
X52638212Y106634148D02*
X52600117Y106596053D01*
X52600117Y106596053D02*
X52562022Y106519862D01*
X52562022Y106519862D02*
X52562022Y106443672D01*
X52562022Y106443672D02*
X52600117Y106329386D01*
X52600117Y106329386D02*
X53057260Y105872243D01*
X53057260Y105872243D02*
X52562022Y105872243D01*
X52333450Y106672243D02*
X52066783Y105872243D01*
X52066783Y105872243D02*
X51800117Y106672243D01*
X53552497Y104584288D02*
X53552497Y105384288D01*
X52752498Y105346193D02*
X52828688Y105384288D01*
X52828688Y105384288D02*
X52942974Y105384288D01*
X52942974Y105384288D02*
X53057260Y105346193D01*
X53057260Y105346193D02*
X53133450Y105270003D01*
X53133450Y105270003D02*
X53171545Y105193812D01*
X53171545Y105193812D02*
X53209641Y105041431D01*
X53209641Y105041431D02*
X53209641Y104927145D01*
X53209641Y104927145D02*
X53171545Y104774764D01*
X53171545Y104774764D02*
X53133450Y104698574D01*
X53133450Y104698574D02*
X53057260Y104622383D01*
X53057260Y104622383D02*
X52942974Y104584288D01*
X52942974Y104584288D02*
X52866783Y104584288D01*
X52866783Y104584288D02*
X52752498Y104622383D01*
X52752498Y104622383D02*
X52714402Y104660479D01*
X52714402Y104660479D02*
X52714402Y104927145D01*
X52714402Y104927145D02*
X52866783Y104927145D01*
X52371545Y104584288D02*
X52371545Y105384288D01*
X52371545Y105384288D02*
X51914402Y104584288D01*
X51914402Y104584288D02*
X51914402Y105384288D01*
X80257830Y104872600D02*
X80257830Y104339266D01*
X80400687Y105177361D02*
X80543544Y104605933D01*
X80543544Y104605933D02*
X80172115Y104605933D01*
X79657829Y105139266D02*
X79943543Y105139266D01*
X79943543Y105139266D02*
X79972115Y104758314D01*
X79972115Y104758314D02*
X79943543Y104796409D01*
X79943543Y104796409D02*
X79886401Y104834504D01*
X79886401Y104834504D02*
X79743543Y104834504D01*
X79743543Y104834504D02*
X79686401Y104796409D01*
X79686401Y104796409D02*
X79657829Y104758314D01*
X79657829Y104758314D02*
X79629258Y104682123D01*
X79629258Y104682123D02*
X79629258Y104491647D01*
X79629258Y104491647D02*
X79657829Y104415457D01*
X79657829Y104415457D02*
X79686401Y104377361D01*
X79686401Y104377361D02*
X79743543Y104339266D01*
X79743543Y104339266D02*
X79886401Y104339266D01*
X79886401Y104339266D02*
X79943543Y104377361D01*
X79943543Y104377361D02*
X79972115Y104415457D01*
D12*
X54813317Y98842459D02*
X54789127Y98890840D01*
X54789127Y98890840D02*
X54789127Y98963411D01*
X54789127Y98963411D02*
X54813317Y99035983D01*
X54813317Y99035983D02*
X54861698Y99084364D01*
X54861698Y99084364D02*
X54910079Y99108554D01*
X54910079Y99108554D02*
X55006841Y99132745D01*
X55006841Y99132745D02*
X55079413Y99132745D01*
X55079413Y99132745D02*
X55176175Y99108554D01*
X55176175Y99108554D02*
X55224556Y99084364D01*
X55224556Y99084364D02*
X55272937Y99035983D01*
X55272937Y99035983D02*
X55297127Y98963411D01*
X55297127Y98963411D02*
X55297127Y98915030D01*
X55297127Y98915030D02*
X55272937Y98842459D01*
X55272937Y98842459D02*
X55248746Y98818268D01*
X55248746Y98818268D02*
X55079413Y98818268D01*
X55079413Y98818268D02*
X55079413Y98915030D01*
X55297127Y98600554D02*
X54789127Y98600554D01*
X54789127Y98600554D02*
X54789127Y98407030D01*
X54789127Y98407030D02*
X54813317Y98358649D01*
X54813317Y98358649D02*
X54837508Y98334459D01*
X54837508Y98334459D02*
X54885889Y98310268D01*
X54885889Y98310268D02*
X54958460Y98310268D01*
X54958460Y98310268D02*
X55006841Y98334459D01*
X55006841Y98334459D02*
X55031032Y98358649D01*
X55031032Y98358649D02*
X55055222Y98407030D01*
X55055222Y98407030D02*
X55055222Y98600554D01*
X54789127Y98140935D02*
X54789127Y97826459D01*
X54789127Y97826459D02*
X54982651Y97995792D01*
X54982651Y97995792D02*
X54982651Y97923221D01*
X54982651Y97923221D02*
X55006841Y97874840D01*
X55006841Y97874840D02*
X55031032Y97850649D01*
X55031032Y97850649D02*
X55079413Y97826459D01*
X55079413Y97826459D02*
X55200365Y97826459D01*
X55200365Y97826459D02*
X55248746Y97850649D01*
X55248746Y97850649D02*
X55272937Y97874840D01*
X55272937Y97874840D02*
X55297127Y97923221D01*
X55297127Y97923221D02*
X55297127Y98068364D01*
X55297127Y98068364D02*
X55272937Y98116745D01*
X55272937Y98116745D02*
X55248746Y98140935D01*
X60231984Y101448983D02*
X60231984Y101207078D01*
X60377127Y101497364D02*
X59869127Y101328030D01*
X59869127Y101328030D02*
X60377127Y101158697D01*
X59869127Y101061935D02*
X59869127Y100771649D01*
X60377127Y100916792D02*
X59869127Y100916792D01*
X60377127Y100336220D02*
X60377127Y100626506D01*
X60377127Y100481363D02*
X59869127Y100481363D01*
X59869127Y100481363D02*
X59941698Y100529744D01*
X59941698Y100529744D02*
X59990079Y100578125D01*
X59990079Y100578125D02*
X60014270Y100626506D01*
X74815817Y98778959D02*
X74791627Y98827340D01*
X74791627Y98827340D02*
X74791627Y98899911D01*
X74791627Y98899911D02*
X74815817Y98972483D01*
X74815817Y98972483D02*
X74864198Y99020864D01*
X74864198Y99020864D02*
X74912579Y99045054D01*
X74912579Y99045054D02*
X75009341Y99069245D01*
X75009341Y99069245D02*
X75081913Y99069245D01*
X75081913Y99069245D02*
X75178675Y99045054D01*
X75178675Y99045054D02*
X75227056Y99020864D01*
X75227056Y99020864D02*
X75275437Y98972483D01*
X75275437Y98972483D02*
X75299627Y98899911D01*
X75299627Y98899911D02*
X75299627Y98851530D01*
X75299627Y98851530D02*
X75275437Y98778959D01*
X75275437Y98778959D02*
X75251246Y98754768D01*
X75251246Y98754768D02*
X75081913Y98754768D01*
X75081913Y98754768D02*
X75081913Y98851530D01*
X75299627Y98537054D02*
X74791627Y98537054D01*
X74791627Y98537054D02*
X74791627Y98343530D01*
X74791627Y98343530D02*
X74815817Y98295149D01*
X74815817Y98295149D02*
X74840008Y98270959D01*
X74840008Y98270959D02*
X74888389Y98246768D01*
X74888389Y98246768D02*
X74960960Y98246768D01*
X74960960Y98246768D02*
X75009341Y98270959D01*
X75009341Y98270959D02*
X75033532Y98295149D01*
X75033532Y98295149D02*
X75057722Y98343530D01*
X75057722Y98343530D02*
X75057722Y98537054D01*
X74960960Y97811340D02*
X75299627Y97811340D01*
X74767437Y97932292D02*
X75130294Y98053245D01*
X75130294Y98053245D02*
X75130294Y97738768D01*
D11*
X66418545Y105970913D02*
X66456641Y105999485D01*
X66456641Y105999485D02*
X66494736Y106085199D01*
X66494736Y106085199D02*
X66494736Y106142342D01*
X66494736Y106142342D02*
X66456641Y106228056D01*
X66456641Y106228056D02*
X66380450Y106285199D01*
X66380450Y106285199D02*
X66304260Y106313770D01*
X66304260Y106313770D02*
X66151879Y106342342D01*
X66151879Y106342342D02*
X66037593Y106342342D01*
X66037593Y106342342D02*
X65885212Y106313770D01*
X65885212Y106313770D02*
X65809021Y106285199D01*
X65809021Y106285199D02*
X65732831Y106228056D01*
X65732831Y106228056D02*
X65694736Y106142342D01*
X65694736Y106142342D02*
X65694736Y106085199D01*
X65694736Y106085199D02*
X65732831Y105999485D01*
X65732831Y105999485D02*
X65770926Y105970913D01*
X66266164Y105742342D02*
X66266164Y105456627D01*
X66494736Y105799485D02*
X65694736Y105599485D01*
X65694736Y105599485D02*
X66494736Y105399485D01*
X66494736Y105199484D02*
X65694736Y105199484D01*
X65694736Y105199484D02*
X66266164Y104999484D01*
X66266164Y104999484D02*
X65694736Y104799484D01*
X65694736Y104799484D02*
X66494736Y104799484D01*
X52471688Y94623504D02*
X52471688Y94356838D01*
X52890736Y94242552D02*
X52890736Y94623504D01*
X52890736Y94623504D02*
X52090736Y94623504D01*
X52090736Y94623504D02*
X52090736Y94242552D01*
X52090736Y94013980D02*
X52090736Y93556837D01*
X52890736Y93785409D02*
X52090736Y93785409D01*
X52471688Y93023504D02*
X52509783Y92909218D01*
X52509783Y92909218D02*
X52547879Y92871123D01*
X52547879Y92871123D02*
X52624069Y92833027D01*
X52624069Y92833027D02*
X52738355Y92833027D01*
X52738355Y92833027D02*
X52814545Y92871123D01*
X52814545Y92871123D02*
X52852641Y92909218D01*
X52852641Y92909218D02*
X52890736Y92985408D01*
X52890736Y92985408D02*
X52890736Y93290170D01*
X52890736Y93290170D02*
X52090736Y93290170D01*
X52090736Y93290170D02*
X52090736Y93023504D01*
X52090736Y93023504D02*
X52128831Y92947313D01*
X52128831Y92947313D02*
X52166926Y92909218D01*
X52166926Y92909218D02*
X52243117Y92871123D01*
X52243117Y92871123D02*
X52319307Y92871123D01*
X52319307Y92871123D02*
X52395498Y92909218D01*
X52395498Y92909218D02*
X52433593Y92947313D01*
X52433593Y92947313D02*
X52471688Y93023504D01*
X52471688Y93023504D02*
X52471688Y93290170D01*
X52585974Y92490170D02*
X52585974Y91880646D01*
D12*
X72759627Y101657625D02*
X72251627Y101657625D01*
X72759627Y101415720D02*
X72251627Y101415720D01*
X72251627Y101415720D02*
X72759627Y101125434D01*
X72759627Y101125434D02*
X72251627Y101125434D01*
X72251627Y100738387D02*
X72614484Y100738387D01*
X72614484Y100738387D02*
X72687056Y100762578D01*
X72687056Y100762578D02*
X72735437Y100810959D01*
X72735437Y100810959D02*
X72759627Y100883530D01*
X72759627Y100883530D02*
X72759627Y100931911D01*
X72300008Y100520673D02*
X72275817Y100496482D01*
X72275817Y100496482D02*
X72251627Y100448101D01*
X72251627Y100448101D02*
X72251627Y100327149D01*
X72251627Y100327149D02*
X72275817Y100278768D01*
X72275817Y100278768D02*
X72300008Y100254577D01*
X72300008Y100254577D02*
X72348389Y100230387D01*
X72348389Y100230387D02*
X72396770Y100230387D01*
X72396770Y100230387D02*
X72469341Y100254577D01*
X72469341Y100254577D02*
X72759627Y100544863D01*
X72759627Y100544863D02*
X72759627Y100230387D01*
D11*
X47429736Y98844887D02*
X47429736Y99225839D01*
X47429736Y99225839D02*
X46629736Y99225839D01*
X47391641Y98616316D02*
X47429736Y98502030D01*
X47429736Y98502030D02*
X47429736Y98311554D01*
X47429736Y98311554D02*
X47391641Y98235363D01*
X47391641Y98235363D02*
X47353545Y98197268D01*
X47353545Y98197268D02*
X47277355Y98159173D01*
X47277355Y98159173D02*
X47201164Y98159173D01*
X47201164Y98159173D02*
X47124974Y98197268D01*
X47124974Y98197268D02*
X47086879Y98235363D01*
X47086879Y98235363D02*
X47048783Y98311554D01*
X47048783Y98311554D02*
X47010688Y98463935D01*
X47010688Y98463935D02*
X46972593Y98540125D01*
X46972593Y98540125D02*
X46934498Y98578220D01*
X46934498Y98578220D02*
X46858307Y98616316D01*
X46858307Y98616316D02*
X46782117Y98616316D01*
X46782117Y98616316D02*
X46705926Y98578220D01*
X46705926Y98578220D02*
X46667831Y98540125D01*
X46667831Y98540125D02*
X46629736Y98463935D01*
X46629736Y98463935D02*
X46629736Y98273458D01*
X46629736Y98273458D02*
X46667831Y98159173D01*
X46705926Y97854411D02*
X46667831Y97816315D01*
X46667831Y97816315D02*
X46629736Y97740125D01*
X46629736Y97740125D02*
X46629736Y97549649D01*
X46629736Y97549649D02*
X46667831Y97473458D01*
X46667831Y97473458D02*
X46705926Y97435363D01*
X46705926Y97435363D02*
X46782117Y97397268D01*
X46782117Y97397268D02*
X46858307Y97397268D01*
X46858307Y97397268D02*
X46972593Y97435363D01*
X46972593Y97435363D02*
X47429736Y97892506D01*
X47429736Y97892506D02*
X47429736Y97397268D01*
X61234664Y94661600D02*
X61234664Y94280647D01*
X61463236Y94737790D02*
X60663236Y94471123D01*
X60663236Y94471123D02*
X61463236Y94204457D01*
X60663236Y94052076D02*
X61463236Y93785409D01*
X61463236Y93785409D02*
X60663236Y93518743D01*
X60663236Y92871124D02*
X60663236Y93252076D01*
X60663236Y93252076D02*
X61044188Y93290172D01*
X61044188Y93290172D02*
X61006093Y93252076D01*
X61006093Y93252076D02*
X60967998Y93175886D01*
X60967998Y93175886D02*
X60967998Y92985410D01*
X60967998Y92985410D02*
X61006093Y92909219D01*
X61006093Y92909219D02*
X61044188Y92871124D01*
X61044188Y92871124D02*
X61120379Y92833029D01*
X61120379Y92833029D02*
X61310855Y92833029D01*
X61310855Y92833029D02*
X61387045Y92871124D01*
X61387045Y92871124D02*
X61425141Y92909219D01*
X61425141Y92909219D02*
X61463236Y92985410D01*
X61463236Y92985410D02*
X61463236Y93175886D01*
X61463236Y93175886D02*
X61425141Y93252076D01*
X61425141Y93252076D02*
X61387045Y93290172D01*
D12*
X67724984Y98933174D02*
X67724984Y98691269D01*
X67870127Y98981555D02*
X67362127Y98812221D01*
X67362127Y98812221D02*
X67870127Y98642888D01*
X67362127Y98546126D02*
X67870127Y98376792D01*
X67870127Y98376792D02*
X67362127Y98207459D01*
X67362127Y98086506D02*
X67362127Y97772030D01*
X67362127Y97772030D02*
X67555651Y97941363D01*
X67555651Y97941363D02*
X67555651Y97868792D01*
X67555651Y97868792D02*
X67579841Y97820411D01*
X67579841Y97820411D02*
X67604032Y97796220D01*
X67604032Y97796220D02*
X67652413Y97772030D01*
X67652413Y97772030D02*
X67773365Y97772030D01*
X67773365Y97772030D02*
X67821746Y97796220D01*
X67821746Y97796220D02*
X67845937Y97820411D01*
X67845937Y97820411D02*
X67870127Y97868792D01*
X67870127Y97868792D02*
X67870127Y98013935D01*
X67870127Y98013935D02*
X67845937Y98062316D01*
X67845937Y98062316D02*
X67821746Y98086506D01*
D11*
X83839066Y103526457D02*
X83877162Y103488361D01*
X83877162Y103488361D02*
X83991447Y103450266D01*
X83991447Y103450266D02*
X84067638Y103450266D01*
X84067638Y103450266D02*
X84181924Y103488361D01*
X84181924Y103488361D02*
X84258114Y103564552D01*
X84258114Y103564552D02*
X84296209Y103640742D01*
X84296209Y103640742D02*
X84334305Y103793123D01*
X84334305Y103793123D02*
X84334305Y103907409D01*
X84334305Y103907409D02*
X84296209Y104059790D01*
X84296209Y104059790D02*
X84258114Y104135981D01*
X84258114Y104135981D02*
X84181924Y104212171D01*
X84181924Y104212171D02*
X84067638Y104250266D01*
X84067638Y104250266D02*
X83991447Y104250266D01*
X83991447Y104250266D02*
X83877162Y104212171D01*
X83877162Y104212171D02*
X83839066Y104174076D01*
X83039066Y103450266D02*
X83305733Y103831219D01*
X83496209Y103450266D02*
X83496209Y104250266D01*
X83496209Y104250266D02*
X83191447Y104250266D01*
X83191447Y104250266D02*
X83115257Y104212171D01*
X83115257Y104212171D02*
X83077162Y104174076D01*
X83077162Y104174076D02*
X83039066Y104097885D01*
X83039066Y104097885D02*
X83039066Y103983600D01*
X83039066Y103983600D02*
X83077162Y103907409D01*
X83077162Y103907409D02*
X83115257Y103869314D01*
X83115257Y103869314D02*
X83191447Y103831219D01*
X83191447Y103831219D02*
X83496209Y103831219D01*
X82696209Y103450266D02*
X82696209Y104250266D01*
X82696209Y104250266D02*
X82239066Y103450266D01*
X82239066Y103450266D02*
X82239066Y104250266D01*
X81858114Y103450266D02*
X81858114Y104250266D01*
X81400971Y103450266D02*
X81743829Y103907409D01*
X81400971Y104250266D02*
X81858114Y103793123D01*
X81058114Y103755028D02*
X80448591Y103755028D01*
X80753352Y103450266D02*
X80753352Y104059790D01*
X68727664Y94661600D02*
X68727664Y94280647D01*
X68956236Y94737790D02*
X68156236Y94471123D01*
X68156236Y94471123D02*
X68956236Y94204457D01*
X68156236Y94052076D02*
X68956236Y93785409D01*
X68956236Y93785409D02*
X68156236Y93518743D01*
X68156236Y92909219D02*
X68156236Y93061600D01*
X68156236Y93061600D02*
X68194331Y93137791D01*
X68194331Y93137791D02*
X68232426Y93175886D01*
X68232426Y93175886D02*
X68346712Y93252076D01*
X68346712Y93252076D02*
X68499093Y93290172D01*
X68499093Y93290172D02*
X68803855Y93290172D01*
X68803855Y93290172D02*
X68880045Y93252076D01*
X68880045Y93252076D02*
X68918141Y93213981D01*
X68918141Y93213981D02*
X68956236Y93137791D01*
X68956236Y93137791D02*
X68956236Y92985410D01*
X68956236Y92985410D02*
X68918141Y92909219D01*
X68918141Y92909219D02*
X68880045Y92871124D01*
X68880045Y92871124D02*
X68803855Y92833029D01*
X68803855Y92833029D02*
X68613379Y92833029D01*
X68613379Y92833029D02*
X68537188Y92871124D01*
X68537188Y92871124D02*
X68499093Y92909219D01*
X68499093Y92909219D02*
X68460998Y92985410D01*
X68460998Y92985410D02*
X68460998Y93137791D01*
X68460998Y93137791D02*
X68499093Y93213981D01*
X68499093Y93213981D02*
X68537188Y93252076D01*
X68537188Y93252076D02*
X68613379Y93290172D01*
D12*
X65184984Y101473174D02*
X65184984Y101231269D01*
X65330127Y101521555D02*
X64822127Y101352221D01*
X64822127Y101352221D02*
X65330127Y101182888D01*
X64822127Y101086126D02*
X65330127Y100916792D01*
X65330127Y100916792D02*
X64822127Y100747459D01*
X64870508Y100602316D02*
X64846317Y100578125D01*
X64846317Y100578125D02*
X64822127Y100529744D01*
X64822127Y100529744D02*
X64822127Y100408792D01*
X64822127Y100408792D02*
X64846317Y100360411D01*
X64846317Y100360411D02*
X64870508Y100336220D01*
X64870508Y100336220D02*
X64918889Y100312030D01*
X64918889Y100312030D02*
X64967270Y100312030D01*
X64967270Y100312030D02*
X65039841Y100336220D01*
X65039841Y100336220D02*
X65330127Y100626506D01*
X65330127Y100626506D02*
X65330127Y100312030D01*
D11*
X79167045Y94217161D02*
X79205141Y94255257D01*
X79205141Y94255257D02*
X79243236Y94369542D01*
X79243236Y94369542D02*
X79243236Y94445733D01*
X79243236Y94445733D02*
X79205141Y94560019D01*
X79205141Y94560019D02*
X79128950Y94636209D01*
X79128950Y94636209D02*
X79052760Y94674304D01*
X79052760Y94674304D02*
X78900379Y94712400D01*
X78900379Y94712400D02*
X78786093Y94712400D01*
X78786093Y94712400D02*
X78633712Y94674304D01*
X78633712Y94674304D02*
X78557521Y94636209D01*
X78557521Y94636209D02*
X78481331Y94560019D01*
X78481331Y94560019D02*
X78443236Y94445733D01*
X78443236Y94445733D02*
X78443236Y94369542D01*
X78443236Y94369542D02*
X78481331Y94255257D01*
X78481331Y94255257D02*
X78519426Y94217161D01*
X79014664Y93912400D02*
X79014664Y93531447D01*
X79243236Y93988590D02*
X78443236Y93721923D01*
X78443236Y93721923D02*
X79243236Y93455257D01*
X79243236Y93188590D02*
X78443236Y93188590D01*
X78443236Y93188590D02*
X79243236Y92731447D01*
X79243236Y92731447D02*
X78443236Y92731447D01*
X79243236Y92350495D02*
X78443236Y92350495D01*
X78824188Y92350495D02*
X78824188Y91893352D01*
X79243236Y91893352D02*
X78443236Y91893352D01*
D12*
X69735817Y101255459D02*
X69711627Y101303840D01*
X69711627Y101303840D02*
X69711627Y101376411D01*
X69711627Y101376411D02*
X69735817Y101448983D01*
X69735817Y101448983D02*
X69784198Y101497364D01*
X69784198Y101497364D02*
X69832579Y101521554D01*
X69832579Y101521554D02*
X69929341Y101545745D01*
X69929341Y101545745D02*
X70001913Y101545745D01*
X70001913Y101545745D02*
X70098675Y101521554D01*
X70098675Y101521554D02*
X70147056Y101497364D01*
X70147056Y101497364D02*
X70195437Y101448983D01*
X70195437Y101448983D02*
X70219627Y101376411D01*
X70219627Y101376411D02*
X70219627Y101328030D01*
X70219627Y101328030D02*
X70195437Y101255459D01*
X70195437Y101255459D02*
X70171246Y101231268D01*
X70171246Y101231268D02*
X70001913Y101231268D01*
X70001913Y101231268D02*
X70001913Y101328030D01*
X70219627Y101013554D02*
X69711627Y101013554D01*
X69711627Y101013554D02*
X69711627Y100820030D01*
X69711627Y100820030D02*
X69735817Y100771649D01*
X69735817Y100771649D02*
X69760008Y100747459D01*
X69760008Y100747459D02*
X69808389Y100723268D01*
X69808389Y100723268D02*
X69880960Y100723268D01*
X69880960Y100723268D02*
X69929341Y100747459D01*
X69929341Y100747459D02*
X69953532Y100771649D01*
X69953532Y100771649D02*
X69977722Y100820030D01*
X69977722Y100820030D02*
X69977722Y101013554D01*
X69760008Y100529745D02*
X69735817Y100505554D01*
X69735817Y100505554D02*
X69711627Y100457173D01*
X69711627Y100457173D02*
X69711627Y100336221D01*
X69711627Y100336221D02*
X69735817Y100287840D01*
X69735817Y100287840D02*
X69760008Y100263649D01*
X69760008Y100263649D02*
X69808389Y100239459D01*
X69808389Y100239459D02*
X69856770Y100239459D01*
X69856770Y100239459D02*
X69929341Y100263649D01*
X69929341Y100263649D02*
X70219627Y100553935D01*
X70219627Y100553935D02*
X70219627Y100239459D01*
D11*
X69019736Y109742341D02*
X68219736Y109742341D01*
X68219736Y109742341D02*
X68791164Y109542341D01*
X68791164Y109542341D02*
X68219736Y109342341D01*
X68219736Y109342341D02*
X69019736Y109342341D01*
X68791164Y109085199D02*
X68791164Y108799484D01*
X69019736Y109142342D02*
X68219736Y108942342D01*
X68219736Y108942342D02*
X69019736Y108742342D01*
X69019736Y108542341D02*
X68219736Y108542341D01*
X69019736Y108256627D02*
X68219736Y108256627D01*
X68219736Y108256627D02*
X69019736Y107913770D01*
X69019736Y107913770D02*
X68219736Y107913770D01*
X69019736Y106828056D02*
X68638783Y107028056D01*
X69019736Y107170913D02*
X68219736Y107170913D01*
X68219736Y107170913D02*
X68219736Y106942342D01*
X68219736Y106942342D02*
X68257831Y106885199D01*
X68257831Y106885199D02*
X68295926Y106856628D01*
X68295926Y106856628D02*
X68372117Y106828056D01*
X68372117Y106828056D02*
X68486402Y106828056D01*
X68486402Y106828056D02*
X68562593Y106856628D01*
X68562593Y106856628D02*
X68600688Y106885199D01*
X68600688Y106885199D02*
X68638783Y106942342D01*
X68638783Y106942342D02*
X68638783Y107170913D01*
X68600688Y106570913D02*
X68600688Y106370913D01*
X69019736Y106285199D02*
X69019736Y106570913D01*
X69019736Y106570913D02*
X68219736Y106570913D01*
X68219736Y106570913D02*
X68219736Y106285199D01*
X69019736Y105742342D02*
X69019736Y106028056D01*
X69019736Y106028056D02*
X68219736Y106028056D01*
X68791164Y105570914D02*
X68791164Y105285199D01*
X69019736Y105628057D02*
X68219736Y105428057D01*
X68219736Y105428057D02*
X69019736Y105228057D01*
X68638783Y104913771D02*
X69019736Y104913771D01*
X68219736Y105113771D02*
X68638783Y104913771D01*
X68638783Y104913771D02*
X68219736Y104713771D01*
D12*
X55297127Y101721125D02*
X54789127Y101721125D01*
X54958460Y101261506D02*
X55369698Y101261506D01*
X55369698Y101261506D02*
X55418079Y101285696D01*
X55418079Y101285696D02*
X55442270Y101309887D01*
X55442270Y101309887D02*
X55466460Y101358268D01*
X55466460Y101358268D02*
X55466460Y101430839D01*
X55466460Y101430839D02*
X55442270Y101479220D01*
X55272937Y101261506D02*
X55297127Y101309887D01*
X55297127Y101309887D02*
X55297127Y101406649D01*
X55297127Y101406649D02*
X55272937Y101455030D01*
X55272937Y101455030D02*
X55248746Y101479220D01*
X55248746Y101479220D02*
X55200365Y101503411D01*
X55200365Y101503411D02*
X55055222Y101503411D01*
X55055222Y101503411D02*
X55006841Y101479220D01*
X55006841Y101479220D02*
X54982651Y101455030D01*
X54982651Y101455030D02*
X54958460Y101406649D01*
X54958460Y101406649D02*
X54958460Y101309887D01*
X54958460Y101309887D02*
X54982651Y101261506D01*
X54958460Y101019601D02*
X55297127Y101019601D01*
X55006841Y101019601D02*
X54982651Y100995411D01*
X54982651Y100995411D02*
X54958460Y100947030D01*
X54958460Y100947030D02*
X54958460Y100874458D01*
X54958460Y100874458D02*
X54982651Y100826077D01*
X54982651Y100826077D02*
X55031032Y100801887D01*
X55031032Y100801887D02*
X55297127Y100801887D01*
X54837508Y100584173D02*
X54813317Y100559982D01*
X54813317Y100559982D02*
X54789127Y100511601D01*
X54789127Y100511601D02*
X54789127Y100390649D01*
X54789127Y100390649D02*
X54813317Y100342268D01*
X54813317Y100342268D02*
X54837508Y100318077D01*
X54837508Y100318077D02*
X54885889Y100293887D01*
X54885889Y100293887D02*
X54934270Y100293887D01*
X54934270Y100293887D02*
X55006841Y100318077D01*
X55006841Y100318077D02*
X55297127Y100608363D01*
X55297127Y100608363D02*
X55297127Y100293887D01*
D11*
X66314664Y94661600D02*
X66314664Y94280647D01*
X66543236Y94737790D02*
X65743236Y94471123D01*
X65743236Y94471123D02*
X66543236Y94204457D01*
X65743236Y94052076D02*
X66543236Y93785409D01*
X66543236Y93785409D02*
X65743236Y93518743D01*
X66543236Y92833029D02*
X66543236Y93290172D01*
X66543236Y93061600D02*
X65743236Y93061600D01*
X65743236Y93061600D02*
X65857521Y93137791D01*
X65857521Y93137791D02*
X65933712Y93213981D01*
X65933712Y93213981D02*
X65971807Y93290172D01*
X65743236Y92337790D02*
X65743236Y92261600D01*
X65743236Y92261600D02*
X65781331Y92185409D01*
X65781331Y92185409D02*
X65819426Y92147314D01*
X65819426Y92147314D02*
X65895617Y92109219D01*
X65895617Y92109219D02*
X66047998Y92071124D01*
X66047998Y92071124D02*
X66238474Y92071124D01*
X66238474Y92071124D02*
X66390855Y92109219D01*
X66390855Y92109219D02*
X66467045Y92147314D01*
X66467045Y92147314D02*
X66505141Y92185409D01*
X66505141Y92185409D02*
X66543236Y92261600D01*
X66543236Y92261600D02*
X66543236Y92337790D01*
X66543236Y92337790D02*
X66505141Y92413981D01*
X66505141Y92413981D02*
X66467045Y92452076D01*
X66467045Y92452076D02*
X66390855Y92490171D01*
X66390855Y92490171D02*
X66238474Y92528267D01*
X66238474Y92528267D02*
X66047998Y92528267D01*
X66047998Y92528267D02*
X65895617Y92490171D01*
X65895617Y92490171D02*
X65819426Y92452076D01*
X65819426Y92452076D02*
X65781331Y92413981D01*
X65781331Y92413981D02*
X65743236Y92337790D01*
X75903236Y94242552D02*
X75903236Y94623504D01*
X75903236Y94623504D02*
X76284188Y94661600D01*
X76284188Y94661600D02*
X76246093Y94623504D01*
X76246093Y94623504D02*
X76207998Y94547314D01*
X76207998Y94547314D02*
X76207998Y94356838D01*
X76207998Y94356838D02*
X76246093Y94280647D01*
X76246093Y94280647D02*
X76284188Y94242552D01*
X76284188Y94242552D02*
X76360379Y94204457D01*
X76360379Y94204457D02*
X76550855Y94204457D01*
X76550855Y94204457D02*
X76627045Y94242552D01*
X76627045Y94242552D02*
X76665141Y94280647D01*
X76665141Y94280647D02*
X76703236Y94356838D01*
X76703236Y94356838D02*
X76703236Y94547314D01*
X76703236Y94547314D02*
X76665141Y94623504D01*
X76665141Y94623504D02*
X76627045Y94661600D01*
X75903236Y93975885D02*
X76703236Y93709218D01*
X76703236Y93709218D02*
X75903236Y93442552D01*
X76703236Y92756838D02*
X76703236Y93213981D01*
X76703236Y92985409D02*
X75903236Y92985409D01*
X75903236Y92985409D02*
X76017521Y93061600D01*
X76017521Y93061600D02*
X76093712Y93137790D01*
X76093712Y93137790D02*
X76131807Y93213981D01*
D12*
X57837127Y98927125D02*
X57329127Y98927125D01*
X57329127Y98927125D02*
X57329127Y98806173D01*
X57329127Y98806173D02*
X57353317Y98733601D01*
X57353317Y98733601D02*
X57401698Y98685220D01*
X57401698Y98685220D02*
X57450079Y98661030D01*
X57450079Y98661030D02*
X57546841Y98636839D01*
X57546841Y98636839D02*
X57619413Y98636839D01*
X57619413Y98636839D02*
X57716175Y98661030D01*
X57716175Y98661030D02*
X57764556Y98685220D01*
X57764556Y98685220D02*
X57812937Y98733601D01*
X57812937Y98733601D02*
X57837127Y98806173D01*
X57837127Y98806173D02*
X57837127Y98927125D01*
X57643603Y98419125D02*
X57643603Y98032077D01*
X77791246Y98999091D02*
X77815437Y99023282D01*
X77815437Y99023282D02*
X77839627Y99095853D01*
X77839627Y99095853D02*
X77839627Y99144234D01*
X77839627Y99144234D02*
X77815437Y99216806D01*
X77815437Y99216806D02*
X77767056Y99265187D01*
X77767056Y99265187D02*
X77718675Y99289377D01*
X77718675Y99289377D02*
X77621913Y99313568D01*
X77621913Y99313568D02*
X77549341Y99313568D01*
X77549341Y99313568D02*
X77452579Y99289377D01*
X77452579Y99289377D02*
X77404198Y99265187D01*
X77404198Y99265187D02*
X77355817Y99216806D01*
X77355817Y99216806D02*
X77331627Y99144234D01*
X77331627Y99144234D02*
X77331627Y99095853D01*
X77331627Y99095853D02*
X77355817Y99023282D01*
X77355817Y99023282D02*
X77380008Y98999091D01*
X77694484Y98805568D02*
X77694484Y98563663D01*
X77839627Y98853949D02*
X77331627Y98684615D01*
X77331627Y98684615D02*
X77839627Y98515282D01*
X77839627Y98345948D02*
X77331627Y98345948D01*
X77331627Y98345948D02*
X77839627Y98055662D01*
X77839627Y98055662D02*
X77331627Y98055662D01*
X77839627Y97571853D02*
X77839627Y97813758D01*
X77839627Y97813758D02*
X77331627Y97813758D01*
D11*
X83712066Y99779957D02*
X83750162Y99741861D01*
X83750162Y99741861D02*
X83864447Y99703766D01*
X83864447Y99703766D02*
X83940638Y99703766D01*
X83940638Y99703766D02*
X84054924Y99741861D01*
X84054924Y99741861D02*
X84131114Y99818052D01*
X84131114Y99818052D02*
X84169209Y99894242D01*
X84169209Y99894242D02*
X84207305Y100046623D01*
X84207305Y100046623D02*
X84207305Y100160909D01*
X84207305Y100160909D02*
X84169209Y100313290D01*
X84169209Y100313290D02*
X84131114Y100389481D01*
X84131114Y100389481D02*
X84054924Y100465671D01*
X84054924Y100465671D02*
X83940638Y100503766D01*
X83940638Y100503766D02*
X83864447Y100503766D01*
X83864447Y100503766D02*
X83750162Y100465671D01*
X83750162Y100465671D02*
X83712066Y100427576D01*
X82912066Y99703766D02*
X83178733Y100084719D01*
X83369209Y99703766D02*
X83369209Y100503766D01*
X83369209Y100503766D02*
X83064447Y100503766D01*
X83064447Y100503766D02*
X82988257Y100465671D01*
X82988257Y100465671D02*
X82950162Y100427576D01*
X82950162Y100427576D02*
X82912066Y100351385D01*
X82912066Y100351385D02*
X82912066Y100237100D01*
X82912066Y100237100D02*
X82950162Y100160909D01*
X82950162Y100160909D02*
X82988257Y100122814D01*
X82988257Y100122814D02*
X83064447Y100084719D01*
X83064447Y100084719D02*
X83369209Y100084719D01*
X82569209Y99703766D02*
X82569209Y100503766D01*
X82569209Y100503766D02*
X82112066Y99703766D01*
X82112066Y99703766D02*
X82112066Y100503766D01*
X81731114Y99703766D02*
X81731114Y100503766D01*
X81273971Y99703766D02*
X81616829Y100160909D01*
X81273971Y100503766D02*
X81731114Y100046623D01*
X80931114Y100008528D02*
X80321591Y100008528D01*
X58851236Y94623504D02*
X58051236Y94623504D01*
X58051236Y94623504D02*
X58051236Y94433028D01*
X58051236Y94433028D02*
X58089331Y94318742D01*
X58089331Y94318742D02*
X58165521Y94242552D01*
X58165521Y94242552D02*
X58241712Y94204457D01*
X58241712Y94204457D02*
X58394093Y94166361D01*
X58394093Y94166361D02*
X58508379Y94166361D01*
X58508379Y94166361D02*
X58660760Y94204457D01*
X58660760Y94204457D02*
X58736950Y94242552D01*
X58736950Y94242552D02*
X58813141Y94318742D01*
X58813141Y94318742D02*
X58851236Y94433028D01*
X58851236Y94433028D02*
X58851236Y94623504D01*
X58546474Y93823504D02*
X58546474Y93213980D01*
X58851236Y93518742D02*
X58241712Y93518742D01*
X49259927Y105872243D02*
X49717070Y105872243D01*
X49488498Y105872243D02*
X49488498Y106672243D01*
X49488498Y106672243D02*
X49564689Y106557958D01*
X49564689Y106557958D02*
X49640879Y106481767D01*
X49640879Y106481767D02*
X49717070Y106443672D01*
X48955165Y106596053D02*
X48917069Y106634148D01*
X48917069Y106634148D02*
X48840879Y106672243D01*
X48840879Y106672243D02*
X48650403Y106672243D01*
X48650403Y106672243D02*
X48574212Y106634148D01*
X48574212Y106634148D02*
X48536117Y106596053D01*
X48536117Y106596053D02*
X48498022Y106519862D01*
X48498022Y106519862D02*
X48498022Y106443672D01*
X48498022Y106443672D02*
X48536117Y106329386D01*
X48536117Y106329386D02*
X48993260Y105872243D01*
X48993260Y105872243D02*
X48498022Y105872243D01*
X48269450Y106672243D02*
X48002783Y105872243D01*
X48002783Y105872243D02*
X47736117Y106672243D01*
X50250403Y104584288D02*
X50517070Y104965241D01*
X50707546Y104584288D02*
X50707546Y105384288D01*
X50707546Y105384288D02*
X50402784Y105384288D01*
X50402784Y105384288D02*
X50326594Y105346193D01*
X50326594Y105346193D02*
X50288499Y105308098D01*
X50288499Y105308098D02*
X50250403Y105231907D01*
X50250403Y105231907D02*
X50250403Y105117622D01*
X50250403Y105117622D02*
X50288499Y105041431D01*
X50288499Y105041431D02*
X50326594Y105003336D01*
X50326594Y105003336D02*
X50402784Y104965241D01*
X50402784Y104965241D02*
X50707546Y104965241D01*
X49602784Y104622383D02*
X49678975Y104584288D01*
X49678975Y104584288D02*
X49831356Y104584288D01*
X49831356Y104584288D02*
X49907546Y104622383D01*
X49907546Y104622383D02*
X49945642Y104698574D01*
X49945642Y104698574D02*
X49945642Y105003336D01*
X49945642Y105003336D02*
X49907546Y105079526D01*
X49907546Y105079526D02*
X49831356Y105117622D01*
X49831356Y105117622D02*
X49678975Y105117622D01*
X49678975Y105117622D02*
X49602784Y105079526D01*
X49602784Y105079526D02*
X49564689Y105003336D01*
X49564689Y105003336D02*
X49564689Y104927145D01*
X49564689Y104927145D02*
X49945642Y104850955D01*
X49107547Y104584288D02*
X49183737Y104622383D01*
X49183737Y104622383D02*
X49221832Y104698574D01*
X49221832Y104698574D02*
X49221832Y105384288D01*
X48459927Y104584288D02*
X48459927Y105003336D01*
X48459927Y105003336D02*
X48498022Y105079526D01*
X48498022Y105079526D02*
X48574213Y105117622D01*
X48574213Y105117622D02*
X48726594Y105117622D01*
X48726594Y105117622D02*
X48802784Y105079526D01*
X48459927Y104622383D02*
X48536118Y104584288D01*
X48536118Y104584288D02*
X48726594Y104584288D01*
X48726594Y104584288D02*
X48802784Y104622383D01*
X48802784Y104622383D02*
X48840880Y104698574D01*
X48840880Y104698574D02*
X48840880Y104774764D01*
X48840880Y104774764D02*
X48802784Y104850955D01*
X48802784Y104850955D02*
X48726594Y104889050D01*
X48726594Y104889050D02*
X48536118Y104889050D01*
X48536118Y104889050D02*
X48459927Y104927145D01*
X48155165Y105117622D02*
X47964689Y104584288D01*
X47774212Y105117622D02*
X47964689Y104584288D01*
X47964689Y104584288D02*
X48040879Y104393812D01*
X48040879Y104393812D02*
X48078974Y104355717D01*
X48078974Y104355717D02*
X48155165Y104317622D01*
X48788688Y94644030D02*
X48788688Y94377364D01*
X49207736Y94263078D02*
X49207736Y94644030D01*
X49207736Y94644030D02*
X48407736Y94644030D01*
X48407736Y94644030D02*
X48407736Y94263078D01*
X48407736Y94034506D02*
X48407736Y93577363D01*
X49207736Y93805935D02*
X48407736Y93805935D01*
X48788688Y93044030D02*
X48826783Y92929744D01*
X48826783Y92929744D02*
X48864879Y92891649D01*
X48864879Y92891649D02*
X48941069Y92853553D01*
X48941069Y92853553D02*
X49055355Y92853553D01*
X49055355Y92853553D02*
X49131545Y92891649D01*
X49131545Y92891649D02*
X49169641Y92929744D01*
X49169641Y92929744D02*
X49207736Y93005934D01*
X49207736Y93005934D02*
X49207736Y93310696D01*
X49207736Y93310696D02*
X48407736Y93310696D01*
X48407736Y93310696D02*
X48407736Y93044030D01*
X48407736Y93044030D02*
X48445831Y92967839D01*
X48445831Y92967839D02*
X48483926Y92929744D01*
X48483926Y92929744D02*
X48560117Y92891649D01*
X48560117Y92891649D02*
X48636307Y92891649D01*
X48636307Y92891649D02*
X48712498Y92929744D01*
X48712498Y92929744D02*
X48750593Y92967839D01*
X48750593Y92967839D02*
X48788688Y93044030D01*
X48788688Y93044030D02*
X48788688Y93310696D01*
X48902974Y92510696D02*
X48902974Y91901172D01*
X49207736Y92205934D02*
X48598212Y92205934D01*
D12*
X69735817Y98715459D02*
X69711627Y98763840D01*
X69711627Y98763840D02*
X69711627Y98836411D01*
X69711627Y98836411D02*
X69735817Y98908983D01*
X69735817Y98908983D02*
X69784198Y98957364D01*
X69784198Y98957364D02*
X69832579Y98981554D01*
X69832579Y98981554D02*
X69929341Y99005745D01*
X69929341Y99005745D02*
X70001913Y99005745D01*
X70001913Y99005745D02*
X70098675Y98981554D01*
X70098675Y98981554D02*
X70147056Y98957364D01*
X70147056Y98957364D02*
X70195437Y98908983D01*
X70195437Y98908983D02*
X70219627Y98836411D01*
X70219627Y98836411D02*
X70219627Y98788030D01*
X70219627Y98788030D02*
X70195437Y98715459D01*
X70195437Y98715459D02*
X70171246Y98691268D01*
X70171246Y98691268D02*
X70001913Y98691268D01*
X70001913Y98691268D02*
X70001913Y98788030D01*
X70219627Y98473554D02*
X69711627Y98473554D01*
X69711627Y98473554D02*
X69711627Y98280030D01*
X69711627Y98280030D02*
X69735817Y98231649D01*
X69735817Y98231649D02*
X69760008Y98207459D01*
X69760008Y98207459D02*
X69808389Y98183268D01*
X69808389Y98183268D02*
X69880960Y98183268D01*
X69880960Y98183268D02*
X69929341Y98207459D01*
X69929341Y98207459D02*
X69953532Y98231649D01*
X69953532Y98231649D02*
X69977722Y98280030D01*
X69977722Y98280030D02*
X69977722Y98473554D01*
X70219627Y97699459D02*
X70219627Y97989745D01*
X70219627Y97844602D02*
X69711627Y97844602D01*
X69711627Y97844602D02*
X69784198Y97892983D01*
X69784198Y97892983D02*
X69832579Y97941364D01*
X69832579Y97941364D02*
X69856770Y97989745D01*
X67724984Y101473174D02*
X67724984Y101231269D01*
X67870127Y101521555D02*
X67362127Y101352221D01*
X67362127Y101352221D02*
X67870127Y101182888D01*
X67362127Y101086126D02*
X67870127Y100916792D01*
X67870127Y100916792D02*
X67362127Y100747459D01*
X67362127Y100626506D02*
X67362127Y100287839D01*
X67362127Y100287839D02*
X67870127Y100505554D01*
X62771984Y98908983D02*
X62771984Y98667078D01*
X62917127Y98957364D02*
X62409127Y98788030D01*
X62409127Y98788030D02*
X62917127Y98618697D01*
X62409127Y98521935D02*
X62409127Y98231649D01*
X62917127Y98376792D02*
X62409127Y98376792D01*
X62457508Y98086506D02*
X62433317Y98062315D01*
X62433317Y98062315D02*
X62409127Y98013934D01*
X62409127Y98013934D02*
X62409127Y97892982D01*
X62409127Y97892982D02*
X62433317Y97844601D01*
X62433317Y97844601D02*
X62457508Y97820410D01*
X62457508Y97820410D02*
X62505889Y97796220D01*
X62505889Y97796220D02*
X62554270Y97796220D01*
X62554270Y97796220D02*
X62626841Y97820410D01*
X62626841Y97820410D02*
X62917127Y98110696D01*
X62917127Y98110696D02*
X62917127Y97796220D01*
D11*
X70797831Y105970914D02*
X70759736Y106028056D01*
X70759736Y106028056D02*
X70759736Y106113771D01*
X70759736Y106113771D02*
X70797831Y106199485D01*
X70797831Y106199485D02*
X70874021Y106256628D01*
X70874021Y106256628D02*
X70950212Y106285199D01*
X70950212Y106285199D02*
X71102593Y106313771D01*
X71102593Y106313771D02*
X71216879Y106313771D01*
X71216879Y106313771D02*
X71369260Y106285199D01*
X71369260Y106285199D02*
X71445450Y106256628D01*
X71445450Y106256628D02*
X71521641Y106199485D01*
X71521641Y106199485D02*
X71559736Y106113771D01*
X71559736Y106113771D02*
X71559736Y106056628D01*
X71559736Y106056628D02*
X71521641Y105970914D01*
X71521641Y105970914D02*
X71483545Y105942342D01*
X71483545Y105942342D02*
X71216879Y105942342D01*
X71216879Y105942342D02*
X71216879Y106056628D01*
X71559736Y105685199D02*
X70759736Y105685199D01*
X70759736Y105685199D02*
X70759736Y105456628D01*
X70759736Y105456628D02*
X70797831Y105399485D01*
X70797831Y105399485D02*
X70835926Y105370914D01*
X70835926Y105370914D02*
X70912117Y105342342D01*
X70912117Y105342342D02*
X71026402Y105342342D01*
X71026402Y105342342D02*
X71102593Y105370914D01*
X71102593Y105370914D02*
X71140688Y105399485D01*
X71140688Y105399485D02*
X71178783Y105456628D01*
X71178783Y105456628D02*
X71178783Y105685199D01*
X70759736Y105142342D02*
X70759736Y104770914D01*
X70759736Y104770914D02*
X71064498Y104970914D01*
X71064498Y104970914D02*
X71064498Y104885199D01*
X71064498Y104885199D02*
X71102593Y104828056D01*
X71102593Y104828056D02*
X71140688Y104799485D01*
X71140688Y104799485D02*
X71216879Y104770914D01*
X71216879Y104770914D02*
X71407355Y104770914D01*
X71407355Y104770914D02*
X71483545Y104799485D01*
X71483545Y104799485D02*
X71521641Y104828056D01*
X71521641Y104828056D02*
X71559736Y104885199D01*
X71559736Y104885199D02*
X71559736Y105056628D01*
X71559736Y105056628D02*
X71521641Y105113771D01*
X71521641Y105113771D02*
X71483545Y105142342D01*
X76587736Y106456627D02*
X75787736Y106456627D01*
X76587736Y106170913D02*
X75787736Y106170913D01*
X75787736Y106170913D02*
X76587736Y105828056D01*
X76587736Y105828056D02*
X75787736Y105828056D01*
X75787736Y105370914D02*
X76359164Y105370914D01*
X76359164Y105370914D02*
X76473450Y105399485D01*
X76473450Y105399485D02*
X76549641Y105456628D01*
X76549641Y105456628D02*
X76587736Y105542342D01*
X76587736Y105542342D02*
X76587736Y105599485D01*
X75787736Y105142342D02*
X75787736Y104770914D01*
X75787736Y104770914D02*
X76092498Y104970914D01*
X76092498Y104970914D02*
X76092498Y104885199D01*
X76092498Y104885199D02*
X76130593Y104828056D01*
X76130593Y104828056D02*
X76168688Y104799485D01*
X76168688Y104799485D02*
X76244879Y104770914D01*
X76244879Y104770914D02*
X76435355Y104770914D01*
X76435355Y104770914D02*
X76511545Y104799485D01*
X76511545Y104799485D02*
X76549641Y104828056D01*
X76549641Y104828056D02*
X76587736Y104885199D01*
X76587736Y104885199D02*
X76587736Y105056628D01*
X76587736Y105056628D02*
X76549641Y105113771D01*
X76549641Y105113771D02*
X76511545Y105142342D01*
X54800686Y103958266D02*
X54686400Y103958266D01*
X54686400Y103958266D02*
X54629257Y103996361D01*
X54629257Y103996361D02*
X54600686Y104034457D01*
X54600686Y104034457D02*
X54543543Y104148742D01*
X54543543Y104148742D02*
X54514972Y104301123D01*
X54514972Y104301123D02*
X54514972Y104605885D01*
X54514972Y104605885D02*
X54543543Y104682076D01*
X54543543Y104682076D02*
X54572115Y104720171D01*
X54572115Y104720171D02*
X54629257Y104758266D01*
X54629257Y104758266D02*
X54743543Y104758266D01*
X54743543Y104758266D02*
X54800686Y104720171D01*
X54800686Y104720171D02*
X54829257Y104682076D01*
X54829257Y104682076D02*
X54857829Y104605885D01*
X54857829Y104605885D02*
X54857829Y104415409D01*
X54857829Y104415409D02*
X54829257Y104339219D01*
X54829257Y104339219D02*
X54800686Y104301123D01*
X54800686Y104301123D02*
X54743543Y104263028D01*
X54743543Y104263028D02*
X54629257Y104263028D01*
X54629257Y104263028D02*
X54572115Y104301123D01*
X54572115Y104301123D02*
X54543543Y104339219D01*
X54543543Y104339219D02*
X54514972Y104415409D01*
D13*
X50579587Y101629125D02*
X50541492Y101705315D01*
X50541492Y101705315D02*
X50541492Y101819601D01*
X50541492Y101819601D02*
X50579587Y101933887D01*
X50579587Y101933887D02*
X50655777Y102010077D01*
X50655777Y102010077D02*
X50731968Y102048172D01*
X50731968Y102048172D02*
X50884349Y102086268D01*
X50884349Y102086268D02*
X50998635Y102086268D01*
X50998635Y102086268D02*
X51151016Y102048172D01*
X51151016Y102048172D02*
X51227206Y102010077D01*
X51227206Y102010077D02*
X51303397Y101933887D01*
X51303397Y101933887D02*
X51341492Y101819601D01*
X51341492Y101819601D02*
X51341492Y101743410D01*
X51341492Y101743410D02*
X51303397Y101629125D01*
X51303397Y101629125D02*
X51265301Y101591029D01*
X51265301Y101591029D02*
X50998635Y101591029D01*
X50998635Y101591029D02*
X50998635Y101743410D01*
X51341492Y101248172D02*
X50541492Y101248172D01*
X50541492Y101248172D02*
X51341492Y100791029D01*
X51341492Y100791029D02*
X50541492Y100791029D01*
X51341492Y100410077D02*
X50541492Y100410077D01*
X50541492Y100410077D02*
X50541492Y100219601D01*
X50541492Y100219601D02*
X50579587Y100105315D01*
X50579587Y100105315D02*
X50655777Y100029125D01*
X50655777Y100029125D02*
X50731968Y99991030D01*
X50731968Y99991030D02*
X50884349Y99952934D01*
X50884349Y99952934D02*
X50998635Y99952934D01*
X50998635Y99952934D02*
X51151016Y99991030D01*
X51151016Y99991030D02*
X51227206Y100029125D01*
X51227206Y100029125D02*
X51303397Y100105315D01*
X51303397Y100105315D02*
X51341492Y100219601D01*
X51341492Y100219601D02*
X51341492Y100410077D01*
D11*
X54927687Y94306266D02*
X55270544Y94306266D01*
X55099115Y94306266D02*
X55099115Y95106266D01*
X55099115Y95106266D02*
X55156258Y94991981D01*
X55156258Y94991981D02*
X55213401Y94915790D01*
X55213401Y94915790D02*
X55270544Y94877695D01*
X54699115Y95030076D02*
X54670543Y95068171D01*
X54670543Y95068171D02*
X54613401Y95106266D01*
X54613401Y95106266D02*
X54470543Y95106266D01*
X54470543Y95106266D02*
X54413401Y95068171D01*
X54413401Y95068171D02*
X54384829Y95030076D01*
X54384829Y95030076D02*
X54356258Y94953885D01*
X54356258Y94953885D02*
X54356258Y94877695D01*
X54356258Y94877695D02*
X54384829Y94763409D01*
X54384829Y94763409D02*
X54727686Y94306266D01*
X54727686Y94306266D02*
X54356258Y94306266D01*
X47021972Y103958266D02*
X47364829Y103958266D01*
X47193400Y103958266D02*
X47193400Y104758266D01*
X47193400Y104758266D02*
X47250543Y104643981D01*
X47250543Y104643981D02*
X47307686Y104567790D01*
X47307686Y104567790D02*
X47364829Y104529695D01*
X64360031Y105905556D02*
X64321936Y105962698D01*
X64321936Y105962698D02*
X64321936Y106048413D01*
X64321936Y106048413D02*
X64360031Y106134127D01*
X64360031Y106134127D02*
X64436221Y106191270D01*
X64436221Y106191270D02*
X64512412Y106219841D01*
X64512412Y106219841D02*
X64664793Y106248413D01*
X64664793Y106248413D02*
X64779079Y106248413D01*
X64779079Y106248413D02*
X64931460Y106219841D01*
X64931460Y106219841D02*
X65007650Y106191270D01*
X65007650Y106191270D02*
X65083841Y106134127D01*
X65083841Y106134127D02*
X65121936Y106048413D01*
X65121936Y106048413D02*
X65121936Y105991270D01*
X65121936Y105991270D02*
X65083841Y105905556D01*
X65083841Y105905556D02*
X65045745Y105876984D01*
X65045745Y105876984D02*
X64779079Y105876984D01*
X64779079Y105876984D02*
X64779079Y105991270D01*
X65121936Y105619841D02*
X64321936Y105619841D01*
X64321936Y105619841D02*
X65121936Y105276984D01*
X65121936Y105276984D02*
X64321936Y105276984D01*
X65121936Y104991270D02*
X64321936Y104991270D01*
X64321936Y104991270D02*
X64321936Y104848413D01*
X64321936Y104848413D02*
X64360031Y104762699D01*
X64360031Y104762699D02*
X64436221Y104705556D01*
X64436221Y104705556D02*
X64512412Y104676985D01*
X64512412Y104676985D02*
X64664793Y104648413D01*
X64664793Y104648413D02*
X64779079Y104648413D01*
X64779079Y104648413D02*
X64931460Y104676985D01*
X64931460Y104676985D02*
X65007650Y104705556D01*
X65007650Y104705556D02*
X65083841Y104762699D01*
X65083841Y104762699D02*
X65121936Y104848413D01*
X65121936Y104848413D02*
X65121936Y104991270D01*
X47333115Y94839600D02*
X47333115Y94306266D01*
X47475972Y95144361D02*
X47618829Y94572933D01*
X47618829Y94572933D02*
X47247400Y94572933D01*
D12*
X62771984Y101448983D02*
X62771984Y101207078D01*
X62917127Y101497364D02*
X62409127Y101328030D01*
X62409127Y101328030D02*
X62917127Y101158697D01*
X62409127Y101061935D02*
X62409127Y100771649D01*
X62917127Y100916792D02*
X62409127Y100916792D01*
X62578460Y100384601D02*
X62917127Y100384601D01*
X62384937Y100505553D02*
X62747794Y100626506D01*
X62747794Y100626506D02*
X62747794Y100312029D01*
D11*
X56383236Y94623504D02*
X55583236Y94623504D01*
X55849902Y93899695D02*
X56497521Y93899695D01*
X56497521Y93899695D02*
X56573712Y93937790D01*
X56573712Y93937790D02*
X56611807Y93975886D01*
X56611807Y93975886D02*
X56649902Y94052076D01*
X56649902Y94052076D02*
X56649902Y94166362D01*
X56649902Y94166362D02*
X56611807Y94242552D01*
X56345141Y93899695D02*
X56383236Y93975886D01*
X56383236Y93975886D02*
X56383236Y94128267D01*
X56383236Y94128267D02*
X56345141Y94204457D01*
X56345141Y94204457D02*
X56307045Y94242552D01*
X56307045Y94242552D02*
X56230855Y94280648D01*
X56230855Y94280648D02*
X56002283Y94280648D01*
X56002283Y94280648D02*
X55926093Y94242552D01*
X55926093Y94242552D02*
X55887998Y94204457D01*
X55887998Y94204457D02*
X55849902Y94128267D01*
X55849902Y94128267D02*
X55849902Y93975886D01*
X55849902Y93975886D02*
X55887998Y93899695D01*
X55849902Y93518742D02*
X56383236Y93518742D01*
X55926093Y93518742D02*
X55887998Y93480647D01*
X55887998Y93480647D02*
X55849902Y93404457D01*
X55849902Y93404457D02*
X55849902Y93290171D01*
X55849902Y93290171D02*
X55887998Y93213980D01*
X55887998Y93213980D02*
X55964188Y93175885D01*
X55964188Y93175885D02*
X56383236Y93175885D01*
X55849902Y92452075D02*
X56383236Y92452075D01*
X55545141Y92642551D02*
X56116569Y92833028D01*
X56116569Y92833028D02*
X56116569Y92337789D01*
D13*
X61685295Y104826505D02*
X61733676Y104850695D01*
X61733676Y104850695D02*
X61806247Y104850695D01*
X61806247Y104850695D02*
X61878819Y104826505D01*
X61878819Y104826505D02*
X61927200Y104778124D01*
X61927200Y104778124D02*
X61951390Y104729743D01*
X61951390Y104729743D02*
X61975581Y104632981D01*
X61975581Y104632981D02*
X61975581Y104560409D01*
X61975581Y104560409D02*
X61951390Y104463647D01*
X61951390Y104463647D02*
X61927200Y104415266D01*
X61927200Y104415266D02*
X61878819Y104366885D01*
X61878819Y104366885D02*
X61806247Y104342695D01*
X61806247Y104342695D02*
X61757866Y104342695D01*
X61757866Y104342695D02*
X61685295Y104366885D01*
X61685295Y104366885D02*
X61661104Y104391076D01*
X61661104Y104391076D02*
X61661104Y104560409D01*
X61661104Y104560409D02*
X61757866Y104560409D01*
X61443390Y104342695D02*
X61443390Y104850695D01*
X61443390Y104850695D02*
X61153104Y104342695D01*
X61153104Y104342695D02*
X61153104Y104850695D01*
X60911200Y104342695D02*
X60911200Y104850695D01*
X60911200Y104850695D02*
X60790248Y104850695D01*
X60790248Y104850695D02*
X60717676Y104826505D01*
X60717676Y104826505D02*
X60669295Y104778124D01*
X60669295Y104778124D02*
X60645105Y104729743D01*
X60645105Y104729743D02*
X60620914Y104632981D01*
X60620914Y104632981D02*
X60620914Y104560409D01*
X60620914Y104560409D02*
X60645105Y104463647D01*
X60645105Y104463647D02*
X60669295Y104415266D01*
X60669295Y104415266D02*
X60717676Y104366885D01*
X60717676Y104366885D02*
X60790248Y104342695D01*
X60790248Y104342695D02*
X60911200Y104342695D01*
D12*
X60231984Y98933174D02*
X60231984Y98691269D01*
X60377127Y98981555D02*
X59869127Y98812221D01*
X59869127Y98812221D02*
X60377127Y98642888D01*
X59869127Y98546126D02*
X60377127Y98376792D01*
X60377127Y98376792D02*
X59869127Y98207459D01*
X60038460Y97820411D02*
X60377127Y97820411D01*
X59844937Y97941363D02*
X60207794Y98062316D01*
X60207794Y98062316D02*
X60207794Y97747839D01*
D14*
G04 #@! TO.C,M1*
X39259998Y62029991D02*
X80060001Y62029991D01*
X39259998Y22129992D02*
X39259998Y62029991D01*
X39259998Y22129992D02*
X81359998Y22129992D01*
X80060001Y62029991D02*
X81360001Y62029991D01*
X81359998Y22129992D02*
X81360001Y62029991D01*
G04 #@! TD*
M02*
